<?xml version="1.0" standalone="no"?>
<!DOCTYPE svg PUBLIC "-//W3C//DTD SVG 1.1//EN" "http://www.w3.org/Graphics/SVG/1.1/DTD/svg11.dtd" >
<svg>
<metadata>
Created by FontForge 20090914 at Fri Aug 23 05:13:34 2013
 By www-data
Copyright (c) ARS Type&#194;&#174;-Angus R. Shamal, 2012. All rights reserved.
</metadata>
<defs>
<font id="APLetter-Regular" horiz-adv-x="580" >
  <font-face 
    font-family="AP Letter"
    font-weight="400"
    font-stretch="normal"
    units-per-em="1000"
    panose-1="2 0 6 3 0 0 0 2 0 4"
    ascent="800"
    descent="-200"
    x-height="520"
    cap-height="666"
    bbox="-161 -200.003 1232 989"
    underline-thickness="50"
    underline-position="-50"
    unicode-range="U+0002-U+1F698"
  />
<missing-glyph horiz-adv-x="574" 
d="M40 666h494v-666h-494v666zM88 636l416 -580v580h-416zM70 30h415l-415 580v-580z" />
    <glyph glyph-name="f_f" unicode="ff" horiz-adv-x="656" 
d="M643 642c-8 2 -17.1699 3.99805 -27.5029 5.99805s-21.5 3 -33.5 3c-25.333 0 -44.166 -5 -56.499 -15s-18.5 -27.667 -18.5 -53v-63h122v-72h-122v-448h-87v448h-219v-448h-87v448h-89v72h89v61c0 48.667 13.833 84.834 41.5 108.501s65.5 35.5 113.5 35.5
c14.667 0 29.334 -1 44.001 -3s26.667 -4.66699 36 -8l-12 -72c-8 2 -17.167 4 -27.5 6s-21.833 3 -34.5 3c-24.667 0 -43.167 -5 -55.5 -15s-18.5 -27.667 -18.5 -53v-63h219v61c0 48.667 14 84.834 42 108.501s65.667 35.5 113 35.5c14.667 0 29.334 -1 44.001 -3
s26.667 -4.66699 36 -8z" />
    <glyph glyph-name="fi" unicode="fi" horiz-adv-x="579" 
d="M337 642c-8 2 -17.1689 3.99902 -27.502 5.99902s-22.166 3 -35.499 3c-24 0 -42.167 -5 -54.5 -15s-18.5 -27.667 -18.5 -53v-63h122v-72h-122v-448h-87v448h-89v72h89v61c0 48.667 13.833 84.834 41.5 108.501s65.5 35.5 113.5 35.5c14.667 0 29.334 -1 44.001 -3
s26.667 -4.66699 36 -8zM413.998 -0.000976562v520h87v-520h-87zM413.998 621.999v92h87v-92h-87z" />
    <glyph glyph-name="fl" unicode="fl" horiz-adv-x="587" 
d="M337 642c-8 2 -17.1689 3.99902 -27.502 5.99902s-22.166 3 -35.499 3c-24 0 -42.167 -5 -54.5 -15s-18.5 -27.667 -18.5 -53v-63h122v-72h-122v-448h-87v448h-89v72h89v61c0 48.667 13.833 84.834 41.5 108.501s65.5 35.5 113.5 35.5c14.667 0 29.334 -1 44.001 -3
s26.667 -4.66699 36 -8zM418.998 -0.000976562v714h87v-714h-87z" />
    <glyph glyph-name="f_j" unicode="fj" horiz-adv-x="587" 
d="M337 642c-8 2 -17.1689 3.99902 -27.502 5.99902s-22.166 3 -35.499 3c-24 0 -42.167 -5 -54.5 -15s-18.5 -27.667 -18.5 -53v-63h122v-72h-122v-448h-87v448h-89v72h89v61c0 48.667 13.833 84.834 41.5 108.501s65.5 35.5 113.5 35.5c14.667 0 29.334 -1 44.001 -3
s26.667 -4.66699 36 -8zM508.998 -1.00098c0 -30.667 -4.33398 -57.334 -13.001 -80.001s-20.667 -41.5 -36 -56.5s-33.666 -26.167 -54.999 -33.5s-44.333 -11 -69 -11c-16 0 -31.333 1.33301 -46 4s-27 6.33398 -37 11.001l24 72c7.33301 -3.33301 15.5 -6 24.5 -8
s18.833 -3 29.5 -3c34 0 57.667 9.33301 71 28s20 43.667 20 75v523h87v-521zM421.997 621.999v92h87v-92h-87z" />
    <glyph glyph-name=".notdef" horiz-adv-x="574" 
d="M40 666h494v-666h-494v666zM88 636l416 -580v580h-416zM70 30h415l-415 580v-580z" />
    <glyph glyph-name="NULL" horiz-adv-x="0" 
 />
    <glyph glyph-name="uni0002" horiz-adv-x="270" 
 />
    <glyph glyph-name="nonmarkingreturn" unicode="&#xd;" horiz-adv-x="270" 
 />
    <glyph glyph-name="space" unicode=" " horiz-adv-x="270" 
 />
    <glyph glyph-name="exclam" unicode="!" horiz-adv-x="268" 
d="M157 201h-46l-27 316v149h100v-149zM84 0v111h100v-111h-100z" />
    <glyph glyph-name="quotedbl" unicode="&#x22;" horiz-adv-x="388" 
d="M308 420h-40l-30 213v33h100v-33zM121 420h-41l-30 213v33h101v-33z" />
    <glyph glyph-name="numbersign" unicode="#" horiz-adv-x="633" 
d="M471 422l-32 -178h115v-55h-124l-34 -189h-60l34 189h-157l-33 -189h-60l33 189h-115v55h124l32 178h-115v55h124l34 189h60l-33 -189h156l34 189h60l-34 -189h115v-55h-124zM254 422l-31 -178h156l32 178h-157z" />
    <glyph glyph-name="dollar" unicode="$" 
d="M270 -97l-0.00195312 86.002c-56.667 3.33301 -105.167 16.833 -145.5 40.5s-72.166 54.834 -95.499 93.501l73 46c19.333 -32 43.833 -56.333 73.5 -73s61.167 -27 94.5 -31v240c-24.667 5.33301 -49.667 12.166 -75 20.499s-48.166 19.5 -68.499 33.5
s-37 31.833 -50 53.5s-19.5 48.5 -19.5 80.5c0 28 5.33301 53.167 16 75.5s25.5 41.5 44.5 57.5s41.5 28.333 67.5 37s54.333 13.667 85 15v70h54v-71c42 -4.66699 80.5 -16.667 115.5 -36s64.833 -45.666 89.5 -78.999l-66 -45c-36 44.667 -82.333 72 -139 82v-216
c27.333 -6.66699 54 -14.667 80 -24s49.333 -21.333 70 -36s37.167 -32.834 49.5 -54.501s18.5 -48.167 18.5 -79.5c0 -28 -5.16699 -53.5 -15.5 -76.5s-25 -43.333 -44 -61s-41.833 -31.834 -68.5 -42.501s-56.667 -17.334 -90 -20.001v-86h-54zM453.998 182.002
c0 17.333 -3.16797 31.833 -9.50098 43.5s-15.166 21.667 -26.499 30s-25 15.333 -41 21s-33.667 11.167 -53 16.5v-228c40 3.33301 71.667 15 95 35s35 47.333 35 82zM144.997 502.002c0 -16.667 3.16797 -30.666 9.50098 -41.999s15 -20.833 26 -28.5
s24.167 -14.334 39.5 -20.001s32 -10.834 50 -15.501v206c-16.667 -0.666992 -32.5 -3 -47.5 -7s-28.333 -10 -40 -18s-20.834 -18.167 -27.501 -30.5s-10 -27.166 -10 -44.499z" />
    <glyph glyph-name="percent" unicode="%" horiz-adv-x="762" 
d="M349 512c0 -23.333 -3.83301 -45.166 -11.5 -65.499s-18.334 -37.833 -32.001 -52.5s-30.167 -26.167 -49.5 -34.5s-40.666 -12.5 -63.999 -12.5s-44.666 4.16699 -63.999 12.5s-35.833 19.833 -49.5 34.5s-24.334 32.167 -32.001 52.5s-11.5 42.166 -11.5 65.499
c0 22.667 3.83301 44 11.5 64s18.334 37.333 32.001 52s30.167 26.167 49.5 34.5s40.666 12.5 63.999 12.5s44.666 -4.16699 63.999 -12.5s35.833 -19.833 49.5 -34.5s24.334 -32 32.001 -52s11.5 -41.333 11.5 -64zM242 0h-69l346 666h70zM727 155
c0 -23.333 -3.83301 -45 -11.5 -65s-18.334 -37.333 -32.001 -52s-30.167 -26.167 -49.5 -34.5s-40.666 -12.5 -63.999 -12.5s-44.5 4.16699 -63.5 12.5s-35.5 19.833 -49.5 34.5s-24.833 32 -32.5 52s-11.5 41.667 -11.5 65c0 22.667 3.83301 44 11.5 64
s18.5 37.333 32.5 52s30.5 26.167 49.5 34.5s40.167 12.5 63.5 12.5s44.666 -4.16699 63.999 -12.5s35.833 -19.833 49.5 -34.5s24.334 -32 32.001 -52s11.5 -41.333 11.5 -64zM287 512c0 28.667 -8.66699 52.667 -26 72s-40.333 29 -69 29c-30 0 -53.5 -9.66699 -70.5 -29
s-25.5 -43.333 -25.5 -72c0 -29.333 8.5 -53.833 25.5 -73.5s40.5 -29.5 70.5 -29.5c29.333 0 52.5 9.83301 69.5 29.5s25.5 44.167 25.5 73.5zM666 155c0 28.667 -8.66699 52.834 -26 72.501s-40.666 29.5 -69.999 29.5c-28.667 0 -51.667 -9.83301 -69 -29.5
s-26 -43.834 -26 -72.501s8.66699 -53 26 -73s40.333 -30 69 -30c29.333 0 52.666 10 69.999 30s26 44.333 26 73z" />
    <glyph glyph-name="ampersand" unicode="&#x26;" horiz-adv-x="672" 
d="M620 289c-9.33301 -30.667 -21.333 -60.1689 -36 -88.502s-31.334 -54.166 -50.001 -77.499l122 -123h-115l-66 65c-30 -25.333 -62.333 -44.5 -97 -57.5s-72 -19.5 -112 -19.5c-32 0 -62.167 4.16699 -90.5 12.5s-53 20.5 -74 36.5s-37.5 35.667 -49.5 59s-18 50 -18 80
c0 24 3.83301 45.667 11.5 65s18.334 36.5 32.001 51.5s29.834 28.333 48.501 40s38.667 22.167 60 31.5c-26 28 -45.333 53.333 -58 76s-19 49 -19 79c0 26 4.66699 48.833 14 68.5s22.166 36.334 38.499 50.001s35.5 23.834 57.5 30.501s46 10 72 10
c26.667 0 51 -3.66699 73 -11s41 -17.5 57 -30.5s28.333 -29 37 -48s13 -39.833 13 -62.5c0 -40 -13 -74.5 -39 -103.5s-64.333 -55.167 -115 -78.5l162 -164c13.333 19.333 25.5 40.166 36.5 62.499s19.5 44.5 25.5 66.5zM277 64.998c26.667 0 51.833 4.5 75.5 13.5
s46.5 23.167 68.5 42.5l-188 192c-14.667 -6.66699 -28.5 -14 -41.5 -22s-24.5 -17.167 -34.5 -27.5s-17.833 -21.833 -23.5 -34.5s-8.5 -27 -8.5 -43c0 -36.667 14 -66 42 -88s64.667 -33 110 -33zM390.999 520.998c0 28.667 -10 50.002 -30 64.002s-43.333 21 -70 21
c-26 0 -49 -7.16699 -69 -21.5s-30 -35.833 -30 -64.5c0 -23.333 7 -44.333 21 -63s32 -39.334 54 -62.001c16 7.33301 31.5 15.166 46.5 23.499s28.167 17.5 39.5 27.5s20.5 21 27.5 33s10.5 26 10.5 42z" />
    <glyph glyph-name="quotesingle" unicode="'" horiz-adv-x="199" 
d="M119 420h-40l-29 213v33h100v-33z" />
    <glyph glyph-name="parenleft" unicode="(" horiz-adv-x="289" 
d="M213 -124c-60.667 63.333 -104.334 131.333 -131.001 204s-40 147 -40 223c0 75.333 13.333 149.5 40 222.5s70.334 141.167 131.001 204.5l56 -46c-52.667 -56 -90.5 -116.333 -113.5 -181s-34.5 -131.334 -34.5 -200.001c0 -69.333 11.5 -136.166 34.5 -200.499
s60.833 -124.833 113.5 -181.5z" />
    <glyph glyph-name="parenright" unicode=")" horiz-adv-x="289" 
d="M76 730c60.667 -64 104.333 -132.334 131 -205.001s40 -146.667 40 -222s-13.5 -149.666 -40.5 -222.999s-70.5 -141.333 -130.5 -204l-57 45c53.333 56.667 91.5 117.167 114.5 181.5s34.5 131.166 34.5 200.499c0 68.667 -11.5 135.334 -34.5 200.001
s-61.167 125 -114.5 181z" />
    <glyph glyph-name="asterisk" unicode="*" horiz-adv-x="432" 
d="M232 476l7.00195 -46.498c2 -13 3.5 -25.167 4.5 -36.5s1.66699 -22.5 2 -33.5s0.5 -23.5 0.5 -37.5h-61c0 14 0.166992 26.5 0.5 37.5s1 22.167 2 33.5s2.5 23.5 4.5 36.5s4.66699 28.5 8 46.5l-36.5 -30.5c-10.333 -8.33301 -20.166 -15.666 -29.499 -21.999
s-18.666 -12.333 -27.999 -18s-20 -11.834 -32 -18.501l-30 52l32 18c9.33301 5.33301 19.166 10.333 29.499 15s21.666 9.5 33.999 14.5s27.166 10.5 44.499 16.5l-44.5 17.5c-12.333 5 -23.666 9.83301 -33.999 14.5s-20.166 9.5 -29.499 14.5s-20 11.167 -32 18.5l30 52
c12 -6.66699 22.667 -12.834 32 -18.501s18.666 -11.667 27.999 -18s19.166 -13.666 29.499 -21.999l36.5 -30.5c-3.33301 18 -6 33.5 -8 46.5s-3.5 25.167 -4.5 36.5s-1.66699 22.5 -2 33.5s-0.5 23.5 -0.5 37.5h61c0 -14 -0.166992 -26.5 -0.5 -37.5s-1 -22.167 -2 -33.5
s-2.5 -23.5 -4.5 -36.5l-7 -46.5l36.5 30.5c10.333 8.33301 20.166 15.666 29.499 21.999s18.666 12.333 27.999 18l31 18.5l31 -52c-12 -7.33301 -22.833 -13.5 -32.5 -18.5s-19.667 -9.83301 -30 -14.5s-21.666 -9.5 -33.999 -14.5l-44.5 -17.5
c17.333 -6 32.166 -11.5 44.499 -16.5s23.666 -9.83301 33.999 -14.5s20.333 -9.66699 30 -15l32.5 -18l-31 -52l-31 18.5c-9.33301 5.66699 -18.666 11.667 -27.999 18s-19.166 13.666 -29.499 21.999z" />
    <glyph glyph-name="plus" unicode="+" 
d="M327 266v-200h-77v200h-199v76h199v200h77v-200h200v-76h-200z" />
    <glyph glyph-name="comma" unicode="," horiz-adv-x="251" 
d="M179 8c0 -32.667 -6.66699 -61.666 -20 -86.999s-33 -49.333 -59 -72l-32 33c18 14.667 31.667 30.667 41 48s14 33.666 14 48.999v21h-51v106h107v-98z" />
    <glyph glyph-name="hyphen" unicode="-" horiz-adv-x="393" 
d="M62 242v78h269v-78h-269z" />
    <glyph glyph-name="period" unicode="." horiz-adv-x="251" 
d="M72 0v106h107v-106h-107z" />
    <glyph glyph-name="slash" unicode="/" horiz-adv-x="353" 
d="M103 -108h-71l220 822h71z" />
    <glyph glyph-name="zero" unicode="0" 
d="M533 333c0 -42.667 -3.83301 -84.667 -11.5 -126s-20.834 -78.166 -39.501 -110.499s-43.667 -58.5 -75 -78.5s-70.333 -30 -117 -30c-47.333 0 -86.5 10 -117.5 30s-55.833 46.167 -74.5 78.5s-31.834 69.166 -39.501 110.499s-11.5 83.333 -11.5 126
s3.83301 84.667 11.5 126s20.834 78.166 39.501 110.499s43.5 58.5 74.5 78.5s70.167 30 117.5 30c46.667 0 85.667 -10 117 -30s56.333 -46.167 75 -78.5s31.834 -69.166 39.501 -110.499s11.5 -83.333 11.5 -126zM436 333c0 36.667 -2.33301 71 -7 103s-12.5 60 -23.5 84
s-26 42.833 -45 56.5s-42.5 20.5 -70.5 20.5s-51.5 -6.83301 -70.5 -20.5s-34.167 -32.5 -45.5 -56.5s-19.333 -52 -24 -84s-7 -66.333 -7 -103s2.33301 -71 7 -103s12.667 -60 24 -84s26.5 -43 45.5 -57s42.5 -21 70.5 -21s51.5 7 70.5 21s34 33 45 57s18.833 52 23.5 84
s7 66.333 7 103z" />
    <glyph glyph-name="one" unicode="1" 
d="M101 0v77.002h167v478c-8 -4.66699 -18.333 -9.5 -31 -14.5s-26.5 -9.66699 -41.5 -14s-30.667 -8.33301 -47 -12s-32.5 -6.5 -48.5 -8.5l-11 74c48 9.33301 88.333 20.666 121 33.999s59.667 30.666 81 51.999h71v-589h158v-77h-419z" />
    <glyph glyph-name="two" unicode="2" 
d="M61 0l0.000976562 71.998l158 135c43.333 38.667 78.666 73.334 105.999 104.001s47.166 58.667 59.499 84s18.5 50.333 18.5 75c0 41.333 -12.333 72.166 -37 92.499s-55.334 30.5 -92.001 30.5c-36 0 -66.667 -8.83301 -92 -26.5s-45.666 -39.167 -60.999 -64.5l-74 46
c25.333 38.667 57.666 70 96.999 94s85 36 137 36c31.333 0 60.333 -4.66699 87 -14s49.834 -22.833 69.501 -40.5s35.167 -39.167 46.5 -64.5s17 -53.666 17 -84.999c0 -30 -5.83301 -59.333 -17.5 -88s-29.667 -58.167 -54 -88.5s-55.666 -62.666 -93.999 -96.999
s-84.5 -72.5 -138.5 -114.5h330v-86h-466z" />
    <glyph glyph-name="three" unicode="3" 
d="M227 305v81.001h54c41.333 0 73 9.83301 95 29.5s33 45.834 33 78.501c0 31.333 -11 55.833 -33 73.5s-52.667 26.5 -92 26.5c-68.667 0 -121.667 -26.667 -159 -80l-70 49c58.667 76.667 136 115 232 115c32 0 61.333 -4.33301 88 -13s49.5 -20.834 68.5 -36.501
s33.833 -34.167 44.5 -55.5s16 -44.666 16 -69.999c0 -36 -9.16699 -66.333 -27.5 -91s-42.5 -44.334 -72.5 -59.001c41.333 -16 71.666 -38.833 90.999 -68.5s29 -61.5 29 -95.5c0 -28 -5.5 -54.333 -16.5 -79s-26.667 -46 -47 -64s-45.333 -32.167 -75 -42.5
s-62.834 -15.5 -99.501 -15.5c-61.333 0 -112.166 12 -152.499 36s-72.166 57 -95.499 99l81 44c16.667 -32.667 39.667 -56.667 69 -72s62 -23 98 -23c46 0 81 11.167 105 33.5s36 51.833 36 88.5c0 33.333 -12 60.166 -36 80.499s-61.333 30.5 -112 30.5h-52z" />
    <glyph glyph-name="four" unicode="4" 
d="M449 156v-155.996h-92v156h-324v77c22.667 39.333 42.5 78.666 59.5 117.999s31.167 77.666 42.5 114.999s19.833 73 25.5 107s8.5 65 8.5 93h91c0 -28.667 -3.16699 -60.334 -9.5 -95.001s-15.333 -70.834 -27 -108.501s-26.167 -75.5 -43.5 -113.5s-37 -75 -59 -111
h236v282h92v-282h98v-82h-98z" />
    <glyph glyph-name="five" unicode="5" 
d="M280 73c46 0 82.6689 12.333 110.002 37s41 59.334 41 104.001c0 42.667 -13 76.167 -39 100.5s-62 36.5 -108 36.5c-60.667 0 -108.334 -21.333 -143.001 -64l-57 27l22 352h384v-86h-307l-16 -191c22.667 16 46.167 27 70.5 33s47.166 9 68.499 9
c32 0 61.5 -5.16699 88.5 -15.5s50.333 -24.833 70 -43.5s35.167 -41.167 46.5 -67.5s17 -55.5 17 -87.5c0 -30.667 -5.33301 -59.834 -16 -87.501s-26.5 -52 -47.5 -73s-46.667 -37.667 -77 -50s-65.166 -18.5 -104.499 -18.5c-55.333 0 -102.833 10.833 -142.5 32.5
s-71.5 53.167 -95.5 94.5l79 47c17.333 -32 39.666 -54.833 66.999 -68.5s57 -20.5 89 -20.5z" />
    <glyph glyph-name="six" unicode="6" 
d="M420 666c-22 -17.333 -45.002 -37.166 -69.002 -59.499s-47.167 -45.833 -69.5 -70.5s-42.666 -50 -60.999 -76s-32.5 -51 -42.5 -75c8.66699 10 19.167 18.333 31.5 25s25.166 12 38.499 16s26.666 6.83301 39.999 8.5s26 2.5 38 2.5c30 0 58 -5.16699 84 -15.5
s48.667 -25 68 -44s34.5 -42 45.5 -69s16.5 -57.167 16.5 -90.5c0 -34 -5.83301 -65 -17.5 -93s-28.167 -52.167 -49.5 -72.5s-47.166 -36.166 -77.499 -47.499s-63.833 -17 -100.5 -17s-70 5.5 -100 16.5s-55.667 27 -77 48s-37.833 46.833 -49.5 77.5
s-17.5 65.667 -17.5 105c0 41.333 6.16699 81.166 18.5 119.499s29.333 75.333 51 111s46.834 70.167 75.501 103.5s59.334 65.666 92.001 96.999h132zM146.998 216c0 -42.667 12.833 -77.334 38.5 -104.001s62.5 -40 110.5 -40c47.333 0 83.5 13.333 108.5 40
s37.5 61.334 37.5 104.001c0 43.333 -12.5 78 -37.5 104s-61.167 39 -108.5 39c-48 0 -84.833 -13.167 -110.5 -39.5s-38.5 -60.833 -38.5 -103.5z" />
    <glyph glyph-name="seven" unicode="7" 
d="M535 590l-50.4971 -67.0059c-19 -26 -38.5 -54.667 -58.5 -86s-39.833 -64.666 -59.5 -99.999s-37.334 -71.833 -53.001 -109.5s-28.834 -75.667 -39.501 -114s-16.667 -76.166 -18 -113.499h-101c2 36.667 8 73.834 18 111.501s22.667 74.834 38 111.501
s32.333 72.334 51 107.001s37.667 67.334 57 98.001s38.166 59 56.499 85s34.833 48.333 49.5 67h-375v86h485v-76z" />
    <glyph glyph-name="eight" unicode="8" 
d="M290 69c46.667 0 82.832 11.167 108.499 33.5s38.5 52.833 38.5 91.5c0 38 -12.167 68 -36.5 90s-61.166 33 -110.499 33s-86.166 -11 -110.499 -33s-36.5 -52 -36.5 -90c0 -38.667 12.667 -69.167 38 -91.5s61.666 -33.5 108.999 -33.5zM289.998 395
c38.667 0 69 8.83301 91 26.5s33 42.5 33 74.5s-11.167 57 -33.5 75s-52.5 27 -90.5 27s-68.167 -9 -90.5 -27s-33.5 -43 -33.5 -75s11 -56.833 33 -74.5s52.333 -26.5 91 -26.5zM289.998 -12c-38 0 -72.1689 5 -102.502 15s-56 24 -77 42s-37.167 39.167 -48.5 63.5
s-17 50.833 -17 79.5c0 36 9.66699 69.5 29 100.5s49.666 55.167 90.999 72.5c-29.333 13.333 -52.5 31.833 -69.5 55.5s-25.5 52.5 -25.5 86.5c0 26 5.66699 49.833 17 71.5s26.833 40.167 46.5 55.5s42.834 27.166 69.501 35.499s55.667 12.5 87 12.5
s60.333 -4.16699 87 -12.5s49.834 -20.166 69.501 -35.499s35.167 -33.833 46.5 -55.5s17 -45.5 17 -71.5c0 -34 -8.66699 -62.833 -26 -86.5s-40.666 -42.167 -69.999 -55.5c42 -17.333 72.5 -41.5 91.5 -72.5s28.5 -64.5 28.5 -100.5c0 -28.667 -5.5 -55.167 -16.5 -79.5
s-27 -45.5 -48 -63.5s-46.667 -32 -77 -42s-64.5 -15 -102.5 -15z" />
    <glyph glyph-name="nine" unicode="9" 
d="M160 0c22 17.333 45.001 37.166 69.001 59.499s47.167 45.833 69.5 70.5s42.666 50 60.999 76s32.5 51 42.5 75c-9.33301 -10 -20 -18.333 -32 -25s-24.667 -12 -38 -16s-26.666 -6.83301 -39.999 -8.5s-26 -2.5 -38 -2.5c-30 0 -58 5.16699 -84 15.5s-48.667 25 -68 44
s-34.5 42 -45.5 69s-16.5 57.167 -16.5 90.5c0 34 5.83301 65 17.5 93s28.167 52.167 49.5 72.5s47 36.166 77 47.499s63.667 17 101 17c36.667 0 70 -5.5 100 -16.5s55.667 -27 77 -48s37.833 -46.833 49.5 -77.5s17.5 -65.667 17.5 -105
c0 -41.333 -6.33301 -81.166 -19 -119.499s-29.667 -75.333 -51 -111s-46.333 -70.167 -75 -103.5s-59.334 -65.666 -92.001 -96.999h-132zM433.001 450c0 42.667 -12.833 77.334 -38.5 104.001s-62.5 40 -110.5 40c-47.333 0 -83.5 -13.333 -108.5 -40
s-37.5 -61.334 -37.5 -104.001c0 -43.333 12.5 -78 37.5 -104s61.167 -39 108.5 -39c48 0 84.833 13.167 110.5 39.5s38.5 60.833 38.5 103.5z" />
    <glyph glyph-name="colon" unicode=":" horiz-adv-x="295" 
d="M94 0v106h107v-106h-107zM94 414v106h107v-106h-107z" />
    <glyph glyph-name="semicolon" unicode=";" horiz-adv-x="295" 
d="M201 8c0 -32.667 -6.66699 -61.666 -20 -86.999s-33 -49.333 -59 -72l-32 33c18 14.667 31.667 30.667 41 48s14 33.666 14 48.999v21h-51v106h107v-98zM94 414.001v106h107v-106h-107z" />
    <glyph glyph-name="less" unicode="&#x3c;" 
d="M390 26l-281 279l281 280l52 -53l-226 -227l226 -227z" />
    <glyph glyph-name="equal" unicode="=" 
d="M52 364v76h476v-76h-476zM52 168v77h476v-77h-476z" />
    <glyph glyph-name="greater" unicode="&#x3e;" 
d="M190 26l-52 52l227 227l-227 227l52 53l281 -280z" />
    <glyph glyph-name="question" unicode="?" horiz-adv-x="511" 
d="M466 478c0 -29.333 -5.33301 -56.002 -16 -80.002s-25.167 -44.667 -43.5 -62s-40.333 -31.5 -66 -42.5s-53.5 -18.5 -83.5 -22.5v-70h-84v146c6.66699 -1.33301 13 -2.16602 19 -2.49902s11.667 -0.5 17 -0.5c47.333 0 86 11.333 116 34s45 55 45 97
c0 34 -11.5 62.333 -34.5 85s-56.167 34 -99.5 34c-30.667 0 -58.5 -5.66699 -83.5 -17s-48.5 -26.666 -70.5 -45.999l-52 63c30 26 62.5 46.5 97.5 61.5s73.5 22.5 115.5 22.5c31.333 0 60.5 -4.5 87.5 -13.5s50.5 -22.167 70.5 -39.5s35.833 -38.333 47.5 -63
s17.5 -52.667 17.5 -84zM161 -0.00195312v102h107v-102h-107z" />
    <glyph glyph-name="at" unicode="@" horiz-adv-x="842" 
d="M535 173c-16.667 -23.333 -36.4961 -40.668 -59.4961 -52.001s-48.167 -17 -75.5 -17c-26 0 -49.5 5 -70.5 15s-38.833 23.667 -53.5 41s-26 37.833 -34 61.5s-12 49.167 -12 76.5s4 52.833 12 76.5s19.5 44.334 34.5 62.001s33 31.5 54 41.5s44.833 15 71.5 15
c22.667 0 43.667 -4.33301 63 -13s37.333 -22.667 54 -42v47h75v-263c0 -17.333 4 -32 12 -44s23.333 -18 46 -18c31.333 0 54.666 13 69.999 39s23 60 23 102c0 44.667 -7.66699 86.5 -23 125.5s-37 72.833 -65 101.5s-61.5 51.167 -100.5 67.5s-82.167 24.5 -129.5 24.5
s-90.5 -8.5 -129.5 -25.5s-72.5 -40 -100.5 -69s-49.667 -63 -65 -102s-23 -80.167 -23 -123.5c0 -44 7.66699 -85.333 23 -124s37 -72.5 65 -101.5s61.5 -51.833 100.5 -68.5s82.167 -25 129.5 -25c28 0 55.5 3.5 82.5 10.5s52.167 17.5 75.5 31.5l28 -51
c-28 -15.333 -57.667 -27.166 -89 -35.499s-65 -12.5 -101 -12.5c-55.333 0 -106.333 9.66699 -153 29s-86.834 46 -120.501 80s-59.834 73.833 -78.501 119.5s-28 94.834 -28 147.501c0 52 9.33301 101 28 147s44.834 86.167 78.501 120.5s74 61.333 121 81
s98.833 29.5 155.5 29.5s108.334 -9.83301 155.001 -29.5s86.667 -46.334 120 -80.001s59.166 -72.834 77.499 -117.501s27.5 -92 27.5 -142c0 -31.333 -3.83301 -59.5 -11.5 -84.5s-18.334 -46.167 -32.001 -63.5s-30.334 -30.833 -50.001 -40.5s-41.5 -14.5 -65.5 -14.5
c-21.333 0 -42.5 4.83301 -63.5 14.5s-37.167 27.167 -48.5 52.5zM519.004 297.998c0 18 -2.33301 34.667 -7 50s-11.5 28.833 -20.5 40.5s-20.167 20.834 -33.5 27.501s-28.666 10 -45.999 10s-32.5 -3.33301 -45.5 -10s-23.833 -15.834 -32.5 -27.501
s-15.167 -25.167 -19.5 -40.5s-6.5 -32 -6.5 -50c0 -17.333 2.16699 -33.833 6.5 -49.5s10.833 -29.167 19.5 -40.5s19.5 -20.333 32.5 -27s28.5 -10 46.5 -10c17.333 0 32.666 3.33301 45.999 10s24.5 15.667 33.5 27s15.667 24.833 20 40.5s6.5 32.167 6.5 49.5z" />
    <glyph glyph-name="A" unicode="A" horiz-adv-x="667" 
d="M552 0l-71 185h-300l-72 -185h-98l271 666h103l272 -666h-105zM333 575l-120 -308h237z" />
    <glyph glyph-name="B" unicode="B" horiz-adv-x="661" 
d="M612 191c0 -26.667 -4.49805 -51.668 -13.498 -75.001s-22.833 -43.5 -41.5 -60.5s-41.834 -30.5 -69.501 -40.5s-59.834 -15 -96.501 -15h-301v666h279c68.667 0 121.667 -14 159 -42s56 -67.333 56 -118c0 -33.333 -8 -62.166 -24 -86.499s-37 -43.5 -63 -57.5
c38 -15.333 66.667 -38 86 -68s29 -64.333 29 -103zM490.002 492.999c0 30.667 -10.333 53.001 -31 67.001s-51.667 21 -93 21h-182v-190h187c38 0 67.333 9.16699 88 27.5s31 43.166 31 74.499zM514.002 196c0 33.333 -9.83398 60.667 -29.501 82s-50.5 32 -92.5 32h-208
v-226h204c40.667 0 71.834 9.83301 93.501 29.5s32.5 47.167 32.5 82.5z" />
    <glyph glyph-name="C" unicode="C" horiz-adv-x="670" 
d="M559 493c-20.667 32 -46.3359 56.5029 -77.0029 73.5029s-67 25.5 -109 25.5c-34.667 0 -66 -6.16699 -94 -18.5s-51.833 -29.833 -71.5 -52.5s-34.834 -49.834 -45.501 -81.501s-16 -66.834 -16 -105.501c0 -39.333 5.33301 -75 16 -107s25.834 -59.5 45.501 -82.5
s43.334 -40.667 71.001 -53s58.5 -18.5 92.5 -18.5c41.333 0 77.833 9.16699 109.5 27.5s57.834 43.5 78.501 75.5l77 -50c-28.667 -43.333 -65.167 -77.166 -109.5 -101.499s-95.833 -36.5 -154.5 -36.5c-48.667 0 -93 8.66699 -133 26s-74.167 41.166 -102.5 71.499
s-50.166 66.666 -65.499 108.999s-23 88.5 -23 138.5s7.66699 96 23 138s37.166 78.333 65.499 109s62.333 54.667 102 72s83.834 26 132.501 26c57.333 0 107.833 -11.5 151.5 -34.5s80.5 -56.167 110.5 -99.5z" />
    <glyph glyph-name="D" unicode="D" horiz-adv-x="720" 
d="M348 86c36.667 0 69 5.83301 97 17.5s51.5 28.334 70.5 50.001s33.333 47.667 43 78s14.5 64.166 14.5 101.499s-4.83301 71.166 -14.5 101.499s-24 56.333 -43 78s-42.5 38.334 -70.5 50.001s-60.333 17.5 -97 17.5h-163v-494h163zM90 0v666.002h258
c52 0 98 -8.5 138 -25.5s73.667 -40.333 101 -70s48.166 -64.834 62.499 -105.501s21.5 -84.667 21.5 -132s-7.16699 -91.333 -21.5 -132s-35.166 -75.834 -62.499 -105.501s-61 -53 -101 -70s-86 -25.5 -138 -25.5h-258z" />
    <glyph glyph-name="E" unicode="E" horiz-adv-x="620" 
d="M90 0v666h472v-86h-378v-188h329v-81h-329v-225h388v-86h-482z" />
    <glyph glyph-name="F" unicode="F" horiz-adv-x="602" 
d="M184 580v-192h328v-81h-328v-307h-94v666h481v-86h-387z" />
    <glyph glyph-name="G" unicode="G" horiz-adv-x="721" 
d="M373 592c-35.333 0 -67.1719 -6.3291 -95.5049 -18.9961s-52.166 -30.334 -71.499 -53.001s-34.166 -49.834 -44.499 -81.501s-15.5 -66.834 -15.5 -105.501c0 -39.333 5.33301 -74.833 16 -106.5s25.667 -59 45 -82s43 -40.667 71 -53s59.667 -18.5 95 -18.5
c30 0 57.667 4.33301 83 13s47.5 21.167 66.5 37.5s34.333 36 46 59s18.5 48.833 20.5 77.5h-216v82h305c1.33301 -6.66699 2.33301 -14 3 -22s1 -17.333 1 -28c0 -40 -6.83301 -78.333 -20.5 -115s-33.667 -69 -60 -97s-58.666 -50.333 -96.999 -67s-81.833 -25 -130.5 -25
c-49.333 0 -94.166 8.66699 -134.499 26s-74.666 41.333 -102.999 72s-50.166 67.167 -65.499 109.5s-23 88.5 -23 138.5s7.66699 96.167 23 138.5s37.166 78.666 65.499 108.999s62.333 54 102 71s83.834 25.5 132.501 25.5c57.333 0 107.833 -11.5 151.5 -34.5
s80.5 -56.167 110.5 -99.5l-74 -51c-20.667 32 -46.334 56.5 -77.001 73.5s-67 25.5 -109 25.5z" />
    <glyph glyph-name="H" unicode="H" horiz-adv-x="729" 
d="M545 0v310h-361v-310h-94v666h94v-271h361v271h94v-666h-94z" />
    <glyph glyph-name="I" unicode="I" horiz-adv-x="273" 
d="M90 0v666h93v-666h-93z" />
    <glyph glyph-name="J" unicode="J" horiz-adv-x="506" 
d="M423 209c0 -36 -5.16699 -67.833 -15.5 -95.5s-25 -50.667 -44 -69s-41.667 -32.333 -68 -42s-55.5 -14.5 -87.5 -14.5c-40 0 -76 8 -108 24s-58.667 41.333 -80 76l75 48c15.333 -22 32.666 -37.833 51.999 -47.5s41 -14.5 65 -14.5c42.667 0 72.834 12.333 90.501 37
s26.5 57 26.5 97v458h94v-457v0z" />
    <glyph glyph-name="K" unicode="K" horiz-adv-x="646" 
d="M529 0l-230 317l-116 -129v-188h-93v666h93v-357l323 357h113l-257 -282l283 -384h-116z" />
    <glyph glyph-name="L" unicode="L" horiz-adv-x="568" 
d="M90 0v666h93v-580h370v-86h-463z" />
    <glyph glyph-name="M" unicode="M" horiz-adv-x="879" 
d="M697 0v569l-217 -569h-81l-219 569v-569h-90v666h140l211 -549l211 549h137v-666h-92z" />
    <glyph glyph-name="N" unicode="N" horiz-adv-x="729" 
d="M529 0l-349 549v-549h-90v666h120l339 -536v536h90v-666h-110z" />
    <glyph glyph-name="O" unicode="O" horiz-adv-x="745" 
d="M698 333c0 -49.333 -7.66699 -95 -23 -137s-37.166 -78.333 -65.499 -109s-62.5 -54.834 -102.5 -72.501s-85 -26.5 -135 -26.5s-95 8.83301 -135 26.5s-74 41.834 -102 72.501s-49.667 67 -65 109s-23 87.667 -23 137c0 48.667 7.66699 94.167 23 136.5
s37 78.833 65 109.5s62 54.834 102 72.501s85 26.5 135 26.5s95 -8.83301 135 -26.5s74.167 -41.834 102.5 -72.501s50.166 -67.167 65.499 -109.5s23 -87.833 23 -136.5zM599 333c0 38 -5.16699 72.667 -15.5 104s-25.333 58.333 -45 81s-43.5 40.334 -71.5 53.001
s-59.667 19 -95 19s-67.166 -6.33301 -95.499 -19s-52.166 -30.334 -71.499 -53.001s-34.166 -49.667 -44.499 -81s-15.5 -66 -15.5 -104s5.16699 -72.667 15.5 -104s25.166 -58.5 44.499 -81.5s43.166 -40.833 71.499 -53.5s60.166 -19 95.499 -19s67 6.33301 95 19
s51.833 30.5 71.5 53.5s34.667 50.167 45 81.5s15.5 66 15.5 104z" />
    <glyph glyph-name="P" unicode="P" horiz-adv-x="634" 
d="M605 459c0 -31.333 -5.16699 -59.666 -15.5 -84.999s-25.5 -47 -45.5 -65s-44.5 -31.833 -73.5 -41.5s-62.5 -14.5 -100.5 -14.5h-186v-253h-94v666h280c38 0 71.5 -5 100.5 -15s53.5 -24 73.5 -42s35.167 -39.833 45.5 -65.5s15.5 -53.834 15.5 -84.501zM370 339
c46.667 0 81.334 10.832 104.001 32.499s34 50.834 34 87.501c0 37.333 -11.333 66.833 -34 88.5s-57.334 32.5 -104.001 32.5h-186v-241h186z" />
    <glyph glyph-name="Q" unicode="Q" horiz-adv-x="745" 
d="M698 333c0 -54 -9.5 -103.669 -28.5 -149.002s-45.5 -83.666 -79.5 -114.999l75 -90l-63 -53l-79 96c-45.333 -22.667 -95.666 -34 -150.999 -34c-50 0 -95 8.83301 -135 26.5s-74 41.834 -102 72.501s-49.667 67 -65 109s-23 87.667 -23 137
c0 48.667 7.66699 94.167 23 136.5s37 78.833 65 109.5s62 54.834 102 72.501s85 26.5 135 26.5s95 -8.83301 135 -26.5s74.167 -41.834 102.5 -72.501s50.166 -67.167 65.499 -109.5s23 -87.833 23 -136.5zM599 332.998c0 38 -5.16699 72.665 -15.5 103.998
s-25.333 58.333 -45 81s-43.5 40.334 -71.5 53.001s-59.667 19 -95 19s-67.166 -6.33301 -95.499 -19s-52.166 -30.334 -71.499 -53.001s-34.166 -49.667 -44.499 -81s-15.5 -66 -15.5 -104s5.16699 -72.667 15.5 -104s25.166 -58.5 44.499 -81.5
s43.166 -40.833 71.499 -53.5s60.166 -19 95.499 -19c34 0 64.333 6.66699 91 20l-70 86l62 50l75 -91c22 22.667 39 50.334 51 83.001s18 69.334 18 110.001z" />
    <glyph glyph-name="R" unicode="R" horiz-adv-x="661" 
d="M517 0l-141.999 268.001h-191v-268h-94v666h292c34 0 64.833 -4.66699 92.5 -14s51.167 -22.5 70.5 -39.5s34.166 -37.5 44.499 -61.5s15.5 -50.667 15.5 -80c0 -46.667 -12.833 -85.834 -38.5 -117.501s-58.5 -54.5 -98.5 -68.5l155 -285h-106zM508.001 464.001
c0 36 -11.833 64.333 -35.5 85s-54.834 31 -93.501 31h-195v-230h198c38.667 0 69.334 10.5 92.001 31.5s34 48.5 34 82.5z" />
    <glyph glyph-name="S" unicode="S" horiz-adv-x="605" 
d="M298 678c50.667 0 97.6602 -9.99902 140.993 -29.999s79.666 -49.333 108.999 -88l-72 -51c-21.333 28 -47.666 49.333 -78.999 64s-66 22 -104 22c-17.333 0 -34.166 -1.66699 -50.499 -5s-30.666 -8.83301 -42.999 -16.5s-22.166 -17.667 -29.499 -30
s-11 -27.5 -11 -45.5s4 -32.667 12 -44s19 -20.833 33 -28.5s30.333 -14.167 49 -19.5s38.667 -10.333 60 -15c32 -7.33301 62.833 -15.666 92.5 -24.999s55.834 -21.166 78.501 -35.499s40.834 -32.666 54.501 -54.999s20.5 -50.166 20.5 -83.499
c0 -30.667 -6 -58.5 -18 -83.5s-29 -46.5 -51 -64.5s-48.5 -31.833 -79.5 -41.5s-65.833 -14.5 -104.5 -14.5c-63.333 0 -118 12.333 -164 37s-81.667 58 -107 100l77 49c23.333 -36.667 52.666 -63.167 87.999 -79.5s73 -24.5 113 -24.5c45.333 0 81.833 10 109.5 30
s41.5 48 41.5 84c0 20 -4.5 36.167 -13.5 48.5s-21.5 22.666 -37.5 30.999s-34.833 15.166 -56.5 20.499l-71.5 17c-28 6 -55.333 13.333 -82 22s-50.167 20 -70.5 34s-36.666 31.667 -48.999 53s-18.5 47.666 -18.5 78.999c0 30 5.83301 56.667 17.5 80
s27.834 43.166 48.501 59.499s45.334 28.666 74.001 36.999s59.667 12.5 93 12.5z" />
    <glyph glyph-name="T" unicode="T" horiz-adv-x="599" 
d="M346 580v-580h-94v580h-226v86h547v-86h-227z" />
    <glyph glyph-name="U" unicode="U" horiz-adv-x="710" 
d="M628 250c0 -40 -6.83398 -76.167 -20.501 -108.5s-32.667 -59.833 -57 -82.5s-53.166 -40.167 -86.499 -52.5s-70 -18.5 -110 -18.5s-76.667 6.16699 -110 18.5s-62 29.833 -86 52.5s-42.667 50.167 -56 82.5s-20 68.5 -20 108.5v416h93v-416
c0 -53.333 15.667 -95.833 47 -127.5s75.333 -47.5 132 -47.5c56 0 100.167 15.833 132.5 47.5s48.5 74.167 48.5 127.5v416h93v-416z" />
    <glyph glyph-name="V" unicode="V" horiz-adv-x="633" 
d="M621 666l-256 -666h-97l-256 666h101l204 -556l207 556h97z" />
    <glyph glyph-name="W" unicode="W" horiz-adv-x="942" 
d="M731 0h-104l-156 540l-156 -540h-107l-182 666h99l142 -547l161 547h90l161 -549l141 549h97z" />
    <glyph glyph-name="X" unicode="X" horiz-adv-x="649" 
d="M527 0l-204 278l-205 -278h-111l258 346l-238 320h113l185 -257l187 257h109l-237 -320l258 -346h-115z" />
    <glyph glyph-name="Y" unicode="Y" horiz-adv-x="614" 
d="M354 272v-272h-94v271l-254 395h110l193 -310l195 310h106z" />
    <glyph glyph-name="Z" unicode="Z" horiz-adv-x="602" 
d="M41 0v78l387 502h-372v86h494v-76l-389 -504h397v-86h-517z" />
    <glyph glyph-name="bracketleft" unicode="[" horiz-adv-x="298" 
d="M80 -108v822h208v-69h-129v-685h129v-68h-208z" />
    <glyph glyph-name="backslash" unicode="\" horiz-adv-x="353" 
d="M250 -108l-220 822h71l220 -822h-71z" />
    <glyph glyph-name="bracketright" unicode="]" horiz-adv-x="299" 
d="M9 -108v68h131v685h-131v69h210v-822h-210z" />
    <glyph glyph-name="asciicircum" unicode="^" 
d="M503 383l-212 213l-214 -213l-52 54l229 229h72l229 -229z" />
    <glyph glyph-name="underscore" unicode="_" horiz-adv-x="607" 
d="M5 -125v50h597v-50h-597z" />
    <glyph glyph-name="grave" unicode="`" horiz-adv-x="320" 
d="M202 578c-14 8 -27.998 17.5 -41.998 28.5s-27.333 22.5 -40 34.5s-23.834 24.333 -33.501 37s-16.834 24.667 -21.501 36l83 13c4.66699 -8.66699 10.5 -18.167 17.5 -28.5l22 -31.5c7.66699 -10.667 15.667 -21.167 24 -31.5s16.5 -19.833 24.5 -28.5z" />
    <glyph glyph-name="a" unicode="a" horiz-adv-x="654" 
d="M556 116c0 -19.333 2.99805 -33.499 8.99805 -42.499s16.333 -13.5 31 -13.5c12.667 0 23.334 2.66699 32.001 8l11 -66c-9.33301 -3.33301 -19.5 -5.83301 -30.5 -7.5s-20.833 -2.5 -29.5 -2.5c-24.667 0 -47.167 6.66699 -67.5 20s-33.166 36 -38.499 68
c-23.333 -34.667 -51.666 -58.667 -84.999 -72s-67 -20 -101 -20c-38 0 -72 7 -102 21s-55.333 33.167 -76 57.5s-36.5 53 -47.5 86s-16.5 68.5 -16.5 106.5c0 38.667 5.5 74.667 16.5 108s26.833 62.166 47.5 86.499s45.667 43.5 75 57.5s62.666 21 99.999 21
c36 0 69.667 -7.5 101 -22.5s59.333 -40.167 84 -75.5v86h87v-404zM468.998 260.001c0 26.667 -3.66504 51.667 -10.998 75s-18 43.5 -32 60.5s-31.5 30.5 -52.5 40.5s-45.167 15 -72.5 15s-51.333 -5 -72 -15s-37.834 -23.667 -51.501 -41s-23.834 -37.5 -30.501 -60.5
s-10 -47.833 -10 -74.5s3.33301 -51.667 10 -75s16.667 -43.666 30 -60.999s30.333 -31 51 -41s44.667 -15 72 -15c28 0 52.5 5 73.5 15s38.5 23.667 52.5 41s24.667 37.666 32 60.999s11 48.333 11 75z" />
    <glyph glyph-name="b" unicode="b" horiz-adv-x="633" 
d="M165 714v-280c24.667 36 52.667 61.333 84 76s65 22 101 22c36.667 0 69.834 -7 99.501 -21s54.834 -33.167 75.501 -57.5s36.5 -53 47.5 -86s16.5 -68.833 16.5 -107.5s-5.5 -74.5 -16.5 -107.5s-26.833 -61.667 -47.5 -86s-45.834 -43.5 -75.501 -57.5
s-62.834 -21 -99.501 -21c-36 0 -69.667 7.33301 -101 22s-59.333 39.667 -84 75v-85h-87v714h87zM165 259c0 -26.667 3.66699 -51.667 11 -75s18 -43.5 32 -60.5s31.5 -30.5 52.5 -40.5s45.167 -15 72.5 -15s51.166 5 71.499 15s37.333 23.667 51 41
s23.834 37.5 30.501 60.5s10 47.833 10 74.5s-3.33301 51.667 -10 75s-16.834 43.666 -30.501 60.999s-30.667 31 -51 41s-44.166 15 -71.499 15s-51.5 -5 -72.5 -15s-38.5 -23.667 -52.5 -41s-24.667 -37.666 -32 -60.999s-11 -48.333 -11 -75z" />
    <glyph glyph-name="c" unicode="c" horiz-adv-x="536" 
d="M506 97c-22 -32 -50.501 -58.165 -85.501 -78.498s-76.5 -30.5 -124.5 -30.5c-38.667 0 -73.5 6.83301 -104.5 20.5s-57.5 32.667 -79.5 57s-38.833 53.166 -50.5 86.499s-17.5 69.333 -17.5 108s5.83301 74.667 17.5 108s28.5 62.166 50.5 86.499s48.5 43.333 79.5 57
s65.833 20.5 104.5 20.5c46 0 86.333 -9.83301 121 -29.5s63.334 -45.834 86.001 -78.501l-65 -52c-15.333 25.333 -34.5 45.166 -57.5 59.499s-50.167 21.5 -81.5 21.5c-25.333 0 -48 -4.83301 -68 -14.5s-37 -23.167 -51 -40.5s-24.833 -37.833 -32.5 -61.5
s-11.5 -49.167 -11.5 -76.5c0 -28 3.83301 -53.667 11.5 -77s18.5 -43.666 32.5 -60.999s31 -30.833 51 -40.5s42.333 -14.5 67 -14.5c33.333 0 61.333 7.33301 84 22s41.667 33.334 57 56.001z" />
    <glyph glyph-name="d" unicode="d" horiz-adv-x="634" 
d="M469 0l0.000976562 85.001c-24.667 -35.333 -52.834 -60.333 -84.501 -75s-65.167 -22 -100.5 -22c-37.333 0 -70.666 7 -99.999 21s-54.333 33.167 -75 57.5s-36.5 53 -47.5 86s-16.5 68.5 -16.5 106.5c0 38.667 5.5 74.667 16.5 108s26.833 62.166 47.5 86.499
s45.667 43.5 75 57.5s62.666 21 99.999 21c36 0 69.667 -7.5 101 -22.5s59.333 -40.167 84 -75.5v280h87v-714h-87zM469.001 260.001c0 26.667 -3.66797 51.667 -11.001 75s-18.166 43.5 -32.499 60.5s-32 30.5 -53 40.5s-45.167 15 -72.5 15s-51.166 -5 -71.499 -15
s-37.333 -23.667 -51 -41s-23.834 -37.5 -30.501 -60.5s-10 -47.833 -10 -74.5s3.33301 -51.667 10 -75s16.667 -43.666 30 -60.999s30.333 -31 51 -41s44.667 -15 72 -15c28 0 52.5 5 73.5 15s38.5 23.667 52.5 41s24.667 37.666 32 60.999s11 48.333 11 75z" />
    <glyph glyph-name="e" unicode="e" horiz-adv-x="586" 
d="M547 273c0 -8 -0.166992 -14.834 -0.5 -20.501s-0.833008 -10.167 -1.5 -13.5h-408c2.66699 -54 19.667 -96 51 -126s72.666 -45 123.999 -45c60.667 0 112 22.667 154 68l58 -57c-26.667 -28.667 -57.5 -51 -92.5 -67s-75.5 -24 -121.5 -24
c-42 0 -79.5 6.83301 -112.5 20.5s-60.833 32.5 -83.5 56.5s-40 52.5 -52 85.5s-18 68.833 -18 107.5c0 38 5.83301 73.667 17.5 107s28.5 62.333 50.5 87s48.667 44.167 80 58.5s67 21.5 107 21.5c38 0 72.333 -6.66699 103 -20s56.834 -31.666 78.501 -54.999
s38.167 -50.833 49.5 -82.5s17 -65.5 17 -101.5zM457 305.999c-4.66699 50 -21.999 87.667 -51.999 113s-65.667 38 -107 38c-22.667 0 -43.334 -3.66699 -62.001 -11s-35 -17.833 -49 -31.5s-25 -29.667 -33 -48s-13 -38.5 -15 -60.5h318z" />
    <glyph glyph-name="f" unicode="f" horiz-adv-x="350" 
d="M337 642c-8 2 -17.1689 3.99902 -27.502 5.99902s-22.166 3 -35.499 3c-24 0 -42.167 -5 -54.5 -15s-18.5 -27.667 -18.5 -53v-63h122v-72h-122v-448h-87v448h-89v72h89v61c0 48.667 13.833 84.834 41.5 108.501s65.5 35.5 113.5 35.5c14.667 0 29.334 -1 44.001 -3
s26.667 -4.66699 36 -8z" />
    <glyph glyph-name="g" unicode="g" horiz-adv-x="636" 
d="M558 84c0 -40 -4.00293 -75.335 -12.0029 -106.002s-22.667 -57.667 -44 -81c-25.333 -30 -57.166 -51 -95.499 -63s-79.5 -18 -123.5 -18c-43.333 0 -82.833 5.16699 -118.5 15.5s-68.5 25.833 -98.5 46.5l44 71c23.333 -16.667 49.5 -29.834 78.5 -39.501
s60.833 -14.5 95.5 -14.5c26.667 0 51.334 3.16699 74.001 9.5s42.334 16.333 59.001 30s29.834 31.334 39.501 53.001s14.5 47.834 14.5 78.501v56c-21.333 -33.333 -49 -57.833 -83 -73.5s-69.667 -23.5 -107 -23.5c-34.667 0 -66.5 6.33301 -95.5 19
s-53.833 30.167 -74.5 52.5s-36.667 49 -48 80s-17 64.5 -17 100.5c0 36.667 6 70.667 18 102s28.5 58.333 49.5 81s46.167 40.334 75.5 53.001s61.333 19 96 19c38 0 73.167 -7.83301 105.5 -23.5s59.166 -40.5 80.499 -74.5v86h87v-436zM471.997 278.998
c0 24 -3.66895 46.5 -11.002 67.5s-18.166 39.333 -32.499 55s-32 28 -53 37s-45.5 13.5 -73.5 13.5s-52.167 -4.66699 -72.5 -14s-37.333 -21.833 -51 -37.5s-23.834 -34 -30.501 -55s-10 -43.167 -10 -66.5c0 -24 3.33301 -46.667 10 -68s16.834 -40 30.501 -56
s30.834 -28.667 51.501 -38s44.667 -14 72 -14s51.5 4.66699 72.5 14s38.833 22 53.5 38s25.667 34.667 33 56s11 44 11 68z" />
    <glyph glyph-name="h" unicode="h" horiz-adv-x="597" 
d="M78 0l-0.000976562 714h87v-280c21.333 32 46.833 56.333 76.5 73s63.5 25 101.5 25c56.667 0 101.167 -17.167 133.5 -51.5s48.5 -82.833 48.5 -145.5v-335h-87v315c0 15.333 -1.5 31 -4.5 47s-8.66699 30.5 -17 43.5s-20.166 23.667 -35.499 32s-35 12.5 -59 12.5
c-22 0 -42.667 -3.83301 -62 -11.5s-36 -18.667 -50 -33s-25 -31.5 -33 -51.5s-12 -42 -12 -66v-288h-87z" />
    <glyph glyph-name="i" unicode="i" horiz-adv-x="243" 
d="M78 0v520h87v-520h-87zM78 622v92h87v-92h-87z" />
    <glyph glyph-name="j" unicode="j" horiz-adv-x="243" 
d="M165 -1c0 -30.667 -4.33398 -57.334 -13.001 -80.001s-20.667 -41.5 -36 -56.5s-33.666 -26.167 -54.999 -33.5s-44.333 -11 -69 -11c-16 0 -31.333 1.33301 -46 4s-27 6.33398 -37 11.001l24 72c7.33301 -3.33301 15.5 -6 24.5 -8s18.833 -3 29.5 -3
c34 0 57.667 9.33301 71 28s20 43.667 20 75v523h87v-521zM77.999 622v92h87v-92h-87z" />
    <glyph glyph-name="k" unicode="k" horiz-adv-x="569" 
d="M426 520h110l-210 -213l237 -307h-110l-188 249l-100 -101v-148h-87v714h87v-463z" />
    <glyph glyph-name="l" unicode="l" horiz-adv-x="249" 
d="M81 0v714h87v-714h-87z" />
    <glyph glyph-name="m" unicode="m" horiz-adv-x="922" 
d="M78 0v520.002h87v-84c21.333 31.333 45.666 55.166 72.999 71.499s59.333 24.5 96 24.5c38.667 0 71.334 -9 98.001 -27s46 -44 58 -78c21.333 32.667 47.5 58.334 78.5 77.001s66.167 28 105.5 28c56 0 99.333 -17 130 -51s46 -81.333 46 -142v-339h-87v318
c0 16 -1.33301 32 -4 48s-8 30.167 -16 42.5s-19.167 22.333 -33.5 30s-32.833 11.5 -55.5 11.5c-20.667 0 -40 -3.83301 -58 -11.5s-33.5 -18.5 -46.5 -32.5s-23.333 -30.667 -31 -50s-11.5 -41 -11.5 -65v-291h-87v318c0 16 -1.33301 32 -4 48s-8 30.167 -16 42.5
s-19.167 22.333 -33.5 30s-32.833 11.5 -55.5 11.5c-21.333 0 -40.833 -3.83301 -58.5 -11.5s-33 -18.334 -46 -32.001s-23.167 -30.334 -30.5 -50.001s-11 -41.5 -11 -65.5v-291h-87z" />
    <glyph glyph-name="n" unicode="n" horiz-adv-x="597" 
d="M78 0l-0.000976562 520h87v-86c21.333 32 46.833 56.333 76.5 73s63.5 25 101.5 25c56.667 0 101.167 -17.167 133.5 -51.5s48.5 -82.833 48.5 -145.5v-335h-87v315c0 15.333 -1.5 31 -4.5 47s-8.66699 30.5 -17 43.5s-20.166 23.667 -35.499 32s-35 12.5 -59 12.5
c-22 0 -42.667 -3.83301 -62 -11.5s-36 -18.667 -50 -33s-25 -31.5 -33 -51.5s-12 -42 -12 -66v-288h-87z" />
    <glyph glyph-name="o" unicode="o" horiz-adv-x="600" 
d="M556 259c0 -39.333 -6 -75.5 -18 -108.5s-29 -61.5 -51 -85.5s-48.833 -42.833 -80.5 -56.5s-67.167 -20.5 -106.5 -20.5s-74.833 6.83301 -106.5 20.5s-58.5 32.5 -80.5 56.5s-39 52.5 -51 85.5s-18 69.167 -18 108.5s6 75.666 18 108.999s29 62.166 51 86.499
s48.833 43.333 80.5 57s67.167 20.5 106.5 20.5s74.833 -6.83301 106.5 -20.5s58.5 -32.667 80.5 -57s39 -53.166 51 -86.499s18 -69.666 18 -108.999zM463 259c0 27.333 -3.66699 52.833 -11 76.5s-17.833 44.167 -31.5 61.5s-30.667 31 -51 41s-43.5 15 -69.5 15
s-49.167 -5 -69.5 -15s-37.5 -23.667 -51.5 -41s-24.667 -37.833 -32 -61.5s-11 -49.167 -11 -76.5s3.66699 -52.666 11 -75.999s18 -43.666 32 -60.999s31.167 -31 51.5 -41s43.5 -15 69.5 -15s49.167 5 69.5 15s37.333 23.667 51 41s24.167 37.666 31.5 60.999
s11 48.666 11 75.999z" />
    <glyph glyph-name="p" unicode="p" horiz-adv-x="633" 
d="M165 520v-86.001c24.667 36 52.667 61.333 84 76s65 22 101 22c36.667 0 69.834 -7 99.501 -21s54.834 -33.167 75.501 -57.5s36.5 -53.166 47.5 -86.499s16.5 -69 16.5 -107c0 -38.667 -5.5 -74.5 -16.5 -107.5s-26.833 -61.667 -47.5 -86s-45.834 -43.5 -75.501 -57.5
s-62.834 -21 -99.501 -21c-36 0 -69.667 7.33301 -101 22s-59.333 39.667 -84 75v-259h-87v694h87zM165 258.999c0 -26.667 3.66699 -51.5 11 -74.5s18 -43.167 32 -60.5s31.5 -31 52.5 -41s45.167 -15 72.5 -15s51.166 5 71.499 15s37.333 23.667 51 41
s23.834 37.5 30.501 60.5s10 47.833 10 74.5s-3.33301 51.667 -10 75s-16.834 43.666 -30.501 60.999s-30.667 31 -51 41s-44.166 15 -71.499 15s-51.5 -5 -72.5 -15s-38.5 -23.667 -52.5 -41s-24.667 -37.666 -32 -60.999s-11 -48.333 -11 -75z" />
    <glyph glyph-name="q" unicode="q" horiz-adv-x="634" 
d="M469 -174l0.000976562 259c-24.667 -35.333 -52.834 -60.333 -84.501 -75s-65.167 -22 -100.5 -22c-37.333 0 -70.666 7 -99.999 21s-54.333 33.167 -75 57.5s-36.5 53 -47.5 86s-16.5 68.5 -16.5 106.5c0 38.667 5.5 74.5 16.5 107.5s26.833 61.833 47.5 86.5
s45.667 44 75 58s62.666 21 99.999 21c36 0 69.667 -7.5 101 -22.5s59.333 -40.167 84 -75.5v86h87v-694h-87zM469.001 260c0 26.667 -3.66699 51.668 -11 75.001s-18.166 43.5 -32.499 60.5s-32 30.5 -53 40.5s-45.167 15 -72.5 15s-51.166 -5 -71.499 -15
s-37.333 -23.5 -51 -40.5s-23.834 -37.167 -30.501 -60.5s-10 -48.333 -10 -75c0 -26 3.33301 -50.667 10 -74s16.667 -43.833 30 -61.5s30.333 -31.5 51 -41.5s44.667 -15 72 -15s51.5 5 72.5 15s38.667 23.667 53 41s25.166 37.666 32.499 60.999s11 48.333 11 75z" />
    <glyph glyph-name="r" unicode="r" horiz-adv-x="393" 
d="M359 428c-8.66699 4.66699 -17.8311 8.5 -27.498 11.5s-20.5 4.5 -32.5 4.5c-17.333 0 -34 -3.83301 -50 -11.5s-30.333 -18.667 -43 -33s-22.667 -32.333 -30 -54s-11 -46.5 -11 -74.5v-271h-87v520h87v-88c17.333 28 38.833 51.333 64.5 70s54.5 28 86.5 28
c15.333 0 29.166 -1.83301 41.499 -5.5s22.166 -8.16699 29.499 -13.5z" />
    <glyph glyph-name="s" unicode="s" horiz-adv-x="518" 
d="M475 154c0 -50 -18.6709 -90.1641 -56.0039 -120.497s-89.666 -45.5 -156.999 -45.5c-51.333 0 -96.666 9.5 -135.999 28.5s-70.666 46.5 -93.999 82.5l64 48c20 -28 44.5 -49 73.5 -63s61.5 -21 97.5 -21c35.333 0 64.333 7 87 21s34 35 34 63
c0 13.333 -3 24.166 -9 32.499s-14.833 15.333 -26.5 21s-26.5 10.5 -44.5 14.5s-39 8.33301 -63 13c-25.333 4.66699 -49.333 10.334 -72 17.001s-42.5 15.667 -59.5 27s-30.333 25.666 -40 42.999s-14.5 38.666 -14.5 63.999c0 26.667 5.5 49.5 16.5 68.5
s25.5 34.833 43.5 47.5s38.667 22 62 28s47.666 9 72.999 9c24.667 0 47.5 -2.5 68.5 -7.5s40.333 -11.667 58 -20s33.667 -17.666 48 -27.999s26.5 -20.833 36.5 -31.5l-58 -55c-18.667 21.333 -41 37.833 -67 49.5s-55 17.5 -87 17.5c-14 0 -27.5 -1.33301 -40.5 -4
s-24.667 -6.83398 -35 -12.501s-18.666 -12.834 -24.999 -21.501s-9.5 -19.334 -9.5 -32.001c0 -13.333 3.5 -24.333 10.5 -33s16.333 -15.667 28 -21s25.334 -9.83301 41.001 -13.5s32.167 -7.16699 49.5 -10.5c26 -5.33301 51.167 -11.166 75.5 -17.499s46 -15 65 -26
s34.167 -25.333 45.5 -43s17 -40.5 17 -68.5z" />
    <glyph glyph-name="t" unicode="t" horiz-adv-x="402" 
d="M388 23c-30 -23.333 -67.667 -35.0029 -113 -35.0029c-30.667 0 -57.5 5.33301 -80.5 16s-41.5 27.334 -55.5 50.001c-8 12.667 -13.667 26.834 -17 42.501s-5 35.834 -5 60.501v291h-109v72h109v194h87v-194h168v-72h-168v-291c0 -60 26.667 -90 80 -90
c15.333 0 28.5 2.33301 39.5 7s20.167 9.66699 27.5 15z" />
    <glyph glyph-name="u" unicode="u" horiz-adv-x="597" 
d="M519 520v-520h-87v85c-22 -31.333 -47.667 -55.333 -77 -72s-63 -25 -101 -25c-56.667 0 -101.167 17.167 -133.5 51.5s-48.5 82.5 -48.5 144.5v336h87v-316c0 -15.333 1.5 -31 4.5 -47s8.66699 -30.5 17 -43.5s20 -23.667 35 -32s34.5 -12.5 58.5 -12.5
c22.667 0 43.667 3.83301 63 11.5s36 18.667 50 33s25 31.5 33 51.5s12 42 12 66v289h87z" />
    <glyph glyph-name="v" unicode="v" horiz-adv-x="535" 
d="M313 0h-91l-208 520h98l157 -416l157 416h95z" />
    <glyph glyph-name="w" unicode="w" horiz-adv-x="788" 
d="M616 0h-95l-126 408l-128 -408h-95l-144 520h93l105 -415l130 415h80l129 -415l106 415h89z" />
    <glyph glyph-name="x" unicode="x" horiz-adv-x="538" 
d="M416 0l-148 210l-148 -210h-106l201 271l-183 249h105l134 -191l132 191h103l-182 -249l198 -271h-106z" />
    <glyph glyph-name="y" unicode="y" horiz-adv-x="598" 
d="M433 122c-22 -31.333 -47.665 -55.333 -76.998 -72s-63 -25 -101 -25c-56.667 0 -101.167 17.167 -133.5 51.5s-48.5 82.833 -48.5 145.5v298h87v-278c0 -15.333 1.5 -31 4.5 -47s8.66699 -30.5 17 -43.5s20 -23.667 35 -32s34.5 -12.5 58.5 -12.5
c22.667 0 43.667 3.83301 63 11.5s36 18.667 50 33s25 31.5 33 51.5s12 42 12 66v251h87v-458c0 -35.333 -3.83301 -67 -11.5 -95s-21.5 -53 -41.5 -75c-21.333 -24 -48.833 -42.667 -82.5 -56s-73.5 -20 -119.5 -20c-41.333 0 -78.333 5.5 -111 16.5
s-62.334 26.167 -89.001 45.5l43 69c24 -19.333 49.667 -32.833 77 -40.5s54.666 -11.5 81.999 -11.5c22 0 43.167 2.66699 63.5 8s38 14 53 26s27 27.5 36 46.5s13.5 42.167 13.5 69.5v77z" />
    <glyph glyph-name="z" unicode="z" horiz-adv-x="508" 
d="M40 0v71l302 371h-289v78h404v-70l-304 -373h313v-77h-426z" />
    <glyph glyph-name="braceleft" unicode="{" horiz-adv-x="359" 
d="M311 -114c-24.667 0 -47.334 3.6709 -68.001 11.0039s-38.5 18.333 -53.5 33s-26.667 32.5 -35 53.5s-12.5 45.167 -12.5 72.5v113c0 30 -6.5 54.167 -19.5 72.5s-36.5 27.5 -70.5 27.5h-29v68h29c34 0 57.5 9.16699 70.5 27.5s19.5 42.166 19.5 71.499v113
c0 27.333 4.16699 51.666 12.5 72.999s20 39.166 35 53.499s32.833 25.166 53.5 32.499s43.334 11 68.001 11h41v-68h-37c-34 0 -58 -9.33301 -72 -28s-21 -43.334 -21 -74.001v-105c0 -37.333 -7.16699 -67.5 -21.5 -90.5s-35.166 -39.833 -62.499 -50.5
c27.333 -10.667 48.166 -27.5 62.499 -50.5s21.5 -53.167 21.5 -90.5v-105c0 -31.333 7 -56.166 21 -74.499s38 -27.5 72 -27.5h37v-69h-41z" />
    <glyph glyph-name="bar" unicode="|" horiz-adv-x="227" 
d="M80 -108v822h67v-822h-67z" />
    <glyph glyph-name="braceright" unicode="}" horiz-adv-x="359" 
d="M308 269c-34.667 0 -58.5 -9.16699 -71.5 -27.5s-19.5 -42.5 -19.5 -72.5v-113c0 -54.667 -15.5 -96.667 -46.5 -126s-71.5 -44 -121.5 -44h-42v69h37c35.333 0 59.833 9.16699 73.5 27.5s20.5 43.166 20.5 74.499v104c0 38 7.16699 68.5 21.5 91.5
s35.166 39.833 62.499 50.5c-27.333 10 -48.166 26.667 -62.499 50s-21.5 53.666 -21.5 90.999v105c0 30.667 -6.83301 55.334 -20.5 74.001s-38.167 28 -73.5 28h-37v68h42c50 0 90.5 -14.5 121.5 -43.5s46.5 -71.167 46.5 -126.5v-113c0 -29.333 6.5 -53.166 19.5 -71.499
s36.833 -27.5 71.5 -27.5h28v-68h-28z" />
    <glyph glyph-name="asciitilde" unicode="~" horiz-adv-x="610" 
d="M52 275c26.667 32.667 53.667 59 81 79s58 30 92 30c12.667 0 25 -1.83301 37 -5.5s26.667 -10.834 44 -21.501l35 -21.5c9.33301 -5.66699 17.5 -10.167 24.5 -13.5s13.167 -5.66602 18.5 -6.99902s11 -2 17 -2c18.667 0 36.167 5.66699 52.5 17
s36.166 29.666 59.499 54.999l47 -42c-26.667 -32.667 -53.667 -59 -81 -79s-58 -30 -92 -30c-12.667 0 -25 1.83301 -37 5.5s-26.667 10.834 -44 21.501l-35 21.5c-9.33301 5.66699 -17.5 10.167 -24.5 13.5s-13.167 5.66602 -18.5 6.99902s-11 2 -17 2
c-18.667 0 -36.167 -5.66699 -52.5 -17s-36.166 -29.666 -59.499 -54.999z" />
    <glyph glyph-name="uni00A0" unicode="&#xa0;" horiz-adv-x="270" 
 />
    <glyph glyph-name="exclamdown" unicode="&#xa1;" horiz-adv-x="266" 
d="M83 -147v148l27 315h46l27 -315v-148h-100zM83 409v111h100v-111h-100z" />
    <glyph glyph-name="cent" unicode="&#xa2;" 
d="M521 97c-20 -28.667 -45.1689 -52.666 -75.502 -71.999s-66.166 -31 -107.499 -35v-84h-54v84c-34.667 2.66699 -65.834 11.5 -93.501 26.5s-51.334 34.5 -71.001 58.5s-34.667 51.667 -45 83s-15.5 65.333 -15.5 102c0 36 5.16699 69.833 15.5 101.5
s25.333 59.334 45 83.001s43.334 43 71.001 58s58.834 24.167 93.501 27.5v83h54v-83c40 -3.33301 74.833 -14.5 104.5 -33.5s54.834 -43.167 75.501 -72.5l-65 -52c-13.333 21.333 -29.5 39 -48.5 53s-41.167 22.667 -66.5 26v-383c26 3.33301 48.5 12.166 67.5 26.499
s35.167 31.166 48.5 50.499zM150.998 260.001c0 -50 11.833 -92.5 35.5 -127.5s56.167 -56.167 97.5 -63.5v381c-20.667 -4 -39.167 -11.5 -55.5 -22.5s-30.333 -24.833 -42 -41.5s-20.5 -35.667 -26.5 -57s-9 -44.333 -9 -69z" />
    <glyph glyph-name="sterling" unicode="&#xa3;" 
d="M564 96c-15.333 -38 -34.499 -65.502 -57.499 -82.502s-49.167 -25.5 -78.5 -25.5c-16.667 0 -33.334 2.16699 -50.001 6.5s-33.167 9.33301 -49.5 15s-33 10.667 -50 15s-34.167 6.5 -51.5 6.5c-18.667 0 -41.5 -3.33301 -68.5 -10s-54.5 -17.667 -82.5 -33l-33 67
c40 23.333 67.5 47.333 82.5 72s22.5 49.334 22.5 74.001c0 11.333 -1.33301 24 -4 38s-7 28 -13 42h-103v65h79c-12.667 30 -21.834 54.5 -27.501 73.5s-8.5 38.833 -8.5 59.5c0 31.333 5.83301 59.333 17.5 84s27.667 45.667 48 63s44.333 30.5 72 39.5
s57.834 13.5 90.501 13.5c51.333 0 96.166 -11 134.499 -33s70.5 -53 96.5 -93l-77 -45c-15.333 24.667 -35.5 44.834 -60.5 60.501s-55.5 23.5 -91.5 23.5c-18.667 0 -36.167 -2.5 -52.5 -7.5s-30.5 -12.333 -42.5 -22s-21.5 -21.834 -28.5 -36.501
s-10.5 -31.667 -10.5 -51c0 -23.333 4.33301 -45.833 13 -67.5l25 -61.5h199v-65h-181c2.66699 -8 4.83398 -16.667 6.50098 -26s2.5 -19.666 2.5 -30.999c0 -22.667 -4.16699 -45.167 -12.5 -67.5s-22.166 -44.833 -41.499 -67.5
c10.667 4.66699 23.167 8.83398 37.5 12.501s29.166 5.5 44.499 5.5c14 0 28 -1.66699 42 -5s27.667 -6.83301 41 -10.5l39 -10.5c12.667 -3.33301 25 -5 37 -5c18.667 0 33.5 4.66699 44.5 14s20.833 24.666 29.5 45.999l71 -40v0z" />
    <glyph glyph-name="currency" unicode="&#xa4;" 
d="M168 303c0 -16.667 3.16699 -32.334 9.5 -47.001s15 -27.5 26 -38.5s23.833 -19.667 38.5 -26s30.667 -9.5 48 -9.5c16.667 0 32.5 3.16699 47.5 9.5s28 15 39 26s19.667 23.833 26 38.5s9.5 30.334 9.5 47.001s-3.16699 32.5 -9.5 47.5s-15 28 -26 39s-24 19.667 -39 26
s-30.833 9.5 -47.5 9.5c-17.333 0 -33.333 -3.16699 -48 -9.5s-27.5 -15 -38.5 -26s-19.667 -24 -26 -39s-9.5 -30.833 -9.5 -47.5zM100 303c0 19.333 2.83301 37.8311 8.5 55.498s13.5 33.834 23.5 48.501l-72 72l54 55l72 -73c14.667 10 30.834 17.833 48.501 23.5
s36.167 8.5 55.5 8.5s37.666 -2.83301 54.999 -8.5s33.333 -13.5 48 -23.5l72 73l54 -55l-71 -72c9.33301 -15.333 16.833 -31.666 22.5 -48.999s8.5 -35.666 8.5 -54.999s-2.83301 -37.666 -8.5 -54.999s-13.167 -33.333 -22.5 -48l71 -71l-54 -55l-72 71
c-14.667 -9.33301 -30.667 -16.833 -48 -22.5s-35.666 -8.5 -54.999 -8.5s-37.833 2.83301 -55.5 8.5s-33.834 13.167 -48.501 22.5l-72 -71l-54 55l72 70c-10 15.333 -17.833 31.666 -23.5 48.999s-8.5 35.666 -8.5 54.999z" />
    <glyph glyph-name="yen" unicode="&#xa5;" 
d="M379 348h135v-52h-163l-15 -25v-61h178v-53h-178v-157h-93v157h-179v53h179v60l-16 26h-163v52h136l-175 318h109l158 -311l155 311h107z" />
    <glyph glyph-name="brokenbar" unicode="&#xa6;" horiz-adv-x="225" 
d="M82 400v314h61v-314h-61zM82 -108v314h61v-314h-61z" />
    <glyph glyph-name="section" unicode="&#xa7;" horiz-adv-x="538" 
d="M249 113c-28 17.333 -54.665 35.832 -79.998 55.499s-47.833 41.334 -67.5 65.001s-35.334 50.167 -47.001 79.5s-17.5 62 -17.5 98c0 38 6.16699 73.333 18.5 106s30.166 61 53.499 85s51.5 42.833 84.5 56.5s70.167 20.5 111.5 20.5c34 0 66.167 -5 96.5 -15
s57.166 -24.333 80.499 -43l-51 -65c-16 14.667 -34.5 26 -55.5 34s-45.167 12 -72.5 12c-68 0 -118.333 -26.667 -151 -80l141 -89c29.333 -18.667 56.5 -38 81.5 -58s46.5 -41.667 64.5 -65s32.167 -49 42.5 -77s15.5 -59 15.5 -93c0 -38 -6.16699 -73.333 -18.5 -106
s-30 -61.167 -53 -85.5s-50.833 -43.333 -83.5 -57s-69.667 -20.5 -111 -20.5c-34 0 -66.167 4.83301 -96.5 14.5s-57.166 24.167 -80.499 43.5l49 65c16.667 -14.667 35.5 -26 56.5 -34s45.5 -12 73.5 -12c67.333 0 117.333 27 150 81zM415.002 139.999
c0 28 -4.33301 53.001 -13 75.001s-21.167 42.833 -37.5 62.5s-36.833 39.167 -61.5 58.5s-53 40.333 -85 63l-92 64c-2 -6.66699 -3.5 -14.334 -4.5 -23.001s-1.5 -15.667 -1.5 -21c0 -30.667 4 -57.667 12 -81s20 -45 36 -65s36.333 -39.667 61 -59s54 -40.333 88 -63
l93 -63c2 13.333 3.33301 23.833 4 31.5s1 14.5 1 20.5z" />
    <glyph glyph-name="dieresis" unicode="&#xa8;" horiz-adv-x="320" 
d="M17 597v78h76v-78h-76zM227 597v78h75v-78h-75z" />
    <glyph glyph-name="copyright" unicode="&#xa9;" horiz-adv-x="782" 
d="M742 333c0 -48 -9.16699 -93.333 -27.5 -136s-43.5 -80 -75.5 -112s-69.333 -57.167 -112 -75.5s-88 -27.5 -136 -27.5c-48.667 0 -94.334 9.16699 -137.001 27.5s-80 43.5 -112 75.5s-57.167 69.333 -75.5 112s-27.5 88 -27.5 136c0 48.667 9.16699 94.334 27.5 137.001
s43.5 79.834 75.5 111.501s69.333 56.667 112 75s88.334 27.5 137.001 27.5c48 0 93.333 -9.16699 136 -27.5s80 -43.333 112 -75s57.167 -68.834 75.5 -111.501s27.5 -88.334 27.5 -137.001zM688 333c0 41.333 -7.83301 80 -23.5 116s-36.834 67.5 -63.501 94.5
s-58.167 48.333 -94.5 64s-74.833 23.5 -115.5 23.5c-41.333 0 -80 -7.83301 -116 -23.5s-67.5 -37 -94.5 -64s-48.333 -58.5 -64 -94.5s-23.5 -74.667 -23.5 -116s7.83301 -80 23.5 -116s37 -67.5 64 -94.5s58.5 -48.333 94.5 -64s74.667 -23.5 116 -23.5
c40.667 0 79.167 7.83301 115.5 23.5s67.833 37 94.5 64s47.834 58.5 63.501 94.5s23.5 74.667 23.5 116zM565 232c-19.333 -31.333 -44.168 -55.668 -74.501 -73.001s-63.5 -26 -99.5 -26c-27.333 0 -53.166 5.16699 -77.499 15.5s-45.5 24.5 -63.5 42.5
s-32.333 39.167 -43 63.5s-16 50.5 -16 78.5s5.33301 54.167 16 78.5s25 45.5 43 63.5s39.167 32.333 63.5 43s50.166 16 77.499 16c36 0 68.833 -8.5 98.5 -25.5s54.167 -41.167 73.5 -72.5l-53 -36c-13.333 21.333 -30.333 38 -51 50s-43 18 -67 18
c-18.667 0 -36.334 -3.5 -53.001 -10.5s-31.167 -16.667 -43.5 -29s-22 -26.666 -29 -42.999s-10.5 -33.833 -10.5 -52.5s3.5 -36.167 10.5 -52.5s16.667 -30.666 29 -42.999s26.833 -22 43.5 -29s34.334 -10.5 53.001 -10.5c24.667 0 47.334 6.16699 68.001 18.5
s37.667 29.166 51 50.499z" />
    <glyph glyph-name="ordfeminine" unicode="&#xaa;" horiz-adv-x="441" 
d="M393 336c-6 -3.33301 -13.334 -5.33105 -22.001 -5.99805s-15.667 -1 -21 -1c-16.667 0 -31.334 3.33301 -44.001 10s-21 18.667 -25 36c-16 -19.333 -34 -32.333 -54 -39s-41 -10 -63 -10c-33.333 0 -61 9 -83 27s-33 43 -33 75c0 25.333 5.5 44.833 16.5 58.5
s24.833 23.667 41.5 30s34.667 10.5 54 12.5s37.333 4.16699 54 6.5s30.5 6 41.5 11s16.5 13.833 16.5 26.5c0 8 -2.16699 14.667 -6.5 20s-10 9.66602 -17 12.999s-15 5.66602 -24 6.99902s-17.833 2 -26.5 2c-18 0 -36.167 -2.83301 -54.5 -8.5
s-35.166 -14.167 -50.499 -25.5l-31 47c20.667 14.667 42.834 25.834 66.501 33.501s47.834 11.5 72.501 11.5c48 0 82.833 -10.333 104.5 -31s32.5 -54 32.5 -100v-131c0 -10.667 1.66699 -18.334 5 -23.001s9.66602 -7 18.999 -7c2.66699 0 6 0.5 10 1.5
s7.66699 2.16699 11 3.5zM273.999 512.002c-10 -9.33301 -21.332 -15.833 -33.999 -19.5s-29.334 -7.16699 -50.001 -10.5c-22 -3.33301 -40.333 -7.83301 -55 -13.5s-22 -18.167 -22 -37.5c0 -17.333 6.5 -30 19.5 -38s28.167 -12 45.5 -12c12 0 23.833 1.66699 35.5 5
s22 8.33301 31 15s16.167 15.167 21.5 25.5s8 22.5 8 36.5v49z" />
    <glyph glyph-name="guillemotleft" unicode="&#xab;" horiz-adv-x="464" 
d="M32 275l144 192l51 -40l-121 -167l121 -168l-51 -39l-144 192v30zM220 275l144 192l52 -40l-122 -167l122 -168l-52 -39l-144 192v30z" />
    <glyph glyph-name="logicalnot" unicode="&#xac;" horiz-adv-x="593" 
d="M455 66v200h-400v76h476v-276h-76z" />
    <glyph glyph-name="uni00AD" unicode="&#xad;" horiz-adv-x="393" 
d="M62 242v78h269v-78h-269z" />
    <glyph glyph-name="registered" unicode="&#xae;" horiz-adv-x="460" 
d="M316 394h-41l-38 72h-46v-72h-36v194h89c19.333 0 35.166 -5.5 47.499 -16.5s18.5 -25.833 18.5 -44.5c0 -13.333 -3.66699 -25 -11 -35s-16.666 -17 -27.999 -21zM274 527c0 9.33301 -3.16699 16.833 -9.5 22.5s-13.166 8.5 -20.499 8.5h-53v-62h53
c7.33301 0 14.166 2.83301 20.499 8.5s9.5 13.167 9.5 22.5zM42 490c0 26 4.83301 50.333 14.5 73s23 42.5 40 59.5s37 30.5 60 40.5s47.5 15 73.5 15s50.333 -5 73 -15s42.5 -23.5 59.5 -40.5s30.5 -36.833 40.5 -59.5s15 -47 15 -73s-5 -50.5 -15 -73.5
s-23.5 -43 -40.5 -60s-36.833 -30.333 -59.5 -40s-47 -14.5 -73 -14.5s-50.5 4.83301 -73.5 14.5s-43 23 -60 40s-30.333 37 -40 60s-14.5 47.5 -14.5 73.5zM67 490c0 -22.667 4.33301 -43.834 13 -63.501s20.334 -36.834 35.001 -51.501s31.834 -26.334 51.501 -35.001
s40.834 -13 63.501 -13s43.834 4.33301 63.501 13s36.834 20.334 51.501 35.001s26.334 31.834 35.001 51.501s13 40.834 13 63.501s-4.33301 43.834 -13 63.501s-20.334 36.834 -35.001 51.501s-31.834 26.334 -51.501 35.001s-40.834 13 -63.501 13
s-43.834 -4.33301 -63.501 -13s-36.834 -20.334 -51.501 -35.001s-26.334 -31.834 -35.001 -51.501s-13 -40.834 -13 -63.501z" />
    <glyph glyph-name="macron" unicode="&#xaf;" horiz-adv-x="328" 
d="M13 608v58h300v-58h-300z" />
    <glyph glyph-name="degree" unicode="&#xb0;" horiz-adv-x="383" 
d="M342 527c0 -20.667 -4 -40 -12 -58s-18.833 -33.833 -32.5 -47.5s-29.5 -24.5 -47.5 -32.5s-37.333 -12 -58 -12s-40.167 4 -58.5 12s-34.333 18.833 -48 32.5s-24.5 29.5 -32.5 47.5s-12 37.333 -12 58s4 40.167 12 58.5s18.833 34.333 32.5 48s29.667 24.5 48 32.5
s37.833 12 58.5 12s40 -4 58 -12s33.833 -18.833 47.5 -32.5s24.5 -29.667 32.5 -48s12 -37.833 12 -58.5zM283 527c0 25.333 -8.83301 47 -26.5 65s-39.167 27 -64.5 27c-12.667 0 -24.667 -2.5 -36 -7.5s-21.166 -11.667 -29.499 -20s-15 -18 -20 -29
s-7.5 -22.833 -7.5 -35.5c0 -12 2.5 -23.667 7.5 -35s11.667 -21.166 20 -29.499s18.166 -15 29.499 -20s23.333 -7.5 36 -7.5s24.5 2.5 35.5 7.5s20.667 11.667 29 20s14.833 18.166 19.5 29.499s7 23 7 35z" />
    <glyph glyph-name="plusminus" unicode="&#xb1;" 
d="M51 0v76h476v-76h-476zM327 337v-192h-77v192h-199v76h199v194h77v-194h200v-76h-200z" />
    <glyph glyph-name="twosuperior" unicode="&#xb2;" horiz-adv-x="382" 
d="M39 336l-0.000976562 53.9961l104.5 84.5c28.333 23.667 51.166 44.834 68.499 63.501s29.833 35.334 37.5 50.001s11.5 29 11.5 43c0 23.333 -8.5 41 -25.5 53s-36.5 18 -58.5 18c-20.667 0 -39.167 -5.16699 -55.5 -15.5s-29.833 -23.166 -40.5 -38.499l-55 33
c18.667 26 40.834 46.833 66.501 62.5s55.5 23.5 89.5 23.5c22 0 42.167 -3 60.5 -9s34.333 -14.667 48 -26s24.334 -25.166 32.001 -41.499s11.5 -34.833 11.5 -55.5c0 -19.333 -3 -37 -9 -53s-16.167 -32.667 -30.5 -50s-33.333 -36.5 -57 -57.5
s-53.5 -45.833 -89.5 -74.5h202v-64h-311z" />
    <glyph glyph-name="threesuperior" unicode="&#xb3;" horiz-adv-x="388" 
d="M351 457c0 -19.333 -3.83496 -36.8369 -11.502 -52.5039s-18.5 -29.167 -32.5 -40.5s-30.5 -20.166 -49.5 -26.499s-39.833 -9.5 -62.5 -9.5c-39.333 0 -73 7.33301 -101 22s-50.333 38.667 -67 72l64 24c11.333 -20.667 26.333 -34.667 45 -42s38.334 -11 59.001 -11
c26.667 0 47.334 6.33301 62.001 19s22 28.667 22 48c0 18.667 -6.5 33.167 -19.5 43.5s-31.167 15.5 -54.5 15.5h-55v63h52c6.66699 0 14 1 22 3s15.333 5.33301 22 10s12.167 10.834 16.5 18.501s6.5 16.834 6.5 27.501c0 21.333 -8.5 36.833 -25.5 46.5
s-36.167 14.5 -57.5 14.5c-43.333 0 -76 -16 -98 -48l-54 34c37.333 52.667 89.666 79 156.999 79c20.667 0 39.834 -2.5 57.501 -7.5s33.167 -12.5 46.5 -22.5s23.833 -22.333 31.5 -37s11.5 -31.334 11.5 -50.001s-4 -36 -12 -52s-21 -29.333 -39 -40
c24.667 -9.33301 41.5 -23.666 50.5 -42.999s13.5 -38.666 13.5 -57.999z" />
    <glyph glyph-name="acute" unicode="&#xb4;" horiz-adv-x="320" 
d="M97 607c8 8.66699 16.166 18.167 24.499 28.5l24.5 31.5c8 10.667 15.5 21.167 22.5 31.5s12.833 19.833 17.5 28.5l83 -13c-5.33301 -11.333 -12.666 -23.333 -21.999 -36s-20.333 -25 -33 -37s-26 -23.5 -40 -34.5s-28 -20.5 -42 -28.5z" />
    <glyph glyph-name="mu" unicode="&#xb5;" 
d="M66 -174v694h87v-311c0 -45.333 9.33301 -80.333 28 -105s47.667 -37 87 -37c20 0 39 3.5 57 10.5s33.667 17.333 47 31s23.833 30.667 31.5 51s11.5 43.833 11.5 70.5v290h87v-404c0 -18.667 2.5 -32.667 7.5 -42s14.167 -14 27.5 -14c4.66699 0 9.66699 0.5 15 1.5
s9.33301 2.5 12 4.5l10 -64c-7.33301 -3.33301 -16.166 -5.83301 -26.499 -7.5s-19.5 -2.5 -27.5 -2.5c-25.333 0 -47.333 7.16699 -66 21.5s-29 35.833 -31 64.5c-20.667 -32 -45 -55 -73 -69s-56 -21 -84 -21c-26.667 0 -49.834 5.33301 -69.501 16
s-34.167 23.667 -43.5 39v-217h-87z" />
    <glyph glyph-name="paragraph" unicode="&#xb6;" horiz-adv-x="555" 
d="M426 -91l-0.00195312 700.999h-65v-701h-63v348h-58c-29.333 0 -56.5 4.83301 -81.5 14.5s-46.667 23.334 -65 41.001s-32.666 39.167 -42.999 64.5s-15.5 53.666 -15.5 84.999s5.33301 59.5 16 84.5s25.334 46.333 44.001 64s40.5 31.334 65.5 41.001
s51.5 14.5 79.5 14.5h236v-757h-50z" />
    <glyph glyph-name="periodcentered" unicode="&#xb7;" horiz-adv-x="257" 
d="M191 304c0 -17.333 -6 -32.166 -18 -44.499s-26.667 -18.5 -44 -18.5s-32.166 6.16699 -44.499 18.5s-18.5 27.166 -18.5 44.499s6.16699 32.333 18.5 45s27.166 19 44.499 19s32 -6.33301 44 -19s18 -27.667 18 -45z" />
    <glyph glyph-name="cedilla" unicode="&#xb8;" horiz-adv-x="320" 
d="M53 -84c7.33301 -7.33301 16.666 -13.833 27.999 -19.5s23.333 -8.5 36 -8.5c13.333 0 24.833 3.83301 34.5 11.5s14.5 18.167 14.5 31.5s-4.66699 26.166 -14 38.499s-22.666 23.5 -39.999 33.5l26 16c26.667 -10 48.667 -24 66 -42s26 -38.667 26 -62
c0 -25.333 -9.83301 -45.5 -29.5 -60.5s-43.5 -22.5 -71.5 -22.5c-16 0 -30.833 2.33301 -44.5 7s-24.167 10.334 -31.5 17.001v60z" />
    <glyph glyph-name="onesuperior" unicode="&#xb9;" horiz-adv-x="325" 
d="M149 399v278.002c-12 -5.33301 -28 -10.333 -48 -15s-40 -8.33398 -60 -11.001l-10 54c32 6 59 13.167 81 21.5s40 19.166 54 32.499h52v-360h94v-63h-271v63h108z" />
    <glyph glyph-name="ordmasculine" unicode="&#xba;" horiz-adv-x="425" 
d="M383 500c0 -24.667 -4 -47.667 -12 -69s-19.333 -39.666 -34 -54.999s-32.667 -27.5 -54 -36.5s-45 -13.5 -71 -13.5s-49.5 4.5 -70.5 13.5s-38.833 21.167 -53.5 36.5s-26 33.666 -34 54.999s-12 44.333 -12 69s4 47.667 12 69s19.333 39.666 34 54.999
s32.5 27.333 53.5 36s44.5 13 70.5 13s49.667 -4.33301 71 -13s39.333 -20.667 54 -36s26 -33.666 34 -54.999s12 -44.333 12 -69zM314 500c0 32 -8.66699 58.833 -26 80.5s-42.666 32.5 -75.999 32.5c-32 0 -57 -10.833 -75 -32.5s-27 -48.5 -27 -80.5s9 -58.833 27 -80.5
s43 -32.5 75 -32.5c33.333 0 58.666 10.833 75.999 32.5s26 48.5 26 80.5z" />
    <glyph glyph-name="guillemotright" unicode="&#xbb;" horiz-adv-x="464" 
d="M431 245l-143 -192l-52 39l122 168l-122 167l52 40l143 -192v-30zM243 245l-143 -192l-52 39l121 168l-121 167l52 40l143 -192v-30z" />
    <glyph glyph-name="onequarter" unicode="&#xbc;" horiz-adv-x="950" 
d="M844 96l0.000976562 -96h-67v96h-212v57c11.333 20 22.166 41.333 32.499 64s19.166 45.667 26.499 69s13.333 46.5 18 69.5s7.33398 45.167 8.00098 66.5h68c-1.33301 -42 -9.5 -86.5 -24.5 -133.5s-33.5 -90.5 -55.5 -130.5h139v169h67v-169h64v-62h-64zM263.001 0h-67
l481 666h66zM173.001 306v278.002c-12 -5.33301 -28 -10.333 -48 -15s-40 -8.33398 -60 -11.001l-10 54c32 6 59 13.167 81 21.5s40 19.166 54 32.499h52v-360h94v-63h-271v63h108z" />
    <glyph glyph-name="onehalf" unicode="&#xbd;" horiz-adv-x="950" 
d="M263 0h-67l481 666h66zM173 306v278.002c-12 -5.33301 -28 -10.333 -48 -15s-40 -8.33398 -60 -11.001l-10 54c32 6 59 13.167 81 21.5s40 19.166 54 32.499h52v-360h94v-63h-271v63h108zM589 0.00195312l0.00195312 53l104.5 85c28.333 24 51.166 45.333 68.499 64
s29.833 35.334 37.5 50.001s11.5 29 11.5 43c0 23.333 -8.5 41 -25.5 53s-36.167 18 -57.5 18c-20.667 0 -39.334 -5.16699 -56.001 -15.5s-30.334 -23.5 -41.001 -39.5l-55 34c18.667 25.333 41 45.833 67 61.5s55.667 23.5 89 23.5c22 0 42.167 -3 60.5 -9
s34.333 -14.5 48 -25.5s24.334 -24.833 32.001 -41.5s11.5 -35.334 11.5 -56.001c0 -18.667 -3 -36 -9 -52s-16.167 -32.833 -30.5 -50.5s-33.333 -37 -57 -58s-53.5 -45.833 -89.5 -74.5h203v-63h-312z" />
    <glyph glyph-name="threequarters" unicode="&#xbe;" horiz-adv-x="950" 
d="M363 364c0 -19.333 -3.83398 -36.8369 -11.501 -52.5039s-18.5 -29.167 -32.5 -40.5s-30.5 -20.166 -49.5 -26.499s-39.833 -9.5 -62.5 -9.5c-39.333 0 -73 7.33301 -101 22s-50.333 38.667 -67 72l64 24c11.333 -20.667 26.333 -34.667 45 -42s38.334 -11 59.001 -11
c26.667 0 47.334 6.33301 62.001 19s22 28.667 22 48c0 18.667 -6.5 33.167 -19.5 43.5s-31.167 15.5 -54.5 15.5h-55v63h52c6.66699 0 14 1 22 3s15.333 5.33301 22 10s12.167 10.834 16.5 18.501s6.5 16.834 6.5 27.501c0 21.333 -8.5 36.833 -25.5 46.5
s-36.167 14.5 -57.5 14.5c-43.333 0 -76 -16 -98 -48l-54 34c37.333 52.667 89.333 79 156 79c20.667 0 40 -2.5 58 -7.5s33.667 -12.5 47 -22.5s23.833 -22.333 31.5 -37s11.5 -31.334 11.5 -50.001s-3.83301 -36 -11.5 -52s-20.834 -29.333 -39.501 -40
c24.667 -9.33301 41.5 -23.666 50.5 -42.999s13.5 -38.666 13.5 -57.999zM853.999 95.9961l0.000976562 -96h-67v96h-212v57c11.333 20 22.166 41.333 32.499 64s19.166 45.667 26.499 69s13.333 46.5 18 69.5s7.33398 45.167 8.00098 66.5h68
c-1.33301 -42 -9.5 -86.5 -24.5 -133.5s-33.5 -90.5 -55.5 -130.5h139v169h67v-169h64v-62h-64zM273 -0.00390625h-67l481 666h66z" />
    <glyph glyph-name="questiondown" unicode="&#xbf;" horiz-adv-x="512" 
d="M55 41c0 29.333 5.33105 55.8311 15.998 79.498s25.334 44.334 44.001 62.001s40.667 31.834 66 42.501s53 18 83 22v70h84v-146c-6.66699 1.33301 -13 2.33301 -19 3s-11.667 1 -17 1c-23.333 0 -44.833 -3 -64.5 -9s-36.667 -14.5 -51 -25.5s-25.5 -24.667 -33.5 -41
s-12 -34.833 -12 -55.5c0 -34 11.5 -62.333 34.5 -85s56.167 -34 99.5 -34c31.333 0 59.5 5.5 84.5 16.5s48.167 26.167 69.5 45.5l52 -63c-30 -26 -62.333 -46.333 -97 -61s-73 -22 -115 -22c-31.333 0 -60.666 4.5 -87.999 13.5s-51 22 -71 39s-35.833 38 -47.5 63
s-17.5 53.167 -17.5 84.5zM252.998 417.998v102h107v-102h-107z" />
    <glyph glyph-name="Agrave" unicode="&#xc0;" horiz-adv-x="667" 
d="M552 0l-71 185h-300l-72 -185h-98l271 666h103l272 -666h-105zM333 575l-120 -308h237zM354 704c-14 8 -27.998 17.5 -41.998 28.5s-27.333 22.5 -40 34.5s-23.834 24.333 -33.501 37s-16.834 24.667 -21.501 36l83 13c4.66699 -8.66699 10.5 -18.167 17.5 -28.5
l22 -31.5c7.66699 -10.667 15.667 -21.167 24 -31.5s16.5 -19.833 24.5 -28.5z" />
    <glyph glyph-name="Aacute" unicode="&#xc1;" horiz-adv-x="667" 
d="M552 0l-71 185h-300l-72 -185h-98l271 666h103l272 -666h-105zM333 575l-120 -308h237zM283 733c8 8.66699 16.166 18.167 24.499 28.5l24.5 31.5c8 10.667 15.5 21.167 22.5 31.5s12.833 19.833 17.5 28.5l83 -13c-5.33301 -11.333 -12.666 -23.333 -21.999 -36
s-20.333 -25 -33 -37s-26 -23.5 -40 -34.5s-28 -20.5 -42 -28.5z" />
    <glyph glyph-name="Acircumflex" unicode="&#xc2;" horiz-adv-x="667" 
d="M552 0l-71 185h-300l-72 -185h-98l271 666h103l272 -666h-105zM333 575l-120 -308h237zM367 851l59 -50.499c20 -16.333 42.667 -33.166 68 -50.499l-24 -42c-26 8.66699 -51.167 20.167 -75.5 34.5s-44.833 29.166 -61.5 44.499
c-16.667 -15.333 -37.167 -30.166 -61.5 -44.499s-49.166 -25.833 -74.499 -34.5l-25 42c25.333 17.333 48.166 34.166 68.499 50.499s39.833 33.166 58.5 50.499h68z" />
    <glyph glyph-name="Atilde" unicode="&#xc3;" horiz-adv-x="667" 
d="M552 0l-71 185h-300l-72 -185h-98l271 666h103l272 -666h-105zM333 575l-120 -308h237zM500 805c-9.33301 -25.333 -22.499 -45.5 -39.499 -60.5s-35.833 -22.5 -56.5 -22.5c-11.333 0 -22.666 2 -33.999 6s-22.5 8.33301 -33.5 13l-32 13c-10.333 4 -20.166 6 -29.499 6
c-11.333 0 -22.333 -2.83301 -33 -8.5s-21.667 -15.167 -33 -28.5l-35 23c9.33301 25.333 22.5 45.5 39.5 60.5s35.833 22.5 56.5 22.5c11.333 0 22.666 -2 33.999 -6s22.5 -8.33301 33.5 -13l32 -13c10.333 -4 20.5 -6 30.5 -6c11.333 0 22.166 2.83301 32.499 8.5
s21.166 15.167 32.499 28.5z" />
    <glyph glyph-name="Adieresis" unicode="&#xc4;" horiz-adv-x="667" 
d="M552 0l-71 185h-300l-72 -185h-98l271 666h103l272 -666h-105zM333 575l-120 -308h237zM190 723v78h76v-78h-76zM400 723v78h75v-78h-75z" />
    <glyph glyph-name="Aring" unicode="&#xc5;" horiz-adv-x="663" 
d="M389 717c0 16 -5.33301 29.833 -16 41.5s-24 17.5 -40 17.5c-16.667 0 -30.5 -5.83301 -41.5 -17.5s-16.5 -25.5 -16.5 -41.5s5.5 -29.5 16.5 -40.5s24.833 -16.5 41.5 -16.5c16 0 29.333 5.5 40 16.5s16 24.5 16 40.5zM331 575l-120 -308h237zM550 0l-71.001 185h-300
l-72 -185h-98l258 634c-13.333 9.33301 -24.333 21.333 -33 36s-13 30.667 -13 48c0 14.667 2.83301 28.5 8.5 41.5s13.5 24.333 23.5 34s21.833 17.334 35.5 23.001s28.167 8.5 43.5 8.5s29.833 -2.83301 43.5 -8.5s25.5 -13.334 35.5 -23.001s18 -21 24 -34
s9 -26.833 9 -41.5c0 -17.333 -4.66699 -33.333 -14 -48s-20.666 -26.667 -33.999 -36l259 -634h-105z" />
    <glyph glyph-name="AE" unicode="&#xc6;" horiz-adv-x="909" 
d="M437 0v185h-242l-95 -185h-101l342 666h511v-86h-320v-188h272v-81h-272v-225h330v-86h-425zM437 584h-42l-160 -317h202v317z" />
    <glyph glyph-name="Ccedilla" unicode="&#xc7;" horiz-adv-x="673" 
d="M257 -84c7.33301 -7.33301 16.667 -13.8311 28 -19.498s23.333 -8.5 36 -8.5c13.333 0 24.833 3.83301 34.5 11.5s14.5 18.167 14.5 31.5c0 21.333 -11.667 41 -35 59c-43.333 4 -82.666 15.5 -117.999 34.5s-65.5 43.5 -90.5 73.5s-44.167 65 -57.5 105
s-20 83.333 -20 130c0 50 7.66699 96 23 138s37.166 78.333 65.499 109s62.333 54.667 102 72s83.834 26 132.501 26c57.333 0 107.833 -11.5 151.5 -34.5s80.5 -56.167 110.5 -99.5l-74 -51c-20.667 32 -46.334 56.5 -77.001 73.5s-67 25.5 -109 25.5
c-34.667 0 -66 -6.16699 -94 -18.5s-51.833 -29.833 -71.5 -52.5s-34.834 -49.834 -45.501 -81.501s-16 -66.834 -16 -105.501c0 -39.333 5.33301 -75 16 -107s25.834 -59.5 45.501 -82.5s43.334 -40.667 71.001 -53s58.5 -18.5 92.5 -18.5
c41.333 0 77.833 9.16699 109.5 27.5s57.834 43.5 78.501 75.5l77 -50c-26.667 -40 -60.334 -72 -101.001 -96s-87.334 -37.667 -140.001 -41c11.333 -9.33301 20.5 -20.333 27.5 -33s10.5 -26.334 10.5 -41.001c0 -25.333 -9.83301 -45.5 -29.5 -60.5
s-43.5 -22.5 -71.5 -22.5c-16 0 -30.833 2.33301 -44.5 7s-24.167 10.334 -31.5 17.001v60z" />
    <glyph glyph-name="Egrave" unicode="&#xc8;" horiz-adv-x="620" 
d="M90 0v666h472v-86h-378v-188h329v-81h-329v-225h388v-86h-482zM349 704c-14 8 -27.998 17.5 -41.998 28.5s-27.333 22.5 -40 34.5s-23.834 24.333 -33.501 37s-16.834 24.667 -21.501 36l83 13c4.66699 -8.66699 10.5 -18.167 17.5 -28.5l22 -31.5
c7.66699 -10.667 15.667 -21.167 24 -31.5s16.5 -19.833 24.5 -28.5z" />
    <glyph glyph-name="Eacute" unicode="&#xc9;" horiz-adv-x="620" 
d="M90 0v666h472v-86h-378v-188h329v-81h-329v-225h388v-86h-482zM266 733c8 8.66699 16.166 18.167 24.499 28.5l24.5 31.5c8 10.667 15.5 21.167 22.5 31.5s12.833 19.833 17.5 28.5l83 -13c-5.33301 -11.333 -12.666 -23.333 -21.999 -36s-20.333 -25 -33 -37
s-26 -23.5 -40 -34.5s-28 -20.5 -42 -28.5z" />
    <glyph glyph-name="Ecircumflex" unicode="&#xca;" horiz-adv-x="620" 
d="M90 0v666h472v-86h-378v-188h329v-81h-329v-225h388v-86h-482zM371 851l59 -50.499c20 -16.333 42.667 -33.166 68 -50.499l-24 -42c-26 8.66699 -51.167 20.167 -75.5 34.5s-44.833 29.166 -61.5 44.499c-16.667 -15.333 -37.167 -30.166 -61.5 -44.499
s-49.166 -25.833 -74.499 -34.5l-25 42c25.333 17.333 48.166 34.166 68.499 50.499s39.833 33.166 58.5 50.499h68z" />
    <glyph glyph-name="Edieresis" unicode="&#xcb;" horiz-adv-x="620" 
d="M90 0v666h472v-86h-378v-188h329v-81h-329v-225h388v-86h-482zM189 723v78h76v-78h-76zM399 723v78h75v-78h-75z" />
    <glyph glyph-name="Igrave" unicode="&#xcc;" horiz-adv-x="273" 
d="M90 0v666h93v-666h-93zM158 704c-14 8 -27.998 17.5 -41.998 28.5s-27.333 22.5 -40 34.5s-23.834 24.333 -33.501 37s-16.834 24.667 -21.501 36l83 13c4.66699 -8.66699 10.5 -18.167 17.5 -28.5l22 -31.5c7.66699 -10.667 15.667 -21.167 24 -31.5
s16.5 -19.833 24.5 -28.5z" />
    <glyph glyph-name="Iacute" unicode="&#xcd;" horiz-adv-x="273" 
d="M90 0v666h93v-666h-93zM84 733c8 8.66699 16.166 18.167 24.499 28.5l24.5 31.5c8 10.667 15.5 21.167 22.5 31.5s12.833 19.833 17.5 28.5l83 -13c-5.33301 -11.333 -12.666 -23.333 -21.999 -36s-20.333 -25 -33 -37s-26 -23.5 -40 -34.5s-28 -20.5 -42 -28.5z" />
    <glyph glyph-name="Icircumflex" unicode="&#xce;" horiz-adv-x="273" 
d="M90 0v666h93v-666h-93zM171 851l59 -50.499c20 -16.333 42.667 -33.166 68 -50.499l-24 -42c-26 8.66699 -51.167 20.167 -75.5 34.5s-44.833 29.166 -61.5 44.499c-16.667 -15.333 -37.167 -30.166 -61.5 -44.499s-49.166 -25.833 -74.499 -34.5l-25 42
c25.333 17.333 48.166 34.166 68.499 50.499s39.833 33.166 58.5 50.499h68z" />
    <glyph glyph-name="Idieresis" unicode="&#xcf;" horiz-adv-x="273" 
d="M90 0v666h93v-666h-93zM-5 723v78h76v-78h-76zM205 723v78h75v-78h-75z" />
    <glyph glyph-name="Eth" unicode="&#xd0;" horiz-adv-x="726" 
d="M676 333c0 -48.667 -6.83301 -93.3311 -20.5 -133.998s-34 -75.834 -61 -105.501s-60.167 -52.667 -99.5 -69s-85 -24.5 -137 -24.5h-263v302h-109v77h109v287h263c52 0 97.667 -8.33301 137 -25s72.5 -39.667 99.5 -69s47.333 -64.333 61 -105
s20.5 -85.334 20.5 -134.001zM577 333.003c0 78.667 -19.333 139.5 -58 182.5s-92.667 64.5 -162 64.5h-168v-201h184v-77h-184v-216h168c69.333 0 123.333 21.5 162 64.5s58 103.833 58 182.5z" />
    <glyph glyph-name="Ntilde" unicode="&#xd1;" horiz-adv-x="729" 
d="M529 0l-349 549v-549h-90v666h120l339 -536v536h90v-666h-110zM540 805c-9.33301 -25.333 -22.499 -45.5 -39.499 -60.5s-35.833 -22.5 -56.5 -22.5c-11.333 0 -22.666 2 -33.999 6s-22.5 8.33301 -33.5 13l-32 13c-10.333 4 -20.166 6 -29.499 6
c-11.333 0 -22.333 -2.83301 -33 -8.5s-21.667 -15.167 -33 -28.5l-35 23c9.33301 25.333 22.5 45.5 39.5 60.5s35.833 22.5 56.5 22.5c11.333 0 22.666 -2 33.999 -6s22.5 -8.33301 33.5 -13l32 -13c10.333 -4 20.5 -6 30.5 -6c11.333 0 22.166 2.83301 32.499 8.5
s21.166 15.167 32.499 28.5z" />
    <glyph glyph-name="Ograve" unicode="&#xd2;" horiz-adv-x="745" 
d="M698 333c0 -49.333 -7.66699 -95 -23 -137s-37.166 -78.333 -65.499 -109s-62.5 -54.834 -102.5 -72.501s-85 -26.5 -135 -26.5s-95 8.83301 -135 26.5s-74 41.834 -102 72.501s-49.667 67 -65 109s-23 87.667 -23 137c0 48.667 7.66699 94.167 23 136.5
s37 78.833 65 109.5s62 54.834 102 72.501s85 26.5 135 26.5s95 -8.83301 135 -26.5s74.167 -41.834 102.5 -72.501s50.166 -67.167 65.499 -109.5s23 -87.833 23 -136.5zM599 333c0 38 -5.16699 72.667 -15.5 104s-25.333 58.333 -45 81s-43.5 40.334 -71.5 53.001
s-59.667 19 -95 19s-67.166 -6.33301 -95.499 -19s-52.166 -30.334 -71.499 -53.001s-34.166 -49.667 -44.499 -81s-15.5 -66 -15.5 -104s5.16699 -72.667 15.5 -104s25.166 -58.5 44.499 -81.5s43.166 -40.833 71.499 -53.5s60.166 -19 95.499 -19s67 6.33301 95 19
s51.833 30.5 71.5 53.5s34.667 50.167 45 81.5s15.5 66 15.5 104zM400 704c-14 8 -27.998 17.5 -41.998 28.5s-27.333 22.5 -40 34.5s-23.834 24.333 -33.501 37s-16.834 24.667 -21.501 36l83 13c4.66699 -8.66699 10.5 -18.167 17.5 -28.5l22 -31.5
c7.66699 -10.667 15.667 -21.167 24 -31.5s16.5 -19.833 24.5 -28.5z" />
    <glyph glyph-name="Oacute" unicode="&#xd3;" horiz-adv-x="745" 
d="M698 333c0 -49.333 -7.66699 -95 -23 -137s-37.166 -78.333 -65.499 -109s-62.5 -54.834 -102.5 -72.501s-85 -26.5 -135 -26.5s-95 8.83301 -135 26.5s-74 41.834 -102 72.501s-49.667 67 -65 109s-23 87.667 -23 137c0 48.667 7.66699 94.167 23 136.5
s37 78.833 65 109.5s62 54.834 102 72.501s85 26.5 135 26.5s95 -8.83301 135 -26.5s74.167 -41.834 102.5 -72.501s50.166 -67.167 65.499 -109.5s23 -87.833 23 -136.5zM599 333c0 38 -5.16699 72.667 -15.5 104s-25.333 58.333 -45 81s-43.5 40.334 -71.5 53.001
s-59.667 19 -95 19s-67.166 -6.33301 -95.499 -19s-52.166 -30.334 -71.499 -53.001s-34.166 -49.667 -44.499 -81s-15.5 -66 -15.5 -104s5.16699 -72.667 15.5 -104s25.166 -58.5 44.499 -81.5s43.166 -40.833 71.499 -53.5s60.166 -19 95.499 -19s67 6.33301 95 19
s51.833 30.5 71.5 53.5s34.667 50.167 45 81.5s15.5 66 15.5 104zM305 733c8 8.66699 16.166 18.167 24.499 28.5l24.5 31.5c8 10.667 15.5 21.167 22.5 31.5s12.833 19.833 17.5 28.5l83 -13c-5.33301 -11.333 -12.666 -23.333 -21.999 -36s-20.333 -25 -33 -37
s-26 -23.5 -40 -34.5s-28 -20.5 -42 -28.5z" />
    <glyph glyph-name="Ocircumflex" unicode="&#xd4;" horiz-adv-x="745" 
d="M698 333c0 -49.333 -7.66699 -95 -23 -137s-37.166 -78.333 -65.499 -109s-62.5 -54.834 -102.5 -72.501s-85 -26.5 -135 -26.5s-95 8.83301 -135 26.5s-74 41.834 -102 72.501s-49.667 67 -65 109s-23 87.667 -23 137c0 48.667 7.66699 94.167 23 136.5
s37 78.833 65 109.5s62 54.834 102 72.501s85 26.5 135 26.5s95 -8.83301 135 -26.5s74.167 -41.834 102.5 -72.501s50.166 -67.167 65.499 -109.5s23 -87.833 23 -136.5zM599 333c0 38 -5.16699 72.667 -15.5 104s-25.333 58.333 -45 81s-43.5 40.334 -71.5 53.001
s-59.667 19 -95 19s-67.166 -6.33301 -95.499 -19s-52.166 -30.334 -71.499 -53.001s-34.166 -49.667 -44.499 -81s-15.5 -66 -15.5 -104s5.16699 -72.667 15.5 -104s25.166 -58.5 44.499 -81.5s43.166 -40.833 71.499 -53.5s60.166 -19 95.499 -19s67 6.33301 95 19
s51.833 30.5 71.5 53.5s34.667 50.167 45 81.5s15.5 66 15.5 104zM406 851l59 -50.499c20 -16.333 42.667 -33.166 68 -50.499l-24 -42c-26 8.66699 -51.167 20.167 -75.5 34.5s-44.833 29.166 -61.5 44.499c-16.667 -15.333 -37.167 -30.166 -61.5 -44.499
s-49.166 -25.833 -74.499 -34.5l-25 42c25.333 17.333 48.166 34.166 68.499 50.499s39.833 33.166 58.5 50.499h68z" />
    <glyph glyph-name="Otilde" unicode="&#xd5;" horiz-adv-x="745" 
d="M698 333c0 -49.333 -7.66699 -95 -23 -137s-37.166 -78.333 -65.499 -109s-62.5 -54.834 -102.5 -72.501s-85 -26.5 -135 -26.5s-95 8.83301 -135 26.5s-74 41.834 -102 72.501s-49.667 67 -65 109s-23 87.667 -23 137c0 48.667 7.66699 94.167 23 136.5
s37 78.833 65 109.5s62 54.834 102 72.501s85 26.5 135 26.5s95 -8.83301 135 -26.5s74.167 -41.834 102.5 -72.501s50.166 -67.167 65.499 -109.5s23 -87.833 23 -136.5zM599 333c0 38 -5.16699 72.667 -15.5 104s-25.333 58.333 -45 81s-43.5 40.334 -71.5 53.001
s-59.667 19 -95 19s-67.166 -6.33301 -95.499 -19s-52.166 -30.334 -71.499 -53.001s-34.166 -49.667 -44.499 -81s-15.5 -66 -15.5 -104s5.16699 -72.667 15.5 -104s25.166 -58.5 44.499 -81.5s43.166 -40.833 71.499 -53.5s60.166 -19 95.499 -19s67 6.33301 95 19
s51.833 30.5 71.5 53.5s34.667 50.167 45 81.5s15.5 66 15.5 104zM535 805c-9.33301 -25.333 -22.499 -45.5 -39.499 -60.5s-35.833 -22.5 -56.5 -22.5c-11.333 0 -22.666 2 -33.999 6s-22.5 8.33301 -33.5 13l-32 13c-10.333 4 -20.166 6 -29.499 6
c-11.333 0 -22.333 -2.83301 -33 -8.5s-21.667 -15.167 -33 -28.5l-35 23c9.33301 25.333 22.5 45.5 39.5 60.5s35.833 22.5 56.5 22.5c11.333 0 22.666 -2 33.999 -6s22.5 -8.33301 33.5 -13l32 -13c10.333 -4 20.5 -6 30.5 -6c11.333 0 22.166 2.83301 32.499 8.5
s21.166 15.167 32.499 28.5z" />
    <glyph glyph-name="Odieresis" unicode="&#xd6;" horiz-adv-x="745" 
d="M698 333c0 -49.333 -7.66699 -95 -23 -137s-37.166 -78.333 -65.499 -109s-62.5 -54.834 -102.5 -72.501s-85 -26.5 -135 -26.5s-95 8.83301 -135 26.5s-74 41.834 -102 72.501s-49.667 67 -65 109s-23 87.667 -23 137c0 48.667 7.66699 94.167 23 136.5
s37 78.833 65 109.5s62 54.834 102 72.501s85 26.5 135 26.5s95 -8.83301 135 -26.5s74.167 -41.834 102.5 -72.501s50.166 -67.167 65.499 -109.5s23 -87.833 23 -136.5zM599 333c0 38 -5.16699 72.667 -15.5 104s-25.333 58.333 -45 81s-43.5 40.334 -71.5 53.001
s-59.667 19 -95 19s-67.166 -6.33301 -95.499 -19s-52.166 -30.334 -71.499 -53.001s-34.166 -49.667 -44.499 -81s-15.5 -66 -15.5 -104s5.16699 -72.667 15.5 -104s25.166 -58.5 44.499 -81.5s43.166 -40.833 71.499 -53.5s60.166 -19 95.499 -19s67 6.33301 95 19
s51.833 30.5 71.5 53.5s34.667 50.167 45 81.5s15.5 66 15.5 104zM229 723v78h76v-78h-76zM439 723v78h75v-78h-75z" />
    <glyph glyph-name="multiply" unicode="&#xd7;" 
d="M465 74l-175 176l-176 -176l-54 55l176 175l-176 175l54 55l176 -176l175 176l54 -55l-175 -175l175 -175z" />
    <glyph glyph-name="Oslash" unicode="&#xd8;" horiz-adv-x="745" 
d="M119 21l33.998 47c-34 31.333 -60.167 69.666 -78.5 114.999s-27.5 95.333 -27.5 150c0 48.667 7.66699 94.167 23 136.5s37 78.833 65 109.5s62 54.834 102 72.501s85 26.5 135 26.5c34 0 65.333 -4 94 -12s55.334 -19.667 80.001 -35l32 46l47 -33l-34 -47
c34 -31.333 60.333 -69.666 79 -114.999s28 -95 28 -149c0 -49.333 -7.66699 -95 -23 -137s-37.166 -78.333 -65.499 -109s-62.5 -54.834 -102.5 -72.501s-85 -26.5 -135 -26.5c-67.333 0 -125.333 15.667 -174 47l-32 -46zM598.998 333c0 38 -5.5 72.832 -16.5 104.499
s-26.167 58.834 -45.5 81.501l-287 -410c34 -22.667 74.667 -34 122 -34c35.333 0 67 6.33301 95 19s51.833 30.5 71.5 53.5s34.667 50.167 45 81.5s15.5 66 15.5 104zM144.998 332.999c0 -38.667 5.33008 -73.8311 15.9971 -105.498s26 -58.834 46 -81.501l287 411
c-35.333 22 -76 33 -122 33c-35.333 0 -67.166 -6.33301 -95.499 -19s-52.166 -30.334 -71.499 -53.001s-34.166 -49.667 -44.499 -81s-15.5 -66 -15.5 -104z" />
    <glyph glyph-name="Ugrave" unicode="&#xd9;" horiz-adv-x="710" 
d="M628 250c0 -40 -6.83398 -76.167 -20.501 -108.5s-32.667 -59.833 -57 -82.5s-53.166 -40.167 -86.499 -52.5s-70 -18.5 -110 -18.5s-76.667 6.16699 -110 18.5s-62 29.833 -86 52.5s-42.667 50.167 -56 82.5s-20 68.5 -20 108.5v416h93v-416
c0 -53.333 15.667 -95.833 47 -127.5s75.333 -47.5 132 -47.5c56 0 100.167 15.833 132.5 47.5s48.5 74.167 48.5 127.5v416h93v-416zM377.999 704c-14 8 -27.998 17.5 -41.998 28.5s-27.333 22.5 -40 34.5s-23.834 24.333 -33.501 37s-16.834 24.667 -21.501 36l83 13
c4.66699 -8.66699 10.5 -18.167 17.5 -28.5l22 -31.5c7.66699 -10.667 15.667 -21.167 24 -31.5s16.5 -19.833 24.5 -28.5z" />
    <glyph glyph-name="Uacute" unicode="&#xda;" horiz-adv-x="710" 
d="M628 250c0 -40 -6.83398 -76.167 -20.501 -108.5s-32.667 -59.833 -57 -82.5s-53.166 -40.167 -86.499 -52.5s-70 -18.5 -110 -18.5s-76.667 6.16699 -110 18.5s-62 29.833 -86 52.5s-42.667 50.167 -56 82.5s-20 68.5 -20 108.5v416h93v-416
c0 -53.333 15.667 -95.833 47 -127.5s75.333 -47.5 132 -47.5c56 0 100.167 15.833 132.5 47.5s48.5 74.167 48.5 127.5v416h93v-416zM307.999 733c8 8.66699 16.166 18.167 24.499 28.5l24.5 31.5c8 10.667 15.5 21.167 22.5 31.5s12.833 19.833 17.5 28.5l83 -13
c-5.33301 -11.333 -12.666 -23.333 -21.999 -36s-20.333 -25 -33 -37s-26 -23.5 -40 -34.5s-28 -20.5 -42 -28.5z" />
    <glyph glyph-name="Ucircumflex" unicode="&#xdb;" horiz-adv-x="710" 
d="M628 250c0 -40 -6.83398 -76.167 -20.501 -108.5s-32.667 -59.833 -57 -82.5s-53.166 -40.167 -86.499 -52.5s-70 -18.5 -110 -18.5s-76.667 6.16699 -110 18.5s-62 29.833 -86 52.5s-42.667 50.167 -56 82.5s-20 68.5 -20 108.5v416h93v-416
c0 -53.333 15.667 -95.833 47 -127.5s75.333 -47.5 132 -47.5c56 0 100.167 15.833 132.5 47.5s48.5 74.167 48.5 127.5v416h93v-416zM388.999 851l59 -50.499c20 -16.333 42.667 -33.166 68 -50.499l-24 -42c-26 8.66699 -51.167 20.167 -75.5 34.5
s-44.833 29.166 -61.5 44.499c-16.667 -15.333 -37.167 -30.166 -61.5 -44.499s-49.166 -25.833 -74.499 -34.5l-25 42c25.333 17.333 48.166 34.166 68.499 50.499s39.833 33.166 58.5 50.499h68z" />
    <glyph glyph-name="Udieresis" unicode="&#xdc;" horiz-adv-x="710" 
d="M628 250c0 -40 -6.83398 -76.167 -20.501 -108.5s-32.667 -59.833 -57 -82.5s-53.166 -40.167 -86.499 -52.5s-70 -18.5 -110 -18.5s-76.667 6.16699 -110 18.5s-62 29.833 -86 52.5s-42.667 50.167 -56 82.5s-20 68.5 -20 108.5v416h93v-416
c0 -53.333 15.667 -95.833 47 -127.5s75.333 -47.5 132 -47.5c56 0 100.167 15.833 132.5 47.5s48.5 74.167 48.5 127.5v416h93v-416zM211.999 723v78h76v-78h-76zM421.999 723v78h75v-78h-75z" />
    <glyph glyph-name="Yacute" unicode="&#xdd;" horiz-adv-x="614" 
d="M354 272v-272h-94v271l-254 395h110l193 -310l195 310h106zM252 733c8 8.66699 16.166 18.167 24.499 28.5l24.5 31.5c8 10.667 15.5 21.167 22.5 31.5s12.833 19.833 17.5 28.5l83 -13c-5.33301 -11.333 -12.666 -23.333 -21.999 -36s-20.333 -25 -33 -37
s-26 -23.5 -40 -34.5s-28 -20.5 -42 -28.5z" />
    <glyph glyph-name="Thorn" unicode="&#xde;" horiz-adv-x="634" 
d="M183 0l-93 0.000976562v666h93v-100h186c38 0 71.5 -5 100.5 -15s53.5 -24.167 73.5 -42.5s35.167 -40.333 45.5 -66s15.5 -53.834 15.5 -84.501s-4.83301 -58.667 -14.5 -84s-24.334 -47 -44.001 -65s-44.167 -31.833 -73.5 -41.5s-63.666 -14.5 -102.999 -14.5h-186
v-153zM507 359.001c-0.666992 36.667 -12.167 65.999 -34.5 87.999s-56.833 33 -103.5 33h-186v-241h186c47.333 0 82.333 10.833 105 32.5s33.667 50.834 33 87.501z" />
    <glyph glyph-name="germandbls" unicode="&#xdf;" horiz-adv-x="618" 
d="M575 202c0 -33.333 -5.5 -63.332 -16.5 -89.999s-26.5 -49.167 -46.5 -67.5s-44.5 -32.333 -73.5 -42s-61.5 -14.5 -97.5 -14.5c-17.333 0 -36.333 1.66699 -57 5s-38.667 8.33301 -54 15l20 78c12.667 -7.33301 27.167 -12.5 43.5 -15.5s30.5 -4.5 42.5 -4.5
c48 0 84.667 13 110 39s38 60.333 38 103c0 47.333 -14.833 81.833 -44.5 103.5s-68.5 32.5 -116.5 32.5h-59v76h41c18 0 35 2.33301 51 7s30 11.667 42 21s21.5 21.333 28.5 36s10.5 31.667 10.5 51c0 20.667 -3.66699 38.167 -11 52.5s-17.333 26 -30 35
s-27.334 15.667 -44.001 20s-34 6.5 -52 6.5c-18.667 0 -36.334 -2.5 -53.001 -7.5s-31.167 -12.5 -43.5 -22.5s-22.166 -22.333 -29.499 -37s-11 -31.334 -11 -50.001v-532h-85v533c0 30 5.5 56.833 16.5 80.5s26.5 43.667 46.5 60s43.833 29 71.5 38
s58.167 13.5 91.5 13.5c30.667 0 59.667 -4 87 -12s51 -19.5 71 -34.5s35.833 -33.667 47.5 -56s17.5 -47.5 17.5 -75.5c0 -32.667 -7.16699 -61.5 -21.5 -86.5s-40.166 -47.5 -77.499 -67.5c50 -16 87 -40.5 111 -73.5s36 -72.167 36 -117.5z" />
    <glyph glyph-name="agrave" unicode="&#xe0;" horiz-adv-x="654" 
d="M330 578c-14 8 -27.998 17.5 -41.998 28.5s-27.333 22.5 -40 34.5s-23.834 24.333 -33.501 37s-16.834 24.667 -21.501 36l83 13c4.66699 -8.66699 10.5 -18.167 17.5 -28.5l22 -31.5c7.66699 -10.667 15.667 -21.167 24 -31.5s16.5 -19.833 24.5 -28.5zM556.002 116
c0 -19.333 2.99805 -33.499 8.99805 -42.499s16.333 -13.5 31 -13.5c12.667 0 23.334 2.66699 32.001 8l11 -66c-9.33301 -3.33301 -19.5 -5.83301 -30.5 -7.5s-20.833 -2.5 -29.5 -2.5c-24.667 0 -47.167 6.66699 -67.5 20s-33.166 36 -38.499 68
c-23.333 -34.667 -51.666 -58.667 -84.999 -72s-67 -20 -101 -20c-38 0 -72 7 -102 21s-55.333 33.167 -76 57.5s-36.5 53 -47.5 86s-16.5 68.5 -16.5 106.5c0 38.667 5.5 74.667 16.5 108s26.833 62.166 47.5 86.499s45.667 43.5 75 57.5s62.666 21 99.999 21
c36 0 69.667 -7.5 101 -22.5s59.333 -40.167 84 -75.5v86h87v-404zM469 260.001c0 26.667 -3.66504 51.667 -10.998 75s-18 43.5 -32 60.5s-31.5 30.5 -52.5 40.5s-45.167 15 -72.5 15s-51.333 -5 -72 -15s-37.834 -23.667 -51.501 -41s-23.834 -37.5 -30.501 -60.5
s-10 -47.833 -10 -74.5s3.33301 -51.667 10 -75s16.667 -43.666 30 -60.999s30.333 -31 51 -41s44.667 -15 72 -15c28 0 52.5 5 73.5 15s38.5 23.667 52.5 41s24.667 37.666 32 60.999s11 48.333 11 75z" />
    <glyph glyph-name="aacute" unicode="&#xe1;" horiz-adv-x="654" 
d="M250 607c8 8.66699 16.166 18.167 24.499 28.5l24.5 31.5c8 10.667 15.5 21.167 22.5 31.5s12.833 19.833 17.5 28.5l83 -13c-5.33301 -11.333 -12.666 -23.333 -21.999 -36s-20.333 -25 -33 -37s-26 -23.5 -40 -34.5s-28 -20.5 -42 -28.5zM555.999 116
c0 -19.333 2.99805 -33.499 8.99805 -42.499s16.333 -13.5 31 -13.5c12.667 0 23.334 2.66699 32.001 8l11 -66c-9.33301 -3.33301 -19.5 -5.83301 -30.5 -7.5s-20.833 -2.5 -29.5 -2.5c-24.667 0 -47.167 6.66699 -67.5 20s-33.166 36 -38.499 68
c-23.333 -34.667 -51.666 -58.667 -84.999 -72s-67 -20 -101 -20c-38 0 -72 7 -102 21s-55.333 33.167 -76 57.5s-36.5 53 -47.5 86s-16.5 68.5 -16.5 106.5c0 38.667 5.5 74.667 16.5 108s26.833 62.166 47.5 86.499s45.667 43.5 75 57.5s62.666 21 99.999 21
c36 0 69.667 -7.5 101 -22.5s59.333 -40.167 84 -75.5v86h87v-404zM468.997 260.001c0 26.667 -3.66504 51.667 -10.998 75s-18 43.5 -32 60.5s-31.5 30.5 -52.5 40.5s-45.167 15 -72.5 15s-51.333 -5 -72 -15s-37.834 -23.667 -51.501 -41s-23.834 -37.5 -30.501 -60.5
s-10 -47.833 -10 -74.5s3.33301 -51.667 10 -75s16.667 -43.666 30 -60.999s30.333 -31 51 -41s44.667 -15 72 -15c28 0 52.5 5 73.5 15s38.5 23.667 52.5 41s24.667 37.666 32 60.999s11 48.333 11 75z" />
    <glyph glyph-name="acircumflex" unicode="&#xe2;" horiz-adv-x="654" 
d="M556 116c0 -19.333 2.99805 -33.499 8.99805 -42.499s16.333 -13.5 31 -13.5c12.667 0 23.334 2.66699 32.001 8l11 -66c-9.33301 -3.33301 -19.5 -5.83301 -30.5 -7.5s-20.833 -2.5 -29.5 -2.5c-24.667 0 -47.167 6.66699 -67.5 20s-33.166 36 -38.499 68
c-23.333 -34.667 -51.666 -58.667 -84.999 -72s-67 -20 -101 -20c-38 0 -72 7 -102 21s-55.333 33.167 -76 57.5s-36.5 53 -47.5 86s-16.5 68.5 -16.5 106.5c0 38.667 5.5 74.667 16.5 108s26.833 62.166 47.5 86.499s45.667 43.5 75 57.5s62.666 21 99.999 21
c36 0 69.667 -7.5 101 -22.5s59.333 -40.167 84 -75.5v86h87v-404zM468.998 260.001c0 26.667 -3.66504 51.667 -10.998 75s-18 43.5 -32 60.5s-31.5 30.5 -52.5 40.5s-45.167 15 -72.5 15s-51.333 -5 -72 -15s-37.834 -23.667 -51.501 -41s-23.834 -37.5 -30.501 -60.5
s-10 -47.833 -10 -74.5s3.33301 -51.667 10 -75s16.667 -43.666 30 -60.999s30.333 -31 51 -41s44.667 -15 72 -15c28 0 52.5 5 73.5 15s38.5 23.667 52.5 41s24.667 37.666 32 60.999s11 48.333 11 75zM335 725.001l59 -50.499c20 -16.333 42.667 -33.166 68 -50.499
l-24 -42c-26 8.66699 -51.167 20.167 -75.5 34.5s-44.833 29.166 -61.5 44.499c-16.667 -15.333 -37.167 -30.166 -61.5 -44.499s-49.166 -25.833 -74.499 -34.5l-25 42c25.333 17.333 48.166 34.166 68.499 50.499s39.833 33.166 58.5 50.499h68z" />
    <glyph glyph-name="atilde" unicode="&#xe3;" horiz-adv-x="654" 
d="M464 679c-9.33301 -25.333 -22.499 -45.5 -39.499 -60.5s-35.833 -22.5 -56.5 -22.5c-11.333 0 -22.666 2 -33.999 6s-22.5 8.33301 -33.5 13l-32 13c-10.333 4 -20.166 6 -29.499 6c-11.333 0 -22.333 -2.83301 -33 -8.5s-21.667 -15.167 -33 -28.5l-35 23
c9.33301 25.333 22.5 45.5 39.5 60.5s35.833 22.5 56.5 22.5c11.333 0 22.666 -2 33.999 -6s22.5 -8.33301 33.5 -13l32 -13c10.333 -4 20.5 -6 30.5 -6c11.333 0 22.166 2.83301 32.499 8.5s21.166 15.167 32.499 28.5zM556.001 116
c0 -19.333 2.99805 -33.499 8.99805 -42.499s16.333 -13.5 31 -13.5c12.667 0 23.334 2.66699 32.001 8l11 -66c-9.33301 -3.33301 -19.5 -5.83301 -30.5 -7.5s-20.833 -2.5 -29.5 -2.5c-24.667 0 -47.167 6.66699 -67.5 20s-33.166 36 -38.499 68
c-23.333 -34.667 -51.666 -58.667 -84.999 -72s-67 -20 -101 -20c-38 0 -72 7 -102 21s-55.333 33.167 -76 57.5s-36.5 53 -47.5 86s-16.5 68.5 -16.5 106.5c0 38.667 5.5 74.667 16.5 108s26.833 62.166 47.5 86.499s45.667 43.5 75 57.5s62.666 21 99.999 21
c36 0 69.667 -7.5 101 -22.5s59.333 -40.167 84 -75.5v86h87v-404zM468.999 260.001c0 26.667 -3.66504 51.667 -10.998 75s-18 43.5 -32 60.5s-31.5 30.5 -52.5 40.5s-45.167 15 -72.5 15s-51.333 -5 -72 -15s-37.834 -23.667 -51.501 -41s-23.834 -37.5 -30.501 -60.5
s-10 -47.833 -10 -74.5s3.33301 -51.667 10 -75s16.667 -43.666 30 -60.999s30.333 -31 51 -41s44.667 -15 72 -15c28 0 52.5 5 73.5 15s38.5 23.667 52.5 41s24.667 37.666 32 60.999s11 48.333 11 75z" />
    <glyph glyph-name="adieresis" unicode="&#xe4;" horiz-adv-x="654" 
d="M556 116c0 -19.333 2.99805 -33.499 8.99805 -42.499s16.333 -13.5 31 -13.5c12.667 0 23.334 2.66699 32.001 8l11 -66c-9.33301 -3.33301 -19.5 -5.83301 -30.5 -7.5s-20.833 -2.5 -29.5 -2.5c-24.667 0 -47.167 6.66699 -67.5 20s-33.166 36 -38.499 68
c-23.333 -34.667 -51.666 -58.667 -84.999 -72s-67 -20 -101 -20c-38 0 -72 7 -102 21s-55.333 33.167 -76 57.5s-36.5 53 -47.5 86s-16.5 68.5 -16.5 106.5c0 38.667 5.5 74.667 16.5 108s26.833 62.166 47.5 86.499s45.667 43.5 75 57.5s62.666 21 99.999 21
c36 0 69.667 -7.5 101 -22.5s59.333 -40.167 84 -75.5v86h87v-404zM468.998 260.001c0 26.667 -3.66504 51.667 -10.998 75s-18 43.5 -32 60.5s-31.5 30.5 -52.5 40.5s-45.167 15 -72.5 15s-51.333 -5 -72 -15s-37.834 -23.667 -51.501 -41s-23.834 -37.5 -30.501 -60.5
s-10 -47.833 -10 -74.5s3.33301 -51.667 10 -75s16.667 -43.666 30 -60.999s30.333 -31 51 -41s44.667 -15 72 -15c28 0 52.5 5 73.5 15s38.5 23.667 52.5 41s24.667 37.666 32 60.999s11 48.333 11 75zM157 597.001v78h76v-78h-76zM367 597.001v78h75v-78h-75z" />
    <glyph glyph-name="aring" unicode="&#xe5;" horiz-adv-x="654" 
d="M408 679c0 -14 -2.66699 -27.167 -8 -39.5s-12.833 -23.166 -22.5 -32.499s-21 -16.666 -34 -21.999s-26.833 -8 -41.5 -8c-15.333 0 -29.333 2.66699 -42 8s-23.834 12.666 -33.501 21.999s-17.167 20.166 -22.5 32.499s-8 25.5 -8 39.5s2.66699 27.167 8 39.5
s12.833 23.333 22.5 33s20.834 17.167 33.501 22.5s26.667 8 42 8c14.667 0 28.5 -2.66699 41.5 -8s24.333 -12.833 34 -22.5s17.167 -20.667 22.5 -33s8 -25.5 8 -39.5zM358 679c0 15.333 -5.5 28.666 -16.5 39.999s-24.167 17 -39.5 17s-28.666 -5.66699 -39.999 -17
s-17 -24.666 -17 -39.999c0 -16 5.66699 -29.5 17 -40.5s24.666 -16.5 39.999 -16.5s28.5 5.5 39.5 16.5s16.5 24.5 16.5 40.5zM556 116c0 -19.333 2.99805 -33.499 8.99805 -42.499s16.333 -13.5 31 -13.5c12.667 0 23.334 2.66699 32.001 8l11 -66
c-9.33301 -3.33301 -19.5 -5.83301 -30.5 -7.5s-20.833 -2.5 -29.5 -2.5c-24.667 0 -47.167 6.66699 -67.5 20s-33.166 36 -38.499 68c-23.333 -34.667 -51.666 -58.667 -84.999 -72s-67 -20 -101 -20c-38 0 -72 7 -102 21s-55.333 33.167 -76 57.5s-36.5 53 -47.5 86
s-16.5 68.5 -16.5 106.5c0 38.667 5.5 74.667 16.5 108s26.833 62.166 47.5 86.499s45.667 43.5 75 57.5s62.666 21 99.999 21c36 0 69.667 -7.5 101 -22.5s59.333 -40.167 84 -75.5v86h87v-404zM468.998 260.001c0 26.667 -3.66504 51.667 -10.998 75s-18 43.5 -32 60.5
s-31.5 30.5 -52.5 40.5s-45.167 15 -72.5 15s-51.333 -5 -72 -15s-37.834 -23.667 -51.501 -41s-23.834 -37.5 -30.501 -60.5s-10 -47.833 -10 -74.5s3.33301 -51.667 10 -75s16.667 -43.666 30 -60.999s30.333 -31 51 -41s44.667 -15 72 -15c28 0 52.5 5 73.5 15
s38.5 23.667 52.5 41s24.667 37.666 32 60.999s11 48.333 11 75z" />
    <glyph glyph-name="ae" unicode="&#xe6;" horiz-adv-x="1005" 
d="M468 260c0 26.667 -3.66797 51.667 -11.001 75s-18.166 43.5 -32.499 60.5s-32 30.5 -53 40.5s-45.167 15 -72.5 15s-51.166 -5 -71.499 -15s-37.333 -23.667 -51 -41s-23.834 -37.5 -30.501 -60.5s-10 -47.833 -10 -74.5s3.33301 -51.667 10 -75
s16.667 -43.666 30 -60.999s30.333 -31 51 -41s44.667 -15 72 -15c28 0 52.5 5 73.5 15s38.5 23.667 52.5 41s24.667 37.666 32 60.999s11 48.333 11 75zM725.999 532c36.667 0 69.8369 -6.66699 99.5039 -20s54.834 -31.666 75.501 -54.999s36.667 -50.833 48 -82.5
s17 -65.834 17 -102.501c0 -7.33301 -0.166992 -13.666 -0.5 -18.999s-0.833008 -10 -1.5 -14h-408c2.66699 -54 19.667 -96 51 -126s72.333 -45 123 -45c61.333 0 112.666 22.667 153.999 68l59 -57c-27.333 -28.667 -58.333 -51 -93 -67s-75.334 -24 -122.001 -24
c-53.333 0 -98.833 11 -136.5 33s-66.5 52.667 -86.5 92c-19.333 -38 -47.5 -68.333 -84.5 -91s-79.5 -34 -127.5 -34c-38 0 -72.333 6.83301 -103 20.5s-56.834 32.667 -78.501 57s-38.334 53.166 -50.001 86.499s-17.5 69.666 -17.5 108.999c0 38 5.5 73.333 16.5 106
s26.833 61.334 47.5 86.001s45.667 44 75 58s62.666 21 99.999 21c36 0 69.667 -7.5 101 -22.5s59.333 -40.167 84 -75.5v86h87v-76c19.333 25.333 42.833 46.333 70.5 63s61.167 25 100.5 25zM876.002 305c-4.66699 50 -22 87.833 -52 113.5s-65.667 38.5 -107 38.5
c-46 0 -83.167 -14.167 -111.5 -42.5s-44.5 -64.833 -48.5 -109.5h319z" />
    <glyph glyph-name="ccedilla" unicode="&#xe7;" horiz-adv-x="540" 
d="M187 -84c7.33301 -7.33301 16.666 -13.832 27.999 -19.499s23.333 -8.5 36 -8.5c13.333 0 24.833 3.83301 34.5 11.5s14.5 18.167 14.5 31.5c0 21.333 -11.667 41 -35 59c-34 4 -64.5 13.5 -91.5 28.5s-50 34.333 -69 58s-33.667 51.167 -44 82.5s-15.5 65 -15.5 101
c0 38.667 5.83301 74.667 17.5 108s28.5 62.166 50.5 86.499s48.5 43.333 79.5 57s65.833 20.5 104.5 20.5c46 0 86.333 -9.83301 121 -29.5s63.334 -45.834 86.001 -78.501l-65 -52c-15.333 25.333 -34.5 45.166 -57.5 59.499s-50.167 21.5 -81.5 21.5
c-25.333 0 -48 -4.83301 -68 -14.5s-37 -23.167 -51 -40.5s-24.833 -37.833 -32.5 -61.5s-11.5 -49.167 -11.5 -76.5c0 -28 3.83301 -53.667 11.5 -77s18.5 -43.666 32.5 -60.999s31 -30.833 51 -40.5s42.333 -14.5 67 -14.5c33.333 0 61.333 7.33301 84 22
s41.667 33.334 57 56.001l67 -48c-20 -28.667 -45.167 -52.667 -75.5 -72s-65.833 -31 -106.5 -35c12 -10 21.5 -21.333 28.5 -34s10.5 -26.334 10.5 -41.001c0 -25.333 -9.83301 -45.5 -29.5 -60.5s-43.5 -22.5 -71.5 -22.5c-16 0 -30.833 2.33301 -44.5 7
s-24.167 10.334 -31.5 17.001v60z" />
    <glyph glyph-name="egrave" unicode="&#xe8;" horiz-adv-x="586" 
d="M547 273c0 -8 -0.166992 -14.834 -0.5 -20.501s-0.833008 -10.167 -1.5 -13.5h-408c2.66699 -54 19.667 -96 51 -126s72.666 -45 123.999 -45c60.667 0 112 22.667 154 68l58 -57c-26.667 -28.667 -57.5 -51 -92.5 -67s-75.5 -24 -121.5 -24
c-42 0 -79.5 6.83301 -112.5 20.5s-60.833 32.5 -83.5 56.5s-40 52.5 -52 85.5s-18 68.833 -18 107.5c0 38 5.83301 73.667 17.5 107s28.5 62.333 50.5 87s48.667 44.167 80 58.5s67 21.5 107 21.5c38 0 72.333 -6.66699 103 -20s56.834 -31.666 78.501 -54.999
s38.167 -50.833 49.5 -82.5s17 -65.5 17 -101.5zM457 305.999c-4.66699 50 -21.999 87.667 -51.999 113s-65.667 38 -107 38c-22.667 0 -43.334 -3.66699 -62.001 -11s-35 -17.833 -49 -31.5s-25 -29.667 -33 -48s-13 -38.5 -15 -60.5h318zM318.001 577.999
c-14 8 -27.998 17.5 -41.998 28.5s-27.333 22.5 -40 34.5s-23.834 24.333 -33.501 37s-16.834 24.667 -21.501 36l83 13c4.66699 -8.66699 10.5 -18.167 17.5 -28.5l22 -31.5c7.66699 -10.667 15.667 -21.167 24 -31.5s16.5 -19.833 24.5 -28.5z" />
    <glyph glyph-name="eacute" unicode="&#xe9;" horiz-adv-x="586" 
d="M547 273c0 -8 -0.166992 -14.834 -0.5 -20.501s-0.833008 -10.167 -1.5 -13.5h-408c2.66699 -54 19.667 -96 51 -126s72.666 -45 123.999 -45c60.667 0 112 22.667 154 68l58 -57c-26.667 -28.667 -57.5 -51 -92.5 -67s-75.5 -24 -121.5 -24
c-42 0 -79.5 6.83301 -112.5 20.5s-60.833 32.5 -83.5 56.5s-40 52.5 -52 85.5s-18 68.833 -18 107.5c0 38 5.83301 73.667 17.5 107s28.5 62.333 50.5 87s48.667 44.167 80 58.5s67 21.5 107 21.5c38 0 72.333 -6.66699 103 -20s56.834 -31.666 78.501 -54.999
s38.167 -50.833 49.5 -82.5s17 -65.5 17 -101.5zM457 305.999c-4.66699 50 -21.999 87.667 -51.999 113s-65.667 38 -107 38c-22.667 0 -43.334 -3.66699 -62.001 -11s-35 -17.833 -49 -31.5s-25 -29.667 -33 -48s-13 -38.5 -15 -60.5h318zM245.001 606.999
c8 8.66699 16.166 18.167 24.499 28.5l24.5 31.5c8 10.667 15.5 21.167 22.5 31.5s12.833 19.833 17.5 28.5l83 -13c-5.33301 -11.333 -12.666 -23.333 -21.999 -36s-20.333 -25 -33 -37s-26 -23.5 -40 -34.5s-28 -20.5 -42 -28.5z" />
    <glyph glyph-name="ecircumflex" unicode="&#xea;" horiz-adv-x="586" 
d="M547 273c0 -8 -0.166992 -14.834 -0.5 -20.501s-0.833008 -10.167 -1.5 -13.5h-408c2.66699 -54 19.667 -96 51 -126s72.666 -45 123.999 -45c60.667 0 112 22.667 154 68l58 -57c-26.667 -28.667 -57.5 -51 -92.5 -67s-75.5 -24 -121.5 -24
c-42 0 -79.5 6.83301 -112.5 20.5s-60.833 32.5 -83.5 56.5s-40 52.5 -52 85.5s-18 68.833 -18 107.5c0 38 5.83301 73.667 17.5 107s28.5 62.333 50.5 87s48.667 44.167 80 58.5s67 21.5 107 21.5c38 0 72.333 -6.66699 103 -20s56.834 -31.666 78.501 -54.999
s38.167 -50.833 49.5 -82.5s17 -65.5 17 -101.5zM457 305.999c-4.66699 50 -21.999 87.667 -51.999 113s-65.667 38 -107 38c-22.667 0 -43.334 -3.66699 -62.001 -11s-35 -17.833 -49 -31.5s-25 -29.667 -33 -48s-13 -38.5 -15 -60.5h318zM329.001 724.999l59 -50.499
c20 -16.333 42.667 -33.166 68 -50.499l-24 -42c-26 8.66699 -51.167 20.167 -75.5 34.5s-44.833 29.166 -61.5 44.499c-16.667 -15.333 -37.167 -30.166 -61.5 -44.499s-49.166 -25.833 -74.499 -34.5l-25 42c25.333 17.333 48.166 34.166 68.499 50.499
s39.833 33.166 58.5 50.499h68z" />
    <glyph glyph-name="edieresis" unicode="&#xeb;" horiz-adv-x="586" 
d="M547 273c0 -8 -0.166992 -14.834 -0.5 -20.501s-0.833008 -10.167 -1.5 -13.5h-408c2.66699 -54 19.667 -96 51 -126s72.666 -45 123.999 -45c60.667 0 112 22.667 154 68l58 -57c-26.667 -28.667 -57.5 -51 -92.5 -67s-75.5 -24 -121.5 -24
c-42 0 -79.5 6.83301 -112.5 20.5s-60.833 32.5 -83.5 56.5s-40 52.5 -52 85.5s-18 68.833 -18 107.5c0 38 5.83301 73.667 17.5 107s28.5 62.333 50.5 87s48.667 44.167 80 58.5s67 21.5 107 21.5c38 0 72.333 -6.66699 103 -20s56.834 -31.666 78.501 -54.999
s38.167 -50.833 49.5 -82.5s17 -65.5 17 -101.5zM457 305.999c-4.66699 50 -21.999 87.667 -51.999 113s-65.667 38 -107 38c-22.667 0 -43.334 -3.66699 -62.001 -11s-35 -17.833 -49 -31.5s-25 -29.667 -33 -48s-13 -38.5 -15 -60.5h318zM154.001 596.999v78h76v-78h-76z
M364.001 596.999v78h75v-78h-75z" />
    <glyph glyph-name="igrave" unicode="&#xec;" horiz-adv-x="243" 
d="M78 0v520h87v-520h-87zM140 578c-14 8 -27.998 17.5 -41.998 28.5s-27.333 22.5 -40 34.5s-23.834 24.333 -33.501 37s-16.834 24.667 -21.501 36l83 13c4.66699 -8.66699 10.5 -18.167 17.5 -28.5l22 -31.5c7.66699 -10.667 15.667 -21.167 24 -31.5
s16.5 -19.833 24.5 -28.5z" />
    <glyph glyph-name="iacute" unicode="&#xed;" horiz-adv-x="243" 
d="M71 607c8 8.66699 16.166 18.167 24.499 28.5l24.5 31.5c8 10.667 15.5 21.167 22.5 31.5s12.833 19.833 17.5 28.5l83 -13c-5.33301 -11.333 -12.666 -23.333 -21.999 -36s-20.333 -25 -33 -37s-26 -23.5 -40 -34.5s-28 -20.5 -42 -28.5zM77.999 0v520h87v-520h-87z" />
    <glyph glyph-name="icircumflex" unicode="&#xee;" horiz-adv-x="243" 
d="M78 0v520h87v-520h-87zM156 725l59 -50.499c20 -16.333 42.667 -33.166 68 -50.499l-24 -42c-26 8.66699 -51.167 20.167 -75.5 34.5s-44.833 29.166 -61.5 44.499c-16.667 -15.333 -37.167 -30.166 -61.5 -44.499s-49.166 -25.833 -74.499 -34.5l-25 42
c25.333 17.333 48.166 34.166 68.499 50.499s39.833 33.166 58.5 50.499h68z" />
    <glyph glyph-name="idieresis" unicode="&#xef;" horiz-adv-x="243" 
d="M-3 597v78h76v-78h-76zM170 597v78h76v-78h-76zM78 0v520h87v-520h-87z" />
    <glyph glyph-name="eth" unicode="&#xf0;" horiz-adv-x="616" 
d="M282 494c29.333 0 57.8301 -5 85.4971 -15s51.834 -25.667 72.501 -47c-12.667 27.333 -28.667 53.333 -48 78s-41 48.334 -65 71.001l-126 -60l-18 42l102 49c-26.667 20.667 -55.334 38.667 -86.001 54l59 59l57 -35c18.667 -12 36.667 -25.667 54 -41l120 56l19 -41
l-101 -48c44.667 -44 81.334 -94.667 110.001 -152s43 -121.333 43 -192c0 -38 -5 -75.333 -15 -112s-28.333 -69 -55 -97c-24 -24.667 -52 -43.334 -84 -56.001s-66.667 -19 -104 -19c-39.333 0 -74.666 6.5 -105.999 19.5s-58.166 30.667 -80.499 53s-39.5 49 -51.5 80
s-18 64.5 -18 100.5c0 36.667 5.66699 70.5 17 101.5s27.5 57.667 48.5 80s45.833 39.833 74.5 52.5s60.667 19 96 19zM471.997 241c0 24 -3.83691 46.666 -11.5039 67.999s-18.667 40 -33 56s-32.166 28.5 -53.499 37.5s-45.666 13.5 -72.999 13.5
s-51.166 -4.66699 -71.499 -14s-37.333 -22 -51 -38s-23.834 -34.667 -30.501 -56s-10 -43.666 -10 -66.999c0 -24 3.33301 -46.5 10 -67.5s16.834 -39.333 30.501 -55s30.834 -28.167 51.501 -37.5s44.667 -14 72 -14c28 0 52.667 4.5 74 13.5s39 21.5 53 37.5
s24.667 34.5 32 55.5s11 43.5 11 67.5z" />
    <glyph glyph-name="ntilde" unicode="&#xf1;" horiz-adv-x="597" 
d="M78 0l-0.000976562 520h87v-86c21.333 32 46.833 56.333 76.5 73s63.5 25 101.5 25c56.667 0 101.167 -17.167 133.5 -51.5s48.5 -82.833 48.5 -145.5v-335h-87v315c0 15.333 -1.5 31 -4.5 47s-8.66699 30.5 -17 43.5s-20.166 23.667 -35.499 32s-35 12.5 -59 12.5
c-22 0 -42.667 -3.83301 -62 -11.5s-36 -18.667 -50 -33s-25 -31.5 -33 -51.5s-12 -42 -12 -66v-288h-87zM479.999 679c-9.33301 -25.333 -22.499 -45.5 -39.499 -60.5s-35.833 -22.5 -56.5 -22.5c-11.333 0 -22.666 2 -33.999 6s-22.5 8.33301 -33.5 13l-32 13
c-10.333 4 -20.166 6 -29.499 6c-11.333 0 -22.333 -2.83301 -33 -8.5s-21.667 -15.167 -33 -28.5l-35 23c9.33301 25.333 22.5 45.5 39.5 60.5s35.833 22.5 56.5 22.5c11.333 0 22.666 -2 33.999 -6s22.5 -8.33301 33.5 -13l32 -13c10.333 -4 20.5 -6 30.5 -6
c11.333 0 22.166 2.83301 32.499 8.5s21.166 15.167 32.499 28.5z" />
    <glyph glyph-name="ograve" unicode="&#xf2;" horiz-adv-x="600" 
d="M330 578c-14 8 -27.998 17.5 -41.998 28.5s-27.333 22.5 -40 34.5s-23.834 24.333 -33.501 37s-16.834 24.667 -21.501 36l83 13c4.66699 -8.66699 10.5 -18.167 17.5 -28.5l22 -31.5c7.66699 -10.667 15.667 -21.167 24 -31.5s16.5 -19.833 24.5 -28.5zM556.002 259
c0 -39.333 -6 -75.5 -18 -108.5s-29 -61.5 -51 -85.5s-48.833 -42.833 -80.5 -56.5s-67.167 -20.5 -106.5 -20.5s-74.833 6.83301 -106.5 20.5s-58.5 32.5 -80.5 56.5s-39 52.5 -51 85.5s-18 69.167 -18 108.5s6 75.666 18 108.999s29 62.166 51 86.499
s48.833 43.333 80.5 57s67.167 20.5 106.5 20.5s74.833 -6.83301 106.5 -20.5s58.5 -32.667 80.5 -57s39 -53.166 51 -86.499s18 -69.666 18 -108.999zM463.002 259c0 27.333 -3.66699 52.833 -11 76.5s-17.833 44.167 -31.5 61.5s-30.667 31 -51 41s-43.5 15 -69.5 15
s-49.167 -5 -69.5 -15s-37.5 -23.667 -51.5 -41s-24.667 -37.833 -32 -61.5s-11 -49.167 -11 -76.5s3.66699 -52.666 11 -75.999s18 -43.666 32 -60.999s31.167 -31 51.5 -41s43.5 -15 69.5 -15s49.167 5 69.5 15s37.333 23.667 51 41s24.167 37.666 31.5 60.999
s11 48.666 11 75.999z" />
    <glyph glyph-name="oacute" unicode="&#xf3;" horiz-adv-x="600" 
d="M224 607c8 8.66699 16.166 18.167 24.499 28.5l24.5 31.5c8 10.667 15.5 21.167 22.5 31.5s12.833 19.833 17.5 28.5l83 -13c-5.33301 -11.333 -12.666 -23.333 -21.999 -36s-20.333 -25 -33 -37s-26 -23.5 -40 -34.5s-28 -20.5 -42 -28.5zM555.999 259
c0 -39.333 -6 -75.5 -18 -108.5s-29 -61.5 -51 -85.5s-48.833 -42.833 -80.5 -56.5s-67.167 -20.5 -106.5 -20.5s-74.833 6.83301 -106.5 20.5s-58.5 32.5 -80.5 56.5s-39 52.5 -51 85.5s-18 69.167 -18 108.5s6 75.666 18 108.999s29 62.166 51 86.499
s48.833 43.333 80.5 57s67.167 20.5 106.5 20.5s74.833 -6.83301 106.5 -20.5s58.5 -32.667 80.5 -57s39 -53.166 51 -86.499s18 -69.666 18 -108.999zM462.999 259c0 27.333 -3.66699 52.833 -11 76.5s-17.833 44.167 -31.5 61.5s-30.667 31 -51 41s-43.5 15 -69.5 15
s-49.167 -5 -69.5 -15s-37.5 -23.667 -51.5 -41s-24.667 -37.833 -32 -61.5s-11 -49.167 -11 -76.5s3.66699 -52.666 11 -75.999s18 -43.666 32 -60.999s31.167 -31 51.5 -41s43.5 -15 69.5 -15s49.167 5 69.5 15s37.333 23.667 51 41s24.167 37.666 31.5 60.999
s11 48.666 11 75.999z" />
    <glyph glyph-name="ocircumflex" unicode="&#xf4;" horiz-adv-x="600" 
d="M334 725l59 -50.499c20 -16.333 42.667 -33.166 68 -50.499l-24 -42c-26 8.66699 -51.167 20.167 -75.5 34.5s-44.833 29.166 -61.5 44.499c-16.667 -15.333 -37.167 -30.166 -61.5 -44.499s-49.166 -25.833 -74.499 -34.5l-25 42
c25.333 17.333 48.166 34.166 68.499 50.499s39.833 33.166 58.5 50.499h68zM556 259.001c0 -39.333 -6 -75.5 -18 -108.5s-29 -61.5 -51 -85.5s-48.833 -42.833 -80.5 -56.5s-67.167 -20.5 -106.5 -20.5s-74.833 6.83301 -106.5 20.5s-58.5 32.5 -80.5 56.5
s-39 52.5 -51 85.5s-18 69.167 -18 108.5s6 75.666 18 108.999s29 62.166 51 86.499s48.833 43.333 80.5 57s67.167 20.5 106.5 20.5s74.833 -6.83301 106.5 -20.5s58.5 -32.667 80.5 -57s39 -53.166 51 -86.499s18 -69.666 18 -108.999zM463 259.001
c0 27.333 -3.66699 52.833 -11 76.5s-17.833 44.167 -31.5 61.5s-30.667 31 -51 41s-43.5 15 -69.5 15s-49.167 -5 -69.5 -15s-37.5 -23.667 -51.5 -41s-24.667 -37.833 -32 -61.5s-11 -49.167 -11 -76.5s3.66699 -52.666 11 -75.999s18 -43.666 32 -60.999
s31.167 -31 51.5 -41s43.5 -15 69.5 -15s49.167 5 69.5 15s37.333 23.667 51 41s24.167 37.666 31.5 60.999s11 48.666 11 75.999z" />
    <glyph glyph-name="otilde" unicode="&#xf5;" horiz-adv-x="600" 
d="M556 259c0 -39.333 -6 -75.5 -18 -108.5s-29 -61.5 -51 -85.5s-48.833 -42.833 -80.5 -56.5s-67.167 -20.5 -106.5 -20.5s-74.833 6.83301 -106.5 20.5s-58.5 32.5 -80.5 56.5s-39 52.5 -51 85.5s-18 69.167 -18 108.5s6 75.666 18 108.999s29 62.166 51 86.499
s48.833 43.333 80.5 57s67.167 20.5 106.5 20.5s74.833 -6.83301 106.5 -20.5s58.5 -32.667 80.5 -57s39 -53.166 51 -86.499s18 -69.666 18 -108.999zM463 259c0 27.333 -3.66699 52.833 -11 76.5s-17.833 44.167 -31.5 61.5s-30.667 31 -51 41s-43.5 15 -69.5 15
s-49.167 -5 -69.5 -15s-37.5 -23.667 -51.5 -41s-24.667 -37.833 -32 -61.5s-11 -49.167 -11 -76.5s3.66699 -52.666 11 -75.999s18 -43.666 32 -60.999s31.167 -31 51.5 -41s43.5 -15 69.5 -15s49.167 5 69.5 15s37.333 23.667 51 41s24.167 37.666 31.5 60.999
s11 48.666 11 75.999zM463 679c-9.33301 -25.333 -22.499 -45.5 -39.499 -60.5s-35.833 -22.5 -56.5 -22.5c-11.333 0 -22.666 2 -33.999 6s-22.5 8.33301 -33.5 13l-32 13c-10.333 4 -20.166 6 -29.499 6c-11.333 0 -22.333 -2.83301 -33 -8.5s-21.667 -15.167 -33 -28.5
l-35 23c9.33301 25.333 22.5 45.5 39.5 60.5s35.833 22.5 56.5 22.5c11.333 0 22.666 -2 33.999 -6s22.5 -8.33301 33.5 -13l32 -13c10.333 -4 20.5 -6 30.5 -6c11.333 0 22.166 2.83301 32.499 8.5s21.166 15.167 32.499 28.5z" />
    <glyph glyph-name="odieresis" unicode="&#xf6;" horiz-adv-x="600" 
d="M556 259c0 -39.333 -6 -75.5 -18 -108.5s-29 -61.5 -51 -85.5s-48.833 -42.833 -80.5 -56.5s-67.167 -20.5 -106.5 -20.5s-74.833 6.83301 -106.5 20.5s-58.5 32.5 -80.5 56.5s-39 52.5 -51 85.5s-18 69.167 -18 108.5s6 75.666 18 108.999s29 62.166 51 86.499
s48.833 43.333 80.5 57s67.167 20.5 106.5 20.5s74.833 -6.83301 106.5 -20.5s58.5 -32.667 80.5 -57s39 -53.166 51 -86.499s18 -69.666 18 -108.999zM463 259c0 27.333 -3.66699 52.833 -11 76.5s-17.833 44.167 -31.5 61.5s-30.667 31 -51 41s-43.5 15 -69.5 15
s-49.167 -5 -69.5 -15s-37.5 -23.667 -51.5 -41s-24.667 -37.833 -32 -61.5s-11 -49.167 -11 -76.5s3.66699 -52.666 11 -75.999s18 -43.666 32 -60.999s31.167 -31 51.5 -41s43.5 -15 69.5 -15s49.167 5 69.5 15s37.333 23.667 51 41s24.167 37.666 31.5 60.999
s11 48.666 11 75.999zM158 597v78h76v-78h-76zM368 597v78h75v-78h-75z" />
    <glyph glyph-name="divide" unicode="&#xf7;" 
d="M352 491c0 -17.333 -6 -32.166 -18 -44.499s-26.667 -18.5 -44 -18.5s-32 6.16699 -44 18.5s-18 27.166 -18 44.499c0 16.667 6 31.167 18 43.5s26.667 18.5 44 18.5s32 -6.16699 44 -18.5s18 -26.833 18 -43.5zM52 266v76h476v-76h-476zM352 117
c0 -16.667 -6 -31.167 -18 -43.5s-26.667 -18.5 -44 -18.5s-32 6.16699 -44 18.5s-18 26.833 -18 43.5s6 31.334 18 44.001s26.667 19 44 19s32 -6.33301 44 -19s18 -27.334 18 -44.001z" />
    <glyph glyph-name="oslash" unicode="&#xf8;" horiz-adv-x="600" 
d="M99 20l24 34.002c-25.333 24.667 -44.833 54.5 -58.5 89.5s-20.5 73.5 -20.5 115.5c0 39.333 6 75.666 18 108.999s29 62.166 51 86.499s48.833 43.333 80.5 57s67.167 20.5 106.5 20.5c25.333 0 49 -3 71 -9s42.667 -14.667 62 -26l23 33l45 -31l-24 -34
c25.333 -24.667 44.833 -54.5 58.5 -89.5s20.5 -73.833 20.5 -116.5c0 -39.333 -6 -75.5 -18 -108.5s-29 -61.5 -51 -85.5s-48.833 -42.833 -80.5 -56.5s-67.167 -20.5 -106.5 -20.5c-26 0 -50 2.83301 -72 8.5s-42.667 14.167 -62 25.5l-22 -33zM136 259.002
c0 -25.333 3.16699 -49.166 9.5 -71.499s15.833 -41.833 28.5 -58.5l211 300c-24 16.667 -52.333 25 -85 25c-26 0 -49.167 -5 -69.5 -15s-37.5 -23.833 -51.5 -41.5s-24.667 -38.334 -32 -62.001s-11 -49.167 -11 -76.5zM463 259.002c0 25.333 -3.16699 49.333 -9.5 72
s-15.833 42.334 -28.5 59.001l-211 -300c24 -16.667 52.667 -25 86 -25c26 0 49.167 5 69.5 15s37.333 23.833 51 41.5s24.167 38.167 31.5 61.5s11 48.666 11 75.999z" />
    <glyph glyph-name="ugrave" unicode="&#xf9;" horiz-adv-x="597" 
d="M519 520v-520h-87v85c-22 -31.333 -47.667 -55.333 -77 -72s-63 -25 -101 -25c-56.667 0 -101.167 17.167 -133.5 51.5s-48.5 82.5 -48.5 144.5v336h87v-316c0 -15.333 1.5 -31 4.5 -47s8.66699 -30.5 17 -43.5s20 -23.667 35 -32s34.5 -12.5 58.5 -12.5
c22.667 0 43.667 3.83301 63 11.5s36 18.667 50 33s25 31.5 33 51.5s12 42 12 66v289h87zM307 578c-14 8 -27.998 17.5 -41.998 28.5s-27.333 22.5 -40 34.5s-23.834 24.333 -33.501 37s-16.834 24.667 -21.501 36l83 13c4.66699 -8.66699 10.5 -18.167 17.5 -28.5l22 -31.5
c7.66699 -10.667 15.667 -21.167 24 -31.5s16.5 -19.833 24.5 -28.5z" />
    <glyph glyph-name="uacute" unicode="&#xfa;" horiz-adv-x="597" 
d="M519 520v-520h-87v85c-22 -31.333 -47.667 -55.333 -77 -72s-63 -25 -101 -25c-56.667 0 -101.167 17.167 -133.5 51.5s-48.5 82.5 -48.5 144.5v336h87v-316c0 -15.333 1.5 -31 4.5 -47s8.66699 -30.5 17 -43.5s20 -23.667 35 -32s34.5 -12.5 58.5 -12.5
c22.667 0 43.667 3.83301 63 11.5s36 18.667 50 33s25 31.5 33 51.5s12 42 12 66v289h87zM258 607c8 8.66699 16.166 18.167 24.499 28.5l24.5 31.5c8 10.667 15.5 21.167 22.5 31.5s12.833 19.833 17.5 28.5l83 -13c-5.33301 -11.333 -12.666 -23.333 -21.999 -36
s-20.333 -25 -33 -37s-26 -23.5 -40 -34.5s-28 -20.5 -42 -28.5z" />
    <glyph glyph-name="ucircumflex" unicode="&#xfb;" horiz-adv-x="597" 
d="M519 520v-520h-87v85c-22 -31.333 -47.667 -55.333 -77 -72s-63 -25 -101 -25c-56.667 0 -101.167 17.167 -133.5 51.5s-48.5 82.5 -48.5 144.5v336h87v-316c0 -15.333 1.5 -31 4.5 -47s8.66699 -30.5 17 -43.5s20 -23.667 35 -32s34.5 -12.5 58.5 -12.5
c22.667 0 43.667 3.83301 63 11.5s36 18.667 50 33s25 31.5 33 51.5s12 42 12 66v289h87zM329 725l59 -50.499c20 -16.333 42.667 -33.166 68 -50.499l-24 -42c-26 8.66699 -51.167 20.167 -75.5 34.5s-44.833 29.166 -61.5 44.499
c-16.667 -15.333 -37.167 -30.166 -61.5 -44.499s-49.166 -25.833 -74.499 -34.5l-25 42c25.333 17.333 48.166 34.166 68.499 50.499s39.833 33.166 58.5 50.499h68z" />
    <glyph glyph-name="udieresis" unicode="&#xfc;" horiz-adv-x="597" 
d="M519 520v-520h-87v85c-22 -31.333 -47.667 -55.333 -77 -72s-63 -25 -101 -25c-56.667 0 -101.167 17.167 -133.5 51.5s-48.5 82.5 -48.5 144.5v336h87v-316c0 -15.333 1.5 -31 4.5 -47s8.66699 -30.5 17 -43.5s20 -23.667 35 -32s34.5 -12.5 58.5 -12.5
c22.667 0 43.667 3.83301 63 11.5s36 18.667 50 33s25 31.5 33 51.5s12 42 12 66v289h87zM152 597v78h76v-78h-76zM362 597v78h75v-78h-75z" />
    <glyph glyph-name="yacute" unicode="&#xfd;" horiz-adv-x="598" 
d="M252 607c8 8.66699 16.166 18.167 24.499 28.5l24.5 31.5c8 10.667 15.5 21.167 22.5 31.5s12.833 19.833 17.5 28.5l83 -13c-5.33301 -11.333 -12.666 -23.333 -21.999 -36s-20.333 -25 -33 -37s-26 -23.5 -40 -34.5s-28 -20.5 -42 -28.5zM432.999 122
c-22 -31.333 -47.665 -55.333 -76.998 -72s-63 -25 -101 -25c-56.667 0 -101.167 17.167 -133.5 51.5s-48.5 82.833 -48.5 145.5v298h87v-278c0 -15.333 1.5 -31 4.5 -47s8.66699 -30.5 17 -43.5s20 -23.667 35 -32s34.5 -12.5 58.5 -12.5c22.667 0 43.667 3.83301 63 11.5
s36 18.667 50 33s25 31.5 33 51.5s12 42 12 66v251h87v-458c0 -35.333 -3.83301 -67 -11.5 -95s-21.5 -53 -41.5 -75c-21.333 -24 -48.833 -42.667 -82.5 -56s-73.5 -20 -119.5 -20c-41.333 0 -78.333 5.5 -111 16.5s-62.334 26.167 -89.001 45.5l43 69
c24 -19.333 49.667 -32.833 77 -40.5s54.666 -11.5 81.999 -11.5c22 0 43.167 2.66699 63.5 8s38 14 53 26s27 27.5 36 46.5s13.5 42.167 13.5 69.5v77z" />
    <glyph glyph-name="thorn" unicode="&#xfe;" horiz-adv-x="633" 
d="M165 714v-280.001c24.667 36 52.667 61.333 84 76s64.666 22 99.999 22c37.333 0 70.833 -7 100.5 -21s54.834 -33.167 75.501 -57.5s36.5 -53.166 47.5 -86.499s16.5 -69 16.5 -107c0 -38.667 -5.5 -74.5 -16.5 -107.5s-26.833 -61.667 -47.5 -86
s-45.834 -43.5 -75.501 -57.5s-63.167 -21 -100.5 -21c-35.333 0 -68.666 7.33301 -99.999 22s-59.333 39.667 -84 75v-259h-87v888h87zM165 258.999c0 -26.667 3.66797 -51.5 11.001 -74.5s18.166 -43.167 32.499 -60.5s32 -31 53 -41s45.167 -15 72.5 -15
s51.166 5 71.499 15s37.166 23.667 50.499 41s23.333 37.5 30 60.5s10 47.833 10 74.5s-3.33301 51.667 -10 75s-16.667 43.666 -30 60.999s-30.166 31 -50.499 41s-44.166 15 -71.499 15c-28 0 -52.5 -5 -73.5 -15s-38.667 -23.667 -53 -41s-25 -37.666 -32 -60.999
s-10.5 -48.333 -10.5 -75z" />
    <glyph glyph-name="ydieresis" unicode="&#xff;" horiz-adv-x="598" 
d="M433 122c-22 -31.333 -47.665 -55.333 -76.998 -72s-63 -25 -101 -25c-56.667 0 -101.167 17.167 -133.5 51.5s-48.5 82.833 -48.5 145.5v298h87v-278c0 -15.333 1.5 -31 4.5 -47s8.66699 -30.5 17 -43.5s20 -23.667 35 -32s34.5 -12.5 58.5 -12.5
c22.667 0 43.667 3.83301 63 11.5s36 18.667 50 33s25 31.5 33 51.5s12 42 12 66v251h87v-458c0 -35.333 -3.83301 -67 -11.5 -95s-21.5 -53 -41.5 -75c-21.333 -24 -48.833 -42.667 -82.5 -56s-73.5 -20 -119.5 -20c-41.333 0 -78.333 5.5 -111 16.5
s-62.334 26.167 -89.001 45.5l43 69c24 -19.333 49.667 -32.833 77 -40.5s54.666 -11.5 81.999 -11.5c22 0 43.167 2.66699 63.5 8s38 14 53 26s27 27.5 36 46.5s13.5 42.167 13.5 69.5v77zM152.002 597v78h76v-78h-76zM362.002 597v78h75v-78h-75z" />
    <glyph glyph-name="Amacron" unicode="&#x100;" horiz-adv-x="667" 
d="M552 0l-71 185h-300l-72 -185h-98l271 666h103l272 -666h-105zM333 575l-120 -308h237zM183 734v58h300v-58h-300z" />
    <glyph glyph-name="amacron" unicode="&#x101;" horiz-adv-x="654" 
d="M556 116c0 -19.333 2.99805 -33.499 8.99805 -42.499s16.333 -13.5 31 -13.5c12.667 0 23.334 2.66699 32.001 8l11 -66c-9.33301 -3.33301 -19.5 -5.83301 -30.5 -7.5s-20.833 -2.5 -29.5 -2.5c-24.667 0 -47.167 6.66699 -67.5 20s-33.166 36 -38.499 68
c-23.333 -34.667 -51.666 -58.667 -84.999 -72s-67 -20 -101 -20c-38 0 -72 7 -102 21s-55.333 33.167 -76 57.5s-36.5 53 -47.5 86s-16.5 68.5 -16.5 106.5c0 38.667 5.5 74.667 16.5 108s26.833 62.166 47.5 86.499s45.667 43.5 75 57.5s62.666 21 99.999 21
c36 0 69.667 -7.5 101 -22.5s59.333 -40.167 84 -75.5v86h87v-404zM468.998 260.001c0 26.667 -3.66504 51.667 -10.998 75s-18 43.5 -32 60.5s-31.5 30.5 -52.5 40.5s-45.167 15 -72.5 15s-51.333 -5 -72 -15s-37.834 -23.667 -51.501 -41s-23.834 -37.5 -30.501 -60.5
s-10 -47.833 -10 -74.5s3.33301 -51.667 10 -75s16.667 -43.666 30 -60.999s30.333 -31 51 -41s44.667 -15 72 -15c28 0 52.5 5 73.5 15s38.5 23.667 52.5 41s24.667 37.666 32 60.999s11 48.333 11 75zM154 608.001v58h300v-58h-300z" />
    <glyph glyph-name="Abreve" unicode="&#x102;" horiz-adv-x="667" 
d="M552 0l-71 185h-300l-72 -185h-98l271 666h103l272 -666h-105zM333 575l-120 -308h237zM333 717c-44.667 0 -80.6689 11.167 -108.002 33.5s-43.666 50.166 -48.999 83.499l51 15c5.33301 -19.333 17 -35.5 35 -48.5s41.667 -19.5 71 -19.5s53 6.5 71 19.5
s29.667 29.167 35 48.5l50 -15c-2.66699 -16.667 -8.16699 -32.167 -16.5 -46.5s-19.166 -26.666 -32.499 -36.999s-29 -18.5 -47 -24.5s-38 -9 -60 -9z" />
    <glyph glyph-name="abreve" unicode="&#x103;" horiz-adv-x="654" 
d="M303 591c-44.667 0 -80.6689 11.167 -108.002 33.5s-43.666 50.166 -48.999 83.499l51 15c5.33301 -19.333 17 -35.5 35 -48.5s41.667 -19.5 71 -19.5s53 6.5 71 19.5s29.667 29.167 35 48.5l50 -15c-2.66699 -16.667 -8.16699 -32.167 -16.5 -46.5
s-19.166 -26.666 -32.499 -36.999s-29 -18.5 -47 -24.5s-38 -9 -60 -9zM555.998 116c0 -19.333 2.99805 -33.499 8.99805 -42.499s16.333 -13.5 31 -13.5c12.667 0 23.334 2.66699 32.001 8l11 -66c-9.33301 -3.33301 -19.5 -5.83301 -30.5 -7.5s-20.833 -2.5 -29.5 -2.5
c-24.667 0 -47.167 6.66699 -67.5 20s-33.166 36 -38.499 68c-23.333 -34.667 -51.666 -58.667 -84.999 -72s-67 -20 -101 -20c-38 0 -72 7 -102 21s-55.333 33.167 -76 57.5s-36.5 53 -47.5 86s-16.5 68.5 -16.5 106.5c0 38.667 5.5 74.667 16.5 108
s26.833 62.166 47.5 86.499s45.667 43.5 75 57.5s62.666 21 99.999 21c36 0 69.667 -7.5 101 -22.5s59.333 -40.167 84 -75.5v86h87v-404zM468.996 260.001c0 26.667 -3.66504 51.667 -10.998 75s-18 43.5 -32 60.5s-31.5 30.5 -52.5 40.5s-45.167 15 -72.5 15
s-51.333 -5 -72 -15s-37.834 -23.667 -51.501 -41s-23.834 -37.5 -30.501 -60.5s-10 -47.833 -10 -74.5s3.33301 -51.667 10 -75s16.667 -43.666 30 -60.999s30.333 -31 51 -41s44.667 -15 72 -15c28 0 52.5 5 73.5 15s38.5 23.667 52.5 41s24.667 37.666 32 60.999
s11 48.333 11 75z" />
    <glyph glyph-name="Aogonek" unicode="&#x104;" horiz-adv-x="667" 
d="M657 0c-38 -4.66699 -66.334 -13.168 -85.001 -25.501s-28 -27.166 -28 -44.499c0 -12.667 4.33301 -23.167 13 -31.5s21 -12.5 37 -12.5c15.333 0 28.166 3.33301 38.499 10s19.5 14.667 27.5 24v-67c-7.33301 -7.33301 -17.666 -14 -30.999 -20s-29.666 -9 -48.999 -9
c-28 0 -51.833 7.16699 -71.5 21.5s-29.5 34.833 -29.5 61.5c0 16 4.83301 32.5 14.5 49.5s28.5 33.167 56.5 48.5l-69 180h-300l-72 -185h-98l271 666h103zM332.999 574.999l-120 -308h237z" />
    <glyph glyph-name="aogonek" unicode="&#x105;" horiz-adv-x="654" 
d="M556 116c0 -19.333 2.99805 -33.499 8.99805 -42.499s16.333 -13.5 31 -13.5c12.667 0 23.334 2.66699 32.001 8l11 -66c-9.33301 -3.33301 -19.5 -5.83301 -30.5 -7.5s-20.833 -2.5 -29.5 -2.5c-11.333 0 -21.333 1.33301 -30 4c-9.33301 -10 -16.5 -20.333 -21.5 -31
s-7.5 -21.667 -7.5 -33c0 -15.333 4.66699 -26.833 14 -34.5s21.333 -11.5 36 -11.5c15.333 0 28.166 3.33301 38.499 10s19.5 14.667 27.5 24v-67c-7.33301 -7.33301 -17.666 -14 -30.999 -20s-29.666 -9 -48.999 -9c-27.333 0 -51 7.16699 -71 21.5s-30 35.5 -30 63.5
c0 16 4.5 32.667 13.5 50s24.167 34.333 45.5 51c-10 7.33301 -18.667 16.5 -26 27.5s-12.333 25.167 -15 42.5c-23.333 -34.667 -51.666 -58.667 -84.999 -72s-67 -20 -101 -20c-38 0 -72 7 -102 21s-55.333 33.167 -76 57.5s-36.5 53 -47.5 86s-16.5 68.5 -16.5 106.5
c0 38.667 5.5 74.667 16.5 108s26.833 62.166 47.5 86.499s45.667 43.5 75 57.5s62.666 21 99.999 21c36 0 69.667 -7.5 101 -22.5s59.333 -40.167 84 -75.5v86h87v-404zM468.998 260.001c0 26.667 -3.66504 51.667 -10.998 75s-18 43.5 -32 60.5s-31.5 30.5 -52.5 40.5
s-45.167 15 -72.5 15s-51.333 -5 -72 -15s-37.834 -23.667 -51.501 -41s-23.834 -37.5 -30.501 -60.5s-10 -47.833 -10 -74.5s3.33301 -51.667 10 -75s16.667 -43.666 30 -60.999s30.333 -31 51 -41s44.667 -15 72 -15c28 0 52.5 5 73.5 15s38.5 23.667 52.5 41
s24.667 37.666 32 60.999s11 48.333 11 75z" />
    <glyph glyph-name="Cacute" unicode="&#x106;" horiz-adv-x="670" 
d="M559 493c-20.667 32 -46.3359 56.5029 -77.0029 73.5029s-67 25.5 -109 25.5c-34.667 0 -66 -6.16699 -94 -18.5s-51.833 -29.833 -71.5 -52.5s-34.834 -49.834 -45.501 -81.501s-16 -66.834 -16 -105.501c0 -39.333 5.33301 -75 16 -107s25.834 -59.5 45.501 -82.5
s43.334 -40.667 71.001 -53s58.5 -18.5 92.5 -18.5c41.333 0 77.833 9.16699 109.5 27.5s57.834 43.5 78.501 75.5l77 -50c-28.667 -43.333 -65.167 -77.166 -109.5 -101.499s-95.833 -36.5 -154.5 -36.5c-48.667 0 -93 8.66699 -133 26s-74.167 41.166 -102.5 71.499
s-50.166 66.666 -65.499 108.999s-23 88.5 -23 138.5s7.66699 96 23 138s37.166 78.333 65.499 109s62.333 54.667 102 72s83.834 26 132.501 26c57.333 0 107.833 -11.5 151.5 -34.5s80.5 -56.167 110.5 -99.5zM308.998 733.003c8 8.66699 16.166 18.167 24.499 28.5
l24.5 31.5c8 10.667 15.5 21.167 22.5 31.5s12.833 19.833 17.5 28.5l83 -13c-5.33301 -11.333 -12.666 -23.333 -21.999 -36s-20.333 -25 -33 -37s-26 -23.5 -40 -34.5s-28 -20.5 -42 -28.5z" />
    <glyph glyph-name="cacute" unicode="&#x107;" horiz-adv-x="536" 
d="M506 97c-22 -32 -50.501 -58.165 -85.501 -78.498s-76.5 -30.5 -124.5 -30.5c-38.667 0 -73.5 6.83301 -104.5 20.5s-57.5 32.667 -79.5 57s-38.833 53.166 -50.5 86.499s-17.5 69.333 -17.5 108s5.83301 74.667 17.5 108s28.5 62.166 50.5 86.499s48.5 43.333 79.5 57
s65.833 20.5 104.5 20.5c46 0 86.333 -9.83301 121 -29.5s63.334 -45.834 86.001 -78.501l-65 -52c-15.333 25.333 -34.5 45.166 -57.5 59.499s-50.167 21.5 -81.5 21.5c-25.333 0 -48 -4.83301 -68 -14.5s-37 -23.167 -51 -40.5s-24.833 -37.833 -32.5 -61.5
s-11.5 -49.167 -11.5 -76.5c0 -28 3.83301 -53.667 11.5 -77s18.5 -43.666 32.5 -60.999s31 -30.833 51 -40.5s42.333 -14.5 67 -14.5c33.333 0 61.333 7.33301 84 22s41.667 33.334 57 56.001zM248.999 605.002c14 17.333 27.833 37.332 41.5 59.999
s24.5 43.334 32.5 62.001l83 -13c-10.667 -23.333 -27 -47.333 -49 -72s-46.667 -46 -74 -64z" />
    <glyph glyph-name="Ccircumflex" unicode="&#x108;" horiz-adv-x="670" 
d="M559 493c-20.667 32 -46.3359 56.5029 -77.0029 73.5029s-67 25.5 -109 25.5c-34.667 0 -66 -6.16699 -94 -18.5s-51.833 -29.833 -71.5 -52.5s-34.834 -49.834 -45.501 -81.501s-16 -66.834 -16 -105.501c0 -39.333 5.33301 -75 16 -107s25.834 -59.5 45.501 -82.5
s43.334 -40.667 71.001 -53s58.5 -18.5 92.5 -18.5c41.333 0 77.833 9.16699 109.5 27.5s57.834 43.5 78.501 75.5l77 -50c-28.667 -43.333 -65.167 -77.166 -109.5 -101.499s-95.833 -36.5 -154.5 -36.5c-48.667 0 -93 8.66699 -133 26s-74.167 41.166 -102.5 71.499
s-50.166 66.666 -65.499 108.999s-23 88.5 -23 138.5s7.66699 96 23 138s37.166 78.333 65.499 109s62.333 54.667 102 72s83.834 26 132.501 26c57.333 0 107.833 -11.5 151.5 -34.5s80.5 -56.167 110.5 -99.5zM400.998 851.003l59 -50.499
c20 -16.333 42.667 -33.166 68 -50.499l-24 -42c-26 8.66699 -51.167 20.167 -75.5 34.5s-44.833 29.166 -61.5 44.499c-16.667 -15.333 -37.167 -30.166 -61.5 -44.499s-49.166 -25.833 -74.499 -34.5l-25 42c25.333 17.333 48.166 34.166 68.499 50.499
s39.833 33.166 58.5 50.499h68z" />
    <glyph glyph-name="ccircumflex" unicode="&#x109;" horiz-adv-x="536" 
d="M506 97c-22 -32 -50.501 -58.165 -85.501 -78.498s-76.5 -30.5 -124.5 -30.5c-38.667 0 -73.5 6.83301 -104.5 20.5s-57.5 32.667 -79.5 57s-38.833 53.166 -50.5 86.499s-17.5 69.333 -17.5 108s5.83301 74.667 17.5 108s28.5 62.166 50.5 86.499s48.5 43.333 79.5 57
s65.833 20.5 104.5 20.5c46 0 86.333 -9.83301 121 -29.5s63.334 -45.834 86.001 -78.501l-65 -52c-15.333 25.333 -34.5 45.166 -57.5 59.499s-50.167 21.5 -81.5 21.5c-25.333 0 -48 -4.83301 -68 -14.5s-37 -23.167 -51 -40.5s-24.833 -37.833 -32.5 -61.5
s-11.5 -49.167 -11.5 -76.5c0 -28 3.83301 -53.667 11.5 -77s18.5 -43.666 32.5 -60.999s31 -30.833 51 -40.5s42.333 -14.5 67 -14.5c33.333 0 61.333 7.33301 84 22s41.667 33.334 57 56.001zM325.999 725.002l59 -50.499c20 -16.333 42.667 -33.166 68 -50.499l-24 -42
c-26 8.66699 -51.167 20.167 -75.5 34.5s-44.833 29.166 -61.5 44.499c-16.667 -15.333 -37.167 -30.166 -61.5 -44.499s-49.166 -25.833 -74.499 -34.5l-25 42c25.333 17.333 48.166 34.166 68.499 50.499s39.833 33.166 58.5 50.499h68z" />
    <glyph glyph-name="Cdotaccent" unicode="&#x10a;" horiz-adv-x="670" 
d="M559 493c-20.667 32 -46.3359 56.5029 -77.0029 73.5029s-67 25.5 -109 25.5c-34.667 0 -66 -6.16699 -94 -18.5s-51.833 -29.833 -71.5 -52.5s-34.834 -49.834 -45.501 -81.501s-16 -66.834 -16 -105.501c0 -39.333 5.33301 -75 16 -107s25.834 -59.5 45.501 -82.5
s43.334 -40.667 71.001 -53s58.5 -18.5 92.5 -18.5c41.333 0 77.833 9.16699 109.5 27.5s57.834 43.5 78.501 75.5l77 -50c-28.667 -43.333 -65.167 -77.166 -109.5 -101.499s-95.833 -36.5 -154.5 -36.5c-48.667 0 -93 8.66699 -133 26s-74.167 41.166 -102.5 71.499
s-50.166 66.666 -65.499 108.999s-23 88.5 -23 138.5s7.66699 96 23 138s37.166 78.333 65.499 109s62.333 54.667 102 72s83.834 26 132.501 26c57.333 0 107.833 -11.5 151.5 -34.5s80.5 -56.167 110.5 -99.5zM324.998 724.003v77h78v-77h-78z" />
    <glyph glyph-name="cdotaccent" unicode="&#x10b;" horiz-adv-x="536" 
d="M506 97c-22 -32 -50.501 -58.165 -85.501 -78.498s-76.5 -30.5 -124.5 -30.5c-38.667 0 -73.5 6.83301 -104.5 20.5s-57.5 32.667 -79.5 57s-38.833 53.166 -50.5 86.499s-17.5 69.333 -17.5 108s5.83301 74.667 17.5 108s28.5 62.166 50.5 86.499s48.5 43.333 79.5 57
s65.833 20.5 104.5 20.5c46 0 86.333 -9.83301 121 -29.5s63.334 -45.834 86.001 -78.501l-65 -52c-15.333 25.333 -34.5 45.166 -57.5 59.499s-50.167 21.5 -81.5 21.5c-25.333 0 -48 -4.83301 -68 -14.5s-37 -23.167 -51 -40.5s-24.833 -37.833 -32.5 -61.5
s-11.5 -49.167 -11.5 -76.5c0 -28 3.83301 -53.667 11.5 -77s18.5 -43.666 32.5 -60.999s31 -30.833 51 -40.5s42.333 -14.5 67 -14.5c33.333 0 61.333 7.33301 84 22s41.667 33.334 57 56.001zM249.999 598.002v77h78v-77h-78z" />
    <glyph glyph-name="Ccaron" unicode="&#x10c;" horiz-adv-x="670" 
d="M559 493c-20.667 32 -46.3359 56.5029 -77.0029 73.5029s-67 25.5 -109 25.5c-34.667 0 -66 -6.16699 -94 -18.5s-51.833 -29.833 -71.5 -52.5s-34.834 -49.834 -45.501 -81.501s-16 -66.834 -16 -105.501c0 -39.333 5.33301 -75 16 -107s25.834 -59.5 45.501 -82.5
s43.334 -40.667 71.001 -53s58.5 -18.5 92.5 -18.5c41.333 0 77.833 9.16699 109.5 27.5s57.834 43.5 78.501 75.5l77 -50c-28.667 -43.333 -65.167 -77.166 -109.5 -101.499s-95.833 -36.5 -154.5 -36.5c-48.667 0 -93 8.66699 -133 26s-74.167 41.166 -102.5 71.499
s-50.166 66.666 -65.499 108.999s-23 88.5 -23 138.5s7.66699 96 23 138s37.166 78.333 65.499 109s62.333 54.667 102 72s83.834 26 132.501 26c57.333 0 107.833 -11.5 151.5 -34.5s80.5 -56.167 110.5 -99.5zM332.998 710.003c-18.667 17.333 -38.167 34.167 -58.5 50.5
s-43.166 33.166 -68.499 50.499l25 42c25.333 -8.66699 50.166 -20 74.499 -34s44.833 -28.667 61.5 -44c16.667 15.333 37.167 30 61.5 44s49.5 25.333 75.5 34l24 -42c-25.333 -17.333 -48 -34.166 -68 -50.499l-59 -50.5h-68z" />
    <glyph glyph-name="ccaron" unicode="&#x10d;" horiz-adv-x="536" 
d="M506 97c-22 -32 -50.501 -58.165 -85.501 -78.498s-76.5 -30.5 -124.5 -30.5c-38.667 0 -73.5 6.83301 -104.5 20.5s-57.5 32.667 -79.5 57s-38.833 53.166 -50.5 86.499s-17.5 69.333 -17.5 108s5.83301 74.667 17.5 108s28.5 62.166 50.5 86.499s48.5 43.333 79.5 57
s65.833 20.5 104.5 20.5c46 0 86.333 -9.83301 121 -29.5s63.334 -45.834 86.001 -78.501l-65 -52c-15.333 25.333 -34.5 45.166 -57.5 59.499s-50.167 21.5 -81.5 21.5c-25.333 0 -48 -4.83301 -68 -14.5s-37 -23.167 -51 -40.5s-24.833 -37.833 -32.5 -61.5
s-11.5 -49.167 -11.5 -76.5c0 -28 3.83301 -53.667 11.5 -77s18.5 -43.666 32.5 -60.999s31 -30.833 51 -40.5s42.333 -14.5 67 -14.5c33.333 0 61.333 7.33301 84 22s41.667 33.334 57 56.001zM259.999 584.002c-18.667 17.333 -38.167 34.167 -58.5 50.5
s-43.166 33.166 -68.499 50.499l25 42c25.333 -8.66699 50.166 -20 74.499 -34s44.833 -28.667 61.5 -44c16.667 15.333 37.167 30 61.5 44s49.5 25.333 75.5 34l24 -42c-25.333 -17.333 -48 -34.166 -68 -50.499l-59 -50.5h-68z" />
    <glyph glyph-name="Dcaron" unicode="&#x10e;" horiz-adv-x="720" 
d="M348 86c36.667 0 69 5.83301 97 17.5s51.5 28.334 70.5 50.001s33.333 47.667 43 78s14.5 64.166 14.5 101.499s-4.83301 71.166 -14.5 101.499s-24 56.333 -43 78s-42.5 38.334 -70.5 50.001s-60.333 17.5 -97 17.5h-163v-494h163zM90 0v666.002h258
c52 0 98 -8.5 138 -25.5s73.667 -40.333 101 -70s48.166 -64.834 62.499 -105.501s21.5 -84.667 21.5 -132s-7.16699 -91.333 -21.5 -132s-35.166 -75.834 -62.499 -105.501s-61 -53 -101 -70s-86 -25.5 -138 -25.5h-258zM320 710.002
c-18.667 17.333 -38.167 34.167 -58.5 50.5s-43.166 33.166 -68.499 50.499l25 42c25.333 -8.66699 50.166 -20 74.499 -34s44.833 -28.667 61.5 -44c16.667 15.333 37.167 30 61.5 44s49.5 25.333 75.5 34l24 -42c-25.333 -17.333 -48 -34.166 -68 -50.499l-59 -50.5h-68z
" />
    <glyph glyph-name="dcaron" unicode="&#x10f;" horiz-adv-x="670" 
d="M469 0l0.000976562 85.001c-24.667 -35.333 -52.834 -60.333 -84.501 -75s-65.167 -22 -100.5 -22c-37.333 0 -70.666 7 -99.999 21s-54.333 33.167 -75 57.5s-36.5 53 -47.5 86s-16.5 68.5 -16.5 106.5c0 38.667 5.5 74.667 16.5 108s26.833 62.166 47.5 86.499
s45.667 43.5 75 57.5s62.666 21 99.999 21c36 0 69.667 -7.5 101 -22.5s59.333 -40.167 84 -75.5v280h87v-714h-87zM469.001 260.001c0 26.667 -3.66797 51.667 -11.001 75s-18.166 43.5 -32.499 60.5s-32 30.5 -53 40.5s-45.167 15 -72.5 15s-51.166 -5 -71.499 -15
s-37.333 -23.667 -51 -41s-23.834 -37.5 -30.501 -60.5s-10 -47.833 -10 -74.5s3.33301 -51.667 10 -75s16.667 -43.666 30 -60.999s30.333 -31 51 -41s44.667 -15 72 -15c28 0 52.5 5 73.5 15s38.5 23.667 52.5 41s24.667 37.666 32 60.999s11 48.333 11 75zM735 640.001
c0 -32.667 -6.66797 -61.6699 -20.001 -87.0029s-32.666 -49.666 -57.999 -72.999l-32 33c13.333 13.333 23.833 28.5 31.5 45.5s11.5 33.833 11.5 50.5c0 8.66699 -1.16699 16.334 -3.5 23.001s-4.83301 13.334 -7.5 20.001s-5.16699 13.5 -7.5 20.5s-3.5 15.167 -3.5 24.5
v17h89v-74z" />
    <glyph glyph-name="Dcroat" unicode="&#x110;" horiz-adv-x="742" 
d="M112 0v304.003h-109v76h109v286h258c52 0 98 -8.33301 138 -25s73.667 -39.834 101 -69.501s48.166 -64.834 62.499 -105.501s21.5 -85 21.5 -133c0 -47.333 -7.16699 -91.333 -21.5 -132s-35.166 -75.834 -62.499 -105.501s-61 -53 -101 -70s-86 -25.5 -138 -25.5h-258z
M370 86.0029c36.667 0 68.834 6.00195 96.501 18.002s51 28.667 70 50s33.333 47.166 43 77.499s14.5 64.166 14.5 101.499s-4.83301 71.166 -14.5 101.499s-24 56.333 -43 78s-42.333 38.334 -70 50.001s-59.834 17.5 -96.501 17.5h-164v-200h184v-76h-184v-218h164z" />
    <glyph glyph-name="dcroat" unicode="&#x111;" horiz-adv-x="634" 
d="M469 0v85.001c-24.667 -35.333 -52.834 -60.333 -84.501 -75s-64.834 -22 -99.501 -22c-37.333 0 -70.833 7 -100.5 21s-54.834 33.167 -75.501 57.5s-36.5 53 -47.5 86s-16.5 68.5 -16.5 106.5c0 38.667 5.5 74.667 16.5 108s26.833 62.166 47.5 86.499
s45.834 43.5 75.501 57.5s63.167 21 100.5 21c34.667 0 67.834 -7.5 99.501 -22.5s59.834 -40.167 84.501 -75.5v178h-139v54h139v48h87v-48h75v-54h-75v-612h-87zM469 260.001c0 26.667 -3.66797 51.667 -11.001 75s-18.166 43.5 -32.499 60.5s-32 30.5 -53 40.5
s-45.5 15 -73.5 15c-27.333 0 -51 -5 -71 -15s-36.833 -23.667 -50.5 -41s-23.834 -37.5 -30.501 -60.5s-10 -47.833 -10 -74.5s3.33301 -51.667 10 -75s16.834 -43.666 30.501 -60.999s30.5 -31 50.5 -41s43.667 -15 71 -15c28 0 52.667 5 74 15s39 23.667 53 41
s24.667 37.666 32 60.999s11 48.333 11 75z" />
    <glyph glyph-name="Emacron" unicode="&#x112;" horiz-adv-x="620" 
d="M90 0v666h472v-86h-378v-188h329v-81h-329v-225h388v-86h-482zM182 734v58h300v-58h-300z" />
    <glyph glyph-name="emacron" unicode="&#x113;" horiz-adv-x="586" 
d="M547 273c0 -8 -0.166992 -14.834 -0.5 -20.501s-0.833008 -10.167 -1.5 -13.5h-408c2.66699 -54 19.667 -96 51 -126s72.666 -45 123.999 -45c60.667 0 112 22.667 154 68l58 -57c-26.667 -28.667 -57.5 -51 -92.5 -67s-75.5 -24 -121.5 -24
c-42 0 -79.5 6.83301 -112.5 20.5s-60.833 32.5 -83.5 56.5s-40 52.5 -52 85.5s-18 68.833 -18 107.5c0 38 5.83301 73.667 17.5 107s28.5 62.333 50.5 87s48.667 44.167 80 58.5s67 21.5 107 21.5c38 0 72.333 -6.66699 103 -20s56.834 -31.666 78.501 -54.999
s38.167 -50.833 49.5 -82.5s17 -65.5 17 -101.5zM457 305.999c-4.66699 50 -21.999 87.667 -51.999 113s-65.667 38 -107 38c-22.667 0 -43.334 -3.66699 -62.001 -11s-35 -17.833 -49 -31.5s-25 -29.667 -33 -48s-13 -38.5 -15 -60.5h318zM148.001 607.999v58h300v-58h-300
z" />
    <glyph glyph-name="Ebreve" unicode="&#x114;" horiz-adv-x="620" 
d="M90 0v666h472v-86h-378v-188h329v-81h-329v-225h388v-86h-482zM333 717c-44.667 0 -80.6689 11.167 -108.002 33.5s-43.666 50.166 -48.999 83.499l51 15c5.33301 -19.333 17 -35.5 35 -48.5s41.667 -19.5 71 -19.5s53 6.5 71 19.5s29.667 29.167 35 48.5l50 -15
c-2.66699 -16.667 -8.16699 -32.167 -16.5 -46.5s-19.166 -26.666 -32.499 -36.999s-29 -18.5 -47 -24.5s-38 -9 -60 -9z" />
    <glyph glyph-name="ebreve" unicode="&#x115;" horiz-adv-x="586" 
d="M547 273c0 -8 -0.166992 -14.834 -0.5 -20.501s-0.833008 -10.167 -1.5 -13.5h-408c2.66699 -54 19.667 -96 51 -126s72.666 -45 123.999 -45c60.667 0 112 22.667 154 68l58 -57c-26.667 -28.667 -57.5 -51 -92.5 -67s-75.5 -24 -121.5 -24
c-42 0 -79.5 6.83301 -112.5 20.5s-60.833 32.5 -83.5 56.5s-40 52.5 -52 85.5s-18 68.833 -18 107.5c0 38 5.83301 73.667 17.5 107s28.5 62.333 50.5 87s48.667 44.167 80 58.5s67 21.5 107 21.5c38 0 72.333 -6.66699 103 -20s56.834 -31.666 78.501 -54.999
s38.167 -50.833 49.5 -82.5s17 -65.5 17 -101.5zM457 305.999c-4.66699 50 -21.999 87.667 -51.999 113s-65.667 38 -107 38c-22.667 0 -43.334 -3.66699 -62.001 -11s-35 -17.833 -49 -31.5s-25 -29.667 -33 -48s-13 -38.5 -15 -60.5h318zM296.001 590.999
c-44.667 0 -80.6689 11.167 -108.002 33.5s-43.666 50.166 -48.999 83.499l51 15c5.33301 -19.333 17 -35.5 35 -48.5s41.667 -19.5 71 -19.5s53 6.5 71 19.5s29.667 29.167 35 48.5l50 -15c-2.66699 -16.667 -8.16699 -32.167 -16.5 -46.5s-19.166 -26.666 -32.499 -36.999
s-29 -18.5 -47 -24.5s-38 -9 -60 -9z" />
    <glyph glyph-name="Edotaccent" unicode="&#x116;" horiz-adv-x="620" 
d="M90 0v666h472v-86h-378v-188h329v-81h-329v-225h388v-86h-482zM293 724v77h78v-77h-78z" />
    <glyph glyph-name="edotaccent" unicode="&#x117;" horiz-adv-x="586" 
d="M547 273c0 -8 -0.166992 -14.834 -0.5 -20.501s-0.833008 -10.167 -1.5 -13.5h-408c2.66699 -54 19.667 -96 51 -126s72.666 -45 123.999 -45c60.667 0 112 22.667 154 68l58 -57c-26.667 -28.667 -57.5 -51 -92.5 -67s-75.5 -24 -121.5 -24
c-42 0 -79.5 6.83301 -112.5 20.5s-60.833 32.5 -83.5 56.5s-40 52.5 -52 85.5s-18 68.833 -18 107.5c0 38 5.83301 73.667 17.5 107s28.5 62.333 50.5 87s48.667 44.167 80 58.5s67 21.5 107 21.5c38 0 72.333 -6.66699 103 -20s56.834 -31.666 78.501 -54.999
s38.167 -50.833 49.5 -82.5s17 -65.5 17 -101.5zM457 305.999c-4.66699 50 -21.999 87.667 -51.999 113s-65.667 38 -107 38c-22.667 0 -43.334 -3.66699 -62.001 -11s-35 -17.833 -49 -31.5s-25 -29.667 -33 -48s-13 -38.5 -15 -60.5h318zM256.001 597.999v77h78v-77h-78z
" />
    <glyph glyph-name="Eogonek" unicode="&#x118;" horiz-adv-x="620" 
d="M489 0c-22 -20.667 -33.001 -43.332 -33.001 -67.999c0 -15.333 4.66699 -26.833 14 -34.5s21.333 -11.5 36 -11.5c15.333 0 28.166 3.33301 38.499 10s19.5 14.667 27.5 24v-67c-7.33301 -7.33301 -17.666 -14 -30.999 -20s-29.666 -9 -48.999 -9
c-27.333 0 -51 7.16699 -71 21.5s-30 35.5 -30 63.5c0 14.667 3.5 29.667 10.5 45s19.167 30.666 36.5 45.999h-348v666h472v-86h-378v-188h329v-81h-329v-225h388v-86h-83z" />
    <glyph glyph-name="eogonek" unicode="&#x119;" horiz-adv-x="588" 
d="M547 272c0 -7.33301 -0.167969 -13.833 -0.500977 -19.5s-0.833008 -10.167 -1.5 -13.5h-408c2.66699 -54 19.667 -96 51 -126s72.666 -45 123.999 -45c60.667 0 112 22.667 154 68l58 -57c-13.333 -14 -24.5 -24.5 -33.5 -31.5s-19.167 -14.167 -30.5 -21.5
c-21.333 -14 -37.5 -28.167 -48.5 -42.5s-16.5 -30.166 -16.5 -47.499c0 -16.667 4.66699 -29.167 14 -37.5s21.666 -12.5 36.999 -12.5c14.667 0 27.167 3.33301 37.5 10s19.5 14.667 27.5 24v-67c-7.33301 -7.33301 -17.666 -14 -30.999 -20s-29.666 -9 -48.999 -9
c-27.333 0 -51 7.16699 -71 21.5s-30 35.5 -30 63.5c0 13.333 3 27.166 9 41.499s16 28.5 30 42.5c-9.33301 -1.33301 -18.833 -2.5 -28.5 -3.5s-20.167 -1.5 -31.5 -1.5c-42 0 -79.5 6.83301 -112.5 20.5s-60.667 32.5 -83 56.5s-39.5 52.5 -51.5 85.5
s-18 68.833 -18 107.5c0 38 5.83301 73.667 17.5 107s28.5 62.333 50.5 87s48.667 44.167 80 58.5s67 21.5 107 21.5c38 0 72.333 -6.66699 103 -20s56.834 -31.666 78.501 -54.999s38.167 -50.833 49.5 -82.5s17 -65.834 17 -102.501zM456.999 306
c-4.66699 50 -21.999 87.667 -51.999 113s-65.667 38 -107 38c-22.667 0 -43.334 -3.66699 -62.001 -11s-35 -17.833 -49 -31.5s-25 -29.667 -33 -48s-13 -38.5 -15 -60.5h318z" />
    <glyph glyph-name="Ecaron" unicode="&#x11a;" horiz-adv-x="620" 
d="M90 0v666h472v-86h-378v-188h329v-81h-329v-225h388v-86h-482zM303 710c-18.667 17.333 -38.167 34.167 -58.5 50.5s-43.166 33.166 -68.499 50.499l25 42c25.333 -8.66699 50.166 -20 74.499 -34s44.833 -28.667 61.5 -44c16.667 15.333 37.167 30 61.5 44
s49.5 25.333 75.5 34l24 -42c-25.333 -17.333 -48 -34.166 -68 -50.499l-59 -50.5h-68z" />
    <glyph glyph-name="ecaron" unicode="&#x11b;" horiz-adv-x="586" 
d="M547 273c0 -8 -0.166992 -14.834 -0.5 -20.501s-0.833008 -10.167 -1.5 -13.5h-408c2.66699 -54 19.667 -96 51 -126s72.666 -45 123.999 -45c60.667 0 112 22.667 154 68l58 -57c-26.667 -28.667 -57.5 -51 -92.5 -67s-75.5 -24 -121.5 -24
c-42 0 -79.5 6.83301 -112.5 20.5s-60.833 32.5 -83.5 56.5s-40 52.5 -52 85.5s-18 68.833 -18 107.5c0 38 5.83301 73.667 17.5 107s28.5 62.333 50.5 87s48.667 44.167 80 58.5s67 21.5 107 21.5c38 0 72.333 -6.66699 103 -20s56.834 -31.666 78.501 -54.999
s38.167 -50.833 49.5 -82.5s17 -65.5 17 -101.5zM457 305.999c-4.66699 50 -21.999 87.667 -51.999 113s-65.667 38 -107 38c-22.667 0 -43.334 -3.66699 -62.001 -11s-35 -17.833 -49 -31.5s-25 -29.667 -33 -48s-13 -38.5 -15 -60.5h318zM262.001 583.999
c-18.667 17.333 -38.167 34.167 -58.5 50.5s-43.166 33.166 -68.499 50.499l25 42c25.333 -8.66699 50.166 -20 74.499 -34s44.833 -28.667 61.5 -44c16.667 15.333 37.167 30 61.5 44s49.5 25.333 75.5 34l24 -42c-25.333 -17.333 -48 -34.166 -68 -50.499l-59 -50.5h-68z
" />
    <glyph glyph-name="Gcircumflex" unicode="&#x11c;" horiz-adv-x="721" 
d="M373 592c-35.333 0 -67.1719 -6.3291 -95.5049 -18.9961s-52.166 -30.334 -71.499 -53.001s-34.166 -49.834 -44.499 -81.501s-15.5 -66.834 -15.5 -105.501c0 -39.333 5.33301 -74.833 16 -106.5s25.667 -59 45 -82s43 -40.667 71 -53s59.667 -18.5 95 -18.5
c30 0 57.667 4.33301 83 13s47.5 21.167 66.5 37.5s34.333 36 46 59s18.5 48.833 20.5 77.5h-216v82h305c1.33301 -6.66699 2.33301 -14 3 -22s1 -17.333 1 -28c0 -40 -6.83301 -78.333 -20.5 -115s-33.667 -69 -60 -97s-58.666 -50.333 -96.999 -67s-81.833 -25 -130.5 -25
c-49.333 0 -94.166 8.66699 -134.499 26s-74.666 41.333 -102.999 72s-50.166 67.167 -65.499 109.5s-23 88.5 -23 138.5s7.66699 96.167 23 138.5s37.166 78.666 65.499 108.999s62.333 54 102 71s83.834 25.5 132.501 25.5c57.333 0 107.833 -11.5 151.5 -34.5
s80.5 -56.167 110.5 -99.5l-74 -51c-20.667 32 -46.334 56.5 -77.001 73.5s-67 25.5 -109 25.5zM397.994 853.004l59 -50.499c20 -16.333 42.667 -33.166 68 -50.499l-24 -42c-26 8.66699 -51.167 20.167 -75.5 34.5s-44.833 29.166 -61.5 44.499
c-16.667 -15.333 -37.167 -30.166 -61.5 -44.499s-49.166 -25.833 -74.499 -34.5l-25 42c25.333 17.333 48.166 34.166 68.499 50.499s39.833 33.166 58.5 50.499h68z" />
    <glyph glyph-name="gcircumflex" unicode="&#x11d;" horiz-adv-x="636" 
d="M558 84c0 -40 -4.00293 -75.335 -12.0029 -106.002s-22.667 -57.667 -44 -81c-25.333 -30 -57.166 -51 -95.499 -63s-79.5 -18 -123.5 -18c-43.333 0 -82.833 5.16699 -118.5 15.5s-68.5 25.833 -98.5 46.5l44 71c23.333 -16.667 49.5 -29.834 78.5 -39.501
s60.833 -14.5 95.5 -14.5c26.667 0 51.334 3.16699 74.001 9.5s42.334 16.333 59.001 30s29.834 31.334 39.501 53.001s14.5 47.834 14.5 78.501v56c-21.333 -33.333 -49 -57.833 -83 -73.5s-69.667 -23.5 -107 -23.5c-34.667 0 -66.5 6.33301 -95.5 19
s-53.833 30.167 -74.5 52.5s-36.667 49 -48 80s-17 64.5 -17 100.5c0 36.667 6 70.667 18 102s28.5 58.333 49.5 81s46.167 40.334 75.5 53.001s61.333 19 96 19c38 0 73.167 -7.83301 105.5 -23.5s59.166 -40.5 80.499 -74.5v86h87v-436zM471.997 278.998
c0 24 -3.66895 46.5 -11.002 67.5s-18.166 39.333 -32.499 55s-32 28 -53 37s-45.5 13.5 -73.5 13.5s-52.167 -4.66699 -72.5 -14s-37.333 -21.833 -51 -37.5s-23.834 -34 -30.501 -55s-10 -43.167 -10 -66.5c0 -24 3.33301 -46.667 10 -68s16.834 -40 30.501 -56
s30.834 -28.667 51.501 -38s44.667 -14 72 -14s51.5 4.66699 72.5 14s38.833 22 53.5 38s25.667 34.667 33 56s11 44 11 68zM335.995 724.998l59 -50.499c20 -16.333 42.667 -33.166 68 -50.499l-24 -42c-26 8.66699 -51.167 20.167 -75.5 34.5s-44.833 29.166 -61.5 44.499
c-16.667 -15.333 -37.167 -30.166 -61.5 -44.499s-49.166 -25.833 -74.499 -34.5l-25 42c25.333 17.333 48.166 34.166 68.499 50.499s39.833 33.166 58.5 50.499h68z" />
    <glyph glyph-name="Gbreve" unicode="&#x11e;" horiz-adv-x="721" 
d="M373 592c-35.333 0 -67.1719 -6.3291 -95.5049 -18.9961s-52.166 -30.334 -71.499 -53.001s-34.166 -49.834 -44.499 -81.501s-15.5 -66.834 -15.5 -105.501c0 -39.333 5.33301 -74.833 16 -106.5s25.667 -59 45 -82s43 -40.667 71 -53s59.667 -18.5 95 -18.5
c30 0 57.667 4.33301 83 13s47.5 21.167 66.5 37.5s34.333 36 46 59s18.5 48.833 20.5 77.5h-216v82h305c1.33301 -6.66699 2.33301 -14 3 -22s1 -17.333 1 -28c0 -40 -6.83301 -78.333 -20.5 -115s-33.667 -69 -60 -97s-58.666 -50.333 -96.999 -67s-81.833 -25 -130.5 -25
c-49.333 0 -94.166 8.66699 -134.499 26s-74.666 41.333 -102.999 72s-50.166 67.167 -65.499 109.5s-23 88.5 -23 138.5s7.66699 96.167 23 138.5s37.166 78.666 65.499 108.999s62.333 54 102 71s83.834 25.5 132.501 25.5c57.333 0 107.833 -11.5 151.5 -34.5
s80.5 -56.167 110.5 -99.5l-74 -51c-20.667 32 -46.334 56.5 -77.001 73.5s-67 25.5 -109 25.5zM366.994 719.004c-44.667 0 -80.6689 11.167 -108.002 33.5s-43.666 50.166 -48.999 83.499l51 15c5.33301 -19.333 17 -35.5 35 -48.5s41.667 -19.5 71 -19.5s53 6.5 71 19.5
s29.667 29.167 35 48.5l50 -15c-2.66699 -16.667 -8.16699 -32.167 -16.5 -46.5s-19.166 -26.666 -32.499 -36.999s-29 -18.5 -47 -24.5s-38 -9 -60 -9z" />
    <glyph glyph-name="gbreve" unicode="&#x11f;" horiz-adv-x="636" 
d="M558 84c0 -40 -4.00293 -75.335 -12.0029 -106.002s-22.667 -57.667 -44 -81c-25.333 -30 -57.166 -51 -95.499 -63s-79.5 -18 -123.5 -18c-43.333 0 -82.833 5.16699 -118.5 15.5s-68.5 25.833 -98.5 46.5l44 71c23.333 -16.667 49.5 -29.834 78.5 -39.501
s60.833 -14.5 95.5 -14.5c26.667 0 51.334 3.16699 74.001 9.5s42.334 16.333 59.001 30s29.834 31.334 39.501 53.001s14.5 47.834 14.5 78.501v56c-21.333 -33.333 -49 -57.833 -83 -73.5s-69.667 -23.5 -107 -23.5c-34.667 0 -66.5 6.33301 -95.5 19
s-53.833 30.167 -74.5 52.5s-36.667 49 -48 80s-17 64.5 -17 100.5c0 36.667 6 70.667 18 102s28.5 58.333 49.5 81s46.167 40.334 75.5 53.001s61.333 19 96 19c38 0 73.167 -7.83301 105.5 -23.5s59.166 -40.5 80.499 -74.5v86h87v-436zM471.997 278.998
c0 24 -3.66895 46.5 -11.002 67.5s-18.166 39.333 -32.499 55s-32 28 -53 37s-45.5 13.5 -73.5 13.5s-52.167 -4.66699 -72.5 -14s-37.333 -21.833 -51 -37.5s-23.834 -34 -30.501 -55s-10 -43.167 -10 -66.5c0 -24 3.33301 -46.667 10 -68s16.834 -40 30.501 -56
s30.834 -28.667 51.501 -38s44.667 -14 72 -14s51.5 4.66699 72.5 14s38.833 22 53.5 38s25.667 34.667 33 56s11 44 11 68zM300.995 590.998c-44.667 0 -80.6689 11.167 -108.002 33.5s-43.666 50.166 -48.999 83.499l51 15c5.33301 -19.333 17 -35.5 35 -48.5
s41.667 -19.5 71 -19.5s53 6.5 71 19.5s29.667 29.167 35 48.5l50 -15c-2.66699 -16.667 -8.16699 -32.167 -16.5 -46.5s-19.166 -26.666 -32.499 -36.999s-29 -18.5 -47 -24.5s-38 -9 -60 -9z" />
    <glyph glyph-name="Gdotaccent" unicode="&#x120;" horiz-adv-x="721" 
d="M373 592c-35.333 0 -67.1719 -6.3291 -95.5049 -18.9961s-52.166 -30.334 -71.499 -53.001s-34.166 -49.834 -44.499 -81.501s-15.5 -66.834 -15.5 -105.501c0 -39.333 5.33301 -74.833 16 -106.5s25.667 -59 45 -82s43 -40.667 71 -53s59.667 -18.5 95 -18.5
c30 0 57.667 4.33301 83 13s47.5 21.167 66.5 37.5s34.333 36 46 59s18.5 48.833 20.5 77.5h-216v82h305c1.33301 -6.66699 2.33301 -14 3 -22s1 -17.333 1 -28c0 -40 -6.83301 -78.333 -20.5 -115s-33.667 -69 -60 -97s-58.666 -50.333 -96.999 -67s-81.833 -25 -130.5 -25
c-49.333 0 -94.166 8.66699 -134.499 26s-74.666 41.333 -102.999 72s-50.166 67.167 -65.499 109.5s-23 88.5 -23 138.5s7.66699 96.167 23 138.5s37.166 78.666 65.499 108.999s62.333 54 102 71s83.834 25.5 132.501 25.5c57.333 0 107.833 -11.5 151.5 -34.5
s80.5 -56.167 110.5 -99.5l-74 -51c-20.667 32 -46.334 56.5 -77.001 73.5s-67 25.5 -109 25.5zM331.994 726.004v77h78v-77h-78z" />
    <glyph glyph-name="gdotaccent" unicode="&#x121;" horiz-adv-x="636" 
d="M558 84c0 -40 -4.00293 -75.335 -12.0029 -106.002s-22.667 -57.667 -44 -81c-25.333 -30 -57.166 -51 -95.499 -63s-79.5 -18 -123.5 -18c-43.333 0 -82.833 5.16699 -118.5 15.5s-68.5 25.833 -98.5 46.5l44 71c23.333 -16.667 49.5 -29.834 78.5 -39.501
s60.833 -14.5 95.5 -14.5c26.667 0 51.334 3.16699 74.001 9.5s42.334 16.333 59.001 30s29.834 31.334 39.501 53.001s14.5 47.834 14.5 78.501v56c-21.333 -33.333 -49 -57.833 -83 -73.5s-69.667 -23.5 -107 -23.5c-34.667 0 -66.5 6.33301 -95.5 19
s-53.833 30.167 -74.5 52.5s-36.667 49 -48 80s-17 64.5 -17 100.5c0 36.667 6 70.667 18 102s28.5 58.333 49.5 81s46.167 40.334 75.5 53.001s61.333 19 96 19c38 0 73.167 -7.83301 105.5 -23.5s59.166 -40.5 80.499 -74.5v86h87v-436zM471.997 278.998
c0 24 -3.66895 46.5 -11.002 67.5s-18.166 39.333 -32.499 55s-32 28 -53 37s-45.5 13.5 -73.5 13.5s-52.167 -4.66699 -72.5 -14s-37.333 -21.833 -51 -37.5s-23.834 -34 -30.501 -55s-10 -43.167 -10 -66.5c0 -24 3.33301 -46.667 10 -68s16.834 -40 30.501 -56
s30.834 -28.667 51.501 -38s44.667 -14 72 -14s51.5 4.66699 72.5 14s38.833 22 53.5 38s25.667 34.667 33 56s11 44 11 68zM260.995 597.998v77h78v-77h-78z" />
    <glyph glyph-name="Gcommaaccent" unicode="&#x122;" horiz-adv-x="721" 
d="M373 592c-35.333 0 -67.1719 -6.3291 -95.5049 -18.9961s-52.166 -30.334 -71.499 -53.001s-34.166 -49.834 -44.499 -81.501s-15.5 -66.834 -15.5 -105.501c0 -39.333 5.33301 -74.833 16 -106.5s25.667 -59 45 -82s43 -40.667 71 -53s59.667 -18.5 95 -18.5
c30 0 57.667 4.33301 83 13s47.5 21.167 66.5 37.5s34.333 36 46 59s18.5 48.833 20.5 77.5h-216v82h305c1.33301 -6.66699 2.33301 -14 3 -22s1 -17.333 1 -28c0 -40 -6.83301 -78.333 -20.5 -115s-33.667 -69 -60 -97s-58.666 -50.333 -96.999 -67s-81.833 -25 -130.5 -25
c-49.333 0 -94.166 8.66699 -134.499 26s-74.666 41.333 -102.999 72s-50.166 67.167 -65.499 109.5s-23 88.5 -23 138.5s7.66699 96.167 23 138.5s37.166 78.666 65.499 108.999s62.333 54 102 71s83.834 25.5 132.501 25.5c57.333 0 107.833 -11.5 151.5 -34.5
s80.5 -56.167 110.5 -99.5l-74 -51c-20.667 32 -46.334 56.5 -77.001 73.5s-67 25.5 -109 25.5zM275.994 -172.996c13.333 17.333 26.665 37.167 39.998 59.5s23.666 43.166 30.999 62.499l83 -12c-5.33301 -11.333 -12.166 -23.166 -20.499 -35.499
s-17.666 -24.5 -27.999 -36.5s-21.666 -23.667 -33.999 -35s-24.833 -21.333 -37.5 -30z" />
    <glyph glyph-name="gcommaaccent" unicode="&#x123;" horiz-adv-x="636" 
d="M397 700c-13.333 -17.333 -26.668 -37.167 -40.001 -59.5s-23.666 -43.166 -30.999 -62.499l-83 12c4.66699 11.333 11.334 23.166 20.001 35.499s18.167 24.5 28.5 36.5s21.666 23.5 33.999 34.5s24.833 21.167 37.5 30.5zM557.998 83.999
c0 -40 -4.00293 -75.335 -12.0029 -106.002s-22.667 -57.667 -44 -81c-25.333 -30 -57.166 -51 -95.499 -63s-79.5 -18 -123.5 -18c-43.333 0 -82.833 5.16699 -118.5 15.5s-68.5 25.833 -98.5 46.5l44 71c23.333 -16.667 49.5 -29.834 78.5 -39.501
s60.833 -14.5 95.5 -14.5c26.667 0 51.334 3.16699 74.001 9.5s42.334 16.333 59.001 30s29.834 31.334 39.501 53.001s14.5 47.834 14.5 78.501v56c-21.333 -33.333 -49 -57.833 -83 -73.5s-69.667 -23.5 -107 -23.5c-34.667 0 -66.5 6.33301 -95.5 19
s-53.833 30.167 -74.5 52.5s-36.667 49 -48 80s-17 64.5 -17 100.5c0 36.667 6 70.667 18 102s28.5 58.333 49.5 81s46.167 40.334 75.5 53.001s61.333 19 96 19c38 0 73.167 -7.83301 105.5 -23.5s59.166 -40.5 80.499 -74.5v86h87v-436zM471.995 278.997
c0 24 -3.66895 46.5 -11.002 67.5s-18.166 39.333 -32.499 55s-32 28 -53 37s-45.5 13.5 -73.5 13.5s-52.167 -4.66699 -72.5 -14s-37.333 -21.833 -51 -37.5s-23.834 -34 -30.501 -55s-10 -43.167 -10 -66.5c0 -24 3.33301 -46.667 10 -68s16.834 -40 30.501 -56
s30.834 -28.667 51.501 -38s44.667 -14 72 -14s51.5 4.66699 72.5 14s38.833 22 53.5 38s25.667 34.667 33 56s11 44 11 68z" />
    <glyph glyph-name="Hcircumflex" unicode="&#x124;" horiz-adv-x="729" 
d="M545 0v310h-361v-310h-94v666h94v-271h361v271h94v-666h-94zM398 853l59 -50.499c20 -16.333 42.667 -33.166 68 -50.499l-24 -42c-26 8.66699 -51.167 20.167 -75.5 34.5s-44.833 29.166 -61.5 44.499c-16.667 -15.333 -37.167 -30.166 -61.5 -44.499
s-49.166 -25.833 -74.499 -34.5l-25 42c25.333 17.333 48.166 34.166 68.499 50.499s39.833 33.166 58.5 50.499h68z" />
    <glyph glyph-name="hcircumflex" unicode="&#x125;" horiz-adv-x="597" 
d="M78 0l-0.000976562 714h87v-280c21.333 32 46.833 56.333 76.5 73s63.5 25 101.5 25c56.667 0 101.167 -17.167 133.5 -51.5s48.5 -82.833 48.5 -145.5v-335h-87v315c0 15.333 -1.5 31 -4.5 47s-8.66699 30.5 -17 43.5s-20.166 23.667 -35.499 32s-35 12.5 -59 12.5
c-22 0 -42.667 -3.83301 -62 -11.5s-36 -18.667 -50 -33s-25 -31.5 -33 -51.5s-12 -42 -12 -66v-288h-87zM157.999 867l59 -50.499c20 -16.333 42.667 -33.166 68 -50.499l-24 -42c-26 8.66699 -51.167 20.167 -75.5 34.5s-44.833 29.166 -61.5 44.499
c-16.667 -15.333 -37.167 -30.166 -61.5 -44.499s-49.166 -25.833 -74.499 -34.5l-25 42c25.333 17.333 48.166 34.166 68.499 50.499s39.833 33.166 58.5 50.499h68z" />
    <glyph glyph-name="Hbar" unicode="&#x126;" horiz-adv-x="729" 
d="M545 0v310h-361v-310h-94v529h-51v55h51v82h94v-82h361v82h94v-82h52v-55h-52v-529h-94zM545 395v134h-361v-134h361z" />
    <glyph glyph-name="hbar" unicode="&#x127;" horiz-adv-x="597" 
d="M78 0l-0.000976562 611h-75v55h75v48h87v-48h138v-55h-138v-177c21.333 32 46.833 56.333 76.5 73s63.5 25 101.5 25c56.667 0 101.167 -17.167 133.5 -51.5s48.5 -82.833 48.5 -145.5v-335h-87v315c0 15.333 -1.5 31 -4.5 47s-8.66699 30.5 -17 43.5
s-20.166 23.667 -35.499 32s-35 12.5 -59 12.5c-22 0 -42.667 -3.83301 -62 -11.5s-36 -18.667 -50 -33s-25 -31.5 -33 -51.5s-12 -42 -12 -66v-288h-87z" />
    <glyph glyph-name="Itilde" unicode="&#x128;" horiz-adv-x="273" 
d="M90 0v666h93v-666h-93zM301 805c-9.33301 -25.333 -22.499 -45.5 -39.499 -60.5s-35.833 -22.5 -56.5 -22.5c-11.333 0 -22.666 2 -33.999 6s-22.5 8.33301 -33.5 13l-32 13c-10.333 4 -20.166 6 -29.499 6c-11.333 0 -22.333 -2.83301 -33 -8.5
s-21.667 -15.167 -33 -28.5l-35 23c9.33301 25.333 22.5 45.5 39.5 60.5s35.833 22.5 56.5 22.5c11.333 0 22.666 -2 33.999 -6s22.5 -8.33301 33.5 -13l32 -13c10.333 -4 20.5 -6 30.5 -6c11.333 0 22.166 2.83301 32.499 8.5s21.166 15.167 32.499 28.5z" />
    <glyph glyph-name="itilde" unicode="&#x129;" horiz-adv-x="243" 
d="M286 679c-9.33301 -25.333 -22.499 -45.5 -39.499 -60.5s-35.833 -22.5 -56.5 -22.5c-11.333 0 -22.666 2 -33.999 6s-22.5 8.33301 -33.5 13l-32 13c-10.333 4 -20.166 6 -29.499 6c-11.333 0 -22.333 -2.83301 -33 -8.5s-21.667 -15.167 -33 -28.5l-35 23
c9.33301 25.333 22.5 45.5 39.5 60.5s35.833 22.5 56.5 22.5c11.333 0 22.666 -2 33.999 -6s22.5 -8.33301 33.5 -13l32 -13c10.333 -4 20.5 -6 30.5 -6c11.333 0 22.166 2.83301 32.499 8.5s21.166 15.167 32.499 28.5zM78.001 0v520h87v-520h-87z" />
    <glyph glyph-name="Imacron" unicode="&#x12a;" horiz-adv-x="273" 
d="M90 0v666h93v-666h-93zM-12 736v58h300v-58h-300z" />
    <glyph glyph-name="imacron" unicode="&#x12b;" horiz-adv-x="243" 
d="M-27 608v58h300v-58h-300zM78 0v520h87v-520h-87z" />
    <glyph glyph-name="Ibreve" unicode="&#x12c;" horiz-adv-x="273" 
d="M90 0v666h93v-666h-93zM138 717c-44.667 0 -80.6689 11.167 -108.002 33.5s-43.666 50.166 -48.999 83.499l51 15c5.33301 -19.333 17 -35.5 35 -48.5s41.667 -19.5 71 -19.5s53 6.5 71 19.5s29.667 29.167 35 48.5l50 -15
c-2.66699 -16.667 -8.16699 -32.167 -16.5 -46.5s-19.166 -26.666 -32.499 -36.999s-29 -18.5 -47 -24.5s-38 -9 -60 -9z" />
    <glyph glyph-name="ibreve" unicode="&#x12d;" horiz-adv-x="243" 
d="M78 0v520h87v-520h-87zM123 591c-44.667 0 -80.6689 11.167 -108.002 33.5s-43.666 50.166 -48.999 83.499l51 15c5.33301 -19.333 17 -35.5 35 -48.5s41.667 -19.5 71 -19.5s53 6.5 71 19.5s29.667 29.167 35 48.5l50 -15
c-2.66699 -16.667 -8.16699 -32.167 -16.5 -46.5s-19.166 -26.666 -32.499 -36.999s-29 -18.5 -47 -24.5s-38 -9 -60 -9z" />
    <glyph glyph-name="Iogonek" unicode="&#x12e;" horiz-adv-x="273" 
d="M90 666l93.002 -0.000976562v-666c-8 -1.33301 -17.167 -3.66602 -27.5 -6.99902s-20 -7.83301 -29 -13.5s-16.667 -12.5 -23 -20.5s-9.5 -17.667 -9.5 -29c0 -13.333 4.33301 -23.666 13 -30.999s19.667 -11 33 -11s25.666 3 36.999 9s20.666 13.333 27.999 22v-67
c-6.66699 -6.66699 -16.5 -12.834 -29.5 -18.501s-28.167 -8.5 -45.5 -8.5c-28 0 -51.333 7.83301 -70 23.5s-28 35.834 -28 60.501c0 16.667 4.83301 33.167 14.5 49.5s24.167 30.166 43.5 41.499v666z" />
    <glyph glyph-name="iogonek" unicode="&#x12f;" horiz-adv-x="243" 
d="M78 622v92h87v-92h-87zM78 520l87.0029 -0.00488281v-520c-7.33301 -1.33301 -16 -3.66602 -26 -6.99902s-19.667 -7.66602 -29 -12.999s-17.333 -12.166 -24 -20.499s-10 -18.166 -10 -29.499c0 -13.333 4.5 -23.666 13.5 -30.999s20.167 -11 33.5 -11
s25.666 3.16699 36.999 9.5s20 13.5 26 21.5v-67c-7.33301 -7.33301 -17.333 -13.666 -30 -18.999s-27.334 -8 -44.001 -8c-26.667 0 -49.5 7.66699 -68.5 23s-28.5 35.666 -28.5 60.999c0 17.333 5.16699 34 15.5 50s26.166 29.667 47.499 41v520z" />
    <glyph glyph-name="Idotaccent" unicode="&#x130;" horiz-adv-x="273" 
d="M90 0v666h93v-666h-93zM99 724v77h78v-77h-78z" />
    <glyph glyph-name="dotlessi" unicode="&#x131;" horiz-adv-x="243" 
d="M78 0v520h87v-520h-87z" />
    <glyph glyph-name="Jcircumflex" unicode="&#x134;" horiz-adv-x="506" 
d="M423 209c0 -36 -5.16699 -67.833 -15.5 -95.5s-25 -50.667 -44 -69s-41.667 -32.333 -68 -42s-55.5 -14.5 -87.5 -14.5c-40 0 -76 8 -108 24s-58.667 41.333 -80 76l75 48c15.333 -22 32.666 -37.833 51.999 -47.5s41 -14.5 65 -14.5c42.667 0 72.834 12.333 90.501 37
s26.5 57 26.5 97v458h94v-457v0zM409 851l59 -50.499c20 -16.333 42.667 -33.166 68 -50.499l-24 -42c-26 8.66699 -51.167 20.167 -75.5 34.5s-44.833 29.166 -61.5 44.499c-16.667 -15.333 -37.167 -30.166 -61.5 -44.499s-49.166 -25.833 -74.499 -34.5l-25 42
c25.333 17.333 48.166 34.166 68.499 50.499s39.833 33.166 58.5 50.499h68z" />
    <glyph glyph-name="jcircumflex" unicode="&#x135;" horiz-adv-x="243" 
d="M155 725l59 -50.499c20 -16.333 42.667 -33.166 68 -50.499l-24 -42c-26 8.66699 -51.167 20.167 -75.5 34.5s-44.833 29.166 -61.5 44.499c-16.667 -15.333 -37.167 -30.166 -61.5 -44.499s-49.166 -25.833 -74.499 -34.5l-25 42
c25.333 17.333 48.166 34.166 68.499 50.499s39.833 33.166 58.5 50.499h68zM165 -0.999023c0 -61.333 -16.168 -106.834 -48.501 -136.501s-74.833 -44.5 -127.5 -44.5c-13.333 0 -27.5 1.33301 -42.5 4s-27.5 6.33398 -37.5 11.001l24 72
c7.33301 -3.33301 15.5 -6 24.5 -8s18.167 -3 27.5 -3c34.667 0 58.834 9.16699 72.501 27.5s20.5 43.5 20.5 75.5v523h87v-521z" />
    <glyph glyph-name="Kcommaaccent" unicode="&#x136;" horiz-adv-x="645" 
d="M529 0l-230 317l-116 -129v-188h-93v666h93v-357l323 357h113l-257 -282l283 -384h-116zM249 -173c13.333 17.333 26.665 37.167 39.998 59.5s23.666 43.166 30.999 62.499l83 -12c-5.33301 -11.333 -12.166 -23.166 -20.499 -35.499s-17.666 -24.5 -27.999 -36.5
s-21.666 -23.667 -33.999 -35s-24.833 -21.333 -37.5 -30z" />
    <glyph glyph-name="kcommaaccent" unicode="&#x137;" horiz-adv-x="567" 
d="M426 520h110l-210 -213l237 -307h-110l-188 249l-100 -101v-148h-87v714h87v-463zM210 -173c13.333 17.333 26.665 37.167 39.998 59.5s23.666 43.166 30.999 62.499l83 -12c-5.33301 -11.333 -12.166 -23.166 -20.499 -35.499s-17.666 -24.5 -27.999 -36.5
s-21.666 -23.667 -33.999 -35s-24.833 -21.333 -37.5 -30z" />
    <glyph glyph-name="kgreenlandic" unicode="&#x138;" horiz-adv-x="569" 
d="M426 520h110l-210 -213l237 -307h-110l-188 249l-100 -101v-148h-87v520h87v-269z" />
    <glyph glyph-name="Lacute" unicode="&#x139;" horiz-adv-x="568" 
d="M90 0v666h93v-580h370v-86h-463zM84 735c8 8.66699 16.166 18.167 24.499 28.5l24.5 31.5c8 10.667 15.5 21.167 22.5 31.5s12.833 19.833 17.5 28.5l83 -13c-5.33301 -11.333 -12.666 -23.333 -21.999 -36s-20.333 -25 -33 -37s-26 -23.5 -40 -34.5s-28 -20.5 -42 -28.5
z" />
    <glyph glyph-name="lacute" unicode="&#x13a;" horiz-adv-x="249" 
d="M81 0v714h87v-714h-87zM75 761c8 8.66699 16.166 18.167 24.499 28.5l24.5 31.5c8 10.667 15.5 21.167 22.5 31.5s12.833 19.833 17.5 28.5l83 -13c-5.33301 -11.333 -12.666 -23.333 -21.999 -36s-20.333 -25 -33 -37s-26 -23.5 -40 -34.5s-28 -20.5 -42 -28.5z" />
    <glyph glyph-name="Lcommaaccent" unicode="&#x13b;" horiz-adv-x="569" 
d="M90 0v666h93v-580h370v-86h-463zM234 -173c13.333 17.333 26.665 37.167 39.998 59.5s23.666 43.166 30.999 62.499l83 -12c-5.33301 -11.333 -12.166 -23.166 -20.499 -35.499s-17.666 -24.5 -27.999 -36.5s-21.666 -23.667 -33.999 -35s-24.833 -21.333 -37.5 -30z" />
    <glyph glyph-name="lcommaaccent" unicode="&#x13c;" horiz-adv-x="249" 
d="M81 0v714h87v-714h-87zM15 -173c13.333 17.333 26.665 37.167 39.998 59.5s23.666 43.166 30.999 62.499l83 -12c-5.33301 -11.333 -12.166 -23.166 -20.499 -35.499s-17.666 -24.5 -27.999 -36.5s-21.666 -23.667 -33.999 -35s-24.833 -21.333 -37.5 -30z" />
    <glyph glyph-name="Lcaron" unicode="&#x13d;" horiz-adv-x="568" 
d="M90 0v666h93v-580h370v-86h-463zM376 592c0 -32.667 -6.66797 -61.6699 -20.001 -87.0029s-32.666 -49.666 -57.999 -72.999l-32 33c13.333 13.333 23.833 28.5 31.5 45.5s11.5 33.833 11.5 50.5c0 8.66699 -1.16699 16.334 -3.5 23.001s-4.83301 13.334 -7.5 20.001
s-5.16699 13.5 -7.5 20.5s-3.5 15.167 -3.5 24.5v17h89v-74z" />
    <glyph glyph-name="lcaron" unicode="&#x13e;" horiz-adv-x="291" 
d="M81 0v714h87v-714h-87zM354 640c0 -32.667 -6.66797 -61.6699 -20.001 -87.0029s-32.666 -49.666 -57.999 -72.999l-32 33c13.333 13.333 23.833 28.5 31.5 45.5s11.5 33.833 11.5 50.5c0 8.66699 -1.16699 16.334 -3.5 23.001s-4.83301 13.334 -7.5 20.001
s-5.16699 13.5 -7.5 20.5s-3.5 15.167 -3.5 24.5v17h89v-74z" />
    <glyph glyph-name="Ldot" unicode="&#x13f;" horiz-adv-x="568" 
d="M90 0v666h93v-580h370v-86h-463zM493 366c0 -17.333 -6 -32.166 -18 -44.499s-26.667 -18.5 -44 -18.5s-32.166 6.16699 -44.499 18.5s-18.5 27.166 -18.5 44.499s6.16699 32.333 18.5 45s27.166 19 44.499 19s32 -6.33301 44 -19s18 -27.667 18 -45z" />
    <glyph glyph-name="ldot" unicode="&#x140;" horiz-adv-x="459" 
d="M81 0v714h87v-714h-87zM416 304c0 -17.333 -6 -32.166 -18 -44.499s-26.667 -18.5 -44 -18.5s-32.166 6.16699 -44.499 18.5s-18.5 27.166 -18.5 44.499s6.16699 32.333 18.5 45s27.166 19 44.499 19s32 -6.33301 44 -19s18 -27.667 18 -45z" />
    <glyph glyph-name="Lslash" unicode="&#x141;" horiz-adv-x="582" 
d="M103 0v262l-112 -52v76l112 52v328h94v-287l217 102v-77l-217 -101v-217h370v-86h-464z" />
    <glyph glyph-name="lslash" unicode="&#x142;" horiz-adv-x="307" 
d="M201 396v-396h-88v360l-112 -52v75l112 51v280h88v-243l114 53v-75z" />
    <glyph glyph-name="Nacute" unicode="&#x143;" horiz-adv-x="729" 
d="M529 0l-349 549v-549h-90v666h120l339 -536v536h90v-666h-110zM312 733c8 8.66699 16.166 18.167 24.499 28.5l24.5 31.5c8 10.667 15.5 21.167 22.5 31.5s12.833 19.833 17.5 28.5l83 -13c-5.33301 -11.333 -12.666 -23.333 -21.999 -36s-20.333 -25 -33 -37
s-26 -23.5 -40 -34.5s-28 -20.5 -42 -28.5z" />
    <glyph glyph-name="nacute" unicode="&#x144;" horiz-adv-x="597" 
d="M78 0l-0.000976562 520h87v-86c21.333 32 46.833 56.333 76.5 73s63.5 25 101.5 25c56.667 0 101.167 -17.167 133.5 -51.5s48.5 -82.833 48.5 -145.5v-335h-87v315c0 15.333 -1.5 31 -4.5 47s-8.66699 30.5 -17 43.5s-20.166 23.667 -35.499 32s-35 12.5 -59 12.5
c-22 0 -42.667 -3.83301 -62 -11.5s-36 -18.667 -50 -33s-25 -31.5 -33 -51.5s-12 -42 -12 -66v-288h-87zM261.999 605c14 17.333 27.833 37.332 41.5 59.999s24.5 43.334 32.5 62.001l83 -13c-10.667 -23.333 -27 -47.333 -49 -72s-46.667 -46 -74 -64z" />
    <glyph glyph-name="Ncommaaccent" unicode="&#x145;" horiz-adv-x="729" 
d="M529 0l-349 549v-549h-90v666h120l339 -536v536h90v-666h-110zM264 -173c13.333 17.333 26.665 37.167 39.998 59.5s23.666 43.166 30.999 62.499l83 -12c-5.33301 -11.333 -12.166 -23.166 -20.499 -35.499s-17.666 -24.5 -27.999 -36.5s-21.666 -23.667 -33.999 -35
s-24.833 -21.333 -37.5 -30z" />
    <glyph glyph-name="ncommaaccent" unicode="&#x146;" horiz-adv-x="597" 
d="M78 0l-0.000976562 520h87v-86c21.333 32 46.833 56.333 76.5 73s63.5 25 101.5 25c56.667 0 101.167 -17.167 133.5 -51.5s48.5 -82.833 48.5 -145.5v-335h-87v315c0 15.333 -1.5 31 -4.5 47s-8.66699 30.5 -17 43.5s-20.166 23.667 -35.499 32s-35 12.5 -59 12.5
c-22 0 -42.667 -3.83301 -62 -11.5s-36 -18.667 -50 -33s-25 -31.5 -33 -51.5s-12 -42 -12 -66v-288h-87zM201.999 -173c13.333 17.333 26.665 37.167 39.998 59.5s23.666 43.166 30.999 62.499l83 -12c-5.33301 -11.333 -12.166 -23.166 -20.499 -35.499
s-17.666 -24.5 -27.999 -36.5s-21.666 -23.667 -33.999 -35s-24.833 -21.333 -37.5 -30z" />
    <glyph glyph-name="Ncaron" unicode="&#x147;" horiz-adv-x="729" 
d="M529 0l-349 549v-549h-90v666h120l339 -536v536h90v-666h-110zM328 710c-18.667 17.333 -38.167 34.167 -58.5 50.5s-43.166 33.166 -68.499 50.499l25 42c25.333 -8.66699 50.166 -20 74.499 -34s44.833 -28.667 61.5 -44c16.667 15.333 37.167 30 61.5 44
s49.5 25.333 75.5 34l24 -42c-25.333 -17.333 -48 -34.166 -68 -50.499l-59 -50.5h-68z" />
    <glyph glyph-name="ncaron" unicode="&#x148;" horiz-adv-x="597" 
d="M78 0l-0.000976562 520h87v-86c21.333 32 46.833 56.333 76.5 73s63.5 25 101.5 25c56.667 0 101.167 -17.167 133.5 -51.5s48.5 -82.833 48.5 -145.5v-335h-87v315c0 15.333 -1.5 31 -4.5 47s-8.66699 30.5 -17 43.5s-20.166 23.667 -35.499 32s-35 12.5 -59 12.5
c-22 0 -42.667 -3.83301 -62 -11.5s-36 -18.667 -50 -33s-25 -31.5 -33 -51.5s-12 -42 -12 -66v-288h-87zM270.999 584c-18.667 17.333 -38.167 34.167 -58.5 50.5s-43.166 33.166 -68.499 50.499l25 42c25.333 -8.66699 50.166 -20 74.499 -34s44.833 -28.667 61.5 -44
c16.667 15.333 37.167 30 61.5 44s49.5 25.333 75.5 34l24 -42c-25.333 -17.333 -48 -34.166 -68 -50.499l-59 -50.5h-68z" />
    <glyph glyph-name="Eng" unicode="&#x14a;" horiz-adv-x="729" 
d="M639 37c0 -36 -5.16699 -67.667 -15.5 -95s-25 -50.333 -44 -69s-41.5 -32.667 -67.5 -42s-54.333 -14 -85 -14c-34.667 0 -66.667 6.33301 -96 19l32 79c19.333 -8.66699 40.333 -13 63 -13c38 0 65.833 9 83.5 27s28.5 42.667 32.5 74l-362 546v-549h-90v666h116
l343 -516v516h90v-629z" />
    <glyph glyph-name="eng" unicode="&#x14b;" horiz-adv-x="597" 
d="M525 -1c0 -60 -15.668 -105.168 -47.001 -135.501s-74 -45.5 -128 -45.5c-14 0 -28.333 1.33301 -43 4s-27.334 6.33398 -38.001 11.001l24 72c7.33301 -3.33301 15.5 -6 24.5 -8s18.167 -3 27.5 -3c34.667 0 58.834 9.16699 72.501 27.5s20.5 42.833 20.5 73.5v320
c0 15.333 -1.5 31 -4.5 47s-8.66699 30.5 -17 43.5s-20.166 23.667 -35.499 32s-35 12.5 -59 12.5c-22 0 -42.667 -3.83301 -62 -11.5s-36 -18.667 -50 -33s-25 -31.5 -33 -51.5s-12 -42 -12 -66v-288h-87v520h87v-86c21.333 32 46.833 56.333 76.5 73s63.5 25 101.5 25
c56.667 0 101.167 -17.167 133.5 -51.5s48.5 -82.833 48.5 -145.5v-336z" />
    <glyph glyph-name="Omacron" unicode="&#x14c;" horiz-adv-x="745" 
d="M698 333c0 -49.333 -7.66699 -95 -23 -137s-37.166 -78.333 -65.499 -109s-62.5 -54.834 -102.5 -72.501s-85 -26.5 -135 -26.5s-95 8.83301 -135 26.5s-74 41.834 -102 72.501s-49.667 67 -65 109s-23 87.667 -23 137c0 48.667 7.66699 94.167 23 136.5
s37 78.833 65 109.5s62 54.834 102 72.501s85 26.5 135 26.5s95 -8.83301 135 -26.5s74.167 -41.834 102.5 -72.501s50.166 -67.167 65.499 -109.5s23 -87.833 23 -136.5zM599 333c0 38 -5.16699 72.667 -15.5 104s-25.333 58.333 -45 81s-43.5 40.334 -71.5 53.001
s-59.667 19 -95 19s-67.166 -6.33301 -95.499 -19s-52.166 -30.334 -71.499 -53.001s-34.166 -49.667 -44.499 -81s-15.5 -66 -15.5 -104s5.16699 -72.667 15.5 -104s25.166 -58.5 44.499 -81.5s43.166 -40.833 71.499 -53.5s60.166 -19 95.499 -19s67 6.33301 95 19
s51.833 30.5 71.5 53.5s34.667 50.167 45 81.5s15.5 66 15.5 104zM222 734v58h300v-58h-300z" />
    <glyph glyph-name="omacron" unicode="&#x14d;" horiz-adv-x="600" 
d="M556 259c0 -39.333 -6 -75.5 -18 -108.5s-29 -61.5 -51 -85.5s-48.833 -42.833 -80.5 -56.5s-67.167 -20.5 -106.5 -20.5s-74.833 6.83301 -106.5 20.5s-58.5 32.5 -80.5 56.5s-39 52.5 -51 85.5s-18 69.167 -18 108.5s6 75.666 18 108.999s29 62.166 51 86.499
s48.833 43.333 80.5 57s67.167 20.5 106.5 20.5s74.833 -6.83301 106.5 -20.5s58.5 -32.667 80.5 -57s39 -53.166 51 -86.499s18 -69.666 18 -108.999zM463 259c0 27.333 -3.66699 52.833 -11 76.5s-17.833 44.167 -31.5 61.5s-30.667 31 -51 41s-43.5 15 -69.5 15
s-49.167 -5 -69.5 -15s-37.5 -23.667 -51.5 -41s-24.667 -37.833 -32 -61.5s-11 -49.167 -11 -76.5s3.66699 -52.666 11 -75.999s18 -43.666 32 -60.999s31.167 -31 51.5 -41s43.5 -15 69.5 -15s49.167 5 69.5 15s37.333 23.667 51 41s24.167 37.666 31.5 60.999
s11 48.666 11 75.999zM150 608v58h300v-58h-300z" />
    <glyph glyph-name="Obreve" unicode="&#x14e;" horiz-adv-x="745" 
d="M698 333c0 -49.333 -7.66699 -95 -23 -137s-37.166 -78.333 -65.499 -109s-62.5 -54.834 -102.5 -72.501s-85 -26.5 -135 -26.5s-95 8.83301 -135 26.5s-74 41.834 -102 72.501s-49.667 67 -65 109s-23 87.667 -23 137c0 48.667 7.66699 94.167 23 136.5
s37 78.833 65 109.5s62 54.834 102 72.501s85 26.5 135 26.5s95 -8.83301 135 -26.5s74.167 -41.834 102.5 -72.501s50.166 -67.167 65.499 -109.5s23 -87.833 23 -136.5zM599 333c0 38 -5.16699 72.667 -15.5 104s-25.333 58.333 -45 81s-43.5 40.334 -71.5 53.001
s-59.667 19 -95 19s-67.166 -6.33301 -95.499 -19s-52.166 -30.334 -71.499 -53.001s-34.166 -49.667 -44.499 -81s-15.5 -66 -15.5 -104s5.16699 -72.667 15.5 -104s25.166 -58.5 44.499 -81.5s43.166 -40.833 71.499 -53.5s60.166 -19 95.499 -19s67 6.33301 95 19
s51.833 30.5 71.5 53.5s34.667 50.167 45 81.5s15.5 66 15.5 104zM372 717c-44.667 0 -80.6689 11.167 -108.002 33.5s-43.666 50.166 -48.999 83.499l51 15c5.33301 -19.333 17 -35.5 35 -48.5s41.667 -19.5 71 -19.5s53 6.5 71 19.5s29.667 29.167 35 48.5l50 -15
c-2.66699 -16.667 -8.16699 -32.167 -16.5 -46.5s-19.166 -26.666 -32.499 -36.999s-29 -18.5 -47 -24.5s-38 -9 -60 -9z" />
    <glyph glyph-name="obreve" unicode="&#x14f;" horiz-adv-x="600" 
d="M556 259c0 -39.333 -6 -75.5 -18 -108.5s-29 -61.5 -51 -85.5s-48.833 -42.833 -80.5 -56.5s-67.167 -20.5 -106.5 -20.5s-74.833 6.83301 -106.5 20.5s-58.5 32.5 -80.5 56.5s-39 52.5 -51 85.5s-18 69.167 -18 108.5s6 75.666 18 108.999s29 62.166 51 86.499
s48.833 43.333 80.5 57s67.167 20.5 106.5 20.5s74.833 -6.83301 106.5 -20.5s58.5 -32.667 80.5 -57s39 -53.166 51 -86.499s18 -69.666 18 -108.999zM463 259c0 27.333 -3.66699 52.833 -11 76.5s-17.833 44.167 -31.5 61.5s-30.667 31 -51 41s-43.5 15 -69.5 15
s-49.167 -5 -69.5 -15s-37.5 -23.667 -51.5 -41s-24.667 -37.833 -32 -61.5s-11 -49.167 -11 -76.5s3.66699 -52.666 11 -75.999s18 -43.666 32 -60.999s31.167 -31 51.5 -41s43.5 -15 69.5 -15s49.167 5 69.5 15s37.333 23.667 51 41s24.167 37.666 31.5 60.999
s11 48.666 11 75.999zM300 591c-44.667 0 -80.6689 11.167 -108.002 33.5s-43.666 50.166 -48.999 83.499l51 15c5.33301 -19.333 17 -35.5 35 -48.5s41.667 -19.5 71 -19.5s53 6.5 71 19.5s29.667 29.167 35 48.5l50 -15c-2.66699 -16.667 -8.16699 -32.167 -16.5 -46.5
s-19.166 -26.666 -32.499 -36.999s-29 -18.5 -47 -24.5s-38 -9 -60 -9z" />
    <glyph glyph-name="Ohungarumlaut" unicode="&#x150;" horiz-adv-x="745" 
d="M698 333c0 -49.333 -7.66699 -95 -23 -137s-37.166 -78.333 -65.499 -109s-62.5 -54.834 -102.5 -72.501s-85 -26.5 -135 -26.5s-95 8.83301 -135 26.5s-74 41.834 -102 72.501s-49.667 67 -65 109s-23 87.667 -23 137c0 48.667 7.66699 94.167 23 136.5
s37 78.833 65 109.5s62 54.834 102 72.501s85 26.5 135 26.5s95 -8.83301 135 -26.5s74.167 -41.834 102.5 -72.501s50.166 -67.167 65.499 -109.5s23 -87.833 23 -136.5zM599 333c0 38 -5.16699 72.667 -15.5 104s-25.333 58.333 -45 81s-43.5 40.334 -71.5 53.001
s-59.667 19 -95 19s-67.166 -6.33301 -95.499 -19s-52.166 -30.334 -71.499 -53.001s-34.166 -49.667 -44.499 -81s-15.5 -66 -15.5 -104s5.16699 -72.667 15.5 -104s25.166 -58.5 44.499 -81.5s43.166 -40.833 71.499 -53.5s60.166 -19 95.499 -19s67 6.33301 95 19
s51.833 30.5 71.5 53.5s34.667 50.167 45 81.5s15.5 66 15.5 104zM254 733c16 17.333 32.332 37.333 48.999 60s29.667 42.667 39 60l81 -13c-5.33301 -11.333 -12.666 -23.333 -21.999 -36s-20.333 -25 -33 -37s-26 -23.5 -40 -34.5s-28 -20.5 -42 -28.5zM409.999 733
c8 8.66699 16.165 18.167 24.498 28.5l24.5 31.5c8 10.667 15.5 21.167 22.5 31.5s12.833 19.833 17.5 28.5l80 -13c-5.33301 -11.333 -12.666 -23.333 -21.999 -36s-20.166 -25 -32.499 -37s-25.5 -23.5 -39.5 -34.5s-28 -20.5 -42 -28.5z" />
    <glyph glyph-name="ohungarumlaut" unicode="&#x151;" horiz-adv-x="600" 
d="M556 259c0 -39.333 -6 -75.5 -18 -108.5s-29 -61.5 -51 -85.5s-48.833 -42.833 -80.5 -56.5s-67.167 -20.5 -106.5 -20.5s-74.833 6.83301 -106.5 20.5s-58.5 32.5 -80.5 56.5s-39 52.5 -51 85.5s-18 69.167 -18 108.5s6 75.666 18 108.999s29 62.166 51 86.499
s48.833 43.333 80.5 57s67.167 20.5 106.5 20.5s74.833 -6.83301 106.5 -20.5s58.5 -32.667 80.5 -57s39 -53.166 51 -86.499s18 -69.666 18 -108.999zM463 259c0 27.333 -3.66699 52.833 -11 76.5s-17.833 44.167 -31.5 61.5s-30.667 31 -51 41s-43.5 15 -69.5 15
s-49.167 -5 -69.5 -15s-37.5 -23.667 -51.5 -41s-24.667 -37.833 -32 -61.5s-11 -49.167 -11 -76.5s3.66699 -52.666 11 -75.999s18 -43.666 32 -60.999s31.167 -31 51.5 -41s43.5 -15 69.5 -15s49.167 5 69.5 15s37.333 23.667 51 41s24.167 37.666 31.5 60.999
s11 48.666 11 75.999zM184 607c16 17.333 32.332 37.333 48.999 60s29.667 42.667 39 60l81 -13c-5.33301 -11.333 -12.666 -23.333 -21.999 -36s-20.333 -25 -33 -37s-26 -23.5 -40 -34.5s-28 -20.5 -42 -28.5zM339.999 607c8 8.66699 16.165 18.167 24.498 28.5l24.5 31.5
c8 10.667 15.5 21.167 22.5 31.5s12.833 19.833 17.5 28.5l80 -13c-5.33301 -11.333 -12.666 -23.333 -21.999 -36s-20.166 -25 -32.499 -37s-25.5 -23.5 -39.5 -34.5s-28 -20.5 -42 -28.5z" />
    <glyph glyph-name="OE" unicode="&#x152;" horiz-adv-x="990" 
d="M372 0c-52 0 -98 8.49805 -138 25.498s-73.667 40.333 -101 70s-48.166 64.834 -62.499 105.501s-21.5 84.667 -21.5 132s7.16699 91.333 21.5 132s35.166 75.834 62.499 105.501s61 53 101 70s86 25.5 138 25.5h560v-86h-349v-188h300v-81h-300v-225h359v-86h-570z
M147 332.998c0 -37.333 4.83301 -71.166 14.5 -101.499s24 -56.333 43 -78s42.5 -38.334 70.5 -50.001s60.333 -17.5 97 -17.5h117v494h-117c-36.667 0 -69 -5.83301 -97 -17.5s-51.5 -28.334 -70.5 -50.001s-33.333 -47.667 -43 -78s-14.5 -64.166 -14.5 -101.499z" />
    <glyph glyph-name="oe" unicode="&#x153;" horiz-adv-x="1001" 
d="M962 270c0 -7.33301 -0.169922 -13.501 -0.50293 -18.501s-0.833008 -9.16699 -1.5 -12.5h-408c2.66699 -54 19.834 -96 51.501 -126s73.167 -45 124.5 -45c31.333 0 59.5 5.66699 84.5 17s47.167 27.666 66.5 48.999l61 -55c-27.333 -28.667 -58.5 -51 -93.5 -67
s-75.5 -24 -121.5 -24c-52 0 -96.167 10.5 -132.5 31.5s-65.166 49.5 -86.499 85.5c-20.667 -36 -48.667 -64.5 -84 -85.5s-77 -31.5 -125 -31.5c-39.333 0 -74.666 6.83301 -105.999 20.5s-57.833 32.667 -79.5 57s-38.334 53 -50.001 86s-17.5 68.833 -17.5 107.5
s5.83301 74.667 17.5 108s28.334 62.333 50.001 87s48.167 43.834 79.5 57.501s66.666 20.5 105.999 20.5c48 0 89.833 -10.667 125.5 -32s63.834 -50 84.501 -86c20 36 47.667 64.667 83 86s77 32 125 32c38 0 72.167 -6.66699 102.5 -20s56.333 -31.666 78 -54.999
s38.167 -51 49.5 -83s17 -66.667 17 -104zM459.997 258.999c0 27.333 -3.66699 52.833 -11 76.5s-17.833 44.167 -31.5 61.5s-30.5 31 -50.5 41s-43 15 -69 15s-49 -5 -69 -15s-36.833 -23.667 -50.5 -41s-24.167 -37.833 -31.5 -61.5s-11 -49.167 -11 -76.5
s3.66699 -52.666 11 -75.999s17.833 -43.666 31.5 -60.999s30.5 -31 50.5 -41s43 -15 69 -15s49 5 69 15s36.833 23.667 50.5 41s24.167 37.666 31.5 60.999s11 48.666 11 75.999zM871.997 305.999c-4.66699 50 -21.832 87.667 -51.499 113s-65.5 38 -107.5 38
c-22.667 0 -43.334 -3.66699 -62.001 -11s-35 -17.833 -49 -31.5s-25 -29.667 -33 -48s-13 -38.5 -15 -60.5h318z" />
    <glyph glyph-name="Racute" unicode="&#x154;" horiz-adv-x="661" 
d="M517 0l-141.999 268.001h-191v-268h-94v666h292c34 0 64.833 -4.66699 92.5 -14s51.167 -22.5 70.5 -39.5s34.166 -37.5 44.499 -61.5s15.5 -50.667 15.5 -80c0 -46.667 -12.833 -85.834 -38.5 -117.501s-58.5 -54.5 -98.5 -68.5l155 -285h-106zM508.001 464.001
c0 36 -11.833 64.333 -35.5 85s-54.834 31 -93.501 31h-195v-230h198c38.667 0 69.334 10.5 92.001 31.5s34 48.5 34 82.5zM277.001 733.001c8 8.66699 16.166 18.167 24.499 28.5l24.5 31.5c8 10.667 15.5 21.167 22.5 31.5s12.833 19.833 17.5 28.5l83 -13
c-5.33301 -11.333 -12.666 -23.333 -21.999 -36s-20.333 -25 -33 -37s-26 -23.5 -40 -34.5s-28 -20.5 -42 -28.5z" />
    <glyph glyph-name="racute" unicode="&#x155;" horiz-adv-x="393" 
d="M359 428c-8.66699 4.66699 -17.8311 8.5 -27.498 11.5s-20.5 4.5 -32.5 4.5c-17.333 0 -34 -3.83301 -50 -11.5s-30.333 -18.667 -43 -33s-22.667 -32.333 -30 -54s-11 -46.5 -11 -74.5v-271h-87v520h87v-88c17.333 28 38.833 51.333 64.5 70s54.5 28 86.5 28
c15.333 0 29.166 -1.83301 41.499 -5.5s22.166 -8.16699 29.499 -13.5zM159.003 607c8 8.66699 16.166 18.167 24.499 28.5l24.5 31.5c8 10.667 15.5 21.167 22.5 31.5s12.833 19.833 17.5 28.5l83 -13c-5.33301 -11.333 -12.666 -23.333 -21.999 -36s-20.333 -25 -33 -37
s-26 -23.5 -40 -34.5s-28 -20.5 -42 -28.5z" />
    <glyph glyph-name="Rcommaaccent" unicode="&#x156;" horiz-adv-x="661" 
d="M517 0l-141.999 268.001h-191v-268h-94v666h292c34 0 64.833 -4.66699 92.5 -14s51.167 -22.5 70.5 -39.5s34.166 -37.5 44.499 -61.5s15.5 -50.667 15.5 -80c0 -46.667 -12.833 -85.834 -38.5 -117.501s-58.5 -54.5 -98.5 -68.5l155 -285h-106zM508.001 464.001
c0 36 -11.833 64.333 -35.5 85s-54.834 31 -93.501 31h-195v-230h198c38.667 0 69.334 10.5 92.001 31.5s34 48.5 34 82.5zM241.001 -172.999c13.333 17.333 26.665 37.167 39.998 59.5s23.666 43.166 30.999 62.499l83 -12
c-5.33301 -11.333 -12.166 -23.166 -20.499 -35.499s-17.666 -24.5 -27.999 -36.5s-21.666 -23.667 -33.999 -35s-24.833 -21.333 -37.5 -30z" />
    <glyph glyph-name="rcommaaccent" unicode="&#x157;" horiz-adv-x="393" 
d="M359 428c-8.66699 4.66699 -17.8311 8.5 -27.498 11.5s-20.5 4.5 -32.5 4.5c-17.333 0 -34 -3.83301 -50 -11.5s-30.333 -18.667 -43 -33s-22.667 -32.333 -30 -54s-11 -46.5 -11 -74.5v-271h-87v520h87v-88c17.333 28 38.833 51.333 64.5 70s54.5 28 86.5 28
c15.333 0 29.166 -1.83301 41.499 -5.5s22.166 -8.16699 29.499 -13.5zM12.0029 -173c13.333 17.333 26.665 37.167 39.998 59.5s23.666 43.166 30.999 62.499l83 -12c-5.33301 -11.333 -12.166 -23.166 -20.499 -35.499s-17.666 -24.5 -27.999 -36.5
s-21.666 -23.667 -33.999 -35s-24.833 -21.333 -37.5 -30z" />
    <glyph glyph-name="Rcaron" unicode="&#x158;" horiz-adv-x="661" 
d="M517 0l-141.999 268.001h-191v-268h-94v666h292c34 0 64.833 -4.66699 92.5 -14s51.167 -22.5 70.5 -39.5s34.166 -37.5 44.499 -61.5s15.5 -50.667 15.5 -80c0 -46.667 -12.833 -85.834 -38.5 -117.501s-58.5 -54.5 -98.5 -68.5l155 -285h-106zM508.001 464.001
c0 36 -11.833 64.333 -35.5 85s-54.834 31 -93.501 31h-195v-230h198c38.667 0 69.334 10.5 92.001 31.5s34 48.5 34 82.5zM296.001 710.001c-18.667 17.333 -38.167 34.167 -58.5 50.5s-43.166 33.166 -68.499 50.499l25 42c25.333 -8.66699 50.166 -20 74.499 -34
s44.833 -28.667 61.5 -44c16.667 15.333 37.167 30 61.5 44s49.5 25.333 75.5 34l24 -42c-25.333 -17.333 -48 -34.166 -68 -50.499l-59 -50.5h-68z" />
    <glyph glyph-name="rcaron" unicode="&#x159;" horiz-adv-x="393" 
d="M359 428c-8.66699 4.66699 -17.8311 8.5 -27.498 11.5s-20.5 4.5 -32.5 4.5c-17.333 0 -34 -3.83301 -50 -11.5s-30.333 -18.667 -43 -33s-22.667 -32.333 -30 -54s-11 -46.5 -11 -74.5v-271h-87v520h87v-88c17.333 28 38.833 51.333 64.5 70s54.5 28 86.5 28
c15.333 0 29.166 -1.83301 41.499 -5.5s22.166 -8.16699 29.499 -13.5zM194.003 584c-18.667 17.333 -38.167 34.167 -58.5 50.5s-43.166 33.166 -68.499 50.499l25 42c25.333 -8.66699 50.166 -20 74.499 -34s44.833 -28.667 61.5 -44c16.667 15.333 37.167 30 61.5 44
s49.5 25.333 75.5 34l24 -42c-25.333 -17.333 -48 -34.166 -68 -50.499l-59 -50.5h-68z" />
    <glyph glyph-name="Sacute" unicode="&#x15a;" horiz-adv-x="605" 
d="M298 678c50.667 0 97.6602 -9.99902 140.993 -29.999s79.666 -49.333 108.999 -88l-72 -51c-21.333 28 -47.666 49.333 -78.999 64s-66 22 -104 22c-17.333 0 -34.166 -1.66699 -50.499 -5s-30.666 -8.83301 -42.999 -16.5s-22.166 -17.667 -29.499 -30
s-11 -27.5 -11 -45.5s4 -32.667 12 -44s19 -20.833 33 -28.5s30.333 -14.167 49 -19.5s38.667 -10.333 60 -15c32 -7.33301 62.833 -15.666 92.5 -24.999s55.834 -21.166 78.501 -35.499s40.834 -32.666 54.501 -54.999s20.5 -50.166 20.5 -83.499
c0 -30.667 -6 -58.5 -18 -83.5s-29 -46.5 -51 -64.5s-48.5 -31.833 -79.5 -41.5s-65.833 -14.5 -104.5 -14.5c-63.333 0 -118 12.333 -164 37s-81.667 58 -107 100l77 49c23.333 -36.667 52.666 -63.167 87.999 -79.5s73 -24.5 113 -24.5c45.333 0 81.833 10 109.5 30
s41.5 48 41.5 84c0 20 -4.5 36.167 -13.5 48.5s-21.5 22.666 -37.5 30.999s-34.833 15.166 -56.5 20.499l-71.5 17c-28 6 -55.333 13.333 -82 22s-50.167 20 -70.5 34s-36.666 31.667 -48.999 53s-18.5 47.666 -18.5 78.999c0 30 5.83301 56.667 17.5 80
s27.834 43.166 48.501 59.499s45.334 28.666 74.001 36.999s59.667 12.5 93 12.5zM243.993 733.001c8 8.66699 16.166 18.167 24.499 28.5l24.5 31.5c8 10.667 15.5 21.167 22.5 31.5s12.833 19.833 17.5 28.5l83 -13c-5.33301 -11.333 -12.666 -23.333 -21.999 -36
s-20.333 -25 -33 -37s-26 -23.5 -40 -34.5s-28 -20.5 -42 -28.5z" />
    <glyph glyph-name="sacute" unicode="&#x15b;" horiz-adv-x="518" 
d="M475 154c0 -50 -18.6709 -90.1641 -56.0039 -120.497s-89.666 -45.5 -156.999 -45.5c-51.333 0 -96.666 9.5 -135.999 28.5s-70.666 46.5 -93.999 82.5l64 48c20 -28 44.5 -49 73.5 -63s61.5 -21 97.5 -21c35.333 0 64.333 7 87 21s34 35 34 63
c0 13.333 -3 24.166 -9 32.499s-14.833 15.333 -26.5 21s-26.5 10.5 -44.5 14.5s-39 8.33301 -63 13c-25.333 4.66699 -49.333 10.334 -72 17.001s-42.5 15.667 -59.5 27s-30.333 25.666 -40 42.999s-14.5 38.666 -14.5 63.999c0 26.667 5.5 49.5 16.5 68.5
s25.5 34.833 43.5 47.5s38.667 22 62 28s47.666 9 72.999 9c24.667 0 47.5 -2.5 68.5 -7.5s40.333 -11.667 58 -20s33.667 -17.666 48 -27.999s26.5 -20.833 36.5 -31.5l-58 -55c-18.667 21.333 -41 37.833 -67 49.5s-55 17.5 -87 17.5c-14 0 -27.5 -1.33301 -40.5 -4
s-24.667 -6.83398 -35 -12.501s-18.666 -12.834 -24.999 -21.501s-9.5 -19.334 -9.5 -32.001c0 -13.333 3.5 -24.333 10.5 -33s16.333 -15.667 28 -21s25.334 -9.83301 41.001 -13.5s32.167 -7.16699 49.5 -10.5c26 -5.33301 51.167 -11.166 75.5 -17.499s46 -15 65 -26
s34.167 -25.333 45.5 -43s17 -40.5 17 -68.5zM211.996 605.003c14 17.333 27.833 37.332 41.5 59.999s24.5 43.334 32.5 62.001l83 -13c-10.667 -23.333 -27 -47.333 -49 -72s-46.667 -46 -74 -64z" />
    <glyph glyph-name="Scircumflex" unicode="&#x15c;" horiz-adv-x="605" 
d="M298 678c50.667 0 97.6602 -9.99902 140.993 -29.999s79.666 -49.333 108.999 -88l-72 -51c-21.333 28 -47.666 49.333 -78.999 64s-66 22 -104 22c-17.333 0 -34.166 -1.66699 -50.499 -5s-30.666 -8.83301 -42.999 -16.5s-22.166 -17.667 -29.499 -30
s-11 -27.5 -11 -45.5s4 -32.667 12 -44s19 -20.833 33 -28.5s30.333 -14.167 49 -19.5s38.667 -10.333 60 -15c32 -7.33301 62.833 -15.666 92.5 -24.999s55.834 -21.166 78.501 -35.499s40.834 -32.666 54.501 -54.999s20.5 -50.166 20.5 -83.499
c0 -30.667 -6 -58.5 -18 -83.5s-29 -46.5 -51 -64.5s-48.5 -31.833 -79.5 -41.5s-65.833 -14.5 -104.5 -14.5c-63.333 0 -118 12.333 -164 37s-81.667 58 -107 100l77 49c23.333 -36.667 52.666 -63.167 87.999 -79.5s73 -24.5 113 -24.5c45.333 0 81.833 10 109.5 30
s41.5 48 41.5 84c0 20 -4.5 36.167 -13.5 48.5s-21.5 22.666 -37.5 30.999s-34.833 15.166 -56.5 20.499l-71.5 17c-28 6 -55.333 13.333 -82 22s-50.167 20 -70.5 34s-36.666 31.667 -48.999 53s-18.5 47.666 -18.5 78.999c0 30 5.83301 56.667 17.5 80
s27.834 43.166 48.501 59.499s45.334 28.666 74.001 36.999s59.667 12.5 93 12.5zM330.993 851.001l59 -50.499c20 -16.333 42.667 -33.166 68 -50.499l-24 -42c-26 8.66699 -51.167 20.167 -75.5 34.5s-44.833 29.166 -61.5 44.499
c-16.667 -15.333 -37.167 -30.166 -61.5 -44.499s-49.166 -25.833 -74.499 -34.5l-25 42c25.333 17.333 48.166 34.166 68.499 50.499s39.833 33.166 58.5 50.499h68z" />
    <glyph glyph-name="scircumflex" unicode="&#x15d;" horiz-adv-x="518" 
d="M475 154c0 -50 -18.6709 -90.1641 -56.0039 -120.497s-89.666 -45.5 -156.999 -45.5c-51.333 0 -96.666 9.5 -135.999 28.5s-70.666 46.5 -93.999 82.5l64 48c20 -28 44.5 -49 73.5 -63s61.5 -21 97.5 -21c35.333 0 64.333 7 87 21s34 35 34 63
c0 13.333 -3 24.166 -9 32.499s-14.833 15.333 -26.5 21s-26.5 10.5 -44.5 14.5s-39 8.33301 -63 13c-25.333 4.66699 -49.333 10.334 -72 17.001s-42.5 15.667 -59.5 27s-30.333 25.666 -40 42.999s-14.5 38.666 -14.5 63.999c0 26.667 5.5 49.5 16.5 68.5
s25.5 34.833 43.5 47.5s38.667 22 62 28s47.666 9 72.999 9c24.667 0 47.5 -2.5 68.5 -7.5s40.333 -11.667 58 -20s33.667 -17.666 48 -27.999s26.5 -20.833 36.5 -31.5l-58 -55c-18.667 21.333 -41 37.833 -67 49.5s-55 17.5 -87 17.5c-14 0 -27.5 -1.33301 -40.5 -4
s-24.667 -6.83398 -35 -12.501s-18.666 -12.834 -24.999 -21.501s-9.5 -19.334 -9.5 -32.001c0 -13.333 3.5 -24.333 10.5 -33s16.333 -15.667 28 -21s25.334 -9.83301 41.001 -13.5s32.167 -7.16699 49.5 -10.5c26 -5.33301 51.167 -11.166 75.5 -17.499s46 -15 65 -26
s34.167 -25.333 45.5 -43s17 -40.5 17 -68.5zM290.996 725.003l59 -50.499c20 -16.333 42.667 -33.166 68 -50.499l-24 -42c-26 8.66699 -51.167 20.167 -75.5 34.5s-44.833 29.166 -61.5 44.499c-16.667 -15.333 -37.167 -30.166 -61.5 -44.499
s-49.166 -25.833 -74.499 -34.5l-25 42c25.333 17.333 48.166 34.166 68.499 50.499s39.833 33.166 58.5 50.499h68z" />
    <glyph glyph-name="Scedilla" unicode="&#x15e;" horiz-adv-x="607" 
d="M199 -84c7.33301 -7.33301 16.6582 -13.8281 27.9912 -19.4951s23.333 -8.5 36 -8.5c13.333 0 24.833 3.83301 34.5 11.5s14.5 18.167 14.5 31.5c0 21.333 -11.333 40.666 -34 57.999c-56.667 3.33301 -105.5 17.166 -146.5 41.499s-73.167 55.833 -96.5 94.5l77 49
c23.333 -36.667 52.666 -63.167 87.999 -79.5s73 -24.5 113 -24.5c45.333 0 81.833 10 109.5 30s41.5 48 41.5 84c0 20 -4.5 36.167 -13.5 48.5s-21.5 22.666 -37.5 30.999s-34.833 15.166 -56.5 20.499l-71.5 17c-28 6 -55.333 13.333 -82 22s-50.167 20 -70.5 34
s-36.666 31.667 -48.999 53s-18.5 47.666 -18.5 78.999c0 30 5.83301 56.667 17.5 80s27.834 43.166 48.501 59.499s45.334 28.666 74.001 36.999s59.667 12.5 93 12.5c50.667 0 97.667 -10 141 -30s79.666 -49.333 108.999 -88l-72 -51
c-21.333 28 -47.666 49.333 -78.999 64s-66 22 -104 22c-17.333 0 -34.166 -1.66699 -50.499 -5s-30.666 -8.83301 -42.999 -16.5s-22.166 -17.667 -29.499 -30s-11 -27.5 -11 -45.5s4 -32.667 12 -44s19 -20.833 33 -28.5s30.333 -14.167 49 -19.5s38.667 -10.333 60 -15
c32 -7.33301 62.833 -15.666 92.5 -24.999s55.834 -21.166 78.501 -35.499s40.834 -32.666 54.501 -54.999s20.5 -50.166 20.5 -83.499c0 -28.667 -5.16699 -54.834 -15.5 -78.501s-25.166 -44.167 -44.499 -61.5s-42.666 -31.333 -69.999 -42s-58 -17.334 -92 -20.001
c12 -10 21.5 -21.333 28.5 -34s10.5 -26.334 10.5 -41.001c0 -25.333 -9.83301 -45.5 -29.5 -60.5s-43.5 -22.5 -71.5 -22.5c-16 0 -30.833 2.33301 -44.5 7s-24.167 10.334 -31.5 17.001v60z" />
    <glyph glyph-name="scedilla" unicode="&#x15f;" horiz-adv-x="519" 
d="M159 -84c7.33301 -7.33301 16.666 -13.8281 27.999 -19.4951s23.333 -8.5 36 -8.5c13.333 0 24.833 3.83301 34.5 11.5s14.5 18.167 14.5 31.5c0 20 -11 39.333 -33 58c-46 3.33301 -86.5 14.166 -121.5 32.499s-63.167 44.166 -84.5 77.499l64 48
c20 -28 44.5 -49 73.5 -63s61.5 -21 97.5 -21c35.333 0 64.333 7 87 21s34 35 34 63c0 13.333 -3 24.166 -9 32.499s-14.833 15.333 -26.5 21s-26.5 10.5 -44.5 14.5s-39 8.33301 -63 13c-25.333 4.66699 -49.333 10.334 -72 17.001s-42.5 15.667 -59.5 27
s-30.333 25.666 -40 42.999s-14.5 38.666 -14.5 63.999c0 26.667 5.5 49.5 16.5 68.5s25.5 34.833 43.5 47.5s38.667 22 62 28s47.666 9 72.999 9c24.667 0 47.5 -2.5 68.5 -7.5s40.333 -11.667 58 -20s33.667 -17.666 48 -27.999s26.5 -20.833 36.5 -31.5l-58 -55
c-18.667 21.333 -41 37.833 -67 49.5s-55 17.5 -87 17.5c-14 0 -27.5 -1.33301 -40.5 -4s-24.667 -6.83398 -35 -12.501s-18.666 -12.834 -24.999 -21.501s-9.5 -19.334 -9.5 -32.001c0 -13.333 3.5 -24.333 10.5 -33s16.333 -15.667 28 -21s25.334 -9.83301 41.001 -13.5
s32.167 -7.16699 49.5 -10.5c26 -5.33301 51.167 -11.166 75.5 -17.499s46 -15 65 -26s34.167 -25.333 45.5 -43s17 -40.5 17 -68.5c0 -46 -15.667 -83.5 -47 -112.5s-75.333 -46.167 -132 -51.5c12 -10 21.5 -21.333 28.5 -34s10.5 -26.334 10.5 -41.001
c0 -25.333 -9.83301 -45.5 -29.5 -60.5s-43.5 -22.5 -71.5 -22.5c-16 0 -30.833 2.33301 -44.5 7s-24.167 10.334 -31.5 17.001v60z" />
    <glyph glyph-name="Scaron" unicode="&#x160;" horiz-adv-x="605" 
d="M298 678c50.667 0 97.6602 -9.99902 140.993 -29.999s79.666 -49.333 108.999 -88l-72 -51c-21.333 28 -47.666 49.333 -78.999 64s-66 22 -104 22c-17.333 0 -34.166 -1.66699 -50.499 -5s-30.666 -8.83301 -42.999 -16.5s-22.166 -17.667 -29.499 -30
s-11 -27.5 -11 -45.5s4 -32.667 12 -44s19 -20.833 33 -28.5s30.333 -14.167 49 -19.5s38.667 -10.333 60 -15c32 -7.33301 62.833 -15.666 92.5 -24.999s55.834 -21.166 78.501 -35.499s40.834 -32.666 54.501 -54.999s20.5 -50.166 20.5 -83.499
c0 -30.667 -6 -58.5 -18 -83.5s-29 -46.5 -51 -64.5s-48.5 -31.833 -79.5 -41.5s-65.833 -14.5 -104.5 -14.5c-63.333 0 -118 12.333 -164 37s-81.667 58 -107 100l77 49c23.333 -36.667 52.666 -63.167 87.999 -79.5s73 -24.5 113 -24.5c45.333 0 81.833 10 109.5 30
s41.5 48 41.5 84c0 20 -4.5 36.167 -13.5 48.5s-21.5 22.666 -37.5 30.999s-34.833 15.166 -56.5 20.499l-71.5 17c-28 6 -55.333 13.333 -82 22s-50.167 20 -70.5 34s-36.666 31.667 -48.999 53s-18.5 47.666 -18.5 78.999c0 30 5.83301 56.667 17.5 80
s27.834 43.166 48.501 59.499s45.334 28.666 74.001 36.999s59.667 12.5 93 12.5zM266.993 710.001c-18.667 17.333 -38.167 34.167 -58.5 50.5s-43.166 33.166 -68.499 50.499l25 42c25.333 -8.66699 50.166 -20 74.499 -34s44.833 -28.667 61.5 -44
c16.667 15.333 37.167 30 61.5 44s49.5 25.333 75.5 34l24 -42c-25.333 -17.333 -48 -34.166 -68 -50.499l-59 -50.5h-68z" />
    <glyph glyph-name="scaron" unicode="&#x161;" horiz-adv-x="518" 
d="M220 584c-18.667 17.333 -38.167 34.167 -58.5 50.5s-43.166 33.166 -68.499 50.499l25 42c25.333 -8.66699 50.166 -20 74.499 -34s44.833 -28.667 61.5 -44c16.667 15.333 37.167 30 61.5 44s49.5 25.333 75.5 34l24 -42c-25.333 -17.333 -48 -34.166 -68 -50.499
l-59 -50.5h-68zM475 154.001c0 -50 -18.6709 -90.1641 -56.0039 -120.497s-89.666 -45.5 -156.999 -45.5c-51.333 0 -96.666 9.5 -135.999 28.5s-70.666 46.5 -93.999 82.5l64 48c20 -28 44.5 -49 73.5 -63s61.5 -21 97.5 -21c35.333 0 64.333 7 87 21s34 35 34 63
c0 13.333 -3 24.166 -9 32.499s-14.833 15.333 -26.5 21s-26.5 10.5 -44.5 14.5s-39 8.33301 -63 13c-25.333 4.66699 -49.333 10.334 -72 17.001s-42.5 15.667 -59.5 27s-30.333 25.666 -40 42.999s-14.5 38.666 -14.5 63.999c0 26.667 5.5 49.5 16.5 68.5
s25.5 34.833 43.5 47.5s38.667 22 62 28s47.666 9 72.999 9c24.667 0 47.5 -2.5 68.5 -7.5s40.333 -11.667 58 -20s33.667 -17.666 48 -27.999s26.5 -20.833 36.5 -31.5l-58 -55c-18.667 21.333 -41 37.833 -67 49.5s-55 17.5 -87 17.5c-14 0 -27.5 -1.33301 -40.5 -4
s-24.667 -6.83398 -35 -12.501s-18.666 -12.834 -24.999 -21.501s-9.5 -19.334 -9.5 -32.001c0 -13.333 3.5 -24.333 10.5 -33s16.333 -15.667 28 -21s25.334 -9.83301 41.001 -13.5s32.167 -7.16699 49.5 -10.5c26 -5.33301 51.167 -11.166 75.5 -17.499s46 -15 65 -26
s34.167 -25.333 45.5 -43s17 -40.5 17 -68.5z" />
    <glyph glyph-name="Tcedilla" unicode="&#x162;" horiz-adv-x="601" 
d="M208 -84c7.33301 -7.33301 16.667 -13.835 28 -19.502s23.333 -8.5 36 -8.5c14 0 25.667 3.83301 35 11.5s14 18.5 14 32.5c0 16.667 -6.5 32.167 -19.5 46.5s-29.167 21.5 -48.5 21.5v580h-226v86h547v-86h-227v-580c8.66699 -10.667 17.167 -23.167 25.5 -37.5
s12.5 -30.166 12.5 -47.499c0 -25.333 -9.83301 -45.5 -29.5 -60.5s-43.5 -22.5 -71.5 -22.5c-16 0 -30.833 2.33301 -44.5 7s-24.167 10.334 -31.5 17.001v60z" />
    <glyph glyph-name="tcedilla" unicode="&#x163;" horiz-adv-x="402" 
d="M137 -84c7.33301 -7.33301 16.667 -13.8369 28 -19.5039s23.333 -8.5 36 -8.5c13.333 0 24.833 3.83301 34.5 11.5s14.5 18.167 14.5 31.5s-4.5 26.5 -13.5 39.5s-22.5 23.833 -40.5 32.5c-10.667 5.33301 -21 12.333 -31 21s-18.667 18.667 -26 30
c-8 12.667 -13.667 26.834 -17 42.501s-5 35.834 -5 60.501v291h-109v72h109v194h87v-194h168v-72h-168v-291c0 -60 26.667 -90 80 -90c15.333 0 28.5 2.33301 39.5 7s20.167 9.66699 27.5 15l37 -66c-30 -22 -67 -33.667 -111 -35
c11.333 -9.33301 20.333 -20.166 27 -32.499s10 -25.833 10 -40.5c0 -25.333 -9.83301 -45.5 -29.5 -60.5s-43.5 -22.5 -71.5 -22.5c-16 0 -30.833 2.33301 -44.5 7s-24.167 10.334 -31.5 17.001v60z" />
    <glyph glyph-name="Tcaron" unicode="&#x164;" horiz-adv-x="599" 
d="M346 580v-580h-94v580h-226v86h547v-86h-227zM264 710c-18.667 17.333 -38.167 34.167 -58.5 50.5s-43.166 33.166 -68.499 50.499l25 42c25.333 -8.66699 50.166 -20 74.499 -34s44.833 -28.667 61.5 -44c16.667 15.333 37.167 30 61.5 44s49.5 25.333 75.5 34l24 -42
c-25.333 -17.333 -48 -34.166 -68 -50.499l-59 -50.5h-68z" />
    <glyph glyph-name="tcaron" unicode="&#x165;" horiz-adv-x="402" 
d="M388 23c-30 -23.333 -67.667 -35.0029 -113 -35.0029c-30.667 0 -57.5 5.33301 -80.5 16s-41.5 27.334 -55.5 50.001c-8 12.667 -13.667 26.834 -17 42.501s-5 35.834 -5 60.501v291h-109v72h109v194h87v-194h168v-72h-168v-291c0 -60 26.667 -90 80 -90
c15.333 0 28.5 2.33301 39.5 7s20.167 9.66699 27.5 15zM379.349 690.726c0 -27.6299 -6.02637 -52.1592 -18.0762 -73.5869s-29.5225 -42.0098 -52.417 -61.7451l-28.9199 27.9121c12.0498 11.2783 21.5391 24.1064 28.4678 38.4854s10.3926 28.6172 10.3926 42.7139
c0 7.33105 -1.05469 13.8154 -3.16309 19.4541s-4.36719 11.2773 -6.77637 16.917c-2.41016 5.63867 -4.66992 11.418 -6.77832 17.3389s-3.16309 12.8281 -3.16309 20.7227v14.3789h80.4336v-62.5908z" />
    <glyph glyph-name="Tbar" unicode="&#x166;" horiz-adv-x="599" 
d="M346 316v-316h-94v316h-107v55h107v209h-226v86h547v-86h-227v-209h106v-55h-106z" />
    <glyph glyph-name="tbar" unicode="&#x167;" horiz-adv-x="402" 
d="M388 23c-30 -23.333 -67.667 -35.0029 -113 -35.0029c-30.667 0 -57.5 5.33301 -80.5 16s-41.5 27.334 -55.5 50.001c-8 12.667 -13.667 26.834 -17 42.501s-5 35.834 -5 60.501v109h-90v54h90v128h-109v72h109v194h87v-194h168v-72h-168v-128h124v-54h-124v-109
c0 -60 26.667 -90 80 -90c15.333 0 28.5 2.33301 39.5 7s20.167 9.66699 27.5 15z" />
    <glyph glyph-name="Utilde" unicode="&#x168;" horiz-adv-x="710" 
d="M628 250c0 -40 -6.83398 -76.167 -20.501 -108.5s-32.667 -59.833 -57 -82.5s-53.166 -40.167 -86.499 -52.5s-70 -18.5 -110 -18.5s-76.667 6.16699 -110 18.5s-62 29.833 -86 52.5s-42.667 50.167 -56 82.5s-20 68.5 -20 108.5v416h93v-416
c0 -53.333 15.667 -95.833 47 -127.5s75.333 -47.5 132 -47.5c56 0 100.167 15.833 132.5 47.5s48.5 74.167 48.5 127.5v416h93v-416zM516.999 805c-9.33301 -25.333 -22.499 -45.5 -39.499 -60.5s-35.833 -22.5 -56.5 -22.5c-11.333 0 -22.666 2 -33.999 6
s-22.5 8.33301 -33.5 13l-32 13c-10.333 4 -20.166 6 -29.499 6c-11.333 0 -22.333 -2.83301 -33 -8.5s-21.667 -15.167 -33 -28.5l-35 23c9.33301 25.333 22.5 45.5 39.5 60.5s35.833 22.5 56.5 22.5c11.333 0 22.666 -2 33.999 -6s22.5 -8.33301 33.5 -13l32 -13
c10.333 -4 20.5 -6 30.5 -6c11.333 0 22.166 2.83301 32.499 8.5s21.166 15.167 32.499 28.5z" />
    <glyph glyph-name="utilde" unicode="&#x169;" horiz-adv-x="597" 
d="M519 520v-520h-87v85c-22 -31.333 -47.667 -55.333 -77 -72s-63 -25 -101 -25c-56.667 0 -101.167 17.167 -133.5 51.5s-48.5 82.5 -48.5 144.5v336h87v-316c0 -15.333 1.5 -31 4.5 -47s8.66699 -30.5 17 -43.5s20 -23.667 35 -32s34.5 -12.5 58.5 -12.5
c22.667 0 43.667 3.83301 63 11.5s36 18.667 50 33s25 31.5 33 51.5s12 42 12 66v289h87zM460 679c-9.33301 -25.333 -22.499 -45.5 -39.499 -60.5s-35.833 -22.5 -56.5 -22.5c-11.333 0 -22.666 2 -33.999 6s-22.5 8.33301 -33.5 13l-32 13c-10.333 4 -20.166 6 -29.499 6
c-11.333 0 -22.333 -2.83301 -33 -8.5s-21.667 -15.167 -33 -28.5l-35 23c9.33301 25.333 22.5 45.5 39.5 60.5s35.833 22.5 56.5 22.5c11.333 0 22.666 -2 33.999 -6s22.5 -8.33301 33.5 -13l32 -13c10.333 -4 20.5 -6 30.5 -6c11.333 0 22.166 2.83301 32.499 8.5
s21.166 15.167 32.499 28.5z" />
    <glyph glyph-name="Umacron" unicode="&#x16a;" horiz-adv-x="710" 
d="M628 250c0 -40 -6.83398 -76.167 -20.501 -108.5s-32.667 -59.833 -57 -82.5s-53.166 -40.167 -86.499 -52.5s-70 -18.5 -110 -18.5s-76.667 6.16699 -110 18.5s-62 29.833 -86 52.5s-42.667 50.167 -56 82.5s-20 68.5 -20 108.5v416h93v-416
c0 -53.333 15.667 -95.833 47 -127.5s75.333 -47.5 132 -47.5c56 0 100.167 15.833 132.5 47.5s48.5 74.167 48.5 127.5v416h93v-416zM204.999 734v58h300v-58h-300z" />
    <glyph glyph-name="umacron" unicode="&#x16b;" horiz-adv-x="597" 
d="M519 520v-520h-87v85c-22 -31.333 -47.667 -55.333 -77 -72s-63 -25 -101 -25c-56.667 0 -101.167 17.167 -133.5 51.5s-48.5 82.5 -48.5 144.5v336h87v-316c0 -15.333 1.5 -31 4.5 -47s8.66699 -30.5 17 -43.5s20 -23.667 35 -32s34.5 -12.5 58.5 -12.5
c22.667 0 43.667 3.83301 63 11.5s36 18.667 50 33s25 31.5 33 51.5s12 42 12 66v289h87zM146 608v58h300v-58h-300z" />
    <glyph glyph-name="Ubreve" unicode="&#x16c;" horiz-adv-x="710" 
d="M628 250c0 -40 -6.83398 -76.167 -20.501 -108.5s-32.667 -59.833 -57 -82.5s-53.166 -40.167 -86.499 -52.5s-70 -18.5 -110 -18.5s-76.667 6.16699 -110 18.5s-62 29.833 -86 52.5s-42.667 50.167 -56 82.5s-20 68.5 -20 108.5v416h93v-416
c0 -53.333 15.667 -95.833 47 -127.5s75.333 -47.5 132 -47.5c56 0 100.167 15.833 132.5 47.5s48.5 74.167 48.5 127.5v416h93v-416zM354.999 717c-44.667 0 -80.6689 11.167 -108.002 33.5s-43.666 50.166 -48.999 83.499l51 15c5.33301 -19.333 17 -35.5 35 -48.5
s41.667 -19.5 71 -19.5s53 6.5 71 19.5s29.667 29.167 35 48.5l50 -15c-2.66699 -16.667 -8.16699 -32.167 -16.5 -46.5s-19.166 -26.666 -32.499 -36.999s-29 -18.5 -47 -24.5s-38 -9 -60 -9z" />
    <glyph glyph-name="ubreve" unicode="&#x16d;" horiz-adv-x="597" 
d="M519 520v-520h-87v85c-22 -31.333 -47.667 -55.333 -77 -72s-63 -25 -101 -25c-56.667 0 -101.167 17.167 -133.5 51.5s-48.5 82.5 -48.5 144.5v336h87v-316c0 -15.333 1.5 -31 4.5 -47s8.66699 -30.5 17 -43.5s20 -23.667 35 -32s34.5 -12.5 58.5 -12.5
c22.667 0 43.667 3.83301 63 11.5s36 18.667 50 33s25 31.5 33 51.5s12 42 12 66v289h87zM296 591c-44.667 0 -80.6689 11.167 -108.002 33.5s-43.666 50.166 -48.999 83.499l51 15c5.33301 -19.333 17 -35.5 35 -48.5s41.667 -19.5 71 -19.5s53 6.5 71 19.5
s29.667 29.167 35 48.5l50 -15c-2.66699 -16.667 -8.16699 -32.167 -16.5 -46.5s-19.166 -26.666 -32.499 -36.999s-29 -18.5 -47 -24.5s-38 -9 -60 -9z" />
    <glyph glyph-name="Uring" unicode="&#x16e;" horiz-adv-x="710" 
d="M628 250c0 -40 -6.83398 -76.167 -20.501 -108.5s-32.667 -59.833 -57 -82.5s-53.166 -40.167 -86.499 -52.5s-70 -18.5 -110 -18.5s-76.667 6.16699 -110 18.5s-62 29.833 -86 52.5s-42.667 50.167 -56 82.5s-20 68.5 -20 108.5v416h93v-416
c0 -53.333 15.667 -95.833 47 -127.5s75.333 -47.5 132 -47.5c56 0 100.167 15.833 132.5 47.5s48.5 74.167 48.5 127.5v416h93v-416zM460.999 779c0 -14 -2.66699 -27.167 -8 -39.5s-12.833 -23.166 -22.5 -32.499s-21 -16.666 -34 -21.999s-26.833 -8 -41.5 -8
c-15.333 0 -29.333 2.66699 -42 8s-23.834 12.666 -33.501 21.999s-17.167 20.166 -22.5 32.499s-8 25.5 -8 39.5s2.66699 27.167 8 39.5s12.833 23.333 22.5 33s20.834 17.167 33.501 22.5s26.667 8 42 8c14.667 0 28.5 -2.66699 41.5 -8s24.333 -12.833 34 -22.5
s17.167 -20.667 22.5 -33s8 -25.5 8 -39.5zM410.999 779c0 15.333 -5.5 28.666 -16.5 39.999s-24.167 17 -39.5 17s-28.666 -5.66699 -39.999 -17s-17 -24.666 -17 -39.999c0 -16 5.66699 -29.5 17 -40.5s24.666 -16.5 39.999 -16.5s28.5 5.5 39.5 16.5s16.5 24.5 16.5 40.5
z" />
    <glyph glyph-name="uring" unicode="&#x16f;" horiz-adv-x="597" 
d="M519 520v-520h-87v85c-22 -31.333 -47.667 -55.333 -77 -72s-63 -25 -101 -25c-56.667 0 -101.167 17.167 -133.5 51.5s-48.5 82.5 -48.5 144.5v336h87v-316c0 -15.333 1.5 -31 4.5 -47s8.66699 -30.5 17 -43.5s20 -23.667 35 -32s34.5 -12.5 58.5 -12.5
c22.667 0 43.667 3.83301 63 11.5s36 18.667 50 33s25 31.5 33 51.5s12 42 12 66v289h87zM401 679c0 -14 -2.66699 -27.167 -8 -39.5s-12.833 -23.166 -22.5 -32.499s-21 -16.666 -34 -21.999s-26.833 -8 -41.5 -8c-15.333 0 -29.333 2.66699 -42 8
s-23.834 12.666 -33.501 21.999s-17.167 20.166 -22.5 32.499s-8 25.5 -8 39.5s2.66699 27.167 8 39.5s12.833 23.333 22.5 33s20.834 17.167 33.501 22.5s26.667 8 42 8c14.667 0 28.5 -2.66699 41.5 -8s24.333 -12.833 34 -22.5s17.167 -20.667 22.5 -33s8 -25.5 8 -39.5z
M351 679c0 15.333 -5.5 28.666 -16.5 39.999s-24.167 17 -39.5 17s-28.666 -5.66699 -39.999 -17s-17 -24.666 -17 -39.999c0 -16 5.66699 -29.5 17 -40.5s24.666 -16.5 39.999 -16.5s28.5 5.5 39.5 16.5s16.5 24.5 16.5 40.5z" />
    <glyph glyph-name="Uhungarumlaut" unicode="&#x170;" horiz-adv-x="710" 
d="M628 250c0 -40 -6.83398 -76.167 -20.501 -108.5s-32.667 -59.833 -57 -82.5s-53.166 -40.167 -86.499 -52.5s-70 -18.5 -110 -18.5s-76.667 6.16699 -110 18.5s-62 29.833 -86 52.5s-42.667 50.167 -56 82.5s-20 68.5 -20 108.5v416h93v-416
c0 -53.333 15.667 -95.833 47 -127.5s75.333 -47.5 132 -47.5c56 0 100.167 15.833 132.5 47.5s48.5 74.167 48.5 127.5v416h93v-416zM229.999 733c16 17.333 32.332 37.333 48.999 60s29.667 42.667 39 60l81 -13c-5.33301 -11.333 -12.666 -23.333 -21.999 -36
s-20.333 -25 -33 -37s-26 -23.5 -40 -34.5s-28 -20.5 -42 -28.5zM385.998 733c8 8.66699 16.165 18.167 24.498 28.5l24.5 31.5c8 10.667 15.5 21.167 22.5 31.5s12.833 19.833 17.5 28.5l80 -13c-5.33301 -11.333 -12.666 -23.333 -21.999 -36s-20.166 -25 -32.499 -37
s-25.5 -23.5 -39.5 -34.5s-28 -20.5 -42 -28.5z" />
    <glyph glyph-name="uhungarumlaut" unicode="&#x171;" horiz-adv-x="597" 
d="M519 520v-520h-87v85c-22 -31.333 -47.667 -55.333 -77 -72s-63 -25 -101 -25c-56.667 0 -101.167 17.167 -133.5 51.5s-48.5 82.5 -48.5 144.5v336h87v-316c0 -15.333 1.5 -31 4.5 -47s8.66699 -30.5 17 -43.5s20 -23.667 35 -32s34.5 -12.5 58.5 -12.5
c22.667 0 43.667 3.83301 63 11.5s36 18.667 50 33s25 31.5 33 51.5s12 42 12 66v289h87zM173 607c16 17.333 32.332 37.333 48.999 60s29.667 42.667 39 60l81 -13c-5.33301 -11.333 -12.666 -23.333 -21.999 -36s-20.333 -25 -33 -37s-26 -23.5 -40 -34.5
s-28 -20.5 -42 -28.5zM328.999 607c8 8.66699 16.165 18.167 24.498 28.5l24.5 31.5c8 10.667 15.5 21.167 22.5 31.5s12.833 19.833 17.5 28.5l80 -13c-5.33301 -11.333 -12.666 -23.333 -21.999 -36s-20.166 -25 -32.499 -37s-25.5 -23.5 -39.5 -34.5s-28 -20.5 -42 -28.5
z" />
    <glyph glyph-name="Uogonek" unicode="&#x172;" horiz-adv-x="710" 
d="M628 251c0 -30 -3.33203 -56.333 -9.99902 -79s-15.5 -42.834 -26.5 -60.501s-23.667 -33.167 -38 -46.5s-29.5 -25.666 -45.5 -36.999c-6.66699 -4.66699 -14 -10.167 -22 -16.5s-15.333 -13.5 -22 -21.5s-12.334 -16.667 -17.001 -26s-7 -19.666 -7 -30.999
c0 -15.333 4.66699 -26.833 14 -34.5s21.333 -11.5 36 -11.5c15.333 0 28.333 3.66699 39 11s20 15.666 28 24.999v-69c-7.33301 -7.33301 -17.833 -14 -31.5 -20s-30.167 -9 -49.5 -9c-26.667 0 -50.167 7 -70.5 21s-30.5 35 -30.5 63c0 14 3.16699 28.333 9.5 43
s17.166 29 32.499 43c-10 -2 -20.167 -3.66699 -30.5 -5s-22.166 -2 -35.499 -2c-38.667 0 -74.5 6.16699 -107.5 18.5s-61.5 29.833 -85.5 52.5s-42.667 50.167 -56 82.5s-20 68.833 -20 109.5v415h93v-415c0 -54 15.667 -96.833 47 -128.5s75.333 -47.5 132 -47.5
c56 0 100.167 15.833 132.5 47.5s48.5 74.5 48.5 128.5v415h93v-415z" />
    <glyph glyph-name="uogonek" unicode="&#x173;" horiz-adv-x="597" 
d="M432 85c-21.333 -31.333 -46.832 -55.332 -76.499 -71.999s-63.5 -25 -101.5 -25c-30.667 0 -57.5 5.16699 -80.5 15.5s-42 24.5 -57 42.5s-26.167 38.833 -33.5 62.5s-11 48.834 -11 75.501v336h87v-311c0 -20.667 2.16699 -39.5 6.5 -56.5s11.166 -31.667 20.499 -44
s21.333 -22 36 -29s32.667 -10.5 54 -10.5c22 0 42.5 3.83301 61.5 11.5s35.5 18.667 49.5 33s25 31.5 33 51.5s12 42 12 66v289h87v-520c-9.33301 -1.33301 -19.666 -3.83301 -30.999 -7.5s-21.833 -8.33398 -31.5 -14.001s-17.834 -12.667 -24.501 -21
s-10 -17.833 -10 -28.5c0 -12 4.33301 -22 13 -30s20.667 -12 36 -12c14 0 26 3.33301 36 10s18.667 14 26 22v-67c-7.33301 -7.33301 -17.5 -13.666 -30.5 -18.999s-27.5 -8 -43.5 -8c-28 0 -51.5 7.83301 -70.5 23.5s-28.5 35.5 -28.5 59.5
c0 17.333 5.5 34.666 16.5 51.999s29.5 30.666 55.5 39.999v85z" />
    <glyph glyph-name="Wcircumflex" unicode="&#x174;" horiz-adv-x="942" 
d="M731 0h-104l-156 540l-156 -540h-107l-182 666h99l142 -547l161 547h90l161 -549l141 549h97zM506 851l59 -50.499c20 -16.333 42.667 -33.166 68 -50.499l-24 -42c-26 8.66699 -51.167 20.167 -75.5 34.5s-44.833 29.166 -61.5 44.499
c-16.667 -15.333 -37.167 -30.166 -61.5 -44.499s-49.166 -25.833 -74.499 -34.5l-25 42c25.333 17.333 48.166 34.166 68.499 50.499s39.833 33.166 58.5 50.499h68z" />
    <glyph glyph-name="wcircumflex" unicode="&#x175;" horiz-adv-x="788" 
d="M616 0h-95l-126 408l-128 -408h-95l-144 520h93l105 -415l130 415h80l129 -415l106 415h89zM430 725l59 -50.499c20 -16.333 42.667 -33.166 68 -50.499l-24 -42c-26 8.66699 -51.167 20.167 -75.5 34.5s-44.833 29.166 -61.5 44.499
c-16.667 -15.333 -37.167 -30.166 -61.5 -44.499s-49.166 -25.833 -74.499 -34.5l-25 42c25.333 17.333 48.166 34.166 68.499 50.499s39.833 33.166 58.5 50.499h68z" />
    <glyph glyph-name="Ycircumflex" unicode="&#x176;" horiz-adv-x="614" 
d="M342 851l59 -50.499c20 -16.333 42.667 -33.166 68 -50.499l-24 -42c-26 8.66699 -51.167 20.167 -75.5 34.5s-44.833 29.166 -61.5 44.499c-16.667 -15.333 -37.167 -30.166 -61.5 -44.499s-49.166 -25.833 -74.499 -34.5l-25 42
c25.333 17.333 48.166 34.166 68.499 50.499s39.833 33.166 58.5 50.499h68zM354 272.001v-272h-94v271l-254 395h110l193 -310l195 310h106z" />
    <glyph glyph-name="ycircumflex" unicode="&#x177;" horiz-adv-x="598" 
d="M433 122c-22 -31.333 -47.665 -55.333 -76.998 -72s-63 -25 -101 -25c-56.667 0 -101.167 17.167 -133.5 51.5s-48.5 82.833 -48.5 145.5v298h87v-278c0 -15.333 1.5 -31 4.5 -47s8.66699 -30.5 17 -43.5s20 -23.667 35 -32s34.5 -12.5 58.5 -12.5
c22.667 0 43.667 3.83301 63 11.5s36 18.667 50 33s25 31.5 33 51.5s12 42 12 66v251h87v-458c0 -35.333 -3.83301 -67 -11.5 -95s-21.5 -53 -41.5 -75c-21.333 -24 -48.833 -42.667 -82.5 -56s-73.5 -20 -119.5 -20c-41.333 0 -78.333 5.5 -111 16.5
s-62.334 26.167 -89.001 45.5l43 69c24 -19.333 49.667 -32.833 77 -40.5s54.666 -11.5 81.999 -11.5c22 0 43.167 2.66699 63.5 8s38 14 53 26s27 27.5 36 46.5s13.5 42.167 13.5 69.5v77zM329.002 725l59 -50.499c20 -16.333 42.667 -33.166 68 -50.499l-24 -42
c-26 8.66699 -51.167 20.167 -75.5 34.5s-44.833 29.166 -61.5 44.499c-16.667 -15.333 -37.167 -30.166 -61.5 -44.499s-49.166 -25.833 -74.499 -34.5l-25 42c25.333 17.333 48.166 34.166 68.499 50.499s39.833 33.166 58.5 50.499h68z" />
    <glyph glyph-name="Ydieresis" unicode="&#x178;" horiz-adv-x="614" 
d="M354 272v-272h-94v271l-254 395h110l193 -310l195 310h106zM164 723v78h76v-78h-76zM374 723v78h75v-78h-75z" />
    <glyph glyph-name="Zacute" unicode="&#x179;" horiz-adv-x="602" 
d="M41 0v78l387 502h-372v86h494v-76l-389 -504h397v-86h-517zM238 733c8 8.66699 16.166 18.167 24.499 28.5l24.5 31.5c8 10.667 15.5 21.167 22.5 31.5s12.833 19.833 17.5 28.5l83 -13c-5.33301 -11.333 -12.666 -23.333 -21.999 -36s-20.333 -25 -33 -37
s-26 -23.5 -40 -34.5s-28 -20.5 -42 -28.5z" />
    <glyph glyph-name="zacute" unicode="&#x17a;" horiz-adv-x="508" 
d="M40 0v71l302 371h-289v78h404v-70l-304 -373h313v-77h-426zM209 605c14 17.333 27.833 37.332 41.5 59.999s24.5 43.334 32.5 62.001l83 -13c-10.667 -23.333 -27 -47.333 -49 -72s-46.667 -46 -74 -64z" />
    <glyph glyph-name="Zdotaccent" unicode="&#x17b;" horiz-adv-x="602" 
d="M41 0v78l387 502h-372v86h494v-76l-389 -504h397v-86h-517zM249 724v77h78v-77h-78z" />
    <glyph glyph-name="zdotaccent" unicode="&#x17c;" horiz-adv-x="508" 
d="M40 0v71l302 371h-289v78h404v-70l-304 -373h313v-77h-426zM212 598v77h78v-77h-78z" />
    <glyph glyph-name="Zcaron" unicode="&#x17d;" horiz-adv-x="602" 
d="M41 0v78l387 502h-372v86h494v-76l-389 -504h397v-86h-517zM257 710c-18.667 17.333 -38.167 34.167 -58.5 50.5s-43.166 33.166 -68.499 50.499l25 42c25.333 -8.66699 50.166 -20 74.499 -34s44.833 -28.667 61.5 -44c16.667 15.333 37.167 30 61.5 44
s49.5 25.333 75.5 34l24 -42c-25.333 -17.333 -48 -34.166 -68 -50.499l-59 -50.5h-68z" />
    <glyph glyph-name="zcaron" unicode="&#x17e;" horiz-adv-x="508" 
d="M40 0v71l302 371h-289v78h404v-70l-304 -373h313v-77h-426zM212 584c-18.667 17.333 -38.167 34.167 -58.5 50.5s-43.166 33.166 -68.499 50.499l25 42c25.333 -8.66699 50.166 -20 74.499 -34s44.833 -28.667 61.5 -44c16.667 15.333 37.167 30 61.5 44
s49.5 25.333 75.5 34l24 -42c-25.333 -17.333 -48 -34.166 -68 -50.499l-59 -50.5h-68z" />
    <glyph glyph-name="florin" unicode="&#x192;" 
d="M503 590c-9.33301 4 -17.8311 7 -25.498 9s-17.167 3 -28.5 3c-32.667 0 -56.834 -7.5 -72.501 -22.5s-25.834 -36.5 -30.501 -64.5l-16 -99h130l-13 -70h-130l-50 -294c-4 -24.667 -10.833 -47.334 -20.5 -68.001s-22 -38.334 -37 -53.001s-33 -26.167 -54 -34.5
s-45.5 -12.5 -73.5 -12.5c-17.333 0 -33.166 1.5 -47.499 4.5s-27.166 7.16699 -38.499 12.5l28 71c8.66699 -3.33301 17.667 -6.16602 27 -8.49902s19.666 -3.5 30.999 -3.5c30 0 52.667 7.66699 68 23s25.666 37 30.999 65l51 298h-101l12 70h102l16 95
c8 50.667 27.167 91.334 57.5 122.001s72.833 46 127.5 46c17.333 0 33 -1.5 47 -4.5s26.333 -7.16699 37 -12.5z" />
    <glyph glyph-name="Aringacute" unicode="&#x1fa;" horiz-adv-x="663" 
d="M389 717c0 16 -5.33301 29.833 -16 41.5s-24 17.5 -40 17.5c-16.667 0 -30.5 -5.83301 -41.5 -17.5s-16.5 -25.5 -16.5 -41.5s5.5 -29.5 16.5 -40.5s24.833 -16.5 41.5 -16.5c16 0 29.333 5.5 40 16.5s16 24.5 16 40.5zM331 575l-120 -308h237zM550 0l-71.001 185h-300
l-72 -185h-98l258 634c-13.333 9.33301 -24.333 21.333 -33 36s-13 30.667 -13 48c0 14.667 2.83301 28.5 8.5 41.5s13.5 24.333 23.5 34s21.833 17.334 35.5 23.001s28.167 8.5 43.5 8.5s29.833 -2.83301 43.5 -8.5s25.5 -13.334 35.5 -23.001s18 -21 24 -34
s9 -26.833 9 -41.5c0 -17.333 -4.66699 -33.333 -14 -48s-20.666 -26.667 -33.999 -36l259 -634h-105zM268.999 869c8 8.66699 16.166 18.167 24.499 28.5l24.5 31.5c8 10.667 15.5 21.167 22.5 31.5s12.833 19.833 17.5 28.5l83 -13
c-5.33301 -11.333 -12.666 -23.333 -21.999 -36s-20.333 -25 -33 -37s-26 -23.5 -40 -34.5s-28 -20.5 -42 -28.5z" />
    </font>
</defs>
</svg>
