<?xml version="1.0" standalone="no"?>
<!DOCTYPE svg PUBLIC "-//W3C//DTD SVG 1.1//EN" "http://www.w3.org/Graphics/SVG/1.1/DTD/svg11.dtd" >
<svg>
<metadata>
Created by FontForge 20090914 at Fri Aug 23 05:13:49 2013
 By www-data
Copyright (c) 2012 ARS Type. All rights reserved. 
</metadata>
<defs>
<font id="APLetter-Bold" horiz-adv-x="599" >
  <font-face 
    font-family="AP Letter"
    font-weight="700"
    font-stretch="normal"
    units-per-em="1000"
    panose-1="2 0 9 3 4 0 0 2 0 4"
    ascent="800"
    descent="-200"
    x-height="533.998"
    cap-height="666"
    bbox="-150 -200.004 1243 999.002"
    underline-thickness="50"
    underline-position="-50"
    unicode-range="U+0002-U+1F698"
  />
<missing-glyph horiz-adv-x="574" 
d="M40 667h494v-667h-494v667zM88 637l416 -581v581h-416zM70 30h415l-415 581v-581z" />
    <glyph glyph-name="f_f" unicode="ff" horiz-adv-x="737" 
d="M725 597c-6 2 -14.333 4.3291 -25 6.99609s-22.667 4 -36 4c-19.333 0 -33.833 -3.66699 -43.5 -11s-14.5 -19.666 -14.5 -36.999v-26h111v-116h-111v-418h-153v418h-198v-418h-153v418h-83v116h83v22c0 24.667 4 47.334 12 68.001s20.167 38.5 36.5 53.5
s36.5 26.667 60.5 35s52 12.5 84 12.5c17.333 0 34 -0.833008 50 -2.5s31 -4.5 45 -8.5l-16 -117c-6 2 -14.333 4.33301 -25 7s-22.667 4 -36 4c-19.333 0 -33.833 -3.66699 -43.5 -11s-14.5 -19.666 -14.5 -36.999v-26h198v22c0 24.667 4 47.334 12 68.001
s20.167 38.5 36.5 53.5s36.5 26.667 60.5 35s52 12.5 84 12.5c17.333 0 34 -0.833008 50 -2.5s31 -4.5 45 -8.5z" />
    <glyph glyph-name="fi" unicode="fi" horiz-adv-x="663" 
d="M374 597c-6 2 -14.333 4.33105 -25 6.99805s-22.667 4 -36 4c-19.333 0 -33.833 -3.66699 -43.5 -11s-14.5 -19.666 -14.5 -36.999v-26h111v-116h-111v-418h-153v418h-83v116h83v22c0 24.667 4 47.334 12 68.001s20.167 38.5 36.5 53.5s36.5 26.667 60.5 35
s52 12.5 84 12.5c17.333 0 34 -0.833008 50 -2.5s31 -4.5 45 -8.5zM447 -0.00195312v534h153v-534h-153zM447 599.998v114h153v-114h-153z" />
    <glyph glyph-name="fl" unicode="fl" horiz-adv-x="665" 
d="M374 597c-6 2 -14.333 4.33105 -25 6.99805s-22.667 4 -36 4c-19.333 0 -33.833 -3.66699 -43.5 -11s-14.5 -19.666 -14.5 -36.999v-26h111v-116h-111v-418h-153v418h-83v116h83v22c0 24.667 4 47.334 12 68.001s20.167 38.5 36.5 53.5s36.5 26.667 60.5 35
s52 12.5 84 12.5c17.333 0 34 -0.833008 50 -2.5s31 -4.5 45 -8.5zM448 -0.00195312v714h153v-714h-153z" />
    <glyph glyph-name="f_j" unicode="fj" horiz-adv-x="669" 
d="M374 597c-6 2 -14.333 4.33105 -25 6.99805s-22.667 4 -36 4c-19.333 0 -33.833 -3.66699 -43.5 -11s-14.5 -19.666 -14.5 -36.999v-26h111v-116h-111v-418h-153v418h-83v116h83v22c0 24.667 4 47.334 12 68.001s20.167 38.5 36.5 53.5s36.5 26.667 60.5 35
s52 12.5 84 12.5c17.333 0 34 -0.833008 50 -2.5s31 -4.5 45 -8.5zM606 14.998c0 -67.333 -17.501 -117 -52.501 -149s-81.5 -48 -139.5 -48c-20 0 -40.333 2.33301 -61 7s-38.667 11.667 -54 21l42 112c7.33301 -4 15.333 -7.33301 24 -10s18.334 -4 29.001 -4
c20.667 0 35.5 5.66699 44.5 17s13.5 28.333 13.5 51v522h154v-519zM451.999 599.998v114h154v-114h-154z" />
    <glyph glyph-name=".notdef" horiz-adv-x="574" 
d="M40 667h494v-667h-494v667zM88 637l416 -581v581h-416zM70 30h415l-415 581v-581z" />
    <glyph glyph-name="NULL" horiz-adv-x="0" 
 />
    <glyph glyph-name="uni0002" horiz-adv-x="270" 
 />
    <glyph glyph-name="nonmarkingreturn" unicode="&#xd;" horiz-adv-x="270" 
 />
    <glyph glyph-name="space" unicode=" " horiz-adv-x="270" 
 />
    <glyph glyph-name="exclam" unicode="!" horiz-adv-x="298" 
d="M189 223h-80l-42 281v162h164v-162zM67 0v150h164v-150h-164z" />
    <glyph glyph-name="quotedbl" unicode="&#x22;" horiz-adv-x="470" 
d="M392 379h-78l-44 240v47h166v-47zM156 379h-78l-44 240v47h166v-47z" />
    <glyph glyph-name="numbersign" unicode="#" horiz-adv-x="649" 
d="M488 401l-24 -135h109v-86h-125l-33 -180h-97l33 180h-109l-33 -180h-97l32 180h-108v86h124l25 135h-109v87h125l33 178h97l-33 -178h109l33 178h97l-33 -178h109v-87h-125zM282 401l-24 -135h109l25 135h-110z" />
    <glyph glyph-name="dollar" unicode="$" 
d="M283 -95v83.998c-60.667 3.33301 -113.334 19.333 -158.001 48s-78.667 68 -102 118l122 57c15.333 -34 35.166 -58.667 59.499 -74s50.5 -24.666 78.5 -27.999v160c-22 4.66699 -46 11.334 -72 20.001s-50.333 21 -73 37s-41.5 36.333 -56.5 61s-22.5 55 -22.5 91
c0 29.333 5.33301 56 16 80s25.834 44.667 45.501 62s43.167 30.833 70.5 40.5s58 15.167 92 16.5v54h60v-57c40.667 -5.33301 79.667 -18.333 117 -39s68.666 -51.667 93.999 -93l-109 -63c-15.333 20 -30.833 35.5 -46.5 46.5s-34.167 19.167 -55.5 24.5v-143
c25.333 -6 51.333 -14 78 -24s50.834 -23.167 72.501 -39.5s39.334 -36.333 53.001 -60s20.5 -52.167 20.5 -85.5c0 -27.333 -5 -53 -15 -77s-24.5 -45.333 -43.5 -64s-42.333 -34 -70 -46s-59.5 -19.333 -95.5 -22v-85h-60zM427 182.998c0 22 -7.66895 38.333 -23.002 49
s-35.666 18.667 -60.999 24v-148c28.667 3.33301 49.834 11.5 63.501 24.5s20.5 29.833 20.5 50.5zM200.998 491.998c0 -20.667 7.33301 -36 22 -46s34.667 -18.333 60 -25v135c-10.667 -0.666992 -21 -2.16699 -31 -4.5s-18.667 -6 -26 -11s-13.333 -11.5 -18 -19.5
s-7 -17.667 -7 -29z" />
    <glyph glyph-name="percent" unicode="%" horiz-adv-x="805" 
d="M380 500c0 -24 -4.5 -46.667 -13.5 -68s-21.167 -39.833 -36.5 -55.5s-33.666 -28 -54.999 -37s-44 -13.5 -68 -13.5c-24.667 0 -47.5 4.5 -68.5 13.5s-39.333 21.333 -55 37s-28 34.167 -37 55.5s-13.5 44 -13.5 68c0 24.667 4.5 47.667 13.5 69s21.333 39.833 37 55.5
s34 28 55 37s43.833 13.5 68.5 13.5c24 0 46.667 -4.5 68 -13.5s39.666 -21.333 54.999 -37s27.5 -34.167 36.5 -55.5s13.5 -44.333 13.5 -69zM282 0h-115l355 666h116zM772 166c0 -24.667 -4.5 -47.667 -13.5 -69s-21.333 -39.833 -37 -55.5s-34 -28 -55 -37
s-43.833 -13.5 -68.5 -13.5c-24 0 -46.667 4.5 -68 13.5s-39.666 21.333 -54.999 37s-27.5 34.167 -36.5 55.5s-13.5 44.333 -13.5 69c0 24 4.5 46.667 13.5 68s21.167 39.833 36.5 55.5s33.666 28 54.999 37s44 13.5 68 13.5c24.667 0 47.5 -4.5 68.5 -13.5
s39.333 -21.333 55 -37s28 -34.167 37 -55.5s13.5 -44 13.5 -68zM280 500c0 21.333 -6.83301 39.166 -20.5 53.499s-31.167 21.5 -52.5 21.5s-39 -7.16699 -53 -21.5s-21 -32.166 -21 -53.499s7 -39.166 21 -53.499s31.667 -21.5 53 -21.5s38.833 7.16699 52.5 21.5
s20.5 32.166 20.5 53.499zM672 166c0 21.333 -7 39 -21 53s-31.667 21 -53 21s-38.833 -7 -52.5 -21s-20.5 -31.667 -20.5 -53s6.83301 -39.166 20.5 -53.499s31.167 -21.5 52.5 -21.5s39 7.16699 53 21.5s21 32.166 21 53.499z" />
    <glyph glyph-name="ampersand" unicode="&#x26;" horiz-adv-x="712" 
d="M661 305c-8.66699 -30.667 -20.8359 -60.8301 -36.5029 -90.4971s-32.834 -55.167 -51.501 -76.5l136 -138h-200l-44 45c-28 -18 -58.167 -32 -90.5 -42s-67.166 -15 -104.499 -15c-34 0 -66 4.33301 -96 13s-56.167 21.167 -78.5 37.5s-40.166 36.666 -53.499 60.999
s-20 52.5 -20 84.5c0 23.333 3.66699 44.333 11 63s17.333 35.334 30 50.001s27.667 27.667 45 39s36 21.333 56 30c-21.333 24 -37.166 46.5 -47.499 67.5s-15.5 45.5 -15.5 73.5s5.33301 52.667 16 74s25.334 39.166 44.001 53.499s41 25.166 67 32.499s54 11 84 11
c27.333 0 53.333 -3.16699 78 -9.5s46.5 -16 65.5 -29s34.167 -29.5 45.5 -49.5s17 -44 17 -72c0 -22.667 -3.83301 -43 -11.5 -61s-18 -34.167 -31 -48.5s-28.167 -27 -45.5 -38s-36 -21.167 -56 -30.5l110 -112c9.33301 14.667 18.5 31.167 27.5 49.5
s16.167 37.166 21.5 56.499zM287.998 109.004c32.667 0 63.333 9 92 27l-145 153c-18.667 -10 -34 -21.667 -46 -35s-18 -30.666 -18 -51.999c0 -26.667 10.5 -48.834 31.5 -66.501s49.5 -26.5 85.5 -26.5zM389.997 511.004c0 19.333 -6.83301 34.667 -20.5 46
s-31.5 17 -53.5 17c-20.667 0 -38.5 -5.16699 -53.5 -15.5s-22.5 -26.166 -22.5 -47.499c0 -18 5.5 -34.333 16.5 -49s25.167 -30.334 42.5 -47.001c28.667 13.333 51 27.5 67 42.5s24 32.833 24 53.5z" />
    <glyph glyph-name="quotesingle" unicode="'" horiz-adv-x="234" 
d="M156 379h-78l-44 240v47h166v-47z" />
    <glyph glyph-name="parenleft" unicode="(" horiz-adv-x="310" 
d="M204 -124c-34 38.667 -62.167 76.835 -84.5 114.502s-40.166 74.334 -53.499 110.001s-22.833 70.5 -28.5 104.5s-8.5 66.667 -8.5 98s2.83301 64 8.5 98s15.167 68.833 28.5 104.5s31.166 72.167 53.499 109.5s50.5 75.666 84.5 114.999l90 -58
c-26.667 -34.667 -48.834 -67.834 -66.501 -99.501s-31.667 -62.667 -42 -93s-17.666 -60 -21.999 -89s-6.5 -58.167 -6.5 -87.5s2.16699 -58.5 6.5 -87.5s11.666 -58.667 21.999 -89s24.333 -61.333 42 -93s39.834 -64.834 66.501 -99.501z" />
    <glyph glyph-name="parenright" unicode=")" horiz-adv-x="310" 
d="M106 730c34 -39.333 62.167 -77.8311 84.5 -115.498s40.166 -74.334 53.499 -110.001s22.833 -70.334 28.5 -104.001s8.5 -66.167 8.5 -97.5s-2.83301 -64 -8.5 -98s-15.167 -68.833 -28.5 -104.5s-31.166 -72.334 -53.499 -110.001s-50.5 -75.834 -84.5 -114.501l-90 58
c26.667 34.667 48.834 67.834 66.501 99.501s31.667 62.667 42 93s17.666 60 21.999 89s6.5 58.167 6.5 87.5s-2.16699 58.5 -6.5 87.5s-11.666 58.667 -21.999 89s-24.333 61.333 -42 93s-39.834 64.834 -66.501 99.501z" />
    <glyph glyph-name="asterisk" unicode="*" horiz-adv-x="495" 
d="M268 459l17.001 -51c4.66699 -14.667 8.33398 -28.5 11.001 -41.5s4.5 -26.167 5.5 -39.5s1.5 -28 1.5 -44h-111c0 16 0.5 30.667 1.5 44s3 26.5 6 39.5s6.66699 26.833 11 41.5s10.166 31.667 17.499 51l-36 -40c-10.667 -11.333 -21 -21.5 -31 -30.5
s-20.333 -17.167 -31 -24.5s-23 -15 -37 -23l-55 96c14 8 26.833 14.833 38.5 20.5s23.834 10.5 36.501 14.5s26.5 7.66699 41.5 11s32.833 7 53.5 11c-20.667 4 -38.5 7.66699 -53.5 11s-28.833 7 -41.5 11s-24.834 8.83301 -36.501 14.5s-24.5 12.5 -38.5 20.5l55 97
c14 -8 26.333 -15.667 37 -23s21 -15.5 31 -24.5s20.333 -19.167 31 -30.5s22.667 -25 36 -41c-7.33301 19.333 -13.166 36.333 -17.499 51s-8 28.5 -11 41.5s-5 26.167 -6 39.5s-1.5 28 -1.5 44h111c0 -16 -0.5 -30.667 -1.5 -44s-2.83301 -26.5 -5.5 -39.5
s-6.33398 -26.833 -11.001 -41.5l-17 -51c13.333 16 25.166 29.667 35.499 41s20.5 21.5 30.5 30.5s20.333 17.167 31 24.5s23 15 37 23l56 -97c-14 -8 -27 -14.833 -39 -20.5s-24.333 -10.5 -37 -14.5s-26.5 -7.66699 -41.5 -11s-32.5 -7 -52.5 -11
c20 -4 37.5 -7.66699 52.5 -11s28.833 -7 41.5 -11s25 -8.83301 37 -14.5s25 -12.5 39 -20.5l-56 -96c-14 8 -26.333 15.667 -37 23s-21 15.5 -31 24.5s-20.167 19.167 -30.5 30.5z" />
    <glyph glyph-name="plus" unicode="+" 
d="M363 240v-195h-127v195h-196v127h196v196h127v-196h196v-127h-196z" />
    <glyph glyph-name="comma" unicode="," horiz-adv-x="281" 
d="M223 42c0 -45.333 -9 -85.333 -27 -120s-48.333 -67.667 -91 -99l-49 60c22 14 40 30.833 54 50.5s21 39.167 21 58.5v8h-73v162h165v-120z" />
    <glyph glyph-name="hyphen" unicode="-" horiz-adv-x="412" 
d="M51 213v136h310v-136h-310z" />
    <glyph glyph-name="period" unicode="." horiz-adv-x="281" 
d="M58 0v162h165v-162h-165z" />
    <glyph glyph-name="slash" unicode="/" horiz-adv-x="407" 
d="M158 -108h-127l220 822h127z" />
    <glyph glyph-name="zero" unicode="0" 
d="M563 334c0 -43.333 -4.33301 -85.833 -13 -127.5s-23.334 -78.667 -44.001 -111s-47.834 -58.333 -81.501 -78s-75.834 -29.5 -126.501 -29.5c-50 0 -91.833 9.83301 -125.5 29.5s-60.667 45.667 -81 78s-34.666 69.333 -42.999 111s-12.5 84.167 -12.5 127.5
s4.16699 85.666 12.5 126.999s22.666 78.166 42.999 110.499s47.333 58.333 81 78s75.5 29.5 125.5 29.5c50.667 0 92.834 -9.83301 126.501 -29.5s60.834 -45.667 81.501 -78s35.334 -69.166 44.001 -110.499s13 -83.666 13 -126.999zM402 334
c0 29.333 -1.5 57.166 -4.5 83.499s-8.33301 49.333 -16 69s-18.167 35.334 -31.5 47.001s-30.666 17.5 -51.999 17.5s-38.833 -5.83301 -52.5 -17.5s-24.167 -27.334 -31.5 -47.001s-12.333 -42.667 -15 -69s-4 -54.166 -4 -83.499s1.33301 -57.166 4 -83.499
s7.66699 -49.5 15 -69.5s17.833 -35.833 31.5 -47.5s31.167 -17.5 52.5 -17.5s38.666 5.83301 51.999 17.5s23.833 27.5 31.5 47.5s13 43.167 16 69.5s4.5 54.166 4.5 83.499z" />
    <glyph glyph-name="one" unicode="1" 
d="M86 0l-0.000976562 131.998h158v366c-19.333 -7.33301 -43.166 -14.166 -71.499 -20.499s-56.5 -11.166 -84.5 -14.499l-19 119c52 8.66699 95 19.5 129 32.5s62.333 30.167 85 51.5h118v-534h149v-132h-464z" />
    <glyph glyph-name="two" unicode="2" 
d="M50 0l-0.00292969 114.002c60 44.667 110.167 83.5 150.5 116.5s72.833 62.5 97.5 88.5s42.334 49.5 53.001 70.5s16 42.167 16 63.5c0 28 -8.66699 49.5 -26 64.5s-39 22.5 -65 22.5c-25.333 0 -48.5 -7.33301 -69.5 -22s-38.167 -36 -51.5 -64l-125 69
c28 46 63.333 83.333 106 112s94.334 43 155.001 43c35.333 0 67.833 -4.83301 97.5 -14.5s55.334 -23.834 77.001 -42.501s38.5 -41.334 50.5 -68.001s18 -57 18 -91c0 -52.667 -19.833 -105 -59.5 -157s-103.5 -106.333 -191.5 -163h275v-142h-508z" />
    <glyph glyph-name="three" unicode="3" 
d="M232 276l0.00292969 124.998h58c33.333 0 57.333 7.16699 72 21.5s22 31.833 22 52.5c0 22 -8 38.833 -24 50.5s-38 17.5 -66 17.5c-30 0 -57.333 -7.33301 -82 -22s-44 -36 -58 -64l-119 68c31.333 50 69.166 88 113.499 114s96.833 39 157.5 39
c35.333 0 67.5 -4.5 96.5 -13.5s53.667 -21.667 74 -38s36.166 -35.666 47.499 -57.999s17 -46.833 17 -73.5c0 -34 -8.5 -63 -25.5 -87s-39.5 -42.667 -67.5 -56c35.333 -12.667 63.166 -32.667 83.499 -60s30.5 -59 30.5 -95c0 -28 -5.83301 -54.5 -17.5 -79.5
s-28.834 -47.167 -51.501 -66.5s-50.5 -34.666 -83.5 -45.999s-70.5 -17 -112.5 -17c-70 0 -127.667 15.5 -173 46.5s-80 72.5 -104 124.5l131 60c12.667 -30.667 31.334 -54.5 56.001 -71.5s55 -25.5 91 -25.5c34 0 59.5 7.5 76.5 22.5s25.5 34.167 25.5 57.5
c0 49.333 -36.333 74 -109 74h-59z" />
    <glyph glyph-name="four" unicode="4" 
d="M489 135v-135h-157v135h-308v116c18.667 35.333 35.334 71.5 50.001 108.5s27 73.5 37 109.5s17.667 70.833 23 104.5s8 64.5 8 92.5h153c0 -57.333 -10.833 -121 -32.5 -191s-51.834 -140 -90.501 -210h164v258h153v-258h87v-130h-87z" />
    <glyph glyph-name="five" unicode="5" 
d="M287 125c30.667 0 56.668 8.83496 78.001 26.502s32 42.167 32 73.5c0 30 -9.83301 54.167 -29.5 72.5s-47.5 27.5 -83.5 27.5c-50 0 -90.333 -19 -121 -57l-93 38l24 360h428v-143h-304l-13 -112c16.667 12 36.167 20.5 58.5 25.5s43.5 7.5 63.5 7.5
c31.333 0 61 -4.83301 89 -14.5s52.5 -23.834 73.5 -42.501s37.5 -41.334 49.5 -68.001s18 -57.334 18 -92.001c0 -30 -5.33301 -59.333 -16 -88s-27 -54.167 -49 -76.5s-49.667 -40.333 -83 -54s-72.333 -20.5 -117 -20.5c-56.667 0 -106.834 11.333 -150.501 34
s-80.5 59 -110.5 109l127 69c13.333 -25.333 31 -44.166 53 -56.499s47.333 -18.5 76 -18.5z" />
    <glyph glyph-name="six" unicode="6" 
d="M477 666c-52.667 -38.667 -98.332 -77.8291 -136.999 -117.496s-67.667 -78.5 -87 -116.5c13.333 11.333 29.666 19.166 48.999 23.499s37.666 6.5 54.999 6.5c30.667 0 59.167 -5.16699 85.5 -15.5s49 -25.333 68 -45s33.833 -43.334 44.5 -71.001
s16 -58.834 16 -93.501c0 -37.333 -6.33301 -71.333 -19 -102s-30.5 -56.834 -53.5 -78.501s-50.667 -38.5 -83 -50.5s-68.166 -18 -107.499 -18c-40 0 -76.333 5.66699 -109 17s-60.5 28 -83.5 50s-40.667 49.167 -53 81.5s-18.5 69.5 -18.5 111.5s5.33301 81.833 16 119.5
s25.5 73.834 44.5 108.501s41.333 67.667 67 99s53.5 61.666 83.5 90.999h222zM206.002 234.005c0 -33.333 8.5 -60.5 25.5 -81.5s42.5 -31.5 76.5 -31.5c32.667 0 57.334 10.5 74.001 31.5s25 48.5 25 82.5s-8.33301 61 -25 81s-41.334 30 -74.001 30
c-34 0 -59.5 -10.333 -76.5 -31s-25.5 -47.667 -25.5 -81z" />
    <glyph glyph-name="seven" unicode="7" 
d="M558 556l-46 -64c-17.333 -24.667 -35.166 -51.5 -53.499 -80.5s-36.333 -60.167 -54 -93.5s-33.5 -67.5 -47.5 -102.5s-25 -70.667 -33 -107s-11.667 -72.5 -11 -108.5h-177c1.33301 56 10.833 110.667 28.5 164s38.5 103 62.5 149s49.167 87 75.5 123
s49.166 65 68.499 87h-328v143h515v-110z" />
    <glyph glyph-name="eight" unicode="8" 
d="M299 111c30 0 54.833 7.33398 74.5 22.001s29.5 37.667 29.5 69c0 30 -9.33301 52.5 -28 67.5s-43.667 22.5 -75 22.5c-32 0 -57.5 -7.66699 -76.5 -23s-28.5 -38 -28.5 -68c0 -30.667 9.83301 -53.334 29.5 -68.001s44.5 -22 74.5 -22zM299 407.001
c10.667 0 20.999 1.16699 30.999 3.5s19 6.5 27 12.5s14.333 13.667 19 23s7 21 7 35c0 27.333 -8.5 46.666 -25.5 57.999s-36.5 17 -58.5 17s-41.333 -5.66699 -58 -17s-25 -30.666 -25 -57.999c0 -14 2.33301 -25.667 7 -35s10.834 -17 18.501 -23
s16.5 -10.167 26.5 -12.5s20.333 -3.5 31 -3.5zM298.999 -11.999c-43.333 0 -81.502 5.33496 -114.502 16.002s-60.833 25.167 -83.5 43.5s-39.667 39.833 -51 64.5s-17 51 -17 79c0 38.667 9.83301 72.167 29.5 100.5s46.5 49.166 80.5 62.499
c-22.667 11.333 -42.834 28.666 -60.501 51.999s-26.5 53.666 -26.5 90.999c0 30 6.5 56.333 19.5 79s30.667 41.5 53 56.5s48.166 26.333 77.499 34s60.333 11.5 93 11.5s63.834 -3.83301 93.501 -11.5s55.667 -19 78 -34s40 -33.833 53 -56.5s19.5 -49 19.5 -79
c0 -36 -8.66699 -65.833 -26 -89.5s-38 -41.5 -62 -53.5c34.667 -13.333 61.834 -34.166 81.501 -62.499s29.5 -61.833 29.5 -100.5c0 -28 -5.83301 -54.333 -17.5 -79s-28.667 -46.167 -51 -64.5s-50.166 -32.833 -83.499 -43.5s-71.666 -16 -114.999 -16z" />
    <glyph glyph-name="nine" unicode="9" 
d="M122 0c53.333 38.667 99.166 77.8311 137.499 117.498s67.5 78.167 87.5 115.5c-14 -11.333 -30.667 -19.166 -50 -23.499s-37.666 -6.5 -54.999 -6.5c-30.667 0 -59.167 5.33301 -85.5 16s-49 25.667 -68 45s-33.833 43 -44.5 71s-16 59.333 -16 94
c0 36.667 6.33301 70.334 19 101.001s30.5 57 53.5 79s50.833 39 83.5 51s68.667 18 108 18c40 0 76.167 -5.66699 108.5 -17s60 -28 83 -50s40.833 -49.167 53.5 -81.5s19 -69.5 19 -111.5s-5.5 -81.833 -16.5 -119.5s-26 -73.834 -45 -108.501s-41.333 -67.667 -67 -99
s-53.5 -61.666 -83.5 -90.999h-222zM393 431.997c0 33.333 -8.33301 60.5 -25 81.5s-42 31.5 -76 31.5c-33.333 0 -58.333 -10.5 -75 -31.5s-25 -48.5 -25 -82.5s8.33301 -61 25 -81s41.667 -30 75 -30c34 0 59.333 10.333 76 31s25 47.667 25 81z" />
    <glyph glyph-name="colon" unicode=":" horiz-adv-x="305" 
d="M70 0v162h165v-162h-165zM70 372v162h165v-162h-165z" />
    <glyph glyph-name="semicolon" unicode=";" horiz-adv-x="305" 
d="M235 42c0 -45.333 -9 -85.333 -27 -120s-48.333 -67.667 -91 -99l-49 60c22 14 40 30.833 54 50.5s21 39.167 21 58.5v8h-73v162h165v-120zM70 372v162h165v-162h-165z" />
    <glyph glyph-name="less" unicode="&#x3c;" 
d="M396 0l-306 305l306 305l89 -88l-216 -217l216 -216z" />
    <glyph glyph-name="equal" unicode="=" 
d="M40 347v127h519v-127h-519zM40 134v127h519v-127h-519z" />
    <glyph glyph-name="greater" unicode="&#x3e;" 
d="M203 0l-88 89l217 216l-217 217l88 88l306 -305z" />
    <glyph glyph-name="question" unicode="?" horiz-adv-x="567" 
d="M522 465c0 -31.333 -5.5 -59.1689 -16.5 -83.502s-25.667 -45.5 -44 -63.5s-39.333 -33 -63 -45s-48.167 -21.333 -73.5 -28v-22h-154v151c8.66699 -2.66699 18.667 -4.5 30 -5.5s20.666 -1.5 27.999 -1.5c38 0 69 7.5 93 22.5s36 38.5 36 70.5c0 28 -9.5 49 -28.5 63
s-42.833 21 -71.5 21c-25.333 0 -50.333 -4.66699 -75 -14s-47.667 -24.666 -69 -45.999l-85 101c34 30.667 70.833 54 110.5 70s84.834 24 135.501 24c36 0 69.167 -4.83301 99.5 -14.5s56.5 -23.667 78.5 -42s39 -40.666 51 -66.999s18 -56.5 18 -90.5zM167 -0.00292969
v147h167v-147h-167z" />
    <glyph glyph-name="at" unicode="@" horiz-adv-x="859" 
d="M528 158c-15.333 -23.333 -33.665 -40.1621 -54.998 -50.4951s-45.333 -15.5 -72 -15.5c-27.333 0 -52 5.33301 -74 16s-40.5 25.167 -55.5 43.5s-26.5 40 -34.5 65s-12 52.167 -12 81.5s4.16699 56.666 12.5 81.999s20 47.166 35 65.499s33.333 32.833 55 43.5
s46.167 16 73.5 16c39.333 0 72.666 -16.333 99.999 -49v41h118v-275c0 -16.667 3.66699 -31.167 11 -43.5s21 -18.5 41 -18.5c26.667 0 46.834 13.5 60.501 40.5s20.5 60.5 20.5 100.5c0 46 -6.83301 88.167 -20.5 126.5s-33.834 71.333 -60.501 99
s-59.334 49.167 -98.001 64.5s-83 23 -133 23c-49.333 0 -93.333 -8.33301 -132 -25s-71.5 -39.334 -98.5 -68.001s-47.667 -61.834 -62 -99.501s-21.5 -77.834 -21.5 -120.501c0 -43.333 7.16699 -84 21.5 -122s35 -71 62 -99s59.833 -50.167 98.5 -66.5
s82.667 -24.5 132 -24.5c30 0 58.833 3.66699 86.5 11s52.834 19 75.501 35l30 -60c-27.333 -16 -57.5 -28.5 -90.5 -37.5s-68.167 -13.5 -105.5 -13.5c-60.667 0 -115.334 9.5 -164.001 28.5s-90.167 45.333 -124.5 79s-60.666 73.5 -78.999 119.5s-27.5 96 -27.5 150
c0 53.333 9.16699 103 27.5 149s44.666 86 78.999 120s76 60.667 125 80s103.833 29 164.5 29c59.333 0 112.833 -9.66699 160.5 -29s88.334 -45.833 122.001 -79.5s59.5 -73.334 77.5 -119.001s27 -95.167 27 -148.5c0 -31.333 -4 -59.833 -12 -85.5
s-19.5 -47.667 -34.5 -66s-33.333 -32.666 -55 -42.999s-45.834 -15.5 -72.501 -15.5c-22 0 -44.5 4.5 -67.5 13.5s-41.167 26.167 -54.5 51.5zM501.001 298.004c0 14.667 -1.6709 28.666 -5.00391 41.999s-8.16602 25 -14.499 35s-14.5 17.833 -24.5 23.5
s-21.667 8.5 -35 8.5c-12.667 0 -23.667 -2.83301 -33 -8.5s-17.166 -13.5 -23.499 -23.5s-11.166 -21.667 -14.499 -35s-5 -27.333 -5 -42c0 -29.333 6.5 -54.666 19.5 -75.999s32.167 -32 57.5 -32c26.667 0 46.334 10.5 59.001 31.5s19 46.5 19 76.5z" />
    <glyph glyph-name="A" unicode="A" horiz-adv-x="686" 
d="M507 0l-46 142h-240l-46 -142h-174l247 666h191l246 -666h-178zM341 533l-84 -263h167z" />
    <glyph glyph-name="B" unicode="B" horiz-adv-x="677" 
d="M640 194c0 -58.667 -20.167 -105.667 -60.5 -141s-97.5 -53 -171.5 -53h-336v666h316c73.333 0 129.833 -15.167 169.5 -45.5s59.5 -72.5 59.5 -126.5c0 -30 -7.5 -57.5 -22.5 -82.5s-36.5 -44.833 -64.5 -59.5c36 -14.667 63.333 -35.667 82 -63s28 -59 28 -95zM456 470
c0 20.667 -7 35.667 -21 45s-33.667 14 -59 14h-144v-123h146c24 0 43 5.5 57 16.5s21 26.833 21 47.5zM476 208c0 21.333 -6.83301 38.667 -20.5 52s-33.167 20 -58.5 20h-165v-143h164c24.667 0 44.167 6.16699 58.5 18.5s21.5 29.833 21.5 52.5z" />
    <glyph glyph-name="C" unicode="C" horiz-adv-x="686" 
d="M535 439c-20 35.333 -43.3359 61.002 -70.0029 77.002s-57.667 24 -93 24c-27.333 0 -51.666 -5.16699 -72.999 -15.5s-39.5 -24.666 -54.5 -42.999s-26.5 -40 -34.5 -65s-12 -52.167 -12 -81.5c0 -30 4 -57.667 12 -83s19.5 -47.333 34.5 -66
s33.167 -33.334 54.5 -44.001s45.666 -16 72.999 -16c38 0 69.5 9.33301 94.5 28s47.167 46 66.5 82l132 -69c-30 -56.667 -69.667 -100.667 -119 -132s-108.333 -47 -177 -47c-49.333 0 -94.666 8.33301 -135.999 25s-76.666 40.167 -105.999 70.5
s-52.166 66.666 -68.499 108.999s-24.5 89.5 -24.5 141.5c0 51.333 8.16699 98.166 24.5 140.499s39.166 78.5 68.499 108.5s64.5 53.333 105.5 70s86.167 25 135.5 25c59.333 0 114.333 -12.833 165 -38.5s93.334 -68.167 128.001 -127.5z" />
    <glyph glyph-name="D" unicode="D" horiz-adv-x="725" 
d="M348 142c58.667 0 102.834 17.167 132.501 51.5s44.5 80.833 44.5 139.5s-14.833 105 -44.5 139s-73.834 51 -132.501 51h-116v-381h116zM72 0v666.002h276c55.333 0 104.333 -8.5 147 -25.5s78.5 -40.333 107.5 -70s50.833 -64.834 65.5 -105.501s22 -84.667 22 -132
s-7.33301 -91.333 -22 -132s-36.5 -75.834 -65.5 -105.501s-64.833 -53 -107.5 -70s-91.667 -25.5 -147 -25.5h-276z" />
    <glyph glyph-name="E" unicode="E" horiz-adv-x="631" 
d="M72 0v666h508v-143h-349v-113h304v-127h-304v-141h359v-142h-518z" />
    <glyph glyph-name="F" unicode="F" horiz-adv-x="611" 
d="M231 523v-128h304v-127h-304v-268h-159v666h514v-143h-355z" />
    <glyph glyph-name="G" unicode="G" horiz-adv-x="725" 
d="M374 678c65.333 0 122.503 -14.3311 171.503 -42.998s88.167 -68.334 117.5 -119.001l-131 -74c-19.333 36 -42.166 61.333 -68.499 76s-56.5 22 -90.5 22c-28.667 0 -53.834 -5.16699 -75.501 -15.5s-39.834 -24.5 -54.501 -42.5s-25.667 -39.5 -33 -64.5
s-11 -52.167 -11 -81.5c0 -68 15.667 -120.333 47 -157s74.333 -55 129 -55c40 0 74.833 9.83301 104.5 29.5s47.167 47.834 52.5 84.501h-155v127h316c1.33301 -8 2.5 -17.833 3.5 -29.5s1.5 -21.834 1.5 -30.501c0 -44 -7 -85.167 -21 -123.5s-34.667 -71.833 -62 -100.5
s-61.333 -51.334 -102 -68.001s-87.334 -25 -140.001 -25c-50.667 0 -96.834 8.33301 -138.501 25s-77.334 40.167 -107.001 70.5s-52.667 66.833 -69 109.5s-24.5 90 -24.5 142s8.16699 99.167 24.5 141.5s39.333 78.333 69 108s65.334 52.667 107.001 69
s88.167 24.5 139.5 24.5z" />
    <glyph glyph-name="H" unicode="H" horiz-adv-x="738" 
d="M505 0v278h-273v-278h-160v666h160v-246h273v246h161v-666h-161z" />
    <glyph glyph-name="I" unicode="I" horiz-adv-x="303" 
d="M72 0v666h159v-666h-159z" />
    <glyph glyph-name="J" unicode="J" horiz-adv-x="550" 
d="M484 232c0 -40.667 -5.83301 -76.1689 -17.5 -106.502s-28.167 -55.666 -49.5 -75.999s-47 -35.666 -77 -45.999s-63.333 -15.5 -100 -15.5c-54 0 -101.5 11.5 -142.5 34.5s-72.833 59.167 -95.5 108.5l131 71c12 -27.333 26.5 -46.5 43.5 -57.5s36.5 -16.5 58.5 -16.5
c29.333 0 51.5 8.66699 66.5 26s22.5 42 22.5 74v438h160v-434z" />
    <glyph glyph-name="K" unicode="K" horiz-adv-x="695" 
d="M511 0l-182 282l-98 -113v-169h-159v666h159v-290l250 290h192l-234 -268l259 -398h-187z" />
    <glyph glyph-name="L" unicode="L" horiz-adv-x="581" 
d="M72 0v666h159v-524h337v-142h-496z" />
    <glyph glyph-name="M" unicode="M" horiz-adv-x="905" 
d="M677 0v498l-162 -498h-128l-160 494v-494h-155v666h230l152 -467l151 467h228v-666h-156z" />
    <glyph glyph-name="N" unicode="N" horiz-adv-x="738" 
d="M475 0l-250 456v-456h-153v666h199l243 -446v446h152v-666h-191z" />
    <glyph glyph-name="O" unicode="O" horiz-adv-x="749" 
d="M716 333c0 -48 -7.83301 -93 -23.5 -135s-38.167 -78.5 -67.5 -109.5s-65.166 -55.5 -107.499 -73.5s-90.166 -27 -143.499 -27s-101 9 -143 27s-77.667 42.5 -107 73.5s-51.666 67.5 -66.999 109.5s-23 87 -23 135s7.66699 93 23 135s37.666 78.5 66.999 109.5
s65 55.5 107 73.5s89.667 27 143 27s101.166 -9 143.499 -27s78.166 -42.5 107.499 -73.5s51.833 -67.5 67.5 -109.5s23.5 -87 23.5 -135zM550 333c0 27.333 -3.83301 53.166 -11.5 77.499s-19 45.5 -34 63.5s-33.333 32.167 -55 42.5s-46.834 15.5 -75.501 15.5
s-53.834 -5.16699 -75.501 -15.5s-39.834 -24.5 -54.501 -42.5s-25.834 -39.167 -33.501 -63.5s-11.5 -50.166 -11.5 -77.499c0 -28 3.83301 -54 11.5 -78s18.834 -45 33.501 -63s32.834 -32.167 54.501 -42.5s46.834 -15.5 75.501 -15.5s53.834 5.16699 75.501 15.5
s40 24.5 55 42.5s26.333 39 34 63s11.5 50 11.5 78z" />
    <glyph glyph-name="P" unicode="P" horiz-adv-x="653" 
d="M635 438c0 -34 -5.83301 -64.999 -17.5 -92.999s-28.5 -51.833 -50.5 -71.5s-48.667 -34.834 -80 -45.501s-66.666 -16 -105.999 -16h-149v-212h-160v666h309c39.333 0 74.666 -5.33301 105.999 -16s58 -26 80 -46s38.833 -44 50.5 -72s17.5 -59.333 17.5 -94z
M379 355.001c28.667 0 51.5 6.99902 68.5 20.999s25.5 35 25.5 63c0 28.667 -8.5 49.834 -25.5 63.501s-39.833 20.5 -68.5 20.5h-147v-168h147z" />
    <glyph glyph-name="Q" unicode="Q" horiz-adv-x="749" 
d="M716 334c0 -49.333 -8.33105 -95.333 -24.998 -138s-40 -79.667 -70 -111l72 -83l-103 -85l-78 96c-42.667 -16.667 -88.667 -25 -138 -25c-53.333 0 -101 9 -143 27s-77.667 42.5 -107 73.5s-51.666 67.667 -66.999 110s-23 87.5 -23 135.5s7.66699 92.833 23 134.5
s37.666 78 66.999 109s65 55.5 107 73.5s89.667 27 143 27s101.166 -9 143.499 -27s78.166 -42.5 107.499 -73.5s51.833 -67.333 67.5 -109s23.5 -86.5 23.5 -134.5zM550.002 334c0 27.333 -3.83203 53 -11.499 77s-19 45 -34 63s-33.333 32.167 -55 42.5
s-46.834 15.5 -75.501 15.5s-53.834 -5.16699 -75.501 -15.5s-39.834 -24.5 -54.501 -42.5s-25.834 -39 -33.501 -63s-11.5 -49.667 -11.5 -77c0 -28 3.83301 -54.167 11.5 -78.5s18.834 -45.5 33.501 -63.5s32.834 -32.167 54.501 -42.5s46.834 -15.5 75.501 -15.5
c14 0 26 2 36 6l-59 73l93 75l69 -81c24.667 34.667 37 77 37 127z" />
    <glyph glyph-name="R" unicode="R" horiz-adv-x="679" 
d="M476 0l-120 231h-124v-231h-160v666h313c41.333 0 77.5 -5.16699 108.5 -15.5s57 -25 78 -44s36.833 -41.5 47.5 -67.5s16 -54.333 16 -85c0 -24.667 -3.5 -47.167 -10.5 -67.5s-16.333 -38.5 -28 -54.5s-25 -29.833 -40 -41.5s-30.167 -21.167 -45.5 -28.5l143 -262
h-178zM473 441c0 26.667 -8.83301 47 -26.5 61s-39.167 21 -64.5 21h-150v-165h150c26 0 47.667 7.33301 65 22s26 35 26 61z" />
    <glyph glyph-name="S" unicode="S" horiz-adv-x="637" 
d="M311 678c26.667 0 53.165 -2.33594 79.498 -7.00293s51.666 -12.334 75.999 -23.001s47.333 -24.667 69 -42s40.834 -38.333 57.501 -63l-119 -74c-20 28 -44.667 48.333 -74 61s-60 19 -92 19c-28 0 -51 -5.16699 -69 -15.5s-27 -26.166 -27 -47.499
c0 -12 3.66699 -22 11 -30s17.333 -14.5 30 -19.5s27.167 -9.16699 43.5 -12.5s33.5 -6.66602 51.5 -9.99902c34.667 -6 67.667 -13.667 99 -23s58.833 -21.666 82.5 -36.999s42.334 -34.666 56.001 -57.999s20.5 -52.333 20.5 -87c0 -31.333 -6.16699 -60.5 -18.5 -87.5
s-30.5 -50.333 -54.5 -70s-53.333 -35.167 -88 -46.5s-74.334 -17 -119.001 -17c-72.667 0 -135.667 14.667 -189 44s-93.333 70.333 -120 123l125 66c22 -37.333 50 -63.833 84 -79.5s69.667 -23.5 107 -23.5c35.333 0 63.5 6.16699 84.5 18.5s31.5 29.166 31.5 50.499
c0 14 -3.83301 25.333 -11.5 34s-18 15.834 -31 21.501s-28.333 10.334 -46 14.001s-36.5 7.16699 -56.5 10.5c-34 6 -66.167 13.667 -96.5 23s-57 21.666 -80 36.999s-41.167 34.833 -54.5 58.5s-20 53.167 -20 88.5c0 32 6.16699 60.5 18.5 85.5s29.833 46.333 52.5 64
s49.834 31.167 81.501 40.5s66.834 14 105.501 14z" />
    <glyph glyph-name="T" unicode="T" horiz-adv-x="629" 
d="M394 523v-523h-160v523h-206v143h573v-143h-207z" />
    <glyph glyph-name="U" unicode="U" horiz-adv-x="713" 
d="M648 258c0 -43.333 -6.99902 -81.833 -20.999 -115.5s-33.833 -62 -59.5 -85s-56.334 -40.333 -92.001 -52s-75.167 -17.5 -118.5 -17.5c-44 0 -84 5.83301 -120 17.5s-66.667 29 -92 52s-45 51.333 -59 85s-21 72.167 -21 115.5v408h160v-408
c0 -40.667 11 -71.667 33 -93s55 -32 99 -32c42 0 74.5 10.667 97.5 32s34.5 52.333 34.5 93v408h159v-408z" />
    <glyph glyph-name="V" unicode="V" horiz-adv-x="669" 
d="M668 666l-246 -666h-175l-247 666h174l160 -481l158 481h176z" />
    <glyph glyph-name="W" unicode="W" horiz-adv-x="967" 
d="M767 0h-173l-112 420l-113 -420h-174l-177 666h173l99 -443l122 443h143l122 -444l99 444h176z" />
    <glyph glyph-name="X" unicode="X" horiz-adv-x="696" 
d="M504 0l-157 234l-157 -234h-192l247 347l-225 319h191l138 -212l138 212h188l-224 -319l247 -347h-194z" />
    <glyph glyph-name="Y" unicode="Y" horiz-adv-x="669" 
d="M414 256v-256h-159v254l-257 412h186l151 -265l152 265h185z" />
    <glyph glyph-name="Z" unicode="Z" horiz-adv-x="638" 
d="M37 0v123l331 400h-317v143h539v-116l-335 -408h344v-142h-562z" />
    <glyph glyph-name="bracketleft" unicode="[" horiz-adv-x="326" 
d="M64 -108v822h251v-96h-123v-630h123v-96h-251z" />
    <glyph glyph-name="backslash" unicode="\" horiz-adv-x="407" 
d="M249 -108l-220 822h127l220 -822h-127z" />
    <glyph glyph-name="bracketright" unicode="]" horiz-adv-x="326" 
d="M11 -108v96h123v630h-123v96h251v-822h-251z" />
    <glyph glyph-name="asciicircum" unicode="^" 
d="M497 345l-196 196l-196 -196l-89 89l232 232h106l231 -232z" />
    <glyph glyph-name="underscore" unicode="_" horiz-adv-x="581" 
d="M-8 -125v50h597v-50h-597z" />
    <glyph glyph-name="grave" unicode="`" horiz-adv-x="323" 
d="M201 570c-13.333 6.66699 -27.501 15.3311 -42.501 25.998s-29.5 22.334 -43.5 35.001s-26.833 26.167 -38.5 40.5s-20.5 28.5 -26.5 42.5l125 21c4 -10.667 9.33301 -22 16 -34s13.834 -24 21.501 -36l23 -35c7.66699 -11.333 15.167 -21.666 22.5 -30.999z" />
    <glyph glyph-name="a" unicode="a" horiz-adv-x="679" 
d="M593 132c0 -12 2.16797 -20.499 6.50098 -25.499s11.166 -7.5 20.499 -7.5c12.667 0 21.667 2.33301 27 7l16 -96c-10.667 -6.66699 -24 -11.334 -40 -14.001s-30 -4 -42 -4c-26 0 -50.833 5 -74.5 15s-41.834 29.667 -54.501 59c-21.333 -28 -46.5 -48 -75.5 -60
s-61.5 -18 -97.5 -18c-39.333 0 -74.166 7.16699 -104.499 21.5s-56 34 -77 59s-37 54.5 -48 88.5s-16.5 70.667 -16.5 110c0 40 5.66699 77 17 111s27.5 63.5 48.5 88.5s46.5 44.5 76.5 58.5s63.667 21 101 21c66 0 120.333 -24.333 163 -73v61h154v-402zM439.001 266.001
c0 20 -2.66992 38.999 -8.00293 56.999s-13.166 33.833 -23.499 47.5s-23.166 24.334 -38.499 32.001s-33.333 11.5 -54 11.5s-38.5 -4 -53.5 -12s-27.5 -18.667 -37.5 -32s-17.5 -29 -22.5 -47s-7.5 -37 -7.5 -57s2.5 -38.833 7.5 -56.5s12.5 -33.167 22.5 -46.5
s22.5 -23.833 37.5 -31.5s32.833 -11.5 53.5 -11.5s38.834 3.83301 54.501 11.5s28.667 18.167 39 31.5s18 28.833 23 46.5s7.5 36.5 7.5 56.5z" />
    <glyph glyph-name="b" unicode="b" horiz-adv-x="655" 
d="M216 714v-241c44 48.667 98.667 73 164 73c37.333 0 71 -7 101 -21s55.5 -33.5 76.5 -58.5s37.167 -54.5 48.5 -88.5s17 -71 17 -111c0 -39.333 -5.66699 -76 -17 -110s-27.5 -63.5 -48.5 -88.5s-46.5 -44.667 -76.5 -59s-63.667 -21.5 -101 -21.5
c-65.333 0 -120 24.333 -164 73v-61h-153v714h153zM216 266c0 -20 2.66699 -39 8 -57s13.166 -33.5 23.499 -46.5s23.333 -23.333 39 -31s33.834 -11.5 54.501 -11.5s38.5 3.83301 53.5 11.5s27.5 18.167 37.5 31.5s17.333 28.833 22 46.5s7 36.5 7 56.5s-2.33301 39 -7 57
s-12 33.667 -22 47s-22.5 24 -37.5 32s-32.833 12 -53.5 12s-38.834 -4 -54.501 -12s-28.667 -18.667 -39 -32s-18.166 -29 -23.499 -47s-8 -37 -8 -57z" />
    <glyph glyph-name="c" unicode="c" horiz-adv-x="563" 
d="M543 117c-22 -36.667 -52.332 -67.3359 -90.999 -92.0029s-87 -37 -145 -37c-42.667 0 -81 7 -115 21s-63 33.5 -87 58.5s-42.333 54.333 -55 88s-19 70.5 -19 110.5s6.5 77 19.5 111s31.333 63.5 55 88.5s52.334 44.667 86.001 59s71.5 21.5 113.5 21.5
c28.667 0 55.167 -3.5 79.5 -10.5s46.333 -16.5 66 -28.5s37.167 -26.333 52.5 -43s28.666 -34.667 39.999 -54l-118 -70c-11.333 23.333 -26.333 41.833 -45 55.5s-41 20.5 -67 20.5c-19.333 0 -36.333 -3.66699 -51 -11s-27.334 -17.666 -38.001 -30.999
s-18.667 -29.166 -24 -47.499s-8 -38.166 -8 -59.499c0 -44 11 -79.833 33 -107.5s52.667 -41.5 92 -41.5c27.333 0 49.833 6.66699 67.5 20s33.5 31 47.5 53z" />
    <glyph glyph-name="d" unicode="d" horiz-adv-x="655" 
d="M438 0v61c-21.333 -24.667 -45.833 -43 -73.5 -55s-57.5 -18 -89.5 -18c-37.333 0 -71 7.16699 -101 21.5s-55.5 34 -76.5 59s-37.167 54.5 -48.5 88.5s-17 70.667 -17 110c0 40 5.66699 77 17 111s27.5 63.5 48.5 88.5s46.5 44.5 76.5 58.5s63.667 21 101 21
c66 0 120.333 -24.333 163 -73v241h154v-714h-154zM438 266c0 20 -2.66992 38.999 -8.00293 56.999s-13.166 33.833 -23.499 47.5s-23.166 24.334 -38.499 32.001s-33.333 11.5 -54 11.5s-38.5 -4 -53.5 -12s-27.5 -18.667 -37.5 -32s-17.5 -29 -22.5 -47s-7.5 -37 -7.5 -57
s2.5 -38.833 7.5 -56.5s12.5 -33.167 22.5 -46.5s22.5 -23.833 37.5 -31.5s32.833 -11.5 53.5 -11.5s38.834 3.83301 54.501 11.5s28.667 18.167 39 31.5s18 28.833 23 46.5s7.5 36.5 7.5 56.5z" />
    <glyph glyph-name="e" unicode="e" horiz-adv-x="613" 
d="M583 273c0 -8.66699 -0.331055 -17 -0.998047 -25s-1.33398 -15 -2.00098 -21h-384c2.66699 -36.667 16.167 -64 40.5 -82s55.833 -27 94.5 -27c30.667 0 58.5 5.66699 83.5 17s46.167 26.666 63.5 45.999l98 -92c-30 -30 -65.333 -54.333 -106 -73s-90 -28 -148 -28
c-48 0 -90 7 -126 21s-66.167 33.333 -90.5 58s-42.666 53.834 -54.999 87.501s-18.5 70.167 -18.5 109.5c0 40 6.33301 77.333 19 112s31 64.5 55 89.5s53.333 44.667 88 59s74 21.5 118 21.5c42.667 0 80.667 -6.66699 114 -20s61.666 -32 84.999 -56
s41.166 -52.833 53.499 -86.5s18.5 -70.5 18.5 -110.5zM432.002 331c-3.33301 34 -15.667 59.333 -37 76s-48 25 -80 25c-34 0 -61.5 -9.16699 -82.5 -27.5s-32.833 -42.833 -35.5 -73.5h235z" />
    <glyph glyph-name="f" unicode="f" horiz-adv-x="386" 
d="M374 597c-6 2 -14.333 4.33105 -25 6.99805s-22.667 4 -36 4c-19.333 0 -33.833 -3.66699 -43.5 -11s-14.5 -19.666 -14.5 -36.999v-26h111v-116h-111v-418h-153v418h-83v116h83v22c0 24.667 4 47.334 12 68.001s20.167 38.5 36.5 53.5s36.5 26.667 60.5 35
s52 12.5 84 12.5c17.333 0 34 -0.833008 50 -2.5s31 -4.5 45 -8.5z" />
    <glyph glyph-name="g" unicode="g" horiz-adv-x="657" 
d="M595 106c0 -42.667 -4.16504 -80.666 -12.498 -113.999s-24.5 -63.333 -48.5 -90c-15.333 -17.333 -32.833 -31.5 -52.5 -42.5s-40.167 -19.667 -61.5 -26s-43.5 -10.833 -66.5 -13.5s-45.833 -4 -68.5 -4c-90 0 -167.667 19.333 -233 58l56 119
c21.333 -14.667 47 -26.5 77 -35.5s62.333 -13.5 97 -13.5c22 0 42.667 2.16699 62 6.5s36.166 11.5 50.499 21.5s25.666 22.833 33.999 38.5s12.5 34.834 12.5 57.501v37c-20.667 -24 -45 -42 -73 -54s-59 -18 -93 -18c-36 0 -68.833 6.5 -98.5 19.5s-55 31 -76 54
s-37.333 50 -49 81s-17.5 64.5 -17.5 100.5s5.83301 69.667 17.5 101s28 58.666 49 81.999s46.5 41.666 76.5 54.999s63 20 99 20c68.667 0 123.667 -24.333 165 -73v61h154v-428zM442.002 290.001c0 36.667 -10.668 67.5 -32.001 92.5s-52.333 37.5 -93 37.5
c-40 0 -70.167 -12.333 -90.5 -37s-30.5 -55.667 -30.5 -93c0 -18.667 2.5 -36 7.5 -52s12.667 -30 23 -42s23 -21.333 38 -28s32.5 -10 52.5 -10s37.667 3.33301 53 10s28.333 16 39 28s18.834 26 24.501 42s8.5 33.333 8.5 52z" />
    <glyph glyph-name="h" unicode="h" horiz-adv-x="614" 
d="M63 0l0.000976562 714.002h153v-241c21.333 23.333 45.666 41.333 72.999 54s56.333 19 87 19c30 0 56.333 -5 79 -15s41.5 -23.5 56.5 -40.5s26.167 -37.333 33.5 -61s11 -48.834 11 -75.501v-354h-153v319c0 11.333 -1.16699 22.5 -3.5 33.5s-6.5 20.667 -12.5 29
s-14.5 15.166 -25.5 20.499s-24.833 8 -41.5 8c-28.667 0 -53.167 -9 -73.5 -27s-30.5 -44.333 -30.5 -79v-304h-153z" />
    <glyph glyph-name="i" unicode="i" horiz-adv-x="279" 
d="M63 0v534h153v-534h-153zM63 600v114h153v-114h-153z" />
    <glyph glyph-name="j" unicode="j" horiz-adv-x="280" 
d="M217 15c0 -67.333 -17.501 -117 -52.501 -149s-81.5 -48 -139.5 -48c-20 0 -40.333 2.33301 -61 7s-38.667 11.667 -54 21l42 112c7.33301 -4 15.333 -7.33301 24 -10s18.334 -4 29.001 -4c20.667 0 35.5 5.66699 44.5 17s13.5 28.333 13.5 51v522h154v-519zM62.999 600
v114h154v-114h-154z" />
    <glyph glyph-name="k" unicode="k" horiz-adv-x="621" 
d="M418 534h180l-196 -209l219 -325h-182l-141 223l-82 -87v-136h-153v714h153v-403z" />
    <glyph glyph-name="l" unicode="l" horiz-adv-x="281" 
d="M64 0v714h153v-714h-153z" />
    <glyph glyph-name="m" unicode="m" horiz-adv-x="934" 
d="M63 0l0.000976562 533.999h153v-60c42.667 48 94.334 72 155.001 72c38.667 0 70.167 -8 94.5 -24s42.166 -38 53.499 -66c24.667 32.667 52.834 55.834 84.501 69.501s63.167 20.5 94.5 20.5c30.667 0 57.167 -5 79.5 -15s40.833 -23.5 55.5 -40.5
s25.5 -37.167 32.5 -60.5s10.5 -48.333 10.5 -75v-355h-153v320c0 11.333 -1 22.5 -3 33.5s-6 20.667 -12 29s-14.333 15 -25 20s-24.334 7.5 -41.001 7.5c-28 0 -51 -9 -69 -27s-27 -44 -27 -78v-305h-153v320c0 11.333 -1 22.5 -3 33.5s-6 20.667 -12 29
s-14.333 15 -25 20s-24.334 7.5 -41.001 7.5c-28 0 -51 -9 -69 -27s-27 -44 -27 -78v-305h-153z" />
    <glyph glyph-name="n" unicode="n" horiz-adv-x="614" 
d="M63 0l0.000976562 534.002h153v-61c21.333 23.333 45.666 41.333 72.999 54s56.333 19 87 19c30 0 56.333 -5 79 -15s41.5 -23.5 56.5 -40.5s26.167 -37.333 33.5 -61s11 -48.834 11 -75.501v-354h-153v319c0 11.333 -1.16699 22.5 -3.5 33.5s-6.5 20.667 -12.5 29
s-14.5 15.166 -25.5 20.499s-24.833 8 -41.5 8c-28.667 0 -53.167 -9 -73.5 -27s-30.5 -44.333 -30.5 -79v-304h-153z" />
    <glyph glyph-name="o" unicode="o" horiz-adv-x="631" 
d="M599 266c0 -41.333 -6.66699 -79.166 -20 -113.499s-32.333 -63.666 -57 -87.999s-54.5 -43.166 -89.5 -56.499s-74.167 -20 -117.5 -20s-82.5 6.66699 -117.5 20s-64.667 32.166 -89 56.499s-43.166 53.666 -56.499 87.999s-20 72.166 -20 113.499
c0 42 6.66699 80.167 20 114.5s32.166 63.666 56.499 87.999s54 43.333 89 57s74.167 20.5 117.5 20.5s82.5 -6.83301 117.5 -20.5s64.833 -32.667 89.5 -57s43.667 -53.666 57 -87.999s20 -72.5 20 -114.5zM436 267c0 44 -10.167 80.167 -30.5 108.5s-50.5 42.5 -90.5 42.5
c-39.333 0 -69.333 -14.167 -90 -42.5s-31 -64.5 -31 -108.5s10.333 -80.167 31 -108.5s50.667 -42.5 90 -42.5c40 0 70.167 14.167 90.5 42.5s30.5 64.5 30.5 108.5z" />
    <glyph glyph-name="p" unicode="p" horiz-adv-x="655" 
d="M216 534v-61c44 48.667 98.667 73 164 73c37.333 0 71 -7.16699 101 -21.5s55.5 -34 76.5 -59s37.167 -54.5 48.5 -88.5s17 -70.667 17 -110c0 -40 -5.66699 -77 -17 -111s-27.5 -63.5 -48.5 -88.5s-46.5 -44.5 -76.5 -58.5s-63.667 -21 -101 -21
c-65.333 0 -120 24 -164 72v-234h-153v708h153zM216 267c0 -20 2.66699 -38.833 8 -56.5s13.166 -33.334 23.499 -47.001s23.333 -24.334 39 -32.001s33.834 -11.5 54.501 -11.5s38.5 4 53.5 12s27.5 18.667 37.5 32s17.333 28.833 22 46.5s7 36.5 7 56.5
s-2.33301 38.833 -7 56.5s-12 33.334 -22 47.001s-22.5 24.334 -37.5 32.001s-32.833 11.5 -53.5 11.5s-38.834 -3.83301 -54.501 -11.5s-28.667 -18.167 -39 -31.5s-18.166 -29 -23.499 -47s-8 -37 -8 -57z" />
    <glyph glyph-name="q" unicode="q" horiz-adv-x="655" 
d="M438 -174l-0.000976562 234c-43.333 -48 -97.666 -72 -162.999 -72c-37.333 0 -71 7 -101 21s-55.5 33.5 -76.5 58.5s-37.167 54.5 -48.5 88.5s-17 71 -17 111c0 39.333 5.66699 76 17 110s27.5 63.5 48.5 88.5s46.5 44.667 76.5 59s63.667 21.5 101 21.5
c66 0 120.333 -24.333 163 -73v61h154v-708h-154zM437.999 268c0 20 -2.49707 38.833 -7.49707 56.5s-12.667 33.167 -23 46.5s-23.333 23.833 -39 31.5s-33.834 11.5 -54.501 11.5s-38.5 -3.83301 -53.5 -11.5s-27.5 -18.167 -37.5 -31.5s-17.5 -28.833 -22.5 -46.5
s-7.5 -36.5 -7.5 -56.5s2.5 -38.833 7.5 -56.5s12.5 -33.334 22.5 -47.001s22.5 -24.5 37.5 -32.5s32.833 -12 53.5 -12s38.667 3.83301 54 11.5s28.166 18.334 38.499 32.001s18.166 29.5 23.499 47.5s8 37 8 57z" />
    <glyph glyph-name="r" unicode="r" horiz-adv-x="428" 
d="M387 374c-8 4.66699 -16.834 8.50098 -26.501 11.501s-20.834 4.5 -33.501 4.5c-32 0 -58.5 -12 -79.5 -36s-31.5 -56 -31.5 -96v-258h-153v534h153v-80c16.667 27.333 37.334 49.166 62.001 65.499s51.334 24.5 80.001 24.5c13.333 0 26.333 -1.5 39 -4.5
s22.667 -6.83301 30 -11.5z" />
    <glyph glyph-name="s" unicode="s" horiz-adv-x="564" 
d="M532 170c0 -56 -21.8311 -100.334 -65.498 -133.001s-103.5 -49 -179.5 -49c-58.667 0 -111.334 10.5 -158.001 31.5s-84 53.833 -112 98.5l104 69c10 -14.667 21.833 -27.167 35.5 -37.5s28.167 -18.666 43.5 -24.999s31.166 -11 47.499 -14s32.5 -4.5 48.5 -4.5
c28 0 49.333 4 64 12s22 18.667 22 32c0 9.33301 -2.83301 17 -8.5 23s-13.667 11 -24 15s-22.5 7.16699 -36.5 9.5s-29 4.5 -45 6.5c-31.333 4 -60.5 9.66699 -87.5 17s-50.333 17.5 -70 30.5s-35 29.5 -46 49.5s-16.5 44.667 -16.5 74c0 28.667 6 53.667 18 75
s28.167 39.166 48.5 53.499s44.166 25 71.499 32s56.333 10.5 87 10.5c30 0 58 -3 84 -9s49.667 -13.667 71 -23s40.166 -20 56.499 -32s30.5 -24.333 42.5 -37l-91 -81c-17.333 17.333 -39.833 32.5 -67.5 45.5s-59.5 19.5 -95.5 19.5
c-21.333 0 -39.666 -3.5 -54.999 -10.5s-23 -16.833 -23 -29.5c0 -8.66699 3 -15.5 9 -20.5s14.333 -9.16699 25 -12.5s23.167 -6.16602 37.5 -8.49902l46.5 -7.5c31.333 -5.33301 60.333 -12 87 -20s49.834 -18.5 69.501 -31.5s35 -29 46 -48s16.5 -42.5 16.5 -70.5z" />
    <glyph glyph-name="t" unicode="t" horiz-adv-x="447" 
d="M437 35c-18.667 -14 -40 -25.333 -64 -34s-52 -13 -84 -13c-34 0 -64 5.33301 -90 16s-46.667 27.667 -62 51c-11.333 16 -19.333 33.667 -24 53s-7 42.666 -7 69.999v240h-100v116h100v180h154v-180h152v-116h-152v-241c0 -20.667 5 -35.167 15 -43.5
s23.333 -12.5 40 -12.5c13.333 0 25.5 2.33301 36.5 7s20.5 10.334 28.5 17.001z" />
    <glyph glyph-name="u" unicode="u" horiz-adv-x="614" 
d="M551 534v-533.999h-153v60c-21.333 -22.667 -45.5 -40.334 -72.5 -53.001s-56.167 -19 -87.5 -19c-30 0 -56.333 5 -79 15s-41.5 23.5 -56.5 40.5s-26.167 37.167 -33.5 60.5s-11 48.666 -11 75.999v354h153v-319c0 -11.333 1.16699 -22.5 3.5 -33.5
s6.5 -20.667 12.5 -29s14.333 -15.166 25 -20.499s24.667 -8 42 -8c28.667 0 53.167 9 73.5 27s30.5 44.333 30.5 79v304h153z" />
    <glyph glyph-name="v" unicode="v" horiz-adv-x="573" 
d="M365 0h-157l-207 534h171l116 -356l115 356h169z" />
    <glyph glyph-name="w" unicode="w" horiz-adv-x="829" 
d="M664 0h-155l-94 335l-96 -335h-155l-147 534h167l72 -336l97 336h126l96 -336l72 336h166z" />
    <glyph glyph-name="x" unicode="x" horiz-adv-x="593" 
d="M402 0l-106 181l-107 -181h-185l189 278l-171 256h180l96 -162l94 162h180l-173 -257l189 -277h-186z" />
    <glyph glyph-name="y" unicode="y" horiz-adv-x="615" 
d="M399 105c-21.333 -23.333 -45.5 -41.1689 -72.5 -53.502s-56.167 -18.5 -87.5 -18.5c-30 0 -56.333 5 -79 15s-41.5 23.5 -56.5 40.5s-26.167 37.167 -33.5 60.5s-11 48.666 -11 75.999v309h153v-274c0 -11.333 1.16699 -22.5 3.5 -33.5s6.5 -20.667 12.5 -29
s14.333 -15.166 25 -20.499s24.667 -8 42 -8c28.667 0 53.167 9 73.5 27s30.5 44 30.5 78v260h153v-447c0 -37.333 -4.5 -73.166 -13.5 -107.499s-26.5 -64.166 -52.5 -89.499c-50.667 -49.333 -124.334 -74 -221.001 -74c-40 0 -78.5 4.83301 -115.5 14.5
s-69.833 23.834 -98.5 42.501l56 113c23.333 -14.667 48.333 -25.334 75 -32.001s53.334 -10 80.001 -10c42 0 75.333 8.66699 100 26s37 44 37 80v55z" />
    <glyph glyph-name="z" unicode="z" horiz-adv-x="543" 
d="M36 0v110l244 292h-232v132h449v-104l-249 -298h257v-132h-469z" />
    <glyph glyph-name="braceleft" unicode="{" horiz-adv-x="391" 
d="M298 -110c-50 0 -90.333 14.168 -121 42.501s-46 69.5 -46 123.5v123c0 21.333 -4.66699 39.333 -14 54s-27.666 22 -54.999 22h-48v96h48c27.333 0 45.666 7.33301 54.999 22s14 32.667 14 54v123c0 54 15.333 95.167 46 123.5s71 42.5 121 42.5h84v-96h-46
c-28.667 0 -48.667 -7.83301 -60 -23.5s-17 -36.834 -17 -63.501v-82c0 -36 -7.5 -66.833 -22.5 -92.5s-39.167 -44.167 -72.5 -55.5c33.333 -11.333 57.5 -29.666 72.5 -54.999s22.5 -56 22.5 -92v-83c0 -26.667 5.66699 -47.834 17 -63.501s31.333 -23.5 60 -23.5h46v-96
h-84z" />
    <glyph glyph-name="bar" unicode="|" horiz-adv-x="246" 
d="M64 -108v822h118v-822h-118z" />
    <glyph glyph-name="braceright" unicode="}" horiz-adv-x="391" 
d="M330 255c-27.333 0 -45.833 -7.33398 -55.5 -22.001s-14.5 -32.667 -14.5 -54v-123c0 -54 -15.167 -95.167 -45.5 -123.5s-70.5 -42.5 -120.5 -42.5h-85v96h46c29.333 0 49.5 7.83301 60.5 23.5s16.5 36.834 16.5 63.501v82c0 36 7.66699 66.833 23 92.5
s39.333 44.167 72 55.5c-32.667 11.333 -56.667 29.666 -72 54.999s-23 56 -23 92v83c0 26.667 -5.5 47.834 -16.5 63.501s-31.167 23.5 -60.5 23.5h-46v96h85c50 0 90.167 -14.167 120.5 -42.5s45.5 -69.5 45.5 -123.5v-123c0 -22 4.83301 -40.167 14.5 -54.5
s28.167 -21.5 55.5 -21.5h47v-96h-47z" />
    <glyph glyph-name="asciitilde" unicode="~" horiz-adv-x="609" 
d="M31 253c28 48.667 56.833 86.167 86.5 112.5s63.834 39.5 102.501 39.5c13.333 0 26.5 -1.83301 39.5 -5.5s27.167 -10.167 42.5 -19.5l36.5 -23c9.66699 -6 18 -10.833 25 -14.5s13.5 -6.16699 19.5 -7.5s13 -2 21 -2c16.667 0 32.834 5.5 48.501 16.5
s32.5 29.167 50.5 54.5l76 -45c-28 -48.667 -56.833 -86.167 -86.5 -112.5s-63.834 -39.5 -102.501 -39.5c-13.333 0 -26.5 1.83301 -39.5 5.5s-27.167 10.167 -42.5 19.5l-36.5 23c-9.66699 6 -18 10.833 -25 14.5s-13.5 6.16699 -19.5 7.5s-13 2 -21 2
c-16.667 0 -32.834 -5.5 -48.501 -16.5s-32.5 -29.167 -50.5 -54.5z" />
    <glyph glyph-name="uni00A0" unicode="&#xa0;" horiz-adv-x="270" 
 />
    <glyph glyph-name="exclamdown" unicode="&#xa1;" horiz-adv-x="308" 
d="M72 -133v162l42 281h80l42 -281v-162h-164zM72 383v151h164v-151h-164z" />
    <glyph glyph-name="cent" unicode="&#xa2;" 
d="M555 117c-20 -33.333 -46.6709 -61.667 -80.0039 -85s-74.666 -37.333 -123.999 -42v-84h-60v83c-38.667 2.66699 -73.334 11.667 -104.001 27s-56.667 35.166 -78 59.499s-37.666 52.833 -48.999 85.5s-17 67.667 -17 105c0 38 5.83301 73.333 17.5 106
s28.167 61.334 49.5 86.001s47.333 44.5 78 59.5s65 24.167 103 27.5v82h60v-83c48.667 -5.33301 89.667 -20.166 123 -44.499s60.333 -54.166 81 -89.499l-118 -70c-9.33301 19.333 -21.166 35.333 -35.499 48s-31.166 21 -50.499 25v-293
c20.667 3.33301 38.334 11.166 53.001 23.499s28 28.166 40 47.499zM198.996 266.999c0 -37.333 7.83301 -68.668 23.5 -94.001s38.5 -42 68.5 -50v289c-30 -7.33301 -52.833 -24.166 -68.5 -50.499s-23.5 -57.833 -23.5 -94.5z" />
    <glyph glyph-name="sterling" unicode="&#xa3;" 
d="M601 119c-20 -46 -44.334 -79.334 -73.001 -100.001s-60.667 -31 -96 -31c-17.333 0 -34 2.5 -50 7.5s-32.167 10.333 -48.5 16s-32.833 11 -49.5 16s-34 7.5 -52 7.5c-21.333 0 -46.5 -3.83301 -75.5 -11.5s-56.167 -19.5 -81.5 -35.5l-54 121
c36.667 16 62.834 33.833 78.501 53.5s23.5 40.167 23.5 61.5c0 15.333 -2.33301 31 -7 47h-104v94h70c-7.33301 18.667 -12.833 35.834 -16.5 51.501s-5.5 32.5 -5.5 50.5c0 34 6.5 64 19.5 90s30.667 48 53 66s48.833 31.667 79.5 41s63.667 14 99 14
c61.333 0 113.5 -13.167 156.5 -39.5s78.833 -65.5 107.5 -117.5l-132 -64c-11.333 21.333 -26 39.666 -44 54.999s-42.667 23 -74 23c-27.333 0 -50.166 -7.33301 -68.499 -22s-27.5 -35.667 -27.5 -63c0 -15.333 2 -29.833 6 -43.5s8.66699 -27.5 14 -41.5h169v-94h-146
c0.666992 -2 1 -5.33301 1 -10c0 -8 -0.333008 -16 -1 -24s-2.33398 -16.5 -5.00098 -25.5s-6.83398 -18.667 -12.501 -29s-13.5 -21.5 -23.5 -33.5c12 4.66699 23.5 7.83398 34.5 9.50098s20.5 2.5 28.5 2.5c12 0 23.833 -1.16699 35.5 -3.5s22.667 -4.83301 33 -7.5
l29.5 -7.5c9.33301 -2.33301 18 -3.5 26 -3.5c28.667 0 49.334 17 62.001 51l121 -71v0z" />
    <glyph glyph-name="currency" unicode="&#xa4;" 
d="M198 303c0 -14 2.66699 -27.167 8 -39.5s12.5 -23 21.5 -32s19.667 -16.167 32 -21.5s25.5 -8 39.5 -8s27.167 2.66699 39.5 8s23 12.5 32 21.5s16.167 19.667 21.5 32s8 25.5 8 39.5s-2.66699 27.167 -8 39.5s-12.5 23 -21.5 32s-19.667 16.167 -32 21.5
s-25.5 8 -39.5 8s-27.167 -2.66699 -39.5 -8s-23 -12.5 -32 -21.5s-16.167 -19.667 -21.5 -32s-8 -25.5 -8 -39.5zM94 303c0 34 7.66797 65.333 23.001 94l-79 79l89 90l80 -80c28 14.667 58.667 22 92 22c34 0 64.667 -7.66699 92 -23l81 81l89 -90l-80 -81
c7.33301 -13.333 13 -27.833 17 -43.5s6 -31.834 6 -48.501s-2 -32.667 -6 -48s-9.33301 -29.666 -16 -42.999l79 -80l-89 -90l-80 79c-13.333 -7.33301 -27.833 -13 -43.5 -17s-32.167 -6 -49.5 -6c-16.667 0 -32.834 2 -48.501 6s-30.5 9.66699 -44.5 17l-79 -79l-89 90
l79 78c-15.333 28.667 -23 59.667 -23 93z" />
    <glyph glyph-name="yen" unicode="&#xa5;" 
d="M428 356h120v-66h-155l-14 -25v-45h169v-66h-169v-154h-158v154h-171v66h171v43l-15 27h-156v66h122l-165 310h182l113 -252l111 252h180z" />
    <glyph glyph-name="brokenbar" unicode="&#xa6;" horiz-adv-x="233" 
d="M69 394v320h95v-320h-95zM69 -108v320h95v-320h-95z" />
    <glyph glyph-name="section" unicode="&#xa7;" horiz-adv-x="597" 
d="M555 146c0 -39.333 -6.49512 -75.667 -19.4951 -109s-31.833 -62.333 -56.5 -87s-54.5 -44 -89.5 -58s-74.5 -21 -118.5 -21s-85.667 7.5 -125 22.5s-75.333 37.5 -108 67.5l82 103c20 -20 42.333 -36 67 -48s52.667 -18 84 -18c40.667 0 73 12 97 36l-102 62
c-26 16 -52.333 33.667 -79 53s-50.834 41.333 -72.501 66s-39.334 52.5 -53.001 83.5s-20.5 65.833 -20.5 104.5s6.66699 74.834 20 108.501s32.166 62.834 56.499 87.501s54.166 44 89.499 58s75 21 119 21c44.667 0 86.667 -7.5 126 -22.5s75 -37.5 107 -67.5l-82 -103
c-20 20 -42.333 36 -67 48s-52.667 18 -84 18c-40.667 0 -73.334 -12 -98.001 -36l105 -63c26.667 -16 53.167 -33.833 79.5 -53.5s50 -41.834 71 -66.501s38.167 -52.334 51.5 -83.001s20 -65 20 -103zM424.005 151.999c0 24.667 -4.00098 46.833 -12.001 66.5
s-19.333 38.334 -34 56.001s-32.5 34.667 -53.5 51s-44.833 33.833 -71.5 52.5l-77 54c-2 -10 -3 -19.667 -3 -29c0 -26.667 3.83301 -50.167 11.5 -70.5s18.834 -39.333 33.501 -57s32.5 -34.834 53.5 -51.501s45.167 -34.334 72.5 -53.001l77 -54
c2 12.667 3 24.334 3 35.001z" />
    <glyph glyph-name="dieresis" unicode="&#xa8;" horiz-adv-x="323" 
d="M-8 588v114h112v-114h-112zM219 588v114h111v-114h-111z" />
    <glyph glyph-name="copyright" unicode="&#xa9;" horiz-adv-x="776" 
d="M739 333c0 -48 -9.16699 -93.333 -27.5 -136s-43.5 -80 -75.5 -112s-69.333 -57.167 -112 -75.5s-88 -27.5 -136 -27.5s-93.333 9.16699 -136 27.5s-80 43.5 -112 75.5s-57.167 69.333 -75.5 112s-27.5 88 -27.5 136c0 48.667 9.16699 94.334 27.5 137.001
s43.5 79.834 75.5 111.501s69.333 56.667 112 75s88 27.5 136 27.5s93.333 -9.16699 136 -27.5s80 -43.333 112 -75s57.167 -68.834 75.5 -111.501s27.5 -88.334 27.5 -137.001zM667 333c0 38.667 -7.33398 75 -22.001 109s-34.667 63.5 -60 88.5s-54.833 44.833 -88.5 59.5
s-69.834 22 -108.501 22c-38 0 -74 -7.33301 -108 -22s-63.667 -34.5 -89 -59.5s-45.333 -54.5 -60 -88.5s-22 -70.333 -22 -109s7.33301 -74.834 22 -108.501s34.667 -63.167 60 -88.5s54.833 -45.333 88.5 -60s69.834 -22 108.501 -22s74.834 7.33301 108.501 22
s63.167 34.667 88.5 60s45.333 54.833 60 88.5s22 69.834 22 108.501zM579.999 237c-23.333 -39.333 -51.501 -68.333 -84.501 -87s-68.5 -28 -106.5 -28c-29.333 0 -56.666 5.5 -81.999 16.5s-47.666 26 -66.999 45s-34.5 41.333 -45.5 67s-16.5 53.167 -16.5 82.5
s5.5 57 16.5 83s26.167 48.5 45.5 67.5s41.666 34 66.999 45s52.666 16.5 81.999 16.5c38 0 72.833 -9.16699 104.5 -27.5s59.834 -47.5 84.501 -87.5l-92 -60c-12.667 21.333 -27.167 36.833 -43.5 46.5s-33.5 14.5 -51.5 14.5c-27.333 0 -50.333 -9.5 -69 -28.5
s-28 -42.167 -28 -69.5c0 -13.333 2.5 -26 7.5 -38s11.833 -22.5 20.5 -31.5s19 -16.167 31 -21.5s24.667 -8 38 -8c39.333 0 71 21.333 95 64z" />
    <glyph glyph-name="ordfeminine" unicode="&#xaa;" horiz-adv-x="445" 
d="M411 326c-7.33301 -4 -17.5078 -7 -30.5078 -9s-23.5 -3 -31.5 -3c-17.333 0 -32.666 2.83301 -45.999 8.5s-23.333 15.5 -30 29.5c-14.667 -15.333 -31.667 -26 -51 -32s-39.666 -9 -60.999 -9c-36 0 -66 9.5 -90 28.5s-36 46.5 -36 82.5
c0 24.667 5.33301 43.834 16 57.501s23.834 24.167 39.501 31.5s32.667 12.166 51 14.499s35.333 4.33301 51 6s28.834 4 39.501 7s16 8.83301 16 17.5c0 6 -1.66699 10.833 -5 14.5s-7.66602 6.5 -12.999 8.5s-11.166 3.33301 -17.499 4s-12.5 1 -18.5 1
c-17.333 0 -36.166 -2.83301 -56.499 -8.5s-39.166 -14.167 -56.499 -25.5l-35 83c23.333 14 49.5 24.167 78.5 30.5s56.833 9.5 83.5 9.5c48 0 85.833 -10 113.5 -30s41.5 -53 41.5 -99v-133c0 -6 1 -10.333 3 -13s6 -4 12 -4c1.33301 0 4 0.333008 8 1s7.66699 2 11 4z
M248.992 477c-8.66699 -5.33301 -17.168 -8.83398 -25.501 -10.501s-18.166 -3.16699 -29.499 -4.5c-13.333 -2 -25 -5.16699 -35 -9.5s-15 -13.166 -15 -26.499c0 -12 4 -20.5 12 -25.5s17.667 -7.5 29 -7.5c18.667 0 34 4.5 46 13.5s18 23.167 18 42.5v28z" />
    <glyph glyph-name="guillemotleft" unicode="&#xab;" horiz-adv-x="511" 
d="M19 294l162 204l74 -55l-112 -177l112 -177l-74 -55l-162 204v56zM239 294l162 204l74 -55l-112 -177l112 -177l-74 -55l-162 204v56z" />
    <glyph glyph-name="logicalnot" unicode="&#xac;" horiz-adv-x="625" 
d="M440 45v195h-392v127h518v-322h-126z" />
    <glyph glyph-name="uni00AD" unicode="&#xad;" horiz-adv-x="412" 
d="M51 213v136h310v-136h-310z" />
    <glyph glyph-name="registered" unicode="&#xae;" horiz-adv-x="470" 
d="M330 381l-60 -0.000976562l-32 67h-31v-67h-56v202h98c25.333 0 44.5 -6.16699 57.5 -18.5s19.5 -28.166 19.5 -47.499c0 -32 -12 -52.333 -36 -61zM270 514.999c0 8 -2.5 14.167 -7.5 18.5s-10.833 6.5 -17.5 6.5h-38v-51h38c6.66699 0 12.5 2.16699 17.5 6.5
s7.5 10.833 7.5 19.5zM38 480.999c0 27.333 5.16699 53 15.5 77s24.333 44.833 42 62.5s38.5 31.667 62.5 42s49.667 15.5 77 15.5c26.667 0 52 -5.16699 76 -15.5s45 -24.333 63 -42s32.167 -38.5 42.5 -62.5s15.5 -49.667 15.5 -77s-5.16699 -52.833 -15.5 -76.5
s-24.5 -44.334 -42.5 -62.001s-39 -31.667 -63 -42s-49.333 -15.5 -76 -15.5c-27.333 0 -53 5.16699 -77 15.5s-44.833 24.333 -62.5 42s-31.667 38.334 -42 62.001s-15.5 49.167 -15.5 76.5zM67 480.999c0 -23.333 4.33301 -45.166 13 -65.499s20.667 -38.166 36 -53.499
s33.166 -27.333 53.499 -36s42.166 -13 65.499 -13c22.667 0 44.334 4.33301 65.001 13s38.5 20.667 53.5 36s27 33.166 36 53.499s13.5 42.166 13.5 65.499s-4.5 45.166 -13.5 65.499s-21 38.166 -36 53.499s-32.833 27.333 -53.5 36s-42.334 13 -65.001 13
c-23.333 0 -45.166 -4.33301 -65.499 -13s-38.166 -20.667 -53.499 -36s-27.333 -33.166 -36 -53.499s-13 -42.166 -13 -65.499z" />
    <glyph glyph-name="macron" unicode="&#xaf;" horiz-adv-x="355" 
d="M4 593v83h332v-83h-332z" />
    <glyph glyph-name="degree" unicode="&#xb0;" horiz-adv-x="379" 
d="M351 516c0 -22 -4.33301 -42.833 -13 -62.5s-20.167 -36.667 -34.5 -51s-31.333 -25.833 -51 -34.5s-40.5 -13 -62.5 -13s-42.833 4.33301 -62.5 13s-36.834 20.167 -51.501 34.5s-26.167 31.333 -34.5 51s-12.5 40.5 -12.5 62.5s4.16699 42.833 12.5 62.5
s19.833 36.834 34.5 51.501s31.834 26.334 51.501 35.001s40.5 13 62.5 13s42.833 -4.33301 62.5 -13s36.667 -20.334 51 -35.001s25.833 -31.834 34.5 -51.501s13 -40.5 13 -62.5zM260 516c0 19.333 -6.83301 36 -20.5 50s-30.167 21 -49.5 21s-36 -7 -50 -21
s-21 -30.667 -21 -50s7 -35.833 21 -49.5s30.667 -20.5 50 -20.5s35.833 6.83301 49.5 20.5s20.5 30.167 20.5 49.5z" />
    <glyph glyph-name="plusminus" unicode="&#xb1;" 
d="M40 0v127h519v-127h-519zM363 345v-169h-127v169h-196v127h196v170h127v-170h196v-127h-196z" />
    <glyph glyph-name="twosuperior" unicode="&#xb2;" horiz-adv-x="408" 
d="M34 329v83.0029c40 28 73.333 52.167 100 72.5s48 38.5 64 54.5s27.333 30.333 34 43s10 25 10 37c0 14.667 -5.33301 26.167 -16 34.5s-23.667 12.5 -39 12.5s-29.5 -4.66699 -42.5 -14s-24.167 -23 -33.5 -41l-93 49c19.333 32 44 57.833 74 77.5s65 29.5 105 29.5
c24.667 0 47.167 -3.16699 67.5 -9.5s38 -15.5 53 -27.5s26.667 -26.833 35 -44.5s12.5 -37.834 12.5 -60.501c0 -32.667 -11 -63.834 -33 -93.501s-59.333 -62.834 -112 -99.501h160v-103h-346z" />
    <glyph glyph-name="threesuperior" unicode="&#xb3;" horiz-adv-x="410" 
d="M383 458c0 -19.333 -3.99609 -37.167 -11.9961 -53.5s-19.667 -30.833 -35 -43.5s-34 -22.5 -56 -29.5s-46.667 -10.5 -74 -10.5c-93.333 0 -156.333 40 -189 120l97 30c10 -20.667 23.667 -34.167 41 -40.5s34.666 -9.5 51.999 -9.5s31.166 3.83301 41.499 11.5
s15.5 17.5 15.5 29.5c0 11.333 -5.16699 20.166 -15.5 26.499s-23.5 9.5 -39.5 9.5h-56v95h54c10 0 20.333 2.83301 31 8.5s16 14.834 16 27.501c0 13.333 -5.5 23 -16.5 29s-23.167 9 -36.5 9c-18 0 -34.667 -3.5 -50 -10.5s-28 -19.167 -38 -36.5l-89 40
c21.333 37.333 47 64.5 77 81.5s65.333 25.5 106 25.5c21.333 0 41.666 -2.66699 60.999 -8s36.5 -13.166 51.5 -23.499s27 -23.5 36 -39.5s13.5 -34.667 13.5 -56c0 -38.667 -15.333 -67.334 -46 -86.001c21.333 -9.33301 36.666 -22.833 45.999 -40.5s14 -36.167 14 -55.5
z" />
    <glyph glyph-name="acute" unicode="&#xb4;" horiz-adv-x="323" 
d="M78 599c14.667 19.333 30 41.502 46 66.502s28.667 48.167 38 69.5l124 -21c-6 -14 -14.667 -28.167 -26 -42.5s-24 -27.833 -38 -40.5s-28.5 -24.334 -43.5 -35.001s-29.5 -19.334 -43.5 -26.001z" />
    <glyph glyph-name="mu" unicode="&#x3bc;" 
d="M49 -174l-0.00195312 708.002h152v-324c0 -26.667 5.83301 -48.834 17.5 -66.501s32.167 -26.5 61.5 -26.5c25.333 0 47.5 8.66699 66.5 26s28.5 44 28.5 80v311h152v-402c0 -12 2.16699 -20.5 6.5 -25.5s10.5 -7.5 18.5 -7.5c9.33301 0 17 2 23 6l11 -99
c-10 -5.33301 -22 -9 -36 -11s-26.667 -3 -38 -3c-25.333 0 -48.166 5.66699 -68.499 17s-34.5 28.666 -42.5 51.999c-15.333 -25.333 -35.166 -43.833 -59.499 -55.5s-47.833 -17.5 -70.5 -17.5c-15.333 0 -28.833 2.5 -40.5 7.5s-21.5 11.5 -29.5 19.5v-189h-152z" />
    <glyph glyph-name="mu" unicode="&#xb5;" 
d="M49 -174l-0.00195312 708.002h152v-324c0 -26.667 5.83301 -48.834 17.5 -66.501s32.167 -26.5 61.5 -26.5c25.333 0 47.5 8.66699 66.5 26s28.5 44 28.5 80v311h152v-402c0 -12 2.16699 -20.5 6.5 -25.5s10.5 -7.5 18.5 -7.5c9.33301 0 17 2 23 6l11 -99
c-10 -5.33301 -22 -9 -36 -11s-26.667 -3 -38 -3c-25.333 0 -48.166 5.66699 -68.499 17s-34.5 28.666 -42.5 51.999c-15.333 -25.333 -35.166 -43.833 -59.499 -55.5s-47.833 -17.5 -70.5 -17.5c-15.333 0 -28.833 2.5 -40.5 7.5s-21.5 11.5 -29.5 19.5v-189h-152z" />
    <glyph glyph-name="paragraph" unicode="&#xb6;" horiz-adv-x="576" 
d="M450 -91l0.000976562 664.001h-58v-664h-100v318h-38c-31.333 0 -60.333 5.16699 -87 15.5s-49.834 25 -69.501 44s-35.167 42.167 -46.5 69.5s-17 57.666 -17 90.999s5.83301 63.5 17.5 90.5s27.5 50 47.5 69s43.333 33.667 70 44s55 15.5 85 15.5h250v-757h-54z" />
    <glyph glyph-name="periodcentered" unicode="&#xb7;" horiz-adv-x="278" 
d="M233 304c0 -12.667 -2.5 -24.834 -7.5 -36.501s-11.667 -21.834 -20 -30.501s-18.333 -15.5 -30 -20.5s-23.834 -7.5 -36.501 -7.5c-13.333 0 -25.666 2.5 -36.999 7.5s-21.333 11.833 -30 20.5s-15.5 18.834 -20.5 30.501s-7.5 23.834 -7.5 36.501
s2.5 24.834 7.5 36.501s11.833 21.834 20.5 30.501s18.667 15.5 30 20.5s23.666 7.5 36.999 7.5c12.667 0 24.834 -2.5 36.501 -7.5s21.667 -11.833 30 -20.5s15 -18.834 20 -30.501s7.5 -23.834 7.5 -36.501z" />
    <glyph glyph-name="cedilla" unicode="&#xb8;" horiz-adv-x="323" 
d="M31 -59c9.33301 -8.66699 20.5 -16.502 33.5 -23.502s28.5 -10.5 46.5 -10.5c15.333 0 28 3.33301 38 10s15 16.667 15 30s-4.66699 25 -14 35s-20 18.667 -32 26l38 21c30 -10.667 54 -26.167 72 -46.5s27 -42.166 27 -65.499c0 -14 -3.16699 -26.833 -9.5 -38.5
s-15.333 -21.667 -27 -30s-25.5 -15 -41.5 -20s-33.333 -7.5 -52 -7.5c-22 0 -41.333 2.83301 -58 8.5s-28.667 11.834 -36 18.501v93z" />
    <glyph glyph-name="onesuperior" unicode="&#xb9;" horiz-adv-x="349" 
d="M139 427v210.002c-13.333 -3.33301 -29 -6.83301 -47 -10.5s-36 -6.5 -54 -8.5l-15 88c35.333 5.33301 64.5 12.166 87.5 20.499s42.167 19.166 57.5 32.499h86v-332h85v-98h-301v98h101z" />
    <glyph glyph-name="ordmasculine" unicode="&#xba;" horiz-adv-x="443" 
d="M414 492c0 -27.333 -4.5 -52 -13.5 -74s-21.833 -41 -38.5 -57s-37 -28.333 -61 -37s-50.667 -13 -80 -13s-55.833 4.33301 -79.5 13s-43.834 21 -60.501 37s-29.5 35 -38.5 57s-13.5 46.667 -13.5 74c0 26.667 4.5 51.167 13.5 73.5s21.833 41.5 38.5 57.5
s36.834 28.333 60.501 37s50.167 13 79.5 13s56 -4.33301 80 -13s44.333 -21 61 -37s29.5 -35.167 38.5 -57.5s13.5 -46.833 13.5 -73.5zM295 492c0 25.333 -6.16699 46.166 -18.5 62.499s-30.833 24.5 -55.5 24.5c-23.333 0 -41.333 -8.16699 -54 -24.5
s-19 -37.166 -19 -62.499s6.33301 -46 19 -62s30.667 -24 54 -24c24.667 0 43.167 8 55.5 24s18.5 36.667 18.5 62z" />
    <glyph glyph-name="guillemotright" unicode="&#xbb;" horiz-adv-x="511" 
d="M492 238l-162 -204l-74 55l112 177l-112 177l74 55l162 -204v-56zM272 238l-162 -204l-74 55l112 177l-112 177l74 55l162 -204v-56z" />
    <glyph glyph-name="onequarter" unicode="&#xbc;" horiz-adv-x="1031" 
d="M935 84l0.000976562 -84h-111v84h-207v82c11.333 20.667 21.666 42.5 30.999 65.5s17.333 46 24 69s12 45.5 16 67.5s6 42.667 6 62h113c-0.666992 -38.667 -7.66699 -79.667 -21 -123s-31 -86 -53 -128h93v148h109v-148h57v-95h-57zM346.001 0h-113l449 666h113z
M163.001 334v210.002c-13.333 -3.33301 -29 -6.83301 -47 -10.5s-36 -6.5 -54 -8.5l-15 88c35.333 5.33301 64.5 12.166 87.5 20.499s42.167 19.166 57.5 32.499h86v-332h85v-98h-301v98h101z" />
    <glyph glyph-name="onehalf" unicode="&#xbd;" horiz-adv-x="1031" 
d="M343 0h-113l449 666h113zM160 334v210.002c-13.333 -3.33301 -29 -6.83301 -47 -10.5s-36 -6.5 -54 -8.5l-15 88c35.333 5.33301 64.5 12.166 87.5 20.499s42.167 19.166 57.5 32.499h86v-332h85v-98h-301v98h101zM644 0.00195312l-0.00195312 83.001l99 72.5
c26.667 20.333 48 38.5 64 54.5s27.5 30.167 34.5 42.5s10.5 24.5 10.5 36.5c0 15.333 -5.33301 27.166 -16 35.499s-23.667 12.5 -39 12.5s-29.666 -4.66699 -42.999 -14s-24.666 -23 -33.999 -41l-92 49c19.333 31.333 44 57 74 77s65 30 105 30
c49.333 0 89.5 -12.5 120.5 -37.5s46.5 -60.167 46.5 -105.5c0 -32 -11 -63 -33 -93s-59.333 -63.333 -112 -100h161v-102h-346z" />
    <glyph glyph-name="threequarters" unicode="&#xbe;" horiz-adv-x="1031" 
d="M397 365c0 -19.333 -3.99805 -37.167 -11.998 -53.5s-19.667 -30.833 -35 -43.5s-33.833 -22.5 -55.5 -29.5s-46.167 -10.5 -73.5 -10.5c-93.333 0 -156.333 40 -189 120l97 30c10 -20.667 23.667 -34.167 41 -40.5s34.666 -9.5 51.999 -9.5s31.166 3.83301 41.499 11.5
s15.5 17.5 15.5 29.5c0 11.333 -5.16699 20.166 -15.5 26.499s-23.5 9.5 -39.5 9.5h-57v95h55c10 0 20.333 2.83301 31 8.5s16 14.834 16 27.501c0 13.333 -5.5 23 -16.5 29s-23.167 9 -36.5 9c-18 0 -34.833 -3.5 -50.5 -10.5s-28.167 -19.167 -37.5 -36.5l-89 40
c21.333 37.333 47 64.5 77 81.5s65 25.5 105 25.5c21.333 0 41.833 -2.66699 61.5 -8s37 -13.166 52 -23.499s27 -23.5 36 -39.5s13.5 -34.667 13.5 -56c0 -38.667 -15.333 -67.334 -46 -86.001c21.333 -9.33301 36.5 -22.833 45.5 -40.5s13.5 -36.167 13.5 -55.5z
M946.002 83.999l0.000976562 -84h-111v84h-207v82c11.333 20.667 21.666 42.5 30.999 65.5s17.333 46 24 69s12 45.5 16 67.5s6 42.667 6 62h113c-0.666992 -38.667 -7.66699 -79.667 -21 -123s-31 -86 -53 -128h93v148h109v-148h57v-95h-57zM357.003 -0.000976562h-113
l449 666h113z" />
    <glyph glyph-name="questiondown" unicode="&#xbf;" horiz-adv-x="566" 
d="M52 69c0 30.667 5.5 58.335 16.5 83.002s25.667 46 44 64s39.333 33 63 45s48.167 21.333 73.5 28v22h154v-151c-8.66699 2.66699 -18.667 4.5 -30 5.5s-20.666 1.5 -27.999 1.5c-38 0 -69 -7.5 -93 -22.5s-36 -38.5 -36 -70.5c0 -28 9.5 -49 28.5 -63
s42.833 -21 71.5 -21c25.333 0 50.333 4.66699 75 14s47.667 24.666 69 45.999l85 -101c-34 -30.667 -70.833 -54 -110.5 -70s-84.834 -24 -135.501 -24c-36 0 -69.167 4.83301 -99.5 14.5s-56.5 23.667 -78.5 42s-39 40.666 -51 66.999s-18 56.5 -18 90.5zM407 534.001
v-147h-167v147h167z" />
    <glyph glyph-name="Agrave" unicode="&#xc0;" horiz-adv-x="686" 
d="M507 0l-46 142h-240l-46 -142h-174l247 666h191l246 -666h-178zM341 533l-84 -263h167zM351 696c-13.333 6.66699 -27.501 15.3311 -42.501 25.998s-29.5 22.334 -43.5 35.001s-26.833 26.167 -38.5 40.5s-20.5 28.5 -26.5 42.5l125 21c4 -10.667 9.33301 -22 16 -34
s13.834 -24 21.501 -36l23 -35c7.66699 -11.333 15.167 -21.666 22.5 -30.999z" />
    <glyph glyph-name="Aacute" unicode="&#xc1;" horiz-adv-x="686" 
d="M507 0l-46 142h-240l-46 -142h-174l247 666h191l246 -666h-178zM341 533l-84 -263h167zM277 725c14.667 19.333 30 41.502 46 66.502s28.667 48.167 38 69.5l124 -21c-6 -14 -14.667 -28.167 -26 -42.5s-24 -27.833 -38 -40.5s-28.5 -24.334 -43.5 -35.001
s-29.5 -19.334 -43.5 -26.001z" />
    <glyph glyph-name="Acircumflex" unicode="&#xc2;" horiz-adv-x="686" 
d="M507 0l-46 142h-240l-46 -142h-174l247 666h191l246 -666h-178zM341 533l-84 -263h167zM397 851c17.333 -15.333 36.502 -31 57.502 -47s45.167 -32.667 72.5 -50l-35 -56c-27.333 5.33301 -54.333 14.333 -81 27s-49.334 26 -68.001 40
c-18.667 -14 -41.334 -27.333 -68.001 -40s-53.667 -21.667 -81 -27l-35 56c27.333 17.333 51.5 34 72.5 50s40.167 31.667 57.5 47h108z" />
    <glyph glyph-name="Atilde" unicode="&#xc3;" horiz-adv-x="686" 
d="M507 0l-46 142h-240l-46 -142h-174l247 666h191l246 -666h-178zM341 533l-84 -263h167zM538 810c-11.333 -27.333 -27.832 -50.666 -49.499 -69.999s-47.167 -29 -76.5 -29c-14 0 -26.833 2 -38.5 6s-22.834 8.5 -33.501 13.5s-21 9.5 -31 13.5s-20 6 -30 6
c-13.333 0 -26.5 -3.66699 -39.5 -11s-24.5 -17.666 -34.5 -30.999l-54 37c11.333 27.333 27.666 50.666 48.999 69.999s47 29 77 29c13.333 0 25.833 -2 37.5 -6s22.834 -8.5 33.501 -13.5s21.167 -9.5 31.5 -13.5s20.5 -6 30.5 -6c12.667 0 25.5 3.66699 38.5 11
s24.833 17.666 35.5 30.999z" />
    <glyph glyph-name="Adieresis" unicode="&#xc4;" horiz-adv-x="686" 
d="M507 0l-46 142h-240l-46 -142h-174l247 666h191l246 -666h-178zM341 533l-84 -263h167zM171 714v114h112v-114h-112zM398 714v114h111v-114h-111z" />
    <glyph glyph-name="Aring" unicode="&#xc5;" horiz-adv-x="680" 
d="M194 699c0 17.333 3.83301 33.666 11.5 48.999s18.167 28.666 31.5 39.999s28.833 20.333 46.5 27s36.5 10 56.5 10s39 -3.33301 57 -10s33.5 -15.667 46.5 -27s23.333 -24.666 31 -39.999s11.5 -31.666 11.5 -48.999c0 -15.333 -3 -29.666 -9 -42.999
s-14.333 -25 -25 -35l230 -621h-178l-46 142h-240l-46 -142h-174l231 621c-10.667 10 -19.167 21.667 -25.5 35s-9.5 27.666 -9.5 42.999zM338 533l-84 -263h167zM394 698c0 15.333 -5 28.333 -15 39s-22.667 16 -38 16s-28.333 -5.33301 -39 -16s-16 -23.667 -16 -39
s5.33301 -28 16 -38s23.667 -15 39 -15s28 5 38 15s15 22.667 15 38z" />
    <glyph glyph-name="AE" unicode="&#xc6;" horiz-adv-x="970" 
d="M451 0v142h-215l-69 -142h-174l337 666h589v-143h-309v-113h264v-127h-264v-141h319v-142h-478zM451 540h-31l-124 -270h155v270z" />
    <glyph glyph-name="Ccedilla" unicode="&#xc7;" horiz-adv-x="689" 
d="M229 -59c9.33301 -8.66699 20.5 -16.5 33.5 -23.5s28.5 -10.5 46.5 -10.5c15.333 0 28 3.33301 38 10s15 16.667 15 30c0 8 -2 15.5 -6 22.5s-9 13.5 -15 19.5c-45.333 3.33301 -86.833 13.833 -124.5 31.5s-70 41.5 -97 71.5s-47.833 65.5 -62.5 106.5
s-22 86.167 -22 135.5c0 51.333 8.16699 98.166 24.5 140.499s39.166 78.5 68.499 108.5s64.5 53.333 105.5 70s86.167 25 135.5 25c59.333 0 114.333 -12.833 165 -38.5s93.334 -68.167 128.001 -127.5l-126 -73c-20 35.333 -43.333 61 -70 77s-57.667 24 -93 24
c-27.333 0 -51.666 -5.16699 -72.999 -15.5s-39.5 -24.666 -54.5 -42.999s-26.5 -40 -34.5 -65s-12 -52.167 -12 -81.5c0 -30 4 -57.667 12 -83s19.5 -47.333 34.5 -66s33.167 -33.334 54.5 -44.001s45.666 -16 72.999 -16c38 0 69.5 9.33301 94.5 28s47.167 46 66.5 82
l132 -69c-26.667 -50 -60.5 -90 -101.5 -120s-89.833 -48.667 -146.5 -56c23.333 -22 35 -46.667 35 -74c0 -14 -3.16699 -26.833 -9.5 -38.5s-15.333 -21.667 -27 -30s-25.5 -15 -41.5 -20s-33.333 -7.5 -52 -7.5c-22 0 -41.333 2.83301 -58 8.5s-28.667 11.834 -36 18.501
v93z" />
    <glyph glyph-name="Egrave" unicode="&#xc8;" horiz-adv-x="631" 
d="M72 0v666h508v-143h-349v-113h304v-127h-304v-141h359v-142h-518zM342 698c-13.333 6.66699 -27.501 15.3311 -42.501 25.998s-29.5 22.334 -43.5 35.001s-26.833 26.167 -38.5 40.5s-20.5 28.5 -26.5 42.5l125 21c4 -10.667 9.33301 -22 16 -34s13.834 -24 21.501 -36
l23 -35c7.66699 -11.333 15.167 -21.666 22.5 -30.999z" />
    <glyph glyph-name="Eacute" unicode="&#xc9;" horiz-adv-x="631" 
d="M72 0v666h508v-143h-349v-113h304v-127h-304v-141h359v-142h-518zM275 727c14.667 19.333 30 41.502 46 66.502s28.667 48.167 38 69.5l124 -21c-6 -14 -14.667 -28.167 -26 -42.5s-24 -27.833 -38 -40.5s-28.5 -24.334 -43.5 -35.001s-29.5 -19.334 -43.5 -26.001z" />
    <glyph glyph-name="Ecircumflex" unicode="&#xca;" horiz-adv-x="631" 
d="M72 0v666h508v-143h-349v-113h304v-127h-304v-141h359v-142h-518zM385 853c17.333 -15.333 36.502 -31 57.502 -47s45.167 -32.667 72.5 -50l-35 -56c-27.333 5.33301 -54.333 14.333 -81 27s-49.334 26 -68.001 40c-18.667 -14 -41.334 -27.333 -68.001 -40
s-53.667 -21.667 -81 -27l-35 56c27.333 17.333 51.5 34 72.5 50s40.167 31.667 57.5 47h108z" />
    <glyph glyph-name="Edieresis" unicode="&#xcb;" horiz-adv-x="631" 
d="M72 0v666h508v-143h-349v-113h304v-127h-304v-141h359v-142h-518zM164 716v114h112v-114h-112zM391 716v114h111v-114h-111z" />
    <glyph glyph-name="Igrave" unicode="&#xcc;" horiz-adv-x="303" 
d="M72 0v666h159v-666h-159zM174 696c-13.333 6.66699 -27.501 15.3311 -42.501 25.998s-29.5 22.334 -43.5 35.001s-26.833 26.167 -38.5 40.5s-20.5 28.5 -26.5 42.5l125 21c4 -10.667 9.33301 -22 16 -34s13.834 -24 21.501 -36l23 -35
c7.66699 -11.333 15.167 -21.666 22.5 -30.999z" />
    <glyph glyph-name="Iacute" unicode="&#xcd;" horiz-adv-x="303" 
d="M72 0v666h159v-666h-159zM81 725c14.667 19.333 30 41.502 46 66.502s28.667 48.167 38 69.5l124 -21c-6 -14 -14.667 -28.167 -26 -42.5s-24 -27.833 -38 -40.5s-28.5 -24.334 -43.5 -35.001s-29.5 -19.334 -43.5 -26.001z" />
    <glyph glyph-name="Icircumflex" unicode="&#xce;" horiz-adv-x="303" 
d="M72 0v666h159v-666h-159zM206 851c17.333 -15.333 36.502 -31 57.502 -47s45.167 -32.667 72.5 -50l-35 -56c-27.333 5.33301 -54.333 14.333 -81 27s-49.334 26 -68.001 40c-18.667 -14 -41.334 -27.333 -68.001 -40s-53.667 -21.667 -81 -27l-35 56
c27.333 17.333 51.5 34 72.5 50s40.167 31.667 57.5 47h108z" />
    <glyph glyph-name="Idieresis" unicode="&#xcf;" horiz-adv-x="303" 
d="M72 0v666h159v-666h-159zM-17 714v114h112v-114h-112zM210 714v114h111v-114h-111z" />
    <glyph glyph-name="Eth" unicode="&#xd0;" horiz-adv-x="753" 
d="M718 333c0 -47.333 -7.33301 -91.3311 -22 -131.998s-36.334 -75.834 -65.001 -105.501s-64.167 -53 -106.5 -70s-91.166 -25.5 -146.499 -25.5h-278v273h-98v126h98v267h278c55.333 0 104.166 -8.5 146.499 -25.5s77.833 -40.333 106.5 -70
s50.334 -64.834 65.001 -105.501s22 -84.667 22 -132zM553 333.002c0 60 -15 106.667 -45 140s-73.333 50 -130 50h-118v-124h151v-126h-151v-131h118c56.667 0 100 16.667 130 50s45 80.333 45 141z" />
    <glyph glyph-name="Ntilde" unicode="&#xd1;" horiz-adv-x="738" 
d="M475 0l-250 456v-456h-153v666h199l243 -446v446h152v-666h-191zM573 810c-11.333 -27.333 -27.832 -50.666 -49.499 -69.999s-47.167 -29 -76.5 -29c-14 0 -26.833 2 -38.5 6s-22.834 8.5 -33.501 13.5s-21 9.5 -31 13.5s-20 6 -30 6
c-13.333 0 -26.5 -3.66699 -39.5 -11s-24.5 -17.666 -34.5 -30.999l-54 37c11.333 27.333 27.666 50.666 48.999 69.999s47 29 77 29c13.333 0 25.833 -2 37.5 -6s22.834 -8.5 33.501 -13.5s21.167 -9.5 31.5 -13.5s20.5 -6 30.5 -6c12.667 0 25.5 3.66699 38.5 11
s24.833 17.666 35.5 30.999z" />
    <glyph glyph-name="Ograve" unicode="&#xd2;" horiz-adv-x="749" 
d="M716 333c0 -48 -7.83301 -93 -23.5 -135s-38.167 -78.5 -67.5 -109.5s-65.166 -55.5 -107.499 -73.5s-90.166 -27 -143.499 -27s-101 9 -143 27s-77.667 42.5 -107 73.5s-51.666 67.5 -66.999 109.5s-23 87 -23 135s7.66699 93 23 135s37.666 78.5 66.999 109.5
s65 55.5 107 73.5s89.667 27 143 27s101.166 -9 143.499 -27s78.166 -42.5 107.499 -73.5s51.833 -67.5 67.5 -109.5s23.5 -87 23.5 -135zM550 333c0 27.333 -3.83301 53.166 -11.5 77.499s-19 45.5 -34 63.5s-33.333 32.167 -55 42.5s-46.834 15.5 -75.501 15.5
s-53.834 -5.16699 -75.501 -15.5s-39.834 -24.5 -54.501 -42.5s-25.834 -39.167 -33.501 -63.5s-11.5 -50.166 -11.5 -77.499c0 -28 3.83301 -54 11.5 -78s18.834 -45 33.501 -63s32.834 -32.167 54.501 -42.5s46.834 -15.5 75.501 -15.5s53.834 5.16699 75.501 15.5
s40 24.5 55 42.5s26.333 39 34 63s11.5 50 11.5 78zM393 696c-13.333 6.66699 -27.501 15.3311 -42.501 25.998s-29.5 22.334 -43.5 35.001s-26.833 26.167 -38.5 40.5s-20.5 28.5 -26.5 42.5l125 21c4 -10.667 9.33301 -22 16 -34s13.834 -24 21.501 -36l23 -35
c7.66699 -11.333 15.167 -21.666 22.5 -30.999z" />
    <glyph glyph-name="Oacute" unicode="&#xd3;" horiz-adv-x="749" 
d="M716 333c0 -48 -7.83301 -93 -23.5 -135s-38.167 -78.5 -67.5 -109.5s-65.166 -55.5 -107.499 -73.5s-90.166 -27 -143.499 -27s-101 9 -143 27s-77.667 42.5 -107 73.5s-51.666 67.5 -66.999 109.5s-23 87 -23 135s7.66699 93 23 135s37.666 78.5 66.999 109.5
s65 55.5 107 73.5s89.667 27 143 27s101.166 -9 143.499 -27s78.166 -42.5 107.499 -73.5s51.833 -67.5 67.5 -109.5s23.5 -87 23.5 -135zM550 333c0 27.333 -3.83301 53.166 -11.5 77.499s-19 45.5 -34 63.5s-33.333 32.167 -55 42.5s-46.834 15.5 -75.501 15.5
s-53.834 -5.16699 -75.501 -15.5s-39.834 -24.5 -54.501 -42.5s-25.834 -39.167 -33.501 -63.5s-11.5 -50.166 -11.5 -77.499c0 -28 3.83301 -54 11.5 -78s18.834 -45 33.501 -63s32.834 -32.167 54.501 -42.5s46.834 -15.5 75.501 -15.5s53.834 5.16699 75.501 15.5
s40 24.5 55 42.5s26.333 39 34 63s11.5 50 11.5 78zM293 725c14.667 19.333 30 41.502 46 66.502s28.667 48.167 38 69.5l124 -21c-6 -14 -14.667 -28.167 -26 -42.5s-24 -27.833 -38 -40.5s-28.5 -24.334 -43.5 -35.001s-29.5 -19.334 -43.5 -26.001z" />
    <glyph glyph-name="Ocircumflex" unicode="&#xd4;" horiz-adv-x="749" 
d="M716 333c0 -48 -7.83301 -93 -23.5 -135s-38.167 -78.5 -67.5 -109.5s-65.166 -55.5 -107.499 -73.5s-90.166 -27 -143.499 -27s-101 9 -143 27s-77.667 42.5 -107 73.5s-51.666 67.5 -66.999 109.5s-23 87 -23 135s7.66699 93 23 135s37.666 78.5 66.999 109.5
s65 55.5 107 73.5s89.667 27 143 27s101.166 -9 143.499 -27s78.166 -42.5 107.499 -73.5s51.833 -67.5 67.5 -109.5s23.5 -87 23.5 -135zM550 333c0 27.333 -3.83301 53.166 -11.5 77.499s-19 45.5 -34 63.5s-33.333 32.167 -55 42.5s-46.834 15.5 -75.501 15.5
s-53.834 -5.16699 -75.501 -15.5s-39.834 -24.5 -54.501 -42.5s-25.834 -39.167 -33.501 -63.5s-11.5 -50.166 -11.5 -77.499c0 -28 3.83301 -54 11.5 -78s18.834 -45 33.501 -63s32.834 -32.167 54.501 -42.5s46.834 -15.5 75.501 -15.5s53.834 5.16699 75.501 15.5
s40 24.5 55 42.5s26.333 39 34 63s11.5 50 11.5 78zM428 851c17.333 -15.333 36.502 -31 57.502 -47s45.167 -32.667 72.5 -50l-35 -56c-27.333 5.33301 -54.333 14.333 -81 27s-49.334 26 -68.001 40c-18.667 -14 -41.334 -27.333 -68.001 -40s-53.667 -21.667 -81 -27
l-35 56c27.333 17.333 51.5 34 72.5 50s40.167 31.667 57.5 47h108z" />
    <glyph glyph-name="Otilde" unicode="&#xd5;" horiz-adv-x="749" 
d="M716 333c0 -48 -7.83301 -93 -23.5 -135s-38.167 -78.5 -67.5 -109.5s-65.166 -55.5 -107.499 -73.5s-90.166 -27 -143.499 -27s-101 9 -143 27s-77.667 42.5 -107 73.5s-51.666 67.5 -66.999 109.5s-23 87 -23 135s7.66699 93 23 135s37.666 78.5 66.999 109.5
s65 55.5 107 73.5s89.667 27 143 27s101.166 -9 143.499 -27s78.166 -42.5 107.499 -73.5s51.833 -67.5 67.5 -109.5s23.5 -87 23.5 -135zM550 333c0 27.333 -3.83301 53.166 -11.5 77.499s-19 45.5 -34 63.5s-33.333 32.167 -55 42.5s-46.834 15.5 -75.501 15.5
s-53.834 -5.16699 -75.501 -15.5s-39.834 -24.5 -54.501 -42.5s-25.834 -39.167 -33.501 -63.5s-11.5 -50.166 -11.5 -77.499c0 -28 3.83301 -54 11.5 -78s18.834 -45 33.501 -63s32.834 -32.167 54.501 -42.5s46.834 -15.5 75.501 -15.5s53.834 5.16699 75.501 15.5
s40 24.5 55 42.5s26.333 39 34 63s11.5 50 11.5 78zM571 810c-11.333 -27.333 -27.832 -50.666 -49.499 -69.999s-47.167 -29 -76.5 -29c-14 0 -26.833 2 -38.5 6s-22.834 8.5 -33.501 13.5s-21 9.5 -31 13.5s-20 6 -30 6c-13.333 0 -26.5 -3.66699 -39.5 -11
s-24.5 -17.666 -34.5 -30.999l-54 37c11.333 27.333 27.666 50.666 48.999 69.999s47 29 77 29c13.333 0 25.833 -2 37.5 -6s22.834 -8.5 33.501 -13.5s21.167 -9.5 31.5 -13.5s20.5 -6 30.5 -6c12.667 0 25.5 3.66699 38.5 11s24.833 17.666 35.5 30.999z" />
    <glyph glyph-name="Odieresis" unicode="&#xd6;" horiz-adv-x="749" 
d="M716 333c0 -48 -7.83301 -93 -23.5 -135s-38.167 -78.5 -67.5 -109.5s-65.166 -55.5 -107.499 -73.5s-90.166 -27 -143.499 -27s-101 9 -143 27s-77.667 42.5 -107 73.5s-51.666 67.5 -66.999 109.5s-23 87 -23 135s7.66699 93 23 135s37.666 78.5 66.999 109.5
s65 55.5 107 73.5s89.667 27 143 27s101.166 -9 143.499 -27s78.166 -42.5 107.499 -73.5s51.833 -67.5 67.5 -109.5s23.5 -87 23.5 -135zM550 333c0 27.333 -3.83301 53.166 -11.5 77.499s-19 45.5 -34 63.5s-33.333 32.167 -55 42.5s-46.834 15.5 -75.501 15.5
s-53.834 -5.16699 -75.501 -15.5s-39.834 -24.5 -54.501 -42.5s-25.834 -39.167 -33.501 -63.5s-11.5 -50.166 -11.5 -77.499c0 -28 3.83301 -54 11.5 -78s18.834 -45 33.501 -63s32.834 -32.167 54.501 -42.5s46.834 -15.5 75.501 -15.5s53.834 5.16699 75.501 15.5
s40 24.5 55 42.5s26.333 39 34 63s11.5 50 11.5 78zM204 714v114h112v-114h-112zM431 714v114h111v-114h-111z" />
    <glyph glyph-name="multiply" unicode="&#xd7;" 
d="M472 42l-172 172l-173 -172l-89 90l172 172l-172 172l89 90l173 -172l172 172l89 -90l-171 -172l171 -172z" />
    <glyph glyph-name="Oslash" unicode="&#xd8;" horiz-adv-x="749" 
d="M113 28l28.999 41.001c-35.333 32 -62.166 70.5 -80.499 115.5s-27.5 94.5 -27.5 148.5c0 48 7.66699 93 23 135s37.666 78.5 66.999 109.5s65 55.5 107 73.5s89.667 27 143 27c32 0 61.833 -3.33301 89.5 -10s53.5 -16.334 77.5 -29.001l31 44l64 -45l-30 -43
c36 -32 63.333 -70.5 82 -115.5s28 -93.833 28 -146.5c0 -48 -7.83301 -93 -23.5 -135s-38.167 -78.5 -67.5 -109.5s-65.166 -55.5 -107.499 -73.5s-90.166 -27 -143.499 -27c-62.667 0 -118.334 12.667 -167.001 38l-30 -43zM549.999 333.001
c0 50.667 -12.334 93.333 -37.001 128l-218 -310c11.333 -6 23.5 -10.333 36.5 -13s27.167 -4 42.5 -4c28.667 0 53.834 5.16699 75.501 15.5s40 24.5 55 42.5s26.333 39 34 63s11.5 50 11.5 78zM198.998 333c0 -52 12.335 -95.334 37.002 -130.001l217 311
c-23.333 12 -49.666 18 -78.999 18c-28.667 0 -53.834 -5.16699 -75.501 -15.5s-39.834 -24.5 -54.501 -42.5s-25.834 -39.167 -33.501 -63.5s-11.5 -50.166 -11.5 -77.499z" />
    <glyph glyph-name="Ugrave" unicode="&#xd9;" horiz-adv-x="713" 
d="M648 258c0 -43.333 -6.99902 -81.833 -20.999 -115.5s-33.833 -62 -59.5 -85s-56.334 -40.333 -92.001 -52s-75.167 -17.5 -118.5 -17.5c-44 0 -84 5.83301 -120 17.5s-66.667 29 -92 52s-45 51.333 -59 85s-21 72.167 -21 115.5v408h160v-408
c0 -40.667 11 -71.667 33 -93s55 -32 99 -32c42 0 74.5 10.667 97.5 32s34.5 52.333 34.5 93v408h159v-408zM372.001 696c-13.333 6.66699 -27.501 15.3311 -42.501 25.998s-29.5 22.334 -43.5 35.001s-26.833 26.167 -38.5 40.5s-20.5 28.5 -26.5 42.5l125 21
c4 -10.667 9.33301 -22 16 -34s13.834 -24 21.501 -36l23 -35c7.66699 -11.333 15.167 -21.666 22.5 -30.999z" />
    <glyph glyph-name="Uacute" unicode="&#xda;" horiz-adv-x="713" 
d="M648 258c0 -43.333 -6.99902 -81.833 -20.999 -115.5s-33.833 -62 -59.5 -85s-56.334 -40.333 -92.001 -52s-75.167 -17.5 -118.5 -17.5c-44 0 -84 5.83301 -120 17.5s-66.667 29 -92 52s-45 51.333 -59 85s-21 72.167 -21 115.5v408h160v-408
c0 -40.667 11 -71.667 33 -93s55 -32 99 -32c42 0 74.5 10.667 97.5 32s34.5 52.333 34.5 93v408h159v-408zM299.001 725c14.667 19.333 30 41.502 46 66.502s28.667 48.167 38 69.5l124 -21c-6 -14 -14.667 -28.167 -26 -42.5s-24 -27.833 -38 -40.5
s-28.5 -24.334 -43.5 -35.001s-29.5 -19.334 -43.5 -26.001z" />
    <glyph glyph-name="Ucircumflex" unicode="&#xdb;" horiz-adv-x="713" 
d="M648 258c0 -43.333 -6.99902 -81.833 -20.999 -115.5s-33.833 -62 -59.5 -85s-56.334 -40.333 -92.001 -52s-75.167 -17.5 -118.5 -17.5c-44 0 -84 5.83301 -120 17.5s-66.667 29 -92 52s-45 51.333 -59 85s-21 72.167 -21 115.5v408h160v-408
c0 -40.667 11 -71.667 33 -93s55 -32 99 -32c42 0 74.5 10.667 97.5 32s34.5 52.333 34.5 93v408h159v-408zM411.001 851c17.333 -15.333 36.502 -31 57.502 -47s45.167 -32.667 72.5 -50l-35 -56c-27.333 5.33301 -54.333 14.333 -81 27s-49.334 26 -68.001 40
c-18.667 -14 -41.334 -27.333 -68.001 -40s-53.667 -21.667 -81 -27l-35 56c27.333 17.333 51.5 34 72.5 50s40.167 31.667 57.5 47h108z" />
    <glyph glyph-name="Udieresis" unicode="&#xdc;" horiz-adv-x="713" 
d="M648 258c0 -43.333 -6.99902 -81.833 -20.999 -115.5s-33.833 -62 -59.5 -85s-56.334 -40.333 -92.001 -52s-75.167 -17.5 -118.5 -17.5c-44 0 -84 5.83301 -120 17.5s-66.667 29 -92 52s-45 51.333 -59 85s-21 72.167 -21 115.5v408h160v-408
c0 -40.667 11 -71.667 33 -93s55 -32 99 -32c42 0 74.5 10.667 97.5 32s34.5 52.333 34.5 93v408h159v-408zM190.001 714v114h112v-114h-112zM417.001 714v114h111v-114h-111z" />
    <glyph glyph-name="Yacute" unicode="&#xdd;" horiz-adv-x="669" 
d="M414 256v-256h-159v254l-257 412h186l151 -265l152 265h185zM273 725c14.667 19.333 30 41.502 46 66.502s28.667 48.167 38 69.5l124 -21c-6 -14 -14.667 -28.167 -26 -42.5s-24 -27.833 -38 -40.5s-28.5 -24.334 -43.5 -35.001s-29.5 -19.334 -43.5 -26.001z" />
    <glyph glyph-name="Thorn" unicode="&#xde;" horiz-adv-x="653" 
d="M232 0l-159.998 0.000976562v667h160v-82h149c39.333 0 74.666 -5.33301 105.999 -16s58 -26 80 -46s38.833 -44 50.5 -72s17.5 -59.333 17.5 -94c0 -34 -5.83301 -65 -17.5 -93s-28.334 -51.833 -50.001 -71.5s-48.167 -34.834 -79.5 -45.501s-67 -16 -107 -16h-149
v-131zM473.002 358.001c0 28.667 -8.5 49.999 -25.5 63.999s-39.833 21 -68.5 21h-147v-169h147c25.333 0 47.333 6.83301 66 20.5s28 34.834 28 63.501z" />
    <glyph glyph-name="germandbls" unicode="&#xdf;" horiz-adv-x="664" 
d="M633 204c0 -34 -5.99902 -64.3369 -17.999 -91.0039s-28.833 -49.167 -50.5 -67.5s-47.334 -32.5 -77.001 -42.5s-62.167 -15 -97.5 -15c-23.333 0 -46.833 1.66699 -70.5 5s-44.167 8.33301 -61.5 15l27 132c9.33301 -5.33301 21 -9.66602 35 -12.999s28.667 -5 44 -5
c30.667 0 56.167 8.16699 76.5 24.5s30.5 40.5 30.5 72.5c0 34.667 -11.333 58.5 -34 71.5s-52 19.5 -88 19.5h-61v126h47c28 0 51.333 6.33301 70 19s28 33 28 61c0 29.333 -10.5 50.5 -31.5 63.5s-46.5 19.5 -76.5 19.5c-34 0 -60.667 -8.16699 -80 -24.5
s-29 -39.5 -29 -69.5v-505h-153v507c0 68.667 22.667 122.334 68 161.001s111.333 58 198 58c37.333 0 71.833 -4.16699 103.5 -12.5s59 -20.666 82 -36.999s41 -36.5 54 -60.5s19.5 -52 19.5 -84c0 -32.667 -7.83301 -61.667 -23.5 -87s-38.167 -45.666 -67.5 -60.999
c42 -12 75.167 -33 99.5 -63s36.5 -69 36.5 -117z" />
    <glyph glyph-name="agrave" unicode="&#xe0;" horiz-adv-x="679" 
d="M328 570c-13.333 6.66699 -27.501 15.3311 -42.501 25.998s-29.5 22.334 -43.5 35.001s-26.833 26.167 -38.5 40.5s-20.5 28.5 -26.5 42.5l125 21c4 -10.667 9.33301 -22 16 -34s13.834 -24 21.501 -36l23 -35c7.66699 -11.333 15.167 -21.666 22.5 -30.999z
M592.999 131.997c0 -12 2.16797 -20.499 6.50098 -25.499s11.166 -7.5 20.499 -7.5c12.667 0 21.667 2.33301 27 7l16 -96c-10.667 -6.66699 -24 -11.334 -40 -14.001s-30 -4 -42 -4c-26 0 -50.833 5 -74.5 15s-41.834 29.667 -54.501 59c-21.333 -28 -46.5 -48 -75.5 -60
s-61.5 -18 -97.5 -18c-39.333 0 -74.166 7.16699 -104.499 21.5s-56 34 -77 59s-37 54.5 -48 88.5s-16.5 70.667 -16.5 110c0 40 5.66699 77 17 111s27.5 63.5 48.5 88.5s46.5 44.5 76.5 58.5s63.667 21 101 21c66 0 120.333 -24.333 163 -73v61h154v-402zM439 265.998
c0 20 -2.66992 38.999 -8.00293 56.999s-13.166 33.833 -23.499 47.5s-23.166 24.334 -38.499 32.001s-33.333 11.5 -54 11.5s-38.5 -4 -53.5 -12s-27.5 -18.667 -37.5 -32s-17.5 -29 -22.5 -47s-7.5 -37 -7.5 -57s2.5 -38.833 7.5 -56.5s12.5 -33.167 22.5 -46.5
s22.5 -23.833 37.5 -31.5s32.833 -11.5 53.5 -11.5s38.834 3.83301 54.501 11.5s28.667 18.167 39 31.5s18 28.833 23 46.5s7.5 36.5 7.5 56.5z" />
    <glyph glyph-name="aacute" unicode="&#xe1;" horiz-adv-x="679" 
d="M253 599c14.667 19.333 30 41.502 46 66.502s28.667 48.167 38 69.5l124 -21c-6 -14 -14.667 -28.167 -26 -42.5s-24 -27.833 -38 -40.5s-28.5 -24.334 -43.5 -35.001s-29.5 -19.334 -43.5 -26.001zM593 132.002c0 -12 2.16797 -20.499 6.50098 -25.499
s11.166 -7.5 20.499 -7.5c12.667 0 21.667 2.33301 27 7l16 -96c-10.667 -6.66699 -24 -11.334 -40 -14.001s-30 -4 -42 -4c-26 0 -50.833 5 -74.5 15s-41.834 29.667 -54.501 59c-21.333 -28 -46.5 -48 -75.5 -60s-61.5 -18 -97.5 -18
c-39.333 0 -74.166 7.16699 -104.499 21.5s-56 34 -77 59s-37 54.5 -48 88.5s-16.5 70.667 -16.5 110c0 40 5.66699 77 17 111s27.5 63.5 48.5 88.5s46.5 44.5 76.5 58.5s63.667 21 101 21c66 0 120.333 -24.333 163 -73v61h154v-402zM439.001 266.003
c0 20 -2.66992 38.999 -8.00293 56.999s-13.166 33.833 -23.499 47.5s-23.166 24.334 -38.499 32.001s-33.333 11.5 -54 11.5s-38.5 -4 -53.5 -12s-27.5 -18.667 -37.5 -32s-17.5 -29 -22.5 -47s-7.5 -37 -7.5 -57s2.5 -38.833 7.5 -56.5s12.5 -33.167 22.5 -46.5
s22.5 -23.833 37.5 -31.5s32.833 -11.5 53.5 -11.5s38.834 3.83301 54.501 11.5s28.667 18.167 39 31.5s18 28.833 23 46.5s7.5 36.5 7.5 56.5z" />
    <glyph glyph-name="acircumflex" unicode="&#xe2;" horiz-adv-x="679" 
d="M593 132c0 -12 2.16797 -20.499 6.50098 -25.499s11.166 -7.5 20.499 -7.5c12.667 0 21.667 2.33301 27 7l16 -96c-10.667 -6.66699 -24 -11.334 -40 -14.001s-30 -4 -42 -4c-26 0 -50.833 5 -74.5 15s-41.834 29.667 -54.501 59c-21.333 -28 -46.5 -48 -75.5 -60
s-61.5 -18 -97.5 -18c-39.333 0 -74.166 7.16699 -104.499 21.5s-56 34 -77 59s-37 54.5 -48 88.5s-16.5 70.667 -16.5 110c0 40 5.66699 77 17 111s27.5 63.5 48.5 88.5s46.5 44.5 76.5 58.5s63.667 21 101 21c66 0 120.333 -24.333 163 -73v61h154v-402zM439.001 266.001
c0 20 -2.66992 38.999 -8.00293 56.999s-13.166 33.833 -23.499 47.5s-23.166 24.334 -38.499 32.001s-33.333 11.5 -54 11.5s-38.5 -4 -53.5 -12s-27.5 -18.667 -37.5 -32s-17.5 -29 -22.5 -47s-7.5 -37 -7.5 -57s2.5 -38.833 7.5 -56.5s12.5 -33.167 22.5 -46.5
s22.5 -23.833 37.5 -31.5s32.833 -11.5 53.5 -11.5s38.834 3.83301 54.501 11.5s28.667 18.167 39 31.5s18 28.833 23 46.5s7.5 36.5 7.5 56.5zM368.998 725c17.333 -15.333 36.502 -31 57.502 -47s45.167 -32.667 72.5 -50l-35 -56c-27.333 5.33301 -54.333 14.333 -81 27
s-49.334 26 -68.001 40c-18.667 -14 -41.334 -27.333 -68.001 -40s-53.667 -21.667 -81 -27l-35 56c27.333 17.333 51.5 34 72.5 50s40.167 31.667 57.5 47h108z" />
    <glyph glyph-name="atilde" unicode="&#xe3;" horiz-adv-x="679" 
d="M510 684c-11.333 -27.333 -27.832 -50.666 -49.499 -69.999s-47.167 -29 -76.5 -29c-14 0 -26.833 2 -38.5 6s-22.834 8.5 -33.501 13.5s-21 9.5 -31 13.5s-20 6 -30 6c-13.333 0 -26.5 -3.66699 -39.5 -11s-24.5 -17.666 -34.5 -30.999l-54 37
c11.333 27.333 27.666 50.666 48.999 69.999s47 29 77 29c13.333 0 25.833 -2 37.5 -6s22.834 -8.5 33.501 -13.5s21.167 -9.5 31.5 -13.5s20.5 -6 30.5 -6c12.667 0 25.5 3.66699 38.5 11s24.833 17.666 35.5 30.999zM593.001 132c0 -12 2.16797 -20.499 6.50098 -25.499
s11.166 -7.5 20.499 -7.5c12.667 0 21.667 2.33301 27 7l16 -96c-10.667 -6.66699 -24 -11.334 -40 -14.001s-30 -4 -42 -4c-26 0 -50.833 5 -74.5 15s-41.834 29.667 -54.501 59c-21.333 -28 -46.5 -48 -75.5 -60s-61.5 -18 -97.5 -18
c-39.333 0 -74.166 7.16699 -104.499 21.5s-56 34 -77 59s-37 54.5 -48 88.5s-16.5 70.667 -16.5 110c0 40 5.66699 77 17 111s27.5 63.5 48.5 88.5s46.5 44.5 76.5 58.5s63.667 21 101 21c66 0 120.333 -24.333 163 -73v61h154v-402zM439.002 266.001
c0 20 -2.66992 38.999 -8.00293 56.999s-13.166 33.833 -23.499 47.5s-23.166 24.334 -38.499 32.001s-33.333 11.5 -54 11.5s-38.5 -4 -53.5 -12s-27.5 -18.667 -37.5 -32s-17.5 -29 -22.5 -47s-7.5 -37 -7.5 -57s2.5 -38.833 7.5 -56.5s12.5 -33.167 22.5 -46.5
s22.5 -23.833 37.5 -31.5s32.833 -11.5 53.5 -11.5s38.834 3.83301 54.501 11.5s28.667 18.167 39 31.5s18 28.833 23 46.5s7.5 36.5 7.5 56.5z" />
    <glyph glyph-name="adieresis" unicode="&#xe4;" horiz-adv-x="679" 
d="M593 132c0 -12 2.16797 -20.499 6.50098 -25.499s11.166 -7.5 20.499 -7.5c12.667 0 21.667 2.33301 27 7l16 -96c-10.667 -6.66699 -24 -11.334 -40 -14.001s-30 -4 -42 -4c-26 0 -50.833 5 -74.5 15s-41.834 29.667 -54.501 59c-21.333 -28 -46.5 -48 -75.5 -60
s-61.5 -18 -97.5 -18c-39.333 0 -74.166 7.16699 -104.499 21.5s-56 34 -77 59s-37 54.5 -48 88.5s-16.5 70.667 -16.5 110c0 40 5.66699 77 17 111s27.5 63.5 48.5 88.5s46.5 44.5 76.5 58.5s63.667 21 101 21c66 0 120.333 -24.333 163 -73v61h154v-402zM439.001 266.001
c0 20 -2.66992 38.999 -8.00293 56.999s-13.166 33.833 -23.499 47.5s-23.166 24.334 -38.499 32.001s-33.333 11.5 -54 11.5s-38.5 -4 -53.5 -12s-27.5 -18.667 -37.5 -32s-17.5 -29 -22.5 -47s-7.5 -37 -7.5 -57s2.5 -38.833 7.5 -56.5s12.5 -33.167 22.5 -46.5
s22.5 -23.833 37.5 -31.5s32.833 -11.5 53.5 -11.5s38.834 3.83301 54.501 11.5s28.667 18.167 39 31.5s18 28.833 23 46.5s7.5 36.5 7.5 56.5zM145.998 588v114h112v-114h-112zM372.998 588v114h111v-114h-111z" />
    <glyph glyph-name="aring" unicode="&#xe5;" horiz-adv-x="679" 
d="M439 674c0 -14.667 -3 -28.5 -9 -41.5s-14.5 -24.333 -25.5 -34s-24.167 -17.334 -39.5 -23.001s-32 -8.5 -50 -8.5s-34.667 2.83301 -50 8.5s-28.5 13.334 -39.5 23.001s-19.5 21 -25.5 34s-9 26.833 -9 41.5s3 28.5 9 41.5s14.5 24.5 25.5 34.5
s24.167 17.833 39.5 23.5s32 8.5 50 8.5s34.667 -2.83301 50 -8.5s28.5 -13.5 39.5 -23.5s19.5 -21.5 25.5 -34.5s9 -26.833 9 -41.5zM366 673c0 14 -5 26 -15 36s-22 15 -36 15c-13.333 0 -25 -5 -35 -15s-15 -22 -15 -36c0 -13.333 5 -25 15 -35s21.667 -15 35 -15
c14 0 26 5 36 15s15 21.667 15 35zM593 132c0 -12 2.16797 -20.499 6.50098 -25.499s11.166 -7.5 20.499 -7.5c12.667 0 21.667 2.33301 27 7l16 -96c-10.667 -6.66699 -24 -11.334 -40 -14.001s-30 -4 -42 -4c-26 0 -50.833 5 -74.5 15s-41.834 29.667 -54.501 59
c-21.333 -28 -46.5 -48 -75.5 -60s-61.5 -18 -97.5 -18c-39.333 0 -74.166 7.16699 -104.499 21.5s-56 34 -77 59s-37 54.5 -48 88.5s-16.5 70.667 -16.5 110c0 40 5.66699 77 17 111s27.5 63.5 48.5 88.5s46.5 44.5 76.5 58.5s63.667 21 101 21
c66 0 120.333 -24.333 163 -73v61h154v-402zM439.001 266.001c0 20 -2.66992 38.999 -8.00293 56.999s-13.166 33.833 -23.499 47.5s-23.166 24.334 -38.499 32.001s-33.333 11.5 -54 11.5s-38.5 -4 -53.5 -12s-27.5 -18.667 -37.5 -32s-17.5 -29 -22.5 -47
s-7.5 -37 -7.5 -57s2.5 -38.833 7.5 -56.5s12.5 -33.167 22.5 -46.5s22.5 -23.833 37.5 -31.5s32.833 -11.5 53.5 -11.5s38.834 3.83301 54.501 11.5s28.667 18.167 39 31.5s18 28.833 23 46.5s7.5 36.5 7.5 56.5z" />
    <glyph glyph-name="ae" unicode="&#xe6;" horiz-adv-x="1009" 
d="M438 266c0 20 -2.66992 38.999 -8.00293 56.999s-13.166 33.833 -23.499 47.5s-23.166 24.334 -38.499 32.001s-33.333 11.5 -54 11.5s-38.5 -4 -53.5 -12s-27.5 -18.667 -37.5 -32s-17.5 -29 -22.5 -47s-7.5 -37 -7.5 -57s2.5 -38.833 7.5 -56.5
s12.5 -33.167 22.5 -46.5s22.5 -23.833 37.5 -31.5s32.833 -11.5 53.5 -11.5s38.834 3.83301 54.501 11.5s28.667 18.167 39 31.5s18 28.833 23 46.5s7.5 36.5 7.5 56.5zM740.997 545.999c36.667 0 69.4971 -6.66504 98.4971 -19.998s53.833 -32.166 74.5 -56.499
s36.5 -53.5 47.5 -87.5s16.5 -71.333 16.5 -112c0 -6.66699 -0.166992 -13.667 -0.5 -21s-0.833008 -14 -1.5 -20h-384c2 -36.667 15.167 -64.667 39.5 -84s55.833 -29 94.5 -29c30.667 0 58.167 5.66699 82.5 17s45.166 26.666 62.499 45.999l100 -90
c-29.333 -30 -64.333 -54.333 -105 -73s-90 -28 -148 -28c-49.333 0 -91.666 7.66699 -126.999 23s-64.333 37 -87 65c-22.667 -27.333 -51 -48.833 -85 -64.5s-72.667 -23.5 -116 -23.5c-42.667 0 -80.667 6.83301 -114 20.5s-61.666 32.667 -84.999 57
s-41.166 53.666 -53.499 87.999s-18.5 72.166 -18.5 113.499c0 40 5.66699 77 17 111s27.5 63.5 48.5 88.5s46.5 44.5 76.5 58.5s63.667 21 101 21c66 0 120.333 -24.333 163 -73v61h154v-47c19.333 18 41.333 32.333 66 43s52.334 16 83.001 16zM826.994 326.001
c-2.66699 35.333 -14.833 61.833 -36.5 79.5s-48.5 26.5 -80.5 26.5c-33.333 0 -60.5 -9.16699 -81.5 -27.5s-33.167 -44.5 -36.5 -78.5h235z" />
    <glyph glyph-name="ccedilla" unicode="&#xe7;" horiz-adv-x="564" 
d="M162 -59c9.33301 -8.66699 20.501 -16.5039 33.501 -23.5039s28.5 -10.5 46.5 -10.5c15.333 0 28 3.33301 38 10s15 16.667 15 30c0 8.66699 -2 16.5 -6 23.5s-9.33301 13.5 -16 19.5c-37.333 4 -70.833 13.667 -100.5 29s-55 35.166 -76 59.499s-37 52.333 -48 84
s-16.5 66.167 -16.5 103.5c0 40 6.5 77 19.5 111s31.333 63.5 55 88.5s52.334 44.667 86.001 59s71.5 21.5 113.5 21.5c28.667 0 55.167 -3.5 79.5 -10.5s46.333 -16.5 66 -28.5s37.167 -26.333 52.5 -43s28.666 -34.667 39.999 -54l-118 -70
c-11.333 23.333 -26.333 41.833 -45 55.5s-41 20.5 -67 20.5c-19.333 0 -36.333 -3.66699 -51 -11s-27.334 -17.666 -38.001 -30.999s-18.667 -29.166 -24 -47.499s-8 -38.166 -8 -59.499c0 -44 11 -79.833 33 -107.5s52.667 -41.5 92 -41.5
c27.333 0 49.833 6.66699 67.5 20s33.5 31 47.5 53l111 -74c-19.333 -32 -44.833 -59.667 -76.5 -83s-70.5 -37.666 -116.5 -42.999c23.333 -22 35 -46.667 35 -74c0 -14 -3.16699 -26.833 -9.5 -38.5s-15.333 -21.667 -27 -30s-25.5 -15 -41.5 -20s-33.333 -7.5 -52 -7.5
c-22 0 -41.333 2.83301 -58 8.5s-28.667 11.834 -36 18.501v93z" />
    <glyph glyph-name="egrave" unicode="&#xe8;" horiz-adv-x="613" 
d="M583 273c0 -8.66699 -0.331055 -17 -0.998047 -25s-1.33398 -15 -2.00098 -21h-384c2.66699 -36.667 16.167 -64 40.5 -82s55.833 -27 94.5 -27c30.667 0 58.5 5.66699 83.5 17s46.167 26.666 63.5 45.999l98 -92c-30 -30 -65.333 -54.333 -106 -73s-90 -28 -148 -28
c-48 0 -90 7 -126 21s-66.167 33.333 -90.5 58s-42.666 53.834 -54.999 87.501s-18.5 70.167 -18.5 109.5c0 40 6.33301 77.333 19 112s31 64.5 55 89.5s53.333 44.667 88 59s74 21.5 118 21.5c42.667 0 80.667 -6.66699 114 -20s61.666 -32 84.999 -56
s41.166 -52.833 53.499 -86.5s18.5 -70.5 18.5 -110.5zM432.002 331c-3.33301 34 -15.667 59.333 -37 76s-48 25 -80 25c-34 0 -61.5 -9.16699 -82.5 -27.5s-32.833 -42.833 -35.5 -73.5h235zM324.001 570c-13.333 6.66699 -27.501 15.3311 -42.501 25.998
s-29.5 22.334 -43.5 35.001s-26.833 26.167 -38.5 40.5s-20.5 28.5 -26.5 42.5l125 21c4 -10.667 9.33301 -22 16 -34s13.834 -24 21.501 -36l23 -35c7.66699 -11.333 15.167 -21.666 22.5 -30.999z" />
    <glyph glyph-name="eacute" unicode="&#xe9;" horiz-adv-x="613" 
d="M583 273c0 -8.66699 -0.331055 -17 -0.998047 -25s-1.33398 -15 -2.00098 -21h-384c2.66699 -36.667 16.167 -64 40.5 -82s55.833 -27 94.5 -27c30.667 0 58.5 5.66699 83.5 17s46.167 26.666 63.5 45.999l98 -92c-30 -30 -65.333 -54.333 -106 -73s-90 -28 -148 -28
c-48 0 -90 7 -126 21s-66.167 33.333 -90.5 58s-42.666 53.834 -54.999 87.501s-18.5 70.167 -18.5 109.5c0 40 6.33301 77.333 19 112s31 64.5 55 89.5s53.333 44.667 88 59s74 21.5 118 21.5c42.667 0 80.667 -6.66699 114 -20s61.666 -32 84.999 -56
s41.166 -52.833 53.499 -86.5s18.5 -70.5 18.5 -110.5zM432.002 331c-3.33301 34 -15.667 59.333 -37 76s-48 25 -80 25c-34 0 -61.5 -9.16699 -82.5 -27.5s-32.833 -42.833 -35.5 -73.5h235zM244.001 599c14.667 19.333 30 41.502 46 66.502s28.667 48.167 38 69.5l124 -21
c-6 -14 -14.667 -28.167 -26 -42.5s-24 -27.833 -38 -40.5s-28.5 -24.334 -43.5 -35.001s-29.5 -19.334 -43.5 -26.001z" />
    <glyph glyph-name="ecircumflex" unicode="&#xea;" horiz-adv-x="613" 
d="M583 273c0 -8.66699 -0.331055 -17 -0.998047 -25s-1.33398 -15 -2.00098 -21h-384c2.66699 -36.667 16.167 -64 40.5 -82s55.833 -27 94.5 -27c30.667 0 58.5 5.66699 83.5 17s46.167 26.666 63.5 45.999l98 -92c-30 -30 -65.333 -54.333 -106 -73s-90 -28 -148 -28
c-48 0 -90 7 -126 21s-66.167 33.333 -90.5 58s-42.666 53.834 -54.999 87.501s-18.5 70.167 -18.5 109.5c0 40 6.33301 77.333 19 112s31 64.5 55 89.5s53.333 44.667 88 59s74 21.5 118 21.5c42.667 0 80.667 -6.66699 114 -20s61.666 -32 84.999 -56
s41.166 -52.833 53.499 -86.5s18.5 -70.5 18.5 -110.5zM432.002 331c-3.33301 34 -15.667 59.333 -37 76s-48 25 -80 25c-34 0 -61.5 -9.16699 -82.5 -27.5s-32.833 -42.833 -35.5 -73.5h235zM365.001 725c17.333 -15.333 36.502 -31 57.502 -47s45.167 -32.667 72.5 -50
l-35 -56c-27.333 5.33301 -54.333 14.333 -81 27s-49.334 26 -68.001 40c-18.667 -14 -41.334 -27.333 -68.001 -40s-53.667 -21.667 -81 -27l-35 56c27.333 17.333 51.5 34 72.5 50s40.167 31.667 57.5 47h108z" />
    <glyph glyph-name="edieresis" unicode="&#xeb;" horiz-adv-x="613" 
d="M583 273c0 -8.66699 -0.331055 -17 -0.998047 -25s-1.33398 -15 -2.00098 -21h-384c2.66699 -36.667 16.167 -64 40.5 -82s55.833 -27 94.5 -27c30.667 0 58.5 5.66699 83.5 17s46.167 26.666 63.5 45.999l98 -92c-30 -30 -65.333 -54.333 -106 -73s-90 -28 -148 -28
c-48 0 -90 7 -126 21s-66.167 33.333 -90.5 58s-42.666 53.834 -54.999 87.501s-18.5 70.167 -18.5 109.5c0 40 6.33301 77.333 19 112s31 64.5 55 89.5s53.333 44.667 88 59s74 21.5 118 21.5c42.667 0 80.667 -6.66699 114 -20s61.666 -32 84.999 -56
s41.166 -52.833 53.499 -86.5s18.5 -70.5 18.5 -110.5zM432.002 331c-3.33301 34 -15.667 59.333 -37 76s-48 25 -80 25c-34 0 -61.5 -9.16699 -82.5 -27.5s-32.833 -42.833 -35.5 -73.5h235zM143.001 588v114h112v-114h-112zM370.001 588v114h111v-114h-111z" />
    <glyph glyph-name="igrave" unicode="&#xec;" horiz-adv-x="279" 
d="M63 0v534h153v-534h-153zM161 570c-13.333 6.66699 -27.501 15.3311 -42.501 25.998s-29.5 22.334 -43.5 35.001s-26.833 26.167 -38.5 40.5s-20.5 28.5 -26.5 42.5l125 21c4 -10.667 9.33301 -22 16 -34s13.834 -24 21.501 -36l23 -35
c7.66699 -11.333 15.167 -21.666 22.5 -30.999z" />
    <glyph glyph-name="iacute" unicode="&#xed;" horiz-adv-x="279" 
d="M72 599c14.667 19.333 30 41.502 46 66.502s28.667 48.167 38 69.5l124 -21c-6 -14 -14.667 -28.167 -26 -42.5s-24 -27.833 -38 -40.5s-28.5 -24.334 -43.5 -35.001s-29.5 -19.334 -43.5 -26.001zM63 0.00195312v534h153v-534h-153z" />
    <glyph glyph-name="icircumflex" unicode="&#xee;" horiz-adv-x="279" 
d="M63 0v534h153v-534h-153zM194 725c17.333 -15.333 36.502 -31 57.502 -47s45.167 -32.667 72.5 -50l-35 -56c-27.333 5.33301 -54.333 14.333 -81 27s-49.334 26 -68.001 40c-18.667 -14 -41.334 -27.333 -68.001 -40s-53.667 -21.667 -81 -27l-35 56
c27.333 17.333 51.5 34 72.5 50s40.167 31.667 57.5 47h108z" />
    <glyph glyph-name="idieresis" unicode="&#xef;" horiz-adv-x="279" 
d="M-16 588v114h111v-114h-111zM184 588v114h112v-114h-112zM63 0v534h153v-534h-153z" />
    <glyph glyph-name="eth" unicode="&#xf0;" horiz-adv-x="636" 
d="M274 502c49.333 0 91.667 -13.0039 127 -39.0039c-11.333 19.333 -24.5 37.5 -39.5 54.5s-31.167 33.167 -48.5 48.5l-120 -48l-23 57l80 33c-12.667 8 -25.5 15.5 -38.5 22.5s-25.833 13.5 -38.5 19.5l128 76c17.333 -9.33301 34.333 -19.166 51 -29.499
s32.667 -21.166 48 -32.499l123 49l23 -58l-92 -37c44 -44 78.167 -92.667 102.5 -146s36.5 -113.333 36.5 -180c0 -18.667 -1.16699 -38.167 -3.5 -58.5s-6.66602 -40.666 -12.999 -60.999s-14.833 -40.166 -25.5 -59.499s-24.334 -37 -41.001 -53
c-24 -23.333 -52.5 -41.166 -85.5 -53.499s-70.5 -18.5 -112.5 -18.5c-40.667 0 -78.167 6 -112.5 18s-63.833 29.167 -88.5 51.5s-43.834 49.333 -57.501 81s-20.5 67.167 -20.5 106.5c0 36 5.66699 69.5 17 100.5s27.5 58.167 48.5 81.5s46.333 41.666 76 54.999
s62.834 20 99.501 20zM441.001 243.996c0 18.667 -2.83105 35.999 -8.49805 51.999s-13.834 30 -24.501 42s-23.834 21.333 -39.501 28s-33.5 10 -53.5 10s-37.5 -3.33301 -52.5 -10s-27.5 -16 -37.5 -28s-17.5 -26 -22.5 -42s-7.5 -33.333 -7.5 -52
c0 -37.333 10.167 -68.166 30.5 -92.499s50.5 -36.5 90.5 -36.5c40.667 0 71.667 12.5 93 37.5s32 55.5 32 91.5z" />
    <glyph glyph-name="ntilde" unicode="&#xf1;" horiz-adv-x="614" 
d="M63 0l0.000976562 534.002h153v-61c21.333 23.333 45.666 41.333 72.999 54s56.333 19 87 19c30 0 56.333 -5 79 -15s41.5 -23.5 56.5 -40.5s26.167 -37.333 33.5 -61s11 -48.834 11 -75.501v-354h-153v319c0 11.333 -1.16699 22.5 -3.5 33.5s-6.5 20.667 -12.5 29
s-14.5 15.166 -25.5 20.499s-24.833 8 -41.5 8c-28.667 0 -53.167 -9 -73.5 -27s-30.5 -44.333 -30.5 -79v-304h-153zM518.001 684.002c-11.333 -27.333 -27.832 -50.666 -49.499 -69.999s-47.167 -29 -76.5 -29c-14 0 -26.833 2 -38.5 6s-22.834 8.5 -33.501 13.5
s-21 9.5 -31 13.5s-20 6 -30 6c-13.333 0 -26.5 -3.66699 -39.5 -11s-24.5 -17.666 -34.5 -30.999l-54 37c11.333 27.333 27.666 50.666 48.999 69.999s47 29 77 29c13.333 0 25.833 -2 37.5 -6s22.834 -8.5 33.501 -13.5s21.167 -9.5 31.5 -13.5s20.5 -6 30.5 -6
c12.667 0 25.5 3.66699 38.5 11s24.833 17.666 35.5 30.999z" />
    <glyph glyph-name="ograve" unicode="&#xf2;" horiz-adv-x="631" 
d="M336 570c-13.333 6.66699 -27.501 15.3311 -42.501 25.998s-29.5 22.334 -43.5 35.001s-26.833 26.167 -38.5 40.5s-20.5 28.5 -26.5 42.5l125 21c4 -10.667 9.33301 -22 16 -34s13.834 -24 21.501 -36l23 -35c7.66699 -11.333 15.167 -21.666 22.5 -30.999z
M598.999 265.997c0 -41.333 -6.66699 -79.166 -20 -113.499s-32.333 -63.666 -57 -87.999s-54.5 -43.166 -89.5 -56.499s-74.167 -20 -117.5 -20s-82.5 6.66699 -117.5 20s-64.667 32.166 -89 56.499s-43.166 53.666 -56.499 87.999s-20 72.166 -20 113.499
c0 42 6.66699 80.167 20 114.5s32.166 63.666 56.499 87.999s54 43.333 89 57s74.167 20.5 117.5 20.5s82.5 -6.83301 117.5 -20.5s64.833 -32.667 89.5 -57s43.667 -53.666 57 -87.999s20 -72.5 20 -114.5zM435.999 266.997c0 44 -10.167 80.167 -30.5 108.5
s-50.5 42.5 -90.5 42.5c-39.333 0 -69.333 -14.167 -90 -42.5s-31 -64.5 -31 -108.5s10.333 -80.167 31 -108.5s50.667 -42.5 90 -42.5c40 0 70.167 14.167 90.5 42.5s30.5 64.5 30.5 108.5z" />
    <glyph glyph-name="oacute" unicode="&#xf3;" horiz-adv-x="631" 
d="M226 599c14.667 19.333 30 41.502 46 66.502s28.667 48.167 38 69.5l124 -21c-6 -14 -14.667 -28.167 -26 -42.5s-24 -27.833 -38 -40.5s-28.5 -24.334 -43.5 -35.001s-29.5 -19.334 -43.5 -26.001zM599 266.002c0 -41.333 -6.66699 -79.166 -20 -113.499
s-32.333 -63.666 -57 -87.999s-54.5 -43.166 -89.5 -56.499s-74.167 -20 -117.5 -20s-82.5 6.66699 -117.5 20s-64.667 32.166 -89 56.499s-43.166 53.666 -56.499 87.999s-20 72.166 -20 113.499c0 42 6.66699 80.167 20 114.5s32.166 63.666 56.499 87.999
s54 43.333 89 57s74.167 20.5 117.5 20.5s82.5 -6.83301 117.5 -20.5s64.833 -32.667 89.5 -57s43.667 -53.666 57 -87.999s20 -72.5 20 -114.5zM436 267.002c0 44 -10.167 80.167 -30.5 108.5s-50.5 42.5 -90.5 42.5c-39.333 0 -69.333 -14.167 -90 -42.5
s-31 -64.5 -31 -108.5s10.333 -80.167 31 -108.5s50.667 -42.5 90 -42.5c40 0 70.167 14.167 90.5 42.5s30.5 64.5 30.5 108.5z" />
    <glyph glyph-name="ocircumflex" unicode="&#xf4;" horiz-adv-x="631" 
d="M370 725c17.333 -15.333 36.502 -31 57.502 -47s45.167 -32.667 72.5 -50l-35 -56c-27.333 5.33301 -54.333 14.333 -81 27s-49.334 26 -68.001 40c-18.667 -14 -41.334 -27.333 -68.001 -40s-53.667 -21.667 -81 -27l-35 56c27.333 17.333 51.5 34 72.5 50
s40.167 31.667 57.5 47h108zM599.002 266c0 -41.333 -6.66699 -79.166 -20 -113.499s-32.333 -63.666 -57 -87.999s-54.5 -43.166 -89.5 -56.499s-74.167 -20 -117.5 -20s-82.5 6.66699 -117.5 20s-64.667 32.166 -89 56.499s-43.166 53.666 -56.499 87.999
s-20 72.166 -20 113.499c0 42 6.66699 80.167 20 114.5s32.166 63.666 56.499 87.999s54 43.333 89 57s74.167 20.5 117.5 20.5s82.5 -6.83301 117.5 -20.5s64.833 -32.667 89.5 -57s43.667 -53.666 57 -87.999s20 -72.5 20 -114.5zM436.002 267
c0 44 -10.167 80.167 -30.5 108.5s-50.5 42.5 -90.5 42.5c-39.333 0 -69.333 -14.167 -90 -42.5s-31 -64.5 -31 -108.5s10.333 -80.167 31 -108.5s50.667 -42.5 90 -42.5c40 0 70.167 14.167 90.5 42.5s30.5 64.5 30.5 108.5z" />
    <glyph glyph-name="otilde" unicode="&#xf5;" horiz-adv-x="631" 
d="M599 266c0 -41.333 -6.66699 -79.166 -20 -113.499s-32.333 -63.666 -57 -87.999s-54.5 -43.166 -89.5 -56.499s-74.167 -20 -117.5 -20s-82.5 6.66699 -117.5 20s-64.667 32.166 -89 56.499s-43.166 53.666 -56.499 87.999s-20 72.166 -20 113.499
c0 42 6.66699 80.167 20 114.5s32.166 63.666 56.499 87.999s54 43.333 89 57s74.167 20.5 117.5 20.5s82.5 -6.83301 117.5 -20.5s64.833 -32.667 89.5 -57s43.667 -53.666 57 -87.999s20 -72.5 20 -114.5zM436 267c0 44 -10.167 80.167 -30.5 108.5s-50.5 42.5 -90.5 42.5
c-39.333 0 -69.333 -14.167 -90 -42.5s-31 -64.5 -31 -108.5s10.333 -80.167 31 -108.5s50.667 -42.5 90 -42.5c40 0 70.167 14.167 90.5 42.5s30.5 64.5 30.5 108.5zM508 684c-11.333 -27.333 -27.832 -50.666 -49.499 -69.999s-47.167 -29 -76.5 -29
c-14 0 -26.833 2 -38.5 6s-22.834 8.5 -33.501 13.5s-21 9.5 -31 13.5s-20 6 -30 6c-13.333 0 -26.5 -3.66699 -39.5 -11s-24.5 -17.666 -34.5 -30.999l-54 37c11.333 27.333 27.666 50.666 48.999 69.999s47 29 77 29c13.333 0 25.833 -2 37.5 -6s22.834 -8.5 33.501 -13.5
s21.167 -9.5 31.5 -13.5s20.5 -6 30.5 -6c12.667 0 25.5 3.66699 38.5 11s24.833 17.666 35.5 30.999z" />
    <glyph glyph-name="odieresis" unicode="&#xf6;" horiz-adv-x="631" 
d="M599 266c0 -41.333 -6.66699 -79.166 -20 -113.499s-32.333 -63.666 -57 -87.999s-54.5 -43.166 -89.5 -56.499s-74.167 -20 -117.5 -20s-82.5 6.66699 -117.5 20s-64.667 32.166 -89 56.499s-43.166 53.666 -56.499 87.999s-20 72.166 -20 113.499
c0 42 6.66699 80.167 20 114.5s32.166 63.666 56.499 87.999s54 43.333 89 57s74.167 20.5 117.5 20.5s82.5 -6.83301 117.5 -20.5s64.833 -32.667 89.5 -57s43.667 -53.666 57 -87.999s20 -72.5 20 -114.5zM436 267c0 44 -10.167 80.167 -30.5 108.5s-50.5 42.5 -90.5 42.5
c-39.333 0 -69.333 -14.167 -90 -42.5s-31 -64.5 -31 -108.5s10.333 -80.167 31 -108.5s50.667 -42.5 90 -42.5c40 0 70.167 14.167 90.5 42.5s30.5 64.5 30.5 108.5zM146 588v114h112v-114h-112zM373 588v114h111v-114h-111z" />
    <glyph glyph-name="divide" unicode="&#xf7;" 
d="M386 505c0 -12 -2.33105 -23.165 -6.99805 -33.498s-10.834 -19.333 -18.501 -27s-16.667 -13.834 -27 -18.501s-21.5 -7 -33.5 -7s-23.333 2.33301 -34 7s-19.834 10.834 -27.501 18.501s-13.834 16.667 -18.501 27s-7 21.5 -7 33.5c0 24 8.5 44.5 25.5 61.5
s37.5 25.5 61.5 25.5c12 0 23.167 -2.33301 33.5 -7s19.333 -10.834 27 -18.501s13.834 -16.834 18.501 -27.501s7 -22 7 -34zM40.002 240.002v127h519v-127h-519zM386.002 102.002c0 -12 -2.33105 -23.165 -6.99805 -33.498s-10.834 -19.333 -18.501 -27
s-16.667 -13.834 -27 -18.501s-21.5 -7 -33.5 -7s-23.333 2.33301 -34 7s-19.834 10.834 -27.501 18.501s-13.834 16.667 -18.501 27s-7 21.5 -7 33.5c0 24 8.5 44.5 25.5 61.5s37.5 25.5 61.5 25.5c12 0 23.167 -2.33301 33.5 -7s19.333 -10.834 27 -18.501
s13.834 -16.834 18.501 -27.501s7 -22 7 -34z" />
    <glyph glyph-name="oslash" unicode="&#xf8;" horiz-adv-x="631" 
d="M103 24l19.002 26.9971c-28.667 24.667 -50.834 55.167 -66.501 91.5s-23.5 77.5 -23.5 123.5c0 42 6.66699 80.167 20 114.5s32.166 63.666 56.499 87.999s54 43.333 89 57s74.167 20.5 117.5 20.5c25.333 0 49.166 -2.5 71.499 -7.5s43.166 -11.833 62.499 -20.5l22 31
l56 -39l-20 -29c30 -24.667 52.833 -55.167 68.5 -91.5s23.5 -77.5 23.5 -123.5c0 -41.333 -6.66699 -79.166 -20 -113.499s-32.333 -63.666 -57 -87.999s-54.5 -43.166 -89.5 -56.499s-74.167 -20 -117.5 -20c-25.333 0 -49.166 2.33301 -71.499 7
s-43.166 11.334 -62.499 20.001l-21 -30zM193.002 266.997c0 -34.667 5.99902 -63.999 17.999 -87.999l160 229c-15.333 9.33301 -34 14 -56 14c-20 0 -37.5 -3.83301 -52.5 -11.5s-27.667 -18.334 -38 -32.001s-18.166 -30 -23.499 -49s-8 -39.833 -8 -62.5z
M438.001 266.998c0 34 -6.66699 63.333 -20 88l-160 -229c15.333 -8.66699 34.333 -13 57 -13c40 0 70.5 14.167 91.5 42.5s31.5 65.5 31.5 111.5z" />
    <glyph glyph-name="ugrave" unicode="&#xf9;" horiz-adv-x="614" 
d="M551 534v-533.999h-153v60c-21.333 -22.667 -45.5 -40.334 -72.5 -53.001s-56.167 -19 -87.5 -19c-30 0 -56.333 5 -79 15s-41.5 23.5 -56.5 40.5s-26.167 37.167 -33.5 60.5s-11 48.666 -11 75.999v354h153v-319c0 -11.333 1.16699 -22.5 3.5 -33.5
s6.5 -20.667 12.5 -29s14.333 -15.166 25 -20.499s24.667 -8 42 -8c28.667 0 53.167 9 73.5 27s30.5 44.333 30.5 79v304h153zM312 570.001c-13.333 6.66699 -27.501 15.3311 -42.501 25.998s-29.5 22.334 -43.5 35.001s-26.833 26.167 -38.5 40.5s-20.5 28.5 -26.5 42.5
l125 21c4 -10.667 9.33301 -22 16 -34s13.834 -24 21.501 -36l23 -35c7.66699 -11.333 15.167 -21.666 22.5 -30.999z" />
    <glyph glyph-name="uacute" unicode="&#xfa;" horiz-adv-x="614" 
d="M551 534v-533.999h-153v60c-21.333 -22.667 -45.5 -40.334 -72.5 -53.001s-56.167 -19 -87.5 -19c-30 0 -56.333 5 -79 15s-41.5 23.5 -56.5 40.5s-26.167 37.167 -33.5 60.5s-11 48.666 -11 75.999v354h153v-319c0 -11.333 1.16699 -22.5 3.5 -33.5
s6.5 -20.667 12.5 -29s14.333 -15.166 25 -20.499s24.667 -8 42 -8c28.667 0 53.167 9 73.5 27s30.5 44.333 30.5 79v304h153zM250 599.001c14.667 19.333 30 41.502 46 66.502s28.667 48.167 38 69.5l124 -21c-6 -14 -14.667 -28.167 -26 -42.5s-24 -27.833 -38 -40.5
s-28.5 -24.334 -43.5 -35.001s-29.5 -19.334 -43.5 -26.001z" />
    <glyph glyph-name="ucircumflex" unicode="&#xfb;" horiz-adv-x="614" 
d="M551 534v-533.999h-153v60c-21.333 -22.667 -45.5 -40.334 -72.5 -53.001s-56.167 -19 -87.5 -19c-30 0 -56.333 5 -79 15s-41.5 23.5 -56.5 40.5s-26.167 37.167 -33.5 60.5s-11 48.666 -11 75.999v354h153v-319c0 -11.333 1.16699 -22.5 3.5 -33.5
s6.5 -20.667 12.5 -29s14.333 -15.166 25 -20.499s24.667 -8 42 -8c28.667 0 53.167 9 73.5 27s30.5 44.333 30.5 79v304h153zM361 725.001c17.333 -15.333 36.502 -31 57.502 -47s45.167 -32.667 72.5 -50l-35 -56c-27.333 5.33301 -54.333 14.333 -81 27
s-49.334 26 -68.001 40c-18.667 -14 -41.334 -27.333 -68.001 -40s-53.667 -21.667 -81 -27l-35 56c27.333 17.333 51.5 34 72.5 50s40.167 31.667 57.5 47h108z" />
    <glyph glyph-name="udieresis" unicode="&#xfc;" horiz-adv-x="614" 
d="M551 534v-533.999h-153v60c-21.333 -22.667 -45.5 -40.334 -72.5 -53.001s-56.167 -19 -87.5 -19c-30 0 -56.333 5 -79 15s-41.5 23.5 -56.5 40.5s-26.167 37.167 -33.5 60.5s-11 48.666 -11 75.999v354h153v-319c0 -11.333 1.16699 -22.5 3.5 -33.5
s6.5 -20.667 12.5 -29s14.333 -15.166 25 -20.499s24.667 -8 42 -8c28.667 0 53.167 9 73.5 27s30.5 44.333 30.5 79v304h153zM135 588.001v114h112v-114h-112zM362 588.001v114h111v-114h-111z" />
    <glyph glyph-name="yacute" unicode="&#xfd;" horiz-adv-x="615" 
d="M250 599c14.667 19.333 30 41.502 46 66.502s28.667 48.167 38 69.5l124 -21c-6 -14 -14.667 -28.167 -26 -42.5s-24 -27.833 -38 -40.5s-28.5 -24.334 -43.5 -35.001s-29.5 -19.334 -43.5 -26.001zM399 105.002c-21.333 -23.333 -45.5 -41.1689 -72.5 -53.502
s-56.167 -18.5 -87.5 -18.5c-30 0 -56.333 5 -79 15s-41.5 23.5 -56.5 40.5s-26.167 37.167 -33.5 60.5s-11 48.666 -11 75.999v309h153v-274c0 -11.333 1.16699 -22.5 3.5 -33.5s6.5 -20.667 12.5 -29s14.333 -15.166 25 -20.499s24.667 -8 42 -8
c28.667 0 53.167 9 73.5 27s30.5 44 30.5 78v260h153v-447c0 -37.333 -4.5 -73.166 -13.5 -107.499s-26.5 -64.166 -52.5 -89.499c-50.667 -49.333 -124.334 -74 -221.001 -74c-40 0 -78.5 4.83301 -115.5 14.5s-69.833 23.834 -98.5 42.501l56 113
c23.333 -14.667 48.333 -25.334 75 -32.001s53.334 -10 80.001 -10c42 0 75.333 8.66699 100 26s37 44 37 80v55z" />
    <glyph glyph-name="thorn" unicode="&#xfe;" horiz-adv-x="655" 
d="M216 714v-241c44 48.667 98.667 73 164 73c37.333 0 71 -7.16699 101 -21.5s55.5 -34 76.5 -59s37.167 -54.5 48.5 -88.5s17 -70.667 17 -110c0 -40 -5.66699 -77 -17 -111s-27.5 -63.5 -48.5 -88.5s-46.5 -44.5 -76.5 -58.5s-63.667 -21 -101 -21
c-65.333 0 -120 24 -164 72v-234h-153v888h153zM216 267c0 -20 2.66699 -38.833 8 -56.5s13.166 -33.334 23.499 -47.001s23.333 -24.334 39 -32.001s33.834 -11.5 54.501 -11.5s38.5 4 53.5 12s27.5 18.667 37.5 32s17.333 28.833 22 46.5s7 36.5 7 56.5
s-2.33301 38.833 -7 56.5s-12 33.334 -22 47.001s-22.5 24.334 -37.5 32.001s-32.833 11.5 -53.5 11.5s-38.834 -3.83301 -54.501 -11.5s-28.667 -18.167 -39 -31.5s-18.166 -29 -23.499 -47s-8 -37 -8 -57z" />
    <glyph glyph-name="ydieresis" unicode="&#xff;" horiz-adv-x="615" 
d="M399 105c-21.333 -23.333 -45.5 -41.1689 -72.5 -53.502s-56.167 -18.5 -87.5 -18.5c-30 0 -56.333 5 -79 15s-41.5 23.5 -56.5 40.5s-26.167 37.167 -33.5 60.5s-11 48.666 -11 75.999v309h153v-274c0 -11.333 1.16699 -22.5 3.5 -33.5s6.5 -20.667 12.5 -29
s14.333 -15.166 25 -20.499s24.667 -8 42 -8c28.667 0 53.167 9 73.5 27s30.5 44 30.5 78v260h153v-447c0 -37.333 -4.5 -73.166 -13.5 -107.499s-26.5 -64.166 -52.5 -89.499c-50.667 -49.333 -124.334 -74 -221.001 -74c-40 0 -78.5 4.83301 -115.5 14.5
s-69.833 23.834 -98.5 42.501l56 113c23.333 -14.667 48.333 -25.334 75 -32.001s53.334 -10 80.001 -10c42 0 75.333 8.66699 100 26s37 44 37 80v55zM136 587.997v114h112v-114h-112zM363 587.997v114h111v-114h-111z" />
    <glyph glyph-name="Amacron" unicode="&#x100;" horiz-adv-x="686" 
d="M507 0l-46 142h-240l-46 -142h-174l247 666h191l246 -666h-178zM341 533l-84 -263h167zM176 720v83h332v-83h-332z" />
    <glyph glyph-name="amacron" unicode="&#x101;" horiz-adv-x="679" 
d="M593 132c0 -12 2.16797 -20.499 6.50098 -25.499s11.166 -7.5 20.499 -7.5c12.667 0 21.667 2.33301 27 7l16 -96c-10.667 -6.66699 -24 -11.334 -40 -14.001s-30 -4 -42 -4c-26 0 -50.833 5 -74.5 15s-41.834 29.667 -54.501 59c-21.333 -28 -46.5 -48 -75.5 -60
s-61.5 -18 -97.5 -18c-39.333 0 -74.166 7.16699 -104.499 21.5s-56 34 -77 59s-37 54.5 -48 88.5s-16.5 70.667 -16.5 110c0 40 5.66699 77 17 111s27.5 63.5 48.5 88.5s46.5 44.5 76.5 58.5s63.667 21 101 21c66 0 120.333 -24.333 163 -73v61h154v-402zM439.001 266.001
c0 20 -2.66992 38.999 -8.00293 56.999s-13.166 33.833 -23.499 47.5s-23.166 24.334 -38.499 32.001s-33.333 11.5 -54 11.5s-38.5 -4 -53.5 -12s-27.5 -18.667 -37.5 -32s-17.5 -29 -22.5 -47s-7.5 -37 -7.5 -57s2.5 -38.833 7.5 -56.5s12.5 -33.167 22.5 -46.5
s22.5 -23.833 37.5 -31.5s32.833 -11.5 53.5 -11.5s38.834 3.83301 54.501 11.5s28.667 18.167 39 31.5s18 28.833 23 46.5s7.5 36.5 7.5 56.5zM151.998 593v83h332v-83h-332z" />
    <glyph glyph-name="Abreve" unicode="&#x102;" horiz-adv-x="686" 
d="M507 0l-46 142h-240l-46 -142h-174l247 666h191l246 -666h-178zM341 533l-84 -263h167zM342 705c-52 0 -92.833 12.002 -122.5 36.002s-48.167 53.333 -55.5 88l72 21c8.66699 -18.667 21.5 -32.834 38.5 -42.501s39.5 -14.834 67.5 -15.501c28 0 50.667 5 68 15
s30 24.333 38 43l72 -21c-7.33301 -34.667 -25.833 -64 -55.5 -88s-70.5 -36 -122.5 -36z" />
    <glyph glyph-name="abreve" unicode="&#x103;" horiz-adv-x="679" 
d="M316 579c-52 0 -92.833 12.002 -122.5 36.002s-48.167 53.333 -55.5 88l72 21c8.66699 -18.667 21.5 -32.834 38.5 -42.501s39.5 -14.834 67.5 -15.501c28 0 50.667 5 68 15s30 24.333 38 43l72 -21c-7.33301 -34.667 -25.833 -64 -55.5 -88s-70.5 -36 -122.5 -36z
M593 132.002c0 -12 2.16797 -20.499 6.50098 -25.499s11.166 -7.5 20.499 -7.5c12.667 0 21.667 2.33301 27 7l16 -96c-10.667 -6.66699 -24 -11.334 -40 -14.001s-30 -4 -42 -4c-26 0 -50.833 5 -74.5 15s-41.834 29.667 -54.501 59c-21.333 -28 -46.5 -48 -75.5 -60
s-61.5 -18 -97.5 -18c-39.333 0 -74.166 7.16699 -104.499 21.5s-56 34 -77 59s-37 54.5 -48 88.5s-16.5 70.667 -16.5 110c0 40 5.66699 77 17 111s27.5 63.5 48.5 88.5s46.5 44.5 76.5 58.5s63.667 21 101 21c66 0 120.333 -24.333 163 -73v61h154v-402zM439.001 266.003
c0 20 -2.66992 38.999 -8.00293 56.999s-13.166 33.833 -23.499 47.5s-23.166 24.334 -38.499 32.001s-33.333 11.5 -54 11.5s-38.5 -4 -53.5 -12s-27.5 -18.667 -37.5 -32s-17.5 -29 -22.5 -47s-7.5 -37 -7.5 -57s2.5 -38.833 7.5 -56.5s12.5 -33.167 22.5 -46.5
s22.5 -23.833 37.5 -31.5s32.833 -11.5 53.5 -11.5s38.834 3.83301 54.501 11.5s28.667 18.167 39 31.5s18 28.833 23 46.5s7.5 36.5 7.5 56.5z" />
    <glyph glyph-name="Aogonek" unicode="&#x104;" horiz-adv-x="685" 
d="M685 0c-49.333 -1.33301 -84.6631 -6.66602 -105.996 -15.999s-32 -22 -32 -38c0 -12.667 5.16699 -22.5 15.5 -29.5s24.166 -10.5 41.499 -10.5c15.333 0 29.666 2.66699 42.999 8s24.666 12.333 33.999 21v-90c-7.33301 -6.66699 -19.333 -12.834 -36 -18.501
s-36 -8.5 -58 -8.5c-39.333 0 -71 9 -95 27s-36 41 -36 69c0 15.333 4.16699 30.5 12.5 45.5s21.166 28.833 38.499 41.5l-46 141h-240l-46 -142h-174l247 666h191zM341.003 533l-83 -263h166z" />
    <glyph glyph-name="aogonek" unicode="&#x105;" horiz-adv-x="678" 
d="M439 266c0 20 -2.66992 38.999 -8.00293 56.999s-13.166 33.833 -23.499 47.5s-23.166 24.334 -38.499 32.001s-33.333 11.5 -54 11.5s-38.5 -4 -53.5 -12s-27.5 -18.667 -37.5 -32s-17.5 -29 -22.5 -47s-7.5 -37 -7.5 -57s2.5 -38.833 7.5 -56.5
s12.5 -33.167 22.5 -46.5s22.5 -23.833 37.5 -31.5s32.833 -11.5 53.5 -11.5s38.834 3.83301 54.501 11.5s28.667 18.167 39 31.5s18 28.833 23 46.5s7.5 36.5 7.5 56.5zM451.997 65.999c-21.333 -28 -46.5 -47.999 -75.5 -59.999s-61.5 -18 -97.5 -18
c-39.333 0 -74.166 7.16699 -104.499 21.5s-56 34 -77 59s-37 54.5 -48 88.5s-16.5 70.667 -16.5 110c0 40 5.66699 77 17 111s27.5 63.5 48.5 88.5s46.5 44.5 76.5 58.5s63.667 21 101 21c66 0 120.333 -24.333 163 -73v61h154v-402c0 -12.667 2.33301 -21.334 7 -26.001
s11.667 -7 21 -7c5.33301 0 10.166 0.5 14.499 1.5s8.16602 2.83301 11.499 5.5l16 -96c-12 -7.33301 -25.5 -12 -40.5 -14s-28.5 -3 -40.5 -3c-11.333 -7.33301 -19.333 -15.333 -24 -24s-7 -16.667 -7 -24c0 -11.333 4.5 -20 13.5 -26s21.5 -9 37.5 -9
c14 0 26.5 2.16699 37.5 6.5s19.5 9.16602 25.5 14.499v-90c-7.33301 -5.33301 -17.5 -9.83301 -30.5 -13.5s-28.5 -5.5 -46.5 -5.5c-38 0 -69.167 8.83301 -93.5 26.5s-36.5 40.834 -36.5 69.501c0 19.333 5.83301 35.833 17.5 49.5s26.167 25.167 43.5 34.5
c-14.667 5.33301 -27.667 13 -39 23s-20.666 23.667 -27.999 41z" />
    <glyph glyph-name="Cacute" unicode="&#x106;" horiz-adv-x="686" 
d="M535 439c-20 35.333 -43.3359 61.002 -70.0029 77.002s-57.667 24 -93 24c-27.333 0 -51.666 -5.16699 -72.999 -15.5s-39.5 -24.666 -54.5 -42.999s-26.5 -40 -34.5 -65s-12 -52.167 -12 -81.5c0 -30 4 -57.667 12 -83s19.5 -47.333 34.5 -66
s33.167 -33.334 54.5 -44.001s45.666 -16 72.999 -16c38 0 69.5 9.33301 94.5 28s47.167 46 66.5 82l132 -69c-30 -56.667 -69.667 -100.667 -119 -132s-108.333 -47 -177 -47c-49.333 0 -94.666 8.33301 -135.999 25s-76.666 40.167 -105.999 70.5
s-52.166 66.666 -68.499 108.999s-24.5 89.5 -24.5 141.5c0 51.333 8.16699 98.166 24.5 140.499s39.166 78.5 68.499 108.5s64.5 53.333 105.5 70s86.167 25 135.5 25c59.333 0 114.333 -12.833 165 -38.5s93.334 -68.167 128.001 -127.5zM288.997 725.002
c14.667 19.333 30 41.502 46 66.502s28.667 48.167 38 69.5l124 -21c-6 -14 -14.667 -28.167 -26 -42.5s-24 -27.833 -38 -40.5s-28.5 -24.334 -43.5 -35.001s-29.5 -19.334 -43.5 -26.001z" />
    <glyph glyph-name="cacute" unicode="&#x107;" horiz-adv-x="563" 
d="M543 117c-22 -36.667 -52.332 -67.3359 -90.999 -92.0029s-87 -37 -145 -37c-42.667 0 -81 7 -115 21s-63 33.5 -87 58.5s-42.333 54.333 -55 88s-19 70.5 -19 110.5s6.5 77 19.5 111s31.333 63.5 55 88.5s52.334 44.667 86.001 59s71.5 21.5 113.5 21.5
c28.667 0 55.167 -3.5 79.5 -10.5s46.333 -16.5 66 -28.5s37.167 -26.333 52.5 -43s28.666 -34.667 39.999 -54l-118 -70c-11.333 23.333 -26.333 41.833 -45 55.5s-41 20.5 -67 20.5c-19.333 0 -36.333 -3.66699 -51 -11s-27.334 -17.666 -38.001 -30.999
s-18.667 -29.166 -24 -47.499s-8 -38.166 -8 -59.499c0 -44 11 -79.833 33 -107.5s52.667 -41.5 92 -41.5c27.333 0 49.833 6.66699 67.5 20s33.5 31 47.5 53zM244.001 598.998c14 19.333 28.668 41.332 44.001 65.999s27 48 35 70l125 -21
c-6 -14 -14.5 -28.167 -25.5 -42.5s-23.333 -27.666 -37 -39.999s-27.834 -23.833 -42.501 -34.5s-28.667 -19.667 -42 -27z" />
    <glyph glyph-name="Ccircumflex" unicode="&#x108;" horiz-adv-x="686" 
d="M535 439c-20 35.333 -43.3359 61.002 -70.0029 77.002s-57.667 24 -93 24c-27.333 0 -51.666 -5.16699 -72.999 -15.5s-39.5 -24.666 -54.5 -42.999s-26.5 -40 -34.5 -65s-12 -52.167 -12 -81.5c0 -30 4 -57.667 12 -83s19.5 -47.333 34.5 -66
s33.167 -33.334 54.5 -44.001s45.666 -16 72.999 -16c38 0 69.5 9.33301 94.5 28s47.167 46 66.5 82l132 -69c-30 -56.667 -69.667 -100.667 -119 -132s-108.333 -47 -177 -47c-49.333 0 -94.666 8.33301 -135.999 25s-76.666 40.167 -105.999 70.5
s-52.166 66.666 -68.499 108.999s-24.5 89.5 -24.5 141.5c0 51.333 8.16699 98.166 24.5 140.499s39.166 78.5 68.499 108.5s64.5 53.333 105.5 70s86.167 25 135.5 25c59.333 0 114.333 -12.833 165 -38.5s93.334 -68.167 128.001 -127.5zM422.997 851.002
c17.333 -15.333 36.502 -31 57.502 -47s45.167 -32.667 72.5 -50l-35 -56c-27.333 5.33301 -54.333 14.333 -81 27s-49.334 26 -68.001 40c-18.667 -14 -41.334 -27.333 -68.001 -40s-53.667 -21.667 -81 -27l-35 56c27.333 17.333 51.5 34 72.5 50s40.167 31.667 57.5 47
h108z" />
    <glyph glyph-name="ccircumflex" unicode="&#x109;" horiz-adv-x="563" 
d="M543 117c-22 -36.667 -52.332 -67.3359 -90.999 -92.0029s-87 -37 -145 -37c-42.667 0 -81 7 -115 21s-63 33.5 -87 58.5s-42.333 54.333 -55 88s-19 70.5 -19 110.5s6.5 77 19.5 111s31.333 63.5 55 88.5s52.334 44.667 86.001 59s71.5 21.5 113.5 21.5
c28.667 0 55.167 -3.5 79.5 -10.5s46.333 -16.5 66 -28.5s37.167 -26.333 52.5 -43s28.666 -34.667 39.999 -54l-118 -70c-11.333 23.333 -26.333 41.833 -45 55.5s-41 20.5 -67 20.5c-19.333 0 -36.333 -3.66699 -51 -11s-27.334 -17.666 -38.001 -30.999
s-18.667 -29.166 -24 -47.499s-8 -38.166 -8 -59.499c0 -44 11 -79.833 33 -107.5s52.667 -41.5 92 -41.5c27.333 0 49.833 6.66699 67.5 20s33.5 31 47.5 53zM358.001 724.998c17.333 -15.333 36.502 -31 57.502 -47s45.167 -32.667 72.5 -50l-35 -56
c-27.333 5.33301 -54.333 14.333 -81 27s-49.334 26 -68.001 40c-18.667 -14 -41.334 -27.333 -68.001 -40s-53.667 -21.667 -81 -27l-35 56c27.333 17.333 51.5 34 72.5 50s40.167 31.667 57.5 47h108z" />
    <glyph glyph-name="Cdotaccent" unicode="&#x10a;" horiz-adv-x="686" 
d="M535 439c-20 35.333 -43.3359 61.002 -70.0029 77.002s-57.667 24 -93 24c-27.333 0 -51.666 -5.16699 -72.999 -15.5s-39.5 -24.666 -54.5 -42.999s-26.5 -40 -34.5 -65s-12 -52.167 -12 -81.5c0 -30 4 -57.667 12 -83s19.5 -47.333 34.5 -66
s33.167 -33.334 54.5 -44.001s45.666 -16 72.999 -16c38 0 69.5 9.33301 94.5 28s47.167 46 66.5 82l132 -69c-30 -56.667 -69.667 -100.667 -119 -132s-108.333 -47 -177 -47c-49.333 0 -94.666 8.33301 -135.999 25s-76.666 40.167 -105.999 70.5
s-52.166 66.666 -68.499 108.999s-24.5 89.5 -24.5 141.5c0 51.333 8.16699 98.166 24.5 140.499s39.166 78.5 68.499 108.5s64.5 53.333 105.5 70s86.167 25 135.5 25c59.333 0 114.333 -12.833 165 -38.5s93.334 -68.167 128.001 -127.5zM310.997 718.002v110h120v-110
h-120z" />
    <glyph glyph-name="cdotaccent" unicode="&#x10b;" horiz-adv-x="563" 
d="M543 117c-22 -36.667 -52.332 -67.3359 -90.999 -92.0029s-87 -37 -145 -37c-42.667 0 -81 7 -115 21s-63 33.5 -87 58.5s-42.333 54.333 -55 88s-19 70.5 -19 110.5s6.5 77 19.5 111s31.333 63.5 55 88.5s52.334 44.667 86.001 59s71.5 21.5 113.5 21.5
c28.667 0 55.167 -3.5 79.5 -10.5s46.333 -16.5 66 -28.5s37.167 -26.333 52.5 -43s28.666 -34.667 39.999 -54l-118 -70c-11.333 23.333 -26.333 41.833 -45 55.5s-41 20.5 -67 20.5c-19.333 0 -36.333 -3.66699 -51 -11s-27.334 -17.666 -38.001 -30.999
s-18.667 -29.166 -24 -47.499s-8 -38.166 -8 -59.499c0 -44 11 -79.833 33 -107.5s52.667 -41.5 92 -41.5c27.333 0 49.833 6.66699 67.5 20s33.5 31 47.5 53zM242.001 591.998v110h120v-110h-120z" />
    <glyph glyph-name="Ccaron" unicode="&#x10c;" horiz-adv-x="686" 
d="M535 439c-20 35.333 -43.3359 61.002 -70.0029 77.002s-57.667 24 -93 24c-27.333 0 -51.666 -5.16699 -72.999 -15.5s-39.5 -24.666 -54.5 -42.999s-26.5 -40 -34.5 -65s-12 -52.167 -12 -81.5c0 -30 4 -57.667 12 -83s19.5 -47.333 34.5 -66
s33.167 -33.334 54.5 -44.001s45.666 -16 72.999 -16c38 0 69.5 9.33301 94.5 28s47.167 46 66.5 82l132 -69c-30 -56.667 -69.667 -100.667 -119 -132s-108.333 -47 -177 -47c-49.333 0 -94.666 8.33301 -135.999 25s-76.666 40.167 -105.999 70.5
s-52.166 66.666 -68.499 108.999s-24.5 89.5 -24.5 141.5c0 51.333 8.16699 98.166 24.5 140.499s39.166 78.5 68.499 108.5s64.5 53.333 105.5 70s86.167 25 135.5 25c59.333 0 114.333 -12.833 165 -38.5s93.334 -68.167 128.001 -127.5zM312.997 706.002
c-17.333 15.333 -36.502 31 -57.502 47s-45.167 32.667 -72.5 50l35 56c27.333 -5.33301 54.333 -14.333 81 -27s49.334 -26 68.001 -40c18.667 14 41.334 27.333 68.001 40s53.667 21.667 81 27l35 -56c-27.333 -17.333 -51.5 -34 -72.5 -50s-40.167 -31.667 -57.5 -47
h-108z" />
    <glyph glyph-name="ccaron" unicode="&#x10d;" horiz-adv-x="563" 
d="M543 117c-22 -36.667 -52.332 -67.3359 -90.999 -92.0029s-87 -37 -145 -37c-42.667 0 -81 7 -115 21s-63 33.5 -87 58.5s-42.333 54.333 -55 88s-19 70.5 -19 110.5s6.5 77 19.5 111s31.333 63.5 55 88.5s52.334 44.667 86.001 59s71.5 21.5 113.5 21.5
c28.667 0 55.167 -3.5 79.5 -10.5s46.333 -16.5 66 -28.5s37.167 -26.333 52.5 -43s28.666 -34.667 39.999 -54l-118 -70c-11.333 23.333 -26.333 41.833 -45 55.5s-41 20.5 -67 20.5c-19.333 0 -36.333 -3.66699 -51 -11s-27.334 -17.666 -38.001 -30.999
s-18.667 -29.166 -24 -47.499s-8 -38.166 -8 -59.499c0 -44 11 -79.833 33 -107.5s52.667 -41.5 92 -41.5c27.333 0 49.833 6.66699 67.5 20s33.5 31 47.5 53zM249.001 579.998c-17.333 15.333 -36.502 31 -57.502 47s-45.167 32.667 -72.5 50l35 56
c27.333 -5.33301 54.333 -14.333 81 -27s49.334 -26 68.001 -40c18.667 14 41.334 27.333 68.001 40s53.667 21.667 81 27l35 -56c-27.333 -17.333 -51.5 -34 -72.5 -50s-40.167 -31.667 -57.5 -47h-108z" />
    <glyph glyph-name="Dcaron" unicode="&#x10e;" horiz-adv-x="725" 
d="M348 142c58.667 0 102.834 17.167 132.501 51.5s44.5 80.833 44.5 139.5s-14.833 105 -44.5 139s-73.834 51 -132.501 51h-116v-381h116zM72 0v666.002h276c55.333 0 104.333 -8.5 147 -25.5s78.5 -40.333 107.5 -70s50.833 -64.834 65.5 -105.501s22 -84.667 22 -132
s-7.33301 -91.333 -22 -132s-36.5 -75.834 -65.5 -105.501s-64.833 -53 -107.5 -70s-91.667 -25.5 -147 -25.5h-276zM308 706.002c-17.333 15.333 -36.502 31 -57.502 47s-45.167 32.667 -72.5 50l35 56c27.333 -5.33301 54.333 -14.333 81 -27s49.334 -26 68.001 -40
c18.667 14 41.334 27.333 68.001 40s53.667 21.667 81 27l35 -56c-27.333 -17.333 -51.5 -34 -72.5 -50s-40.167 -31.667 -57.5 -47h-108z" />
    <glyph glyph-name="dcaron" unicode="&#x10f;" horiz-adv-x="767" 
d="M438 0v61c-21.333 -24.667 -45.833 -43 -73.5 -55s-57.5 -18 -89.5 -18c-37.333 0 -71 7.16699 -101 21.5s-55.5 34 -76.5 59s-37.167 54.5 -48.5 88.5s-17 70.667 -17 110c0 40 5.66699 77 17 111s27.5 63.5 48.5 88.5s46.5 44.5 76.5 58.5s63.667 21 101 21
c66 0 120.333 -24.333 163 -73v241h154v-714h-154zM438 266c0 20 -2.66992 38.999 -8.00293 56.999s-13.166 33.833 -23.499 47.5s-23.166 24.334 -38.499 32.001s-33.333 11.5 -54 11.5s-38.5 -4 -53.5 -12s-27.5 -18.667 -37.5 -32s-17.5 -29 -22.5 -47s-7.5 -37 -7.5 -57
s2.5 -38.833 7.5 -56.5s12.5 -33.167 22.5 -46.5s22.5 -23.833 37.5 -31.5s32.833 -11.5 53.5 -11.5s38.834 3.83301 54.501 11.5s28.667 18.167 39 31.5s18 28.833 23 46.5s7.5 36.5 7.5 56.5zM817.997 627.999c0 -45.333 -9.16699 -85 -27.5 -119
s-48.5 -67.333 -90.5 -100l-46 57c16.667 14.667 30.667 30.667 42 48s17 37 17 59c0 11.333 -1.66699 21 -5 29s-7 16.167 -11 24.5s-7.66699 17.5 -11 27.5s-5 22.333 -5 37v23h137v-86z" />
    <glyph glyph-name="Dcroat" unicode="&#x110;" horiz-adv-x="759" 
d="M106 0v274h-98v125h98v267h277c55.333 0 104.333 -8.5 147 -25.5s78.334 -40.333 107.001 -70s50.334 -64.834 65.001 -105.501s22 -84.667 22 -132s-7.33301 -91.166 -22 -131.499s-36.334 -75.5 -65.001 -105.5s-64.334 -53.5 -107.001 -70.5s-91.667 -25.5 -147 -25.5
h-277zM383 142c58 0 101.833 17.167 131.5 51.5s44.5 80.833 44.5 139.5s-14.833 105 -44.5 139s-73.5 51 -131.5 51h-117v-124h151v-125h-151v-132h117z" />
    <glyph glyph-name="dcroat" unicode="&#x111;" horiz-adv-x="655" 
d="M438 0v61c-21.333 -24.667 -45.833 -43 -73.5 -55s-57.5 -18 -89.5 -18c-37.333 0 -71 7.16699 -101 21.5s-55.5 34 -76.5 59s-37.167 54.5 -48.5 88.5s-17 70.667 -17 110c0 40 5.66699 77 17 111s27.5 63.5 48.5 88.5s46.5 44.5 76.5 58.5s63.667 21 101 21
c32 0 61.833 -6 89.5 -18s52.167 -30.333 73.5 -55v113h-119v81h119v47h154v-47h59v-81h-59v-586h-154zM438 266c0 20 -2.66895 38.999 -8.00195 56.999s-13.166 33.833 -23.499 47.5s-23.333 24.334 -39 32.001s-33.834 11.5 -54.501 11.5c-20 0 -37.5 -4 -52.5 -12
s-27.5 -18.667 -37.5 -32s-17.5 -29 -22.5 -47s-7.5 -37 -7.5 -57s2.5 -38.833 7.5 -56.5s12.5 -33.167 22.5 -46.5s22.5 -23.833 37.5 -31.5s32.5 -11.5 52.5 -11.5c20.667 0 38.834 3.83301 54.501 11.5s28.834 18.167 39.501 31.5s18.5 28.833 23.5 46.5
s7.5 36.5 7.5 56.5z" />
    <glyph glyph-name="Emacron" unicode="&#x112;" horiz-adv-x="631" 
d="M72 0v666h508v-143h-349v-113h304v-127h-304v-141h359v-142h-518zM158 720v83h332v-83h-332z" />
    <glyph glyph-name="emacron" unicode="&#x113;" horiz-adv-x="613" 
d="M583 273c0 -8.66699 -0.331055 -17 -0.998047 -25s-1.33398 -15 -2.00098 -21h-384c2.66699 -36.667 16.167 -64 40.5 -82s55.833 -27 94.5 -27c30.667 0 58.5 5.66699 83.5 17s46.167 26.666 63.5 45.999l98 -92c-30 -30 -65.333 -54.333 -106 -73s-90 -28 -148 -28
c-48 0 -90 7 -126 21s-66.167 33.333 -90.5 58s-42.666 53.834 -54.999 87.501s-18.5 70.167 -18.5 109.5c0 40 6.33301 77.333 19 112s31 64.5 55 89.5s53.333 44.667 88 59s74 21.5 118 21.5c42.667 0 80.667 -6.66699 114 -20s61.666 -32 84.999 -56
s41.166 -52.833 53.499 -86.5s18.5 -70.5 18.5 -110.5zM432.002 331c-3.33301 34 -15.667 59.333 -37 76s-48 25 -80 25c-34 0 -61.5 -9.16699 -82.5 -27.5s-32.833 -42.833 -35.5 -73.5h235zM146.001 593v83h332v-83h-332z" />
    <glyph glyph-name="Ebreve" unicode="&#x114;" horiz-adv-x="631" 
d="M72 0v666h508v-143h-349v-113h304v-127h-304v-141h359v-142h-518zM325 705c-52 0 -92.833 12.002 -122.5 36.002s-48.167 53.333 -55.5 88l72 21c8.66699 -18.667 21.5 -32.834 38.5 -42.501s39.5 -14.834 67.5 -15.501c28 0 50.667 5 68 15s30 24.333 38 43l72 -21
c-7.33301 -34.667 -25.833 -64 -55.5 -88s-70.5 -36 -122.5 -36z" />
    <glyph glyph-name="ebreve" unicode="&#x115;" horiz-adv-x="613" 
d="M583 273c0 -8.66699 -0.331055 -17 -0.998047 -25s-1.33398 -15 -2.00098 -21h-384c2.66699 -36.667 16.167 -64 40.5 -82s55.833 -27 94.5 -27c30.667 0 58.5 5.66699 83.5 17s46.167 26.666 63.5 45.999l98 -92c-30 -30 -65.333 -54.333 -106 -73s-90 -28 -148 -28
c-48 0 -90 7 -126 21s-66.167 33.333 -90.5 58s-42.666 53.834 -54.999 87.501s-18.5 70.167 -18.5 109.5c0 40 6.33301 77.333 19 112s31 64.5 55 89.5s53.333 44.667 88 59s74 21.5 118 21.5c42.667 0 80.667 -6.66699 114 -20s61.666 -32 84.999 -56
s41.166 -52.833 53.499 -86.5s18.5 -70.5 18.5 -110.5zM432.002 331c-3.33301 34 -15.667 59.333 -37 76s-48 25 -80 25c-34 0 -61.5 -9.16699 -82.5 -27.5s-32.833 -42.833 -35.5 -73.5h235zM310.001 579c-52 0 -92.833 12.002 -122.5 36.002s-48.167 53.333 -55.5 88
l72 21c8.66699 -18.667 21.5 -32.834 38.5 -42.501s39.5 -14.834 67.5 -15.501c28 0 50.667 5 68 15s30 24.333 38 43l72 -21c-7.33301 -34.667 -25.833 -64 -55.5 -88s-70.5 -36 -122.5 -36z" />
    <glyph glyph-name="Edotaccent" unicode="&#x116;" horiz-adv-x="631" 
d="M72 0v666h508v-143h-349v-113h304v-127h-304v-141h359v-142h-518zM265 718v110h120v-110h-120z" />
    <glyph glyph-name="edotaccent" unicode="&#x117;" horiz-adv-x="613" 
d="M583 273c0 -8.66699 -0.331055 -17 -0.998047 -25s-1.33398 -15 -2.00098 -21h-384c2.66699 -36.667 16.167 -64 40.5 -82s55.833 -27 94.5 -27c30.667 0 58.5 5.66699 83.5 17s46.167 26.666 63.5 45.999l98 -92c-30 -30 -65.333 -54.333 -106 -73s-90 -28 -148 -28
c-48 0 -90 7 -126 21s-66.167 33.333 -90.5 58s-42.666 53.834 -54.999 87.501s-18.5 70.167 -18.5 109.5c0 40 6.33301 77.333 19 112s31 64.5 55 89.5s53.333 44.667 88 59s74 21.5 118 21.5c42.667 0 80.667 -6.66699 114 -20s61.666 -32 84.999 -56
s41.166 -52.833 53.499 -86.5s18.5 -70.5 18.5 -110.5zM432.002 331c-3.33301 34 -15.667 59.333 -37 76s-48 25 -80 25c-34 0 -61.5 -9.16699 -82.5 -27.5s-32.833 -42.833 -35.5 -73.5h235zM249.001 592v110h120v-110h-120z" />
    <glyph glyph-name="Eogonek" unicode="&#x118;" horiz-adv-x="631" 
d="M479 0c-16 -17.333 -23.9971 -34.334 -23.9971 -51.001c0 -13.333 5.16699 -23.666 15.5 -30.999s23.833 -11 40.5 -11c17.333 0 33 3.5 47 10.5s24.667 14.167 32 21.5v-88c-7.33301 -6.66699 -19.333 -13.167 -36 -19.5s-36.667 -9.5 -60 -9.5
c-18.667 0 -35.834 2.5 -51.501 7.5s-29.334 11.667 -41.001 20s-20.667 18.5 -27 30.5s-9.5 25 -9.5 39c0 13.333 3.16699 27 9.5 41s16.166 27.333 29.499 40h-332v666h508v-143h-349v-113h304v-127h-304v-141h359v-142h-111z" />
    <glyph glyph-name="eogonek" unicode="&#x119;" horiz-adv-x="615" 
d="M583 273c0 -8.66699 -0.328125 -17 -0.995117 -25s-1.33398 -15 -2.00098 -21h-384c2.66699 -36.667 16.167 -64 40.5 -82s55.833 -27 94.5 -27c30.667 0 58.5 5.66699 83.5 17s46.167 26.666 63.5 45.999l98 -92c-15.333 -15.333 -31.833 -28.833 -49.5 -40.5
s-36.834 -22.5 -57.501 -32.5c-14 -7.33301 -26.167 -15.5 -36.5 -24.5s-15.5 -21.167 -15.5 -36.5c0 -13.333 5.16699 -24.166 15.5 -32.499s23.166 -12.5 38.499 -12.5c18.667 0 34.5 3.66699 47.5 11s24.167 15.666 33.5 24.999v-95
c-8 -6.66699 -20.167 -13.167 -36.5 -19.5s-36.5 -9.5 -60.5 -9.5c-38 0 -68.833 8.83301 -92.5 26.5s-35.5 40.5 -35.5 68.5c0 28.667 12 53 36 73c-6.66699 -0.666992 -13.334 -1.16699 -20.001 -1.5s-13.667 -0.5 -21 -0.5c-48 0 -90 7 -126 21s-66.167 33.333 -90.5 58
s-42.666 53.834 -54.999 87.501s-18.5 70.167 -18.5 109.5c0 40 6.33301 77.333 19 112s31 64.5 55 89.5s53.333 44.667 88 59s74 21.5 118 21.5c42.667 0 80.667 -6.66699 114 -20s61.666 -32 84.999 -56s41.166 -52.833 53.499 -86.5s18.5 -70.5 18.5 -110.5zM432.005 331
c-3.33301 34 -15.667 59.333 -37 76s-48 25 -80 25c-34 0 -61.5 -9.16699 -82.5 -27.5s-32.833 -42.833 -35.5 -73.5h235z" />
    <glyph glyph-name="Ecaron" unicode="&#x11a;" horiz-adv-x="631" 
d="M72 0v666h508v-143h-349v-113h304v-127h-304v-141h359v-142h-518zM272 706c-17.333 15.333 -36.502 31 -57.502 47s-45.167 32.667 -72.5 50l35 56c27.333 -5.33301 54.333 -14.333 81 -27s49.334 -26 68.001 -40c18.667 14 41.334 27.333 68.001 40s53.667 21.667 81 27
l35 -56c-27.333 -17.333 -51.5 -34 -72.5 -50s-40.167 -31.667 -57.5 -47h-108z" />
    <glyph glyph-name="ecaron" unicode="&#x11b;" horiz-adv-x="613" 
d="M583 273c0 -8.66699 -0.331055 -17 -0.998047 -25s-1.33398 -15 -2.00098 -21h-384c2.66699 -36.667 16.167 -64 40.5 -82s55.833 -27 94.5 -27c30.667 0 58.5 5.66699 83.5 17s46.167 26.666 63.5 45.999l98 -92c-30 -30 -65.333 -54.333 -106 -73s-90 -28 -148 -28
c-48 0 -90 7 -126 21s-66.167 33.333 -90.5 58s-42.666 53.834 -54.999 87.501s-18.5 70.167 -18.5 109.5c0 40 6.33301 77.333 19 112s31 64.5 55 89.5s53.333 44.667 88 59s74 21.5 118 21.5c42.667 0 80.667 -6.66699 114 -20s61.666 -32 84.999 -56
s41.166 -52.833 53.499 -86.5s18.5 -70.5 18.5 -110.5zM432.002 331c-3.33301 34 -15.667 59.333 -37 76s-48 25 -80 25c-34 0 -61.5 -9.16699 -82.5 -27.5s-32.833 -42.833 -35.5 -73.5h235zM257.001 580c-17.333 15.333 -36.502 31 -57.502 47s-45.167 32.667 -72.5 50
l35 56c27.333 -5.33301 54.333 -14.333 81 -27s49.334 -26 68.001 -40c18.667 14 41.334 27.333 68.001 40s53.667 21.667 81 27l35 -56c-27.333 -17.333 -51.5 -34 -72.5 -50s-40.167 -31.667 -57.5 -47h-108z" />
    <glyph glyph-name="Gcircumflex" unicode="&#x11c;" horiz-adv-x="725" 
d="M374 678c65.333 0 122.503 -14.3311 171.503 -42.998s88.167 -68.334 117.5 -119.001l-131 -74c-19.333 36 -42.166 61.333 -68.499 76s-56.5 22 -90.5 22c-28.667 0 -53.834 -5.16699 -75.501 -15.5s-39.834 -24.5 -54.501 -42.5s-25.667 -39.5 -33 -64.5
s-11 -52.167 -11 -81.5c0 -68 15.667 -120.333 47 -157s74.333 -55 129 -55c40 0 74.833 9.83301 104.5 29.5s47.167 47.834 52.5 84.501h-155v127h316c1.33301 -8 2.5 -17.833 3.5 -29.5s1.5 -21.834 1.5 -30.501c0 -44 -7 -85.167 -21 -123.5s-34.667 -71.833 -62 -100.5
s-61.333 -51.334 -102 -68.001s-87.334 -25 -140.001 -25c-50.667 0 -96.834 8.33301 -138.501 25s-77.334 40.167 -107.001 70.5s-52.667 66.833 -69 109.5s-24.5 90 -24.5 142s8.16699 99.167 24.5 141.5s39.333 78.333 69 108s65.334 52.667 107.001 69
s88.167 24.5 139.5 24.5zM422.003 851.002c17.333 -15.333 36.502 -31 57.502 -47s45.167 -32.667 72.5 -50l-35 -56c-27.333 5.33301 -54.333 14.333 -81 27s-49.334 26 -68.001 40c-18.667 -14 -41.334 -27.333 -68.001 -40s-53.667 -21.667 -81 -27l-35 56
c27.333 17.333 51.5 34 72.5 50s40.167 31.667 57.5 47h108z" />
    <glyph glyph-name="gcircumflex" unicode="&#x11d;" horiz-adv-x="657" 
d="M595 106c0 -42.667 -4.16504 -80.666 -12.498 -113.999s-24.5 -63.333 -48.5 -90c-15.333 -17.333 -32.833 -31.5 -52.5 -42.5s-40.167 -19.667 -61.5 -26s-43.5 -10.833 -66.5 -13.5s-45.833 -4 -68.5 -4c-90 0 -167.667 19.333 -233 58l56 119
c21.333 -14.667 47 -26.5 77 -35.5s62.333 -13.5 97 -13.5c22 0 42.667 2.16699 62 6.5s36.166 11.5 50.499 21.5s25.666 22.833 33.999 38.5s12.5 34.834 12.5 57.501v37c-20.667 -24 -45 -42 -73 -54s-59 -18 -93 -18c-36 0 -68.833 6.5 -98.5 19.5s-55 31 -76 54
s-37.333 50 -49 81s-17.5 64.5 -17.5 100.5s5.83301 69.667 17.5 101s28 58.666 49 81.999s46.5 41.666 76.5 54.999s63 20 99 20c68.667 0 123.667 -24.333 165 -73v61h154v-428zM442.002 290.001c0 36.667 -10.668 67.5 -32.001 92.5s-52.333 37.5 -93 37.5
c-40 0 -70.167 -12.333 -90.5 -37s-30.5 -55.667 -30.5 -93c0 -18.667 2.5 -36 7.5 -52s12.667 -30 23 -42s23 -21.333 38 -28s32.5 -10 52.5 -10s37.667 3.33301 53 10s28.333 16 39 28s18.834 26 24.501 42s8.5 33.333 8.5 52zM368.001 725.001
c17.333 -15.333 36.502 -31 57.502 -47s45.167 -32.667 72.5 -50l-35 -56c-27.333 5.33301 -54.333 14.333 -81 27s-49.334 26 -68.001 40c-18.667 -14 -41.334 -27.333 -68.001 -40s-53.667 -21.667 -81 -27l-35 56c27.333 17.333 51.5 34 72.5 50s40.167 31.667 57.5 47
h108z" />
    <glyph glyph-name="Gbreve" unicode="&#x11e;" horiz-adv-x="725" 
d="M374 678c65.333 0 122.503 -14.3311 171.503 -42.998s88.167 -68.334 117.5 -119.001l-131 -74c-19.333 36 -42.166 61.333 -68.499 76s-56.5 22 -90.5 22c-28.667 0 -53.834 -5.16699 -75.501 -15.5s-39.834 -24.5 -54.501 -42.5s-25.667 -39.5 -33 -64.5
s-11 -52.167 -11 -81.5c0 -68 15.667 -120.333 47 -157s74.333 -55 129 -55c40 0 74.833 9.83301 104.5 29.5s47.167 47.834 52.5 84.501h-155v127h316c1.33301 -8 2.5 -17.833 3.5 -29.5s1.5 -21.834 1.5 -30.501c0 -44 -7 -85.167 -21 -123.5s-34.667 -71.833 -62 -100.5
s-61.333 -51.334 -102 -68.001s-87.334 -25 -140.001 -25c-50.667 0 -96.834 8.33301 -138.501 25s-77.334 40.167 -107.001 70.5s-52.667 66.833 -69 109.5s-24.5 90 -24.5 142s8.16699 99.167 24.5 141.5s39.333 78.333 69 108s65.334 52.667 107.001 69
s88.167 24.5 139.5 24.5zM367.003 705.002c-52 0 -92.833 12.002 -122.5 36.002s-48.167 53.333 -55.5 88l72 21c8.66699 -18.667 21.5 -32.834 38.5 -42.501s39.5 -14.834 67.5 -15.501c28 0 50.667 5 68 15s30 24.333 38 43l72 -21
c-7.33301 -34.667 -25.833 -64 -55.5 -88s-70.5 -36 -122.5 -36z" />
    <glyph glyph-name="gbreve" unicode="&#x11f;" horiz-adv-x="657" 
d="M595 106c0 -42.667 -4.16504 -80.666 -12.498 -113.999s-24.5 -63.333 -48.5 -90c-15.333 -17.333 -32.833 -31.5 -52.5 -42.5s-40.167 -19.667 -61.5 -26s-43.5 -10.833 -66.5 -13.5s-45.833 -4 -68.5 -4c-90 0 -167.667 19.333 -233 58l56 119
c21.333 -14.667 47 -26.5 77 -35.5s62.333 -13.5 97 -13.5c22 0 42.667 2.16699 62 6.5s36.166 11.5 50.499 21.5s25.666 22.833 33.999 38.5s12.5 34.834 12.5 57.501v37c-20.667 -24 -45 -42 -73 -54s-59 -18 -93 -18c-36 0 -68.833 6.5 -98.5 19.5s-55 31 -76 54
s-37.333 50 -49 81s-17.5 64.5 -17.5 100.5s5.83301 69.667 17.5 101s28 58.666 49 81.999s46.5 41.666 76.5 54.999s63 20 99 20c68.667 0 123.667 -24.333 165 -73v61h154v-428zM442.002 290.001c0 36.667 -10.668 67.5 -32.001 92.5s-52.333 37.5 -93 37.5
c-40 0 -70.167 -12.333 -90.5 -37s-30.5 -55.667 -30.5 -93c0 -18.667 2.5 -36 7.5 -52s12.667 -30 23 -42s23 -21.333 38 -28s32.5 -10 52.5 -10s37.667 3.33301 53 10s28.333 16 39 28s18.834 26 24.501 42s8.5 33.333 8.5 52zM307.001 579.001
c-52 0 -92.833 12.002 -122.5 36.002s-48.167 53.333 -55.5 88l72 21c8.66699 -18.667 21.5 -32.834 38.5 -42.501s39.5 -14.834 67.5 -15.501c28 0 50.667 5 68 15s30 24.333 38 43l72 -21c-7.33301 -34.667 -25.833 -64 -55.5 -88s-70.5 -36 -122.5 -36z" />
    <glyph glyph-name="Gdotaccent" unicode="&#x120;" horiz-adv-x="725" 
d="M374 678c65.333 0 122.503 -14.3311 171.503 -42.998s88.167 -68.334 117.5 -119.001l-131 -74c-19.333 36 -42.166 61.333 -68.499 76s-56.5 22 -90.5 22c-28.667 0 -53.834 -5.16699 -75.501 -15.5s-39.834 -24.5 -54.501 -42.5s-25.667 -39.5 -33 -64.5
s-11 -52.167 -11 -81.5c0 -68 15.667 -120.333 47 -157s74.333 -55 129 -55c40 0 74.833 9.83301 104.5 29.5s47.167 47.834 52.5 84.501h-155v127h316c1.33301 -8 2.5 -17.833 3.5 -29.5s1.5 -21.834 1.5 -30.501c0 -44 -7 -85.167 -21 -123.5s-34.667 -71.833 -62 -100.5
s-61.333 -51.334 -102 -68.001s-87.334 -25 -140.001 -25c-50.667 0 -96.834 8.33301 -138.501 25s-77.334 40.167 -107.001 70.5s-52.667 66.833 -69 109.5s-24.5 90 -24.5 142s8.16699 99.167 24.5 141.5s39.333 78.333 69 108s65.334 52.667 107.001 69
s88.167 24.5 139.5 24.5zM308.003 718.002v110h120v-110h-120z" />
    <glyph glyph-name="gdotaccent" unicode="&#x121;" horiz-adv-x="657" 
d="M595 106c0 -42.667 -4.16504 -80.666 -12.498 -113.999s-24.5 -63.333 -48.5 -90c-15.333 -17.333 -32.833 -31.5 -52.5 -42.5s-40.167 -19.667 -61.5 -26s-43.5 -10.833 -66.5 -13.5s-45.833 -4 -68.5 -4c-90 0 -167.667 19.333 -233 58l56 119
c21.333 -14.667 47 -26.5 77 -35.5s62.333 -13.5 97 -13.5c22 0 42.667 2.16699 62 6.5s36.166 11.5 50.499 21.5s25.666 22.833 33.999 38.5s12.5 34.834 12.5 57.501v37c-20.667 -24 -45 -42 -73 -54s-59 -18 -93 -18c-36 0 -68.833 6.5 -98.5 19.5s-55 31 -76 54
s-37.333 50 -49 81s-17.5 64.5 -17.5 100.5s5.83301 69.667 17.5 101s28 58.666 49 81.999s46.5 41.666 76.5 54.999s63 20 99 20c68.667 0 123.667 -24.333 165 -73v61h154v-428zM442.002 290.001c0 36.667 -10.668 67.5 -32.001 92.5s-52.333 37.5 -93 37.5
c-40 0 -70.167 -12.333 -90.5 -37s-30.5 -55.667 -30.5 -93c0 -18.667 2.5 -36 7.5 -52s12.667 -30 23 -42s23 -21.333 38 -28s32.5 -10 52.5 -10s37.667 3.33301 53 10s28.333 16 39 28s18.834 26 24.501 42s8.5 33.333 8.5 52zM247.001 592.001v110h120v-110h-120z" />
    <glyph glyph-name="Gcommaaccent" unicode="&#x122;" horiz-adv-x="725" 
d="M374 678c65.333 0 122.503 -14.3311 171.503 -42.998s88.167 -68.334 117.5 -119.001l-131 -74c-19.333 36 -42.166 61.333 -68.499 76s-56.5 22 -90.5 22c-28.667 0 -53.834 -5.16699 -75.501 -15.5s-39.834 -24.5 -54.501 -42.5s-25.667 -39.5 -33 -64.5
s-11 -52.167 -11 -81.5c0 -68 15.667 -120.333 47 -157s74.333 -55 129 -55c40 0 74.833 9.83301 104.5 29.5s47.167 47.834 52.5 84.501h-155v127h316c1.33301 -8 2.5 -17.833 3.5 -29.5s1.5 -21.834 1.5 -30.501c0 -44 -7 -85.167 -21 -123.5s-34.667 -71.833 -62 -100.5
s-61.333 -51.334 -102 -68.001s-87.334 -25 -140.001 -25c-50.667 0 -96.834 8.33301 -138.501 25s-77.334 40.167 -107.001 70.5s-52.667 66.833 -69 109.5s-24.5 90 -24.5 142s8.16699 99.167 24.5 141.5s39.333 78.333 69 108s65.334 52.667 107.001 69
s88.167 24.5 139.5 24.5zM235.003 -171.998c14 19.333 28.333 40.833 43 64.5s26 46.5 34 68.5l126 -14c-6 -14.667 -14.5 -29.167 -25.5 -43.5s-23.167 -28 -36.5 -41s-27.333 -24.833 -42 -35.5s-28.667 -19.667 -42 -27z" />
    <glyph glyph-name="gcommaaccent" unicode="&#x123;" horiz-adv-x="657" 
d="M430 706c-14 -19.333 -28.335 -40.833 -43.002 -64.5s-26 -46.167 -34 -67.5l-126 13c6 14.667 14.333 29.167 25 43.5s22.834 28 36.501 41s27.834 25 42.501 36s28.667 20.167 42 27.5zM594.998 106c0 -42.667 -4.16504 -80.666 -12.498 -113.999
s-24.5 -63.333 -48.5 -90c-15.333 -17.333 -32.833 -31.5 -52.5 -42.5s-40.167 -19.667 -61.5 -26s-43.5 -10.833 -66.5 -13.5s-45.833 -4 -68.5 -4c-90 0 -167.667 19.333 -233 58l56 119c21.333 -14.667 47 -26.5 77 -35.5s62.333 -13.5 97 -13.5
c22 0 42.667 2.16699 62 6.5s36.166 11.5 50.499 21.5s25.666 22.833 33.999 38.5s12.5 34.834 12.5 57.501v37c-20.667 -24 -45 -42 -73 -54s-59 -18 -93 -18c-36 0 -68.833 6.5 -98.5 19.5s-55 31 -76 54s-37.333 50 -49 81s-17.5 64.5 -17.5 100.5
s5.83301 69.667 17.5 101s28 58.666 49 81.999s46.5 41.666 76.5 54.999s63 20 99 20c68.667 0 123.667 -24.333 165 -73v61h154v-428zM442 290.001c0 36.667 -10.668 67.5 -32.001 92.5s-52.333 37.5 -93 37.5c-40 0 -70.167 -12.333 -90.5 -37s-30.5 -55.667 -30.5 -93
c0 -18.667 2.5 -36 7.5 -52s12.667 -30 23 -42s23 -21.333 38 -28s32.5 -10 52.5 -10s37.667 3.33301 53 10s28.333 16 39 28s18.834 26 24.501 42s8.5 33.333 8.5 52z" />
    <glyph glyph-name="Hcircumflex" unicode="&#x124;" horiz-adv-x="738" 
d="M505 0v278h-273v-278h-160v666h160v-246h273v246h161v-666h-161zM421 851c17.333 -15.333 36.502 -31 57.502 -47s45.167 -32.667 72.5 -50l-35 -56c-27.333 5.33301 -54.333 14.333 -81 27s-49.334 26 -68.001 40c-18.667 -14 -41.334 -27.333 -68.001 -40
s-53.667 -21.667 -81 -27l-35 56c27.333 17.333 51.5 34 72.5 50s40.167 31.667 57.5 47h108z" />
    <glyph glyph-name="hcircumflex" unicode="&#x125;" horiz-adv-x="614" 
d="M63 0l0.000976562 714.002h153v-241c21.333 23.333 45.666 41.333 72.999 54s56.333 19 87 19c30 0 56.333 -5 79 -15s41.5 -23.5 56.5 -40.5s26.167 -37.333 33.5 -61s11 -48.834 11 -75.501v-354h-153v319c0 11.333 -1.16699 22.5 -3.5 33.5s-6.5 20.667 -12.5 29
s-14.5 15.166 -25.5 20.499s-24.833 8 -41.5 8c-28.667 0 -53.167 -9 -73.5 -27s-30.5 -44.333 -30.5 -79v-304h-153zM197.001 872.002c17.333 -15.333 36.502 -31 57.502 -47s45.167 -32.667 72.5 -50l-35 -56c-27.333 5.33301 -54.333 14.333 -81 27
s-49.334 26 -68.001 40c-18.667 -14 -41.334 -27.333 -68.001 -40s-53.667 -21.667 -81 -27l-35 56c27.333 17.333 51.5 34 72.5 50s40.167 31.667 57.5 47h108z" />
    <glyph glyph-name="Hbar" unicode="&#x126;" horiz-adv-x="738" 
d="M505 0v278h-273v-278h-160v526h-56v81h56v59h160v-59h273v59h161v-59h55v-81h-55v-526h-161zM505 420v106h-273v-106h273z" />
    <glyph glyph-name="hbar" unicode="&#x127;" horiz-adv-x="614" 
d="M63 0l0.000976562 585.002h-60v81h60v48h153v-48h120v-81h-120v-112c21.333 23.333 45.666 41.333 72.999 54s56.333 19 87 19c30 0 56.333 -5 79 -15s41.5 -23.5 56.5 -40.5s26.167 -37.333 33.5 -61s11 -48.834 11 -75.501v-354h-153v319
c0 11.333 -1.16699 22.5 -3.5 33.5s-6.5 20.667 -12.5 29s-14.5 15.166 -25.5 20.499s-24.833 8 -41.5 8c-28.667 0 -53.167 -9 -73.5 -27s-30.5 -44.333 -30.5 -79v-304h-153z" />
    <glyph glyph-name="Itilde" unicode="&#x128;" horiz-adv-x="303" 
d="M72 0v666h159v-666h-159zM346 810c-11.333 -27.333 -27.832 -50.666 -49.499 -69.999s-47.167 -29 -76.5 -29c-14 0 -26.833 2 -38.5 6s-22.834 8.5 -33.501 13.5s-21 9.5 -31 13.5s-20 6 -30 6c-13.333 0 -26.5 -3.66699 -39.5 -11s-24.5 -17.666 -34.5 -30.999l-54 37
c11.333 27.333 27.666 50.666 48.999 69.999s47 29 77 29c13.333 0 25.833 -2 37.5 -6s22.834 -8.5 33.501 -13.5s21.167 -9.5 31.5 -13.5s20.5 -6 30.5 -6c12.667 0 25.5 3.66699 38.5 11s24.833 17.666 35.5 30.999z" />
    <glyph glyph-name="itilde" unicode="&#x129;" horiz-adv-x="279" 
d="M63 0v534h153v-534h-153zM335 684c-11.333 -27.333 -27.832 -50.666 -49.499 -69.999s-47.167 -29 -76.5 -29c-14 0 -26.833 2 -38.5 6s-22.834 8.5 -33.501 13.5s-21 9.5 -31 13.5s-20 6 -30 6c-13.333 0 -26.5 -3.66699 -39.5 -11s-24.5 -17.666 -34.5 -30.999l-54 37
c11.333 27.333 27.666 50.666 48.999 69.999s47 29 77 29c13.333 0 25.833 -2 37.5 -6s22.834 -8.5 33.501 -13.5s21.167 -9.5 31.5 -13.5s20.5 -6 30.5 -6c12.667 0 25.5 3.66699 38.5 11s24.833 17.666 35.5 30.999z" />
    <glyph glyph-name="Imacron" unicode="&#x12a;" horiz-adv-x="303" 
d="M72 0v666h159v-666h-159zM-14 721v83h332v-83h-332z" />
    <glyph glyph-name="imacron" unicode="&#x12b;" horiz-adv-x="279" 
d="M63 0v534h153v-534h-153zM-25 593v83h332v-83h-332z" />
    <glyph glyph-name="Ibreve" unicode="&#x12c;" horiz-adv-x="303" 
d="M72 0v666h159v-666h-159zM153 705c-52 0 -92.833 12.002 -122.5 36.002s-48.167 53.333 -55.5 88l72 21c8.66699 -18.667 21.5 -32.834 38.5 -42.501s39.5 -14.834 67.5 -15.501c28 0 50.667 5 68 15s30 24.333 38 43l72 -21c-7.33301 -34.667 -25.833 -64 -55.5 -88
s-70.5 -36 -122.5 -36z" />
    <glyph glyph-name="ibreve" unicode="&#x12d;" horiz-adv-x="279" 
d="M63 0v534h153v-534h-153zM140 579c-52 0 -92.833 12.002 -122.5 36.002s-48.167 53.333 -55.5 88l72 21c8.66699 -18.667 21.5 -32.834 38.5 -42.501s39.5 -14.834 67.5 -15.501c28 0 50.667 5 68 15s30 24.333 38 43l72 -21c-7.33301 -34.667 -25.833 -64 -55.5 -88
s-70.5 -36 -122.5 -36z" />
    <glyph glyph-name="Iogonek" unicode="&#x12e;" horiz-adv-x="303" 
d="M72 666l158.999 0.00292969v-666c-12.667 -0.666992 -25.5 -1.83398 -38.5 -3.50098s-24.667 -4.5 -35 -8.5s-18.833 -9.33301 -25.5 -16s-10 -15.334 -10 -26.001c0 -11.333 5 -19.833 15 -25.5s22.667 -8.5 38 -8.5c12 0 24 1.83301 36 5.5s21 8.16699 27 13.5v-90
c-7.33301 -5.33301 -17.666 -9.83301 -30.999 -13.5s-28 -5.5 -44 -5.5c-40 0 -71.833 9 -95.5 27s-35.5 41 -35.5 69c0 19.333 4.5 36.166 13.5 50.499s17.833 24.833 26.5 31.5v666z" />
    <glyph glyph-name="iogonek" unicode="&#x12f;" horiz-adv-x="279" 
d="M63 534l153 0.00195312v-534c-12 -0.666992 -24.5 -1.83398 -37.5 -3.50098s-24.833 -4.5 -35.5 -8.5s-19.334 -9.33301 -26.001 -16s-10 -15.334 -10 -26.001c0 -11.333 5 -19.833 15 -25.5s22.667 -8.5 38 -8.5c12 0 24 1.83301 36 5.5s21 8.16699 27 13.5v-90
c-7.33301 -5.33301 -17.666 -9.83301 -30.999 -13.5s-28 -5.5 -44 -5.5c-38 0 -69 9 -93 27s-36 41 -36 69c0 20 5.16699 36.667 15.5 50s19.833 24 28.5 32v534zM63 606.002v108h153v-108h-153z" />
    <glyph glyph-name="Idotaccent" unicode="&#x130;" horiz-adv-x="303" 
d="M72 0v666h159v-666h-159zM93 718v110h120v-110h-120z" />
    <glyph glyph-name="dotlessi" unicode="&#x131;" horiz-adv-x="279" 
d="M63 0v534h153v-534h-153z" />
    <glyph glyph-name="Jcircumflex" unicode="&#x134;" horiz-adv-x="550" 
d="M484 232c0 -40.667 -5.83301 -76.1689 -17.5 -106.502s-28.167 -55.666 -49.5 -75.999s-47 -35.666 -77 -45.999s-63.333 -15.5 -100 -15.5c-54 0 -101.5 11.5 -142.5 34.5s-72.833 59.167 -95.5 108.5l131 71c12 -27.333 26.5 -46.5 43.5 -57.5s36.5 -16.5 58.5 -16.5
c29.333 0 51.5 8.66699 66.5 26s22.5 42 22.5 74v438h160v-434zM454 850.998c17.333 -15.333 36.502 -31 57.502 -47s45.167 -32.667 72.5 -50l-35 -56c-27.333 5.33301 -54.333 14.333 -81 27s-49.334 26 -68.001 40c-18.667 -14 -41.334 -27.333 -68.001 -40
s-53.667 -21.667 -81 -27l-35 56c27.333 17.333 51.5 34 72.5 50s40.167 31.667 57.5 47h108z" />
    <glyph glyph-name="jcircumflex" unicode="&#x135;" horiz-adv-x="280" 
d="M194 725c17.333 -15.333 36.502 -31 57.502 -47s45.167 -32.667 72.5 -50l-35 -56c-27.333 5.33301 -54.333 14.333 -81 27s-49.334 26 -68.001 40c-18.667 -14 -41.334 -27.333 -68.001 -40s-53.667 -21.667 -81 -27l-35 56c27.333 17.333 51.5 34 72.5 50
s40.167 31.667 57.5 47h108zM217.002 15c0 -67.333 -17.5 -117 -52.5 -149s-81.833 -48 -140.5 -48c-19.333 0 -39.333 2.33301 -60 7s-38.667 11.667 -54 21l42 112c7.33301 -4 15.333 -7.33301 24 -10s18 -4 28 -4c21.333 0 36.5 5.66699 45.5 17s13.5 28.333 13.5 51v522
h154v-519z" />
    <glyph glyph-name="Kcommaaccent" unicode="&#x136;" horiz-adv-x="694" 
d="M511 0l-182 282l-98 -113v-169h-159v666h159v-290l250 290h192l-234 -268l259 -398h-187zM246 -172c14 19.333 28.333 40.833 43 64.5s26 46.5 34 68.5l126 -14c-6 -14.667 -14.5 -29.167 -25.5 -43.5s-23.167 -28 -36.5 -41s-27.333 -24.833 -42 -35.5
s-28.667 -19.667 -42 -27z" />
    <glyph glyph-name="kcommaaccent" unicode="&#x137;" horiz-adv-x="620" 
d="M418 534h180l-196 -209l219 -325h-182l-141 223l-82 -87v-136h-153v714h153v-403zM211 -172c14 19.333 28.333 40.833 43 64.5s26 46.5 34 68.5l126 -14c-6 -14.667 -14.5 -29.167 -25.5 -43.5s-23.167 -28 -36.5 -41s-27.333 -24.833 -42 -35.5s-28.667 -19.667 -42 -27
z" />
    <glyph glyph-name="kgreenlandic" unicode="&#x138;" horiz-adv-x="621" 
d="M418 534h180l-196 -209l219 -325h-182l-141 223l-82 -87v-136h-153v534h153v-223z" />
    <glyph glyph-name="Lacute" unicode="&#x139;" horiz-adv-x="581" 
d="M72 0v666h159v-524h337v-142h-496zM73 726c14.667 19.333 30 41.502 46 66.502s28.667 48.167 38 69.5l124 -21c-6 -14 -14.667 -28.167 -26 -42.5s-24 -27.833 -38 -40.5s-28.5 -24.334 -43.5 -35.001s-29.5 -19.334 -43.5 -26.001z" />
    <glyph glyph-name="lacute" unicode="&#x13a;" horiz-adv-x="281" 
d="M64 0v714h153v-714h-153zM64 767c14.667 19.333 30 41.502 46 66.502s28.667 48.167 38 69.5l124 -21c-6 -14 -14.667 -28.167 -26 -42.5s-24 -27.833 -38 -40.5s-28.5 -24.334 -43.5 -35.001s-29.5 -19.334 -43.5 -26.001z" />
    <glyph glyph-name="Lcommaaccent" unicode="&#x13b;" horiz-adv-x="581" 
d="M72 0v666h159v-524h337v-142h-496zM212 -172c14 19.333 28.333 40.833 43 64.5s26 46.5 34 68.5l126 -14c-6 -14.667 -14.5 -29.167 -25.5 -43.5s-23.167 -28 -36.5 -41s-27.333 -24.833 -42 -35.5s-28.667 -19.667 -42 -27z" />
    <glyph glyph-name="lcommaaccent" unicode="&#x13c;" horiz-adv-x="281" 
d="M64 0v714h153v-714h-153zM6 -172c14 19.333 28.333 40.833 43 64.5s26 46.5 34 68.5l126 -14c-6 -14.667 -14.5 -29.167 -25.5 -43.5s-23.167 -28 -36.5 -41s-27.333 -24.833 -42 -35.5s-28.667 -19.667 -42 -27z" />
    <glyph glyph-name="Lcaron" unicode="&#x13d;" horiz-adv-x="581" 
d="M72 0v666h159v-524h337v-142h-496zM472 580c0 -45.333 -9.16699 -85 -27.5 -119s-48.5 -67.333 -90.5 -100l-46 57c16.667 14.667 30.667 30.667 42 48s17 37 17 59c0 11.333 -1.66699 21 -5 29s-7 16.167 -11 24.5s-7.66699 17.5 -11 27.5s-5 22.333 -5 37v23h137v-86z
" />
    <glyph glyph-name="lcaron" unicode="&#x13e;" horiz-adv-x="400" 
d="M64 0v714h153v-714h-153zM450 628c0 -45.333 -9.16699 -85 -27.5 -119s-48.5 -67.333 -90.5 -100l-46 57c16.667 14.667 30.667 30.667 42 48s17 37 17 59c0 11.333 -1.66699 21 -5 29s-7 16.167 -11 24.5s-7.66699 17.5 -11 27.5s-5 22.333 -5 37v23h137v-86z" />
    <glyph glyph-name="Ldot" unicode="&#x13f;" horiz-adv-x="581" 
d="M72 0v666h159v-524h337v-142h-496zM541 366c0 -12.667 -2.5 -24.834 -7.5 -36.501s-11.667 -21.834 -20 -30.501s-18.333 -15.5 -30 -20.5s-23.834 -7.5 -36.501 -7.5c-13.333 0 -25.666 2.5 -36.999 7.5s-21.333 11.833 -30 20.5s-15.5 18.834 -20.5 30.501
s-7.5 23.834 -7.5 36.501s2.5 24.834 7.5 36.501s11.833 21.834 20.5 30.501s18.667 15.5 30 20.5s23.666 7.5 36.999 7.5c12.667 0 24.834 -2.5 36.501 -7.5s21.667 -11.833 30 -20.5s15 -18.834 20 -30.501s7.5 -23.834 7.5 -36.501z" />
    <glyph glyph-name="ldot" unicode="&#x140;" horiz-adv-x="546" 
d="M64 0v714h153v-714h-153zM507 304c0 -12.667 -2.5 -24.834 -7.5 -36.501s-11.667 -21.834 -20 -30.501s-18.333 -15.5 -30 -20.5s-23.834 -7.5 -36.501 -7.5c-13.333 0 -25.666 2.5 -36.999 7.5s-21.333 11.833 -30 20.5s-15.5 18.834 -20.5 30.501
s-7.5 23.834 -7.5 36.501s2.5 24.834 7.5 36.501s11.833 21.834 20.5 30.501s18.667 15.5 30 20.5s23.666 7.5 36.999 7.5c12.667 0 24.834 -2.5 36.501 -7.5s21.667 -11.833 30 -20.5s15 -18.834 20 -30.501s7.5 -23.834 7.5 -36.501z" />
    <glyph glyph-name="Lslash" unicode="&#x141;" horiz-adv-x="602" 
d="M94 0v248l-100 -40v128l100 39v291h158v-230l199 79v-128l-199 -79v-166h337v-142h-495z" />
    <glyph glyph-name="lslash" unicode="&#x142;" horiz-adv-x="351" 
d="M254 377v-377h-153v323l-98 -37v122l98 36v270h153v-216l99 38v-122z" />
    <glyph glyph-name="Nacute" unicode="&#x143;" horiz-adv-x="738" 
d="M475 0l-250 456v-456h-153v666h199l243 -446v446h152v-666h-191zM314 725c14.667 19.333 30 41.502 46 66.502s28.667 48.167 38 69.5l124 -21c-6 -14 -14.667 -28.167 -26 -42.5s-24 -27.833 -38 -40.5s-28.5 -24.334 -43.5 -35.001s-29.5 -19.334 -43.5 -26.001z" />
    <glyph glyph-name="nacute" unicode="&#x144;" horiz-adv-x="614" 
d="M63 0l0.000976562 534.002h153v-61c21.333 23.333 45.666 41.333 72.999 54s56.333 19 87 19c30 0 56.333 -5 79 -15s41.5 -23.5 56.5 -40.5s26.167 -37.333 33.5 -61s11 -48.834 11 -75.501v-354h-153v319c0 11.333 -1.16699 22.5 -3.5 33.5s-6.5 20.667 -12.5 29
s-14.5 15.166 -25.5 20.499s-24.833 8 -41.5 8c-28.667 0 -53.167 -9 -73.5 -27s-30.5 -44.333 -30.5 -79v-304h-153zM250.001 599.002c14 19.333 28.668 41.332 44.001 65.999s27 48 35 70l125 -21c-6 -14 -14.5 -28.167 -25.5 -42.5s-23.333 -27.666 -37 -39.999
s-27.834 -23.833 -42.501 -34.5s-28.667 -19.667 -42 -27z" />
    <glyph glyph-name="Ncommaaccent" unicode="&#x145;" horiz-adv-x="738" 
d="M475 0l-250 456v-456h-153v666h199l243 -446v446h152v-666h-191zM250 -172c14 19.333 28.333 40.833 43 64.5s26 46.5 34 68.5l126 -14c-6 -14.667 -14.5 -29.167 -25.5 -43.5s-23.167 -28 -36.5 -41s-27.333 -24.833 -42 -35.5s-28.667 -19.667 -42 -27z" />
    <glyph glyph-name="ncommaaccent" unicode="&#x146;" horiz-adv-x="614" 
d="M63 0l0.000976562 534.002h153v-61c21.333 23.333 45.666 41.333 72.999 54s56.333 19 87 19c30 0 56.333 -5 79 -15s41.5 -23.5 56.5 -40.5s26.167 -37.333 33.5 -61s11 -48.834 11 -75.501v-354h-153v319c0 11.333 -1.16699 22.5 -3.5 33.5s-6.5 20.667 -12.5 29
s-14.5 15.166 -25.5 20.499s-24.833 8 -41.5 8c-28.667 0 -53.167 -9 -73.5 -27s-30.5 -44.333 -30.5 -79v-304h-153zM191.001 -171.998c14 19.333 28.333 40.833 43 64.5s26 46.5 34 68.5l126 -14c-6 -14.667 -14.5 -29.167 -25.5 -43.5s-23.167 -28 -36.5 -41
s-27.333 -24.833 -42 -35.5s-28.667 -19.667 -42 -27z" />
    <glyph glyph-name="Ncaron" unicode="&#x147;" horiz-adv-x="738" 
d="M475 0l-250 456v-456h-153v666h199l243 -446v446h152v-666h-191zM316 706c-17.333 15.333 -36.502 31 -57.502 47s-45.167 32.667 -72.5 50l35 56c27.333 -5.33301 54.333 -14.333 81 -27s49.334 -26 68.001 -40c18.667 14 41.334 27.333 68.001 40s53.667 21.667 81 27
l35 -56c-27.333 -17.333 -51.5 -34 -72.5 -50s-40.167 -31.667 -57.5 -47h-108z" />
    <glyph glyph-name="ncaron" unicode="&#x148;" horiz-adv-x="614" 
d="M63 0l0.000976562 534.002h153v-61c21.333 23.333 45.666 41.333 72.999 54s56.333 19 87 19c30 0 56.333 -5 79 -15s41.5 -23.5 56.5 -40.5s26.167 -37.333 33.5 -61s11 -48.834 11 -75.501v-354h-153v319c0 11.333 -1.16699 22.5 -3.5 33.5s-6.5 20.667 -12.5 29
s-14.5 15.166 -25.5 20.499s-24.833 8 -41.5 8c-28.667 0 -53.167 -9 -73.5 -27s-30.5 -44.333 -30.5 -79v-304h-153zM255.001 580.002c-17.333 15.333 -36.502 31 -57.502 47s-45.167 32.667 -72.5 50l35 56c27.333 -5.33301 54.333 -14.333 81 -27s49.334 -26 68.001 -40
c18.667 14 41.334 27.333 68.001 40s53.667 21.667 81 27l35 -56c-27.333 -17.333 -51.5 -34 -72.5 -50s-40.167 -31.667 -57.5 -47h-108z" />
    <glyph glyph-name="Eng" unicode="&#x14a;" horiz-adv-x="738" 
d="M666 60c0 -40.667 -5.66699 -76.1689 -17 -106.502s-27.333 -55.666 -48 -75.999s-45.834 -35.666 -75.501 -45.999s-62.5 -15.5 -98.5 -15.5c-20.667 0 -40.667 2.5 -60 7.5s-36.666 11.5 -51.999 19.5l47 122c9.33301 -5.33301 19 -9 29 -11s19.333 -3 28 -3
c21.333 0 38.5 4.33301 51.5 13s22.5 20.667 28.5 36l-274 451v-451h-153v666h193l249 -409v409h152v-606z" />
    <glyph glyph-name="eng" unicode="&#x14b;" horiz-adv-x="614" 
d="M556 15c0 -29.333 -3.83203 -55.999 -11.499 -79.999s-19.167 -44.667 -34.5 -62s-34.5 -30.833 -57.5 -40.5s-50.167 -14.5 -81.5 -14.5c-20.667 0 -41.667 2.16699 -63 6.5s-41 11.5 -59 21.5l43 112c7.33301 -4 15.333 -7.33301 24 -10s18 -4 28 -4
c20.667 0 35.667 5.33301 45 16s14 25.334 14 44.001v315c0 11.333 -1.16699 22.5 -3.5 33.5s-6.5 20.667 -12.5 29s-14.5 15.166 -25.5 20.499s-24.833 8 -41.5 8c-28.667 0 -53.167 -9 -73.5 -27s-30.5 -44.333 -30.5 -79v-304h-153v534h153v-61
c21.333 23.333 45.666 41.333 72.999 54s56.333 19 87 19c30 0 56.333 -5 79 -15s41.5 -23.5 56.5 -40.5s26.167 -37.333 33.5 -61s11 -48.834 11 -75.501v-339z" />
    <glyph glyph-name="Omacron" unicode="&#x14c;" horiz-adv-x="749" 
d="M716 333c0 -48 -7.83301 -93 -23.5 -135s-38.167 -78.5 -67.5 -109.5s-65.166 -55.5 -107.499 -73.5s-90.166 -27 -143.499 -27s-101 9 -143 27s-77.667 42.5 -107 73.5s-51.666 67.5 -66.999 109.5s-23 87 -23 135s7.66699 93 23 135s37.666 78.5 66.999 109.5
s65 55.5 107 73.5s89.667 27 143 27s101.166 -9 143.499 -27s78.166 -42.5 107.499 -73.5s51.833 -67.5 67.5 -109.5s23.5 -87 23.5 -135zM550 333c0 27.333 -3.83301 53.166 -11.5 77.499s-19 45.5 -34 63.5s-33.333 32.167 -55 42.5s-46.834 15.5 -75.501 15.5
s-53.834 -5.16699 -75.501 -15.5s-39.834 -24.5 -54.501 -42.5s-25.834 -39.167 -33.501 -63.5s-11.5 -50.166 -11.5 -77.499c0 -28 3.83301 -54 11.5 -78s18.834 -45 33.501 -63s32.834 -32.167 54.501 -42.5s46.834 -15.5 75.501 -15.5s53.834 5.16699 75.501 15.5
s40 24.5 55 42.5s26.333 39 34 63s11.5 50 11.5 78zM208 720v83h332v-83h-332z" />
    <glyph glyph-name="omacron" unicode="&#x14d;" horiz-adv-x="631" 
d="M599 266c0 -41.333 -6.66699 -79.166 -20 -113.499s-32.333 -63.666 -57 -87.999s-54.5 -43.166 -89.5 -56.499s-74.167 -20 -117.5 -20s-82.5 6.66699 -117.5 20s-64.667 32.166 -89 56.499s-43.166 53.666 -56.499 87.999s-20 72.166 -20 113.499
c0 42 6.66699 80.167 20 114.5s32.166 63.666 56.499 87.999s54 43.333 89 57s74.167 20.5 117.5 20.5s82.5 -6.83301 117.5 -20.5s64.833 -32.667 89.5 -57s43.667 -53.666 57 -87.999s20 -72.5 20 -114.5zM436 267c0 44 -10.167 80.167 -30.5 108.5s-50.5 42.5 -90.5 42.5
c-39.333 0 -69.333 -14.167 -90 -42.5s-31 -64.5 -31 -108.5s10.333 -80.167 31 -108.5s50.667 -42.5 90 -42.5c40 0 70.167 14.167 90.5 42.5s30.5 64.5 30.5 108.5zM149 593v83h332v-83h-332z" />
    <glyph glyph-name="Obreve" unicode="&#x14e;" horiz-adv-x="749" 
d="M716 333c0 -48 -7.83301 -93 -23.5 -135s-38.167 -78.5 -67.5 -109.5s-65.166 -55.5 -107.499 -73.5s-90.166 -27 -143.499 -27s-101 9 -143 27s-77.667 42.5 -107 73.5s-51.666 67.5 -66.999 109.5s-23 87 -23 135s7.66699 93 23 135s37.666 78.5 66.999 109.5
s65 55.5 107 73.5s89.667 27 143 27s101.166 -9 143.499 -27s78.166 -42.5 107.499 -73.5s51.833 -67.5 67.5 -109.5s23.5 -87 23.5 -135zM550 333c0 27.333 -3.83301 53.166 -11.5 77.499s-19 45.5 -34 63.5s-33.333 32.167 -55 42.5s-46.834 15.5 -75.501 15.5
s-53.834 -5.16699 -75.501 -15.5s-39.834 -24.5 -54.501 -42.5s-25.834 -39.167 -33.501 -63.5s-11.5 -50.166 -11.5 -77.499c0 -28 3.83301 -54 11.5 -78s18.834 -45 33.501 -63s32.834 -32.167 54.501 -42.5s46.834 -15.5 75.501 -15.5s53.834 5.16699 75.501 15.5
s40 24.5 55 42.5s26.333 39 34 63s11.5 50 11.5 78zM374 705c-52 0 -92.833 12.002 -122.5 36.002s-48.167 53.333 -55.5 88l72 21c8.66699 -18.667 21.5 -32.834 38.5 -42.501s39.5 -14.834 67.5 -15.501c28 0 50.667 5 68 15s30 24.333 38 43l72 -21
c-7.33301 -34.667 -25.833 -64 -55.5 -88s-70.5 -36 -122.5 -36z" />
    <glyph glyph-name="obreve" unicode="&#x14f;" horiz-adv-x="631" 
d="M599 266c0 -41.333 -6.66699 -79.166 -20 -113.499s-32.333 -63.666 -57 -87.999s-54.5 -43.166 -89.5 -56.499s-74.167 -20 -117.5 -20s-82.5 6.66699 -117.5 20s-64.667 32.166 -89 56.499s-43.166 53.666 -56.499 87.999s-20 72.166 -20 113.499
c0 42 6.66699 80.167 20 114.5s32.166 63.666 56.499 87.999s54 43.333 89 57s74.167 20.5 117.5 20.5s82.5 -6.83301 117.5 -20.5s64.833 -32.667 89.5 -57s43.667 -53.666 57 -87.999s20 -72.5 20 -114.5zM436 267c0 44 -10.167 80.167 -30.5 108.5s-50.5 42.5 -90.5 42.5
c-39.333 0 -69.333 -14.167 -90 -42.5s-31 -64.5 -31 -108.5s10.333 -80.167 31 -108.5s50.667 -42.5 90 -42.5c40 0 70.167 14.167 90.5 42.5s30.5 64.5 30.5 108.5zM315 579c-52 0 -92.833 12.002 -122.5 36.002s-48.167 53.333 -55.5 88l72 21
c8.66699 -18.667 21.5 -32.834 38.5 -42.501s39.5 -14.834 67.5 -15.501c28 0 50.667 5 68 15s30 24.333 38 43l72 -21c-7.33301 -34.667 -25.833 -64 -55.5 -88s-70.5 -36 -122.5 -36z" />
    <glyph glyph-name="Ohungarumlaut" unicode="&#x150;" horiz-adv-x="749" 
d="M716 333c0 -48 -7.83301 -93 -23.5 -135s-38.167 -78.5 -67.5 -109.5s-65.166 -55.5 -107.499 -73.5s-90.166 -27 -143.499 -27s-101 9 -143 27s-77.667 42.5 -107 73.5s-51.666 67.5 -66.999 109.5s-23 87 -23 135s7.66699 93 23 135s37.666 78.5 66.999 109.5
s65 55.5 107 73.5s89.667 27 143 27s101.166 -9 143.499 -27s78.166 -42.5 107.499 -73.5s51.833 -67.5 67.5 -109.5s23.5 -87 23.5 -135zM550 333c0 27.333 -3.83301 53.166 -11.5 77.499s-19 45.5 -34 63.5s-33.333 32.167 -55 42.5s-46.834 15.5 -75.501 15.5
s-53.834 -5.16699 -75.501 -15.5s-39.834 -24.5 -54.501 -42.5s-25.834 -39.167 -33.501 -63.5s-11.5 -50.166 -11.5 -77.499c0 -28 3.83301 -54 11.5 -78s18.834 -45 33.501 -63s32.834 -32.167 54.501 -42.5s46.834 -15.5 75.501 -15.5s53.834 5.16699 75.501 15.5
s40 24.5 55 42.5s26.333 39 34 63s11.5 50 11.5 78zM234 725c14 19.333 29 41.502 45 66.502s28.667 48.167 38 69.5l115 -21c-6 -14 -14.667 -28.167 -26 -42.5s-24 -27.833 -38 -40.5s-28.5 -24.334 -43.5 -35.001s-29.167 -19.334 -42.5 -26.001zM417 725.002
c14 19.333 29 41.502 45 66.502s28.667 48.167 38 69.5l115 -21c-6 -14 -14.667 -28.167 -26 -42.5s-24 -27.833 -38 -40.5s-28.5 -24.334 -43.5 -35.001s-29.167 -19.334 -42.5 -26.001z" />
    <glyph glyph-name="ohungarumlaut" unicode="&#x151;" horiz-adv-x="631" 
d="M599 266c0 -41.333 -6.66699 -79.166 -20 -113.499s-32.333 -63.666 -57 -87.999s-54.5 -43.166 -89.5 -56.499s-74.167 -20 -117.5 -20s-82.5 6.66699 -117.5 20s-64.667 32.166 -89 56.499s-43.166 53.666 -56.499 87.999s-20 72.166 -20 113.499
c0 42 6.66699 80.167 20 114.5s32.166 63.666 56.499 87.999s54 43.333 89 57s74.167 20.5 117.5 20.5s82.5 -6.83301 117.5 -20.5s64.833 -32.667 89.5 -57s43.667 -53.666 57 -87.999s20 -72.5 20 -114.5zM436 267c0 44 -10.167 80.167 -30.5 108.5s-50.5 42.5 -90.5 42.5
c-39.333 0 -69.333 -14.167 -90 -42.5s-31 -64.5 -31 -108.5s10.333 -80.167 31 -108.5s50.667 -42.5 90 -42.5c40 0 70.167 14.167 90.5 42.5s30.5 64.5 30.5 108.5zM176 599c14 19.333 29 41.502 45 66.502s28.667 48.167 38 69.5l115 -21
c-6 -14 -14.667 -28.167 -26 -42.5s-24 -27.833 -38 -40.5s-28.5 -24.334 -43.5 -35.001s-29.167 -19.334 -42.5 -26.001zM359 599.002c14 19.333 29 41.502 45 66.502s28.667 48.167 38 69.5l115 -21c-6 -14 -14.667 -28.167 -26 -42.5s-24 -27.833 -38 -40.5
s-28.5 -24.334 -43.5 -35.001s-29.167 -19.334 -42.5 -26.001z" />
    <glyph glyph-name="OE" unicode="&#x152;" horiz-adv-x="993" 
d="M377 0c-56 0 -105.167 8.49805 -147.5 25.498s-78 40.333 -107 70s-50.833 64.834 -65.5 105.501s-22 84.667 -22 132s7.33301 91.333 22 132s36.5 75.834 65.5 105.501s64.667 53 107 70s91.5 25.5 147.5 25.5h565v-143h-318v-113h273v-127h-273v-141h328v-142h-575z
M200 331.998c0 -58.667 14.833 -105 44.5 -139s73.834 -51 132.501 -51h88v381h-88c-58.667 0 -102.834 -17 -132.501 -51s-44.5 -80.667 -44.5 -140z" />
    <glyph glyph-name="oe" unicode="&#x153;" horiz-adv-x="998" 
d="M967 273c0 -8.66699 -0.333008 -16.999 -1 -24.999s-1.33398 -15 -2.00098 -21h-384c2.66699 -36.667 16.167 -64 40.5 -82s55.833 -27 94.5 -27c30.667 0 58.5 5.66699 83.5 17s46.167 26.666 63.5 45.999l98 -92c-30 -30 -65.333 -54.333 -106 -73s-90 -28 -148 -28
c-46.667 0 -86.5 7.66699 -119.5 23s-60.833 36.333 -83.5 63c-23.333 -26.667 -51.666 -47.667 -84.999 -63s-71.666 -23 -114.999 -23c-42 0 -79.833 7 -113.5 21s-62.167 33.5 -85.5 58.5s-41.333 54.333 -54 88s-19 70.5 -19 110.5s6.33301 77 19 111
s30.667 63.5 54 88.5s51.833 44.667 85.5 59s71.5 21.5 113.5 21.5c43.333 0 81.666 -7.66699 114.999 -23s61.333 -36.333 84 -63c22.667 26.667 50.5 47.667 83.5 63s71.167 23 114.5 23c42 0 79.5 -6.66699 112.5 -20s61 -32 84 -56s40.5 -52.833 52.5 -86.5
s18 -70.5 18 -110.5zM425 267.001c0 44 -9.83301 80.167 -29.5 108.5s-48.5 42.5 -86.5 42.5s-66.833 -14.167 -86.5 -42.5s-29.5 -64.5 -29.5 -108.5s9.83301 -80.167 29.5 -108.5s48.5 -42.5 86.5 -42.5s66.833 14.167 86.5 42.5s29.5 64.5 29.5 108.5zM816 331.001
c-3.33301 34 -15.667 59.333 -37 76s-48 25 -80 25c-34 0 -61.5 -9.16699 -82.5 -27.5s-32.833 -42.833 -35.5 -73.5h235z" />
    <glyph glyph-name="Racute" unicode="&#x154;" horiz-adv-x="679" 
d="M476 0l-120 231h-124v-231h-160v666h313c41.333 0 77.5 -5.16699 108.5 -15.5s57 -25 78 -44s36.833 -41.5 47.5 -67.5s16 -54.333 16 -85c0 -24.667 -3.5 -47.167 -10.5 -67.5s-16.333 -38.5 -28 -54.5s-25 -29.833 -40 -41.5s-30.167 -21.167 -45.5 -28.5l143 -262
h-178zM473 441c0 26.667 -8.83301 47 -26.5 61s-39.167 21 -64.5 21h-150v-165h150c26 0 47.667 7.33301 65 22s26 35 26 61zM261 725c14.667 19.333 30 41.502 46 66.502s28.667 48.167 38 69.5l124 -21c-6 -14 -14.667 -28.167 -26 -42.5s-24 -27.833 -38 -40.5
s-28.5 -24.334 -43.5 -35.001s-29.5 -19.334 -43.5 -26.001z" />
    <glyph glyph-name="racute" unicode="&#x155;" horiz-adv-x="428" 
d="M387 374c-8 4.66699 -16.834 8.50098 -26.501 11.501s-20.834 4.5 -33.501 4.5c-32 0 -58.5 -12 -79.5 -36s-31.5 -56 -31.5 -96v-258h-153v534h153v-80c16.667 27.333 37.334 49.166 62.001 65.499s51.334 24.5 80.001 24.5c13.333 0 26.333 -1.5 39 -4.5
s22.667 -6.83301 30 -11.5zM127.999 599.001c14.667 19.333 30 41.502 46 66.502s28.667 48.167 38 69.5l124 -21c-6 -14 -14.667 -28.167 -26 -42.5s-24 -27.833 -38 -40.5s-28.5 -24.334 -43.5 -35.001s-29.5 -19.334 -43.5 -26.001z" />
    <glyph glyph-name="Rcommaaccent" unicode="&#x156;" horiz-adv-x="678" 
d="M476 0l-120 231h-124v-231h-160v666h313c41.333 0 77.5 -5.16699 108.5 -15.5s57 -25 78 -44s36.833 -41.5 47.5 -67.5s16 -54.333 16 -85c0 -24.667 -3.5 -47.167 -10.5 -67.5s-16.333 -38.5 -28 -54.5s-25 -29.833 -40 -41.5s-30.167 -21.167 -45.5 -28.5l143 -262
h-178zM473 441c0 26.667 -8.83301 47 -26.5 61s-39.167 21 -64.5 21h-150v-165h150c26 0 47.667 7.33301 65 22s26 35 26 61zM219 -172c14 19.333 28.333 40.833 43 64.5s26 46.5 34 68.5l126 -14c-6 -14.667 -14.5 -29.167 -25.5 -43.5s-23.167 -28 -36.5 -41
s-27.333 -24.833 -42 -35.5s-28.667 -19.667 -42 -27z" />
    <glyph glyph-name="rcommaaccent" unicode="&#x157;" horiz-adv-x="428" 
d="M387 374c-8 4.66699 -16.834 8.50098 -26.501 11.501s-20.834 4.5 -33.501 4.5c-32 0 -58.5 -12 -79.5 -36s-31.5 -56 -31.5 -96v-258h-153v534h153v-80c16.667 27.333 37.334 49.166 62.001 65.499s51.334 24.5 80.001 24.5c13.333 0 26.333 -1.5 39 -4.5
s22.667 -6.83301 30 -11.5zM3.99902 -171.999c14 19.333 28.333 40.833 43 64.5s26 46.5 34 68.5l126 -14c-6 -14.667 -14.5 -29.167 -25.5 -43.5s-23.167 -28 -36.5 -41s-27.333 -24.833 -42 -35.5s-28.667 -19.667 -42 -27z" />
    <glyph glyph-name="Rcaron" unicode="&#x158;" horiz-adv-x="679" 
d="M476 0l-120 231h-124v-231h-160v666h313c41.333 0 77.5 -5.16699 108.5 -15.5s57 -25 78 -44s36.833 -41.5 47.5 -67.5s16 -54.333 16 -85c0 -24.667 -3.5 -47.167 -10.5 -67.5s-16.333 -38.5 -28 -54.5s-25 -29.833 -40 -41.5s-30.167 -21.167 -45.5 -28.5l143 -262
h-178zM473 441c0 26.667 -8.83301 47 -26.5 61s-39.167 21 -64.5 21h-150v-165h150c26 0 47.667 7.33301 65 22s26 35 26 61zM280 706c-17.333 15.333 -36.502 31 -57.502 47s-45.167 32.667 -72.5 50l35 56c27.333 -5.33301 54.333 -14.333 81 -27s49.334 -26 68.001 -40
c18.667 14 41.334 27.333 68.001 40s53.667 21.667 81 27l35 -56c-27.333 -17.333 -51.5 -34 -72.5 -50s-40.167 -31.667 -57.5 -47h-108z" />
    <glyph glyph-name="rcaron" unicode="&#x159;" horiz-adv-x="428" 
d="M387 374c-8 4.66699 -16.834 8.50098 -26.501 11.501s-20.834 4.5 -33.501 4.5c-32 0 -58.5 -12 -79.5 -36s-31.5 -56 -31.5 -96v-258h-153v534h153v-80c16.667 27.333 37.334 49.166 62.001 65.499s51.334 24.5 80.001 24.5c13.333 0 26.333 -1.5 39 -4.5
s22.667 -6.83301 30 -11.5zM181.999 580.001c-17.333 15.333 -36.502 31 -57.502 47s-45.167 32.667 -72.5 50l35 56c27.333 -5.33301 54.333 -14.333 81 -27s49.334 -26 68.001 -40c18.667 14 41.334 27.333 68.001 40s53.667 21.667 81 27l35 -56
c-27.333 -17.333 -51.5 -34 -72.5 -50s-40.167 -31.667 -57.5 -47h-108z" />
    <glyph glyph-name="Sacute" unicode="&#x15a;" horiz-adv-x="637" 
d="M311 678c26.667 0 53.165 -2.33594 79.498 -7.00293s51.666 -12.334 75.999 -23.001s47.333 -24.667 69 -42s40.834 -38.333 57.501 -63l-119 -74c-20 28 -44.667 48.333 -74 61s-60 19 -92 19c-28 0 -51 -5.16699 -69 -15.5s-27 -26.166 -27 -47.499
c0 -12 3.66699 -22 11 -30s17.333 -14.5 30 -19.5s27.167 -9.16699 43.5 -12.5s33.5 -6.66602 51.5 -9.99902c34.667 -6 67.667 -13.667 99 -23s58.833 -21.666 82.5 -36.999s42.334 -34.666 56.001 -57.999s20.5 -52.333 20.5 -87c0 -31.333 -6.16699 -60.5 -18.5 -87.5
s-30.5 -50.333 -54.5 -70s-53.333 -35.167 -88 -46.5s-74.334 -17 -119.001 -17c-72.667 0 -135.667 14.667 -189 44s-93.333 70.333 -120 123l125 66c22 -37.333 50 -63.833 84 -79.5s69.667 -23.5 107 -23.5c35.333 0 63.5 6.16699 84.5 18.5s31.5 29.166 31.5 50.499
c0 14 -3.83301 25.333 -11.5 34s-18 15.834 -31 21.501s-28.333 10.334 -46 14.001s-36.5 7.16699 -56.5 10.5c-34 6 -66.167 13.667 -96.5 23s-57 21.666 -80 36.999s-41.167 34.833 -54.5 58.5s-20 53.167 -20 88.5c0 32 6.16699 60.5 18.5 85.5s29.833 46.333 52.5 64
s49.834 31.167 81.501 40.5s66.834 14 105.501 14zM246.998 724.997c14.667 19.333 30 41.502 46 66.502s28.667 48.167 38 69.5l124 -21c-6 -14 -14.667 -28.167 -26 -42.5s-24 -27.833 -38 -40.5s-28.5 -24.334 -43.5 -35.001s-29.5 -19.334 -43.5 -26.001z" />
    <glyph glyph-name="sacute" unicode="&#x15b;" horiz-adv-x="564" 
d="M532 170c0 -56 -21.8311 -100.334 -65.498 -133.001s-103.5 -49 -179.5 -49c-58.667 0 -111.334 10.5 -158.001 31.5s-84 53.833 -112 98.5l104 69c10 -14.667 21.833 -27.167 35.5 -37.5s28.167 -18.666 43.5 -24.999s31.166 -11 47.499 -14s32.5 -4.5 48.5 -4.5
c28 0 49.333 4 64 12s22 18.667 22 32c0 9.33301 -2.83301 17 -8.5 23s-13.667 11 -24 15s-22.5 7.16699 -36.5 9.5s-29 4.5 -45 6.5c-31.333 4 -60.5 9.66699 -87.5 17s-50.333 17.5 -70 30.5s-35 29.5 -46 49.5s-16.5 44.667 -16.5 74c0 28.667 6 53.667 18 75
s28.167 39.166 48.5 53.499s44.166 25 71.499 32s56.333 10.5 87 10.5c30 0 58 -3 84 -9s49.667 -13.667 71 -23s40.166 -20 56.499 -32s30.5 -24.333 42.5 -37l-91 -81c-17.333 17.333 -39.833 32.5 -67.5 45.5s-59.5 19.5 -95.5 19.5
c-21.333 0 -39.666 -3.5 -54.999 -10.5s-23 -16.833 -23 -29.5c0 -8.66699 3 -15.5 9 -20.5s14.333 -9.16699 25 -12.5s23.167 -6.16602 37.5 -8.49902l46.5 -7.5c31.333 -5.33301 60.333 -12 87 -20s49.834 -18.5 69.501 -31.5s35 -29 46 -48s16.5 -42.5 16.5 -70.5z
M216.002 598.999c14 19.333 28.668 41.332 44.001 65.999s27 48 35 70l125 -21c-6 -14 -14.5 -28.167 -25.5 -42.5s-23.333 -27.666 -37 -39.999s-27.834 -23.833 -42.501 -34.5s-28.667 -19.667 -42 -27z" />
    <glyph glyph-name="Scircumflex" unicode="&#x15c;" horiz-adv-x="637" 
d="M311 678c26.667 0 53.165 -2.33594 79.498 -7.00293s51.666 -12.334 75.999 -23.001s47.333 -24.667 69 -42s40.834 -38.333 57.501 -63l-119 -74c-20 28 -44.667 48.333 -74 61s-60 19 -92 19c-28 0 -51 -5.16699 -69 -15.5s-27 -26.166 -27 -47.499
c0 -12 3.66699 -22 11 -30s17.333 -14.5 30 -19.5s27.167 -9.16699 43.5 -12.5s33.5 -6.66602 51.5 -9.99902c34.667 -6 67.667 -13.667 99 -23s58.833 -21.666 82.5 -36.999s42.334 -34.666 56.001 -57.999s20.5 -52.333 20.5 -87c0 -31.333 -6.16699 -60.5 -18.5 -87.5
s-30.5 -50.333 -54.5 -70s-53.333 -35.167 -88 -46.5s-74.334 -17 -119.001 -17c-72.667 0 -135.667 14.667 -189 44s-93.333 70.333 -120 123l125 66c22 -37.333 50 -63.833 84 -79.5s69.667 -23.5 107 -23.5c35.333 0 63.5 6.16699 84.5 18.5s31.5 29.166 31.5 50.499
c0 14 -3.83301 25.333 -11.5 34s-18 15.834 -31 21.501s-28.333 10.334 -46 14.001s-36.5 7.16699 -56.5 10.5c-34 6 -66.167 13.667 -96.5 23s-57 21.666 -80 36.999s-41.167 34.833 -54.5 58.5s-20 53.167 -20 88.5c0 32 6.16699 60.5 18.5 85.5s29.833 46.333 52.5 64
s49.834 31.167 81.501 40.5s66.834 14 105.501 14zM369.998 850.997c17.333 -15.333 36.502 -31 57.502 -47s45.167 -32.667 72.5 -50l-35 -56c-27.333 5.33301 -54.333 14.333 -81 27s-49.334 26 -68.001 40c-18.667 -14 -41.334 -27.333 -68.001 -40
s-53.667 -21.667 -81 -27l-35 56c27.333 17.333 51.5 34 72.5 50s40.167 31.667 57.5 47h108z" />
    <glyph glyph-name="scircumflex" unicode="&#x15d;" horiz-adv-x="564" 
d="M532 170c0 -56 -21.8311 -100.334 -65.498 -133.001s-103.5 -49 -179.5 -49c-58.667 0 -111.334 10.5 -158.001 31.5s-84 53.833 -112 98.5l104 69c10 -14.667 21.833 -27.167 35.5 -37.5s28.167 -18.666 43.5 -24.999s31.166 -11 47.499 -14s32.5 -4.5 48.5 -4.5
c28 0 49.333 4 64 12s22 18.667 22 32c0 9.33301 -2.83301 17 -8.5 23s-13.667 11 -24 15s-22.5 7.16699 -36.5 9.5s-29 4.5 -45 6.5c-31.333 4 -60.5 9.66699 -87.5 17s-50.333 17.5 -70 30.5s-35 29.5 -46 49.5s-16.5 44.667 -16.5 74c0 28.667 6 53.667 18 75
s28.167 39.166 48.5 53.499s44.166 25 71.499 32s56.333 10.5 87 10.5c30 0 58 -3 84 -9s49.667 -13.667 71 -23s40.166 -20 56.499 -32s30.5 -24.333 42.5 -37l-91 -81c-17.333 17.333 -39.833 32.5 -67.5 45.5s-59.5 19.5 -95.5 19.5
c-21.333 0 -39.666 -3.5 -54.999 -10.5s-23 -16.833 -23 -29.5c0 -8.66699 3 -15.5 9 -20.5s14.333 -9.16699 25 -12.5s23.167 -6.16602 37.5 -8.49902l46.5 -7.5c31.333 -5.33301 60.333 -12 87 -20s49.834 -18.5 69.501 -31.5s35 -29 46 -48s16.5 -42.5 16.5 -70.5z
M333.002 724.999c17.333 -15.333 36.502 -31 57.502 -47s45.167 -32.667 72.5 -50l-35 -56c-27.333 5.33301 -54.333 14.333 -81 27s-49.334 26 -68.001 40c-18.667 -14 -41.334 -27.333 -68.001 -40s-53.667 -21.667 -81 -27l-35 56c27.333 17.333 51.5 34 72.5 50
s40.167 31.667 57.5 47h108z" />
    <glyph glyph-name="Scedilla" unicode="&#x15e;" horiz-adv-x="640" 
d="M177 -59c9.33301 -8.66699 20.498 -16.5068 33.498 -23.5068s28.5 -10.5 46.5 -10.5c15.333 0 28 3.33301 38 10s15 16.667 15 30c0 8 -2 15.667 -6 23s-9 14 -15 20c-64 5.33301 -119.167 22.166 -165.5 50.499s-81.5 66.5 -105.5 114.5l125 66
c22 -37.333 50 -63.833 84 -79.5s69.667 -23.5 107 -23.5c35.333 0 63.5 6.16699 84.5 18.5s31.5 29.166 31.5 50.499c0 14 -3.83301 25.333 -11.5 34s-18 15.834 -31 21.501s-28.333 10.334 -46 14.001s-36.5 7.16699 -56.5 10.5c-34 6 -66.167 13.667 -96.5 23
s-57 21.666 -80 36.999s-41.167 34.833 -54.5 58.5s-20 53.167 -20 88.5c0 32 6.16699 60.5 18.5 85.5s29.833 46.333 52.5 64s49.834 31.167 81.501 40.5s66.834 14 105.501 14c26.667 0 53.167 -2.33301 79.5 -7s51.666 -12.334 75.999 -23.001s47.333 -24.667 69 -42
s40.834 -38.333 57.501 -63l-119 -74c-20 28 -44.667 48.333 -74 61s-60 19 -92 19c-28 0 -51 -5.16699 -69 -15.5s-27 -26.166 -27 -47.499c0 -12 3.66699 -22 11 -30s17.333 -14.5 30 -19.5s27.167 -9.16699 43.5 -12.5s33.5 -6.66602 51.5 -9.99902
c34.667 -6 67.667 -13.667 99 -23s58.833 -21.666 82.5 -36.999s42.334 -34.666 56.001 -57.999s20.5 -52.333 20.5 -87c0 -29.333 -5.33301 -56.666 -16 -81.999s-26.167 -47.666 -46.5 -66.999s-45.333 -35.166 -75 -47.499s-63.834 -19.833 -102.501 -22.5
c10.667 -10.667 19 -22.167 25 -34.5s9 -25.166 9 -38.499c0 -14 -3.16699 -26.833 -9.5 -38.5s-15.333 -21.667 -27 -30s-25.5 -15 -41.5 -20s-33.333 -7.5 -52 -7.5c-22 0 -41.333 2.83301 -58 8.5s-28.667 11.834 -36 18.501v93z" />
    <glyph glyph-name="scedilla" unicode="&#x15f;" horiz-adv-x="566" 
d="M142 -59c9.33301 -8.66699 20.502 -16.5029 33.502 -23.5029s28.5 -10.5 46.5 -10.5c15.333 0 28 3.33301 38 10s15 16.667 15 30c0 8 -2 15.5 -6 22.5s-9 13.5 -15 19.5c-50.667 3.33301 -96.5 15.5 -137.5 36.5s-73.833 51.833 -98.5 92.5l104 69
c10 -14.667 21.833 -27.167 35.5 -37.5s28.167 -18.666 43.5 -24.999s31.166 -11 47.499 -14s32.5 -4.5 48.5 -4.5c28 0 49.333 4 64 12s22 18.667 22 32c0 9.33301 -2.83301 17 -8.5 23s-13.667 11 -24 15s-22.5 7.16699 -36.5 9.5s-29 4.5 -45 6.5
c-31.333 4 -60.5 9.66699 -87.5 17s-50.333 17.5 -70 30.5s-35 29.5 -46 49.5s-16.5 44.667 -16.5 74c0 28.667 6 53.667 18 75s28.167 39.166 48.5 53.499s44.166 25 71.499 32s56.333 10.5 87 10.5c30 0 58 -3 84 -9s49.667 -13.667 71 -23s40.166 -20 56.499 -32
s30.5 -24.333 42.5 -37l-91 -81c-17.333 17.333 -39.833 32.5 -67.5 45.5s-59.5 19.5 -95.5 19.5c-21.333 0 -39.666 -3.5 -54.999 -10.5s-23 -16.833 -23 -29.5c0 -8.66699 3 -15.5 9 -20.5s14.333 -9.16699 25 -12.5s23.167 -6.16602 37.5 -8.49902l46.5 -7.5
c31.333 -5.33301 60.333 -12 87 -20s49.834 -18.5 69.501 -31.5s35 -29 46 -48s16.5 -42.5 16.5 -70.5c0 -50 -17.833 -91 -53.5 -123s-84.834 -51 -147.501 -57c10.667 -10.667 19 -22.167 25 -34.5s9 -25.166 9 -38.499c0 -14 -3.16699 -26.833 -9.5 -38.5
s-15.333 -21.667 -27 -30s-25.5 -15 -41.5 -20s-33.333 -7.5 -52 -7.5c-22 0 -41.333 2.83301 -58 8.5s-28.667 11.834 -36 18.501v93z" />
    <glyph glyph-name="Scaron" unicode="&#x160;" horiz-adv-x="637" 
d="M311 678c26.667 0 53.165 -2.33594 79.498 -7.00293s51.666 -12.334 75.999 -23.001s47.333 -24.667 69 -42s40.834 -38.333 57.501 -63l-119 -74c-20 28 -44.667 48.333 -74 61s-60 19 -92 19c-28 0 -51 -5.16699 -69 -15.5s-27 -26.166 -27 -47.499
c0 -12 3.66699 -22 11 -30s17.333 -14.5 30 -19.5s27.167 -9.16699 43.5 -12.5s33.5 -6.66602 51.5 -9.99902c34.667 -6 67.667 -13.667 99 -23s58.833 -21.666 82.5 -36.999s42.334 -34.666 56.001 -57.999s20.5 -52.333 20.5 -87c0 -31.333 -6.16699 -60.5 -18.5 -87.5
s-30.5 -50.333 -54.5 -70s-53.333 -35.167 -88 -46.5s-74.334 -17 -119.001 -17c-72.667 0 -135.667 14.667 -189 44s-93.333 70.333 -120 123l125 66c22 -37.333 50 -63.833 84 -79.5s69.667 -23.5 107 -23.5c35.333 0 63.5 6.16699 84.5 18.5s31.5 29.166 31.5 50.499
c0 14 -3.83301 25.333 -11.5 34s-18 15.834 -31 21.501s-28.333 10.334 -46 14.001s-36.5 7.16699 -56.5 10.5c-34 6 -66.167 13.667 -96.5 23s-57 21.666 -80 36.999s-41.167 34.833 -54.5 58.5s-20 53.167 -20 88.5c0 32 6.16699 60.5 18.5 85.5s29.833 46.333 52.5 64
s49.834 31.167 81.501 40.5s66.834 14 105.501 14zM257.998 707.997c-17.333 15.333 -36.502 31 -57.502 47s-45.167 32.667 -72.5 50l35 56c27.333 -5.33301 54.333 -14.333 81 -27s49.334 -26 68.001 -40c18.667 14 41.334 27.333 68.001 40s53.667 21.667 81 27l35 -56
c-27.333 -17.333 -51.5 -34 -72.5 -50s-40.167 -31.667 -57.5 -47h-108z" />
    <glyph glyph-name="scaron" unicode="&#x161;" horiz-adv-x="564" 
d="M222 580c-17.333 15.333 -36.502 31 -57.502 47s-45.167 32.667 -72.5 50l35 56c27.333 -5.33301 54.333 -14.333 81 -27s49.334 -26 68.001 -40c18.667 14 41.334 27.333 68.001 40s53.667 21.667 81 27l35 -56c-27.333 -17.333 -51.5 -34 -72.5 -50
s-40.167 -31.667 -57.5 -47h-108zM531.998 170c0 -56 -21.8311 -100.334 -65.498 -133.001s-103.5 -49 -179.5 -49c-58.667 0 -111.334 10.5 -158.001 31.5s-84 53.833 -112 98.5l104 69c10 -14.667 21.833 -27.167 35.5 -37.5s28.167 -18.666 43.5 -24.999
s31.166 -11 47.499 -14s32.5 -4.5 48.5 -4.5c28 0 49.333 4 64 12s22 18.667 22 32c0 9.33301 -2.83301 17 -8.5 23s-13.667 11 -24 15s-22.5 7.16699 -36.5 9.5s-29 4.5 -45 6.5c-31.333 4 -60.5 9.66699 -87.5 17s-50.333 17.5 -70 30.5s-35 29.5 -46 49.5
s-16.5 44.667 -16.5 74c0 28.667 6 53.667 18 75s28.167 39.166 48.5 53.499s44.166 25 71.499 32s56.333 10.5 87 10.5c30 0 58 -3 84 -9s49.667 -13.667 71 -23s40.166 -20 56.499 -32s30.5 -24.333 42.5 -37l-91 -81c-17.333 17.333 -39.833 32.5 -67.5 45.5
s-59.5 19.5 -95.5 19.5c-21.333 0 -39.666 -3.5 -54.999 -10.5s-23 -16.833 -23 -29.5c0 -8.66699 3 -15.5 9 -20.5s14.333 -9.16699 25 -12.5s23.167 -6.16602 37.5 -8.49902l46.5 -7.5c31.333 -5.33301 60.333 -12 87 -20s49.834 -18.5 69.501 -31.5s35 -29 46 -48
s16.5 -42.5 16.5 -70.5z" />
    <glyph glyph-name="Tcedilla" unicode="&#x162;" horiz-adv-x="629" 
d="M196 -59c9.33301 -8.66699 20.5 -16.501 33.5 -23.501s28.167 -10.5 45.5 -10.5c16 0 29 3.33301 39 10s15 16 15 28c0 16.667 -8.83301 30 -26.5 40s-40.5 15 -68.5 15v523h-206v143h573v-143h-207v-523c7.33301 -10 13.5 -22.5 18.5 -37.5s7.5 -29.167 7.5 -42.5
c0 -30 -12.167 -54 -36.5 -72s-55.5 -27 -93.5 -27c-22 0 -41.333 2.83301 -58 8.5s-28.667 11.834 -36 18.501v93z" />
    <glyph glyph-name="tcedilla" unicode="&#x163;" horiz-adv-x="447" 
d="M106 -59c9.33301 -8.66699 20.5 -16.502 33.5 -23.502s28.167 -10.5 45.5 -10.5c16 0 29 3.5 39 10.5s15 18.167 15 33.5c0 8 -1.33301 15 -4 21s-6 11 -10 15s-8.33301 7.33301 -13 10l-12 7c-15.333 7.33301 -27.5 14.666 -36.5 21.999s-17.833 17 -26.5 29
c-11.333 16 -19.333 33.667 -24 53s-7 42.666 -7 69.999v240h-100v116h100v180h154v-180h152v-116h-152v-241c0 -20.667 5 -35.167 15 -43.5s23.333 -12.5 40 -12.5c13.333 0 25.5 2.33301 36.5 7s20.5 10.334 28.5 17.001l57 -110
c-17.333 -13.333 -37.5 -24.166 -60.5 -32.499s-49.167 -13.166 -78.5 -14.499c21.333 -21.333 32 -45 32 -71c0 -14 -3.16699 -26.833 -9.5 -38.5s-15.333 -21.667 -27 -30s-25.5 -15 -41.5 -20s-33.333 -7.5 -52 -7.5c-22 0 -41.333 2.83301 -58 8.5
s-28.667 11.834 -36 18.501v93z" />
    <glyph glyph-name="Tcaron" unicode="&#x164;" horiz-adv-x="629" 
d="M394 523v-523h-160v523h-206v143h573v-143h-207zM260 706c-17.333 15.333 -36.502 31 -57.502 47s-45.167 32.667 -72.5 50l35 56c27.333 -5.33301 54.333 -14.333 81 -27s49.334 -26 68.001 -40c18.667 14 41.334 27.333 68.001 40s53.667 21.667 81 27l35 -56
c-27.333 -17.333 -51.5 -34 -72.5 -50s-40.167 -31.667 -57.5 -47h-108z" />
    <glyph glyph-name="tcaron" unicode="&#x165;" horiz-adv-x="447" 
d="M437 35c-18.667 -14 -40 -25.333 -64 -34s-52 -13 -84 -13c-34 0 -64 5.33301 -90 16s-46.667 27.667 -62 51c-11.333 16 -19.333 33.667 -24 53s-7 42.666 -7 69.999v240h-100v116h100v180h154v-180h152v-116h-152v-241c0 -20.667 5 -35.167 15 -43.5
s23.333 -12.5 40 -12.5c13.333 0 25.5 2.33301 36.5 7s20.5 10.334 28.5 17.001zM429.358 707.404c0 -30.124 -6.56934 -56.4814 -19.7061 -79.0742c-13.1377 -22.5928 -34.7539 -44.7422 -64.8486 -66.4482l-32.9609 37.876
c11.9424 9.74512 21.9736 20.377 30.0938 31.8955c8.12109 11.5176 12.1816 24.5859 12.1816 39.2051c0 7.53027 -1.19434 13.9531 -3.58301 19.2686c-2.3877 5.31641 -5.01465 10.7432 -7.88086 16.2803c-2.86621 5.53809 -5.49316 11.6289 -7.88086 18.2734
c-2.38867 6.64551 -3.58301 14.8408 -3.58301 24.5859v15.2832h98.168v-57.1455z" />
    <glyph glyph-name="Tbar" unicode="&#x166;" horiz-adv-x="629" 
d="M394 264v-264h-160v264h-99v81h99v178h-206v143h573v-143h-207v-178h99v-81h-99z" />
    <glyph glyph-name="tbar" unicode="&#x167;" horiz-adv-x="449" 
d="M439 35c-18.667 -14 -40 -25.333 -64 -34s-52 -13 -84 -13c-34 0 -64 5.33301 -90 16s-46.667 27.667 -62 51c-11.333 16 -19.333 33.667 -24 53s-7 42.666 -7 69.999v71h-84v81h84v88h-100v116h100v180h154v-180h152v-116h-152v-88h98v-81h-98v-72
c0 -20.667 5 -35.167 15 -43.5s23.333 -12.5 40 -12.5c13.333 0 25.5 2.33301 36.5 7s20.5 10.334 28.5 17.001z" />
    <glyph glyph-name="Utilde" unicode="&#x168;" horiz-adv-x="713" 
d="M648 258c0 -43.333 -6.99902 -81.833 -20.999 -115.5s-33.833 -62 -59.5 -85s-56.334 -40.333 -92.001 -52s-75.167 -17.5 -118.5 -17.5c-44 0 -84 5.83301 -120 17.5s-66.667 29 -92 52s-45 51.333 -59 85s-21 72.167 -21 115.5v408h160v-408
c0 -40.667 11 -71.667 33 -93s55 -32 99 -32c42 0 74.5 10.667 97.5 32s34.5 52.333 34.5 93v408h159v-408zM550.001 810c-11.333 -27.333 -27.832 -50.666 -49.499 -69.999s-47.167 -29 -76.5 -29c-14 0 -26.833 2 -38.5 6s-22.834 8.5 -33.501 13.5s-21 9.5 -31 13.5
s-20 6 -30 6c-13.333 0 -26.5 -3.66699 -39.5 -11s-24.5 -17.666 -34.5 -30.999l-54 37c11.333 27.333 27.666 50.666 48.999 69.999s47 29 77 29c13.333 0 25.833 -2 37.5 -6s22.834 -8.5 33.501 -13.5s21.167 -9.5 31.5 -13.5s20.5 -6 30.5 -6
c12.667 0 25.5 3.66699 38.5 11s24.833 17.666 35.5 30.999z" />
    <glyph glyph-name="utilde" unicode="&#x169;" horiz-adv-x="614" 
d="M551 534v-533.999h-153v60c-21.333 -22.667 -45.5 -40.334 -72.5 -53.001s-56.167 -19 -87.5 -19c-30 0 -56.333 5 -79 15s-41.5 23.5 -56.5 40.5s-26.167 37.167 -33.5 60.5s-11 48.666 -11 75.999v354h153v-319c0 -11.333 1.16699 -22.5 3.5 -33.5
s6.5 -20.667 12.5 -29s14.333 -15.166 25 -20.499s24.667 -8 42 -8c28.667 0 53.167 9 73.5 27s30.5 44.333 30.5 79v304h153zM502 684.001c-11.333 -27.333 -27.832 -50.666 -49.499 -69.999s-47.167 -29 -76.5 -29c-14 0 -26.833 2 -38.5 6s-22.834 8.5 -33.501 13.5
s-21 9.5 -31 13.5s-20 6 -30 6c-13.333 0 -26.5 -3.66699 -39.5 -11s-24.5 -17.666 -34.5 -30.999l-54 37c11.333 27.333 27.666 50.666 48.999 69.999s47 29 77 29c13.333 0 25.833 -2 37.5 -6s22.834 -8.5 33.501 -13.5s21.167 -9.5 31.5 -13.5s20.5 -6 30.5 -6
c12.667 0 25.5 3.66699 38.5 11s24.833 17.666 35.5 30.999z" />
    <glyph glyph-name="Umacron" unicode="&#x16a;" horiz-adv-x="713" 
d="M648 258c0 -43.333 -6.99902 -81.833 -20.999 -115.5s-33.833 -62 -59.5 -85s-56.334 -40.333 -92.001 -52s-75.167 -17.5 -118.5 -17.5c-44 0 -84 5.83301 -120 17.5s-66.667 29 -92 52s-45 51.333 -59 85s-21 72.167 -21 115.5v408h160v-408
c0 -40.667 11 -71.667 33 -93s55 -32 99 -32c42 0 74.5 10.667 97.5 32s34.5 52.333 34.5 93v408h159v-408zM191.001 720v83h332v-83h-332z" />
    <glyph glyph-name="umacron" unicode="&#x16b;" horiz-adv-x="614" 
d="M551 534v-533.999h-153v60c-21.333 -22.667 -45.5 -40.334 -72.5 -53.001s-56.167 -19 -87.5 -19c-30 0 -56.333 5 -79 15s-41.5 23.5 -56.5 40.5s-26.167 37.167 -33.5 60.5s-11 48.666 -11 75.999v354h153v-319c0 -11.333 1.16699 -22.5 3.5 -33.5
s6.5 -20.667 12.5 -29s14.333 -15.166 25 -20.499s24.667 -8 42 -8c28.667 0 53.167 9 73.5 27s30.5 44.333 30.5 79v304h153zM142 593.001v83h332v-83h-332z" />
    <glyph glyph-name="Ubreve" unicode="&#x16c;" horiz-adv-x="713" 
d="M648 258c0 -43.333 -6.99902 -81.833 -20.999 -115.5s-33.833 -62 -59.5 -85s-56.334 -40.333 -92.001 -52s-75.167 -17.5 -118.5 -17.5c-44 0 -84 5.83301 -120 17.5s-66.667 29 -92 52s-45 51.333 -59 85s-21 72.167 -21 115.5v408h160v-408
c0 -40.667 11 -71.667 33 -93s55 -32 99 -32c42 0 74.5 10.667 97.5 32s34.5 52.333 34.5 93v408h159v-408zM357.001 705c-52 0 -92.833 12.002 -122.5 36.002s-48.167 53.333 -55.5 88l72 21c8.66699 -18.667 21.5 -32.834 38.5 -42.501s39.5 -14.834 67.5 -15.501
c28 0 50.667 5 68 15s30 24.333 38 43l72 -21c-7.33301 -34.667 -25.833 -64 -55.5 -88s-70.5 -36 -122.5 -36z" />
    <glyph glyph-name="ubreve" unicode="&#x16d;" horiz-adv-x="614" 
d="M551 534v-533.999h-153v60c-21.333 -22.667 -45.5 -40.334 -72.5 -53.001s-56.167 -19 -87.5 -19c-30 0 -56.333 5 -79 15s-41.5 23.5 -56.5 40.5s-26.167 37.167 -33.5 60.5s-11 48.666 -11 75.999v354h153v-319c0 -11.333 1.16699 -22.5 3.5 -33.5
s6.5 -20.667 12.5 -29s14.333 -15.166 25 -20.499s24.667 -8 42 -8c28.667 0 53.167 9 73.5 27s30.5 44.333 30.5 79v304h153zM305 579.001c-52 0 -92.833 12.002 -122.5 36.002s-48.167 53.333 -55.5 88l72 21c8.66699 -18.667 21.5 -32.834 38.5 -42.501
s39.5 -14.834 67.5 -15.501c28 0 50.667 5 68 15s30 24.333 38 43l72 -21c-7.33301 -34.667 -25.833 -64 -55.5 -88s-70.5 -36 -122.5 -36z" />
    <glyph glyph-name="Uring" unicode="&#x16e;" horiz-adv-x="713" 
d="M648 258c0 -43.333 -6.99902 -81.833 -20.999 -115.5s-33.833 -62 -59.5 -85s-56.334 -40.333 -92.001 -52s-75.167 -17.5 -118.5 -17.5c-44 0 -84 5.83301 -120 17.5s-66.667 29 -92 52s-45 51.333 -59 85s-21 72.167 -21 115.5v408h160v-408
c0 -40.667 11 -71.667 33 -93s55 -32 99 -32c42 0 74.5 10.667 97.5 32s34.5 52.333 34.5 93v408h159v-408zM480.001 774c0 -14.667 -3 -28.5 -9 -41.5s-14.5 -24.333 -25.5 -34s-24.167 -17.334 -39.5 -23.001s-32 -8.5 -50 -8.5s-34.667 2.83301 -50 8.5
s-28.5 13.334 -39.5 23.001s-19.5 21 -25.5 34s-9 26.833 -9 41.5s3 28.5 9 41.5s14.5 24.5 25.5 34.5s24.167 17.833 39.5 23.5s32 8.5 50 8.5s34.667 -2.83301 50 -8.5s28.5 -13.5 39.5 -23.5s19.5 -21.5 25.5 -34.5s9 -26.833 9 -41.5zM407.001 773c0 14 -5 26 -15 36
s-22 15 -36 15c-13.333 0 -25 -5 -35 -15s-15 -22 -15 -36c0 -13.333 5 -25 15 -35s21.667 -15 35 -15c14 0 26 5 36 15s15 21.667 15 35z" />
    <glyph glyph-name="uring" unicode="&#x16f;" horiz-adv-x="614" 
d="M551 534v-533.999h-153v60c-21.333 -22.667 -45.5 -40.334 -72.5 -53.001s-56.167 -19 -87.5 -19c-30 0 -56.333 5 -79 15s-41.5 23.5 -56.5 40.5s-26.167 37.167 -33.5 60.5s-11 48.666 -11 75.999v354h153v-319c0 -11.333 1.16699 -22.5 3.5 -33.5
s6.5 -20.667 12.5 -29s14.333 -15.166 25 -20.499s24.667 -8 42 -8c28.667 0 53.167 9 73.5 27s30.5 44.333 30.5 79v304h153zM429 674.001c0 -14.667 -3 -28.5 -9 -41.5s-14.5 -24.333 -25.5 -34s-24.167 -17.334 -39.5 -23.001s-32 -8.5 -50 -8.5s-34.667 2.83301 -50 8.5
s-28.5 13.334 -39.5 23.001s-19.5 21 -25.5 34s-9 26.833 -9 41.5s3 28.5 9 41.5s14.5 24.5 25.5 34.5s24.167 17.833 39.5 23.5s32 8.5 50 8.5s34.667 -2.83301 50 -8.5s28.5 -13.5 39.5 -23.5s19.5 -21.5 25.5 -34.5s9 -26.833 9 -41.5zM356 673.001c0 14 -5 26 -15 36
s-22 15 -36 15c-13.333 0 -25 -5 -35 -15s-15 -22 -15 -36c0 -13.333 5 -25 15 -35s21.667 -15 35 -15c14 0 26 5 36 15s15 21.667 15 35z" />
    <glyph glyph-name="Uhungarumlaut" unicode="&#x170;" horiz-adv-x="713" 
d="M648 258c0 -43.333 -6.99902 -81.833 -20.999 -115.5s-33.833 -62 -59.5 -85s-56.334 -40.333 -92.001 -52s-75.167 -17.5 -118.5 -17.5c-44 0 -84 5.83301 -120 17.5s-66.667 29 -92 52s-45 51.333 -59 85s-21 72.167 -21 115.5v408h160v-408
c0 -40.667 11 -71.667 33 -93s55 -32 99 -32c42 0 74.5 10.667 97.5 32s34.5 52.333 34.5 93v408h159v-408zM203.001 725c14 19.333 29 41.502 45 66.502s28.667 48.167 38 69.5l115 -21c-6 -14 -14.667 -28.167 -26 -42.5s-24 -27.833 -38 -40.5
s-28.5 -24.334 -43.5 -35.001s-29.167 -19.334 -42.5 -26.001zM386.001 725.002c14 19.333 29 41.502 45 66.502s28.667 48.167 38 69.5l115 -21c-6 -14 -14.667 -28.167 -26 -42.5s-24 -27.833 -38 -40.5s-28.5 -24.334 -43.5 -35.001s-29.167 -19.334 -42.5 -26.001z" />
    <glyph glyph-name="uhungarumlaut" unicode="&#x171;" horiz-adv-x="614" 
d="M551 534v-533.999h-153v60c-21.333 -22.667 -45.5 -40.334 -72.5 -53.001s-56.167 -19 -87.5 -19c-30 0 -56.333 5 -79 15s-41.5 23.5 -56.5 40.5s-26.167 37.167 -33.5 60.5s-11 48.666 -11 75.999v354h153v-319c0 -11.333 1.16699 -22.5 3.5 -33.5
s6.5 -20.667 12.5 -29s14.333 -15.166 25 -20.499s24.667 -8 42 -8c28.667 0 53.167 9 73.5 27s30.5 44.333 30.5 79v304h153zM162 599.001c14 19.333 29 41.502 45 66.502s28.667 48.167 38 69.5l115 -21c-6 -14 -14.667 -28.167 -26 -42.5s-24 -27.833 -38 -40.5
s-28.5 -24.334 -43.5 -35.001s-29.167 -19.334 -42.5 -26.001zM345 599.003c14 19.333 29 41.502 45 66.502s28.667 48.167 38 69.5l115 -21c-6 -14 -14.667 -28.167 -26 -42.5s-24 -27.833 -38 -40.5s-28.5 -24.334 -43.5 -35.001s-29.167 -19.334 -42.5 -26.001z" />
    <glyph glyph-name="Uogonek" unicode="&#x172;" horiz-adv-x="714" 
d="M648 258c0 -37.333 -4.00098 -68.6631 -12.001 -93.9961s-18.667 -46.833 -32 -64.5s-28.666 -32.834 -45.999 -45.501s-35.333 -24.667 -54 -36c-14.667 -9.33301 -27.334 -18.833 -38.001 -28.5s-16 -22.167 -16 -37.5c0 -14.667 5 -25.334 15 -32.001s23 -10 39 -10
c18.667 0 34.334 3.66699 47.001 11s23.667 15.666 33 24.999v-95c-7.33301 -6.66699 -19.333 -13.167 -36 -19.5s-36.667 -9.5 -60 -9.5c-38 0 -69 8.83301 -93 26.5s-36 40.5 -36 68.5c0 15.333 3.5 29.166 10.5 41.499s16.5 23.166 28.5 32.499
c-7.33301 -1.33301 -14 -2.16602 -20 -2.49902s-13.667 -0.5 -23 -0.5c-43.333 0 -82.833 5.83301 -118.5 17.5s-66.167 29 -91.5 52s-45 51.333 -59 85s-21 72.167 -21 115.5v408h160v-408c0 -40.667 11 -71.667 33 -93s54.667 -32 98 -32c42.667 0 75.5 10.667 98.5 32
s34.5 52.333 34.5 93v408h159v-408z" />
    <glyph glyph-name="uogonek" unicode="&#x173;" horiz-adv-x="614" 
d="M398 60c-21.333 -22.667 -45.502 -40.334 -72.502 -53.001s-56.167 -19 -87.5 -19s-58.166 5.16699 -80.499 15.5s-41 24.333 -56 42s-26 38 -33 61s-10.5 47.5 -10.5 73.5v354h153v-317c0 -12.667 1.33301 -24.667 4 -36s7.16699 -21.166 13.5 -29.499
s14.833 -15 25.5 -20s24 -7.5 40 -7.5c28.667 0 53.167 9 73.5 27s30.5 44.333 30.5 79v304h153v-534c-38 -1.33301 -66.167 -7.16602 -84.5 -17.499s-27.5 -22.5 -27.5 -36.5c0 -11.333 5 -20.166 15 -26.499s23 -9.5 39 -9.5c13.333 0 25.5 2.16699 36.5 6.5
s19.5 9.16602 25.5 14.499v-90c-7.33301 -5.33301 -17.666 -9.83301 -30.999 -13.5s-28 -5.5 -44 -5.5c-40 0 -71.833 9 -95.5 27s-35.5 41 -35.5 69c0 19.333 4.83301 36.166 14.5 50.499s21.167 24.833 34.5 31.5v60z" />
    <glyph glyph-name="Wcircumflex" unicode="&#x174;" horiz-adv-x="967" 
d="M767 0h-173l-112 420l-113 -420h-174l-177 666h173l99 -443l122 443h143l122 -444l99 444h176zM540 851c17.333 -15.333 36.502 -31 57.502 -47s45.167 -32.667 72.5 -50l-35 -56c-27.333 5.33301 -54.333 14.333 -81 27s-49.334 26 -68.001 40
c-18.667 -14 -41.334 -27.333 -68.001 -40s-53.667 -21.667 -81 -27l-35 56c27.333 17.333 51.5 34 72.5 50s40.167 31.667 57.5 47h108z" />
    <glyph glyph-name="wcircumflex" unicode="&#x175;" horiz-adv-x="829" 
d="M664 0h-155l-94 335l-96 -335h-155l-147 534h167l72 -336l97 336h126l96 -336l72 336h166zM470 725c17.333 -15.333 36.502 -31 57.502 -47s45.167 -32.667 72.5 -50l-35 -56c-27.333 5.33301 -54.333 14.333 -81 27s-49.334 26 -68.001 40
c-18.667 -14 -41.334 -27.333 -68.001 -40s-53.667 -21.667 -81 -27l-35 56c27.333 17.333 51.5 34 72.5 50s40.167 31.667 57.5 47h108z" />
    <glyph glyph-name="Ycircumflex" unicode="&#x176;" horiz-adv-x="669" 
d="M414 256v-256h-159v254l-257 412h186l151 -265l152 265h185zM387 851c17.333 -15.333 36.502 -31 57.502 -47s45.167 -32.667 72.5 -50l-35 -56c-27.333 5.33301 -54.333 14.333 -81 27s-49.334 26 -68.001 40c-18.667 -14 -41.334 -27.333 -68.001 -40
s-53.667 -21.667 -81 -27l-35 56c27.333 17.333 51.5 34 72.5 50s40.167 31.667 57.5 47h108z" />
    <glyph glyph-name="ycircumflex" unicode="&#x177;" horiz-adv-x="615" 
d="M399 105c-21.333 -23.333 -45.5 -41.1689 -72.5 -53.502s-56.167 -18.5 -87.5 -18.5c-30 0 -56.333 5 -79 15s-41.5 23.5 -56.5 40.5s-26.167 37.167 -33.5 60.5s-11 48.666 -11 75.999v309h153v-274c0 -11.333 1.16699 -22.5 3.5 -33.5s6.5 -20.667 12.5 -29
s14.333 -15.166 25 -20.499s24.667 -8 42 -8c28.667 0 53.167 9 73.5 27s30.5 44 30.5 78v260h153v-447c0 -37.333 -4.5 -73.166 -13.5 -107.499s-26.5 -64.166 -52.5 -89.499c-50.667 -49.333 -124.334 -74 -221.001 -74c-40 0 -78.5 4.83301 -115.5 14.5
s-69.833 23.834 -98.5 42.501l56 113c23.333 -14.667 48.333 -25.334 75 -32.001s53.334 -10 80.001 -10c42 0 75.333 8.66699 100 26s37 44 37 80v55zM359 724.997c17.333 -15.333 36.502 -31 57.502 -47s45.167 -32.667 72.5 -50l-35 -56
c-27.333 5.33301 -54.333 14.333 -81 27s-49.334 26 -68.001 40c-18.667 -14 -41.334 -27.333 -68.001 -40s-53.667 -21.667 -81 -27l-35 56c27.333 17.333 51.5 34 72.5 50s40.167 31.667 57.5 47h108z" />
    <glyph glyph-name="Ydieresis" unicode="&#x178;" horiz-adv-x="669" 
d="M414 256v-256h-159v254l-257 412h186l151 -265l152 265h185zM164 714v114h112v-114h-112zM391 714v114h111v-114h-111z" />
    <glyph glyph-name="Zacute" unicode="&#x179;" horiz-adv-x="638" 
d="M37 0v123l331 400h-317v143h539v-116l-335 -408h344v-142h-562zM244 725c14.667 19.333 30 41.502 46 66.502s28.667 48.167 38 69.5l124 -21c-6 -14 -14.667 -28.167 -26 -42.5s-24 -27.833 -38 -40.5s-28.5 -24.334 -43.5 -35.001s-29.5 -19.334 -43.5 -26.001z" />
    <glyph glyph-name="zacute" unicode="&#x17a;" horiz-adv-x="543" 
d="M36 0v110l244 292h-232v132h449v-104l-249 -298h257v-132h-469zM204 599c14 19.333 28.668 41.332 44.001 65.999s27 48 35 70l125 -21c-6 -14 -14.5 -28.167 -25.5 -42.5s-23.333 -27.666 -37 -39.999s-27.834 -23.833 -42.501 -34.5s-28.667 -19.667 -42 -27z" />
    <glyph glyph-name="Zdotaccent" unicode="&#x17b;" horiz-adv-x="638" 
d="M37 0v123l331 400h-317v143h539v-116l-335 -408h344v-142h-562zM256 718v110h120v-110h-120z" />
    <glyph glyph-name="zdotaccent" unicode="&#x17c;" horiz-adv-x="543" 
d="M36 0v110l244 292h-232v132h449v-104l-249 -298h257v-132h-469zM208 592v110h120v-110h-120z" />
    <glyph glyph-name="Zcaron" unicode="&#x17d;" horiz-adv-x="638" 
d="M37 0v123l331 400h-317v143h539v-116l-335 -408h344v-142h-562zM256 706c-17.333 15.333 -36.502 31 -57.502 47s-45.167 32.667 -72.5 50l35 56c27.333 -5.33301 54.333 -14.333 81 -27s49.334 -26 68.001 -40c18.667 14 41.334 27.333 68.001 40s53.667 21.667 81 27
l35 -56c-27.333 -17.333 -51.5 -34 -72.5 -50s-40.167 -31.667 -57.5 -47h-108z" />
    <glyph glyph-name="zcaron" unicode="&#x17e;" horiz-adv-x="543" 
d="M36 0v110l244 292h-232v132h449v-104l-249 -298h257v-132h-469zM212 580c-17.333 15.333 -36.502 31 -57.502 47s-45.167 32.667 -72.5 50l35 56c27.333 -5.33301 54.333 -14.333 81 -27s49.334 -26 68.001 -40c18.667 14 41.334 27.333 68.001 40s53.667 21.667 81 27
l35 -56c-27.333 -17.333 -51.5 -34 -72.5 -50s-40.167 -31.667 -57.5 -47h-108z" />
    <glyph glyph-name="florin" unicode="&#x192;" 
d="M550 531c-10.667 6 -20.167 10.5 -28.5 13.5s-18.833 4.5 -31.5 4.5c-39.333 0 -62 -19.333 -68 -58l-11 -64h124l-22 -119h-124l-42 -240c-4.66699 -26.667 -11.834 -51.334 -21.501 -74.001s-22.834 -42.167 -39.501 -58.5s-36.667 -29 -60 -38s-51 -13.5 -83 -13.5
c-27.333 0 -50.833 2.66699 -70.5 8s-37.5 12.333 -53.5 21l51 118c10.667 -6 20.334 -10.5 29.001 -13.5s19.334 -4.5 32.001 -4.5c19.333 0 34.5 5.16699 45.5 15.5s18.167 24.833 21.5 43.5l41 236h-106l21 119h107l11 68c4.66699 26.667 12 51.334 22 74.001
s23.167 42.167 39.5 58.5s36.333 29 60 38s51.5 13.5 83.5 13.5c26.667 0 50 -2.83301 70 -8.5s37.667 -12.5 53 -20.5z" />
    <glyph glyph-name="Aringacute" unicode="&#x1fa;" horiz-adv-x="680" 
d="M194 699c0 17.333 3.83301 33.666 11.5 48.999s18.167 28.666 31.5 39.999s28.833 20.333 46.5 27s36.5 10 56.5 10s39 -3.33301 57 -10s33.5 -15.667 46.5 -27s23.333 -24.666 31 -39.999s11.5 -31.666 11.5 -48.999c0 -15.333 -3 -29.666 -9 -42.999
s-14.333 -25 -25 -35l230 -621h-178l-46 142h-240l-46 -142h-174l231 621c-10.667 10 -19.167 21.667 -25.5 35s-9.5 27.666 -9.5 42.999zM338 533l-84 -263h167zM394 698c0 15.333 -5 28.333 -15 39s-22.667 16 -38 16s-28.333 -5.33301 -39 -16s-16 -23.667 -16 -39
s5.33301 -28 16 -38s23.667 -15 39 -15s28 5 38 15s15 22.667 15 38zM250 863c14.667 19.333 30 41.502 46 66.502s28.667 48.167 38 69.5l124 -21c-6 -14 -14.667 -28.167 -26 -42.5s-24 -27.833 -38 -40.5s-28.5 -24.334 -43.5 -35.001s-29.5 -19.334 -43.5 -26.001z" />
    <glyph glyph-name="aringacute" unicode="&#x1fb;" horiz-adv-x="679" 
d="M439 671c0 -14.667 -3 -28.5 -9 -41.5s-14.5 -24.333 -25.5 -34s-24.167 -17.334 -39.5 -23.001s-32 -8.5 -50 -8.5s-34.667 2.83301 -50 8.5s-28.5 13.334 -39.5 23.001s-19.5 21 -25.5 34s-9 26.833 -9 41.5s3 28.5 9 41.5s14.5 24.5 25.5 34.5
s24.167 17.833 39.5 23.5s32 8.5 50 8.5s34.667 -2.83301 50 -8.5s28.5 -13.5 39.5 -23.5s19.5 -21.5 25.5 -34.5s9 -26.833 9 -41.5zM366 670c0 14 -5 26 -15 36s-22 15 -36 15c-13.333 0 -25 -5 -35 -15s-15 -22 -15 -36c0 -13.333 5 -25 15 -35s21.667 -15 35 -15
c14 0 26 5 36 15s15 21.667 15 35zM218 821c14.667 19.333 30 41.502 46 66.502s28.667 48.167 38 69.5l124 -21c-6 -14 -14.667 -28.167 -26 -42.5s-24 -27.833 -38 -40.5s-28.5 -24.334 -43.5 -35.001s-29.5 -19.334 -43.5 -26.001zM593 132.002
c0 -12 2.16797 -20.499 6.50098 -25.499s11.166 -7.5 20.499 -7.5c12.667 0 21.667 2.33301 27 7l16 -96c-10.667 -6.66699 -24 -11.334 -40 -14.001s-30 -4 -42 -4c-26 0 -50.833 5 -74.5 15s-41.834 29.667 -54.501 59c-21.333 -28 -46.5 -48 -75.5 -60
s-61.5 -18 -97.5 -18c-39.333 0 -74.166 7.16699 -104.499 21.5s-56 34 -77 59s-37 54.5 -48 88.5s-16.5 70.667 -16.5 110c0 40 5.66699 77 17 111s27.5 63.5 48.5 88.5s46.5 44.5 76.5 58.5s63.667 21 101 21c66 0 120.333 -24.333 163 -73v61h154v-402zM439.001 266.003
c0 20 -2.66992 38.999 -8.00293 56.999s-13.166 33.833 -23.499 47.5s-23.166 24.334 -38.499 32.001s-33.333 11.5 -54 11.5s-38.5 -4 -53.5 -12s-27.5 -18.667 -37.5 -32s-17.5 -29 -22.5 -47s-7.5 -37 -7.5 -57s2.5 -38.833 7.5 -56.5s12.5 -33.167 22.5 -46.5
s22.5 -23.833 37.5 -31.5s32.833 -11.5 53.5 -11.5s38.834 3.83301 54.501 11.5s28.667 18.167 39 31.5s18 28.833 23 46.5s7.5 36.5 7.5 56.5z" />
    <glyph glyph-name="AEacute" unicode="&#x1fc;" horiz-adv-x="970" 
d="M451 0v142h-215l-69 -142h-174l337 666h589v-143h-309v-113h264v-127h-264v-141h319v-142h-478zM451 540h-31l-124 -270h155v270zM420 725c14.667 19.333 30 41.502 46 66.502s28.667 48.167 38 69.5l124 -21c-6 -14 -14.667 -28.167 -26 -42.5s-24 -27.833 -38 -40.5
s-28.5 -24.334 -43.5 -35.001s-29.5 -19.334 -43.5 -26.001z" />
    <glyph glyph-name="aeacute" unicode="&#x1fd;" horiz-adv-x="1009" 
d="M454 599c14.667 19.333 30 41.502 46 66.502s28.667 48.167 38 69.5l124 -21c-6 -14 -14.667 -28.167 -26 -42.5s-24 -27.833 -38 -40.5s-28.5 -24.334 -43.5 -35.001s-29.5 -19.334 -43.5 -26.001zM438 266.002c0 20 -2.66992 38.999 -8.00293 56.999
s-13.166 33.833 -23.499 47.5s-23.166 24.334 -38.499 32.001s-33.333 11.5 -54 11.5s-38.5 -4 -53.5 -12s-27.5 -18.667 -37.5 -32s-17.5 -29 -22.5 -47s-7.5 -37 -7.5 -57s2.5 -38.833 7.5 -56.5s12.5 -33.167 22.5 -46.5s22.5 -23.833 37.5 -31.5
s32.833 -11.5 53.5 -11.5s38.834 3.83301 54.501 11.5s28.667 18.167 39 31.5s18 28.833 23 46.5s7.5 36.5 7.5 56.5zM740.997 546.001c36.667 0 69.4971 -6.66504 98.4971 -19.998s53.833 -32.166 74.5 -56.499s36.5 -53.5 47.5 -87.5s16.5 -71.333 16.5 -112
c0 -6.66699 -0.166992 -13.667 -0.5 -21s-0.833008 -14 -1.5 -20h-384c2 -36.667 15.167 -64.667 39.5 -84s55.833 -29 94.5 -29c30.667 0 58.167 5.66699 82.5 17s45.166 26.666 62.499 45.999l100 -90c-29.333 -30 -64.333 -54.333 -105 -73s-90 -28 -148 -28
c-49.333 0 -91.666 7.66699 -126.999 23s-64.333 37 -87 65c-22.667 -27.333 -51 -48.833 -85 -64.5s-72.667 -23.5 -116 -23.5c-42.667 0 -80.667 6.83301 -114 20.5s-61.666 32.667 -84.999 57s-41.166 53.666 -53.499 87.999s-18.5 72.166 -18.5 113.499
c0 40 5.66699 77 17 111s27.5 63.5 48.5 88.5s46.5 44.5 76.5 58.5s63.667 21 101 21c66 0 120.333 -24.333 163 -73v61h154v-47c19.333 18 41.333 32.333 66 43s52.334 16 83.001 16zM826.994 326.003c-2.66699 35.333 -14.833 61.833 -36.5 79.5s-48.5 26.5 -80.5 26.5
c-33.333 0 -60.5 -9.16699 -81.5 -27.5s-33.167 -44.5 -36.5 -78.5h235z" />
    <glyph glyph-name="Oslashacute" unicode="&#x1fe;" horiz-adv-x="749" 
d="M300 725c14.667 19.333 30 41.502 46 66.502s28.667 48.167 38 69.5l124 -21c-6 -14 -14.667 -28.167 -26 -42.5s-24 -27.833 -38 -40.5s-28.5 -24.334 -43.5 -35.001s-29.5 -19.334 -43.5 -26.001zM113 28.002l28.999 41.001c-35.333 32 -62.166 70.5 -80.499 115.5
s-27.5 94.5 -27.5 148.5c0 48 7.66699 93 23 135s37.666 78.5 66.999 109.5s65 55.5 107 73.5s89.667 27 143 27c32 0 61.833 -3.33301 89.5 -10s53.5 -16.334 77.5 -29.001l31 44l64 -45l-30 -43c36 -32 63.333 -70.5 82 -115.5s28 -93.833 28 -146.5
c0 -48 -7.83301 -93 -23.5 -135s-38.167 -78.5 -67.5 -109.5s-65.166 -55.5 -107.499 -73.5s-90.166 -27 -143.499 -27c-62.667 0 -118.334 12.667 -167.001 38l-30 -43zM549.999 333.003c0 50.667 -12.334 93.333 -37.001 128l-218 -310c11.333 -6 23.5 -10.333 36.5 -13
s27.167 -4 42.5 -4c28.667 0 53.834 5.16699 75.501 15.5s40 24.5 55 42.5s26.333 39 34 63s11.5 50 11.5 78zM198.998 333.002c0 -52 12.335 -95.334 37.002 -130.001l217 311c-23.333 12 -49.666 18 -78.999 18c-28.667 0 -53.834 -5.16699 -75.501 -15.5
s-39.834 -24.5 -54.501 -42.5s-25.834 -39.167 -33.501 -63.5s-11.5 -50.166 -11.5 -77.499z" />
    <glyph glyph-name="oslashacute" unicode="&#x1ff;" horiz-adv-x="631" 
d="M252 599c14.667 19.333 30 41.502 46 66.502s28.667 48.167 38 69.5l124 -21c-6 -14 -14.667 -28.167 -26 -42.5s-24 -27.833 -38 -40.5s-28.5 -24.334 -43.5 -35.001s-29.5 -19.334 -43.5 -26.001zM103 24.002l19.002 26.9971
c-28.667 24.667 -50.834 55.167 -66.501 91.5s-23.5 77.5 -23.5 123.5c0 42 6.66699 80.167 20 114.5s32.166 63.666 56.499 87.999s54 43.333 89 57s74.167 20.5 117.5 20.5c25.333 0 49.166 -2.5 71.499 -7.5s43.166 -11.833 62.499 -20.5l22 31l56 -39l-20 -29
c30 -24.667 52.833 -55.167 68.5 -91.5s23.5 -77.5 23.5 -123.5c0 -41.333 -6.66699 -79.166 -20 -113.499s-32.333 -63.666 -57 -87.999s-54.5 -43.166 -89.5 -56.499s-74.167 -20 -117.5 -20c-25.333 0 -49.166 2.33301 -71.499 7s-43.166 11.334 -62.499 20.001l-21 -30z
M193.002 266.999c0 -34.667 5.99902 -63.999 17.999 -87.999l160 229c-15.333 9.33301 -34 14 -56 14c-20 0 -37.5 -3.83301 -52.5 -11.5s-27.667 -18.334 -38 -32.001s-18.166 -30 -23.499 -49s-8 -39.833 -8 -62.5zM438.001 267c0 34 -6.66699 63.333 -20 88l-160 -229
c15.333 -8.66699 34.333 -13 57 -13c40 0 70.5 14.167 91.5 42.5s31.5 65.5 31.5 111.5z" />
    <glyph glyph-name="Scommaaccent" unicode="&#x218;" horiz-adv-x="637" 
d="M311 678c26.667 0 53.165 -2.33594 79.498 -7.00293s51.666 -12.334 75.999 -23.001s47.333 -24.667 69 -42s40.834 -38.333 57.501 -63l-119 -74c-20 28 -44.667 48.333 -74 61s-60 19 -92 19c-28 0 -51 -5.16699 -69 -15.5s-27 -26.166 -27 -47.499
c0 -12 3.66699 -22 11 -30s17.333 -14.5 30 -19.5s27.167 -9.16699 43.5 -12.5s33.5 -6.66602 51.5 -9.99902c34.667 -6 67.667 -13.667 99 -23s58.833 -21.666 82.5 -36.999s42.334 -34.666 56.001 -57.999s20.5 -52.333 20.5 -87c0 -31.333 -6.16699 -60.5 -18.5 -87.5
s-30.5 -50.333 -54.5 -70s-53.333 -35.167 -88 -46.5s-74.334 -17 -119.001 -17c-72.667 0 -135.667 14.667 -189 44s-93.333 70.333 -120 123l125 66c22 -37.333 50 -63.833 84 -79.5s69.667 -23.5 107 -23.5c35.333 0 63.5 6.16699 84.5 18.5s31.5 29.166 31.5 50.499
c0 14 -3.83301 25.333 -11.5 34s-18 15.834 -31 21.501s-28.333 10.334 -46 14.001s-36.5 7.16699 -56.5 10.5c-34 6 -66.167 13.667 -96.5 23s-57 21.666 -80 36.999s-41.167 34.833 -54.5 58.5s-20 53.167 -20 88.5c0 32 6.16699 60.5 18.5 85.5s29.833 46.333 52.5 64
s49.834 31.167 81.501 40.5s66.834 14 105.501 14zM181.998 -172.003c14 19.333 28.333 40.833 43 64.5s26 46.5 34 68.5l126 -14c-6 -14.667 -14.5 -29.167 -25.5 -43.5s-23.167 -28 -36.5 -41s-27.333 -24.833 -42 -35.5s-28.667 -19.667 -42 -27z" />
    </font>
</defs>
</svg>
