<?xml version="1.0" standalone="no"?>
<!DOCTYPE svg PUBLIC "-//W3C//DTD SVG 1.1//EN" "http://www.w3.org/Graphics/SVG/1.1/DTD/svg11.dtd" >
<svg>
<metadata>
Created by FontForge 20090914 at Fri Aug 23 05:14:15 2013
 By www-data
Copyright (c) ARS Type&#194;&#174;-Angus R. Shamal, 2012. All rights reserved.
</metadata>
<defs>
<font id="APLetter-Medium" horiz-adv-x="587" >
  <font-face 
    font-family="AP Letter Light"
    font-weight="500"
    font-stretch="normal"
    units-per-em="1000"
    panose-1="2 0 6 3 0 0 0 2 0 4"
    ascent="800"
    descent="-200"
    x-height="524.999"
    cap-height="666"
    bbox="-157 -200.003 1232 991"
    underline-thickness="50"
    underline-position="-50"
    unicode-range="U+0002-U+1F698"
  />
<missing-glyph horiz-adv-x="574" 
d="M40 667h494v-667h-494v667zM88 637l416 -581v581h-416zM70 30h415l-415 581v-581z" />
    <glyph glyph-name="f_f" unicode="ff" horiz-adv-x="685" 
d="M672 626c-7.33301 2 -16.332 4.16504 -26.999 6.49805s-22 3.5 -34 3.5c-23.333 0 -40.666 -4.5 -51.999 -13.5s-17 -24.833 -17 -47.5v-50h118v-85h-118v-440h-110v440h-212v-440h-111v440h-87v85h87v47c0 48.667 14.667 86.334 44 113.001s71 40 125 40
c15.333 0 30.5 -0.833008 45.5 -2.5s28.167 -4.5 39.5 -8.5l-13 -88c-7.33301 2 -16.333 4.16699 -27 6.5s-22.334 3.5 -35.001 3.5c-22.667 0 -39.667 -4.5 -51 -13.5s-17 -24.833 -17 -47.5v-50h212v47c0 48.667 14.667 86.334 44 113.001s70.666 40 123.999 40
c15.333 0 30.5 -0.833008 45.5 -2.5s28.167 -4.5 39.5 -8.5z" />
    <glyph glyph-name="fi" unicode="fi" horiz-adv-x="609" 
d="M350 626c-7.33301 2 -16.333 4.16797 -27 6.50098s-22.667 3.5 -36 3.5c-22 0 -38.667 -4.5 -50 -13.5s-17 -24.833 -17 -47.5v-50h118v-85h-118v-440h-111v440h-87v85h87v47c0 49.333 14.667 87.166 44 113.499s71 39.5 125 39.5c15.333 0 30.5 -0.833008 45.5 -2.5
s28.167 -4.5 39.5 -8.5zM426 0.000976562v525h110v-525h-110zM426 610.001v104h110v-104h-110z" />
    <glyph glyph-name="fl" unicode="fl" horiz-adv-x="613" 
d="M350 626c-7.33301 2 -16.333 4.16797 -27 6.50098s-22.667 3.5 -36 3.5c-22 0 -38.667 -4.5 -50 -13.5s-17 -24.833 -17 -47.5v-50h118v-85h-118v-440h-111v440h-87v85h87v47c0 49.333 14.667 87.166 44 113.499s71 39.5 125 39.5c15.333 0 30.5 -0.833008 45.5 -2.5
s28.167 -4.5 39.5 -8.5zM429 0.000976562v714h110v-714h-110z" />
    <glyph glyph-name="f_j" unicode="fj" horiz-adv-x="616" 
d="M350 626c-7.33301 2 -16.333 4.16797 -27 6.50098s-22.667 3.5 -36 3.5c-22 0 -38.667 -4.5 -50 -13.5s-17 -24.833 -17 -47.5v-50h118v-85h-118v-440h-111v440h-87v85h87v47c0 49.333 14.667 87.166 44 113.499s71 39.5 125 39.5c15.333 0 30.5 -0.833008 45.5 -2.5
s28.167 -4.5 39.5 -8.5zM543 5.00098c0 -32 -4.33301 -59.6689 -13 -83.002s-21 -42.666 -37 -57.999s-35 -26.833 -57 -34.5s-46.333 -11.5 -73 -11.5c-17.333 0 -34.333 1.83301 -51 5.5s-31 8.5 -43 14.5l30 86c7.33301 -3.33301 15.5 -6.16602 24.5 -8.49902
s18.833 -3.5 29.5 -3.5c29.333 0 49.833 8 61.5 24s17.5 38 17.5 66v523h111v-520zM432 609.999v104h111v-104h-111z" />
    <glyph glyph-name=".notdef" horiz-adv-x="574" 
d="M40 667h494v-667h-494v667zM88 637l416 -581v581h-416zM70 30h415l-415 581v-581z" />
    <glyph glyph-name="NULL" horiz-adv-x="0" 
 />
    <glyph glyph-name="uni0002" horiz-adv-x="270" 
 />
    <glyph glyph-name="nonmarkingreturn" unicode="&#xd;" horiz-adv-x="270" 
 />
    <glyph glyph-name="space" unicode=" " horiz-adv-x="270" 
 />
    <glyph glyph-name="exclam" unicode="!" horiz-adv-x="278" 
d="M168 209h-58l-32 304v153h122v-153zM78 0v125h122v-125h-122z" />
    <glyph glyph-name="quotedbl" unicode="&#x22;" horiz-adv-x="419" 
d="M339 406h-54l-35 222v38h124v-38zM134 406h-54l-35 222v38h124v-38z" />
    <glyph glyph-name="numbersign" unicode="#" horiz-adv-x="639" 
d="M477 415l-29 -163h113v-66h-125l-33 -186h-74l34 186h-140l-33 -186h-73l33 186h-113v66h124l30 163h-113v66h124l34 185h73l-33 -185h139l34 185h73l-34 -185h113v-66h-124zM264 415l-29 -163h140l29 163h-140z" />
    <glyph glyph-name="dollar" unicode="$" 
d="M275 -96l-0.000976562 85.001c-58 3.33301 -108 17.833 -150 43.5s-74.667 59.5 -98 101.5l90 50c18 -32.667 41 -57 69 -73s57.667 -26 89 -30v211c-24 5.33301 -48.667 12.166 -74 20.499s-48.666 20 -69.999 35s-38.833 33.833 -52.5 56.5s-20.5 50.667 -20.5 84
c0 28.667 5.33301 54.334 16 77.001s25.5 42.167 44.5 58.5s41.833 29.166 68.5 38.499s56 14.666 88 15.999v64h56v-66c41.333 -4.66699 79.833 -16.834 115.5 -36.501s66.167 -47.5 91.5 -83.5l-81 -52c-33.333 42 -75.333 68 -126 78v-190
c26.667 -6.66699 53.167 -14.667 79.5 -24s49.833 -21.666 70.5 -36.999s37.5 -34.333 50.5 -57s19.5 -50 19.5 -82c0 -27.333 -5 -52.666 -15 -75.999s-24.5 -44 -43.5 -62s-42.167 -32.667 -69.5 -44s-58 -18.333 -92 -21v-85h-56zM443.999 182.001
c0 14.667 -2.66699 27.334 -8 38.001s-13 19.667 -23 27s-22 13.666 -36 18.999s-29.333 10 -46 14v-199c36 2.66699 63.833 12.667 83.5 30s29.5 41 29.5 71zM165.999 499.001c0 -14.667 2.66797 -26.998 8.00098 -36.998s12.666 -18.5 21.999 -25.5s20.833 -13 34.5 -18
s28.5 -9.5 44.5 -13.5v181c-14.667 -0.666992 -28.5 -2.83398 -41.5 -6.50098s-24.5 -9 -34.5 -16s-18 -15.833 -24 -26.5s-9 -23.334 -9 -38.001z" />
    <glyph glyph-name="percent" unicode="%" horiz-adv-x="778" 
d="M361 508c0 -24 -4 -46.167 -12 -66.5s-19.333 -38 -34 -53s-31.834 -26.833 -51.501 -35.5s-41.5 -13 -65.5 -13s-45.833 4.33301 -65.5 13s-36.834 20.5 -51.501 35.5s-26 32.667 -34 53s-12 42.5 -12 66.5c0 23.333 4 45.166 12 65.499s19.333 38 34 53
s31.834 26.833 51.501 35.5s41.5 13 65.5 13s45.833 -4.33301 65.5 -13s36.834 -20.5 51.501 -35.5s26 -32.667 34 -53s12 -42.166 12 -65.499zM257 0h-85l349 666h86zM744 159c0 -24 -4 -46.167 -12 -66.5s-19.333 -38 -34 -53s-31.834 -26.833 -51.501 -35.5
s-41.5 -13 -65.5 -13c-23.333 0 -45 4.33301 -65 13s-37.333 20.5 -52 35.5s-26 32.667 -34 53s-12 42.5 -12 66.5c0 23.333 4 45.166 12 65.499s19.333 38 34 53s32 26.833 52 35.5s41.667 13 65 13c24 0 45.833 -4.33301 65.5 -13s36.834 -20.5 51.501 -35.5
s26 -32.667 34 -53s12 -42.166 12 -65.499zM285 508c0 26 -8 47.833 -24 65.5s-37 26.5 -63 26.5c-26.667 0 -48 -8.83301 -64 -26.5s-24 -39.5 -24 -65.5s8 -48 24 -66s37.333 -27 64 -27c26 0 47 9 63 27s24 40 24 66zM669 159c0 26 -8.16699 47.833 -24.5 65.5
s-37.5 26.5 -63.5 26.5s-47 -8.83301 -63 -26.5s-24 -39.5 -24 -65.5s8 -48 24 -66s37 -27 63 -27s47.167 9 63.5 27s24.5 40 24.5 66z" />
    <glyph glyph-name="ampersand" unicode="&#x26;" horiz-adv-x="685" 
d="M635 295c-9.33301 -30.667 -21.4971 -60.502 -36.4971 -89.502s-31.833 -54.833 -50.5 -77.5l127 -128h-145l-58 58c-30 -22.667 -61.833 -40 -95.5 -52s-69.834 -18 -108.501 -18c-33.333 0 -64.333 4.16699 -93 12.5s-53.834 20.666 -75.501 36.999
s-38.667 36.333 -51 60s-18.5 50.834 -18.5 81.501c0 24 3.83301 45.5 11.5 64.5s18 36 31 51s28.5 28.333 46.5 40s37.667 21.834 59 30.501c-24 26.667 -42 51 -54 73s-18 47.667 -18 77c0 26.667 4.83301 50.167 14.5 70.5s23.167 37.333 40.5 51s37.833 24 61.5 31
s49.167 10.5 76.5 10.5c26.667 0 51.5 -3.5 74.5 -10.5s43 -17 60 -30s30.333 -29.167 40 -48.5s14.5 -41.333 14.5 -66c0 -42 -13.333 -77.167 -40 -105.5s-63.667 -53.166 -111 -74.499l144 -146c12 17.333 23.167 36.5 33.5 57.5s18.166 42.167 23.499 63.5z
M281.003 80.998c46 0 87.999 14.999 125.999 44.999l-173 179c-25.333 -12 -47.166 -26.833 -65.499 -44.5s-27.5 -40.5 -27.5 -68.5c0 -33.333 12.833 -60.166 38.5 -80.499s59.5 -30.5 101.5 -30.5zM391.002 517.997c0 25.333 -8.83301 44.499 -26.5 57.499
s-39.167 19.5 -64.5 19.5c-24 0 -45.167 -6.5 -63.5 -19.5s-27.5 -32.5 -27.5 -58.5c0 -21.333 6.5 -40.666 19.5 -57.999s29.5 -36.333 49.5 -57c15.333 7.33301 29.833 14.833 43.5 22.5s25.667 16.167 36 25.5s18.5 19.5 24.5 30.5s9 23.5 9 37.5z" />
    <glyph glyph-name="quotesingle" unicode="'" horiz-adv-x="213" 
d="M133 406h-54l-34 222v38h123v-38z" />
    <glyph glyph-name="parenleft" unicode="(" horiz-adv-x="297" 
d="M210 -124c-31.333 34 -58 68.8359 -80 104.503s-39.833 71.5 -53.5 107.5s-23.667 72 -30 108s-9.5 71.667 -9.5 107c0 71.333 13 143.166 39 215.499s70.667 142.833 134 211.5l68 -50c-53.333 -60.667 -90.666 -122.334 -111.999 -185.001s-32 -126.667 -32 -192
s10.667 -129.333 32 -192s58.666 -124.334 111.999 -185.001z" />
    <glyph glyph-name="parenright" unicode=")" horiz-adv-x="297" 
d="M88 730c62.667 -68.667 107 -139.17 133 -211.503s39 -144.166 39 -215.499s-13 -143.166 -39 -215.499s-70.333 -142.833 -133 -211.5l-69 50c53.333 60.667 90.833 122.334 112.5 185.001s32.5 126.667 32.5 192c0 64.667 -10.833 128.5 -32.5 191.5
s-59.167 124.833 -112.5 185.5z" />
    <glyph glyph-name="asterisk" unicode="*" horiz-adv-x="453" 
d="M244 470c4.66699 -18.667 8.33594 -34.834 11.0029 -48.501s4.66699 -26.5 6 -38.5s2.33301 -23.833 3 -35.5s1 -24.834 1 -39.501h-78c0 14.667 0.333008 27.834 1 39.501s1.83398 23.5 3.50098 35.5s3.83398 24.833 6.50098 38.5s6.33398 29.834 11.001 48.501
c-14 -13.333 -26.167 -24.5 -36.5 -33.5l-30 -25c-9.66699 -7.66699 -19.334 -14.667 -29.001 -21s-20.834 -12.833 -33.501 -19.5l-39 67l34.5 19.5c10.333 5.66699 21 10.667 32 15s23.167 8.66602 36.5 12.999s29.333 9.16602 48 14.499
c-18.667 5.33301 -34.667 10.333 -48 15s-25.5 9.16699 -36.5 13.5s-21.667 9.16602 -32 14.499s-21.833 11.666 -34.5 18.999l39 68l33.5 -20c9.66699 -6 19.334 -12.833 29.001 -20.5s19.667 -16.167 30 -25.5l36.5 -34c-4.66699 18.667 -8.33398 34.834 -11.001 48.501
s-4.83398 26.5 -6.50098 38.5s-2.83398 23.833 -3.50098 35.5s-1 24.834 -1 39.501h78c0 -14.667 -0.333008 -27.834 -1 -39.501s-1.66699 -23.5 -3 -35.5s-3.33301 -24.833 -6 -38.5s-6.33398 -29.834 -11.001 -48.501l36.5 34l29.5 25.5c9.33301 7.66699 19 14.5 29 20.5
l33 20l40 -68c-12.667 -7.33301 -24.334 -13.666 -35.001 -18.999s-21.5 -10.166 -32.5 -14.499s-23.167 -8.83301 -36.5 -13.5s-29 -9.66699 -47 -15c18 -5.33301 33.667 -10.166 47 -14.499s25.5 -8.66602 36.5 -12.999s21.833 -9.33301 32.5 -15l35 -19.5l-40 -67
c-12 6.66699 -23 13.167 -33 19.5s-19.667 13.333 -29 21l-29.5 25c-10.333 9 -22.5 20.167 -36.5 33.5z" />
    <glyph glyph-name="plus" unicode="+" 
d="M341 257v-198h-95v198h-198v94h198v199h95v-199h198v-94h-198z" />
    <glyph glyph-name="comma" unicode="," horiz-adv-x="258" 
d="M193 20c0 -37.333 -7.5 -70.333 -22.5 -99s-38.5 -55.667 -70.5 -81l-38 43c19.333 14 34.5 30 45.5 48s16.5 35.667 16.5 53v16h-59v126h128v-106z" />
    <glyph glyph-name="hyphen" unicode="-" horiz-adv-x="400" 
d="M58 232v98h284v-98h-284z" />
    <glyph glyph-name="period" unicode="." horiz-adv-x="258" 
d="M65 0v126h128v-126h-128z" />
    <glyph glyph-name="slash" unicode="/" horiz-adv-x="373" 
d="M123 -108h-91l220 822h91z" />
    <glyph glyph-name="zero" unicode="0" 
d="M543 334c0 -43.333 -4 -85.666 -12 -126.999s-21.667 -78.166 -41 -110.499s-45.166 -58.5 -77.499 -78.5s-72.5 -30 -120.5 -30s-88 10 -120 30s-57.5 46.167 -76.5 78.5s-32.5 69.166 -40.5 110.499s-12 83.666 -12 126.999c0 42.667 4 84.667 12 126
s21.5 78.166 40.5 110.499s44.5 58.5 76.5 78.5s72 30 120 30s88.167 -10 120.5 -30s58.166 -46.167 77.499 -78.5s33 -69.166 41 -110.499s12 -83.333 12 -126zM423 334c0 34 -2 65.833 -6 95.5s-11 55.834 -21 78.501s-23.333 40.5 -40 53.5s-38 19.5 -64 19.5
s-47.333 -6.5 -64 -19.5s-30 -30.833 -40 -53.5s-17 -48.834 -21 -78.501s-6 -61.5 -6 -95.5s2 -66.167 6 -96.5s11 -56.666 21 -78.999s23.333 -40.166 40 -53.499s38 -20 64 -20s47.333 6.66699 64 20s30 31.166 40 53.499s17 48.666 21 78.999s6 62.5 6 96.5z" />
    <glyph glyph-name="one" unicode="1" 
d="M96 0l0.00292969 97h164v438c-8.66699 -4 -19.334 -8.33301 -32.001 -13s-26.167 -9 -40.5 -13s-29.333 -7.5 -45 -10.5s-31.167 -5.5 -46.5 -7.5l-14 90c49.333 9.33301 90.666 20.5 123.999 33.5s60.666 30.167 81.999 51.5h88v-569h155v-97h-435z" />
    <glyph glyph-name="two" unicode="2" 
d="M58 0v83.002c60.667 48.667 112.167 91.5 154.5 128.5s76.833 70.333 103.5 100s45.834 56.667 57.501 81s17.5 48.166 17.5 71.499c0 36.667 -11 64.167 -33 82.5s-49.667 27.5 -83 27.5c-32 0 -59.833 -8.33301 -83.5 -25s-42.834 -38 -57.501 -64l-93 54
c26.667 42 60.167 75.667 100.5 101s88.166 38 143.499 38c32.667 0 63 -4.83301 91 -14.5s52.167 -23.5 72.5 -41.5s36.333 -39.833 48 -65.5s17.5 -54.5 17.5 -86.5c0 -29.333 -5.5 -57.833 -16.5 -85.5s-28.167 -56.334 -51.5 -86.001s-53.166 -60.5 -89.499 -92.5
s-79.5 -66.667 -129.5 -104h312v-102h-481z" />
    <glyph glyph-name="three" unicode="3" 
d="M228 295v96.999h56c38 0 66.667 8.83301 86 26.5s29 40.5 29 68.5s-9.83301 49.833 -29.5 65.5s-47.167 23.5 -82.5 23.5c-65.333 0 -115.666 -27.333 -150.999 -82l-88 55c60 86 141.667 129 245 129c33.333 0 63.666 -4.33301 90.999 -13s50.833 -21 70.5 -37
s35 -34.833 46 -56.5s16.5 -45.5 16.5 -71.5c0 -35.333 -9 -65.166 -27 -89.499s-41.667 -43.5 -71 -57.5c39.333 -15.333 68.833 -37.166 88.5 -65.499s29.5 -60.166 29.5 -95.499c0 -28 -5.66699 -54.333 -17 -79s-27.5 -46.334 -48.5 -65.001
s-46.833 -33.334 -77.5 -44.001s-65.334 -16 -104.001 -16c-64.667 0 -118.167 13.167 -160.5 39.5s-75.166 62.5 -98.499 108.5l102 48c15.333 -31.333 36.333 -54.833 63 -70.5s58 -23.5 94 -23.5c41.333 0 72.833 9.83301 94.5 29.5s32.5 45.5 32.5 77.5
c0 30 -11 53.833 -33 71.5s-56 26.5 -102 26.5h-54z" />
    <glyph glyph-name="four" unicode="4" 
d="M463 149l0.000976562 -149.001h-114v149h-319v91c21.333 38 40 76.167 56 114.5s29.5 76 40.5 113s19.167 72.333 24.5 106s8 64.5 8 92.5h114c0 -28.667 -3 -59.834 -9 -93.501s-14.667 -68.667 -26 -105s-25.333 -73.166 -42 -110.499
s-35.334 -73.666 -56.001 -108.999h209v277h114v-277h94v-99h-94z" />
    <glyph glyph-name="five" unicode="5" 
d="M282 91c40 0 72.665 11.1699 97.998 33.5029s38 53.5 38 93.5c0 38 -12 68.167 -36 90.5s-57 33.5 -99 33.5c-56.667 0 -101.667 -20.667 -135 -62l-70 32l23 354h400v-106h-306l-15 -163c20.667 14.667 42.667 24.667 66 30s45.666 8 66.999 8c32 0 61.667 -5 89 -15
s51 -24.333 71 -43s35.833 -41.334 47.5 -68.001s17.5 -56.334 17.5 -89.001c0 -30 -5.33301 -59 -16 -87s-26.667 -52.833 -48 -74.5s-47.666 -38.834 -78.999 -51.501s-67.666 -19 -108.999 -19c-112.667 0 -195 44.333 -247 133l97 55
c15.333 -30 35.833 -51.667 61.5 -65s53.834 -20 84.501 -20z" />
    <glyph glyph-name="six" unicode="6" 
d="M440 666c-23.333 -18 -46.834 -37.6641 -70.501 -58.9971s-46 -43.5 -67 -66.5s-40 -46.333 -57 -70s-30.5 -46.834 -40.5 -69.501c16.667 17.333 37.5 29.166 62.5 35.499s48.167 9.5 69.5 9.5c30 0 58.167 -5.16699 84.5 -15.5s49 -25.166 68 -44.499
s34 -42.5 45 -69.5s16.5 -57.5 16.5 -91.5c0 -35.333 -6 -67.5 -18 -96.5s-29 -53.833 -51 -74.5s-48.333 -36.834 -79 -48.501s-65 -17.5 -103 -17.5s-72.5 5.5 -103.5 16.5s-57.333 27.167 -79 48.5s-38.5 47.666 -50.5 78.999s-18 67.333 -18 108
c0 41.333 5.83301 81.166 17.5 119.499s27.834 75 48.501 110s44.667 68.833 72 101.5s57 64.334 89 95.001h164zM168.999 223.003c0 -40 11.333 -72 34 -96s55.334 -36 98.001 -36c42 0 74 12 96 36s33 56 33 96s-11 71.833 -33 95.5s-54 35.5 -96 35.5
c-42.667 0 -75.334 -12.167 -98.001 -36.5s-34 -55.833 -34 -94.5z" />
    <glyph glyph-name="seven" unicode="7" 
d="M542 582l-49.999 -68.5c-18.667 -26.333 -37.667 -55 -57 -86s-38.5 -63.833 -57.5 -98.5s-35.833 -70.334 -50.5 -107.001s-26.667 -73.667 -36 -111s-14.333 -74.333 -15 -111h-129c2 54.667 12.667 109.667 32 165s42.166 107.833 68.499 157.5
s53.833 95.334 82.5 137.001s53.667 76.5 75 104.5h-359v102h496v-84z" />
    <glyph glyph-name="eight" unicode="8" 
d="M294 84c40.667 0 72.6689 9.66699 96.002 29s35 47.333 35 84c0 35.333 -11.167 62.833 -33.5 82.5s-54.833 29.5 -97.5 29.5s-75.334 -9.83301 -98.001 -29.5s-34 -47.167 -34 -82.5c0 -36 11.667 -63.833 35 -83.5s55.666 -29.5 96.999 -29.5zM293.002 397
c34 0 60.999 7.83301 80.999 23.5s30 38.5 30 68.5s-10.167 53 -30.5 69s-46.833 24 -79.5 24c-33.333 0 -60.166 -8 -80.499 -24s-30.5 -39 -30.5 -69s10 -52.833 30 -68.5s46.667 -23.5 80 -23.5zM294.001 -12c-40 0 -75.8379 5.16699 -107.505 15.5
s-58.167 24.5 -79.5 42.5s-37.666 39.167 -48.999 63.5s-17 50.833 -17 79.5c0 37.333 9.83301 71 29.5 101s48.834 52.667 87.501 68c-28 13.333 -50.5 31.666 -67.5 54.999s-25.5 52.666 -25.5 87.999c0 27.333 6 51.833 18 73.5s28.167 40.167 48.5 55.5
s44.5 27.166 72.5 35.499s58 12.5 90 12.5s61.833 -4.16699 89.5 -12.5s51.667 -20.166 72 -35.499s36.5 -33.833 48.5 -55.5s18 -46.167 18 -73.5c0 -35.333 -8.5 -64.666 -25.5 -87.999s-39.5 -41.666 -67.5 -54.999c38.667 -15.333 67.834 -38 87.501 -68
s29.5 -63.667 29.5 -101c0 -28.667 -5.66699 -55.167 -17 -79.5s-27.666 -45.5 -48.999 -63.5s-47.666 -32.167 -78.999 -42.5s-67 -15.5 -107 -15.5z" />
    <glyph glyph-name="nine" unicode="9" 
d="M146 0c23.333 18 46.833 37.667 70.5 59s46 43.5 67 66.5s40.167 46.333 57.5 70s31 46.5 41 68.5c-16.667 -16.667 -37.5 -28.167 -62.5 -34.5s-48.167 -9.5 -69.5 -9.5c-30.667 0 -59 5.16699 -85 15.5s-48.667 25.166 -68 44.499s-34.5 42.5 -45.5 69.5
s-16.5 57.5 -16.5 91.5c0 34.667 6 66.667 18 96s29 54.333 51 75s48.5 36.834 79.5 48.501s65.5 17.5 103.5 17.5s72.333 -5.5 103 -16.5s57 -27.167 79 -48.5s39 -47.666 51 -78.999s18 -67.333 18 -108c0 -41.333 -6 -81 -18 -119s-28.167 -74.667 -48.5 -110
s-44.333 -69.333 -72 -102s-57.5 -64.334 -89.5 -95.001h-164zM418 443c0 40 -11.333 72 -34 96s-55.334 36 -98.001 36c-42 0 -74 -12 -96 -36s-33 -56 -33 -96s11 -71.833 33 -95.5s54 -35.5 96 -35.5c42.667 0 75.334 12.167 98.001 36.5s34 55.833 34 94.5z" />
    <glyph glyph-name="colon" unicode=":" horiz-adv-x="296" 
d="M84 0v126h128v-126h-128zM84 399v126h128v-126h-128z" />
    <glyph glyph-name="semicolon" unicode=";" horiz-adv-x="296" 
d="M212 20c0 -37.333 -7.5 -70.333 -22.5 -99s-38.5 -55.667 -70.5 -81l-38 43c19.333 14 34.5 30 45.5 48s16.5 35.667 16.5 53v16h-59v126h128v-106zM84 399v126h128v-126h-128z" />
    <glyph glyph-name="less" unicode="&#x3c;" 
d="M393 17l-290 288l290 289l65 -65l-222 -224l222 -223z" />
    <glyph glyph-name="equal" unicode="=" 
d="M48 358v94h491v-94h-491zM48 156v95h491v-95h-491z" />
    <glyph glyph-name="greater" unicode="&#x3e;" 
d="M194 17l-65 65l224 223l-224 224l65 65l290 -289z" />
    <glyph glyph-name="question" unicode="?" horiz-adv-x="531" 
d="M486 474c0 -30 -5.33301 -57.167 -16 -81.5s-25.167 -45.333 -43.5 -63s-40 -32.167 -65 -43.5s-51.5 -19.333 -79.5 -24v-53h-109v148c7.33301 -2 15 -3.33301 23 -4s15 -1 21 -1c44 0 79.833 10.167 107.5 30.5s41.5 49.5 41.5 87.5c0 32 -10.833 57.667 -32.5 77
s-51.5 29 -89.5 29c-56 0 -106 -20.333 -150 -61l-64 76c32 28 66.167 49.667 102.5 65s77.166 23 122.499 23c32.667 0 63.167 -4.66699 91.5 -14s52.833 -22.833 73.5 -40.5s36.834 -39.167 48.501 -64.5s17.5 -54 17.5 -86zM164 0v118h128v-118h-128z" />
    <glyph glyph-name="at" unicode="@" horiz-adv-x="848" 
d="M532 168c-16 -23.333 -35.335 -40.4941 -58.002 -51.4941s-47.334 -16.5 -74.001 -16.5s-50.5 5 -71.5 15s-39 24 -54 42s-26.5 39 -34.5 63s-12 50 -12 78s4 54.167 12 78.5s19.5 45.5 34.5 63.5s33.167 32 54.5 42s45.333 15 72 15c44 0 81 -17.333 111 -52v44h90v-267
c0 -17.333 4 -32 12 -44s22.667 -18 44 -18c30 0 52.333 13.167 67 39.5s22 60.166 22 101.499c0 45.333 -7.33301 87.333 -22 126s-35.667 72.167 -63 100.5s-60.5 50.5 -99.5 66.5s-82.833 24 -131.5 24c-48 0 -91.5 -8.5 -130.5 -25.5s-72.333 -39.833 -100 -68.5
s-49 -62.334 -64 -101.001s-22.5 -79.334 -22.5 -122.001c0 -44 7.5 -85.167 22.5 -123.5s36.333 -71.833 64 -100.5s61 -51.334 100 -68.001s82.5 -25 130.5 -25c28.667 0 56.5 3.5 83.5 10.5s52.167 17.833 75.5 32.5l29 -54c-28 -15.333 -57.833 -27.333 -89.5 -36
s-65.834 -13 -102.501 -13c-57.333 0 -109.666 9.66699 -156.999 29s-87.833 45.833 -121.5 79.5s-59.834 73.5 -78.501 119.5s-28 95.667 -28 149c0 52.667 9.33301 102 28 148s44.834 86 78.501 120s74.334 60.833 122.001 80.5s100.5 29.5 158.5 29.5
c57.333 0 109.5 -9.83301 156.5 -29.5s87.333 -46.334 121 -80.001s59.667 -73.167 78 -118.5s27.5 -93.333 27.5 -144c0 -31.333 -3.83301 -59.5 -11.5 -84.5s-18.667 -46.5 -33 -64.5s-31.666 -31.833 -51.999 -41.5s-43.166 -14.5 -68.499 -14.5
c-21.333 0 -42.833 4.66699 -64.5 14s-38.5 26.666 -50.5 51.999zM511.998 298.006c0 16.667 -1.99902 32.334 -5.99902 47.001s-10.167 27.5 -18.5 38.5s-18.5 19.667 -30.5 26s-26 9.5 -42 9.5s-29.833 -3.16699 -41.5 -9.5s-21.334 -15 -29.001 -26
s-13.5 -23.833 -17.5 -38.5s-6 -30.334 -6 -47.001s2 -32.167 6 -46.5s9.83301 -27 17.5 -38s17.5 -19.667 29.5 -26s26 -9.5 42 -9.5s30 3.16699 42 9.5s22 15 30 26s14 23.667 18 38s6 29.833 6 46.5z" />
    <glyph glyph-name="A" unicode="A" horiz-adv-x="676" 
d="M537 0l-63 170h-276l-63 -170h-127l261 666h138l261 -666h-131zM337 563l-108 -295h213z" />
    <glyph glyph-name="B" unicode="B" horiz-adv-x="666" 
d="M621 192c0 -27.333 -4.83105 -52.833 -14.498 -76.5s-23.834 -44 -42.501 -61s-42.167 -30.333 -70.5 -40s-60.833 -14.5 -97.5 -14.5h-313v666h292c70.667 0 125 -14.333 163 -43s57 -69 57 -121c0 -32 -7.83301 -60.333 -23.5 -85s-36.834 -44 -63.501 -58
c38 -15.333 66.333 -37.5 85 -66.5s28 -62.5 28 -100.5zM477.002 485c0 27.333 -9.16797 47.167 -27.501 59.5s-45.166 18.5 -80.499 18.5h-169v-167h173c33.333 0 59 7.83301 77 23.5s27 37.5 27 65.5zM500.001 200.001c0 29.333 -8.83301 53.333 -26.5 72
s-44.5 28 -80.5 28h-193v-197h190c35.333 0 62.5 8.5 81.5 25.5s28.5 40.833 28.5 71.5z" />
    <glyph glyph-name="C" unicode="C" horiz-adv-x="677" 
d="M551 474c-41.333 66.667 -100.668 100.003 -178.001 100.003c-32 0 -60.833 -5.83301 -86.5 -17.5s-47.5 -28 -65.5 -49s-31.833 -46.167 -41.5 -75.5s-14.5 -61.666 -14.5 -96.999c0 -36 4.83301 -68.833 14.5 -98.5s23.5 -55.334 41.5 -77.001
s39.833 -38.334 65.5 -50.001s54.167 -17.5 85.5 -17.5c40 0 74.667 9.16699 104 27.5s54 44.166 74 77.499l97 -56c-30 -48 -67.833 -85.5 -113.5 -112.5s-99.834 -40.5 -162.501 -40.5c-49.333 0 -94 8.5 -134 25.5s-74.5 40.833 -103.5 71.5s-51.333 67.167 -67 109.5
s-23.5 88.833 -23.5 139.5c0 50 7.83301 96.167 23.5 138.5s37.834 78.666 66.501 108.999s63.167 54 103.5 71s84.833 25.5 133.5 25.5c58.667 0 110.834 -12 156.501 -36s84.5 -60.333 116.5 -109z" />
    <glyph glyph-name="D" unicode="D" horiz-adv-x="721" 
d="M347 106c68 0 119.667 20.499 155 61.499s53 96.167 53 165.5c0 34.667 -4.5 66 -13.5 94s-22.167 51.833 -39.5 71.5s-39 34.834 -65 45.501s-56 16 -90 16h-146v-454h146zM83 -0.000976562v666.002h264c53.333 0 100.5 -8.5 141.5 -25.5s75.5 -40.333 103.5 -70
s49.167 -64.834 63.5 -105.501s21.5 -84.667 21.5 -132s-7.16699 -91.333 -21.5 -132s-35.5 -75.834 -63.5 -105.501s-62.5 -53 -103.5 -70s-88.167 -25.5 -141.5 -25.5h-264z" />
    <glyph glyph-name="E" unicode="E" horiz-adv-x="621" 
d="M83 0v666h485v-102h-368v-162h320v-102h-320v-198h378v-102h-495z" />
    <glyph glyph-name="F" unicode="F" horiz-adv-x="605" 
d="M200 564v-172h319v-102h-319v-290h-117v666h494v-102h-377z" />
    <glyph glyph-name="G" unicode="G" horiz-adv-x="722" 
d="M373 678c60.667 0 113.673 -12.6689 159.006 -38.002s82.666 -60.333 111.999 -105l-96 -58c-19.333 32 -44 56.167 -74 72.5s-64 24.5 -102 24.5c-32.667 0 -61.834 -5.83301 -87.501 -17.5s-47.334 -28.167 -65.001 -49.5s-31.167 -46.666 -40.5 -75.999
s-14 -61.666 -14 -96.999c0 -37.333 4.83301 -70.833 14.5 -100.5s23.5 -55 41.5 -76s40 -37.167 66 -48.5s55.333 -17 88 -17c26 0 50.167 3.5 72.5 10.5s42 17.333 59 31s30.833 30.334 41.5 50.001s17 42.167 19 67.5h-184v102h299
c1.33301 -7.33301 2.5 -15.833 3.5 -25.5s1.5 -19.167 1.5 -28.5c0 -42.667 -6.83301 -82.834 -20.5 -120.501s-33.834 -70.667 -60.501 -99s-59.5 -50.666 -98.5 -66.999s-83.833 -24.5 -134.5 -24.5c-50 0 -95.333 8.5 -136 25.5s-75.334 40.833 -104.001 71.5
s-50.834 67.167 -66.501 109.5s-23.5 88.833 -23.5 139.5s7.83301 97.167 23.5 139.5s38 78.666 67 108.999s63.667 53.833 104 70.5s85.5 25 135.5 25z" />
    <glyph glyph-name="H" unicode="H" horiz-adv-x="731" 
d="M530 0v299h-330v-299h-117v666h117v-262h330v262h118v-666h-118z" />
    <glyph glyph-name="I" unicode="I" horiz-adv-x="282" 
d="M83 0v666h116v-666h-116z" />
    <glyph glyph-name="J" unicode="J" horiz-adv-x="514" 
d="M437 217c0 -37.333 -5.50098 -70.333 -16.501 -99s-26.333 -52.667 -46 -72s-43.334 -33.833 -71.001 -43.5s-58.167 -14.5 -91.5 -14.5c-45.333 0 -85.666 9.16699 -120.999 27.5s-63.666 47.5 -84.999 87.5l95 57c14 -24 30.333 -41.167 49 -51.5
s39.667 -15.5 63 -15.5c38 0 65.333 11 82 33s25 51.667 25 89v451h117v-449z" />
    <glyph glyph-name="K" unicode="K" horiz-adv-x="659" 
d="M524 0l-215 304l-110 -123v-181h-116v666h116v-333l297 333h141l-248 -277l274 -389h-139z" />
    <glyph glyph-name="L" unicode="L" horiz-adv-x="572" 
d="M83 0v666h116v-560h358v-106h-474z" />
    <glyph glyph-name="M" unicode="M" horiz-adv-x="887" 
d="M690 0v543l-198 -543h-98l-197 542v-542h-114v666h172l190 -520l190 520h169v-666h-114z" />
    <glyph glyph-name="N" unicode="N" horiz-adv-x="731" 
d="M508 0l-313 516v-516h-112v666h148l305 -504v504h112v-666h-140z" />
    <glyph glyph-name="O" unicode="O" horiz-adv-x="746" 
d="M704 333c0 -48.667 -7.66699 -94 -23 -136s-37.333 -78.5 -66 -109.5s-63.5 -55.333 -104.5 -73s-86.833 -26.5 -137.5 -26.5c-51.333 0 -97.333 8.83301 -138 26.5s-75.334 42 -104.001 73s-50.667 67.5 -66 109.5s-23 87.333 -23 136s7.66699 94 23 136
s37.333 78.5 66 109.5s63.334 55.333 104.001 73s86.667 26.5 138 26.5c50.667 0 96.5 -8.83301 137.5 -26.5s75.833 -42 104.5 -73s50.667 -67.5 66 -109.5s23 -87.333 23 -136zM582 333c0 34 -4.66699 65.5 -14 94.5s-23 54 -41 75s-40 37.5 -66 49.5s-55.333 18 -88 18
c-33.333 0 -62.833 -6 -88.5 -18s-47.5 -28.5 -65.5 -49.5s-31.667 -46 -41 -75s-14 -60.5 -14 -94.5s4.66699 -65.5 14 -94.5s23 -54 41 -75s39.833 -37.5 65.5 -49.5s55.167 -18 88.5 -18c32.667 0 62 6 88 18s48 28.5 66 49.5s31.667 46 41 75s14 60.5 14 94.5z" />
    <glyph glyph-name="P" unicode="P" horiz-adv-x="640" 
d="M615 452c0 -64.667 -21.167 -116.333 -63.5 -155s-101.833 -58 -178.5 -58h-173v-239h-117v666h290c38 0 72 -5.16699 102 -15.5s55.333 -24.833 76 -43.5s36.5 -41.167 47.5 -67.5s16.5 -55.5 16.5 -87.5zM372 341.001c40 0 70.5 9.66797 91.5 29.001
s31.5 46.666 31.5 81.999c0 36 -10.5 63.667 -31.5 83s-51.5 29 -91.5 29h-172v-223h172z" />
    <glyph glyph-name="Q" unicode="Q" horiz-adv-x="746" 
d="M704 334c0 -52.667 -8.99902 -101.168 -26.999 -145.501s-43.333 -82.166 -76 -113.499l74 -88l-77 -64l-79 96c-44.667 -20.667 -93.334 -31 -146.001 -31c-51.333 0 -97.333 8.83301 -138 26.5s-75.334 42 -104.001 73s-50.667 67.667 -66 110s-23 87.833 -23 136.5
s7.66699 93.834 23 135.501s37.333 78 66 109s63.334 55.333 104.001 73s86.667 26.5 138 26.5c50.667 0 96.5 -8.83301 137.5 -26.5s75.833 -42 104.5 -73s50.667 -67.333 66 -109s23 -86.834 23 -135.501zM582.001 333.999c0 34 -4.66699 65.332 -14 93.999
s-23 53.5 -41 74.5s-40 37.5 -66 49.5s-55.333 18 -88 18c-33.333 0 -62.833 -6 -88.5 -18s-47.5 -28.5 -65.5 -49.5s-31.667 -45.833 -41 -74.5s-14 -60 -14 -94s4.66699 -65.667 14 -95s23 -54.5 41 -75.5s39.833 -37.5 65.5 -49.5s55.167 -18 88.5 -18
c27.333 0 51 5 71 15l-66 81l73 59l73 -87c18.667 20.667 33 45.334 43 74.001s15 60.667 15 96z" />
    <glyph glyph-name="R" unicode="R" horiz-adv-x="666" 
d="M502 0l-134 255.003h-168v-255h-117v666h299c36.667 0 69.5 -4.83301 98.5 -14.5s53.5 -23.334 73.5 -41.001s35.167 -38.834 45.5 -63.501s15.5 -52 15.5 -82c0 -24 -3.5 -45.833 -10.5 -65.5s-16.5 -37.5 -28.5 -53.5s-26.167 -29.833 -42.5 -41.5
s-33.5 -20.834 -51.5 -27.501l151 -277h-131zM495 458.003c0 34 -10.833 60.167 -32.5 78.5s-49.5 27.5 -83.5 27.5h-179v-211h181c34 0 61.5 9.5 82.5 28.5s31.5 44.5 31.5 76.5z" />
    <glyph glyph-name="S" unicode="S" horiz-adv-x="616" 
d="M302 678c52 0 100.834 -9.99902 146.501 -29.999s83.834 -51.333 114.501 -94l-88 -59c-21.333 28 -47.166 49 -77.499 63s-63.5 21 -99.5 21c-16.667 0 -32.334 -1.5 -47.001 -4.5s-27.5 -8 -38.5 -15s-19.667 -15.833 -26 -26.5s-9.5 -23.667 -9.5 -39
c0 -16 3.83301 -29 11.5 -39s18.334 -18.5 32.001 -25.5s29.5 -12.667 47.5 -17l57 -13.5c32.667 -7.33301 64.167 -15.5 94.5 -24.5s57 -20.833 80 -35.5s41.333 -33.334 55 -56.001s20.5 -51 20.5 -85c0 -30.667 -6 -58.834 -18 -84.501s-29.333 -47.834 -52 -66.501
s-50.334 -33.167 -83.001 -43.5s-69.334 -15.5 -110.001 -15.5c-66.667 0 -124.334 13.167 -173.001 39.5s-85.667 62.5 -111 108.5l94 55c22.667 -37.333 51.5 -64 86.5 -80s71.833 -24 110.5 -24c42 0 75.667 8.5 101 25.5s38 41.167 38 72.5
c0 18 -4.16699 32.5 -12.5 43.5s-20 20.167 -35 27.5s-32.667 13.333 -53 18s-42.5 9.33398 -66.5 14.001c-30 6 -59 13.5 -87 22.5s-52.667 20.833 -74 35.5s-38.333 33.167 -51 55.5s-19 49.833 -19 82.5c0 30.667 6 58 18 82s28.667 44.333 50 61
s46.833 29.334 76.5 38.001s62.167 13 97.5 13z" />
    <glyph glyph-name="T" unicode="T" horiz-adv-x="610" 
d="M363 564v-564h-117v564h-219v102h556v-102h-220z" />
    <glyph glyph-name="U" unicode="U" horiz-adv-x="711" 
d="M635 253c0 -41.333 -6.83496 -78.5 -20.502 -111.5s-33 -60.833 -58 -83.5s-54.667 -40 -89 -52s-71.833 -18 -112.5 -18c-41.333 0 -79.166 6 -113.499 18s-63.666 29.333 -87.999 52s-43.333 50.5 -57 83.5s-20.5 70.167 -20.5 111.5v413h117v-413
c0 -48.667 14 -87 42 -115s68 -42 120 -42c50.667 0 90.667 14 120 42s44 66.333 44 115v413h116v-413z" />
    <glyph glyph-name="V" unicode="V" horiz-adv-x="644" 
d="M637 666l-252 -666h-125l-253 666h127l188 -529l190 529h125z" />
    <glyph glyph-name="W" unicode="W" horiz-adv-x="950" 
d="M743 0h-129l-140 496l-141 -496h-130l-180 666h125l126 -509l148 509h108l147 -511l126 511h126z" />
    <glyph glyph-name="X" unicode="X" horiz-adv-x="660" 
d="M517 0l-188 262l-187 -262h-141l255 347l-234 319h141l168 -241l169 241h137l-232 -319l254 -347h-142z" />
    <glyph glyph-name="Y" unicode="Y" horiz-adv-x="632" 
d="M374 266v-266h-117v266l-255 400h137l178 -294l179 294h135z" />
    <glyph glyph-name="Z" unicode="Z" horiz-adv-x="613" 
d="M39 0v92l370 472h-355v102h509v-88l-372 -476h381v-102h-533z" />
    <glyph glyph-name="bracketleft" unicode="[" horiz-adv-x="308" 
d="M75 -108v822h223v-78h-127v-666h127v-78h-223z" />
    <glyph glyph-name="backslash" unicode="\" horiz-adv-x="373" 
d="M250 -108l-220 822h91l220 -822h-91z" />
    <glyph glyph-name="bracketright" unicode="]" horiz-adv-x="309" 
d="M10 -108v78h128v666h-128v78h224v-822h-224z" />
    <glyph glyph-name="asciicircum" unicode="^" 
d="M501 370l-206 207l-208 -207l-65 66l230 230h84l230 -230z" />
    <glyph glyph-name="underscore" unicode="_" horiz-adv-x="597" 
d="M0 -125v50h597v-50h-597z" />
    <glyph glyph-name="grave" unicode="`" horiz-adv-x="321" 
d="M202 575c-14 8 -28.166 17.332 -42.499 27.999s-28 22.167 -41 34.5s-24.667 25 -35 38s-18.166 25.833 -23.499 38.5l98 16c9.33301 -19.333 22.166 -40.666 38.499 -63.999s32.166 -44 47.499 -62z" />
    <glyph glyph-name="a" unicode="a" horiz-adv-x="662" 
d="M569 122c0 -17.333 2.66797 -29.6689 8.00098 -37.002s14.666 -11 27.999 -11c12.667 0 22.334 2.33301 29.001 7l13 -76c-9.33301 -4.66699 -20.5 -8 -33.5 -10s-24.167 -3 -33.5 -3c-25.333 0 -48.833 6 -70.5 18s-36.5 33.667 -44.5 65
c-22.667 -32 -49.834 -54.5 -81.501 -67.5s-65.167 -19.5 -100.5 -19.5c-38 0 -72.167 7 -102.5 21s-55.833 33.333 -76.5 58s-36.5 53.667 -47.5 87s-16.5 69.333 -16.5 108s5.5 74.834 16.5 108.501s27 62.834 48 87.501s46.333 44 76 58s63.167 21 100.5 21
c34.667 0 67 -6.83301 97 -20.5s56.667 -36.5 80 -68.5v77h111v-403zM458.001 261.997c0 24.667 -3.33203 47.667 -9.99902 69s-16.334 40 -29.001 56s-28.667 28.5 -48 37.5s-41.333 13.5 -66 13.5c-25.333 0 -47.166 -4.66699 -65.499 -14s-33.666 -22 -45.999 -38
s-21.5 -34.667 -27.5 -56s-9 -44 -9 -68s3 -46.667 9 -68s15.167 -40 27.5 -56s27.666 -28.5 45.999 -37.5s40.166 -13.5 65.499 -13.5s47.5 4.5 66.5 13.5s35 21.5 48 37.5s22.667 34.667 29 56s9.5 44 9.5 68z" />
    <glyph glyph-name="b" unicode="b" horiz-adv-x="641" 
d="M183 714v-266.001c24 32 51 54.833 81 68.5s62.333 20.5 97 20.5c37.333 0 70.833 -7 100.5 -21s54.834 -33.333 75.501 -58s36.5 -53.667 47.5 -87s16.5 -69.333 16.5 -108c0 -39.333 -5.5 -75.666 -16.5 -108.999s-27 -62.333 -48 -87s-46.333 -44 -76 -58
s-62.834 -21 -99.501 -21c-34.667 0 -67 6.83301 -97 20.5s-57 36.5 -81 68.5v-77h-110v714h110zM183 261.999c0 -24.667 3.33301 -47.667 10 -69s16.334 -39.833 29.001 -55.5s28.5 -28 47.5 -37s41.167 -13.5 66.5 -13.5c24.667 0 46.334 4.5 65.001 13.5
s34.167 21.5 46.5 37.5s21.5 34.667 27.5 56s9 44 9 68s-3 46.667 -9 68s-15.167 40 -27.5 56s-27.833 28.667 -46.5 38s-40.334 14 -65.001 14c-25.333 0 -47.5 -4.66699 -66.5 -14s-34.833 -22 -47.5 -38s-22.334 -34.667 -29.001 -56s-10 -44 -10 -68z" />
    <glyph glyph-name="c" unicode="c" horiz-adv-x="547" 
d="M519 104c-22 -33.333 -51.001 -60.9951 -87.001 -82.9951s-80 -33 -132 -33c-40 0 -76.167 7 -108.5 21s-59.666 33.167 -81.999 57.5s-39.666 53.166 -51.999 86.499s-18.5 69.666 -18.5 108.999s6.16699 75.833 18.5 109.5s29.833 62.667 52.5 87s50 43.5 82 57.5
s67.667 21 107 21c50 0 93 -10.833 129 -32.5s65.333 -49.834 88 -84.501l-83 -59c-13.333 24 -30.833 43.167 -52.5 57.5s-47.167 21.5 -76.5 21.5c-23.333 0 -44 -4.5 -62 -13.5s-33.5 -21.333 -46.5 -37s-22.833 -34.334 -29.5 -56.001s-10 -45.167 -10 -70.5
c0 -26 3.5 -49.833 10.5 -71.5s16.833 -40.334 29.5 -56.001s28.167 -28 46.5 -37s39.166 -13.5 62.499 -13.5c30.667 0 56.5 7.16699 77.5 21.5s38.833 32.5 53.5 54.5z" />
    <glyph glyph-name="d" unicode="d" horiz-adv-x="642" 
d="M458 0l-0.000976562 76.998c-23.333 -32 -50.166 -54.833 -80.499 -68.5s-62.5 -20.5 -96.5 -20.5c-37.333 0 -70.833 7 -100.5 21s-55 33.333 -76 58s-37 53.667 -48 87s-16.5 69.333 -16.5 108s5.5 74.834 16.5 108.501s27 62.834 48 87.501s46.333 44 76 58
s63.167 21 100.5 21c34.667 0 67 -6.83301 97 -20.5s56.667 -36.5 80 -68.5v266h111v-714h-111zM457.999 261.998c0 24.667 -3.33203 47.667 -9.99902 69s-16.334 40 -29.001 56s-28.667 28.5 -48 37.5s-41.333 13.5 -66 13.5c-25.333 0 -47.166 -4.66699 -65.499 -14
s-33.666 -22 -45.999 -38s-21.5 -34.667 -27.5 -56s-9 -44 -9 -68s3 -46.667 9 -68s15.167 -40 27.5 -56s27.666 -28.5 45.999 -37.5s40.166 -13.5 65.499 -13.5s47.5 4.5 66.5 13.5s35 21.5 48 37.5s22.667 34.667 29 56s9.5 44 9.5 68z" />
    <glyph glyph-name="e" unicode="e" horiz-adv-x="597" 
d="M560 273c0 -8 -0.166992 -15.165 -0.5 -21.498s-0.833008 -11.833 -1.5 -16.5h-400c2.66699 -48 18.5 -84.833 47.5 -110.5s66.833 -38.5 113.5 -38.5c31.333 0 59.666 5.66699 84.999 17s47.666 27.666 66.999 48.999l72 -69c-28 -29.333 -60.5 -52.5 -97.5 -69.5
s-80.5 -25.5 -130.5 -25.5c-44 0 -83.167 6.83301 -117.5 20.5s-63.166 32.667 -86.499 57s-41 53.166 -53 86.499s-18 69.333 -18 108s6 75 18 109s29.333 63.333 52 88s50.334 44.167 83.001 58.5s69.667 21.5 111 21.5c40 0 75.833 -6.66699 107.5 -20
s58.5 -31.833 80.5 -55.5s38.833 -51.5 50.5 -83.5s17.5 -67 17.5 -105zM449 315.002c-4 44 -19.5 77.167 -46.5 99.5s-59.5 33.5 -97.5 33.5c-42 0 -75.833 -12.333 -101.5 -37s-40.167 -56.667 -43.5 -96h289z" />
    <glyph glyph-name="f" unicode="f" horiz-adv-x="363" 
d="M350 626c-7.33301 2 -16.333 4.16797 -27 6.50098s-22.667 3.5 -36 3.5c-22 0 -38.667 -4.5 -50 -13.5s-17 -24.833 -17 -47.5v-50h118v-85h-118v-440h-111v440h-87v85h87v47c0 49.333 14.667 87.166 44 113.499s71 39.5 125 39.5c15.333 0 30.5 -0.833008 45.5 -2.5
s28.167 -4.5 39.5 -8.5z" />
    <glyph glyph-name="g" unicode="g" horiz-adv-x="643" 
d="M571 92c0 -40.667 -4.16699 -76.8311 -12.5 -108.498s-23.5 -59.834 -45.5 -84.501c-28 -31.333 -62.167 -53 -102.5 -65s-82.833 -18 -127.5 -18c-86.667 0 -160.667 20.333 -222 61l48 88c22.667 -16 48.667 -28.667 78 -38s61.333 -14 96 -14
c24.667 0 47.834 2.83301 69.501 8.5s40.5 14.667 56.5 27s28.5 28.166 37.5 47.499s13.5 43 13.5 71v49c-21.333 -30 -48 -52.167 -80 -66.5s-66 -21.5 -102 -21.5c-35.333 0 -67.5 6.5 -96.5 19.5s-54 30.667 -75 53s-37.167 49 -48.5 80s-17 64.5 -17 100.5
c0 36.667 5.83301 70.5 17.5 101.5s28.167 58 49.5 81s46.666 41 75.999 54s61.666 19.5 96.999 19.5c36.667 0 70.334 -7.33301 101.001 -22s56.667 -37 78 -67v77h111v-433zM461 283.003c0 22 -3.33398 42.667 -10.001 62s-16.5 36 -29.5 50s-29.167 25.167 -48.5 33.5
s-41.333 12.5 -66 12.5c-25.333 0 -47.166 -4.16699 -65.499 -12.5s-33.833 -19.666 -46.5 -33.999s-22 -31 -28 -50s-9 -39.5 -9 -61.5s3.16699 -42.667 9.5 -62s15.666 -36.333 27.999 -51s27.833 -26.167 46.5 -34.5s40.334 -12.5 65.001 -12.5s46.5 4.16699 65.5 12.5
s35 19.666 48 33.999s23 31.333 30 51s10.5 40.5 10.5 62.5z" />
    <glyph glyph-name="h" unicode="h" horiz-adv-x="603" 
d="M73 0l0.00195312 713.998h110v-266c21.333 28.667 46.333 50.667 75 66s61 23 97 23c58 0 102.667 -17.667 134 -53s47 -82.666 47 -141.999v-342h-110v317c0 14 -1.33301 28 -4 42s-7.83398 26.833 -15.501 38.5s-18.334 21 -32.001 28s-31.167 10.5 -52.5 10.5
c-19.333 0 -37.5 -3.33301 -54.5 -10s-31.833 -16.167 -44.5 -28.5s-22.5 -27.166 -29.5 -44.499s-10.5 -37 -10.5 -59v-294h-110z" />
    <glyph glyph-name="i" unicode="i" horiz-adv-x="256" 
d="M73 0v525h110v-525h-110zM73 610v104h110v-104h-110z" />
    <glyph glyph-name="j" unicode="j" horiz-adv-x="257" 
d="M184 5c0 -32 -4.33301 -59.6689 -13 -83.002s-21 -42.666 -37 -57.999s-35 -26.833 -57 -34.5s-46.333 -11.5 -73 -11.5c-17.333 0 -34.333 1.83301 -51 5.5s-31 8.5 -43 14.5l30 86c7.33301 -3.33301 15.5 -6.16602 24.5 -8.49902s18.833 -3.5 29.5 -3.5
c29.333 0 49.833 8 61.5 24s17.5 38 17.5 66v523h111v-520zM73 609.998v104h111v-104h-111z" />
    <glyph glyph-name="k" unicode="k" horiz-adv-x="585" 
d="M423 525h135l-205 -211l231 -314h-136l-171 240l-94 -96v-144h-110v714h110v-442z" />
    <glyph glyph-name="l" unicode="l" horiz-adv-x="258" 
d="M74 0v714h110v-714h-110z" />
    <glyph glyph-name="m" unicode="m" horiz-adv-x="926" 
d="M73 0v525h110v-75c21.333 28 45.5 49.5 72.5 64.5s57.5 22.5 91.5 22.5c38.667 0 71 -8.66699 97 -26s44.667 -42 56 -74c23.333 32.667 50.5 57.5 81.5 74.5s64.833 25.5 101.5 25.5c57.333 0 101 -17.5 131 -52.5s45 -81.5 45 -139.5v-345h-110v319
c0 14.667 -1.33301 29 -4 43s-7.5 26.5 -14.5 37.5s-17 19.833 -30 26.5s-29.833 10 -50.5 10c-36.667 0 -67.334 -12.5 -92.001 -37.5s-37 -59.167 -37 -102.5v-296h-110v319c0 14.667 -1.33301 29 -4 43s-7.5 26.5 -14.5 37.5s-17 19.833 -30 26.5s-29.833 10 -50.5 10
c-37.333 0 -68.166 -12.5 -92.499 -37.5s-36.5 -59.167 -36.5 -102.5v-296h-110z" />
    <glyph glyph-name="n" unicode="n" horiz-adv-x="603" 
d="M73 0l0.00195312 524.998h110v-77c21.333 28.667 46.333 50.667 75 66s61 23 97 23c58 0 102.667 -17.667 134 -53s47 -82.666 47 -141.999v-342h-110v317c0 14 -1.33301 28 -4 42s-7.83398 26.833 -15.501 38.5s-18.334 21 -32.001 28s-31.167 10.5 -52.5 10.5
c-19.333 0 -37.5 -3.33301 -54.5 -10s-31.833 -16.167 -44.5 -28.5s-22.5 -27.166 -29.5 -44.499s-10.5 -37 -10.5 -59v-294h-110z" />
    <glyph glyph-name="o" unicode="o" horiz-adv-x="612" 
d="M572 262c0 -40 -6.16699 -76.833 -18.5 -110.5s-30 -62.5 -53 -86.5s-51 -42.833 -84 -56.5s-69.833 -20.5 -110.5 -20.5s-77.5 6.83301 -110.5 20.5s-61 32.5 -84 56.5s-40.667 52.833 -53 86.5s-18.5 70.5 -18.5 110.5s6.16699 76.833 18.5 110.5s30 62.667 53 87
s51 43.333 84 57s69.833 20.5 110.5 20.5s77.5 -6.83301 110.5 -20.5s61 -32.667 84 -57s40.667 -53.333 53 -87s18.5 -70.5 18.5 -110.5zM454 262c0 25.333 -3.33301 49 -10 71s-16.167 41 -28.5 57s-27.666 28.5 -45.999 37.5s-39.5 13.5 -63.5 13.5
s-45.167 -4.5 -63.5 -13.5s-33.833 -21.5 -46.5 -37.5s-22.334 -35 -29.001 -57s-10 -45.667 -10 -71s3.33301 -48.833 10 -70.5s16.334 -40.5 29.001 -56.5s28.167 -28.5 46.5 -37.5s39.5 -13.5 63.5 -13.5s45.167 4.5 63.5 13.5s33.666 21.5 45.999 37.5
s21.833 34.833 28.5 56.5s10 45.167 10 70.5z" />
    <glyph glyph-name="p" unicode="p" horiz-adv-x="641" 
d="M183 525v-77.001c24 32 51 54.833 81 68.5s62.333 20.5 97 20.5c37.333 0 70.833 -7 100.5 -21s54.834 -33.333 75.501 -58s36.5 -53.667 47.5 -87s16.5 -69.333 16.5 -108c0 -39.333 -5.5 -75.666 -16.5 -108.999s-27 -62.333 -48 -87s-46.333 -44 -76 -58
s-62.834 -21 -99.501 -21c-34.667 0 -67 6.83301 -97 20.5s-57 36.167 -81 67.5v-250h-110v699h110zM183 261.999c0 -24 3.33398 -46.667 10.001 -68s16.5 -40 29.5 -56s29 -28.5 48 -37.5s40.833 -13.5 65.5 -13.5s46.334 4.66699 65.001 14s34.167 21.833 46.5 37.5
s21.5 34.167 27.5 55.5s9 44 9 68s-3 46.667 -9 68s-15.167 40 -27.5 56s-27.833 28.667 -46.5 38s-40.334 14 -65.001 14c-25.333 0 -47.5 -4.66699 -66.5 -14s-34.833 -22 -47.5 -38s-22.334 -34.667 -29.001 -56s-10 -44 -10 -68z" />
    <glyph glyph-name="q" unicode="q" horiz-adv-x="642" 
d="M458 -174l-0.000976562 249.998c-23.333 -31.333 -50.166 -53.833 -80.499 -67.5s-62.5 -20.5 -96.5 -20.5c-37.333 0 -70.833 7 -100.5 21s-55 33.333 -76 58s-37 53.667 -48 87s-16.5 69.333 -16.5 108s5.5 74.834 16.5 108.501s27 62.834 48 87.501s46.333 44 76 58
s63.167 21 100.5 21c34.667 0 67 -6.83301 97 -20.5s56.667 -36.5 80 -68.5v77h111v-699h-111zM457.999 262.998c0 24 -3.33301 46.667 -10 68s-16.334 40 -29.001 56s-28.667 28.5 -48 37.5s-41.333 13.5 -66 13.5c-25.333 0 -47.166 -4.5 -65.499 -13.5
s-33.666 -21.5 -45.999 -37.5s-21.5 -34.667 -27.5 -56s-9 -44 -9 -68s3 -46.667 9 -68s15.167 -40 27.5 -56s27.666 -28.667 45.999 -38s40.166 -14 65.499 -14c24.667 0 46.667 4.66699 66 14s35.333 22 48 38s22.334 34.667 29.001 56s10 44 10 68z" />
    <glyph glyph-name="r" unicode="r" horiz-adv-x="406" 
d="M369 409c-8.66699 4.66699 -17.832 8.50098 -27.499 11.501s-20.5 4.5 -32.5 4.5c-16.667 0 -32.667 -3.5 -48 -10.5s-28.666 -17.333 -39.999 -31s-20.5 -30.334 -27.5 -50.001s-10.5 -41.834 -10.5 -66.501v-267h-110v525h110v-85c17.333 28 38.666 50.833 63.999 68.5
s53.333 26.5 84 26.5c14.667 0 28.167 -1.66699 40.5 -5s22.166 -7.66602 29.499 -12.999z" />
    <glyph glyph-name="s" unicode="s" horiz-adv-x="534" 
d="M495 160c0 -52 -19.6689 -93.667 -59.002 -125s-94.333 -47 -165 -47c-54 0 -101.833 10 -143.5 30s-75.167 49.333 -100.5 88l78 55c20 -28 45.167 -48.833 75.5 -62.5s62.5 -20.5 96.5 -20.5c32.667 0 59 5.83301 79 17.5s30 29.167 30 52.5c0 12 -3 21.833 -9 29.5
s-14.667 14 -26 19s-25.166 9.33301 -41.499 13s-35.166 7.16699 -56.499 10.5c-27.333 4.66699 -53 10.5 -77 17.5s-45 16.333 -63 28s-32.167 26.5 -42.5 44.5s-15.5 40.667 -15.5 68s5.66699 51 17 71s26.5 36.5 45.5 49.5s40.833 22.667 65.5 29s50.667 9.5 78 9.5
c26.667 0 51.334 -2.66699 74.001 -8s43.5 -12.333 62.5 -21s36 -18.5 51 -29.5s27.833 -22.167 38.5 -33.5l-70 -64c-17.333 20 -39.5 36 -66.5 48s-57.167 18 -90.5 18c-12.667 0 -24.834 -1.16699 -36.501 -3.5s-22 -5.83301 -31 -10.5s-16.333 -10.834 -22 -18.501
s-8.5 -16.5 -8.5 -26.5c0 -11.333 3.33301 -20.666 10 -27.999s15.667 -13.5 27 -18.5s24.5 -9.16699 39.5 -12.5s31.167 -6.33301 48.5 -9c28 -5.33301 54.5 -11.333 79.5 -18s47 -16 66 -28s34.167 -27 45.5 -45s17 -41 17 -69z" />
    <glyph glyph-name="t" unicode="t" horiz-adv-x="418" 
d="M404 27c-34 -26 -75.667 -38.998 -125 -38.998c-32 0 -60 5.33301 -84 16s-43.333 27.667 -58 51c-9.33301 13.333 -15.833 28.666 -19.5 45.999s-5.5 38.666 -5.5 63.999v275h-106v85h106v189h111v-189h162v-85h-162v-276c0 -52 23.667 -78 71 -78
c14.667 0 27.5 2.33301 38.5 7s20.167 10 27.5 16z" />
    <glyph glyph-name="u" unicode="u" horiz-adv-x="603" 
d="M530 525v-524.998h-110v76c-21.333 -28 -46.333 -49.667 -75 -65s-61 -23 -97 -23c-58 0 -102.667 17.667 -134 53s-47 82.666 -47 141.999v342h110v-317c0 -14 1.33301 -28 4 -42s7.83398 -26.833 15.501 -38.5s18.167 -21 31.5 -28s31 -10.5 53 -10.5
c19.333 0 37.5 3.33301 54.5 10s31.667 16.167 44 28.5s22.166 27.166 29.499 44.499s11 37 11 59v294h110z" />
    <glyph glyph-name="v" unicode="v" horiz-adv-x="547" 
d="M330 0h-114l-207 525h124l142 -394l141 394h122z" />
    <glyph glyph-name="w" unicode="w" horiz-adv-x="803" 
d="M633 0h-118l-113 382l-116 -382h-117l-145 525h119l95 -384l115 384h101l114 -384l94 384h117z" />
    <glyph glyph-name="x" unicode="x" horiz-adv-x="556" 
d="M411 0l-133 199l-135 -199h-133l197 274l-179 251h132l120 -181l119 181h130l-178 -252l194 -273h-134z" />
    <glyph glyph-name="y" unicode="y" horiz-adv-x="603" 
d="M420 116c-21.333 -28 -46.333 -49.668 -75 -65.001s-61 -23 -97 -23c-58 0 -102.667 17.667 -134 53s-47 82.666 -47 141.999v302h110v-276c0 -14 1.33301 -28.167 4 -42.5s7.83398 -27.166 15.501 -38.499s18.167 -20.666 31.5 -27.999s31 -11 53 -11
c19.333 0 37.5 3.33301 54.5 10s31.667 16.167 44 28.5s22.166 27.166 29.499 44.499s11 37 11 59v254h110v-454c0 -36 -4 -69.167 -12 -99.5s-23 -57.166 -45 -80.499c-23.333 -24 -52.333 -42.5 -87 -55.5s-75.334 -19.5 -122.001 -19.5
c-40.667 0 -78.167 5.16699 -112.5 15.5s-65.166 25.166 -92.499 44.499l48 85c23.333 -17.333 48.5 -29.666 75.5 -36.999s54.167 -11 81.5 -11c22 0 42.5 2.5 61.5 7.5s35.5 12.833 49.5 23.5s25 24.5 33 41.5s12 37.5 12 61.5v69z" />
    <glyph glyph-name="z" unicode="z" horiz-adv-x="521" 
d="M39 0v85l282 343h-270v97h420v-84l-281 -344h290v-97h-441z" />
    <glyph glyph-name="braceleft" unicode="{" horiz-adv-x="370" 
d="M306 -112c-24.667 0 -47.334 3.66895 -68.001 11.002s-38.334 18.166 -53.001 32.499s-26.167 31.833 -34.5 52.5s-12.5 44.667 -12.5 72v117c0 26.667 -5.83301 48.5 -17.5 65.5s-33.5 25.5 -65.5 25.5h-36v78h36c32 0 53.833 8.5 65.5 25.5s17.5 38.833 17.5 65.5v117
c0 26.667 4.16699 50.5 12.5 71.5s19.833 38.667 34.5 53s32.334 25.166 53.001 32.499s43.334 11 68.001 11h56v-78h-40c-32 0 -54.5 -8.66699 -67.5 -26s-19.5 -41 -19.5 -71v-96c0 -74 -29.333 -122 -88 -144c58.667 -21.333 88 -69 88 -143v-97
c0 -30 6.5 -53.667 19.5 -71s35.5 -26 67.5 -26h40v-78h-56z" />
    <glyph glyph-name="bar" unicode="|" horiz-adv-x="235" 
d="M75 -108v822h85v-822h-85z" />
    <glyph glyph-name="braceright" unicode="}" horiz-adv-x="370" 
d="M316 264c-32 0 -54 -8.5 -66 -25.5s-18 -38.833 -18 -65.5v-117c0 -54 -15.333 -95.5 -46 -124.5s-71 -43.5 -121 -43.5h-57v78h40c33.333 0 56.333 8.66699 69 26s19 41 19 71v96c0 74 29.333 122 88 144c-58.667 21.333 -88 69 -88 143v97c0 30 -6.33301 53.667 -19 71
s-35.667 26 -69 26h-40v78h57c50 0 90.333 -14.5 121 -43.5s46 -70.5 46 -124.5v-117c0 -26.667 6 -48.5 18 -65.5s34 -25.5 66 -25.5h35v-78h-35z" />
    <glyph glyph-name="asciitilde" unicode="~" horiz-adv-x="612" 
d="M570 347c-28 -40 -55.167 -70.333 -81.5 -91s-57.833 -31 -94.5 -31c-15.333 0 -30 2.16699 -44 6.5s-29.667 12.5 -47 24.5c-20.667 14 -37.167 24.333 -49.5 31s-26.166 10 -41.499 10c-17.333 0 -34.5 -5 -51.5 -15s-36.833 -29 -59.5 -57l-56 45
c14 20 27.5 37.667 40.5 53s26.5 28 40.5 38s28.667 17.667 44 23s32.333 8 51 8c15.333 0 30 -2.16699 44 -6.5s29.667 -12.5 47 -24.5c20.667 -14 37.167 -24.333 49.5 -31s26.166 -10 41.499 -10c17.333 0 34.5 5 51.5 15s36.833 29 59.5 57z" />
    <glyph glyph-name="uni00A0" unicode="&#xa0;" horiz-adv-x="270" 
 />
    <glyph glyph-name="exclamdown" unicode="&#xa1;" horiz-adv-x="280" 
d="M79 -142v153l32 303h58l32 -303v-153h-122zM79 400v125h122v-125h-122z" />
    <glyph glyph-name="cent" unicode="&#xa2;" 
d="M533 104c-20 -30 -45.666 -55.499 -76.999 -76.499s-69 -33.5 -113 -37.5v-84h-56v84c-36 2.66699 -68.5 11.5 -97.5 26.5s-53.5 34.5 -73.5 58.5s-35.5 52 -46.5 84s-16.5 66.333 -16.5 103s5.5 71.167 16.5 103.5s26.667 60.5 47 84.5s44.833 43.5 73.5 58.5
s61 24.167 97 27.5v82h56v-83c42 -4 78.5 -16.333 109.5 -37s56.833 -46.667 77.5 -78l-83 -59c-11.333 20.667 -25.833 37.667 -43.5 51s-37.834 22 -60.501 26v-352c24 4 44.667 12.667 62 26s32.333 29.666 45 48.999zM168.001 263.001c0 -46 10 -84.833 30 -116.5
s49.667 -51.167 89 -58.5v349c-39.333 -7.33301 -69 -26.833 -89 -58.5s-30 -70.167 -30 -115.5z" />
    <glyph glyph-name="sterling" unicode="&#xa3;" 
d="M576 104c-16.667 -40 -37.502 -69.3301 -62.502 -87.9971s-53.167 -28 -84.5 -28c-17.333 0 -34.166 2.33301 -50.499 7s-32.666 9.66699 -48.999 15s-32.833 10.333 -49.5 15s-34 7 -52 7c-19.333 0 -43 -3.5 -71 -10.5s-55.333 -18.167 -82 -33.5l-41 86
c37.333 20 64 41.333 80 64s24 46.667 24 72c0 9.33301 -1 19.833 -3 31.5s-5.33301 23.834 -10 36.501h-104v75h76c-5.33301 12.667 -9.83301 24.334 -13.5 35.001s-6.83398 20.667 -9.50098 30s-4.66699 18.666 -6 27.999s-2 19.333 -2 30c0 31.333 6 59.5 18 84.5
s28.5 46.167 49.5 63.5s46 30.666 75 39.999s60.5 14 94.5 14c54.667 0 101.834 -11.667 141.501 -35s73.167 -57 100.5 -101l-97 -52c-14 23.333 -32.167 42.666 -54.5 57.999s-50.5 23 -84.5 23s-62.667 -8.83301 -86 -26.5s-35 -43.834 -35 -78.501
c0 -20.667 3.5 -40.334 10.5 -59.001s14.167 -36.667 21.5 -54h188v-75h-167c3.33301 -9.33301 5.66602 -18.833 6.99902 -28.5s2 -17.834 2 -24.501c0 -15.333 -4.16699 -33.666 -12.5 -54.999s-21.166 -40 -38.499 -56c13.333 6 26.666 9.83301 39.999 11.5s24 2.5 32 2.5
c15.333 0 29.5 -1.5 42.5 -4.5s25.333 -6.5 37 -10.5s22.834 -7.5 33.501 -10.5s21.667 -4.5 33 -4.5c17.333 0 31.5 4.66699 42.5 14s20.167 24 27.5 44z" />
    <glyph glyph-name="currency" unicode="&#xa4;" 
d="M179 303c0 -16 3 -30.833 9 -44.5s14.167 -25.667 24.5 -36s22.333 -18.5 36 -24.5s28.5 -9 44.5 -9s31 3 45 9s26.167 14.167 36.5 24.5s18.5 22.333 24.5 36s9 28.5 9 44.5s-3 31 -9 45s-14.167 26.167 -24.5 36.5s-22.5 18.5 -36.5 24.5s-29 9 -45 9
s-30.833 -3 -44.5 -9s-25.667 -14.167 -36 -24.5s-18.5 -22.5 -24.5 -36.5s-9 -29 -9 -45zM98 303c0 18.667 2.5 36.5029 7.5 53.5029s12.167 32.833 21.5 47.5l-75 74l67 67l75 -75c29.333 18.667 62.333 28 99 28s69.667 -9.33301 99 -28l76 75l66 -67l-74 -75
c8.66699 -14.667 15.5 -30.334 20.5 -47.001s7.5 -34.334 7.5 -53.001c0 -18 -2.5 -35.333 -7.5 -52s-11.833 -32.334 -20.5 -47.001l74 -74l-66 -67l-75 74c-14 -9.33301 -29.5 -16.5 -46.5 -21.5s-34.833 -7.5 -53.5 -7.5c-18 0 -35.5 2.5 -52.5 7.5
s-32.833 12.167 -47.5 21.5l-74 -74l-67 67l75 73c-9.33301 14.667 -16.5 30.5 -21.5 47.5s-7.5 34.5 -7.5 52.5z" />
    <glyph glyph-name="yen" unicode="&#xa5;" 
d="M397 351h129v-57h-160l-15 -25v-55h175v-58h-175v-156h-116v156h-176v58h176v54l-15 26h-161v57h131l-171 315h135l142 -290l139 290h133z" />
    <glyph glyph-name="brokenbar" unicode="&#xa6;" horiz-adv-x="227" 
d="M77 398v316h73v-316h-73zM77 -108v316h73v-316h-73z" />
    <glyph glyph-name="section" unicode="&#xa7;" horiz-adv-x="558" 
d="M248 110c-28.667 17.333 -55.8359 35.834 -81.5029 55.501s-48 41.5 -67 65.5s-34.167 50.5 -45.5 79.5s-17 61.5 -17 97.5c0 38 6.33301 73.5 19 106.5s30.667 61.667 54 86s52 43.5 86 57.5s72 21 114 21c38 0 73.833 -5.83301 107.5 -17.5
s63.834 -29.167 90.501 -52.5l-62 -79c-17.333 16.667 -37.333 29.667 -60 39s-48 14 -76 14c-30 0 -56.5 -5.5 -79.5 -16.5s-41.5 -27.167 -55.5 -48.5l131 -78c28.667 -17.333 55.834 -35.833 81.501 -55.5s48 -41.5 67 -65.5s34.167 -50.5 45.5 -79.5s17 -61.5 17 -97.5
c0 -38 -6.33301 -73.5 -19 -106.5s-30.667 -61.667 -54 -86s-52 -43.5 -86 -57.5s-72 -21 -114 -21c-38 0 -73.667 5.66699 -107 17s-63.333 28.666 -90 51.999l61 79c17.333 -16.667 37.333 -29.667 60 -39s48.334 -14 77.001 -14c29.333 0 56.333 5.5 81 16.5
s43.667 26.5 57 46.5zM143.998 452.001c-3.33301 -14.667 -5 -26.667 -5 -36c0 -28 4.16699 -53.167 12.5 -75.5s20.5 -43.333 36.5 -63s35.667 -39 59 -58s50 -39.167 80 -60.5l86 -61c1.33301 6.66699 2.33301 13.167 3 19.5s1 11.833 1 16.5
c0 28 -4.16699 53.167 -12.5 75.5s-20.5 43.333 -36.5 63s-35.667 39 -59 58s-50 39.167 -80 60.5z" />
    <glyph glyph-name="dieresis" unicode="&#xa8;" horiz-adv-x="321" 
d="M8 594v91h89v-91h-89zM224 594v91h88v-91h-88z" />
    <glyph glyph-name="copyright" unicode="&#xa9;" horiz-adv-x="781" 
d="M742 333c0 -48 -9.16699 -93.333 -27.5 -136s-43.5 -80 -75.5 -112s-69.333 -57.167 -112 -75.5s-88 -27.5 -136 -27.5c-48.667 0 -94.334 9.16699 -137.001 27.5s-80 43.5 -112 75.5s-57.167 69.333 -75.5 112s-27.5 88 -27.5 136c0 48.667 9.16699 94.334 27.5 137.001
s43.5 79.834 75.5 111.501s69.333 56.667 112 75s88.334 27.5 137.001 27.5c48 0 93.333 -9.16699 136 -27.5s80 -43.333 112 -75s57.167 -68.834 75.5 -111.501s27.5 -88.334 27.5 -137.001zM681 333c0 40.667 -7.66602 78.667 -22.999 114s-36 66.166 -62 92.499
s-56.667 47 -92 62s-73 22.5 -113 22.5s-77.667 -7.5 -113 -22.5s-66.333 -35.667 -93 -62s-47.667 -57.166 -63 -92.499s-23 -73.333 -23 -114c0 -40 7.66699 -77.667 23 -113s36.166 -66.166 62.499 -92.499s57.333 -47.166 93 -62.499s73.5 -23 113.5 -23
s77.667 7.66699 113 23s66 36.166 92 62.499s46.667 57.166 62 92.499s23 73 23 113zM571.001 234c-20.667 -34 -46.666 -60.002 -77.999 -78.002s-65.333 -27 -102 -27c-28 0 -54.333 5.33301 -79 16s-46.334 25.167 -65.001 43.5s-33.334 40 -44.001 65s-16 51.5 -16 79.5
c0 28.667 5.33301 55.334 16 80.001s25.334 46.334 44.001 65.001s40.334 33.334 65.001 44.001s51 16 79 16c36.667 0 70.167 -8.83301 100.5 -26.5s56.166 -43.5 77.499 -77.5l-67 -44c-12.667 21.333 -28.667 37.5 -48 48.5s-40 16.5 -62 16.5
c-16.667 0 -32.5 -3.16699 -47.5 -9.5s-28 -15 -39 -26s-19.667 -24 -26 -39s-9.5 -30.833 -9.5 -47.5s3.16699 -32.334 9.5 -47.001s15 -27.5 26 -38.5s24 -19.833 39 -26.5s30.833 -10 47.5 -10c22.667 0 43.5 5.83301 62.5 17.5s35.167 28.167 48.5 49.5z" />
    <glyph glyph-name="ordfeminine" unicode="&#xaa;" horiz-adv-x="441" 
d="M399 333c-6.66699 -3.33301 -14.9961 -5.66699 -24.9961 -7s-18.333 -2 -25 -2c-16.667 0 -31.334 3.16699 -44.001 9.5s-21.667 17.5 -27 33.5c-15.333 -18 -33 -30.167 -53 -36.5s-40.667 -9.5 -62 -9.5c-34.667 0 -63.334 9 -86.001 27s-34 44 -34 78
c0 25.333 5.5 44.833 16.5 58.5s24.5 23.834 40.5 30.501s33.667 11 53 13s37 4 53 6s29.5 5.16699 40.5 9.5s16.5 12.166 16.5 23.499c0 7.33301 -2 13.333 -6 18s-9.33301 8.5 -16 11.5s-13.834 5 -21.501 6s-15.5 1.5 -23.5 1.5c-17.333 0 -35.5 -2.83301 -54.5 -8.5
s-36.833 -14.167 -53.5 -25.5l-32 60c21.333 14.667 44.833 25.5 70.5 32.5s51.167 10.5 76.5 10.5c48 0 84 -10.167 108 -30.5s36 -53.5 36 -99.5v-132c0 -16.667 6.66699 -25 20 -25c2 0 5.16699 0.333008 9.5 1s8.16602 2 11.499 4zM265.004 498.999
c-9.33301 -7.33301 -19.667 -12.501 -31 -15.501s-25.666 -5.83301 -42.999 -8.5c-10 -1.33301 -19.167 -2.83301 -27.5 -4.5s-15.5 -4.16699 -21.5 -7.5s-10.667 -7.66602 -14 -12.999s-5 -12.333 -5 -21c0 -15.333 5.66699 -26.5 17 -33.5s24.666 -10.5 39.999 -10.5
c22.667 0 42.5 5.83301 59.5 17.5s25.5 30.167 25.5 55.5v41z" />
    <glyph glyph-name="guillemotleft" unicode="&#xab;" horiz-adv-x="482" 
d="M27 282l151 196l59 -45l-118 -171l118 -171l-59 -45l-151 197v39zM227 282l150 196l60 -45l-118 -171l118 -171l-60 -45l-150 197v39z" />
    <glyph glyph-name="logicalnot" unicode="&#xac;" horiz-adv-x="604" 
d="M449 59v198h-397v94h490v-292h-93z" />
    <glyph glyph-name="uni00AD" unicode="&#xad;" horiz-adv-x="400" 
d="M58 232v98h284v-98h-284z" />
    <glyph glyph-name="registered" unicode="&#xae;" horiz-adv-x="462" 
d="M320 389h-49l-33 70h-42v-70h-43v197h92c21.333 0 38.333 -5.66699 51 -17s19 -26.333 19 -45c0 -14.667 -3.5 -27 -10.5 -37s-16.167 -17 -27.5 -21zM271 523c0 8.66699 -2.83301 15.501 -8.5 20.501s-12.167 7.5 -19.5 7.5h-47v-58h47c7.33301 0 13.833 2.66699 19.5 8
s8.5 12.666 8.5 21.999zM40 487.001c0 26 5 50.667 15 74s23.667 43.666 41 60.999s37.5 31 60.5 41s47.833 15 74.5 15c26 0 50.667 -5 74 -15s43.666 -23.667 60.999 -41s31 -37.666 41 -60.999s15 -48 15 -74c0 -26.667 -5 -51.5 -15 -74.5s-23.667 -43.167 -41 -60.5
s-37.666 -31 -60.999 -41s-48 -15 -74 -15c-26.667 0 -51.5 5 -74.5 15s-43.167 23.667 -60.5 41s-31 37.5 -41 60.5s-15 47.833 -15 74.5zM66 487.001c0 -22.667 4.33301 -44 13 -64s20.5 -37.5 35.5 -52.5s32.5 -26.833 52.5 -35.5s41.333 -13 64 -13
s43.834 4.33301 63.501 13s37 20.5 52 35.5s26.833 32.5 35.5 52.5s13 41.333 13 64s-4.33301 44 -13 64s-20.5 37.5 -35.5 52.5s-32.333 26.833 -52 35.5s-40.834 13 -63.501 13s-44 -4.33301 -64 -13s-37.5 -20.5 -52.5 -35.5s-26.833 -32.5 -35.5 -52.5
s-13 -41.333 -13 -64z" />
    <glyph glyph-name="macron" unicode="&#xaf;" horiz-adv-x="338" 
d="M10 604v67h311v-67h-311z" />
    <glyph glyph-name="degree" unicode="&#xb0;" horiz-adv-x="381" 
d="M345 523c0 -21.333 -4.16699 -41.333 -12.5 -60s-19.5 -35 -33.5 -49s-30.333 -25 -49 -33s-38.334 -12 -59.001 -12c-21.333 0 -41.333 4 -60 12s-35 19 -49 33s-25 30.333 -33 49s-12 38.667 -12 60s4 41.333 12 60s19 35 33 49s30.333 25.167 49 33.5
s38.667 12.5 60 12.5c20.667 0 40.334 -4.16699 59.001 -12.5s35 -19.5 49 -33.5s25.167 -30.333 33.5 -49s12.5 -38.667 12.5 -60zM275 523c0 23.333 -8.16699 43.333 -24.5 60s-36.166 25 -59.499 25s-43.333 -8.33301 -60 -25s-25 -36.667 -25 -60
c0 -22.667 8.33301 -42.334 25 -59.001s36.667 -25 60 -25s43.166 8.33301 59.499 25s24.5 36.334 24.5 59.001z" />
    <glyph glyph-name="plusminus" unicode="&#xb1;" 
d="M48 0v94h491v-94h-491zM341 340v-184h-95v184h-198v94h198v186h95v-186h198v-94h-198z" />
    <glyph glyph-name="twosuperior" unicode="&#xb2;" horiz-adv-x="388" 
d="M36 334v64l102.5 80c27.667 22.667 50 42.834 67 60.501s29.167 33.5 36.5 47.5s11 27.667 11 41c0 20 -7.5 35.333 -22.5 46s-32.167 16 -51.5 16c-18.667 0 -35.667 -4.83301 -51 -14.5s-28 -22.834 -38 -39.501l-68 39c18.667 28 41.667 50.5 69 67.5s59 25.5 95 25.5
c22.667 0 43.667 -3 63 -9s36 -14.833 50 -26.5s24.833 -25.834 32.5 -42.501s11.5 -35.667 11.5 -57c0 -18 -2.83301 -34.833 -8.5 -50.5s-15.167 -32 -28.5 -49s-31 -35.167 -53 -54.5s-49 -41.666 -81 -66.999h187v-77h-323z" />
    <glyph glyph-name="threesuperior" unicode="&#xb3;" horiz-adv-x="394" 
d="M360 458c0 -19.333 -3.83203 -36.998 -11.499 -52.998s-18.667 -29.833 -33 -41.5s-31.5 -20.834 -51.5 -27.501s-42.333 -10 -67 -10c-42 0 -77.5 8.16699 -106.5 24.5s-51.833 42.5 -68.5 78.5l75 26c11.333 -20.667 26 -34.5 44 -41.5s36.667 -10.5 56 -10.5
c23.333 0 41.666 5.5 54.999 16.5s20 24.833 20 41.5c0 16 -6 28.5 -18 37.5s-28.333 13.5 -49 13.5h-56v74h53c6 0 12.5 1 19.5 3s13.5 5 19.5 9s11 9.16699 15 15.5s6 14.166 6 23.499c0 18.667 -7.33301 32.167 -22 40.5s-31.667 12.5 -51 12.5
c-20 0 -38 -3.83301 -54 -11.5s-29.333 -19.834 -40 -36.501l-66 36c38.667 59.333 94 89 166 89c20.667 0 40.167 -2.5 58.5 -7.5s34.5 -12.5 48.5 -22.5s25 -22.5 33 -37.5s12 -32.5 12 -52.5c0 -19.333 -3.83301 -36.666 -11.5 -51.999s-20.167 -28 -37.5 -38
c23.333 -9.33301 39.5 -23.333 48.5 -42s13.5 -37.667 13.5 -57z" />
    <glyph glyph-name="acute" unicode="&#xb4;" horiz-adv-x="321" 
d="M91 604c15.333 18 31.167 38.668 47.5 62.001s29.166 44.666 38.499 63.999l98 -16c-5.33301 -12.667 -13.166 -25.5 -23.499 -38.5s-22 -25.667 -35 -38s-26.667 -23.833 -41 -34.5s-28.5 -20 -42.5 -28z" />
    <glyph glyph-name="mu" unicode="&#xb5;" 
d="M60 -174l0.00195312 699h110v-316c0 -38 8 -68.167 24 -90.5s42 -33.5 78 -33.5c17.333 0 33.833 3 49.5 9s29.334 15 41.001 27s21 26.833 28 44.5s10.5 38.167 10.5 61.5v298h110v-404c0 -16 2.33301 -27.833 7 -35.5s13 -11.5 25 -11.5c4 0 8.5 0.5 13.5 1.5
s8.83301 2.5 11.5 4.5l10 -77c-8 -4 -17.833 -6.83301 -29.5 -8.5s-21.834 -2.5 -30.501 -2.5c-26 0 -48.667 6.5 -68 19.5s-31 33.167 -35 60.5c-18.667 -29.333 -41.334 -50.666 -68.001 -63.999s-53.334 -20 -80.001 -20c-22 0 -41.333 4.16699 -58 12.5
s-29.667 19.166 -39 32.499v-207h-110z" />
    <glyph glyph-name="paragraph" unicode="&#xb6;" horiz-adv-x="563" 
d="M434 -91l0.00292969 688h-62v-688h-76v338h-51c-30 0 -57.833 5 -83.5 15s-47.834 24 -66.501 42s-33.334 40 -44.001 66s-16 55 -16 87s5.5 60.833 16.5 86.5s26 47.667 45 66s41.167 32.333 66.5 42s52.666 14.5 81.999 14.5h241v-757h-52z" />
    <glyph glyph-name="periodcentered" unicode="&#xb7;" horiz-adv-x="264" 
d="M206 304c0 -20 -7.16699 -37.333 -21.5 -52s-31.5 -22 -51.5 -22c-20.667 0 -38.334 7.33301 -53.001 22s-22 32 -22 52c0 20.667 7.33301 38.334 22 53.001s32.334 22 53.001 22c20 0 37.167 -7.33301 51.5 -22s21.5 -32.334 21.5 -53.001z" />
    <glyph glyph-name="cedilla" unicode="&#xb8;" horiz-adv-x="321" 
d="M45 -75c8 -8 18 -14.9971 30 -20.9971s25.333 -9 40 -9c14 0 25.833 3.66699 35.5 11s14.5 17.666 14.5 30.999s-4.66699 25.666 -14 36.999s-21.666 21.666 -36.999 30.999l30 17c28 -10 50.833 -24.333 68.5 -43s26.5 -39.667 26.5 -63c0 -26.667 -10.5 -48 -31.5 -64
s-47.5 -24 -79.5 -24c-18.667 0 -35.334 2.5 -50.001 7.5s-25.667 11.167 -33 18.5v71z" />
    <glyph glyph-name="onesuperior" unicode="&#xb9;" horiz-adv-x="334" 
d="M146 409l-0.00195312 254.002c-12.667 -4.66699 -28.667 -9.16699 -48 -13.5s-38.666 -7.83301 -57.999 -10.5l-11 67c32.667 5.33301 60.334 12.166 83.001 20.499s41 19.166 55 32.499h64v-350h91v-75h-282v75h106z" />
    <glyph glyph-name="ordmasculine" unicode="&#xba;" horiz-adv-x="433" 
d="M395 497c0 -25.333 -4.16699 -48.833 -12.5 -70.5s-20.333 -40.334 -36 -56.001s-34.5 -27.834 -56.5 -36.501s-46.667 -13 -74 -13s-52 4.33301 -74 13s-40.667 20.834 -56 36.501s-27.166 34.334 -35.499 56.001s-12.5 45.167 -12.5 70.5c0 26 4.16699 49.667 12.5 71
s20.166 39.833 35.499 55.5s34 27.834 56 36.501s46.667 13 74 13s52 -4.33301 74 -13s40.833 -20.834 56.5 -36.501s27.667 -34.167 36 -55.5s12.5 -45 12.5 -71zM308 497c0 30 -7.83301 54.833 -23.5 74.5s-38.5 29.5 -68.5 29.5c-29.333 0 -52 -9.83301 -68 -29.5
s-24 -44.5 -24 -74.5c0 -29.333 8 -53.833 24 -73.5s38.667 -29.5 68 -29.5c30 0 52.833 9.83301 68.5 29.5s23.5 44.167 23.5 73.5z" />
    <glyph glyph-name="guillemotright" unicode="&#xbb;" horiz-adv-x="482" 
d="M454 243l-150 -197l-60 45l119 171l-119 171l60 45l150 -196v-39zM255 243l-150 -197l-60 45l118 171l-118 171l60 45l150 -196v-39z" />
    <glyph glyph-name="onequarter" unicode="&#xbc;" horiz-adv-x="979" 
d="M877 92l-0.000976562 -92h-83v92h-210v66c11.333 20 22 41.333 32 64s18.5 45.667 25.5 69s12.667 46.5 17 69.5s6.83301 44.5 7.5 64.5h84c-1.33301 -40.667 -9.16602 -84 -23.499 -130s-32.5 -89 -54.5 -129h123v161h82v-161h61v-74h-61zM292.999 0h-83l469 666h83z
M169.999 316l-0.00195312 254.002c-12.667 -4.66699 -28.667 -9.16699 -48 -13.5s-38.666 -7.83301 -57.999 -10.5l-11 67c32.667 5.33301 60.334 12.166 83.001 20.499s41 19.166 55 32.499h64v-350h91v-75h-282v75h106z" />
    <glyph glyph-name="onehalf" unicode="&#xbd;" horiz-adv-x="979" 
d="M291 0h-83l469 666h83zM168 316l-0.00195312 254.002c-12.667 -4.66699 -28.667 -9.16699 -48 -13.5s-38.666 -7.83301 -57.999 -10.5l-11 67c32.667 5.33301 60.334 12.166 83.001 20.499s41 19.166 55 32.499h64v-350h91v-75h-282v75h106zM607.998 0.00195312
l0.000976562 64.0029c40.667 30.667 74.834 57.5 102.501 80.5s50 43.167 67 60.5s29.167 33 36.5 47s11 27.667 11 41c0 20 -7.33301 35.5 -22 46.5s-31.667 16.5 -51 16.5c-18.667 0 -35.834 -5 -51.501 -15s-28.5 -23.333 -38.5 -40l-68 39
c19.333 28 42.5 50.5 69.5 67.5s58.5 25.5 94.5 25.5c22.667 0 43.667 -3 63 -9s36 -14.833 50 -26.5s24.833 -26 32.5 -43s11.5 -36.167 11.5 -57.5c0 -18 -2.83301 -34.833 -8.5 -50.5s-15.167 -31.834 -28.5 -48.501s-30.833 -34.834 -52.5 -54.501
s-48.834 -41.834 -81.501 -66.501h188v-77h-324z" />
    <glyph glyph-name="threequarters" unicode="&#xbe;" horiz-adv-x="979" 
d="M375 365c0 -19.333 -3.99805 -36.999 -11.998 -52.999s-19.167 -29.833 -33.5 -41.5s-31.5 -20.834 -51.5 -27.501s-42 -10 -66 -10c-42 0 -77.5 8.16699 -106.5 24.5s-51.833 42.5 -68.5 78.5l75 26c11.333 -20.667 26 -34.5 44 -41.5s36.667 -10.5 56 -10.5
c23.333 0 41.666 5.5 54.999 16.5s20 24.833 20 41.5c0 16 -6 28.5 -18 37.5s-28.333 13.5 -49 13.5h-56v74h53c6 0 12.5 1 19.5 3s13.5 5 19.5 9s11 9.16699 15 15.5s6 14.166 6 23.499c0 18.667 -7.33301 32.167 -22 40.5s-31.334 12.5 -50.001 12.5
c-42.667 0 -74.334 -16 -95.001 -48l-66 36c38.667 59.333 93.667 89 165 89c20.667 0 40.334 -2.5 59.001 -7.5s35 -12.5 49 -22.5s25 -22.5 33 -37.5s12 -32.5 12 -52.5c0 -19.333 -3.83301 -36.666 -11.5 -51.999s-20.167 -28 -37.5 -38
c23.333 -9.33301 39.5 -23.333 48.5 -42s13.5 -37.667 13.5 -57zM887.002 92.001l-0.000976562 -92h-83v92h-210v66c11.333 20 22 41.333 32 64s18.5 45.667 25.5 69s12.667 46.5 17 69.5s6.83301 44.5 7.5 64.5h84c-1.33301 -40.667 -9.16602 -84 -23.499 -130
s-32.5 -89 -54.5 -129h123v161h82v-161h61v-74h-61zM303.001 0.000976562h-83l469 666h83z" />
    <glyph glyph-name="questiondown" unicode="&#xbf;" horiz-adv-x="529" 
d="M53 51c0 30 5.33301 57.167 16 81.5s25.167 45.333 43.5 63s40 32.167 65 43.5s51.5 19.333 79.5 24v53h109v-148c-7.33301 2 -15 3.33301 -23 4s-15 1 -21 1c-44 0 -79.833 -10.167 -107.5 -30.5s-41.5 -49.5 -41.5 -87.5c0 -32 10.833 -57.667 32.5 -77
s51.5 -29 89.5 -29c56 0 106 20.333 150 61l64 -76c-32 -28 -66.167 -49.667 -102.5 -65s-77.166 -23 -122.499 -23c-33.333 0 -64 4.66699 -92 14s-52.333 22.833 -73 40.5s-36.834 39.167 -48.501 64.5s-17.5 54 -17.5 86zM375 525v-118h-128v118h128z" />
    <glyph glyph-name="Agrave" unicode="&#xc0;" horiz-adv-x="676" 
d="M537 0l-63 170h-276l-63 -170h-127l261 666h138l261 -666h-131zM337 563l-108 -295h213zM354 701c-14 8 -28.166 17.332 -42.499 27.999s-28 22.167 -41 34.5s-24.667 25 -35 38s-18.166 25.833 -23.499 38.5l98 16c9.33301 -19.333 22.166 -40.666 38.499 -63.999
s32.166 -44 47.499 -62z" />
    <glyph glyph-name="Aacute" unicode="&#xc1;" horiz-adv-x="676" 
d="M537 0l-63 170h-276l-63 -170h-127l261 666h138l261 -666h-131zM337 563l-108 -295h213zM288 730c15.333 18 31.167 38.668 47.5 62.001s29.166 44.666 38.499 63.999l98 -16c-5.33301 -12.667 -13.166 -25.5 -23.499 -38.5s-22 -25.667 -35 -38
s-26.667 -23.833 -41 -34.5s-28.5 -20 -42.5 -28z" />
    <glyph glyph-name="Acircumflex" unicode="&#xc2;" horiz-adv-x="676" 
d="M537 0l-63 170h-276l-63 -170h-127l261 666h138l261 -666h-131zM337 563l-108 -295h213zM378 851c18.667 -16.667 38.332 -33 58.999 -49s43.667 -32.667 69 -50l-28 -47c-26 7.33301 -51.667 17.666 -77 30.999s-46.666 27.666 -63.999 42.999
c-17.333 -15.333 -38.5 -29.666 -63.5 -42.999s-50.833 -23.666 -77.5 -30.999l-28 47c26 17.333 49.333 34 70 50s40 32.333 58 49h82z" />
    <glyph glyph-name="Atilde" unicode="&#xc3;" horiz-adv-x="676" 
d="M537 0l-63 170h-276l-63 -170h-127l261 666h138l261 -666h-131zM337 563l-108 -295h213zM515 807c-10.667 -25.333 -25.3311 -46.501 -43.998 -63.501s-39.667 -25.5 -63 -25.5c-12 0 -23.833 2 -35.5 6s-22.834 8.5 -33.501 13.5s-21 9.5 -31 13.5s-20 6 -30 6
c-12 0 -23.833 -3.16699 -35.5 -9.5s-22.834 -16.166 -33.501 -29.499l-42 28c10 25.333 24.5 46.333 43.5 63s40.167 25 63.5 25c12 0 23.667 -2 35 -6s22.5 -8.33301 33.5 -13l32 -13c10.333 -4 20.5 -6 30.5 -6c24 0 46.667 13 68 39z" />
    <glyph glyph-name="Adieresis" unicode="&#xc4;" horiz-adv-x="676" 
d="M537 0l-63 170h-276l-63 -170h-127l261 666h138l261 -666h-131zM337 563l-108 -295h213zM184 720v91h89v-91h-89zM400 720v91h88v-91h-88z" />
    <glyph glyph-name="Aring" unicode="&#xc5;" horiz-adv-x="670" 
d="M212 711c0 16 3.16895 30.833 9.50195 44.5s15.166 25.667 26.499 36s24.333 18.5 39 24.5s30.667 9 48 9s33.5 -3 48.5 -9s28.167 -14.167 39.5 -24.5s20.166 -22.333 26.499 -36s9.5 -28.5 9.5 -44.5c0 -16.667 -3.66699 -32 -11 -46s-17.333 -25.667 -30 -35l247 -630
h-131l-63 170h-276l-63 -170h-127l248 630c-12.667 9.33301 -22.667 21 -30 35s-11 29.333 -11 46zM334.002 563l-108 -295h213zM391.002 710c0 16 -5.16699 29.667 -15.5 41s-23.5 17 -39.5 17s-29.5 -5.66699 -40.5 -17s-16.5 -25 -16.5 -41
c0 -15.333 5.5 -28.333 16.5 -39s24.5 -16 40.5 -16s29.167 5.33301 39.5 16s15.5 23.667 15.5 39z" />
    <glyph glyph-name="AE" unicode="&#xc6;" horiz-adv-x="925" 
d="M438 0v170h-232l-86 -170h-127l340 666h539v-102h-316v-163h269v-102h-269v-197h326v-102h-444zM438 569h-38l-147 -301h185v301z" />
    <glyph glyph-name="Ccedilla" unicode="&#xc7;" horiz-adv-x="678" 
d="M247 -75c8 -8 17.998 -14.9961 29.998 -20.9961s25.333 -9 40 -9c14 0 25.833 3.66699 35.5 11s14.5 17.666 14.5 30.999c0 18 -9.66699 35.667 -29 53c-44 4 -84.167 15.167 -120.5 33.5s-67.333 42.5 -93 72.5s-45.5 65.167 -59.5 105.5s-21 84.5 -21 132.5
c0 50 7.83301 96.167 23.5 138.5s37.834 78.666 66.501 108.999s63.167 54 103.5 71s84.833 25.5 133.5 25.5c58.667 0 110.834 -12 156.501 -36s84.5 -60.333 116.5 -109l-92 -59c-41.333 66.667 -100.666 100 -177.999 100c-32 0 -60.833 -5.83301 -86.5 -17.5
s-47.5 -28 -65.5 -49s-31.833 -46.167 -41.5 -75.5s-14.5 -61.666 -14.5 -96.999c0 -36 4.83301 -68.833 14.5 -98.5s23.5 -55.334 41.5 -77.001s39.833 -38.334 65.5 -50.001s54.167 -17.5 85.5 -17.5c40 0 74.667 9.16699 104 27.5s54 44.166 74 77.499l97 -56
c-27.333 -44 -61.333 -79.167 -102 -105.5s-88 -41.833 -142 -46.5c11.333 -10 20.333 -21.167 27 -33.5s10 -25.5 10 -39.5c0 -26.667 -10.5 -48 -31.5 -64s-47.5 -24 -79.5 -24c-18.667 0 -35.334 2.5 -50.001 7.5s-25.667 11.167 -33 18.5v71z" />
    <glyph glyph-name="Egrave" unicode="&#xc8;" horiz-adv-x="621" 
d="M83 0v666h485v-102h-368v-162h320v-102h-320v-198h378v-102h-495zM346 702c-14 8 -28.166 17.332 -42.499 27.999s-28 22.167 -41 34.5s-24.667 25 -35 38s-18.166 25.833 -23.499 38.5l98 16c9.33301 -19.333 22.166 -40.666 38.499 -63.999s32.166 -44 47.499 -62z" />
    <glyph glyph-name="Eacute" unicode="&#xc9;" horiz-adv-x="621" 
d="M83 0v666h485v-102h-368v-162h320v-102h-320v-198h378v-102h-495zM287 731c15.333 18 31.167 38.668 47.5 62.001s29.166 44.666 38.499 63.999l98 -16c-5.33301 -12.667 -13.166 -25.5 -23.499 -38.5s-22 -25.667 -35 -38s-26.667 -23.833 -41 -34.5
s-28.5 -20 -42.5 -28z" />
    <glyph glyph-name="Ecircumflex" unicode="&#xca;" horiz-adv-x="621" 
d="M83 0v666h485v-102h-368v-162h320v-102h-320v-198h378v-102h-495zM375 852c18.667 -16.667 38.332 -33 58.999 -49s43.667 -32.667 69 -50l-28 -47c-26 7.33301 -51.667 17.666 -77 30.999s-46.666 27.666 -63.999 42.999c-17.333 -15.333 -38.5 -29.666 -63.5 -42.999
s-50.833 -23.666 -77.5 -30.999l-28 47c26 17.333 49.333 34 70 50s40 32.333 58 49h82z" />
    <glyph glyph-name="Edieresis" unicode="&#xcb;" horiz-adv-x="621" 
d="M83 0v666h485v-102h-368v-162h320v-102h-320v-198h378v-102h-495zM179 721v91h89v-91h-89zM395 721v91h88v-91h-88z" />
    <glyph glyph-name="Igrave" unicode="&#xcc;" horiz-adv-x="282" 
d="M83 0v666h116v-666h-116zM158 701c-14 8 -28.166 17.332 -42.499 27.999s-28 22.167 -41 34.5s-24.667 25 -35 38s-18.166 25.833 -23.499 38.5l98 16c9.33301 -19.333 22.166 -40.666 38.499 -63.999s32.166 -44 47.499 -62z" />
    <glyph glyph-name="Iacute" unicode="&#xcd;" horiz-adv-x="282" 
d="M83 0v666h116v-666h-116zM85 730c15.333 18 31.167 38.668 47.5 62.001s29.166 44.666 38.499 63.999l98 -16c-5.33301 -12.667 -13.166 -25.5 -23.499 -38.5s-22 -25.667 -35 -38s-26.667 -23.833 -41 -34.5s-28.5 -20 -42.5 -28z" />
    <glyph glyph-name="Icircumflex" unicode="&#xce;" horiz-adv-x="282" 
d="M83 0v666h116v-666h-116zM183 851c18.667 -16.667 38.332 -33 58.999 -49s43.667 -32.667 69 -50l-28 -47c-26 7.33301 -51.667 17.666 -77 30.999s-46.666 27.666 -63.999 42.999c-17.333 -15.333 -38.5 -29.666 -63.5 -42.999s-50.833 -23.666 -77.5 -30.999l-28 47
c26 17.333 49.333 34 70 50s40 32.333 58 49h82z" />
    <glyph glyph-name="Idieresis" unicode="&#xcf;" horiz-adv-x="282" 
d="M83 0v666h116v-666h-116zM-10 720v91h89v-91h-89zM206 720v91h88v-91h-88z" />
    <glyph glyph-name="Eth" unicode="&#xd0;" horiz-adv-x="733" 
d="M689 333c0 -48 -7 -92.3311 -21 -132.998s-34.667 -75.834 -62 -105.501s-61.333 -52.834 -102 -69.501s-87.334 -25 -140.001 -25h-269v292h-105v94h105v280h269c52.667 0 99.334 -8.33301 140.001 -25s74.667 -39.667 102 -69s48 -64.5 62 -105.5s21 -85.5 21 -133.5z
M567 333.002c0 72.667 -17.833 129.332 -53.5 169.999s-85.834 61 -150.501 61h-150v-178h172v-94h-172v-190h150c64.667 0 114.834 20.333 150.501 61s53.5 97.334 53.5 170.001z" />
    <glyph glyph-name="Ntilde" unicode="&#xd1;" horiz-adv-x="731" 
d="M508 0l-313 516v-516h-112v666h148l305 -504v504h112v-666h-140zM549 807c-10.667 -25.333 -25.3311 -46.501 -43.998 -63.501s-39.667 -25.5 -63 -25.5c-12 0 -23.833 2 -35.5 6s-22.834 8.5 -33.501 13.5s-21 9.5 -31 13.5s-20 6 -30 6
c-12 0 -23.833 -3.16699 -35.5 -9.5s-22.834 -16.166 -33.501 -29.499l-42 28c10 25.333 24.5 46.333 43.5 63s40.167 25 63.5 25c12 0 23.667 -2 35 -6s22.5 -8.33301 33.5 -13l32 -13c10.333 -4 20.5 -6 30.5 -6c24 0 46.667 13 68 39z" />
    <glyph glyph-name="Ograve" unicode="&#xd2;" horiz-adv-x="746" 
d="M704 333c0 -48.667 -7.66699 -94 -23 -136s-37.333 -78.5 -66 -109.5s-63.5 -55.333 -104.5 -73s-86.833 -26.5 -137.5 -26.5c-51.333 0 -97.333 8.83301 -138 26.5s-75.334 42 -104.001 73s-50.667 67.5 -66 109.5s-23 87.333 -23 136s7.66699 94 23 136
s37.333 78.5 66 109.5s63.334 55.333 104.001 73s86.667 26.5 138 26.5c50.667 0 96.5 -8.83301 137.5 -26.5s75.833 -42 104.5 -73s50.667 -67.5 66 -109.5s23 -87.333 23 -136zM582 333c0 34 -4.66699 65.5 -14 94.5s-23 54 -41 75s-40 37.5 -66 49.5s-55.333 18 -88 18
c-33.333 0 -62.833 -6 -88.5 -18s-47.5 -28.5 -65.5 -49.5s-31.667 -46 -41 -75s-14 -60.5 -14 -94.5s4.66699 -65.5 14 -94.5s23 -54 41 -75s39.833 -37.5 65.5 -49.5s55.167 -18 88.5 -18c32.667 0 62 6 88 18s48 28.5 66 49.5s31.667 46 41 75s14 60.5 14 94.5zM391 701
c-14 8 -28.166 17.332 -42.499 27.999s-28 22.167 -41 34.5s-24.667 25 -35 38s-18.166 25.833 -23.499 38.5l98 16c9.33301 -19.333 22.166 -40.666 38.499 -63.999s32.166 -44 47.499 -62z" />
    <glyph glyph-name="Oacute" unicode="&#xd3;" horiz-adv-x="746" 
d="M704 333c0 -48.667 -7.66699 -94 -23 -136s-37.333 -78.5 -66 -109.5s-63.5 -55.333 -104.5 -73s-86.833 -26.5 -137.5 -26.5c-51.333 0 -97.333 8.83301 -138 26.5s-75.334 42 -104.001 73s-50.667 67.5 -66 109.5s-23 87.333 -23 136s7.66699 94 23 136
s37.333 78.5 66 109.5s63.334 55.333 104.001 73s86.667 26.5 138 26.5c50.667 0 96.5 -8.83301 137.5 -26.5s75.833 -42 104.5 -73s50.667 -67.5 66 -109.5s23 -87.333 23 -136zM582 333c0 34 -4.66699 65.5 -14 94.5s-23 54 -41 75s-40 37.5 -66 49.5s-55.333 18 -88 18
c-33.333 0 -62.833 -6 -88.5 -18s-47.5 -28.5 -65.5 -49.5s-31.667 -46 -41 -75s-14 -60.5 -14 -94.5s4.66699 -65.5 14 -94.5s23 -54 41 -75s39.833 -37.5 65.5 -49.5s55.167 -18 88.5 -18c32.667 0 62 6 88 18s48 28.5 66 49.5s31.667 46 41 75s14 60.5 14 94.5zM324 730
c15.333 18 31.167 38.668 47.5 62.001s29.166 44.666 38.499 63.999l98 -16c-5.33301 -12.667 -13.166 -25.5 -23.499 -38.5s-22 -25.667 -35 -38s-26.667 -23.833 -41 -34.5s-28.5 -20 -42.5 -28z" />
    <glyph glyph-name="Ocircumflex" unicode="&#xd4;" horiz-adv-x="746" 
d="M704 333c0 -48.667 -7.66699 -94 -23 -136s-37.333 -78.5 -66 -109.5s-63.5 -55.333 -104.5 -73s-86.833 -26.5 -137.5 -26.5c-51.333 0 -97.333 8.83301 -138 26.5s-75.334 42 -104.001 73s-50.667 67.5 -66 109.5s-23 87.333 -23 136s7.66699 94 23 136
s37.333 78.5 66 109.5s63.334 55.333 104.001 73s86.667 26.5 138 26.5c50.667 0 96.5 -8.83301 137.5 -26.5s75.833 -42 104.5 -73s50.667 -67.5 66 -109.5s23 -87.333 23 -136zM582 333c0 34 -4.66699 65.5 -14 94.5s-23 54 -41 75s-40 37.5 -66 49.5s-55.333 18 -88 18
c-33.333 0 -62.833 -6 -88.5 -18s-47.5 -28.5 -65.5 -49.5s-31.667 -46 -41 -75s-14 -60.5 -14 -94.5s4.66699 -65.5 14 -94.5s23 -54 41 -75s39.833 -37.5 65.5 -49.5s55.167 -18 88.5 -18c32.667 0 62 6 88 18s48 28.5 66 49.5s31.667 46 41 75s14 60.5 14 94.5zM414 851
c18.667 -16.667 38.332 -33 58.999 -49s43.667 -32.667 69 -50l-28 -47c-26 7.33301 -51.667 17.666 -77 30.999s-46.666 27.666 -63.999 42.999c-17.333 -15.333 -38.5 -29.666 -63.5 -42.999s-50.833 -23.666 -77.5 -30.999l-28 47c26 17.333 49.333 34 70 50
s40 32.333 58 49h82z" />
    <glyph glyph-name="Otilde" unicode="&#xd5;" horiz-adv-x="746" 
d="M704 333c0 -48.667 -7.66699 -94 -23 -136s-37.333 -78.5 -66 -109.5s-63.5 -55.333 -104.5 -73s-86.833 -26.5 -137.5 -26.5c-51.333 0 -97.333 8.83301 -138 26.5s-75.334 42 -104.001 73s-50.667 67.5 -66 109.5s-23 87.333 -23 136s7.66699 94 23 136
s37.333 78.5 66 109.5s63.334 55.333 104.001 73s86.667 26.5 138 26.5c50.667 0 96.5 -8.83301 137.5 -26.5s75.833 -42 104.5 -73s50.667 -67.5 66 -109.5s23 -87.333 23 -136zM582 333c0 34 -4.66699 65.5 -14 94.5s-23 54 -41 75s-40 37.5 -66 49.5s-55.333 18 -88 18
c-33.333 0 -62.833 -6 -88.5 -18s-47.5 -28.5 -65.5 -49.5s-31.667 -46 -41 -75s-14 -60.5 -14 -94.5s4.66699 -65.5 14 -94.5s23 -54 41 -75s39.833 -37.5 65.5 -49.5s55.167 -18 88.5 -18c32.667 0 62 6 88 18s48 28.5 66 49.5s31.667 46 41 75s14 60.5 14 94.5zM548 807
c-10.667 -25.333 -25.3311 -46.501 -43.998 -63.501s-39.667 -25.5 -63 -25.5c-12 0 -23.833 2 -35.5 6s-22.834 8.5 -33.501 13.5s-21 9.5 -31 13.5s-20 6 -30 6c-12 0 -23.833 -3.16699 -35.5 -9.5s-22.834 -16.166 -33.501 -29.499l-42 28c10 25.333 24.5 46.333 43.5 63
s40.167 25 63.5 25c12 0 23.667 -2 35 -6s22.5 -8.33301 33.5 -13l32 -13c10.333 -4 20.5 -6 30.5 -6c24 0 46.667 13 68 39z" />
    <glyph glyph-name="Odieresis" unicode="&#xd6;" horiz-adv-x="746" 
d="M704 333c0 -48.667 -7.66699 -94 -23 -136s-37.333 -78.5 -66 -109.5s-63.5 -55.333 -104.5 -73s-86.833 -26.5 -137.5 -26.5c-51.333 0 -97.333 8.83301 -138 26.5s-75.334 42 -104.001 73s-50.667 67.5 -66 109.5s-23 87.333 -23 136s7.66699 94 23 136
s37.333 78.5 66 109.5s63.334 55.333 104.001 73s86.667 26.5 138 26.5c50.667 0 96.5 -8.83301 137.5 -26.5s75.833 -42 104.5 -73s50.667 -67.5 66 -109.5s23 -87.333 23 -136zM582 333c0 34 -4.66699 65.5 -14 94.5s-23 54 -41 75s-40 37.5 -66 49.5s-55.333 18 -88 18
c-33.333 0 -62.833 -6 -88.5 -18s-47.5 -28.5 -65.5 -49.5s-31.667 -46 -41 -75s-14 -60.5 -14 -94.5s4.66699 -65.5 14 -94.5s23 -54 41 -75s39.833 -37.5 65.5 -49.5s55.167 -18 88.5 -18c32.667 0 62 6 88 18s48 28.5 66 49.5s31.667 46 41 75s14 60.5 14 94.5zM220 720
v91h89v-91h-89zM436 720v91h88v-91h-88z" />
    <glyph glyph-name="multiply" unicode="&#xd7;" 
d="M468 63l-174 174l-175 -174l-67 67l175 174l-175 174l67 67l175 -174l174 174l66 -67l-174 -174l174 -174z" />
    <glyph glyph-name="Oslash" unicode="&#xd8;" horiz-adv-x="746" 
d="M117 24l31.9971 45.001c-34.667 31.333 -61.167 69.666 -79.5 114.999s-27.5 95 -27.5 149c0 48.667 7.66699 94 23 136s37.333 78.5 66 109.5s63.334 55.333 104.001 73s86.667 26.5 138 26.5c32.667 0 63.334 -3.83301 92.001 -11.5s55 -18.5 79 -32.5l32 45l53 -37
l-33 -46c34.667 -31.333 61.334 -69.5 80.001 -114.5s28 -94.5 28 -148.5c0 -48.667 -7.66699 -94 -23 -136s-37.333 -78.5 -66 -109.5s-63.5 -55.333 -104.5 -73s-86.833 -26.5 -137.5 -26.5c-66 0 -123.333 14.667 -172 44l-31 -45zM581.997 333.001
c0 34 -4.66797 65 -14.001 93s-22.666 52.333 -39.999 73l-262 -375c30 -18.667 65.667 -28 107 -28c32.667 0 62 6 88 18s48 28.5 66 49.5s31.667 46 41 75s14 60.5 14 94.5zM163.996 333.001c0 -34 4.49902 -65.167 13.499 -93.5s22.167 -52.833 39.5 -73.5l262 376
c-31.333 18.667 -66.666 28 -105.999 28c-33.333 0 -62.833 -6 -88.5 -18s-47.5 -28.5 -65.5 -49.5s-31.667 -46 -41 -75s-14 -60.5 -14 -94.5z" />
    <glyph glyph-name="Ugrave" unicode="&#xd9;" horiz-adv-x="711" 
d="M635 253c0 -41.333 -6.83496 -78.5 -20.502 -111.5s-33 -60.833 -58 -83.5s-54.667 -40 -89 -52s-71.833 -18 -112.5 -18c-41.333 0 -79.166 6 -113.499 18s-63.666 29.333 -87.999 52s-43.333 50.5 -57 83.5s-20.5 70.167 -20.5 111.5v413h117v-413
c0 -48.667 14 -87 42 -115s68 -42 120 -42c50.667 0 90.667 14 120 42s44 66.333 44 115v413h116v-413zM375.998 701c-14 8 -28.166 17.332 -42.499 27.999s-28 22.167 -41 34.5s-24.667 25 -35 38s-18.166 25.833 -23.499 38.5l98 16
c9.33301 -19.333 22.166 -40.666 38.499 -63.999s32.166 -44 47.499 -62z" />
    <glyph glyph-name="Uacute" unicode="&#xda;" horiz-adv-x="711" 
d="M635 253c0 -41.333 -6.83496 -78.5 -20.502 -111.5s-33 -60.833 -58 -83.5s-54.667 -40 -89 -52s-71.833 -18 -112.5 -18c-41.333 0 -79.166 6 -113.499 18s-63.666 29.333 -87.999 52s-43.333 50.5 -57 83.5s-20.5 70.167 -20.5 111.5v413h117v-413
c0 -48.667 14 -87 42 -115s68 -42 120 -42c50.667 0 90.667 14 120 42s44 66.333 44 115v413h116v-413zM304.998 730c15.333 18 31.167 38.668 47.5 62.001s29.166 44.666 38.499 63.999l98 -16c-5.33301 -12.667 -13.166 -25.5 -23.499 -38.5s-22 -25.667 -35 -38
s-26.667 -23.833 -41 -34.5s-28.5 -20 -42.5 -28z" />
    <glyph glyph-name="Ucircumflex" unicode="&#xdb;" horiz-adv-x="711" 
d="M635 253c0 -41.333 -6.83496 -78.5 -20.502 -111.5s-33 -60.833 -58 -83.5s-54.667 -40 -89 -52s-71.833 -18 -112.5 -18c-41.333 0 -79.166 6 -113.499 18s-63.666 29.333 -87.999 52s-43.333 50.5 -57 83.5s-20.5 70.167 -20.5 111.5v413h117v-413
c0 -48.667 14 -87 42 -115s68 -42 120 -42c50.667 0 90.667 14 120 42s44 66.333 44 115v413h116v-413zM396.998 851c18.667 -16.667 38.332 -33 58.999 -49s43.667 -32.667 69 -50l-28 -47c-26 7.33301 -51.667 17.666 -77 30.999s-46.666 27.666 -63.999 42.999
c-17.333 -15.333 -38.5 -29.666 -63.5 -42.999s-50.833 -23.666 -77.5 -30.999l-28 47c26 17.333 49.333 34 70 50s40 32.333 58 49h82z" />
    <glyph glyph-name="Udieresis" unicode="&#xdc;" horiz-adv-x="711" 
d="M635 253c0 -41.333 -6.83496 -78.5 -20.502 -111.5s-33 -60.833 -58 -83.5s-54.667 -40 -89 -52s-71.833 -18 -112.5 -18c-41.333 0 -79.166 6 -113.499 18s-63.666 29.333 -87.999 52s-43.333 50.5 -57 83.5s-20.5 70.167 -20.5 111.5v413h117v-413
c0 -48.667 14 -87 42 -115s68 -42 120 -42c50.667 0 90.667 14 120 42s44 66.333 44 115v413h116v-413zM203.998 720v91h89v-91h-89zM419.998 720v91h88v-91h-88z" />
    <glyph glyph-name="Yacute" unicode="&#xdd;" horiz-adv-x="632" 
d="M374 266v-266h-117v266l-255 400h137l178 -294l179 294h135zM249 730c15.333 18 31.167 38.668 47.5 62.001s29.166 44.666 38.499 63.999l98 -16c-5.33301 -12.667 -13.166 -25.5 -23.499 -38.5s-22 -25.667 -35 -38s-26.667 -23.833 -41 -34.5s-28.5 -20 -42.5 -28z
" />
    <glyph glyph-name="Thorn" unicode="&#xde;" horiz-adv-x="641" 
d="M615 358c0 -64.667 -21.167 -116.333 -63.5 -155s-101.833 -58 -178.5 -58h-173v-145h-117v666h117v-94h173c38 0 72 -5.16699 102 -15.5s55.333 -24.833 76 -43.5s36.5 -41.167 47.5 -67.5s16.5 -55.5 16.5 -87.5zM372 247.001c40 0 70.5 9.66797 91.5 29.001
s31.5 46.666 31.5 81.999c0 36 -10.5 63.667 -31.5 83s-51.5 29 -91.5 29h-172v-223h172z" />
    <glyph glyph-name="germandbls" unicode="&#xdf;" horiz-adv-x="635" 
d="M596 203c0 -33.333 -5.66309 -63.3301 -16.9961 -89.9971s-27.333 -49.334 -48 -68.001s-45.5 -32.834 -74.5 -42.501s-61.5 -14.5 -97.5 -14.5c-20 0 -40.833 1.66699 -62.5 5s-40.5 8.33301 -56.5 15l23 97c11.333 -6.66699 24.666 -11.5 39.999 -14.5
s29.666 -4.5 42.999 -4.5c42 0 74.833 11.167 98.5 33.5s35.5 53.166 35.5 92.499c0 43.333 -13.667 74.166 -41 92.499s-63 27.5 -107 27.5h-59v94h43c33.333 0 61.666 8.33301 84.999 25s35 42.334 35 77.001c0 18.667 -3.5 34.5 -10.5 47.5s-16.167 23.667 -27.5 32
s-24.833 14.333 -40.5 18s-31.834 5.5 -48.501 5.5c-36 0 -66.167 -9.16699 -90.5 -27.5s-36.5 -45.166 -36.5 -80.499v-523h-109v524c0 31.333 5.66699 59.5 17 84.5s27.5 46.167 48.5 63.5s46.167 30.666 75.5 39.999s62.333 14 99 14c33.333 0 64.333 -4 93 -12
s53.667 -19.833 75 -35.5s38 -35 50 -58s18 -49.167 18 -78.5c0 -32.667 -7.5 -61.667 -22.5 -87s-39.5 -47 -73.5 -65c47.333 -14.667 83 -38 107 -70s36 -71 36 -117z" />
    <glyph glyph-name="agrave" unicode="&#xe0;" horiz-adv-x="662" 
d="M329 575c-14 8 -28.166 17.332 -42.499 27.999s-28 22.167 -41 34.5s-24.667 25 -35 38s-18.166 25.833 -23.499 38.5l98 16c9.33301 -19.333 22.166 -40.666 38.499 -63.999s32.166 -44 47.499 -62zM569.001 121.999c0 -17.333 2.66797 -29.6689 8.00098 -37.002
s14.666 -11 27.999 -11c12.667 0 22.334 2.33301 29.001 7l13 -76c-9.33301 -4.66699 -20.5 -8 -33.5 -10s-24.167 -3 -33.5 -3c-25.333 0 -48.833 6 -70.5 18s-36.5 33.667 -44.5 65c-22.667 -32 -49.834 -54.5 -81.501 -67.5s-65.167 -19.5 -100.5 -19.5
c-38 0 -72.167 7 -102.5 21s-55.833 33.333 -76.5 58s-36.5 53.667 -47.5 87s-16.5 69.333 -16.5 108s5.5 74.834 16.5 108.501s27 62.834 48 87.501s46.333 44 76 58s63.167 21 100.5 21c34.667 0 67 -6.83301 97 -20.5s56.667 -36.5 80 -68.5v77h111v-403z
M458.002 261.996c0 24.667 -3.33203 47.667 -9.99902 69s-16.334 40 -29.001 56s-28.667 28.5 -48 37.5s-41.333 13.5 -66 13.5c-25.333 0 -47.166 -4.66699 -65.499 -14s-33.666 -22 -45.999 -38s-21.5 -34.667 -27.5 -56s-9 -44 -9 -68s3 -46.667 9 -68
s15.167 -40 27.5 -56s27.666 -28.5 45.999 -37.5s40.166 -13.5 65.499 -13.5s47.5 4.5 66.5 13.5s35 21.5 48 37.5s22.667 34.667 29 56s9.5 44 9.5 68z" />
    <glyph glyph-name="aacute" unicode="&#xe1;" horiz-adv-x="662" 
d="M251 604c15.333 18 31.167 38.668 47.5 62.001s29.166 44.666 38.499 63.999l98 -16c-5.33301 -12.667 -13.166 -25.5 -23.499 -38.5s-22 -25.667 -35 -38s-26.667 -23.833 -41 -34.5s-28.5 -20 -42.5 -28zM569.001 122.001c0 -17.333 2.66797 -29.6689 8.00098 -37.002
s14.666 -11 27.999 -11c12.667 0 22.334 2.33301 29.001 7l13 -76c-9.33301 -4.66699 -20.5 -8 -33.5 -10s-24.167 -3 -33.5 -3c-25.333 0 -48.833 6 -70.5 18s-36.5 33.667 -44.5 65c-22.667 -32 -49.834 -54.5 -81.501 -67.5s-65.167 -19.5 -100.5 -19.5
c-38 0 -72.167 7 -102.5 21s-55.833 33.333 -76.5 58s-36.5 53.667 -47.5 87s-16.5 69.333 -16.5 108s5.5 74.834 16.5 108.501s27 62.834 48 87.501s46.333 44 76 58s63.167 21 100.5 21c34.667 0 67 -6.83301 97 -20.5s56.667 -36.5 80 -68.5v77h111v-403z
M458.002 261.998c0 24.667 -3.33203 47.667 -9.99902 69s-16.334 40 -29.001 56s-28.667 28.5 -48 37.5s-41.333 13.5 -66 13.5c-25.333 0 -47.166 -4.66699 -65.499 -14s-33.666 -22 -45.999 -38s-21.5 -34.667 -27.5 -56s-9 -44 -9 -68s3 -46.667 9 -68
s15.167 -40 27.5 -56s27.666 -28.5 45.999 -37.5s40.166 -13.5 65.499 -13.5s47.5 4.5 66.5 13.5s35 21.5 48 37.5s22.667 34.667 29 56s9.5 44 9.5 68z" />
    <glyph glyph-name="acircumflex" unicode="&#xe2;" horiz-adv-x="662" 
d="M569 122c0 -17.333 2.66797 -29.6689 8.00098 -37.002s14.666 -11 27.999 -11c12.667 0 22.334 2.33301 29.001 7l13 -76c-9.33301 -4.66699 -20.5 -8 -33.5 -10s-24.167 -3 -33.5 -3c-25.333 0 -48.833 6 -70.5 18s-36.5 33.667 -44.5 65
c-22.667 -32 -49.834 -54.5 -81.501 -67.5s-65.167 -19.5 -100.5 -19.5c-38 0 -72.167 7 -102.5 21s-55.833 33.333 -76.5 58s-36.5 53.667 -47.5 87s-16.5 69.333 -16.5 108s5.5 74.834 16.5 108.501s27 62.834 48 87.501s46.333 44 76 58s63.167 21 100.5 21
c34.667 0 67 -6.83301 97 -20.5s56.667 -36.5 80 -68.5v77h111v-403zM458.001 261.997c0 24.667 -3.33203 47.667 -9.99902 69s-16.334 40 -29.001 56s-28.667 28.5 -48 37.5s-41.333 13.5 -66 13.5c-25.333 0 -47.166 -4.66699 -65.499 -14s-33.666 -22 -45.999 -38
s-21.5 -34.667 -27.5 -56s-9 -44 -9 -68s3 -46.667 9 -68s15.167 -40 27.5 -56s27.666 -28.5 45.999 -37.5s40.166 -13.5 65.499 -13.5s47.5 4.5 66.5 13.5s35 21.5 48 37.5s22.667 34.667 29 56s9.5 44 9.5 68zM346.002 724.997c18.667 -16.667 38.332 -33 58.999 -49
s43.667 -32.667 69 -50l-28 -47c-26 7.33301 -51.667 17.666 -77 30.999s-46.666 27.666 -63.999 42.999c-17.333 -15.333 -38.5 -29.666 -63.5 -42.999s-50.833 -23.666 -77.5 -30.999l-28 47c26 17.333 49.333 34 70 50s40 32.333 58 49h82z" />
    <glyph glyph-name="atilde" unicode="&#xe3;" horiz-adv-x="662" 
d="M480 681c-10.667 -25.333 -25.3311 -46.501 -43.998 -63.501s-39.667 -25.5 -63 -25.5c-12 0 -23.833 2 -35.5 6s-22.834 8.5 -33.501 13.5s-21 9.5 -31 13.5s-20 6 -30 6c-12 0 -23.833 -3.16699 -35.5 -9.5s-22.834 -16.166 -33.501 -29.499l-42 28
c10 25.333 24.5 46.333 43.5 63s40.167 25 63.5 25c12 0 23.667 -2 35 -6s22.5 -8.33301 33.5 -13l32 -13c10.333 -4 20.5 -6 30.5 -6c24 0 46.667 13 68 39zM569.003 121.999c0 -17.333 2.66797 -29.6689 8.00098 -37.002s14.666 -11 27.999 -11
c12.667 0 22.334 2.33301 29.001 7l13 -76c-9.33301 -4.66699 -20.5 -8 -33.5 -10s-24.167 -3 -33.5 -3c-25.333 0 -48.833 6 -70.5 18s-36.5 33.667 -44.5 65c-22.667 -32 -49.834 -54.5 -81.501 -67.5s-65.167 -19.5 -100.5 -19.5c-38 0 -72.167 7 -102.5 21
s-55.833 33.333 -76.5 58s-36.5 53.667 -47.5 87s-16.5 69.333 -16.5 108s5.5 74.834 16.5 108.501s27 62.834 48 87.501s46.333 44 76 58s63.167 21 100.5 21c34.667 0 67 -6.83301 97 -20.5s56.667 -36.5 80 -68.5v77h111v-403zM458.004 261.996
c0 24.667 -3.33203 47.667 -9.99902 69s-16.334 40 -29.001 56s-28.667 28.5 -48 37.5s-41.333 13.5 -66 13.5c-25.333 0 -47.166 -4.66699 -65.499 -14s-33.666 -22 -45.999 -38s-21.5 -34.667 -27.5 -56s-9 -44 -9 -68s3 -46.667 9 -68s15.167 -40 27.5 -56
s27.666 -28.5 45.999 -37.5s40.166 -13.5 65.499 -13.5s47.5 4.5 66.5 13.5s35 21.5 48 37.5s22.667 34.667 29 56s9.5 44 9.5 68z" />
    <glyph glyph-name="adieresis" unicode="&#xe4;" horiz-adv-x="662" 
d="M569 122c0 -17.333 2.66797 -29.6689 8.00098 -37.002s14.666 -11 27.999 -11c12.667 0 22.334 2.33301 29.001 7l13 -76c-9.33301 -4.66699 -20.5 -8 -33.5 -10s-24.167 -3 -33.5 -3c-25.333 0 -48.833 6 -70.5 18s-36.5 33.667 -44.5 65
c-22.667 -32 -49.834 -54.5 -81.501 -67.5s-65.167 -19.5 -100.5 -19.5c-38 0 -72.167 7 -102.5 21s-55.833 33.333 -76.5 58s-36.5 53.667 -47.5 87s-16.5 69.333 -16.5 108s5.5 74.834 16.5 108.501s27 62.834 48 87.501s46.333 44 76 58s63.167 21 100.5 21
c34.667 0 67 -6.83301 97 -20.5s56.667 -36.5 80 -68.5v77h111v-403zM458.001 261.997c0 24.667 -3.33203 47.667 -9.99902 69s-16.334 40 -29.001 56s-28.667 28.5 -48 37.5s-41.333 13.5 -66 13.5c-25.333 0 -47.166 -4.66699 -65.499 -14s-33.666 -22 -45.999 -38
s-21.5 -34.667 -27.5 -56s-9 -44 -9 -68s3 -46.667 9 -68s15.167 -40 27.5 -56s27.666 -28.5 45.999 -37.5s40.166 -13.5 65.499 -13.5s47.5 4.5 66.5 13.5s35 21.5 48 37.5s22.667 34.667 29 56s9.5 44 9.5 68zM153.002 593.997v91h89v-91h-89zM369.002 593.997v91h88v-91
h-88z" />
    <glyph glyph-name="aring" unicode="&#xe5;" horiz-adv-x="662" 
d="M419 677c0 -14 -2.83301 -27.334 -8.5 -40.001s-13.5 -23.667 -23.5 -33s-21.833 -16.666 -35.5 -21.999s-28.5 -8 -44.5 -8c-32.667 0 -59.667 10 -81 30s-32 44.333 -32 73c0 14 2.83301 27.5 8.5 40.5s13.5 24.167 23.5 33.5s22 16.833 36 22.5s29 8.5 45 8.5
s30.833 -2.83301 44.5 -8.5s25.5 -13.167 35.5 -22.5s17.833 -20.5 23.5 -33.5s8.5 -26.5 8.5 -40.5zM361 676.999c0 15.333 -5.33301 28.333 -16 39s-23.334 16 -38.001 16c-15.333 0 -28.333 -5.33301 -39 -16s-16 -23.667 -16 -39s5.33301 -28.166 16 -38.499
s23.667 -15.5 39 -15.5c14.667 0 27.334 5.16699 38.001 15.5s16 23.166 16 38.499zM569 121.999c0 -17.333 2.66797 -29.6689 8.00098 -37.002s14.666 -11 27.999 -11c12.667 0 22.334 2.33301 29.001 7l13 -76c-9.33301 -4.66699 -20.5 -8 -33.5 -10s-24.167 -3 -33.5 -3
c-25.333 0 -48.833 6 -70.5 18s-36.5 33.667 -44.5 65c-22.667 -32 -49.834 -54.5 -81.501 -67.5s-65.167 -19.5 -100.5 -19.5c-38 0 -72.167 7 -102.5 21s-55.833 33.333 -76.5 58s-36.5 53.667 -47.5 87s-16.5 69.333 -16.5 108s5.5 74.834 16.5 108.501
s27 62.834 48 87.501s46.333 44 76 58s63.167 21 100.5 21c34.667 0 67 -6.83301 97 -20.5s56.667 -36.5 80 -68.5v77h111v-403zM458.001 261.996c0 24.667 -3.33203 47.667 -9.99902 69s-16.334 40 -29.001 56s-28.667 28.5 -48 37.5s-41.333 13.5 -66 13.5
c-25.333 0 -47.166 -4.66699 -65.499 -14s-33.666 -22 -45.999 -38s-21.5 -34.667 -27.5 -56s-9 -44 -9 -68s3 -46.667 9 -68s15.167 -40 27.5 -56s27.666 -28.5 45.999 -37.5s40.166 -13.5 65.499 -13.5s47.5 4.5 66.5 13.5s35 21.5 48 37.5s22.667 34.667 29 56
s9.5 44 9.5 68z" />
    <glyph glyph-name="ae" unicode="&#xe6;" horiz-adv-x="1007" 
d="M458 262c0 24.667 -3.33203 47.667 -9.99902 69s-16.334 40 -29.001 56s-28.667 28.5 -48 37.5s-41.333 13.5 -66 13.5c-25.333 0 -47.166 -4.66699 -65.499 -14s-33.666 -22 -45.999 -38s-21.5 -34.667 -27.5 -56s-9 -44 -9 -68s3 -46.667 9 -68s15.167 -40 27.5 -56
s27.666 -28.5 45.999 -37.5s40.166 -13.5 65.499 -13.5s47.5 4.5 66.5 13.5s35 21.5 48 37.5s22.667 34.667 29 56s9.5 44 9.5 68zM732.001 537c36.667 0 69.833 -6.66309 99.5 -19.9961s54.834 -31.833 75.501 -55.5s36.5 -51.834 47.5 -84.501s16.5 -68 16.5 -106
c0 -7.33301 -0.166992 -13.833 -0.5 -19.5s-0.833008 -10.834 -1.5 -15.501h-400c2.66699 -48 18.5 -85.167 47.5 -111.5s66.5 -39.5 112.5 -39.5c31.333 0 59.5 5.66699 84.5 17s47.167 27.666 66.5 48.999l73 -68c-28 -29.333 -60.333 -52.5 -97 -69.5
s-80.334 -25.5 -131.001 -25.5c-52 0 -96.333 9.83301 -133 29.5s-65.667 47.167 -87 82.5c-20 -34 -48 -61.167 -84 -81.5s-77.333 -30.5 -124 -30.5c-39.333 0 -74.833 6.83301 -106.5 20.5s-58.667 32.667 -81 57s-39.5 53.333 -51.5 87s-18 70.5 -18 110.5
c0 38.667 5.5 74.667 16.5 108s27 62.333 48 87s46.333 44 76 58s63.167 21 100.5 21c34.667 0 67 -6.83301 97 -20.5s56.667 -36.5 80 -68.5v77h111v-66c19.333 23.333 42.333 42.166 69 56.499s58 21.5 94 21.5zM859 313.004c-3.33301 44.667 -18.667 78.334 -46 101.001
s-60 34 -98 34c-41.333 0 -75 -12.333 -101 -37s-40.667 -57.334 -44 -98.001h289z" />
    <glyph glyph-name="ccedilla" unicode="&#xe7;" horiz-adv-x="549" 
d="M178 -75c8 -8 18.002 -14.998 30.002 -20.998s25.333 -9 40 -9c14 0 25.833 3.66699 35.5 11s14.5 17.666 14.5 30.999c0 18 -9.66699 35.667 -29 53c-35.333 3.33301 -67.166 12.5 -95.499 27.5s-52.333 34.5 -72 58.5s-34.834 51.833 -45.501 83.5
s-16 65.834 -16 102.501c0 39.333 6.16699 75.833 18.5 109.5s29.833 62.667 52.5 87s50 43.5 82 57.5s67.667 21 107 21c50 0 93 -10.833 129 -32.5s65.333 -49.834 88 -84.501l-83 -59c-13.333 24 -30.833 43.167 -52.5 57.5s-47.167 21.5 -76.5 21.5
c-23.333 0 -44 -4.5 -62 -13.5s-33.5 -21.333 -46.5 -37s-22.833 -34.334 -29.5 -56.001s-10 -45.167 -10 -70.5c0 -26 3.5 -49.833 10.5 -71.5s16.833 -40.334 29.5 -56.001s28.167 -28 46.5 -37s39.166 -13.5 62.499 -13.5c30.667 0 56.5 7.16699 77.5 21.5
s38.833 32.5 53.5 54.5l83 -57c-19.333 -30 -44.5 -55.167 -75.5 -75.5s-67.833 -33.166 -110.5 -38.499c11.333 -10 20.5 -21.167 27.5 -33.5s10.5 -25.833 10.5 -40.5c0 -26.667 -10.5 -48 -31.5 -64s-47.5 -24 -79.5 -24c-18.667 0 -35.334 2.5 -50.001 7.5
s-25.667 11.167 -33 18.5v71z" />
    <glyph glyph-name="egrave" unicode="&#xe8;" horiz-adv-x="597" 
d="M560 273c0 -8 -0.166992 -15.165 -0.5 -21.498s-0.833008 -11.833 -1.5 -16.5h-400c2.66699 -48 18.5 -84.833 47.5 -110.5s66.833 -38.5 113.5 -38.5c31.333 0 59.666 5.66699 84.999 17s47.666 27.666 66.999 48.999l72 -69c-28 -29.333 -60.5 -52.5 -97.5 -69.5
s-80.5 -25.5 -130.5 -25.5c-44 0 -83.167 6.83301 -117.5 20.5s-63.166 32.667 -86.499 57s-41 53.166 -53 86.499s-18 69.333 -18 108s6 75 18 109s29.333 63.333 52 88s50.334 44.167 83.001 58.5s69.667 21.5 111 21.5c40 0 75.833 -6.66699 107.5 -20
s58.5 -31.833 80.5 -55.5s38.833 -51.5 50.5 -83.5s17.5 -67 17.5 -105zM449 315.002c-4 44 -19.5 77.167 -46.5 99.5s-59.5 33.5 -97.5 33.5c-42 0 -75.833 -12.333 -101.5 -37s-40.167 -56.667 -43.5 -96h289zM321 575.002c-14 8 -28.166 17.332 -42.499 27.999
s-28 22.167 -41 34.5s-24.667 25 -35 38s-18.166 25.833 -23.499 38.5l98 16c9.33301 -19.333 22.166 -40.666 38.499 -63.999s32.166 -44 47.499 -62z" />
    <glyph glyph-name="eacute" unicode="&#xe9;" horiz-adv-x="597" 
d="M560 273c0 -8 -0.166992 -15.165 -0.5 -21.498s-0.833008 -11.833 -1.5 -16.5h-400c2.66699 -48 18.5 -84.833 47.5 -110.5s66.833 -38.5 113.5 -38.5c31.333 0 59.666 5.66699 84.999 17s47.666 27.666 66.999 48.999l72 -69c-28 -29.333 -60.5 -52.5 -97.5 -69.5
s-80.5 -25.5 -130.5 -25.5c-44 0 -83.167 6.83301 -117.5 20.5s-63.166 32.667 -86.499 57s-41 53.166 -53 86.499s-18 69.333 -18 108s6 75 18 109s29.333 63.333 52 88s50.334 44.167 83.001 58.5s69.667 21.5 111 21.5c40 0 75.833 -6.66699 107.5 -20
s58.5 -31.833 80.5 -55.5s38.833 -51.5 50.5 -83.5s17.5 -67 17.5 -105zM449 315.002c-4 44 -19.5 77.167 -46.5 99.5s-59.5 33.5 -97.5 33.5c-42 0 -75.833 -12.333 -101.5 -37s-40.167 -56.667 -43.5 -96h289zM246 604.002c15.333 18 31.167 38.668 47.5 62.001
s29.166 44.666 38.499 63.999l98 -16c-5.33301 -12.667 -13.166 -25.5 -23.499 -38.5s-22 -25.667 -35 -38s-26.667 -23.833 -41 -34.5s-28.5 -20 -42.5 -28z" />
    <glyph glyph-name="ecircumflex" unicode="&#xea;" horiz-adv-x="597" 
d="M560 273c0 -8 -0.166992 -15.165 -0.5 -21.498s-0.833008 -11.833 -1.5 -16.5h-400c2.66699 -48 18.5 -84.833 47.5 -110.5s66.833 -38.5 113.5 -38.5c31.333 0 59.666 5.66699 84.999 17s47.666 27.666 66.999 48.999l72 -69c-28 -29.333 -60.5 -52.5 -97.5 -69.5
s-80.5 -25.5 -130.5 -25.5c-44 0 -83.167 6.83301 -117.5 20.5s-63.166 32.667 -86.499 57s-41 53.166 -53 86.499s-18 69.333 -18 108s6 75 18 109s29.333 63.333 52 88s50.334 44.167 83.001 58.5s69.667 21.5 111 21.5c40 0 75.833 -6.66699 107.5 -20
s58.5 -31.833 80.5 -55.5s38.833 -51.5 50.5 -83.5s17.5 -67 17.5 -105zM449 315.002c-4 44 -19.5 77.167 -46.5 99.5s-59.5 33.5 -97.5 33.5c-42 0 -75.833 -12.333 -101.5 -37s-40.167 -56.667 -43.5 -96h289zM342 725.002c18.667 -16.667 38.332 -33 58.999 -49
s43.667 -32.667 69 -50l-28 -47c-26 7.33301 -51.667 17.666 -77 30.999s-46.666 27.666 -63.999 42.999c-17.333 -15.333 -38.5 -29.666 -63.5 -42.999s-50.833 -23.666 -77.5 -30.999l-28 47c26 17.333 49.333 34 70 50s40 32.333 58 49h82z" />
    <glyph glyph-name="edieresis" unicode="&#xeb;" horiz-adv-x="597" 
d="M560 273c0 -8 -0.166992 -15.165 -0.5 -21.498s-0.833008 -11.833 -1.5 -16.5h-400c2.66699 -48 18.5 -84.833 47.5 -110.5s66.833 -38.5 113.5 -38.5c31.333 0 59.666 5.66699 84.999 17s47.666 27.666 66.999 48.999l72 -69c-28 -29.333 -60.5 -52.5 -97.5 -69.5
s-80.5 -25.5 -130.5 -25.5c-44 0 -83.167 6.83301 -117.5 20.5s-63.166 32.667 -86.499 57s-41 53.166 -53 86.499s-18 69.333 -18 108s6 75 18 109s29.333 63.333 52 88s50.334 44.167 83.001 58.5s69.667 21.5 111 21.5c40 0 75.833 -6.66699 107.5 -20
s58.5 -31.833 80.5 -55.5s38.833 -51.5 50.5 -83.5s17.5 -67 17.5 -105zM449 315.002c-4 44 -19.5 77.167 -46.5 99.5s-59.5 33.5 -97.5 33.5c-42 0 -75.833 -12.333 -101.5 -37s-40.167 -56.667 -43.5 -96h289zM151 594.002v91h89v-91h-89zM367 594.002v91h88v-91h-88z" />
    <glyph glyph-name="igrave" unicode="&#xec;" horiz-adv-x="256" 
d="M73 0v525h110v-525h-110zM144 575c-14 8 -28.166 17.332 -42.499 27.999s-28 22.167 -41 34.5s-24.667 25 -35 38s-18.166 25.833 -23.499 38.5l98 16c9.33301 -19.333 22.166 -40.666 38.499 -63.999s32.166 -44 47.499 -62z" />
    <glyph glyph-name="iacute" unicode="&#xed;" horiz-adv-x="256" 
d="M73 604c15.333 18 31.167 38.668 47.5 62.001s29.166 44.666 38.499 63.999l98 -16c-5.33301 -12.667 -13.166 -25.5 -23.499 -38.5s-22 -25.667 -35 -38s-26.667 -23.833 -41 -34.5s-28.5 -20 -42.5 -28zM73.001 0.000976562v525h110v-525h-110z" />
    <glyph glyph-name="icircumflex" unicode="&#xee;" horiz-adv-x="256" 
d="M73 0v525h110v-525h-110zM170 725c18.667 -16.667 38.332 -33 58.999 -49s43.667 -32.667 69 -50l-28 -47c-26 7.33301 -51.667 17.666 -77 30.999s-46.666 27.666 -63.999 42.999c-17.333 -15.333 -38.5 -29.666 -63.5 -42.999s-50.833 -23.666 -77.5 -30.999l-28 47
c26 17.333 49.333 34 70 50s40 32.333 58 49h82z" />
    <glyph glyph-name="idieresis" unicode="&#xef;" horiz-adv-x="256" 
d="M-7 594v91h88v-91h-88zM175 594v91h89v-91h-89zM73 0v525h110v-525h-110z" />
    <glyph glyph-name="eth" unicode="&#xf0;" horiz-adv-x="622" 
d="M279 497c28 0 54.667 -4.32812 80 -12.9951s47.666 -22.334 66.999 -41.001c-12 24.667 -27 48 -45 70s-37.667 43 -59 63l-124 -56l-20 47l95 44c-13.333 9.33301 -27 18.166 -41 26.499s-28 15.833 -42 22.5l83 66c18.667 -10.667 37 -21.834 55 -33.501
s35.333 -24.5 52 -38.5l121 54l20 -47l-97 -44c44 -44 79.667 -94 107 -150s41 -118.667 41 -188c0 -38 -5.16699 -76.167 -15.5 -114.5s-30.166 -72.5 -59.499 -102.5c-24 -24 -52.167 -42.333 -84.5 -55s-68.166 -19 -107.499 -19s-75.333 6.33301 -108 19
s-60.5 30.167 -83.5 52.5s-40.833 49.166 -53.5 80.499s-19 65.666 -19 102.999c0 36 5.66699 69.5 17 100.5s27.5 57.833 48.5 80.5s46.167 40.5 75.5 53.5s61.666 19.5 96.999 19.5zM461 242.005c0 22 -3.50195 42.833 -10.502 62.5s-17 36.667 -30 51
s-29.167 25.666 -48.5 33.999s-41.333 12.5 -66 12.5s-46.167 -4.33301 -64.5 -13s-33.666 -20.167 -45.999 -34.5s-21.666 -31.166 -27.999 -50.499s-9.5 -40 -9.5 -62s3.16699 -42.5 9.5 -61.5s15.666 -35.667 27.999 -50s27.833 -25.666 46.5 -33.999
s40.334 -12.5 65.001 -12.5c25.333 0 47.5 4.16699 66.5 12.5s35 19.666 48 33.999s22.833 31 29.5 50s10 39.5 10 61.5z" />
    <glyph glyph-name="ntilde" unicode="&#xf1;" horiz-adv-x="603" 
d="M73 0l0.00195312 524.998h110v-77c21.333 28.667 46.333 50.667 75 66s61 23 97 23c58 0 102.667 -17.667 134 -53s47 -82.666 47 -141.999v-342h-110v317c0 14 -1.33301 28 -4 42s-7.83398 26.833 -15.501 38.5s-18.334 21 -32.001 28s-31.167 10.5 -52.5 10.5
c-19.333 0 -37.5 -3.33301 -54.5 -10s-31.833 -16.167 -44.5 -28.5s-22.5 -27.166 -29.5 -44.499s-10.5 -37 -10.5 -59v-294h-110zM494.002 680.998c-10.667 -25.333 -25.3311 -46.501 -43.998 -63.501s-39.667 -25.5 -63 -25.5c-12 0 -23.833 2 -35.5 6
s-22.834 8.5 -33.501 13.5s-21 9.5 -31 13.5s-20 6 -30 6c-12 0 -23.833 -3.16699 -35.5 -9.5s-22.834 -16.166 -33.501 -29.499l-42 28c10 25.333 24.5 46.333 43.5 63s40.167 25 63.5 25c12 0 23.667 -2 35 -6s22.5 -8.33301 33.5 -13l32 -13c10.333 -4 20.5 -6 30.5 -6
c24 0 46.667 13 68 39z" />
    <glyph glyph-name="ograve" unicode="&#xf2;" horiz-adv-x="612" 
d="M332 575c-14 8 -28.166 17.332 -42.499 27.999s-28 22.167 -41 34.5s-24.667 25 -35 38s-18.166 25.833 -23.499 38.5l98 16c9.33301 -19.333 22.166 -40.666 38.499 -63.999s32.166 -44 47.499 -62zM572.001 261.999c0 -40 -6.16699 -76.833 -18.5 -110.5
s-30 -62.5 -53 -86.5s-51 -42.833 -84 -56.5s-69.833 -20.5 -110.5 -20.5s-77.5 6.83301 -110.5 20.5s-61 32.5 -84 56.5s-40.667 52.833 -53 86.5s-18.5 70.5 -18.5 110.5s6.16699 76.833 18.5 110.5s30 62.667 53 87s51 43.333 84 57s69.833 20.5 110.5 20.5
s77.5 -6.83301 110.5 -20.5s61 -32.667 84 -57s40.667 -53.333 53 -87s18.5 -70.5 18.5 -110.5zM454.001 261.999c0 25.333 -3.33301 49 -10 71s-16.167 41 -28.5 57s-27.666 28.5 -45.999 37.5s-39.5 13.5 -63.5 13.5s-45.167 -4.5 -63.5 -13.5s-33.833 -21.5 -46.5 -37.5
s-22.334 -35 -29.001 -57s-10 -45.667 -10 -71s3.33301 -48.833 10 -70.5s16.334 -40.5 29.001 -56.5s28.167 -28.5 46.5 -37.5s39.5 -13.5 63.5 -13.5s45.167 4.5 63.5 13.5s33.666 21.5 45.999 37.5s21.833 34.833 28.5 56.5s10 45.167 10 70.5z" />
    <glyph glyph-name="oacute" unicode="&#xf3;" horiz-adv-x="612" 
d="M572 262c0 -40 -6.16699 -76.833 -18.5 -110.5s-30 -62.5 -53 -86.5s-51 -42.833 -84 -56.5s-69.833 -20.5 -110.5 -20.5s-77.5 6.83301 -110.5 20.5s-61 32.5 -84 56.5s-40.667 52.833 -53 86.5s-18.5 70.5 -18.5 110.5s6.16699 76.833 18.5 110.5s30 62.667 53 87
s51 43.333 84 57s69.833 20.5 110.5 20.5s77.5 -6.83301 110.5 -20.5s61 -32.667 84 -57s40.667 -53.333 53 -87s18.5 -70.5 18.5 -110.5zM454 262c0 25.333 -3.33301 49 -10 71s-16.167 41 -28.5 57s-27.666 28.5 -45.999 37.5s-39.5 13.5 -63.5 13.5
s-45.167 -4.5 -63.5 -13.5s-33.833 -21.5 -46.5 -37.5s-22.334 -35 -29.001 -57s-10 -45.667 -10 -71s3.33301 -48.833 10 -70.5s16.334 -40.5 29.001 -56.5s28.167 -28.5 46.5 -37.5s39.5 -13.5 63.5 -13.5s45.167 4.5 63.5 13.5s33.666 21.5 45.999 37.5
s21.833 34.833 28.5 56.5s10 45.167 10 70.5zM239 604c15.333 18 31.167 38.668 47.5 62.001s29.166 44.666 38.499 63.999l98 -16c-5.33301 -12.667 -13.166 -25.5 -23.499 -38.5s-22 -25.667 -35 -38s-26.667 -23.833 -41 -34.5s-28.5 -20 -42.5 -28z" />
    <glyph glyph-name="ocircumflex" unicode="&#xf4;" horiz-adv-x="612" 
d="M347 725c18.667 -16.667 38.332 -33 58.999 -49s43.667 -32.667 69 -50l-28 -47c-26 7.33301 -51.667 17.666 -77 30.999s-46.666 27.666 -63.999 42.999c-17.333 -15.333 -38.5 -29.666 -63.5 -42.999s-50.833 -23.666 -77.5 -30.999l-28 47c26 17.333 49.333 34 70 50
s40 32.333 58 49h82zM571.998 262c0 -40 -6.16699 -76.833 -18.5 -110.5s-30 -62.5 -53 -86.5s-51 -42.833 -84 -56.5s-69.833 -20.5 -110.5 -20.5s-77.5 6.83301 -110.5 20.5s-61 32.5 -84 56.5s-40.667 52.833 -53 86.5s-18.5 70.5 -18.5 110.5s6.16699 76.833 18.5 110.5
s30 62.667 53 87s51 43.333 84 57s69.833 20.5 110.5 20.5s77.5 -6.83301 110.5 -20.5s61 -32.667 84 -57s40.667 -53.333 53 -87s18.5 -70.5 18.5 -110.5zM453.998 262c0 25.333 -3.33301 49 -10 71s-16.167 41 -28.5 57s-27.666 28.5 -45.999 37.5s-39.5 13.5 -63.5 13.5
s-45.167 -4.5 -63.5 -13.5s-33.833 -21.5 -46.5 -37.5s-22.334 -35 -29.001 -57s-10 -45.667 -10 -71s3.33301 -48.833 10 -70.5s16.334 -40.5 29.001 -56.5s28.167 -28.5 46.5 -37.5s39.5 -13.5 63.5 -13.5s45.167 4.5 63.5 13.5s33.666 21.5 45.999 37.5
s21.833 34.833 28.5 56.5s10 45.167 10 70.5z" />
    <glyph glyph-name="otilde" unicode="&#xf5;" horiz-adv-x="612" 
d="M572 262c0 -40 -6.16699 -76.833 -18.5 -110.5s-30 -62.5 -53 -86.5s-51 -42.833 -84 -56.5s-69.833 -20.5 -110.5 -20.5s-77.5 6.83301 -110.5 20.5s-61 32.5 -84 56.5s-40.667 52.833 -53 86.5s-18.5 70.5 -18.5 110.5s6.16699 76.833 18.5 110.5s30 62.667 53 87
s51 43.333 84 57s69.833 20.5 110.5 20.5s77.5 -6.83301 110.5 -20.5s61 -32.667 84 -57s40.667 -53.333 53 -87s18.5 -70.5 18.5 -110.5zM454 262c0 25.333 -3.33301 49 -10 71s-16.167 41 -28.5 57s-27.666 28.5 -45.999 37.5s-39.5 13.5 -63.5 13.5
s-45.167 -4.5 -63.5 -13.5s-33.833 -21.5 -46.5 -37.5s-22.334 -35 -29.001 -57s-10 -45.667 -10 -71s3.33301 -48.833 10 -70.5s16.334 -40.5 29.001 -56.5s28.167 -28.5 46.5 -37.5s39.5 -13.5 63.5 -13.5s45.167 4.5 63.5 13.5s33.666 21.5 45.999 37.5
s21.833 34.833 28.5 56.5s10 45.167 10 70.5zM480 681c-10.667 -25.333 -25.3311 -46.501 -43.998 -63.501s-39.667 -25.5 -63 -25.5c-12 0 -23.833 2 -35.5 6s-22.834 8.5 -33.501 13.5s-21 9.5 -31 13.5s-20 6 -30 6c-12 0 -23.833 -3.16699 -35.5 -9.5
s-22.834 -16.166 -33.501 -29.499l-42 28c10 25.333 24.5 46.333 43.5 63s40.167 25 63.5 25c12 0 23.667 -2 35 -6s22.5 -8.33301 33.5 -13l32 -13c10.333 -4 20.5 -6 30.5 -6c24 0 46.667 13 68 39z" />
    <glyph glyph-name="odieresis" unicode="&#xf6;" horiz-adv-x="612" 
d="M572 262c0 -40 -6.16699 -76.833 -18.5 -110.5s-30 -62.5 -53 -86.5s-51 -42.833 -84 -56.5s-69.833 -20.5 -110.5 -20.5s-77.5 6.83301 -110.5 20.5s-61 32.5 -84 56.5s-40.667 52.833 -53 86.5s-18.5 70.5 -18.5 110.5s6.16699 76.833 18.5 110.5s30 62.667 53 87
s51 43.333 84 57s69.833 20.5 110.5 20.5s77.5 -6.83301 110.5 -20.5s61 -32.667 84 -57s40.667 -53.333 53 -87s18.5 -70.5 18.5 -110.5zM454 262c0 25.333 -3.33301 49 -10 71s-16.167 41 -28.5 57s-27.666 28.5 -45.999 37.5s-39.5 13.5 -63.5 13.5
s-45.167 -4.5 -63.5 -13.5s-33.833 -21.5 -46.5 -37.5s-22.334 -35 -29.001 -57s-10 -45.667 -10 -71s3.33301 -48.833 10 -70.5s16.334 -40.5 29.001 -56.5s28.167 -28.5 46.5 -37.5s39.5 -13.5 63.5 -13.5s45.167 4.5 63.5 13.5s33.666 21.5 45.999 37.5
s21.833 34.833 28.5 56.5s10 45.167 10 70.5zM154 594v91h89v-91h-89zM370 594v91h88v-91h-88z" />
    <glyph glyph-name="divide" unicode="&#xf7;" 
d="M364 496c0 -19.333 -6.83301 -36 -20.5 -50s-30.167 -21 -49.5 -21c-20 0 -36.833 7 -50.5 21s-20.5 30.667 -20.5 50s6.83301 36 20.5 50s30.5 21 50.5 21c19.333 0 35.833 -7 49.5 -21s20.5 -30.667 20.5 -50zM48 257v94h491v-94h-491zM364 112
c0 -19.333 -6.83301 -36 -20.5 -50s-30.167 -21 -49.5 -21c-20 0 -36.833 7 -50.5 21s-20.5 30.667 -20.5 50s6.83301 36 20.5 50s30.5 21 50.5 21c19.333 0 35.833 -7 49.5 -21s20.5 -30.667 20.5 -50z" />
    <glyph glyph-name="oslash" unicode="&#xf8;" horiz-adv-x="612" 
d="M101 22l22.002 31c-26.667 24.667 -47.167 54.667 -61.5 90s-21.5 75 -21.5 119c0 40 6.16699 76.833 18.5 110.5s30 62.667 53 87s51 43.333 84 57s69.833 20.5 110.5 20.5c25.333 0 49 -2.83301 71 -8.5s42.667 -13.5 62 -23.5l23 32l49 -34l-23 -32
c27.333 -24.667 48.166 -54.667 62.499 -90s21.5 -75 21.5 -119c0 -40 -6.16699 -76.833 -18.5 -110.5s-30 -62.5 -53 -86.5s-51 -42.833 -84 -56.5s-69.833 -20.5 -110.5 -20.5c-50.667 0 -95.334 10.667 -134.001 32l-22 -32zM157.002 262
c0 -22.667 2.50098 -43.6689 7.50098 -63.002s12.833 -36.666 23.5 -51.999l193 275c-10.667 6.66699 -22.334 11.834 -35.001 15.501s-26 5.5 -40 5.5c-24 0 -45.333 -4.66699 -64 -14s-34.167 -22 -46.5 -38s-21.833 -35 -28.5 -57s-10 -46 -10 -72zM455.003 261.998
c0 46.667 -10.668 85.333 -32.001 116l-193 -275c20.667 -14 46 -21 76 -21c24 0 45.167 4.66699 63.5 14s33.833 22 46.5 38s22.334 35 29.001 57s10 45.667 10 71z" />
    <glyph glyph-name="ugrave" unicode="&#xf9;" horiz-adv-x="603" 
d="M530 525v-524.998h-110v76c-21.333 -28 -46.333 -49.667 -75 -65s-61 -23 -97 -23c-58 0 -102.667 17.667 -134 53s-47 82.666 -47 141.999v342h110v-317c0 -14 1.33301 -28 4 -42s7.83398 -26.833 15.501 -38.5s18.167 -21 31.5 -28s31 -10.5 53 -10.5
c19.333 0 37.5 3.33301 54.5 10s31.667 16.167 44 28.5s22.166 27.166 29.499 44.499s11 37 11 59v294h110zM309 575.002c-14 8 -28.166 17.332 -42.499 27.999s-28 22.167 -41 34.5s-24.667 25 -35 38s-18.166 25.833 -23.499 38.5l98 16
c9.33301 -19.333 22.166 -40.666 38.499 -63.999s32.166 -44 47.499 -62z" />
    <glyph glyph-name="uacute" unicode="&#xfa;" horiz-adv-x="603" 
d="M530 525v-524.998h-110v76c-21.333 -28 -46.333 -49.667 -75 -65s-61 -23 -97 -23c-58 0 -102.667 17.667 -134 53s-47 82.666 -47 141.999v342h110v-317c0 -14 1.33301 -28 4 -42s7.83398 -26.833 15.501 -38.5s18.167 -21 31.5 -28s31 -10.5 53 -10.5
c19.333 0 37.5 3.33301 54.5 10s31.667 16.167 44 28.5s22.166 27.166 29.499 44.499s11 37 11 59v294h110zM256 604.002c15.333 18 31.167 38.668 47.5 62.001s29.166 44.666 38.499 63.999l98 -16c-5.33301 -12.667 -13.166 -25.5 -23.499 -38.5s-22 -25.667 -35 -38
s-26.667 -23.833 -41 -34.5s-28.5 -20 -42.5 -28z" />
    <glyph glyph-name="ucircumflex" unicode="&#xfb;" horiz-adv-x="603" 
d="M530 525v-524.998h-110v76c-21.333 -28 -46.333 -49.667 -75 -65s-61 -23 -97 -23c-58 0 -102.667 17.667 -134 53s-47 82.666 -47 141.999v342h110v-317c0 -14 1.33301 -28 4 -42s7.83398 -26.833 15.501 -38.5s18.167 -21 31.5 -28s31 -10.5 53 -10.5
c19.333 0 37.5 3.33301 54.5 10s31.667 16.167 44 28.5s22.166 27.166 29.499 44.499s11 37 11 59v294h110zM340 725.002c18.667 -16.667 38.332 -33 58.999 -49s43.667 -32.667 69 -50l-28 -47c-26 7.33301 -51.667 17.666 -77 30.999s-46.666 27.666 -63.999 42.999
c-17.333 -15.333 -38.5 -29.666 -63.5 -42.999s-50.833 -23.666 -77.5 -30.999l-28 47c26 17.333 49.333 34 70 50s40 32.333 58 49h82z" />
    <glyph glyph-name="udieresis" unicode="&#xfc;" horiz-adv-x="603" 
d="M530 525v-524.998h-110v76c-21.333 -28 -46.333 -49.667 -75 -65s-61 -23 -97 -23c-58 0 -102.667 17.667 -134 53s-47 82.666 -47 141.999v342h110v-317c0 -14 1.33301 -28 4 -42s7.83398 -26.833 15.501 -38.5s18.167 -21 31.5 -28s31 -10.5 53 -10.5
c19.333 0 37.5 3.33301 54.5 10s31.667 16.167 44 28.5s22.166 27.166 29.499 44.499s11 37 11 59v294h110zM146 594.002v91h89v-91h-89zM362 594.002v91h88v-91h-88z" />
    <glyph glyph-name="yacute" unicode="&#xfd;" horiz-adv-x="604" 
d="M252 604c15.333 18 31.167 38.668 47.5 62.001s29.166 44.666 38.499 63.999l98 -16c-5.33301 -12.667 -13.166 -25.5 -23.499 -38.5s-22 -25.667 -35 -38s-26.667 -23.833 -41 -34.5s-28.5 -20 -42.5 -28zM421.001 116.001c-21.333 -28 -46.333 -49.668 -75 -65.001
s-61 -23 -97 -23c-58 0 -102.667 17.667 -134 53s-47 82.666 -47 141.999v302h110v-276c0 -14 1.33301 -28.167 4 -42.5s7.83398 -27.166 15.501 -38.499s18.167 -20.666 31.5 -27.999s31 -11 53 -11c19.333 0 37.5 3.33301 54.5 10s31.667 16.167 44 28.5
s22.166 27.166 29.499 44.499s11 37 11 59v254h110v-454c0 -36 -4 -69.167 -12 -99.5s-23 -57.166 -45 -80.499c-23.333 -24 -52.333 -42.5 -87 -55.5s-75.334 -19.5 -122.001 -19.5c-40.667 0 -78.167 5.16699 -112.5 15.5s-65.166 25.166 -92.499 44.499l48 85
c23.333 -17.333 48.5 -29.666 75.5 -36.999s54.167 -11 81.5 -11c22 0 42.5 2.5 61.5 7.5s35.5 12.833 49.5 23.5s25 24.5 33 41.5s12 37.5 12 61.5v69z" />
    <glyph glyph-name="thorn" unicode="&#xfe;" horiz-adv-x="641" 
d="M183 714v-266.001c24 32 51 54.833 81 68.5s62 20.5 96 20.5c37.333 0 71 -7 101 -21s55.333 -33.333 76 -58s36.5 -53.667 47.5 -87s16.5 -69.333 16.5 -108c0 -39.333 -5.5 -75.666 -16.5 -108.999s-26.833 -62.333 -47.5 -87s-46 -44 -76 -58s-63.667 -21 -101 -21
c-34 0 -66 6.83301 -96 20.5s-57 36.167 -81 67.5v-250h-110v888h110zM183 261.999c0 -24 3.33203 -46.667 9.99902 -68s16.5 -40 29.5 -56s29 -28.5 48 -37.5s41.167 -13.5 66.5 -13.5c24.667 0 46.167 4.66699 64.5 14s33.666 21.833 45.999 37.5s21.5 34.167 27.5 55.5
s9 44 9 68s-3 46.667 -9 68s-15.167 40 -27.5 56s-27.666 28.667 -45.999 38s-39.833 14 -64.5 14c-25.333 0 -47.666 -4.66699 -66.999 -14s-35.5 -22 -48.5 -38s-22.667 -34.667 -29 -56s-9.5 -44 -9.5 -68z" />
    <glyph glyph-name="ydieresis" unicode="&#xff;" horiz-adv-x="604" 
d="M421 116c-21.333 -28 -46.333 -49.668 -75 -65.001s-61 -23 -97 -23c-58 0 -102.667 17.667 -134 53s-47 82.666 -47 141.999v302h110v-276c0 -14 1.33301 -28.167 4 -42.5s7.83398 -27.166 15.501 -38.499s18.167 -20.666 31.5 -27.999s31 -11 53 -11
c19.333 0 37.5 3.33301 54.5 10s31.667 16.167 44 28.5s22.166 27.166 29.499 44.499s11 37 11 59v254h110v-454c0 -36 -4 -69.167 -12 -99.5s-23 -57.166 -45 -80.499c-23.333 -24 -52.333 -42.5 -87 -55.5s-75.334 -19.5 -122.001 -19.5
c-40.667 0 -78.167 5.16699 -112.5 15.5s-65.166 25.166 -92.499 44.499l48 85c23.333 -17.333 48.5 -29.666 75.5 -36.999s54.167 -11 81.5 -11c22 0 42.5 2.5 61.5 7.5s35.5 12.833 49.5 23.5s25 24.5 33 41.5s12 37.5 12 61.5v69zM150 593.999v91h89v-91h-89z
M366 593.999v91h88v-91h-88z" />
    <glyph glyph-name="Amacron" unicode="&#x100;" horiz-adv-x="676" 
d="M537 0l-63 170h-276l-63 -170h-127l261 666h138l261 -666h-131zM337 563l-108 -295h213zM182 731v67h311v-67h-311z" />
    <glyph glyph-name="amacron" unicode="&#x101;" horiz-adv-x="662" 
d="M569 122c0 -17.333 2.66797 -29.6689 8.00098 -37.002s14.666 -11 27.999 -11c12.667 0 22.334 2.33301 29.001 7l13 -76c-9.33301 -4.66699 -20.5 -8 -33.5 -10s-24.167 -3 -33.5 -3c-25.333 0 -48.833 6 -70.5 18s-36.5 33.667 -44.5 65
c-22.667 -32 -49.834 -54.5 -81.501 -67.5s-65.167 -19.5 -100.5 -19.5c-38 0 -72.167 7 -102.5 21s-55.833 33.333 -76.5 58s-36.5 53.667 -47.5 87s-16.5 69.333 -16.5 108s5.5 74.834 16.5 108.501s27 62.834 48 87.501s46.333 44 76 58s63.167 21 100.5 21
c34.667 0 67 -6.83301 97 -20.5s56.667 -36.5 80 -68.5v77h111v-403zM458.001 261.997c0 24.667 -3.33203 47.667 -9.99902 69s-16.334 40 -29.001 56s-28.667 28.5 -48 37.5s-41.333 13.5 -66 13.5c-25.333 0 -47.166 -4.66699 -65.499 -14s-33.666 -22 -45.999 -38
s-21.5 -34.667 -27.5 -56s-9 -44 -9 -68s3 -46.667 9 -68s15.167 -40 27.5 -56s27.666 -28.5 45.999 -37.5s40.166 -13.5 65.499 -13.5s47.5 4.5 66.5 13.5s35 21.5 48 37.5s22.667 34.667 29 56s9.5 44 9.5 68zM153.002 603.997v67h311v-67h-311z" />
    <glyph glyph-name="Abreve" unicode="&#x102;" horiz-adv-x="676" 
d="M537 0l-63 170h-276l-63 -170h-127l261 666h138l261 -666h-131zM337 563l-108 -295h213zM337 713c-47.333 0 -85.0039 11.333 -113.004 34s-45 51 -51 85l58 18c6.66699 -19.333 18.834 -35 36.501 -47s40.834 -18 69.501 -18c29.333 0 52.833 6 70.5 18
s29.5 27.667 35.5 47l58 -18c-5.33301 -34 -22.166 -62.333 -50.499 -85s-66.166 -34 -113.499 -34z" />
    <glyph glyph-name="abreve" unicode="&#x103;" horiz-adv-x="662" 
d="M307 587c-47.333 0 -85.0039 11.333 -113.004 34s-45 51 -51 85l58 18c6.66699 -19.333 18.834 -35 36.501 -47s40.834 -18 69.501 -18c29.333 0 52.833 6 70.5 18s29.5 27.667 35.5 47l58 -18c-5.33301 -34 -22.166 -62.333 -50.499 -85s-66.166 -34 -113.499 -34z
M568.996 122c0 -17.333 2.66797 -29.6689 8.00098 -37.002s14.666 -11 27.999 -11c12.667 0 22.334 2.33301 29.001 7l13 -76c-9.33301 -4.66699 -20.5 -8 -33.5 -10s-24.167 -3 -33.5 -3c-25.333 0 -48.833 6 -70.5 18s-36.5 33.667 -44.5 65
c-22.667 -32 -49.834 -54.5 -81.501 -67.5s-65.167 -19.5 -100.5 -19.5c-38 0 -72.167 7 -102.5 21s-55.833 33.333 -76.5 58s-36.5 53.667 -47.5 87s-16.5 69.333 -16.5 108s5.5 74.834 16.5 108.501s27 62.834 48 87.501s46.333 44 76 58s63.167 21 100.5 21
c34.667 0 67 -6.83301 97 -20.5s56.667 -36.5 80 -68.5v77h111v-403zM457.997 261.997c0 24.667 -3.33203 47.667 -9.99902 69s-16.334 40 -29.001 56s-28.667 28.5 -48 37.5s-41.333 13.5 -66 13.5c-25.333 0 -47.166 -4.66699 -65.499 -14s-33.666 -22 -45.999 -38
s-21.5 -34.667 -27.5 -56s-9 -44 -9 -68s3 -46.667 9 -68s15.167 -40 27.5 -56s27.666 -28.5 45.999 -37.5s40.166 -13.5 65.499 -13.5s47.5 4.5 66.5 13.5s35 21.5 48 37.5s22.667 34.667 29 56s9.5 44 9.5 68z" />
    <glyph glyph-name="Aogonek" unicode="&#x104;" horiz-adv-x="676" 
d="M668 0c-42.667 -3.33301 -73.835 -10.668 -93.502 -22.001s-29.5 -25.666 -29.5 -42.999c0 -12 4.66699 -22 14 -30s22.333 -12 39 -12c14.667 0 27.834 3.16699 39.501 9.5s21.834 14.166 30.501 23.499v-76c-7.33301 -7.33301 -18.5 -13.833 -33.5 -19.5
s-32.167 -8.5 -51.5 -8.5c-32 0 -58.667 7.83301 -80 23.5s-32 36.834 -32 63.501c0 16 4.66699 32.167 14 48.5s26 31.833 50 46.5l-61 166h-276l-63 -170h-127l261 666h138zM336.999 562.998l-108 -295h213z" />
    <glyph glyph-name="aogonek" unicode="&#x105;" horiz-adv-x="662" 
d="M569 122c0 -17.333 2.66895 -29.668 8.00195 -37.001s14.666 -11 27.999 -11c12.667 0 22.334 2.33301 29.001 7l13 -76c-9.33301 -4.66699 -20.5 -8 -33.5 -10s-24.167 -3 -33.5 -3c-10.667 0 -21 1 -31 3c-8 -9.33301 -14.333 -18.666 -19 -27.999s-7 -19 -7 -29
c0 -15.333 5 -26.666 15 -33.999s22.667 -11 38 -11s28.666 3.16699 39.999 9.5s21.333 14.166 30 23.499v-76c-7.33301 -7.33301 -18.5 -13.833 -33.5 -19.5s-32.167 -8.5 -51.5 -8.5c-32 0 -58.667 7.83301 -80 23.5s-32 37.5 -32 65.5c0 16.667 4.66699 33.667 14 51
s24.333 33.666 45 48.999c-10 6.66699 -18.667 15.167 -26 25.5s-13 23.166 -17 38.499c-22.667 -32 -49.834 -54.5 -81.501 -67.5s-65.167 -19.5 -100.5 -19.5c-38 0 -72.167 7 -102.5 21s-55.833 33.333 -76.5 58s-36.5 53.667 -47.5 87s-16.5 69.333 -16.5 108
s5.5 74.834 16.5 108.501s27 62.834 48 87.501s46.333 44 76 58s63.167 21 100.5 21c34.667 0 67 -6.83301 97 -20.5s56.667 -36.5 80 -68.5v77h111v-403zM458.002 261.998c0 24.667 -3.33203 47.667 -9.99902 69s-16.334 40 -29.001 56s-28.667 28.5 -48 37.5
s-41.333 13.5 -66 13.5c-25.333 0 -47.166 -4.66699 -65.499 -14s-33.666 -22 -45.999 -38s-21.5 -34.667 -27.5 -56s-9 -44 -9 -68s3 -46.667 9 -68s15.167 -40 27.5 -56s27.666 -28.5 45.999 -37.5s40.166 -13.5 65.499 -13.5s47.5 4.5 66.5 13.5s35 21.5 48 37.5
s22.667 34.667 29 56s9.5 44 9.5 68z" />
    <glyph glyph-name="Cacute" unicode="&#x106;" horiz-adv-x="677" 
d="M551 474c-41.333 66.667 -100.668 100.003 -178.001 100.003c-32 0 -60.833 -5.83301 -86.5 -17.5s-47.5 -28 -65.5 -49s-31.833 -46.167 -41.5 -75.5s-14.5 -61.666 -14.5 -96.999c0 -36 4.83301 -68.833 14.5 -98.5s23.5 -55.334 41.5 -77.001
s39.833 -38.334 65.5 -50.001s54.167 -17.5 85.5 -17.5c40 0 74.667 9.16699 104 27.5s54 44.166 74 77.499l97 -56c-30 -48 -67.833 -85.5 -113.5 -112.5s-99.834 -40.5 -162.501 -40.5c-49.333 0 -94 8.5 -134 25.5s-74.5 40.833 -103.5 71.5s-51.333 67.167 -67 109.5
s-23.5 88.833 -23.5 139.5c0 50 7.83301 96.167 23.5 138.5s37.834 78.666 66.501 108.999s63.167 54 103.5 71s84.833 25.5 133.5 25.5c58.667 0 110.834 -12 156.501 -36s84.5 -60.333 116.5 -109zM302.998 730.003c15.333 18 31.167 38.668 47.5 62.001
s29.166 44.666 38.499 63.999l98 -16c-5.33301 -12.667 -13.166 -25.5 -23.499 -38.5s-22 -25.667 -35 -38s-26.667 -23.833 -41 -34.5s-28.5 -20 -42.5 -28z" />
    <glyph glyph-name="cacute" unicode="&#x107;" horiz-adv-x="547" 
d="M519 104c-22 -33.333 -51.001 -60.9951 -87.001 -82.9951s-80 -33 -132 -33c-40 0 -76.167 7 -108.5 21s-59.666 33.167 -81.999 57.5s-39.666 53.166 -51.999 86.499s-18.5 69.666 -18.5 108.999s6.16699 75.833 18.5 109.5s29.833 62.667 52.5 87s50 43.5 82 57.5
s67.667 21 107 21c50 0 93 -10.833 129 -32.5s65.333 -49.834 88 -84.501l-83 -59c-13.333 24 -30.833 43.167 -52.5 57.5s-47.167 21.5 -76.5 21.5c-23.333 0 -44 -4.5 -62 -13.5s-33.5 -21.333 -46.5 -37s-22.833 -34.334 -29.5 -56.001s-10 -45.167 -10 -70.5
c0 -26 3.5 -49.833 10.5 -71.5s16.833 -40.334 29.5 -56.001s28.167 -28 46.5 -37s39.166 -13.5 62.499 -13.5c30.667 0 56.5 7.16699 77.5 21.5s38.833 32.5 53.5 54.5zM242.999 603.005c14.667 18 29.001 38.667 43.001 62s25 45 33 65l98 -16
c-11.333 -25.333 -29.333 -50.5 -54 -75.5s-50.334 -46.167 -77.001 -63.5z" />
    <glyph glyph-name="Ccircumflex" unicode="&#x108;" horiz-adv-x="677" 
d="M551 474c-41.333 66.667 -100.668 100.003 -178.001 100.003c-32 0 -60.833 -5.83301 -86.5 -17.5s-47.5 -28 -65.5 -49s-31.833 -46.167 -41.5 -75.5s-14.5 -61.666 -14.5 -96.999c0 -36 4.83301 -68.833 14.5 -98.5s23.5 -55.334 41.5 -77.001
s39.833 -38.334 65.5 -50.001s54.167 -17.5 85.5 -17.5c40 0 74.667 9.16699 104 27.5s54 44.166 74 77.499l97 -56c-30 -48 -67.833 -85.5 -113.5 -112.5s-99.834 -40.5 -162.501 -40.5c-49.333 0 -94 8.5 -134 25.5s-74.5 40.833 -103.5 71.5s-51.333 67.167 -67 109.5
s-23.5 88.833 -23.5 139.5c0 50 7.83301 96.167 23.5 138.5s37.834 78.666 66.501 108.999s63.167 54 103.5 71s84.833 25.5 133.5 25.5c58.667 0 110.834 -12 156.501 -36s84.5 -60.333 116.5 -109zM408.998 851.003c18.667 -16.667 38.332 -33 58.999 -49
s43.667 -32.667 69 -50l-28 -47c-26 7.33301 -51.667 17.666 -77 30.999s-46.666 27.666 -63.999 42.999c-17.333 -15.333 -38.5 -29.666 -63.5 -42.999s-50.833 -23.666 -77.5 -30.999l-28 47c26 17.333 49.333 34 70 50s40 32.333 58 49h82z" />
    <glyph glyph-name="ccircumflex" unicode="&#x109;" horiz-adv-x="547" 
d="M519 104c-22 -33.333 -51.001 -60.9951 -87.001 -82.9951s-80 -33 -132 -33c-40 0 -76.167 7 -108.5 21s-59.666 33.167 -81.999 57.5s-39.666 53.166 -51.999 86.499s-18.5 69.666 -18.5 108.999s6.16699 75.833 18.5 109.5s29.833 62.667 52.5 87s50 43.5 82 57.5
s67.667 21 107 21c50 0 93 -10.833 129 -32.5s65.333 -49.834 88 -84.501l-83 -59c-13.333 24 -30.833 43.167 -52.5 57.5s-47.167 21.5 -76.5 21.5c-23.333 0 -44 -4.5 -62 -13.5s-33.5 -21.333 -46.5 -37s-22.833 -34.334 -29.5 -56.001s-10 -45.167 -10 -70.5
c0 -26 3.5 -49.833 10.5 -71.5s16.833 -40.334 29.5 -56.001s28.167 -28 46.5 -37s39.166 -13.5 62.499 -13.5c30.667 0 56.5 7.16699 77.5 21.5s38.833 32.5 53.5 54.5zM336.999 725.005c18.667 -16.667 38.332 -33 58.999 -49s43.667 -32.667 69 -50l-28 -47
c-26 7.33301 -51.667 17.666 -77 30.999s-46.666 27.666 -63.999 42.999c-17.333 -15.333 -38.5 -29.666 -63.5 -42.999s-50.833 -23.666 -77.5 -30.999l-28 47c26 17.333 49.333 34 70 50s40 32.333 58 49h82z" />
    <glyph glyph-name="Cdotaccent" unicode="&#x10a;" horiz-adv-x="677" 
d="M551 474c-41.333 66.667 -100.668 100.003 -178.001 100.003c-32 0 -60.833 -5.83301 -86.5 -17.5s-47.5 -28 -65.5 -49s-31.833 -46.167 -41.5 -75.5s-14.5 -61.666 -14.5 -96.999c0 -36 4.83301 -68.833 14.5 -98.5s23.5 -55.334 41.5 -77.001
s39.833 -38.334 65.5 -50.001s54.167 -17.5 85.5 -17.5c40 0 74.667 9.16699 104 27.5s54 44.166 74 77.499l97 -56c-30 -48 -67.833 -85.5 -113.5 -112.5s-99.834 -40.5 -162.501 -40.5c-49.333 0 -94 8.5 -134 25.5s-74.5 40.833 -103.5 71.5s-51.333 67.167 -67 109.5
s-23.5 88.833 -23.5 139.5c0 50 7.83301 96.167 23.5 138.5s37.834 78.666 66.501 108.999s63.167 54 103.5 71s84.833 25.5 133.5 25.5c58.667 0 110.834 -12 156.501 -36s84.5 -60.333 116.5 -109zM319.998 722.003v89h93v-89h-93z" />
    <glyph glyph-name="cdotaccent" unicode="&#x10b;" horiz-adv-x="547" 
d="M519 104c-22 -33.333 -51.001 -60.9951 -87.001 -82.9951s-80 -33 -132 -33c-40 0 -76.167 7 -108.5 21s-59.666 33.167 -81.999 57.5s-39.666 53.166 -51.999 86.499s-18.5 69.666 -18.5 108.999s6.16699 75.833 18.5 109.5s29.833 62.667 52.5 87s50 43.5 82 57.5
s67.667 21 107 21c50 0 93 -10.833 129 -32.5s65.333 -49.834 88 -84.501l-83 -59c-13.333 24 -30.833 43.167 -52.5 57.5s-47.167 21.5 -76.5 21.5c-23.333 0 -44 -4.5 -62 -13.5s-33.5 -21.333 -46.5 -37s-22.833 -34.334 -29.5 -56.001s-10 -45.167 -10 -70.5
c0 -26 3.5 -49.833 10.5 -71.5s16.833 -40.334 29.5 -56.001s28.167 -28 46.5 -37s39.166 -13.5 62.499 -13.5c30.667 0 56.5 7.16699 77.5 21.5s38.833 32.5 53.5 54.5zM246.999 596.005v89h93v-89h-93z" />
    <glyph glyph-name="Ccaron" unicode="&#x10c;" horiz-adv-x="677" 
d="M551 474c-41.333 66.667 -100.668 100.003 -178.001 100.003c-32 0 -60.833 -5.83301 -86.5 -17.5s-47.5 -28 -65.5 -49s-31.833 -46.167 -41.5 -75.5s-14.5 -61.666 -14.5 -96.999c0 -36 4.83301 -68.833 14.5 -98.5s23.5 -55.334 41.5 -77.001
s39.833 -38.334 65.5 -50.001s54.167 -17.5 85.5 -17.5c40 0 74.667 9.16699 104 27.5s54 44.166 74 77.499l97 -56c-30 -48 -67.833 -85.5 -113.5 -112.5s-99.834 -40.5 -162.501 -40.5c-49.333 0 -94 8.5 -134 25.5s-74.5 40.833 -103.5 71.5s-51.333 67.167 -67 109.5
s-23.5 88.833 -23.5 139.5c0 50 7.83301 96.167 23.5 138.5s37.834 78.666 66.501 108.999s63.167 54 103.5 71s84.833 25.5 133.5 25.5c58.667 0 110.834 -12 156.501 -36s84.5 -60.333 116.5 -109zM325.998 709.003c-18 16.667 -37.3311 33 -57.998 49s-44 32.667 -70 50
l28 47c26.667 -7.33301 52.5 -17.666 77.5 -30.999s46.167 -27.666 63.5 -42.999c17.333 15.333 38.666 29.666 63.999 42.999s51 23.666 77 30.999l28 -47c-25.333 -17.333 -48.333 -34 -69 -50s-40.334 -32.333 -59.001 -49h-82z" />
    <glyph glyph-name="ccaron" unicode="&#x10d;" horiz-adv-x="547" 
d="M519 104c-22 -33.333 -51.001 -60.9951 -87.001 -82.9951s-80 -33 -132 -33c-40 0 -76.167 7 -108.5 21s-59.666 33.167 -81.999 57.5s-39.666 53.166 -51.999 86.499s-18.5 69.666 -18.5 108.999s6.16699 75.833 18.5 109.5s29.833 62.667 52.5 87s50 43.5 82 57.5
s67.667 21 107 21c50 0 93 -10.833 129 -32.5s65.333 -49.834 88 -84.501l-83 -59c-13.333 24 -30.833 43.167 -52.5 57.5s-47.167 21.5 -76.5 21.5c-23.333 0 -44 -4.5 -62 -13.5s-33.5 -21.333 -46.5 -37s-22.833 -34.334 -29.5 -56.001s-10 -45.167 -10 -70.5
c0 -26 3.5 -49.833 10.5 -71.5s16.833 -40.334 29.5 -56.001s28.167 -28 46.5 -37s39.166 -13.5 62.499 -13.5c30.667 0 56.5 7.16699 77.5 21.5s38.833 32.5 53.5 54.5zM255.999 583.005c-18 16.667 -37.3311 33 -57.998 49s-44 32.667 -70 50l28 47
c26.667 -7.33301 52.5 -17.666 77.5 -30.999s46.167 -27.666 63.5 -42.999c17.333 15.333 38.666 29.666 63.999 42.999s51 23.666 77 30.999l28 -47c-25.333 -17.333 -48.333 -34 -69 -50s-40.334 -32.333 -59.001 -49h-82z" />
    <glyph glyph-name="Dcaron" unicode="&#x10e;" horiz-adv-x="721" 
d="M347 106c68 0 119.667 20.499 155 61.499s53 96.167 53 165.5c0 34.667 -4.5 66 -13.5 94s-22.167 51.833 -39.5 71.5s-39 34.834 -65 45.501s-56 16 -90 16h-146v-454h146zM83 -0.000976562v666.002h264c53.333 0 100.5 -8.5 141.5 -25.5s75.5 -40.333 103.5 -70
s49.167 -64.834 63.5 -105.501s21.5 -84.667 21.5 -132s-7.16699 -91.333 -21.5 -132s-35.5 -75.834 -63.5 -105.501s-62.5 -53 -103.5 -70s-88.167 -25.5 -141.5 -25.5h-264zM315 709.001c-18 16.667 -37.3311 33 -57.998 49s-44 32.667 -70 50l28 47
c26.667 -7.33301 52.5 -17.666 77.5 -30.999s46.167 -27.666 63.5 -42.999c17.333 15.333 38.666 29.666 63.999 42.999s51 23.666 77 30.999l28 -47c-25.333 -17.333 -48.333 -34 -69 -50s-40.334 -32.333 -59.001 -49h-82z" />
    <glyph glyph-name="dcaron" unicode="&#x10f;" horiz-adv-x="706" 
d="M458 0l-0.000976562 76.998c-23.333 -32 -50.166 -54.833 -80.499 -68.5s-62.5 -20.5 -96.5 -20.5c-37.333 0 -70.833 7 -100.5 21s-55 33.333 -76 58s-37 53.667 -48 87s-16.5 69.333 -16.5 108s5.5 74.834 16.5 108.501s27 62.834 48 87.501s46.333 44 76 58
s63.167 21 100.5 21c34.667 0 67 -6.83301 97 -20.5s56.667 -36.5 80 -68.5v266h111v-714h-111zM457.999 261.998c0 24.667 -3.33203 47.667 -9.99902 69s-16.334 40 -29.001 56s-28.667 28.5 -48 37.5s-41.333 13.5 -66 13.5c-25.333 0 -47.166 -4.66699 -65.499 -14
s-33.666 -22 -45.999 -38s-21.5 -34.667 -27.5 -56s-9 -44 -9 -68s3 -46.667 9 -68s15.167 -40 27.5 -56s27.666 -28.5 45.999 -37.5s40.166 -13.5 65.499 -13.5s47.5 4.5 66.5 13.5s35 21.5 48 37.5s22.667 34.667 29 56s9.5 44 9.5 68zM764 635.998
c0 -37.333 -7.33301 -70.166 -22 -98.499s-38 -55.833 -70 -82.5l-37 42c14.667 13.333 26.5 28.666 35.5 45.999s13.5 35 13.5 53c0 10 -1.5 18.667 -4.5 26l-9 21.5c-3 7 -5.83301 14.5 -8.5 22.5s-4 17.667 -4 29v19h106v-78z" />
    <glyph glyph-name="Dcroat" unicode="&#x110;" horiz-adv-x="747" 
d="M703 333c0 -48 -7 -92.3311 -21 -132.998s-34.667 -75.834 -62 -105.501s-61.333 -52.834 -102 -69.501s-87.334 -25 -140.001 -25h-269v292h-105v94h105v280h269c52.667 0 99.334 -8.33301 140.001 -25s74.667 -39.667 102 -69s48 -64.5 62 -105.5s21 -85.5 21 -133.5z
M581 333.002c0 72.667 -17.833 129.332 -53.5 169.999s-85.834 61 -150.501 61h-150v-178h172v-94h-172v-190h150c64.667 0 114.834 20.333 150.501 61s53.5 97.334 53.5 170.001z" />
    <glyph glyph-name="dcroat" unicode="&#x111;" horiz-adv-x="642" 
d="M458 0v76.998c-23.333 -32 -50.166 -54.833 -80.499 -68.5s-62.5 -20.5 -96.5 -20.5c-37.333 0 -70.833 7 -100.5 21s-55 33.333 -76 58s-37 53.667 -48 87s-16.5 69.333 -16.5 108s5.5 74.834 16.5 108.501s27 62.834 48 87.501s46.333 44 76 58s63.167 21 100.5 21
c34 0 66.167 -6.83301 96.5 -20.5s57.166 -36.5 80.499 -68.5v155h-132v64h132v47h111v-47h69v-64h-69v-603h-111zM458 261.998c0 24.667 -3.33203 47.667 -9.99902 69s-16.5 40 -29.5 56s-29 28.5 -48 37.5s-41.167 13.5 -66.5 13.5c-24.667 0 -46.167 -4.66699 -64.5 -14
s-33.666 -22 -45.999 -38s-21.5 -34.667 -27.5 -56s-9 -44 -9 -68s3 -46.667 9 -68s15.167 -40 27.5 -56s27.666 -28.5 45.999 -37.5s39.833 -13.5 64.5 -13.5c25.333 0 47.666 4.5 66.999 13.5s35.5 21.5 48.5 37.5s22.667 34.667 29 56s9.5 44 9.5 68z" />
    <glyph glyph-name="Emacron" unicode="&#x112;" horiz-adv-x="621" 
d="M83 0v666h485v-102h-368v-162h320v-102h-320v-198h378v-102h-495zM173 731v67h311v-67h-311z" />
    <glyph glyph-name="emacron" unicode="&#x113;" horiz-adv-x="597" 
d="M560 273c0 -8 -0.166992 -15.165 -0.5 -21.498s-0.833008 -11.833 -1.5 -16.5h-400c2.66699 -48 18.5 -84.833 47.5 -110.5s66.833 -38.5 113.5 -38.5c31.333 0 59.666 5.66699 84.999 17s47.666 27.666 66.999 48.999l72 -69c-28 -29.333 -60.5 -52.5 -97.5 -69.5
s-80.5 -25.5 -130.5 -25.5c-44 0 -83.167 6.83301 -117.5 20.5s-63.166 32.667 -86.499 57s-41 53.166 -53 86.499s-18 69.333 -18 108s6 75 18 109s29.333 63.333 52 88s50.334 44.167 83.001 58.5s69.667 21.5 111 21.5c40 0 75.833 -6.66699 107.5 -20
s58.5 -31.833 80.5 -55.5s38.833 -51.5 50.5 -83.5s17.5 -67 17.5 -105zM449 315.002c-4 44 -19.5 77.167 -46.5 99.5s-59.5 33.5 -97.5 33.5c-42 0 -75.833 -12.333 -101.5 -37s-40.167 -56.667 -43.5 -96h289zM148 604.002v67h311v-67h-311z" />
    <glyph glyph-name="Ebreve" unicode="&#x114;" horiz-adv-x="621" 
d="M83 0v666h485v-102h-368v-162h320v-102h-320v-198h378v-102h-495zM329 713c-47.333 0 -85.0039 11.333 -113.004 34s-45 51 -51 85l58 18c6.66699 -19.333 18.834 -35 36.501 -47s40.834 -18 69.501 -18c29.333 0 52.833 6 70.5 18s29.5 27.667 35.5 47l58 -18
c-5.33301 -34 -22.166 -62.333 -50.499 -85s-66.166 -34 -113.499 -34z" />
    <glyph glyph-name="ebreve" unicode="&#x115;" horiz-adv-x="597" 
d="M560 273c0 -8 -0.166992 -15.165 -0.5 -21.498s-0.833008 -11.833 -1.5 -16.5h-400c2.66699 -48 18.5 -84.833 47.5 -110.5s66.833 -38.5 113.5 -38.5c31.333 0 59.666 5.66699 84.999 17s47.666 27.666 66.999 48.999l72 -69c-28 -29.333 -60.5 -52.5 -97.5 -69.5
s-80.5 -25.5 -130.5 -25.5c-44 0 -83.167 6.83301 -117.5 20.5s-63.166 32.667 -86.499 57s-41 53.166 -53 86.499s-18 69.333 -18 108s6 75 18 109s29.333 63.333 52 88s50.334 44.167 83.001 58.5s69.667 21.5 111 21.5c40 0 75.833 -6.66699 107.5 -20
s58.5 -31.833 80.5 -55.5s38.833 -51.5 50.5 -83.5s17.5 -67 17.5 -105zM449 315.002c-4 44 -19.5 77.167 -46.5 99.5s-59.5 33.5 -97.5 33.5c-42 0 -75.833 -12.333 -101.5 -37s-40.167 -56.667 -43.5 -96h289zM301 587.002c-47.333 0 -85.0039 11.333 -113.004 34
s-45 51 -51 85l58 18c6.66699 -19.333 18.834 -35 36.501 -47s40.834 -18 69.501 -18c29.333 0 52.833 6 70.5 18s29.5 27.667 35.5 47l58 -18c-5.33301 -34 -22.166 -62.333 -50.499 -85s-66.166 -34 -113.499 -34z" />
    <glyph glyph-name="Edotaccent" unicode="&#x116;" horiz-adv-x="621" 
d="M83 0v666h485v-102h-368v-162h320v-102h-320v-198h378v-102h-495zM282 722v89h93v-89h-93z" />
    <glyph glyph-name="edotaccent" unicode="&#x117;" horiz-adv-x="597" 
d="M560 273c0 -8 -0.166992 -15.165 -0.5 -21.498s-0.833008 -11.833 -1.5 -16.5h-400c2.66699 -48 18.5 -84.833 47.5 -110.5s66.833 -38.5 113.5 -38.5c31.333 0 59.666 5.66699 84.999 17s47.666 27.666 66.999 48.999l72 -69c-28 -29.333 -60.5 -52.5 -97.5 -69.5
s-80.5 -25.5 -130.5 -25.5c-44 0 -83.167 6.83301 -117.5 20.5s-63.166 32.667 -86.499 57s-41 53.166 -53 86.499s-18 69.333 -18 108s6 75 18 109s29.333 63.333 52 88s50.334 44.167 83.001 58.5s69.667 21.5 111 21.5c40 0 75.833 -6.66699 107.5 -20
s58.5 -31.833 80.5 -55.5s38.833 -51.5 50.5 -83.5s17.5 -67 17.5 -105zM449 315.002c-4 44 -19.5 77.167 -46.5 99.5s-59.5 33.5 -97.5 33.5c-42 0 -75.833 -12.333 -101.5 -37s-40.167 -56.667 -43.5 -96h289zM254 596.002v89h93v-89h-93z" />
    <glyph glyph-name="Eogonek" unicode="&#x118;" horiz-adv-x="622" 
d="M486 0c-9.33301 -9.33301 -16.832 -19.168 -22.499 -29.501s-8.5 -21.166 -8.5 -32.499c0 -15.333 5 -26.666 15 -33.999s22.667 -11 38 -11s28.666 3.16699 39.999 9.5s21.333 14.166 30 23.499v-76c-7.33301 -7.33301 -18.5 -13.833 -33.5 -19.5
s-32.167 -8.5 -51.5 -8.5c-32 0 -58.667 7.83301 -80 23.5s-32 37.5 -32 65.5c0 14.667 3.66699 29.667 11 45s19 30 35 44h-344v666h485v-106h-368v-161h320v-98h-320v-195h378v-106h-92z" />
    <glyph glyph-name="eogonek" unicode="&#x119;" horiz-adv-x="597" 
d="M560 273c0 -8 -0.166992 -15.1641 -0.5 -21.4971s-0.833008 -11.833 -1.5 -16.5h-400c2.66699 -48 18.5 -84.833 47.5 -110.5s66.833 -38.5 113.5 -38.5c31.333 0 59.666 5.66699 84.999 17s47.666 27.666 66.999 48.999l72 -69c-12 -13.333 -23 -23.5 -33 -30.5
l-36 -24.5c-19.333 -12.667 -35.166 -26 -47.499 -40s-18.5 -29.667 -18.5 -47c0 -16 5.16699 -28 15.5 -36s23.166 -12 38.499 -12c14.667 0 27.667 3.16699 39 9.5s21.333 14.166 30 23.499v-76c-7.33301 -7.33301 -18.5 -13.833 -33.5 -19.5s-32.5 -8.5 -52.5 -8.5
c-31.333 0 -57.666 7.83301 -78.999 23.5s-32 37.5 -32 65.5c0 13.333 2.83301 27 8.5 41s15.167 27.667 28.5 41c-9.33301 -1.33301 -18.5 -2.5 -27.5 -3.5s-19.167 -1.5 -30.5 -1.5c-43.333 0 -82 6.83301 -116 20.5s-62.667 32.667 -86 57s-41 53.166 -53 86.499
s-18 69.333 -18 108s6 75 18 109s29.333 63.333 52 88s50.334 44.167 83.001 58.5s69.667 21.5 111 21.5c40 0 75.833 -6.66699 107.5 -20s58.5 -31.833 80.5 -55.5s38.833 -51.5 50.5 -83.5s17.5 -67 17.5 -105zM449 315.003c-4 44 -19.5 77.167 -46.5 99.5
s-59.5 33.5 -97.5 33.5c-42 0 -75.833 -12.333 -101.5 -37s-40.167 -56.667 -43.5 -96h289z" />
    <glyph glyph-name="Ecaron" unicode="&#x11a;" horiz-adv-x="621" 
d="M83 0v666h485v-102h-368v-162h320v-102h-320v-198h378v-102h-495zM291 709c-18 16.667 -37.3311 33 -57.998 49s-44 32.667 -70 50l28 47c26.667 -7.33301 52.5 -17.666 77.5 -30.999s46.167 -27.666 63.5 -42.999c17.333 15.333 38.666 29.666 63.999 42.999
s51 23.666 77 30.999l28 -47c-25.333 -17.333 -48.333 -34 -69 -50s-40.334 -32.333 -59.001 -49h-82z" />
    <glyph glyph-name="ecaron" unicode="&#x11b;" horiz-adv-x="597" 
d="M560 273c0 -8 -0.166992 -15.165 -0.5 -21.498s-0.833008 -11.833 -1.5 -16.5h-400c2.66699 -48 18.5 -84.833 47.5 -110.5s66.833 -38.5 113.5 -38.5c31.333 0 59.666 5.66699 84.999 17s47.666 27.666 66.999 48.999l72 -69c-28 -29.333 -60.5 -52.5 -97.5 -69.5
s-80.5 -25.5 -130.5 -25.5c-44 0 -83.167 6.83301 -117.5 20.5s-63.166 32.667 -86.499 57s-41 53.166 -53 86.499s-18 69.333 -18 108s6 75 18 109s29.333 63.333 52 88s50.334 44.167 83.001 58.5s69.667 21.5 111 21.5c40 0 75.833 -6.66699 107.5 -20
s58.5 -31.833 80.5 -55.5s38.833 -51.5 50.5 -83.5s17.5 -67 17.5 -105zM449 315.002c-4 44 -19.5 77.167 -46.5 99.5s-59.5 33.5 -97.5 33.5c-42 0 -75.833 -12.333 -101.5 -37s-40.167 -56.667 -43.5 -96h289zM261 583.002c-18 16.667 -37.3311 33 -57.998 49
s-44 32.667 -70 50l28 47c26.667 -7.33301 52.5 -17.666 77.5 -30.999s46.167 -27.666 63.5 -42.999c17.333 15.333 38.666 29.666 63.999 42.999s51 23.666 77 30.999l28 -47c-25.333 -17.333 -48.333 -34 -69 -50s-40.334 -32.333 -59.001 -49h-82z" />
    <glyph glyph-name="Gcircumflex" unicode="&#x11c;" horiz-adv-x="722" 
d="M373 678c60.667 0 113.673 -12.6689 159.006 -38.002s82.666 -60.333 111.999 -105l-96 -58c-19.333 32 -44 56.167 -74 72.5s-64 24.5 -102 24.5c-32.667 0 -61.834 -5.83301 -87.501 -17.5s-47.334 -28.167 -65.001 -49.5s-31.167 -46.666 -40.5 -75.999
s-14 -61.666 -14 -96.999c0 -37.333 4.83301 -70.833 14.5 -100.5s23.5 -55 41.5 -76s40 -37.167 66 -48.5s55.333 -17 88 -17c26 0 50.167 3.5 72.5 10.5s42 17.333 59 31s30.833 30.334 41.5 50.001s17 42.167 19 67.5h-184v102h299
c1.33301 -7.33301 2.5 -15.833 3.5 -25.5s1.5 -19.167 1.5 -28.5c0 -42.667 -6.83301 -82.834 -20.5 -120.501s-33.834 -70.667 -60.501 -99s-59.5 -50.666 -98.5 -66.999s-83.833 -24.5 -134.5 -24.5c-50 0 -95.333 8.5 -136 25.5s-75.334 40.833 -104.001 71.5
s-50.834 67.167 -66.501 109.5s-23.5 88.833 -23.5 139.5s7.83301 97.167 23.5 139.5s38 78.666 67 108.999s63.667 53.833 104 70.5s85.5 25 135.5 25zM410.006 851.998c18.667 -16.667 38.332 -33 58.999 -49s43.667 -32.667 69 -50l-28 -47
c-26 7.33301 -51.667 17.666 -77 30.999s-46.666 27.666 -63.999 42.999c-17.333 -15.333 -38.5 -29.666 -63.5 -42.999s-50.833 -23.666 -77.5 -30.999l-28 47c26 17.333 49.333 34 70 50s40 32.333 58 49h82z" />
    <glyph glyph-name="gcircumflex" unicode="&#x11d;" horiz-adv-x="643" 
d="M571 92c0 -40.667 -4.16699 -76.8311 -12.5 -108.498s-23.5 -59.834 -45.5 -84.501c-28 -31.333 -62.167 -53 -102.5 -65s-82.833 -18 -127.5 -18c-86.667 0 -160.667 20.333 -222 61l48 88c22.667 -16 48.667 -28.667 78 -38s61.333 -14 96 -14
c24.667 0 47.834 2.83301 69.501 8.5s40.5 14.667 56.5 27s28.5 28.166 37.5 47.499s13.5 43 13.5 71v49c-21.333 -30 -48 -52.167 -80 -66.5s-66 -21.5 -102 -21.5c-35.333 0 -67.5 6.5 -96.5 19.5s-54 30.667 -75 53s-37.167 49 -48.5 80s-17 64.5 -17 100.5
c0 36.667 5.83301 70.5 17.5 101.5s28.167 58 49.5 81s46.666 41 75.999 54s61.666 19.5 96.999 19.5c36.667 0 70.334 -7.33301 101.001 -22s56.667 -37 78 -67v77h111v-433zM461 283.003c0 22 -3.33398 42.667 -10.001 62s-16.5 36 -29.5 50s-29.167 25.167 -48.5 33.5
s-41.333 12.5 -66 12.5c-25.333 0 -47.166 -4.16699 -65.499 -12.5s-33.833 -19.666 -46.5 -33.999s-22 -31 -28 -50s-9 -39.5 -9 -61.5s3.16699 -42.667 9.5 -62s15.666 -36.333 27.999 -51s27.833 -26.167 46.5 -34.5s40.334 -12.5 65.001 -12.5s46.5 4.16699 65.5 12.5
s35 19.666 48 33.999s23 31.333 30 51s10.5 40.5 10.5 62.5zM346.999 725.003c18.667 -16.667 38.332 -33 58.999 -49s43.667 -32.667 69 -50l-28 -47c-26 7.33301 -51.667 17.666 -77 30.999s-46.666 27.666 -63.999 42.999c-17.333 -15.333 -38.5 -29.666 -63.5 -42.999
s-50.833 -23.666 -77.5 -30.999l-28 47c26 17.333 49.333 34 70 50s40 32.333 58 49h82z" />
    <glyph glyph-name="Gbreve" unicode="&#x11e;" horiz-adv-x="722" 
d="M373 678c60.667 0 113.673 -12.6689 159.006 -38.002s82.666 -60.333 111.999 -105l-96 -58c-19.333 32 -44 56.167 -74 72.5s-64 24.5 -102 24.5c-32.667 0 -61.834 -5.83301 -87.501 -17.5s-47.334 -28.167 -65.001 -49.5s-31.167 -46.666 -40.5 -75.999
s-14 -61.666 -14 -96.999c0 -37.333 4.83301 -70.833 14.5 -100.5s23.5 -55 41.5 -76s40 -37.167 66 -48.5s55.333 -17 88 -17c26 0 50.167 3.5 72.5 10.5s42 17.333 59 31s30.833 30.334 41.5 50.001s17 42.167 19 67.5h-184v102h299
c1.33301 -7.33301 2.5 -15.833 3.5 -25.5s1.5 -19.167 1.5 -28.5c0 -42.667 -6.83301 -82.834 -20.5 -120.501s-33.834 -70.667 -60.501 -99s-59.5 -50.666 -98.5 -66.999s-83.833 -24.5 -134.5 -24.5c-50 0 -95.333 8.5 -136 25.5s-75.334 40.833 -104.001 71.5
s-50.834 67.167 -66.501 109.5s-23.5 88.833 -23.5 139.5s7.83301 97.167 23.5 139.5s38 78.666 67 108.999s63.667 53.833 104 70.5s85.5 25 135.5 25zM369.006 713.998c-47.333 0 -85.0039 11.333 -113.004 34s-45 51 -51 85l58 18c6.66699 -19.333 18.834 -35 36.501 -47
s40.834 -18 69.501 -18c29.333 0 52.833 6 70.5 18s29.5 27.667 35.5 47l58 -18c-5.33301 -34 -22.166 -62.333 -50.499 -85s-66.166 -34 -113.499 -34z" />
    <glyph glyph-name="gbreve" unicode="&#x11f;" horiz-adv-x="643" 
d="M571 92c0 -40.667 -4.16699 -76.8311 -12.5 -108.498s-23.5 -59.834 -45.5 -84.501c-28 -31.333 -62.167 -53 -102.5 -65s-82.833 -18 -127.5 -18c-86.667 0 -160.667 20.333 -222 61l48 88c22.667 -16 48.667 -28.667 78 -38s61.333 -14 96 -14
c24.667 0 47.834 2.83301 69.501 8.5s40.5 14.667 56.5 27s28.5 28.166 37.5 47.499s13.5 43 13.5 71v49c-21.333 -30 -48 -52.167 -80 -66.5s-66 -21.5 -102 -21.5c-35.333 0 -67.5 6.5 -96.5 19.5s-54 30.667 -75 53s-37.167 49 -48.5 80s-17 64.5 -17 100.5
c0 36.667 5.83301 70.5 17.5 101.5s28.167 58 49.5 81s46.666 41 75.999 54s61.666 19.5 96.999 19.5c36.667 0 70.334 -7.33301 101.001 -22s56.667 -37 78 -67v77h111v-433zM461 283.003c0 22 -3.33398 42.667 -10.001 62s-16.5 36 -29.5 50s-29.167 25.167 -48.5 33.5
s-41.333 12.5 -66 12.5c-25.333 0 -47.166 -4.16699 -65.499 -12.5s-33.833 -19.666 -46.5 -33.999s-22 -31 -28 -50s-9 -39.5 -9 -61.5s3.16699 -42.667 9.5 -62s15.666 -36.333 27.999 -51s27.833 -26.167 46.5 -34.5s40.334 -12.5 65.001 -12.5s46.5 4.16699 65.5 12.5
s35 19.666 48 33.999s23 31.333 30 51s10.5 40.5 10.5 62.5zM302.999 587.003c-47.333 0 -85.0039 11.333 -113.004 34s-45 51 -51 85l58 18c6.66699 -19.333 18.834 -35 36.501 -47s40.834 -18 69.501 -18c29.333 0 52.833 6 70.5 18s29.5 27.667 35.5 47l58 -18
c-5.33301 -34 -22.166 -62.333 -50.499 -85s-66.166 -34 -113.499 -34z" />
    <glyph glyph-name="Gdotaccent" unicode="&#x120;" horiz-adv-x="722" 
d="M373 678c60.667 0 113.673 -12.6689 159.006 -38.002s82.666 -60.333 111.999 -105l-96 -58c-19.333 32 -44 56.167 -74 72.5s-64 24.5 -102 24.5c-32.667 0 -61.834 -5.83301 -87.501 -17.5s-47.334 -28.167 -65.001 -49.5s-31.167 -46.666 -40.5 -75.999
s-14 -61.666 -14 -96.999c0 -37.333 4.83301 -70.833 14.5 -100.5s23.5 -55 41.5 -76s40 -37.167 66 -48.5s55.333 -17 88 -17c26 0 50.167 3.5 72.5 10.5s42 17.333 59 31s30.833 30.334 41.5 50.001s17 42.167 19 67.5h-184v102h299
c1.33301 -7.33301 2.5 -15.833 3.5 -25.5s1.5 -19.167 1.5 -28.5c0 -42.667 -6.83301 -82.834 -20.5 -120.501s-33.834 -70.667 -60.501 -99s-59.5 -50.666 -98.5 -66.999s-83.833 -24.5 -134.5 -24.5c-50 0 -95.333 8.5 -136 25.5s-75.334 40.833 -104.001 71.5
s-50.834 67.167 -66.501 109.5s-23.5 88.833 -23.5 139.5s7.83301 97.167 23.5 139.5s38 78.666 67 108.999s63.667 53.833 104 70.5s85.5 25 135.5 25zM324.006 722.998v89h93v-89h-93z" />
    <glyph glyph-name="gdotaccent" unicode="&#x121;" horiz-adv-x="643" 
d="M571 92c0 -40.667 -4.16699 -76.8311 -12.5 -108.498s-23.5 -59.834 -45.5 -84.501c-28 -31.333 -62.167 -53 -102.5 -65s-82.833 -18 -127.5 -18c-86.667 0 -160.667 20.333 -222 61l48 88c22.667 -16 48.667 -28.667 78 -38s61.333 -14 96 -14
c24.667 0 47.834 2.83301 69.501 8.5s40.5 14.667 56.5 27s28.5 28.166 37.5 47.499s13.5 43 13.5 71v49c-21.333 -30 -48 -52.167 -80 -66.5s-66 -21.5 -102 -21.5c-35.333 0 -67.5 6.5 -96.5 19.5s-54 30.667 -75 53s-37.167 49 -48.5 80s-17 64.5 -17 100.5
c0 36.667 5.83301 70.5 17.5 101.5s28.167 58 49.5 81s46.666 41 75.999 54s61.666 19.5 96.999 19.5c36.667 0 70.334 -7.33301 101.001 -22s56.667 -37 78 -67v77h111v-433zM461 283.003c0 22 -3.33398 42.667 -10.001 62s-16.5 36 -29.5 50s-29.167 25.167 -48.5 33.5
s-41.333 12.5 -66 12.5c-25.333 0 -47.166 -4.16699 -65.499 -12.5s-33.833 -19.666 -46.5 -33.999s-22 -31 -28 -50s-9 -39.5 -9 -61.5s3.16699 -42.667 9.5 -62s15.666 -36.333 27.999 -51s27.833 -26.167 46.5 -34.5s40.334 -12.5 65.001 -12.5s46.5 4.16699 65.5 12.5
s35 19.666 48 33.999s23 31.333 30 51s10.5 40.5 10.5 62.5zM254.999 596.003v89h93v-89h-93z" />
    <glyph glyph-name="Gcommaaccent" unicode="&#x122;" horiz-adv-x="722" 
d="M373 678c60.667 0 113.673 -12.6689 159.006 -38.002s82.666 -60.333 111.999 -105l-96 -58c-19.333 32 -44 56.167 -74 72.5s-64 24.5 -102 24.5c-32.667 0 -61.834 -5.83301 -87.501 -17.5s-47.334 -28.167 -65.001 -49.5s-31.167 -46.666 -40.5 -75.999
s-14 -61.666 -14 -96.999c0 -37.333 4.83301 -70.833 14.5 -100.5s23.5 -55 41.5 -76s40 -37.167 66 -48.5s55.333 -17 88 -17c26 0 50.167 3.5 72.5 10.5s42 17.333 59 31s30.833 30.334 41.5 50.001s17 42.167 19 67.5h-184v102h299
c1.33301 -7.33301 2.5 -15.833 3.5 -25.5s1.5 -19.167 1.5 -28.5c0 -42.667 -6.83301 -82.834 -20.5 -120.501s-33.834 -70.667 -60.501 -99s-59.5 -50.666 -98.5 -66.999s-83.833 -24.5 -134.5 -24.5c-50 0 -95.333 8.5 -136 25.5s-75.334 40.833 -104.001 71.5
s-50.834 67.167 -66.501 109.5s-23.5 88.833 -23.5 139.5s7.83301 97.167 23.5 139.5s38 78.666 67 108.999s63.667 53.833 104 70.5s85.5 25 135.5 25zM269.006 -173.002c14 18.667 27.832 39.332 41.499 61.999s24.167 44 31.5 64l99 -12
c-5.33301 -12.667 -12.666 -25.667 -21.999 -39s-19.833 -26.166 -31.5 -38.499s-24 -24 -37 -35s-25.833 -20.5 -38.5 -28.5z" />
    <glyph glyph-name="gcommaaccent" unicode="&#x123;" horiz-adv-x="643" 
d="M402 703c-14 -18.667 -27.832 -39.332 -41.499 -61.999s-24.167 -44 -31.5 -64l-99 12c5.33301 12.667 12.666 25.667 21.999 39s19.833 26.166 31.5 38.499s24 24 37 35s25.833 20.5 38.5 28.5zM571.001 92.002c0 -40.667 -4.16699 -76.8311 -12.5 -108.498
s-23.5 -59.834 -45.5 -84.501c-28 -31.333 -62.167 -53 -102.5 -65s-82.833 -18 -127.5 -18c-86.667 0 -160.667 20.333 -222 61l48 88c22.667 -16 48.667 -28.667 78 -38s61.333 -14 96 -14c24.667 0 47.834 2.83301 69.501 8.5s40.5 14.667 56.5 27
s28.5 28.166 37.5 47.499s13.5 43 13.5 71v49c-21.333 -30 -48 -52.167 -80 -66.5s-66 -21.5 -102 -21.5c-35.333 0 -67.5 6.5 -96.5 19.5s-54 30.667 -75 53s-37.167 49 -48.5 80s-17 64.5 -17 100.5c0 36.667 5.83301 70.5 17.5 101.5s28.167 58 49.5 81
s46.666 41 75.999 54s61.666 19.5 96.999 19.5c36.667 0 70.334 -7.33301 101.001 -22s56.667 -37 78 -67v77h111v-433zM461.001 283.005c0 22 -3.33398 42.667 -10.001 62s-16.5 36 -29.5 50s-29.167 25.167 -48.5 33.5s-41.333 12.5 -66 12.5
c-25.333 0 -47.166 -4.16699 -65.499 -12.5s-33.833 -19.666 -46.5 -33.999s-22 -31 -28 -50s-9 -39.5 -9 -61.5s3.16699 -42.667 9.5 -62s15.666 -36.333 27.999 -51s27.833 -26.167 46.5 -34.5s40.334 -12.5 65.001 -12.5s46.5 4.16699 65.5 12.5s35 19.666 48 33.999
s23 31.333 30 51s10.5 40.5 10.5 62.5z" />
    <glyph glyph-name="Hcircumflex" unicode="&#x124;" horiz-adv-x="731" 
d="M530 0v299h-330v-299h-117v666h117v-262h330v262h118v-666h-118zM405 852c18.667 -16.667 38.332 -33 58.999 -49s43.667 -32.667 69 -50l-28 -47c-26 7.33301 -51.667 17.666 -77 30.999s-46.666 27.666 -63.999 42.999c-17.333 -15.333 -38.5 -29.666 -63.5 -42.999
s-50.833 -23.666 -77.5 -30.999l-28 47c26 17.333 49.333 34 70 50s40 32.333 58 49h82z" />
    <glyph glyph-name="hcircumflex" unicode="&#x125;" horiz-adv-x="603" 
d="M73 0l0.00195312 713.998h110v-266c21.333 28.667 46.333 50.667 75 66s61 23 97 23c58 0 102.667 -17.667 134 -53s47 -82.666 47 -141.999v-342h-110v317c0 14 -1.33301 28 -4 42s-7.83398 26.833 -15.501 38.5s-18.334 21 -32.001 28s-31.167 10.5 -52.5 10.5
c-19.333 0 -37.5 -3.33301 -54.5 -10s-31.833 -16.167 -44.5 -28.5s-22.5 -27.166 -29.5 -44.499s-10.5 -37 -10.5 -59v-294h-110zM172.002 892.998c18.667 -16.667 38.332 -33 58.999 -49s43.667 -32.667 69 -50l-28 -47c-26 7.33301 -51.667 17.666 -77 30.999
s-46.666 27.666 -63.999 42.999c-17.333 -15.333 -38.5 -29.666 -63.5 -42.999s-50.833 -23.666 -77.5 -30.999l-28 47c26 17.333 49.333 34 70 50s40 32.333 58 49h82z" />
    <glyph glyph-name="Hbar" unicode="&#x126;" horiz-adv-x="731" 
d="M530 0v300h-330v-300h-117v528h-53v64h53v74h117v-74h330v74h118v-74h53v-64h-53v-528h-118zM530 402v126h-330v-126h330z" />
    <glyph glyph-name="hbar" unicode="&#x127;" horiz-adv-x="603" 
d="M73 0l0.00195312 601.998h-70v64h70v48h110v-48h132v-64h-132v-154c21.333 28.667 46.333 50.667 75 66s61 23 97 23c58 0 102.667 -17.667 134 -53s47 -82.666 47 -141.999v-342h-110v317c0 14 -1.33301 28 -4 42s-7.83398 26.833 -15.501 38.5s-18.334 21 -32.001 28
s-31.167 10.5 -52.5 10.5c-19.333 0 -37.5 -3.33301 -54.5 -10s-31.833 -16.167 -44.5 -28.5s-22.5 -27.166 -29.5 -44.499s-10.5 -37 -10.5 -59v-294h-110z" />
    <glyph glyph-name="Itilde" unicode="&#x128;" horiz-adv-x="282" 
d="M83 0v666h116v-666h-116zM316 807c-10.667 -25.333 -25.3311 -46.501 -43.998 -63.501s-39.667 -25.5 -63 -25.5c-12 0 -23.833 2 -35.5 6s-22.834 8.5 -33.501 13.5s-21 9.5 -31 13.5s-20 6 -30 6c-12 0 -23.833 -3.16699 -35.5 -9.5s-22.834 -16.166 -33.501 -29.499
l-42 28c10 25.333 24.5 46.333 43.5 63s40.167 25 63.5 25c12 0 23.667 -2 35 -6s22.5 -8.33301 33.5 -13l32 -13c10.333 -4 20.5 -6 30.5 -6c24 0 46.667 13 68 39z" />
    <glyph glyph-name="itilde" unicode="&#x129;" horiz-adv-x="256" 
d="M73 0v525h110v-525h-110zM303 681c-10.667 -25.333 -25.3311 -46.501 -43.998 -63.501s-39.667 -25.5 -63 -25.5c-12 0 -23.833 2 -35.5 6s-22.834 8.5 -33.501 13.5s-21 9.5 -31 13.5s-20 6 -30 6c-12 0 -23.833 -3.16699 -35.5 -9.5s-22.834 -16.166 -33.501 -29.499
l-42 28c10 25.333 24.5 46.333 43.5 63s40.167 25 63.5 25c12 0 23.667 -2 35 -6s22.5 -8.33301 33.5 -13l32 -13c10.333 -4 20.5 -6 30.5 -6c24 0 46.667 13 68 39z" />
    <glyph glyph-name="Imacron" unicode="&#x12a;" horiz-adv-x="282" 
d="M83 0v666h116v-666h-116zM-14 732v67h311v-67h-311z" />
    <glyph glyph-name="imacron" unicode="&#x12b;" horiz-adv-x="256" 
d="M73 0v525h110v-525h-110zM-27 604v67h311v-67h-311z" />
    <glyph glyph-name="Ibreve" unicode="&#x12c;" horiz-adv-x="282" 
d="M83 0v666h116v-666h-116zM142 713c-47.333 0 -85.0039 11.333 -113.004 34s-45 51 -51 85l58 18c6.66699 -19.333 18.834 -35 36.501 -47s40.834 -18 69.501 -18c29.333 0 52.833 6 70.5 18s29.5 27.667 35.5 47l58 -18c-5.33301 -34 -22.166 -62.333 -50.499 -85
s-66.166 -34 -113.499 -34z" />
    <glyph glyph-name="ibreve" unicode="&#x12d;" horiz-adv-x="256" 
d="M73 0v525h110v-525h-110zM129 587c-47.333 0 -85.0039 11.333 -113.004 34s-45 51 -51 85l58 18c6.66699 -19.333 18.834 -35 36.501 -47s40.834 -18 69.501 -18c29.333 0 52.833 6 70.5 18s29.5 27.667 35.5 47l58 -18c-5.33301 -34 -22.166 -62.333 -50.499 -85
s-66.166 -34 -113.499 -34z" />
    <glyph glyph-name="Iogonek" unicode="&#x12e;" horiz-adv-x="282" 
d="M83 666l115.999 0.00195312v-666c-9.33301 -1.33301 -19.666 -3.33301 -30.999 -6s-21.833 -6.5 -31.5 -11.5s-17.667 -11.167 -24 -18.5s-9.5 -16.333 -9.5 -27c0 -13.333 4.33301 -23.333 13 -30s19.667 -10 33 -10s26 2.66699 38 8s21.667 11.666 29 18.999v-76
c-7.33301 -6.66699 -17.333 -12.334 -30 -17.001s-27.667 -7 -45 -7c-31.333 0 -57.5 8.33301 -78.5 25s-31.5 37.667 -31.5 63c0 17.333 4.83301 34 14.5 50s22.167 28.667 37.5 38v666z" />
    <glyph glyph-name="iogonek" unicode="&#x12f;" horiz-adv-x="256" 
d="M73 610v104h110v-104h-110zM73 525l110.002 0.00683594v-525c-9.33301 -1.33301 -19.5 -3.33301 -30.5 -6s-21.167 -6.5 -30.5 -11.5s-17.333 -11.333 -24 -19s-10 -16.834 -10 -27.501c0 -12.667 4.16699 -22.334 12.5 -29.001s19.166 -10 32.499 -10
s26.166 2.66699 38.499 8s21.833 11.666 28.5 18.999v-76c-7.33301 -6.66699 -17.333 -12.334 -30 -17.001s-27.334 -7 -44.001 -7c-31.333 0 -57.166 8.66699 -77.499 26s-30.5 38.666 -30.5 63.999c0 19.333 5.33301 36.166 16 50.499s23.667 26.166 39 35.499v525z" />
    <glyph glyph-name="Idotaccent" unicode="&#x130;" horiz-adv-x="282" 
d="M83 0v666h116v-666h-116zM96 722v89h93v-89h-93z" />
    <glyph glyph-name="dotlessi" unicode="&#x131;" horiz-adv-x="256" 
d="M73 0v525h110v-525h-110z" />
    <glyph glyph-name="Jcircumflex" unicode="&#x134;" horiz-adv-x="514" 
d="M437 217c0 -37.333 -5.50098 -70.333 -16.501 -99s-26.333 -52.667 -46 -72s-43.334 -33.833 -71.001 -43.5s-58.167 -14.5 -91.5 -14.5c-45.333 0 -85.666 9.16699 -120.999 27.5s-63.666 47.5 -84.999 87.5l95 57c14 -24 30.333 -41.167 49 -51.5
s39.667 -15.5 63 -15.5c38 0 65.333 11 82 33s25 51.667 25 89v451h117v-449zM416.999 851c18.667 -16.667 38.332 -33 58.999 -49s43.667 -32.667 69 -50l-28 -47c-26 7.33301 -51.667 17.666 -77 30.999s-46.666 27.666 -63.999 42.999
c-17.333 -15.333 -38.5 -29.666 -63.5 -42.999s-50.833 -23.666 -77.5 -30.999l-28 47c26 17.333 49.333 34 70 50s40 32.333 58 49h82z" />
    <glyph glyph-name="jcircumflex" unicode="&#x135;" horiz-adv-x="257" 
d="M169 725c18.667 -16.667 38.332 -33 58.999 -49s43.667 -32.667 69 -50l-28 -47c-26 7.33301 -51.667 17.666 -77 30.999s-46.666 27.666 -63.999 42.999c-17.333 -15.333 -38.5 -29.666 -63.5 -42.999s-50.833 -23.666 -77.5 -30.999l-28 47c26 17.333 49.333 34 70 50
s40 32.333 58 49h82zM183.998 5c0 -63.333 -16.667 -110.334 -50 -141.001s-77.333 -46 -132 -46c-15.333 0 -31.5 1.83301 -48.5 5.5s-31.5 8.5 -43.5 14.5l30 86c7.33301 -3.33301 15.5 -6.16602 24.5 -8.49902s18.167 -3.5 27.5 -3.5c30 0 51 8 63 24s18 38 18 66v523
h111v-520z" />
    <glyph glyph-name="Kcommaaccent" unicode="&#x136;" horiz-adv-x="657" 
d="M524 0l-215 304l-110 -123v-181h-116v666h116v-333l297 333h141l-248 -277l274 -389h-139zM247 -173c14 18.667 27.832 39.332 41.499 61.999s24.167 44 31.5 64l99 -12c-5.33301 -12.667 -12.666 -25.667 -21.999 -39s-19.833 -26.166 -31.5 -38.499s-24 -24 -37 -35
s-25.833 -20.5 -38.5 -28.5z" />
    <glyph glyph-name="kcommaaccent" unicode="&#x137;" horiz-adv-x="584" 
d="M423 525h135l-205 -211l231 -314h-136l-171 240l-94 -96v-144h-110v714h110v-442zM210 -173c14 18.667 27.832 39.332 41.499 61.999s24.167 44 31.5 64l99 -12c-5.33301 -12.667 -12.666 -25.667 -21.999 -39s-19.833 -26.166 -31.5 -38.499s-24 -24 -37 -35
s-25.833 -20.5 -38.5 -28.5z" />
    <glyph glyph-name="kgreenlandic" unicode="&#x138;" horiz-adv-x="585" 
d="M423 525h135l-205 -211l231 -314h-136l-171 240l-94 -96v-144h-110v525h110v-253z" />
    <glyph glyph-name="Lacute" unicode="&#x139;" horiz-adv-x="572" 
d="M83 0v666h116v-560h358v-106h-474zM72 732c15.333 18 31.167 38.668 47.5 62.001s29.166 44.666 38.499 63.999l98 -16c-5.33301 -12.667 -13.166 -25.5 -23.499 -38.5s-22 -25.667 -35 -38s-26.667 -23.833 -41 -34.5s-28.5 -20 -42.5 -28z" />
    <glyph glyph-name="lacute" unicode="&#x13a;" horiz-adv-x="258" 
d="M74 0v714h110v-714h-110zM63 772c15.333 18 31.167 38.668 47.5 62.001s29.166 44.666 38.499 63.999l98 -16c-5.33301 -12.667 -13.166 -25.5 -23.499 -38.5s-22 -25.667 -35 -38s-26.667 -23.833 -41 -34.5s-28.5 -20 -42.5 -28z" />
    <glyph glyph-name="Lcommaaccent" unicode="&#x13b;" horiz-adv-x="572" 
d="M83 0v666h116v-560h358v-106h-474zM225 -173c14 18.667 27.832 39.332 41.499 61.999s24.167 44 31.5 64l99 -12c-5.33301 -12.667 -12.666 -25.667 -21.999 -39s-19.833 -26.166 -31.5 -38.499s-24 -24 -37 -35s-25.833 -20.5 -38.5 -28.5z" />
    <glyph glyph-name="lcommaaccent" unicode="&#x13c;" horiz-adv-x="258" 
d="M74 0v714h110v-714h-110zM11 -173c14 18.667 27.832 39.332 41.499 61.999s24.167 44 31.5 64l99 -12c-5.33301 -12.667 -12.666 -25.667 -21.999 -39s-19.833 -26.166 -31.5 -38.499s-24 -24 -37 -35s-25.833 -20.5 -38.5 -28.5z" />
    <glyph glyph-name="Lcaron" unicode="&#x13d;" horiz-adv-x="572" 
d="M83 0v666h116v-560h358v-106h-474zM409 588c0 -37.333 -7.33301 -70.166 -22 -98.499s-38 -55.833 -70 -82.5l-37 42c14.667 13.333 26.5 28.666 35.5 45.999s13.5 35 13.5 53c0 10 -1.5 18.667 -4.5 26l-9 21.5c-3 7 -5.83301 14.5 -8.5 22.5s-4 17.667 -4 29v19h106
v-78z" />
    <glyph glyph-name="lcaron" unicode="&#x13e;" horiz-adv-x="332" 
d="M74 0v714h110v-714h-110zM387 636c0 -37.333 -7.33301 -70.166 -22 -98.499s-38 -55.833 -70 -82.5l-37 42c14.667 13.333 26.5 28.666 35.5 45.999s13.5 35 13.5 53c0 10 -1.5 18.667 -4.5 26l-9 21.5c-3 7 -5.83301 14.5 -8.5 22.5s-4 17.667 -4 29v19h106v-78z" />
    <glyph glyph-name="Ldot" unicode="&#x13f;" horiz-adv-x="572" 
d="M83 0v666h116v-560h358v-106h-474zM509 366c0 -20 -7.16699 -37.333 -21.5 -52s-31.5 -22 -51.5 -22c-20.667 0 -38.334 7.33301 -53.001 22s-22 32 -22 52c0 20.667 7.33301 38.334 22 53.001s32.334 22 53.001 22c20 0 37.167 -7.33301 51.5 -22
s21.5 -32.334 21.5 -53.001z" />
    <glyph glyph-name="ldot" unicode="&#x140;" horiz-adv-x="492" 
d="M74 0v714h110v-714h-110zM447 304c0 -20 -7.16699 -37.333 -21.5 -52s-31.5 -22 -51.5 -22c-20.667 0 -38.334 7.33301 -53.001 22s-22 32 -22 52c0 20.667 7.33301 38.334 22 53.001s32.334 22 53.001 22c20 0 37.167 -7.33301 51.5 -22s21.5 -32.334 21.5 -53.001z" />
    <glyph glyph-name="Lslash" unicode="&#x141;" horiz-adv-x="589" 
d="M99 0v257l-108 -48v95l108 47v315h117v-266l211 93v-95l-211 -93v-199h358v-106h-475z" />
    <glyph glyph-name="lslash" unicode="&#x142;" horiz-adv-x="324" 
d="M220 389v-389h-111v347l-107 -47v92l107 46v276h111v-233l109 47v-92z" />
    <glyph glyph-name="Nacute" unicode="&#x143;" horiz-adv-x="731" 
d="M508 0l-313 516v-516h-112v666h148l305 -504v504h112v-666h-140zM312 730c15.333 18 31.167 38.668 47.5 62.001s29.166 44.666 38.499 63.999l98 -16c-5.33301 -12.667 -13.166 -25.5 -23.499 -38.5s-22 -25.667 -35 -38s-26.667 -23.833 -41 -34.5s-28.5 -20 -42.5 -28
z" />
    <glyph glyph-name="nacute" unicode="&#x144;" horiz-adv-x="603" 
d="M73 0l0.00195312 524.998h110v-77c21.333 28.667 46.333 50.667 75 66s61 23 97 23c58 0 102.667 -17.667 134 -53s47 -82.666 47 -141.999v-342h-110v317c0 14 -1.33301 28 -4 42s-7.83398 26.833 -15.501 38.5s-18.334 21 -32.001 28s-31.167 10.5 -52.5 10.5
c-19.333 0 -37.5 -3.33301 -54.5 -10s-31.833 -16.167 -44.5 -28.5s-22.5 -27.166 -29.5 -44.499s-10.5 -37 -10.5 -59v-294h-110zM258.002 602.998c14.667 18 29.001 38.667 43.001 62s25 45 33 65l98 -16c-11.333 -25.333 -29.333 -50.5 -54 -75.5
s-50.334 -46.167 -77.001 -63.5z" />
    <glyph glyph-name="Ncommaaccent" unicode="&#x145;" horiz-adv-x="731" 
d="M508 0l-313 516v-516h-112v666h148l305 -504v504h112v-666h-140zM258 -173c14 18.667 27.832 39.332 41.499 61.999s24.167 44 31.5 64l99 -12c-5.33301 -12.667 -12.666 -25.667 -21.999 -39s-19.833 -26.166 -31.5 -38.499s-24 -24 -37 -35s-25.833 -20.5 -38.5 -28.5z
" />
    <glyph glyph-name="ncommaaccent" unicode="&#x146;" horiz-adv-x="604" 
d="M73 0l0.00195312 524.998h110v-77c21.333 28.667 46.333 50.667 75 66s61 23 97 23c58 0 102.667 -17.667 134 -53s47 -82.666 47 -141.999v-342h-110v317c0 14 -1.33301 28 -4 42s-7.83398 26.833 -15.501 38.5s-18.334 21 -32.001 28s-31.167 10.5 -52.5 10.5
c-19.333 0 -37.5 -3.33301 -54.5 -10s-31.833 -16.167 -44.5 -28.5s-22.5 -27.166 -29.5 -44.499s-10.5 -37 -10.5 -59v-294h-110zM198.002 -173.002c14 18.667 27.832 39.332 41.499 61.999s24.167 44 31.5 64l99 -12c-5.33301 -12.667 -12.666 -25.667 -21.999 -39
s-19.833 -26.166 -31.5 -38.499s-24 -24 -37 -35s-25.833 -20.5 -38.5 -28.5z" />
    <glyph glyph-name="Ncaron" unicode="&#x147;" horiz-adv-x="731" 
d="M508 0l-313 516v-516h-112v666h148l305 -504v504h112v-666h-140zM324 709c-18 16.667 -37.3311 33 -57.998 49s-44 32.667 -70 50l28 47c26.667 -7.33301 52.5 -17.666 77.5 -30.999s46.167 -27.666 63.5 -42.999c17.333 15.333 38.666 29.666 63.999 42.999
s51 23.666 77 30.999l28 -47c-25.333 -17.333 -48.333 -34 -69 -50s-40.334 -32.333 -59.001 -49h-82z" />
    <glyph glyph-name="ncaron" unicode="&#x148;" horiz-adv-x="603" 
d="M73 0l0.00195312 524.998h110v-77c21.333 28.667 46.333 50.667 75 66s61 23 97 23c58 0 102.667 -17.667 134 -53s47 -82.666 47 -141.999v-342h-110v317c0 14 -1.33301 28 -4 42s-7.83398 26.833 -15.501 38.5s-18.334 21 -32.001 28s-31.167 10.5 -52.5 10.5
c-19.333 0 -37.5 -3.33301 -54.5 -10s-31.833 -16.167 -44.5 -28.5s-22.5 -27.166 -29.5 -44.499s-10.5 -37 -10.5 -59v-294h-110zM266.002 582.998c-18 16.667 -37.3311 33 -57.998 49s-44 32.667 -70 50l28 47c26.667 -7.33301 52.5 -17.666 77.5 -30.999
s46.167 -27.666 63.5 -42.999c17.333 15.333 38.666 29.666 63.999 42.999s51 23.666 77 30.999l28 -47c-25.333 -17.333 -48.333 -34 -69 -50s-40.334 -32.333 -59.001 -49h-82z" />
    <glyph glyph-name="Eng" unicode="&#x14a;" horiz-adv-x="731" 
d="M648 45c0 -37.333 -5.33105 -70.333 -15.998 -99s-25.834 -52.5 -45.501 -71.5s-43.167 -33.333 -70.5 -43s-57.333 -14.5 -90 -14.5c-38 0 -71.667 7.33301 -101 22l37 94c9.33301 -4.66699 19.166 -8 29.499 -10s20.833 -3 31.5 -3c32 0 56 7.33301 72 22
s26.333 35 31 61l-331 513v-516h-112v666h145l308 -475v475h112v-621z" />
    <glyph glyph-name="eng" unicode="&#x14b;" horiz-adv-x="603" 
d="M536 5c0 -59.333 -15.498 -105.336 -46.498 -138.003s-74.833 -49 -131.5 -49c-16.667 0 -33.5 1.66699 -50.5 5s-32.167 8.33301 -45.5 15l31 86c7.33301 -3.33301 15.5 -6.16602 24.5 -8.49902s18.167 -3.5 27.5 -3.5c30 0 51 7.83301 63 23.5s18 36.5 18 62.5v319
c0 14 -1.33301 28 -4 42s-7.83398 26.833 -15.501 38.5s-18.334 21 -32.001 28s-31.167 10.5 -52.5 10.5c-19.333 0 -37.5 -3.33301 -54.5 -10s-31.833 -16.167 -44.5 -28.5s-22.5 -27.166 -29.5 -44.499s-10.5 -37 -10.5 -59v-294h-110v525h110v-77
c21.333 28.667 46.333 50.667 75 66s61 23 97 23c58 0 102.667 -17.667 134 -53s47 -82.666 47 -141.999v-337z" />
    <glyph glyph-name="Omacron" unicode="&#x14c;" horiz-adv-x="746" 
d="M704 333c0 -48.667 -7.66699 -94 -23 -136s-37.333 -78.5 -66 -109.5s-63.5 -55.333 -104.5 -73s-86.833 -26.5 -137.5 -26.5c-51.333 0 -97.333 8.83301 -138 26.5s-75.334 42 -104.001 73s-50.667 67.5 -66 109.5s-23 87.333 -23 136s7.66699 94 23 136
s37.333 78.5 66 109.5s63.334 55.333 104.001 73s86.667 26.5 138 26.5c50.667 0 96.5 -8.83301 137.5 -26.5s75.833 -42 104.5 -73s50.667 -67.5 66 -109.5s23 -87.333 23 -136zM582 333c0 34 -4.66699 65.5 -14 94.5s-23 54 -41 75s-40 37.5 -66 49.5s-55.333 18 -88 18
c-33.333 0 -62.833 -6 -88.5 -18s-47.5 -28.5 -65.5 -49.5s-31.667 -46 -41 -75s-14 -60.5 -14 -94.5s4.66699 -65.5 14 -94.5s23 -54 41 -75s39.833 -37.5 65.5 -49.5s55.167 -18 88.5 -18c32.667 0 62 6 88 18s48 28.5 66 49.5s31.667 46 41 75s14 60.5 14 94.5zM217 731
v67h311v-67h-311z" />
    <glyph glyph-name="omacron" unicode="&#x14d;" horiz-adv-x="612" 
d="M572 262c0 -40 -6.16699 -76.833 -18.5 -110.5s-30 -62.5 -53 -86.5s-51 -42.833 -84 -56.5s-69.833 -20.5 -110.5 -20.5s-77.5 6.83301 -110.5 20.5s-61 32.5 -84 56.5s-40.667 52.833 -53 86.5s-18.5 70.5 -18.5 110.5s6.16699 76.833 18.5 110.5s30 62.667 53 87
s51 43.333 84 57s69.833 20.5 110.5 20.5s77.5 -6.83301 110.5 -20.5s61 -32.667 84 -57s40.667 -53.333 53 -87s18.5 -70.5 18.5 -110.5zM454 262c0 25.333 -3.33301 49 -10 71s-16.167 41 -28.5 57s-27.666 28.5 -45.999 37.5s-39.5 13.5 -63.5 13.5
s-45.167 -4.5 -63.5 -13.5s-33.833 -21.5 -46.5 -37.5s-22.334 -35 -29.001 -57s-10 -45.667 -10 -71s3.33301 -48.833 10 -70.5s16.334 -40.5 29.001 -56.5s28.167 -28.5 46.5 -37.5s39.5 -13.5 63.5 -13.5s45.167 4.5 63.5 13.5s33.666 21.5 45.999 37.5
s21.833 34.833 28.5 56.5s10 45.167 10 70.5zM150 604v67h311v-67h-311z" />
    <glyph glyph-name="Obreve" unicode="&#x14e;" horiz-adv-x="746" 
d="M704 333c0 -48.667 -7.66699 -94 -23 -136s-37.333 -78.5 -66 -109.5s-63.5 -55.333 -104.5 -73s-86.833 -26.5 -137.5 -26.5c-51.333 0 -97.333 8.83301 -138 26.5s-75.334 42 -104.001 73s-50.667 67.5 -66 109.5s-23 87.333 -23 136s7.66699 94 23 136
s37.333 78.5 66 109.5s63.334 55.333 104.001 73s86.667 26.5 138 26.5c50.667 0 96.5 -8.83301 137.5 -26.5s75.833 -42 104.5 -73s50.667 -67.5 66 -109.5s23 -87.333 23 -136zM582 333c0 34 -4.66699 65.5 -14 94.5s-23 54 -41 75s-40 37.5 -66 49.5s-55.333 18 -88 18
c-33.333 0 -62.833 -6 -88.5 -18s-47.5 -28.5 -65.5 -49.5s-31.667 -46 -41 -75s-14 -60.5 -14 -94.5s4.66699 -65.5 14 -94.5s23 -54 41 -75s39.833 -37.5 65.5 -49.5s55.167 -18 88.5 -18c32.667 0 62 6 88 18s48 28.5 66 49.5s31.667 46 41 75s14 60.5 14 94.5zM373 713
c-47.333 0 -85.0039 11.333 -113.004 34s-45 51 -51 85l58 18c6.66699 -19.333 18.834 -35 36.501 -47s40.834 -18 69.501 -18c29.333 0 52.833 6 70.5 18s29.5 27.667 35.5 47l58 -18c-5.33301 -34 -22.166 -62.333 -50.499 -85s-66.166 -34 -113.499 -34z" />
    <glyph glyph-name="obreve" unicode="&#x14f;" horiz-adv-x="612" 
d="M572 262c0 -40 -6.16699 -76.833 -18.5 -110.5s-30 -62.5 -53 -86.5s-51 -42.833 -84 -56.5s-69.833 -20.5 -110.5 -20.5s-77.5 6.83301 -110.5 20.5s-61 32.5 -84 56.5s-40.667 52.833 -53 86.5s-18.5 70.5 -18.5 110.5s6.16699 76.833 18.5 110.5s30 62.667 53 87
s51 43.333 84 57s69.833 20.5 110.5 20.5s77.5 -6.83301 110.5 -20.5s61 -32.667 84 -57s40.667 -53.333 53 -87s18.5 -70.5 18.5 -110.5zM454 262c0 25.333 -3.33301 49 -10 71s-16.167 41 -28.5 57s-27.666 28.5 -45.999 37.5s-39.5 13.5 -63.5 13.5
s-45.167 -4.5 -63.5 -13.5s-33.833 -21.5 -46.5 -37.5s-22.334 -35 -29.001 -57s-10 -45.667 -10 -71s3.33301 -48.833 10 -70.5s16.334 -40.5 29.001 -56.5s28.167 -28.5 46.5 -37.5s39.5 -13.5 63.5 -13.5s45.167 4.5 63.5 13.5s33.666 21.5 45.999 37.5
s21.833 34.833 28.5 56.5s10 45.167 10 70.5zM306 587c-47.333 0 -85.0039 11.333 -113.004 34s-45 51 -51 85l58 18c6.66699 -19.333 18.834 -35 36.501 -47s40.834 -18 69.501 -18c29.333 0 52.833 6 70.5 18s29.5 27.667 35.5 47l58 -18
c-5.33301 -34 -22.166 -62.333 -50.499 -85s-66.166 -34 -113.499 -34z" />
    <glyph glyph-name="Ohungarumlaut" unicode="&#x150;" horiz-adv-x="746" 
d="M704 333c0 -48.667 -7.66699 -94 -23 -136s-37.333 -78.5 -66 -109.5s-63.5 -55.333 -104.5 -73s-86.833 -26.5 -137.5 -26.5c-51.333 0 -97.333 8.83301 -138 26.5s-75.334 42 -104.001 73s-50.667 67.5 -66 109.5s-23 87.333 -23 136s7.66699 94 23 136
s37.333 78.5 66 109.5s63.334 55.333 104.001 73s86.667 26.5 138 26.5c50.667 0 96.5 -8.83301 137.5 -26.5s75.833 -42 104.5 -73s50.667 -67.5 66 -109.5s23 -87.333 23 -136zM582 333c0 34 -4.66699 65.5 -14 94.5s-23 54 -41 75s-40 37.5 -66 49.5s-55.333 18 -88 18
c-33.333 0 -62.833 -6 -88.5 -18s-47.5 -28.5 -65.5 -49.5s-31.667 -46 -41 -75s-14 -60.5 -14 -94.5s4.66699 -65.5 14 -94.5s23 -54 41 -75s39.833 -37.5 65.5 -49.5s55.167 -18 88.5 -18c32.667 0 62 6 88 18s48 28.5 66 49.5s31.667 46 41 75s14 60.5 14 94.5zM247 730
c15.333 18 31.332 38.668 47.999 62.001s29.667 44.666 39 63.999l93 -16c-5.33301 -12.667 -13.166 -25.5 -23.499 -38.5s-22 -25.667 -35 -38s-26.667 -23.833 -41 -34.5s-28.5 -20 -42.5 -28zM412.999 730.001c15.333 18 31.332 38.668 47.999 62.001
s29.667 44.666 39 63.999l93 -16c-5.33301 -12.667 -13.166 -25.5 -23.499 -38.5s-22 -25.667 -35 -38s-26.667 -23.833 -41 -34.5s-28.5 -20 -42.5 -28z" />
    <glyph glyph-name="ohungarumlaut" unicode="&#x151;" horiz-adv-x="612" 
d="M572 262c0 -40 -6.16699 -76.833 -18.5 -110.5s-30 -62.5 -53 -86.5s-51 -42.833 -84 -56.5s-69.833 -20.5 -110.5 -20.5s-77.5 6.83301 -110.5 20.5s-61 32.5 -84 56.5s-40.667 52.833 -53 86.5s-18.5 70.5 -18.5 110.5s6.16699 76.833 18.5 110.5s30 62.667 53 87
s51 43.333 84 57s69.833 20.5 110.5 20.5s77.5 -6.83301 110.5 -20.5s61 -32.667 84 -57s40.667 -53.333 53 -87s18.5 -70.5 18.5 -110.5zM454 262c0 25.333 -3.33301 49 -10 71s-16.167 41 -28.5 57s-27.666 28.5 -45.999 37.5s-39.5 13.5 -63.5 13.5
s-45.167 -4.5 -63.5 -13.5s-33.833 -21.5 -46.5 -37.5s-22.334 -35 -29.001 -57s-10 -45.667 -10 -71s3.33301 -48.833 10 -70.5s16.334 -40.5 29.001 -56.5s28.167 -28.5 46.5 -37.5s39.5 -13.5 63.5 -13.5s45.167 4.5 63.5 13.5s33.666 21.5 45.999 37.5
s21.833 34.833 28.5 56.5s10 45.167 10 70.5zM181 604c15.333 18 31.332 38.668 47.999 62.001s29.667 44.666 39 63.999l93 -16c-5.33301 -12.667 -13.166 -25.5 -23.499 -38.5s-22 -25.667 -35 -38s-26.667 -23.833 -41 -34.5s-28.5 -20 -42.5 -28zM346.999 604.001
c15.333 18 31.332 38.668 47.999 62.001s29.667 44.666 39 63.999l93 -16c-5.33301 -12.667 -13.166 -25.5 -23.499 -38.5s-22 -25.667 -35 -38s-26.667 -23.833 -41 -34.5s-28.5 -20 -42.5 -28z" />
    <glyph glyph-name="OE" unicode="&#x152;" horiz-adv-x="988" 
d="M374 0c-53.333 0 -100.5 8.49805 -141.5 25.498s-75.5 40.333 -103.5 70s-49.167 64.834 -63.5 105.501s-21.5 84.667 -21.5 132s7.16699 91.333 21.5 132s35.5 75.834 63.5 105.501s62.5 53 103.5 70s88.167 25.5 141.5 25.5h561v-102h-338v-162h291v-102h-291v-198h348
v-102h-571zM166 332.998c0 -70 17.667 -126 53 -168s87 -63 155 -63h106v462h-106c-68 0 -119.667 -21 -155 -63s-53 -98 -53 -168z" />
    <glyph glyph-name="oe" unicode="&#x153;" horiz-adv-x="1001" 
d="M965 271c0 -7.33301 -0.331055 -13.9971 -0.998047 -19.9971s-1.33398 -11.333 -2.00098 -16h-399c2.66699 -48 18.5 -84.833 47.5 -110.5s66.833 -38.5 113.5 -38.5c31.333 0 59.5 5.66699 84.5 17s46.833 27.333 65.5 48l74 -68c-28 -29.333 -60.667 -52.5 -98 -69.5
s-81 -25.5 -131 -25.5s-92.667 9.5 -128 28.5s-63.666 44.833 -84.999 77.5c-21.333 -32 -49.333 -57.667 -84 -77s-75.334 -29 -122.001 -29c-40 0 -76.167 7 -108.5 21s-59.666 33.167 -81.999 57.5s-39.5 53.166 -51.5 86.499s-18 69.666 -18 108.999s6 75.833 18 109.5
s29.167 62.667 51.5 87s49.666 43.5 81.999 57.5s68.5 21 108.5 21c46.667 0 87.334 -9.5 122.001 -28.5s62.667 -45.167 84 -78.5c21.333 32.667 49.166 58.667 83.499 78s74.833 29 121.5 29c39.333 0 74.666 -6.66699 105.999 -20s58 -31.833 80 -55.5
s38.833 -51.834 50.5 -84.501s17.5 -68 17.5 -106zM449.002 262.003c0 25.333 -3.16699 49 -9.5 71s-15.833 41 -28.5 57s-28 28.5 -46 37.5s-38.667 13.5 -62 13.5s-44 -4.5 -62 -13.5s-33.333 -21.5 -46 -37.5s-22.167 -35 -28.5 -57s-9.5 -45.667 -9.5 -71
s3.16699 -48.833 9.5 -70.5s15.833 -40.5 28.5 -56.5s28 -28.5 46 -37.5s38.667 -13.5 62 -13.5s44 4.5 62 13.5s33.333 21.5 46 37.5s22.167 34.833 28.5 56.5s9.5 45.167 9.5 70.5zM853.002 315.003c-4 44 -19.5 77.167 -46.5 99.5s-59.5 33.5 -97.5 33.5
c-42 0 -75.833 -12.333 -101.5 -37s-40.167 -56.667 -43.5 -96h289z" />
    <glyph glyph-name="Racute" unicode="&#x154;" horiz-adv-x="666" 
d="M502 0l-134 255.003h-168v-255h-117v666h299c36.667 0 69.5 -4.83301 98.5 -14.5s53.5 -23.334 73.5 -41.001s35.167 -38.834 45.5 -63.501s15.5 -52 15.5 -82c0 -24 -3.5 -45.833 -10.5 -65.5s-16.5 -37.5 -28.5 -53.5s-26.167 -29.833 -42.5 -41.5
s-33.5 -20.834 -51.5 -27.501l151 -277h-131zM495 458.003c0 34 -10.833 60.167 -32.5 78.5s-49.5 27.5 -83.5 27.5h-179v-211h181c34 0 61.5 9.5 82.5 28.5s31.5 44.5 31.5 76.5zM271 730.003c15.333 18 31.167 38.668 47.5 62.001s29.166 44.666 38.499 63.999l98 -16
c-5.33301 -12.667 -13.166 -25.5 -23.499 -38.5s-22 -25.667 -35 -38s-26.667 -23.833 -41 -34.5s-28.5 -20 -42.5 -28z" />
    <glyph glyph-name="racute" unicode="&#x155;" horiz-adv-x="406" 
d="M369 409c-8.66699 4.66699 -17.832 8.50098 -27.499 11.501s-20.5 4.5 -32.5 4.5c-16.667 0 -32.667 -3.5 -48 -10.5s-28.666 -17.333 -39.999 -31s-20.5 -30.334 -27.5 -50.001s-10.5 -41.834 -10.5 -66.501v-267h-110v525h110v-85c17.333 28 38.666 50.833 63.999 68.5
s53.333 26.5 84 26.5c14.667 0 28.167 -1.66699 40.5 -5s22.166 -7.66602 29.499 -12.999zM149.002 604.001c15.333 18 31.167 38.668 47.5 62.001s29.166 44.666 38.499 63.999l98 -16c-5.33301 -12.667 -13.166 -25.5 -23.499 -38.5s-22 -25.667 -35 -38
s-26.667 -23.833 -41 -34.5s-28.5 -20 -42.5 -28z" />
    <glyph glyph-name="Rcommaaccent" unicode="&#x156;" horiz-adv-x="666" 
d="M502 0l-134 255.003h-168v-255h-117v666h299c36.667 0 69.5 -4.83301 98.5 -14.5s53.5 -23.334 73.5 -41.001s35.167 -38.834 45.5 -63.501s15.5 -52 15.5 -82c0 -24 -3.5 -45.833 -10.5 -65.5s-16.5 -37.5 -28.5 -53.5s-26.167 -29.833 -42.5 -41.5
s-33.5 -20.834 -51.5 -27.501l151 -277h-131zM495 458.003c0 34 -10.833 60.167 -32.5 78.5s-49.5 27.5 -83.5 27.5h-179v-211h181c34 0 61.5 9.5 82.5 28.5s31.5 44.5 31.5 76.5zM232 -172.997c14 18.667 27.832 39.332 41.499 61.999s24.167 44 31.5 64l99 -12
c-5.33301 -12.667 -12.666 -25.667 -21.999 -39s-19.833 -26.166 -31.5 -38.499s-24 -24 -37 -35s-25.833 -20.5 -38.5 -28.5z" />
    <glyph glyph-name="rcommaaccent" unicode="&#x157;" horiz-adv-x="406" 
d="M369 409c-8.66699 4.66699 -17.832 8.50098 -27.499 11.501s-20.5 4.5 -32.5 4.5c-16.667 0 -32.667 -3.5 -48 -10.5s-28.666 -17.333 -39.999 -31s-20.5 -30.334 -27.5 -50.001s-10.5 -41.834 -10.5 -66.501v-267h-110v525h110v-85c17.333 28 38.666 50.833 63.999 68.5
s53.333 26.5 84 26.5c14.667 0 28.167 -1.66699 40.5 -5s22.166 -7.66602 29.499 -12.999zM9.00195 -172.999c14 18.667 27.832 39.332 41.499 61.999s24.167 44 31.5 64l99 -12c-5.33301 -12.667 -12.666 -25.667 -21.999 -39s-19.833 -26.166 -31.5 -38.499
s-24 -24 -37 -35s-25.833 -20.5 -38.5 -28.5z" />
    <glyph glyph-name="Rcaron" unicode="&#x158;" horiz-adv-x="666" 
d="M502 0l-134 255.003h-168v-255h-117v666h299c36.667 0 69.5 -4.83301 98.5 -14.5s53.5 -23.334 73.5 -41.001s35.167 -38.834 45.5 -63.501s15.5 -52 15.5 -82c0 -24 -3.5 -45.833 -10.5 -65.5s-16.5 -37.5 -28.5 -53.5s-26.167 -29.833 -42.5 -41.5
s-33.5 -20.834 -51.5 -27.501l151 -277h-131zM495 458.003c0 34 -10.833 60.167 -32.5 78.5s-49.5 27.5 -83.5 27.5h-179v-211h181c34 0 61.5 9.5 82.5 28.5s31.5 44.5 31.5 76.5zM289 709.003c-18 16.667 -37.3311 33 -57.998 49s-44 32.667 -70 50l28 47
c26.667 -7.33301 52.5 -17.666 77.5 -30.999s46.167 -27.666 63.5 -42.999c17.333 15.333 38.666 29.666 63.999 42.999s51 23.666 77 30.999l28 -47c-25.333 -17.333 -48.333 -34 -69 -50s-40.334 -32.333 -59.001 -49h-82z" />
    <glyph glyph-name="rcaron" unicode="&#x159;" horiz-adv-x="406" 
d="M369 409c-8.66699 4.66699 -17.832 8.50098 -27.499 11.501s-20.5 4.5 -32.5 4.5c-16.667 0 -32.667 -3.5 -48 -10.5s-28.666 -17.333 -39.999 -31s-20.5 -30.334 -27.5 -50.001s-10.5 -41.834 -10.5 -66.501v-267h-110v525h110v-85c17.333 28 38.666 50.833 63.999 68.5
s53.333 26.5 84 26.5c14.667 0 28.167 -1.66699 40.5 -5s22.166 -7.66602 29.499 -12.999zM190.002 583.001c-18 16.667 -37.3311 33 -57.998 49s-44 32.667 -70 50l28 47c26.667 -7.33301 52.5 -17.666 77.5 -30.999s46.167 -27.666 63.5 -42.999
c17.333 15.333 38.666 29.666 63.999 42.999s51 23.666 77 30.999l28 -47c-25.333 -17.333 -48.333 -34 -69 -50s-40.334 -32.333 -59.001 -49h-82z" />
    <glyph glyph-name="Sacute" unicode="&#x15a;" horiz-adv-x="616" 
d="M302 678c52 0 100.834 -9.99902 146.501 -29.999s83.834 -51.333 114.501 -94l-88 -59c-21.333 28 -47.166 49 -77.499 63s-63.5 21 -99.5 21c-16.667 0 -32.334 -1.5 -47.001 -4.5s-27.5 -8 -38.5 -15s-19.667 -15.833 -26 -26.5s-9.5 -23.667 -9.5 -39
c0 -16 3.83301 -29 11.5 -39s18.334 -18.5 32.001 -25.5s29.5 -12.667 47.5 -17l57 -13.5c32.667 -7.33301 64.167 -15.5 94.5 -24.5s57 -20.833 80 -35.5s41.333 -33.334 55 -56.001s20.5 -51 20.5 -85c0 -30.667 -6 -58.834 -18 -84.501s-29.333 -47.834 -52 -66.501
s-50.334 -33.167 -83.001 -43.5s-69.334 -15.5 -110.001 -15.5c-66.667 0 -124.334 13.167 -173.001 39.5s-85.667 62.5 -111 108.5l94 55c22.667 -37.333 51.5 -64 86.5 -80s71.833 -24 110.5 -24c42 0 75.667 8.5 101 25.5s38 41.167 38 72.5
c0 18 -4.16699 32.5 -12.5 43.5s-20 20.167 -35 27.5s-32.667 13.333 -53 18s-42.5 9.33398 -66.5 14.001c-30 6 -59 13.5 -87 22.5s-52.667 20.833 -74 35.5s-38.333 33.167 -51 55.5s-19 49.833 -19 82.5c0 30.667 6 58 18 82s28.667 44.333 50 61
s46.833 29.334 76.5 38.001s62.167 13 97.5 13zM245.001 730.001c15.333 18 31.167 38.668 47.5 62.001s29.166 44.666 38.499 63.999l98 -16c-5.33301 -12.667 -13.166 -25.5 -23.499 -38.5s-22 -25.667 -35 -38s-26.667 -23.833 -41 -34.5s-28.5 -20 -42.5 -28z" />
    <glyph glyph-name="sacute" unicode="&#x15b;" horiz-adv-x="534" 
d="M495 160c0 -52 -19.6689 -93.667 -59.002 -125s-94.333 -47 -165 -47c-54 0 -101.833 10 -143.5 30s-75.167 49.333 -100.5 88l78 55c20 -28 45.167 -48.833 75.5 -62.5s62.5 -20.5 96.5 -20.5c32.667 0 59 5.83301 79 17.5s30 29.167 30 52.5c0 12 -3 21.833 -9 29.5
s-14.667 14 -26 19s-25.166 9.33301 -41.499 13s-35.166 7.16699 -56.499 10.5c-27.333 4.66699 -53 10.5 -77 17.5s-45 16.333 -63 28s-32.167 26.5 -42.5 44.5s-15.5 40.667 -15.5 68s5.66699 51 17 71s26.5 36.5 45.5 49.5s40.833 22.667 65.5 29s50.667 9.5 78 9.5
c26.667 0 51.334 -2.66699 74.001 -8s43.5 -12.333 62.5 -21s36 -18.5 51 -29.5s27.833 -22.167 38.5 -33.5l-70 -64c-17.333 20 -39.5 36 -66.5 48s-57.167 18 -90.5 18c-12.667 0 -24.834 -1.16699 -36.501 -3.5s-22 -5.83301 -31 -10.5s-16.333 -10.834 -22 -18.501
s-8.5 -16.5 -8.5 -26.5c0 -11.333 3.33301 -20.666 10 -27.999s15.667 -13.5 27 -18.5s24.5 -9.16699 39.5 -12.5s31.167 -6.33301 48.5 -9c28 -5.33301 54.5 -11.333 79.5 -18s47 -16 66 -28s34.167 -27 45.5 -45s17 -41 17 -69zM212.998 603
c14.667 18 29.001 38.667 43.001 62s25 45 33 65l98 -16c-11.333 -25.333 -29.333 -50.5 -54 -75.5s-50.334 -46.167 -77.001 -63.5z" />
    <glyph glyph-name="Scircumflex" unicode="&#x15c;" horiz-adv-x="616" 
d="M302 678c52 0 100.834 -9.99902 146.501 -29.999s83.834 -51.333 114.501 -94l-88 -59c-21.333 28 -47.166 49 -77.499 63s-63.5 21 -99.5 21c-16.667 0 -32.334 -1.5 -47.001 -4.5s-27.5 -8 -38.5 -15s-19.667 -15.833 -26 -26.5s-9.5 -23.667 -9.5 -39
c0 -16 3.83301 -29 11.5 -39s18.334 -18.5 32.001 -25.5s29.5 -12.667 47.5 -17l57 -13.5c32.667 -7.33301 64.167 -15.5 94.5 -24.5s57 -20.833 80 -35.5s41.333 -33.334 55 -56.001s20.5 -51 20.5 -85c0 -30.667 -6 -58.834 -18 -84.501s-29.333 -47.834 -52 -66.501
s-50.334 -33.167 -83.001 -43.5s-69.334 -15.5 -110.001 -15.5c-66.667 0 -124.334 13.167 -173.001 39.5s-85.667 62.5 -111 108.5l94 55c22.667 -37.333 51.5 -64 86.5 -80s71.833 -24 110.5 -24c42 0 75.667 8.5 101 25.5s38 41.167 38 72.5
c0 18 -4.16699 32.5 -12.5 43.5s-20 20.167 -35 27.5s-32.667 13.333 -53 18s-42.5 9.33398 -66.5 14.001c-30 6 -59 13.5 -87 22.5s-52.667 20.833 -74 35.5s-38.333 33.167 -51 55.5s-19 49.833 -19 82.5c0 30.667 6 58 18 82s28.667 44.333 50 61
s46.833 29.334 76.5 38.001s62.167 13 97.5 13zM344.001 851.001c18.667 -16.667 38.332 -33 58.999 -49s43.667 -32.667 69 -50l-28 -47c-26 7.33301 -51.667 17.666 -77 30.999s-46.666 27.666 -63.999 42.999c-17.333 -15.333 -38.5 -29.666 -63.5 -42.999
s-50.833 -23.666 -77.5 -30.999l-28 47c26 17.333 49.333 34 70 50s40 32.333 58 49h82z" />
    <glyph glyph-name="scircumflex" unicode="&#x15d;" horiz-adv-x="534" 
d="M495 160c0 -52 -19.6689 -93.667 -59.002 -125s-94.333 -47 -165 -47c-54 0 -101.833 10 -143.5 30s-75.167 49.333 -100.5 88l78 55c20 -28 45.167 -48.833 75.5 -62.5s62.5 -20.5 96.5 -20.5c32.667 0 59 5.83301 79 17.5s30 29.167 30 52.5c0 12 -3 21.833 -9 29.5
s-14.667 14 -26 19s-25.166 9.33301 -41.499 13s-35.166 7.16699 -56.499 10.5c-27.333 4.66699 -53 10.5 -77 17.5s-45 16.333 -63 28s-32.167 26.5 -42.5 44.5s-15.5 40.667 -15.5 68s5.66699 51 17 71s26.5 36.5 45.5 49.5s40.833 22.667 65.5 29s50.667 9.5 78 9.5
c26.667 0 51.334 -2.66699 74.001 -8s43.5 -12.333 62.5 -21s36 -18.5 51 -29.5s27.833 -22.167 38.5 -33.5l-70 -64c-17.333 20 -39.5 36 -66.5 48s-57.167 18 -90.5 18c-12.667 0 -24.834 -1.16699 -36.501 -3.5s-22 -5.83301 -31 -10.5s-16.333 -10.834 -22 -18.501
s-8.5 -16.5 -8.5 -26.5c0 -11.333 3.33301 -20.666 10 -27.999s15.667 -13.5 27 -18.5s24.5 -9.16699 39.5 -12.5s31.167 -6.33301 48.5 -9c28 -5.33301 54.5 -11.333 79.5 -18s47 -16 66 -28s34.167 -27 45.5 -45s17 -41 17 -69zM305.998 725
c18.667 -16.667 38.332 -33 58.999 -49s43.667 -32.667 69 -50l-28 -47c-26 7.33301 -51.667 17.666 -77 30.999s-46.666 27.666 -63.999 42.999c-17.333 -15.333 -38.5 -29.666 -63.5 -42.999s-50.833 -23.666 -77.5 -30.999l-28 47c26 17.333 49.333 34 70 50
s40 32.333 58 49h82z" />
    <glyph glyph-name="Scedilla" unicode="&#x15e;" horiz-adv-x="618" 
d="M193 -75c8 -8 17.998 -15.001 29.998 -21.001s25.333 -9 40 -9c14 0 25.833 3.66699 35.5 11s14.5 17.666 14.5 30.999c0 9.33301 -2.5 18.5 -7.5 27.5s-11.833 17.167 -20.5 24.5c-59.333 4 -110.833 19 -154.5 45s-77.167 60 -100.5 102l94 55
c22.667 -37.333 51.5 -64 86.5 -80s71.833 -24 110.5 -24c42 0 75.667 8.5 101 25.5s38 41.167 38 72.5c0 18 -4.16699 32.5 -12.5 43.5s-20 20.167 -35 27.5s-32.667 13.333 -53 18s-42.5 9.33398 -66.5 14.001c-30 6 -59 13.5 -87 22.5s-52.667 20.833 -74 35.5
s-38.333 33.167 -51 55.5s-19 49.833 -19 82.5c0 30.667 6 58 18 82s28.667 44.333 50 61s46.833 29.334 76.5 38.001s62.167 13 97.5 13c52 0 100.833 -10 146.5 -30s83.834 -51.333 114.501 -94l-88 -59c-21.333 28 -47.166 49 -77.499 63s-63.5 21 -99.5 21
c-16.667 0 -32.334 -1.5 -47.001 -4.5s-27.5 -8 -38.5 -15s-19.667 -15.833 -26 -26.5s-9.5 -23.667 -9.5 -39c0 -16 3.83301 -29 11.5 -39s18.334 -18.5 32.001 -25.5s29.5 -12.667 47.5 -17l57 -13.5c32.667 -7.33301 64.167 -15.5 94.5 -24.5s57 -20.833 80 -35.5
s41.333 -33.334 55 -56.001s20.5 -51 20.5 -85c0 -28.667 -5.16699 -55 -15.5 -79s-25.333 -45.167 -45 -63.5s-43.667 -33.166 -72 -44.499s-60.166 -18.333 -95.499 -21c25.333 -21.333 38 -46 38 -74c0 -26.667 -10.5 -48 -31.5 -64s-47.5 -24 -79.5 -24
c-18.667 0 -35.334 2.5 -50.001 7.5s-25.667 11.167 -33 18.5v71z" />
    <glyph glyph-name="scedilla" unicode="&#x15f;" horiz-adv-x="535" 
d="M151 -75c8 -8 18 -15.001 30 -21.001s25.333 -9 40 -9c14 0 25.833 3.66699 35.5 11s14.5 17.666 14.5 30.999c0 9.33301 -2.5 18.5 -7.5 27.5s-11.833 17.167 -20.5 24.5c-47.333 3.33301 -89.333 14.833 -126 34.5s-66.334 47.167 -89.001 82.5l78 55
c20 -28 45.167 -48.833 75.5 -62.5s62.5 -20.5 96.5 -20.5c32.667 0 59 5.83301 79 17.5s30 29.167 30 52.5c0 12 -3 21.833 -9 29.5s-14.667 14 -26 19s-25.166 9.33301 -41.499 13s-35.166 7.16699 -56.499 10.5c-27.333 4.66699 -53 10.5 -77 17.5s-45 16.333 -63 28
s-32.167 26.5 -42.5 44.5s-15.5 40.667 -15.5 68s5.66699 51 17 71s26.5 36.5 45.5 49.5s40.833 22.667 65.5 29s50.667 9.5 78 9.5c26.667 0 51.334 -2.66699 74.001 -8s43.5 -12.333 62.5 -21s36 -18.5 51 -29.5s27.833 -22.167 38.5 -33.5l-70 -64
c-17.333 20 -39.5 36 -66.5 48s-57.167 18 -90.5 18c-12.667 0 -24.834 -1.16699 -36.501 -3.5s-22 -5.83301 -31 -10.5s-16.333 -10.834 -22 -18.501s-8.5 -16.5 -8.5 -26.5c0 -11.333 3.33301 -20.666 10 -27.999s15.667 -13.5 27 -18.5s24.5 -9.16699 39.5 -12.5
s31.167 -6.33301 48.5 -9c28 -5.33301 54.5 -11.333 79.5 -18s47 -16 66 -28s34.167 -27 45.5 -45s17 -41 17 -69c0 -47.333 -16.5 -86.166 -49.5 -116.499s-79.5 -48.166 -139.5 -53.499c25.333 -21.333 38 -46 38 -74c0 -26.667 -10.5 -48 -31.5 -64s-47.5 -24 -79.5 -24
c-18.667 0 -35.334 2.5 -50.001 7.5s-25.667 11.167 -33 18.5v71z" />
    <glyph glyph-name="Scaron" unicode="&#x160;" horiz-adv-x="616" 
d="M302 678c52 0 100.834 -9.99902 146.501 -29.999s83.834 -51.333 114.501 -94l-88 -59c-21.333 28 -47.166 49 -77.499 63s-63.5 21 -99.5 21c-16.667 0 -32.334 -1.5 -47.001 -4.5s-27.5 -8 -38.5 -15s-19.667 -15.833 -26 -26.5s-9.5 -23.667 -9.5 -39
c0 -16 3.83301 -29 11.5 -39s18.334 -18.5 32.001 -25.5s29.5 -12.667 47.5 -17l57 -13.5c32.667 -7.33301 64.167 -15.5 94.5 -24.5s57 -20.833 80 -35.5s41.333 -33.334 55 -56.001s20.5 -51 20.5 -85c0 -30.667 -6 -58.834 -18 -84.501s-29.333 -47.834 -52 -66.501
s-50.334 -33.167 -83.001 -43.5s-69.334 -15.5 -110.001 -15.5c-66.667 0 -124.334 13.167 -173.001 39.5s-85.667 62.5 -111 108.5l94 55c22.667 -37.333 51.5 -64 86.5 -80s71.833 -24 110.5 -24c42 0 75.667 8.5 101 25.5s38 41.167 38 72.5
c0 18 -4.16699 32.5 -12.5 43.5s-20 20.167 -35 27.5s-32.667 13.333 -53 18s-42.5 9.33398 -66.5 14.001c-30 6 -59 13.5 -87 22.5s-52.667 20.833 -74 35.5s-38.333 33.167 -51 55.5s-19 49.833 -19 82.5c0 30.667 6 58 18 82s28.667 44.333 50 61
s46.833 29.334 76.5 38.001s62.167 13 97.5 13zM265.001 710.001c-18 16.667 -37.3311 33 -57.998 49s-44 32.667 -70 50l28 47c26.667 -7.33301 52.5 -17.666 77.5 -30.999s46.167 -27.666 63.5 -42.999c17.333 15.333 38.666 29.666 63.999 42.999s51 23.666 77 30.999
l28 -47c-25.333 -17.333 -48.333 -34 -69 -50s-40.334 -32.333 -59.001 -49h-82z" />
    <glyph glyph-name="scaron" unicode="&#x161;" horiz-adv-x="534" 
d="M223 583c-18 16.667 -37.3311 33 -57.998 49s-44 32.667 -70 50l28 47c26.667 -7.33301 52.5 -17.666 77.5 -30.999s46.167 -27.666 63.5 -42.999c17.333 15.333 38.666 29.666 63.999 42.999s51 23.666 77 30.999l28 -47c-25.333 -17.333 -48.333 -34 -69 -50
s-40.334 -32.333 -59.001 -49h-82zM495.002 160c0 -52 -19.6689 -93.667 -59.002 -125s-94.333 -47 -165 -47c-54 0 -101.833 10 -143.5 30s-75.167 49.333 -100.5 88l78 55c20 -28 45.167 -48.833 75.5 -62.5s62.5 -20.5 96.5 -20.5c32.667 0 59 5.83301 79 17.5
s30 29.167 30 52.5c0 12 -3 21.833 -9 29.5s-14.667 14 -26 19s-25.166 9.33301 -41.499 13s-35.166 7.16699 -56.499 10.5c-27.333 4.66699 -53 10.5 -77 17.5s-45 16.333 -63 28s-32.167 26.5 -42.5 44.5s-15.5 40.667 -15.5 68s5.66699 51 17 71s26.5 36.5 45.5 49.5
s40.833 22.667 65.5 29s50.667 9.5 78 9.5c26.667 0 51.334 -2.66699 74.001 -8s43.5 -12.333 62.5 -21s36 -18.5 51 -29.5s27.833 -22.167 38.5 -33.5l-70 -64c-17.333 20 -39.5 36 -66.5 48s-57.167 18 -90.5 18c-12.667 0 -24.834 -1.16699 -36.501 -3.5
s-22 -5.83301 -31 -10.5s-16.333 -10.834 -22 -18.501s-8.5 -16.5 -8.5 -26.5c0 -11.333 3.33301 -20.666 10 -27.999s15.667 -13.5 27 -18.5s24.5 -9.16699 39.5 -12.5s31.167 -6.33301 48.5 -9c28 -5.33301 54.5 -11.333 79.5 -18s47 -16 66 -28s34.167 -27 45.5 -45
s17 -41 17 -69z" />
    <glyph glyph-name="Tcedilla" unicode="&#x162;" horiz-adv-x="610" 
d="M205 -75c8 -8 17.999 -15.001 29.999 -21.001s25 -9 39 -9c14.667 0 26.834 3.5 36.501 10.5s14.5 17.167 14.5 30.5c0 8.66699 -2.16699 16.834 -6.5 24.501s-10.166 14.5 -17.499 20.5s-15.833 10.667 -25.5 14s-19.5 5 -29.5 5v564h-219v102h556v-102h-220v-564
c8 -10.667 16 -23 24 -37s12 -29.667 12 -47c0 -26.667 -10.5 -48 -31.5 -64s-47.5 -24 -79.5 -24c-18.667 0 -35.334 2.5 -50.001 7.5s-25.667 11.167 -33 18.5v71z" />
    <glyph glyph-name="tcedilla" unicode="&#x163;" horiz-adv-x="418" 
d="M123 -75c8 -8 18.0029 -15.0029 30.0029 -21.0029s24.667 -9 38 -9c15.333 0 27.833 4.33301 37.5 13s14.5 19.667 14.5 33c0 15.333 -5.33301 28 -16 38s-22.334 18.667 -35.001 26c-11.333 6.66699 -21.5 13.834 -30.5 21.501s-17.167 16.834 -24.5 27.501
c-9.33301 14 -15.833 29.833 -19.5 47.5s-5.5 38.834 -5.5 63.501v275h-106v85h106v189h111v-189h162v-85h-162v-276c0 -52 23.333 -78 70 -78c15.333 0 28.5 2.33301 39.5 7s20.167 10 27.5 16l44 -82c-33.333 -25.333 -74.333 -38.333 -123 -39
c11.333 -10 20.166 -21 26.499 -33s9.5 -25 9.5 -39c0 -26.667 -10.5 -48 -31.5 -64s-47.5 -24 -79.5 -24c-18.667 0 -35.334 2.5 -50.001 7.5s-25.667 11.167 -33 18.5v71z" />
    <glyph glyph-name="Tcaron" unicode="&#x164;" horiz-adv-x="610" 
d="M363 564v-564h-117v564h-219v102h556v-102h-220zM263 709c-18 16.667 -37.3311 33 -57.998 49s-44 32.667 -70 50l28 47c26.667 -7.33301 52.5 -17.666 77.5 -30.999s46.167 -27.666 63.5 -42.999c17.333 15.333 38.666 29.666 63.999 42.999s51 23.666 77 30.999l28 -47
c-25.333 -17.333 -48.333 -34 -69 -50s-40.334 -32.333 -59.001 -49h-82z" />
    <glyph glyph-name="tcaron" unicode="&#x165;" horiz-adv-x="418" 
d="M404 27c-34 -26 -75.667 -38.998 -125 -38.998c-32 0 -60 5.33301 -84 16s-43.333 27.667 -58 51c-9.33301 13.333 -15.833 28.666 -19.5 45.999s-5.5 38.666 -5.5 63.999v275h-106v85h106v189h111v-189h162v-85h-162v-276c0 -52 23.667 -78 71 -78
c14.667 0 27.5 2.33301 38.5 7s20.167 10 27.5 16zM398.118 696.592c0 -29.1797 -6.14062 -54.8428 -18.4238 -76.9883c-12.2822 -22.1455 -31.8232 -43.6396 -58.6221 -64.4824l-30.9863 32.8271c12.2832 10.4219 22.1934 22.4072 29.7305 35.9551
s11.3057 27.3564 11.3057 41.4258c0 7.81543 -1.25586 14.5889 -3.76855 20.3203l-7.53711 16.8047c-2.5127 5.47168 -4.88574 11.334 -7.11914 17.5869s-3.35059 13.8086 -3.35059 22.667v14.8506h88.7715v-60.9668z" />
    <glyph glyph-name="Tbar" unicode="&#x166;" horiz-adv-x="610" 
d="M363 298v-298h-117v298h-104v64h104v202h-219v102h556v-102h-220v-202h104v-64h-104z" />
    <glyph glyph-name="tbar" unicode="&#x167;" horiz-adv-x="418" 
d="M404 27c-34 -26 -75.667 -38.998 -125 -38.998c-32 0 -60 5.33301 -84 16s-43.333 27.667 -58 51c-9.33301 13.333 -15.833 28.666 -19.5 45.999s-5.5 38.666 -5.5 63.999v95h-88v64h88v116h-106v85h106v189h111v-189h162v-85h-162v-116h115v-64h-115v-96
c0 -52 23.667 -78 71 -78c14.667 0 27.5 2.33301 38.5 7s20.167 10 27.5 16z" />
    <glyph glyph-name="Utilde" unicode="&#x168;" horiz-adv-x="711" 
d="M635 253c0 -41.333 -6.83496 -78.5 -20.502 -111.5s-33 -60.833 -58 -83.5s-54.667 -40 -89 -52s-71.833 -18 -112.5 -18c-41.333 0 -79.166 6 -113.499 18s-63.666 29.333 -87.999 52s-43.333 50.5 -57 83.5s-20.5 70.167 -20.5 111.5v413h117v-413
c0 -48.667 14 -87 42 -115s68 -42 120 -42c50.667 0 90.667 14 120 42s44 66.333 44 115v413h116v-413zM528.998 807c-10.667 -25.333 -25.3311 -46.501 -43.998 -63.501s-39.667 -25.5 -63 -25.5c-12 0 -23.833 2 -35.5 6s-22.834 8.5 -33.501 13.5s-21 9.5 -31 13.5
s-20 6 -30 6c-12 0 -23.833 -3.16699 -35.5 -9.5s-22.834 -16.166 -33.501 -29.499l-42 28c10 25.333 24.5 46.333 43.5 63s40.167 25 63.5 25c12 0 23.667 -2 35 -6s22.5 -8.33301 33.5 -13l32 -13c10.333 -4 20.5 -6 30.5 -6c24 0 46.667 13 68 39z" />
    <glyph glyph-name="utilde" unicode="&#x169;" horiz-adv-x="603" 
d="M530 525v-524.998h-110v76c-21.333 -28 -46.333 -49.667 -75 -65s-61 -23 -97 -23c-58 0 -102.667 17.667 -134 53s-47 82.666 -47 141.999v342h110v-317c0 -14 1.33301 -28 4 -42s7.83398 -26.833 15.501 -38.5s18.167 -21 31.5 -28s31 -10.5 53 -10.5
c19.333 0 37.5 3.33301 54.5 10s31.667 16.167 44 28.5s22.166 27.166 29.499 44.499s11 37 11 59v294h110zM475 681.002c-10.667 -25.333 -25.3311 -46.501 -43.998 -63.501s-39.667 -25.5 -63 -25.5c-12 0 -23.833 2 -35.5 6s-22.834 8.5 -33.501 13.5s-21 9.5 -31 13.5
s-20 6 -30 6c-12 0 -23.833 -3.16699 -35.5 -9.5s-22.834 -16.166 -33.501 -29.499l-42 28c10 25.333 24.5 46.333 43.5 63s40.167 25 63.5 25c12 0 23.667 -2 35 -6s22.5 -8.33301 33.5 -13l32 -13c10.333 -4 20.5 -6 30.5 -6c24 0 46.667 13 68 39z" />
    <glyph glyph-name="Umacron" unicode="&#x16a;" horiz-adv-x="711" 
d="M635 253c0 -41.333 -6.83496 -78.5 -20.502 -111.5s-33 -60.833 -58 -83.5s-54.667 -40 -89 -52s-71.833 -18 -112.5 -18c-41.333 0 -79.166 6 -113.499 18s-63.666 29.333 -87.999 52s-43.333 50.5 -57 83.5s-20.5 70.167 -20.5 111.5v413h117v-413
c0 -48.667 14 -87 42 -115s68 -42 120 -42c50.667 0 90.667 14 120 42s44 66.333 44 115v413h116v-413zM199.998 731v67h311v-67h-311z" />
    <glyph glyph-name="umacron" unicode="&#x16b;" horiz-adv-x="603" 
d="M530 525v-524.998h-110v76c-21.333 -28 -46.333 -49.667 -75 -65s-61 -23 -97 -23c-58 0 -102.667 17.667 -134 53s-47 82.666 -47 141.999v342h110v-317c0 -14 1.33301 -28 4 -42s7.83398 -26.833 15.501 -38.5s18.167 -21 31.5 -28s31 -10.5 53 -10.5
c19.333 0 37.5 3.33301 54.5 10s31.667 16.167 44 28.5s22.166 27.166 29.499 44.499s11 37 11 59v294h110zM145 604.002v67h311v-67h-311z" />
    <glyph glyph-name="Ubreve" unicode="&#x16c;" horiz-adv-x="711" 
d="M635 253c0 -41.333 -6.83496 -78.5 -20.502 -111.5s-33 -60.833 -58 -83.5s-54.667 -40 -89 -52s-71.833 -18 -112.5 -18c-41.333 0 -79.166 6 -113.499 18s-63.666 29.333 -87.999 52s-43.333 50.5 -57 83.5s-20.5 70.167 -20.5 111.5v413h117v-413
c0 -48.667 14 -87 42 -115s68 -42 120 -42c50.667 0 90.667 14 120 42s44 66.333 44 115v413h116v-413zM355.998 713c-47.333 0 -85.0039 11.333 -113.004 34s-45 51 -51 85l58 18c6.66699 -19.333 18.834 -35 36.501 -47s40.834 -18 69.501 -18c29.333 0 52.833 6 70.5 18
s29.5 27.667 35.5 47l58 -18c-5.33301 -34 -22.166 -62.333 -50.499 -85s-66.166 -34 -113.499 -34z" />
    <glyph glyph-name="ubreve" unicode="&#x16d;" horiz-adv-x="603" 
d="M530 525v-524.998h-110v76c-21.333 -28 -46.333 -49.667 -75 -65s-61 -23 -97 -23c-58 0 -102.667 17.667 -134 53s-47 82.666 -47 141.999v342h110v-317c0 -14 1.33301 -28 4 -42s7.83398 -26.833 15.501 -38.5s18.167 -21 31.5 -28s31 -10.5 53 -10.5
c19.333 0 37.5 3.33301 54.5 10s31.667 16.167 44 28.5s22.166 27.166 29.499 44.499s11 37 11 59v294h110zM299 587.002c-47.333 0 -85.0039 11.333 -113.004 34s-45 51 -51 85l58 18c6.66699 -19.333 18.834 -35 36.501 -47s40.834 -18 69.501 -18
c29.333 0 52.833 6 70.5 18s29.5 27.667 35.5 47l58 -18c-5.33301 -34 -22.166 -62.333 -50.499 -85s-66.166 -34 -113.499 -34z" />
    <glyph glyph-name="Uring" unicode="&#x16e;" horiz-adv-x="711" 
d="M635 253c0 -41.333 -6.83496 -78.5 -20.502 -111.5s-33 -60.833 -58 -83.5s-54.667 -40 -89 -52s-71.833 -18 -112.5 -18c-41.333 0 -79.166 6 -113.499 18s-63.666 29.333 -87.999 52s-43.333 50.5 -57 83.5s-20.5 70.167 -20.5 111.5v413h117v-413
c0 -48.667 14 -87 42 -115s68 -42 120 -42c50.667 0 90.667 14 120 42s44 66.333 44 115v413h116v-413zM467.998 777c0 -14 -2.83301 -27.334 -8.5 -40.001s-13.5 -23.667 -23.5 -33s-21.833 -16.666 -35.5 -21.999s-28.5 -8 -44.5 -8c-32.667 0 -59.667 10 -81 30
s-32 44.333 -32 73c0 14 2.83301 27.5 8.5 40.5s13.5 24.167 23.5 33.5s22 16.833 36 22.5s29 8.5 45 8.5s30.833 -2.83301 44.5 -8.5s25.5 -13.167 35.5 -22.5s17.833 -20.5 23.5 -33.5s8.5 -26.5 8.5 -40.5zM409.998 776.999c0 15.333 -5.33301 28.333 -16 39
s-23.334 16 -38.001 16c-15.333 0 -28.333 -5.33301 -39 -16s-16 -23.667 -16 -39s5.33301 -28.166 16 -38.499s23.667 -15.5 39 -15.5c14.667 0 27.334 5.16699 38.001 15.5s16 23.166 16 38.499z" />
    <glyph glyph-name="uring" unicode="&#x16f;" horiz-adv-x="603" 
d="M530 525v-524.998h-110v76c-21.333 -28 -46.333 -49.667 -75 -65s-61 -23 -97 -23c-58 0 -102.667 17.667 -134 53s-47 82.666 -47 141.999v342h110v-317c0 -14 1.33301 -28 4 -42s7.83398 -26.833 15.501 -38.5s18.167 -21 31.5 -28s31 -10.5 53 -10.5
c19.333 0 37.5 3.33301 54.5 10s31.667 16.167 44 28.5s22.166 27.166 29.499 44.499s11 37 11 59v294h110zM411 677.002c0 -14 -2.83301 -27.334 -8.5 -40.001s-13.5 -23.667 -23.5 -33s-21.833 -16.666 -35.5 -21.999s-28.5 -8 -44.5 -8c-32.667 0 -59.667 10 -81 30
s-32 44.333 -32 73c0 14 2.83301 27.5 8.5 40.5s13.5 24.167 23.5 33.5s22 16.833 36 22.5s29 8.5 45 8.5s30.833 -2.83301 44.5 -8.5s25.5 -13.167 35.5 -22.5s17.833 -20.5 23.5 -33.5s8.5 -26.5 8.5 -40.5zM353 677.001c0 15.333 -5.33301 28.333 -16 39
s-23.334 16 -38.001 16c-15.333 0 -28.333 -5.33301 -39 -16s-16 -23.667 -16 -39s5.33301 -28.166 16 -38.499s23.667 -15.5 39 -15.5c14.667 0 27.334 5.16699 38.001 15.5s16 23.166 16 38.499z" />
    <glyph glyph-name="Uhungarumlaut" unicode="&#x170;" horiz-adv-x="711" 
d="M635 253c0 -41.333 -6.83496 -78.5 -20.502 -111.5s-33 -60.833 -58 -83.5s-54.667 -40 -89 -52s-71.833 -18 -112.5 -18c-41.333 0 -79.166 6 -113.499 18s-63.666 29.333 -87.999 52s-43.333 50.5 -57 83.5s-20.5 70.167 -20.5 111.5v413h117v-413
c0 -48.667 14 -87 42 -115s68 -42 120 -42c50.667 0 90.667 14 120 42s44 66.333 44 115v413h116v-413zM219.998 730c15.333 18 31.332 38.668 47.999 62.001s29.667 44.666 39 63.999l93 -16c-5.33301 -12.667 -13.166 -25.5 -23.499 -38.5s-22 -25.667 -35 -38
s-26.667 -23.833 -41 -34.5s-28.5 -20 -42.5 -28zM385.997 730.001c15.333 18 31.332 38.668 47.999 62.001s29.667 44.666 39 63.999l93 -16c-5.33301 -12.667 -13.166 -25.5 -23.499 -38.5s-22 -25.667 -35 -38s-26.667 -23.833 -41 -34.5s-28.5 -20 -42.5 -28z" />
    <glyph glyph-name="uhungarumlaut" unicode="&#x171;" horiz-adv-x="603" 
d="M530 525v-524.998h-110v76c-21.333 -28 -46.333 -49.667 -75 -65s-61 -23 -97 -23c-58 0 -102.667 17.667 -134 53s-47 82.666 -47 141.999v342h110v-317c0 -14 1.33301 -28 4 -42s7.83398 -26.833 15.501 -38.5s18.167 -21 31.5 -28s31 -10.5 53 -10.5
c19.333 0 37.5 3.33301 54.5 10s31.667 16.167 44 28.5s22.166 27.166 29.499 44.499s11 37 11 59v294h110zM173 604.002c15.333 18 31.332 38.668 47.999 62.001s29.667 44.666 39 63.999l93 -16c-5.33301 -12.667 -13.166 -25.5 -23.499 -38.5s-22 -25.667 -35 -38
s-26.667 -23.833 -41 -34.5s-28.5 -20 -42.5 -28zM338.999 604.003c15.333 18 31.332 38.668 47.999 62.001s29.667 44.666 39 63.999l93 -16c-5.33301 -12.667 -13.166 -25.5 -23.499 -38.5s-22 -25.667 -35 -38s-26.667 -23.833 -41 -34.5s-28.5 -20 -42.5 -28z" />
    <glyph glyph-name="Uogonek" unicode="&#x172;" horiz-adv-x="711" 
d="M635 253c0 -58 -11.832 -104.834 -35.499 -140.501s-54.5 -65.167 -92.5 -88.5c-18 -11.333 -33 -23.833 -45 -37.5s-18 -29.167 -18 -46.5c0 -15.333 4.66699 -26.666 14 -33.999s21.666 -11 36.999 -11c16.667 0 30.667 3.66699 42 11s21.333 15.666 30 24.999v-78
c-7.33301 -7.33301 -18.333 -14 -33 -20s-32.667 -9 -54 -9c-30.667 0 -56.667 7.66699 -78 23s-32 37 -32 65c0 14.667 3.16699 28.834 9.5 42.501s16.833 26.5 31.5 38.5c-9.33301 -1.33301 -18.333 -2.5 -27 -3.5s-18.667 -1.5 -30 -1.5c-41.333 0 -79 6 -113 18
s-63.167 29.333 -87.5 52s-43.333 50.5 -57 83.5s-20.5 70.167 -20.5 111.5v413h117v-413c0 -48.667 14 -87 42 -115s68 -42 120 -42c51.333 0 91.333 14 120 42s43 66.333 43 115v413h117v-413z" />
    <glyph glyph-name="uogonek" unicode="&#x173;" horiz-adv-x="603" 
d="M420 76c-21.333 -28 -46.3311 -49.666 -74.998 -64.999s-61 -23 -97 -23c-58 0 -102.667 17.667 -134 53s-47 82.666 -47 141.999v342h110v-317c0 -14 1.33301 -28 4 -42s7.83398 -26.833 15.501 -38.5s18.167 -21 31.5 -28s31 -10.5 53 -10.5
c19.333 0 37.5 3.33301 54.5 10s31.667 16.167 44 28.5s22.166 27.166 29.499 44.499s11 37 11 59v294h110v-525c-12.667 -1.33301 -25.167 -3.66602 -37.5 -6.99902s-23.166 -7.66602 -32.499 -12.999s-17 -11.833 -23 -19.5s-9 -16.167 -9 -25.5
c0 -11.333 4.66699 -20.833 14 -28.5s21.666 -11.5 36.999 -11.5c13.333 0 25.166 3 35.499 9s18.833 12.667 25.5 20v-76c-7.33301 -6.66699 -17.333 -12.334 -30 -17.001s-27 -7 -43 -7c-32.667 0 -59.334 8.33301 -80.001 25s-31 37.667 -31 63
c0 17.333 5.33301 34.333 16 51s26.667 29 48 37v76z" />
    <glyph glyph-name="Wcircumflex" unicode="&#x174;" horiz-adv-x="950" 
d="M743 0h-129l-140 496l-141 -496h-130l-180 666h125l126 -509l148 509h108l147 -511l126 511h126zM516 851c18.667 -16.667 38.332 -33 58.999 -49s43.667 -32.667 69 -50l-28 -47c-26 7.33301 -51.667 17.666 -77 30.999s-46.666 27.666 -63.999 42.999
c-17.333 -15.333 -38.5 -29.666 -63.5 -42.999s-50.833 -23.666 -77.5 -30.999l-28 47c26 17.333 49.333 34 70 50s40 32.333 58 49h82z" />
    <glyph glyph-name="wcircumflex" unicode="&#x175;" horiz-adv-x="803" 
d="M633 0h-118l-113 382l-116 -382h-117l-145 525h119l95 -384l115 384h101l114 -384l94 384h117zM441 725c18.667 -16.667 38.332 -33 58.999 -49s43.667 -32.667 69 -50l-28 -47c-26 7.33301 -51.667 17.666 -77 30.999s-46.666 27.666 -63.999 42.999
c-17.333 -15.333 -38.5 -29.666 -63.5 -42.999s-50.833 -23.666 -77.5 -30.999l-28 47c26 17.333 49.333 34 70 50s40 32.333 58 49h82z" />
    <glyph glyph-name="Ycircumflex" unicode="&#x176;" horiz-adv-x="632" 
d="M374 266v-266h-117v266l-255 400h137l178 -294l179 294h135zM356 851c18.667 -16.667 38.332 -33 58.999 -49s43.667 -32.667 69 -50l-28 -47c-26 7.33301 -51.667 17.666 -77 30.999s-46.666 27.666 -63.999 42.999c-17.333 -15.333 -38.5 -29.666 -63.5 -42.999
s-50.833 -23.666 -77.5 -30.999l-28 47c26 17.333 49.333 34 70 50s40 32.333 58 49h82z" />
    <glyph glyph-name="ycircumflex" unicode="&#x177;" horiz-adv-x="604" 
d="M421 116c-21.333 -28 -46.333 -49.668 -75 -65.001s-61 -23 -97 -23c-58 0 -102.667 17.667 -134 53s-47 82.666 -47 141.999v302h110v-276c0 -14 1.33301 -28.167 4 -42.5s7.83398 -27.166 15.501 -38.499s18.167 -20.666 31.5 -27.999s31 -11 53 -11
c19.333 0 37.5 3.33301 54.5 10s31.667 16.167 44 28.5s22.166 27.166 29.499 44.499s11 37 11 59v254h110v-454c0 -36 -4 -69.167 -12 -99.5s-23 -57.166 -45 -80.499c-23.333 -24 -52.333 -42.5 -87 -55.5s-75.334 -19.5 -122.001 -19.5
c-40.667 0 -78.167 5.16699 -112.5 15.5s-65.166 25.166 -92.499 44.499l48 85c23.333 -17.333 48.5 -29.666 75.5 -36.999s54.167 -11 81.5 -11c22 0 42.5 2.5 61.5 7.5s35.5 12.833 49.5 23.5s25 24.5 33 41.5s12 37.5 12 61.5v69zM339 724.999
c18.667 -16.667 38.332 -33 58.999 -49s43.667 -32.667 69 -50l-28 -47c-26 7.33301 -51.667 17.666 -77 30.999s-46.666 27.666 -63.999 42.999c-17.333 -15.333 -38.5 -29.666 -63.5 -42.999s-50.833 -23.666 -77.5 -30.999l-28 47c26 17.333 49.333 34 70 50
s40 32.333 58 49h82z" />
    <glyph glyph-name="Ydieresis" unicode="&#x178;" horiz-adv-x="632" 
d="M374 266v-266h-117v266l-255 400h137l178 -294l179 294h135zM163 720v91h89v-91h-89zM379 720v91h88v-91h-88z" />
    <glyph glyph-name="Zacute" unicode="&#x179;" horiz-adv-x="613" 
d="M39 0v92l370 472h-355v102h509v-88l-372 -476h381v-102h-533zM240 730c15.333 18 31.167 38.668 47.5 62.001s29.166 44.666 38.499 63.999l98 -16c-5.33301 -12.667 -13.166 -25.5 -23.499 -38.5s-22 -25.667 -35 -38s-26.667 -23.833 -41 -34.5s-28.5 -20 -42.5 -28z
" />
    <glyph glyph-name="zacute" unicode="&#x17a;" horiz-adv-x="521" 
d="M39 0v85l282 343h-270v97h420v-84l-281 -344h290v-97h-441zM207 603c14.667 18 29.001 38.667 43.001 62s25 45 33 65l98 -16c-11.333 -25.333 -29.333 -50.5 -54 -75.5s-50.334 -46.167 -77.001 -63.5z" />
    <glyph glyph-name="Zdotaccent" unicode="&#x17b;" horiz-adv-x="613" 
d="M39 0v92l370 472h-355v102h509v-88l-372 -476h381v-102h-533zM257 722v89h93v-89h-93z" />
    <glyph glyph-name="zdotaccent" unicode="&#x17c;" horiz-adv-x="521" 
d="M39 0v85l282 343h-270v97h420v-84l-281 -344h290v-97h-441zM210 596v89h93v-89h-93z" />
    <glyph glyph-name="Zcaron" unicode="&#x17d;" horiz-adv-x="613" 
d="M39 0v92l370 472h-355v102h509v-88l-372 -476h381v-102h-533zM256 709c-18 16.667 -37.3311 33 -57.998 49s-44 32.667 -70 50l28 47c26.667 -7.33301 52.5 -17.666 77.5 -30.999s46.167 -27.666 63.5 -42.999c17.333 15.333 38.666 29.666 63.999 42.999
s51 23.666 77 30.999l28 -47c-25.333 -17.333 -48.333 -34 -69 -50s-40.334 -32.333 -59.001 -49h-82z" />
    <glyph glyph-name="zcaron" unicode="&#x17e;" horiz-adv-x="521" 
d="M39 0v85l282 343h-270v97h420v-84l-281 -344h290v-97h-441zM212 583c-18 16.667 -37.3311 33 -57.998 49s-44 32.667 -70 50l28 47c26.667 -7.33301 52.5 -17.666 77.5 -30.999s46.167 -27.666 63.5 -42.999c17.333 15.333 38.666 29.666 63.999 42.999
s51 23.666 77 30.999l28 -47c-25.333 -17.333 -48.333 -34 -69 -50s-40.334 -32.333 -59.001 -49h-82z" />
    <glyph glyph-name="florin" unicode="&#x192;" 
d="M510 569c-9.33301 5.33301 -18.168 9.00391 -26.501 11.0039s-18.166 3 -29.499 3c-28 0 -49 -6.5 -63 -19.5s-23 -32.167 -27 -57.5l-15 -86h128l-16 -88h-128l-47 -275c-4 -25.333 -10.833 -48.5 -20.5 -69.5s-22.334 -39.167 -38.001 -54.5s-34.5 -27.333 -56.5 -36
s-47.667 -13 -77 -13c-21.333 0 -39.833 2 -55.5 6s-30.167 9 -43.5 15l36 88c9.33301 -4.66699 18.5 -8.16699 27.5 -10.5s19.5 -3.5 31.5 -3.5c26 0 45.833 6.66699 59.5 20s22.834 32.666 27.501 57.999l48 275h-103l16 88h103l14 86c4 25.333 11 48.666 21 69.999
s22.833 39.666 38.5 54.999s34.5 27.166 56.5 35.499s47.333 12.5 76 12.5c21.333 0 40 -2 56 -6s30 -9 42 -15z" />
    <glyph glyph-name="Aringacute" unicode="&#x1fa;" horiz-adv-x="670" 
d="M212 711c0 16 3.16895 30.833 9.50195 44.5s15.166 25.667 26.499 36s24.333 18.5 39 24.5s30.667 9 48 9s33.5 -3 48.5 -9s28.167 -14.167 39.5 -24.5s20.166 -22.333 26.499 -36s9.5 -28.5 9.5 -44.5c0 -16.667 -3.66699 -32 -11 -46s-17.333 -25.667 -30 -35l247 -630
h-131l-63 170h-276l-63 -170h-127l248 630c-12.667 9.33301 -22.667 21 -30 35s-11 29.333 -11 46zM334.002 563l-108 -295h213zM391.002 710c0 16 -5.16699 29.667 -15.5 41s-23.5 17 -39.5 17s-29.5 -5.66699 -40.5 -17s-16.5 -25 -16.5 -41
c0 -15.333 5.5 -28.333 16.5 -39s24.5 -16 40.5 -16s29.167 5.33301 39.5 16s15.5 23.667 15.5 39zM261.002 865c15.333 18 31.167 38.668 47.5 62.001s29.166 44.666 38.499 63.999l98 -16c-5.33301 -12.667 -13.166 -25.5 -23.499 -38.5s-22 -25.667 -35 -38
s-26.667 -23.833 -41 -34.5s-28.5 -20 -42.5 -28z" />
    <glyph glyph-name="aringacute" unicode="&#x1fb;" horiz-adv-x="662" 
d="M419 660c0 -14 -2.83301 -27.334 -8.5 -40.001s-13.5 -23.667 -23.5 -33s-21.833 -16.666 -35.5 -21.999s-28.5 -8 -44.5 -8c-32.667 0 -59.667 10 -81 30s-32 44.333 -32 73c0 14 2.83301 27.5 8.5 40.5s13.5 24.167 23.5 33.5s22 16.833 36 22.5s29 8.5 45 8.5
s30.833 -2.83301 44.5 -8.5s25.5 -13.167 35.5 -22.5s17.833 -20.5 23.5 -33.5s8.5 -26.5 8.5 -40.5zM361 659.999c0 15.333 -5.33301 28.333 -16 39s-23.334 16 -38.001 16c-15.333 0 -28.333 -5.33301 -39 -16s-16 -23.667 -16 -39s5.33301 -28.166 16 -38.499
s23.667 -15.5 39 -15.5c14.667 0 27.334 5.16699 38.001 15.5s16 23.166 16 38.499zM235 805.999c15.333 18 31.167 38.668 47.5 62.001s29.166 44.666 38.499 63.999l98 -16c-5.33301 -12.667 -13.166 -25.5 -23.499 -38.5s-22 -25.667 -35 -38s-26.667 -23.833 -41 -34.5
s-28.5 -20 -42.5 -28zM569.001 122c0 -17.333 2.66797 -29.6689 8.00098 -37.002s14.666 -11 27.999 -11c12.667 0 22.334 2.33301 29.001 7l13 -76c-9.33301 -4.66699 -20.5 -8 -33.5 -10s-24.167 -3 -33.5 -3c-25.333 0 -48.833 6 -70.5 18s-36.5 33.667 -44.5 65
c-22.667 -32 -49.834 -54.5 -81.501 -67.5s-65.167 -19.5 -100.5 -19.5c-38 0 -72.167 7 -102.5 21s-55.833 33.333 -76.5 58s-36.5 53.667 -47.5 87s-16.5 69.333 -16.5 108s5.5 74.834 16.5 108.501s27 62.834 48 87.501s46.333 44 76 58s63.167 21 100.5 21
c34.667 0 67 -6.83301 97 -20.5s56.667 -36.5 80 -68.5v77h111v-403zM458.002 261.997c0 24.667 -3.33203 47.667 -9.99902 69s-16.334 40 -29.001 56s-28.667 28.5 -48 37.5s-41.333 13.5 -66 13.5c-25.333 0 -47.166 -4.66699 -65.499 -14s-33.666 -22 -45.999 -38
s-21.5 -34.667 -27.5 -56s-9 -44 -9 -68s3 -46.667 9 -68s15.167 -40 27.5 -56s27.666 -28.5 45.999 -37.5s40.166 -13.5 65.499 -13.5s47.5 4.5 66.5 13.5s35 21.5 48 37.5s22.667 34.667 29 56s9.5 44 9.5 68z" />
    <glyph glyph-name="AEacute" unicode="&#x1fc;" horiz-adv-x="925" 
d="M438 0v170h-232l-86 -170h-127l340 666h539v-102h-316v-163h269v-102h-269v-197h326v-102h-444zM438 569h-38l-147 -301h185v301zM419 730c15.333 18 31.167 38.668 47.5 62.001s29.166 44.666 38.499 63.999l98 -16c-5.33301 -12.667 -13.166 -25.5 -23.499 -38.5
s-22 -25.667 -35 -38s-26.667 -23.833 -41 -34.5s-28.5 -20 -42.5 -28z" />
    <glyph glyph-name="aeacute" unicode="&#x1fd;" horiz-adv-x="1007" 
d="M460 604c15.333 18 31.167 38.668 47.5 62.001s29.166 44.666 38.499 63.999l98 -16c-5.33301 -12.667 -13.166 -25.5 -23.499 -38.5s-22 -25.667 -35 -38s-26.667 -23.833 -41 -34.5s-28.5 -20 -42.5 -28zM458.001 262.001c0 24.667 -3.33203 47.667 -9.99902 69
s-16.334 40 -29.001 56s-28.667 28.5 -48 37.5s-41.333 13.5 -66 13.5c-25.333 0 -47.166 -4.66699 -65.499 -14s-33.666 -22 -45.999 -38s-21.5 -34.667 -27.5 -56s-9 -44 -9 -68s3 -46.667 9 -68s15.167 -40 27.5 -56s27.666 -28.5 45.999 -37.5
s40.166 -13.5 65.499 -13.5s47.5 4.5 66.5 13.5s35 21.5 48 37.5s22.667 34.667 29 56s9.5 44 9.5 68zM732.002 537.001c36.667 0 69.833 -6.66309 99.5 -19.9961s54.834 -31.833 75.501 -55.5s36.5 -51.834 47.5 -84.501s16.5 -68 16.5 -106
c0 -7.33301 -0.166992 -13.833 -0.5 -19.5s-0.833008 -10.834 -1.5 -15.501h-400c2.66699 -48 18.5 -85.167 47.5 -111.5s66.5 -39.5 112.5 -39.5c31.333 0 59.5 5.66699 84.5 17s47.167 27.666 66.5 48.999l73 -68c-28 -29.333 -60.333 -52.5 -97 -69.5
s-80.334 -25.5 -131.001 -25.5c-52 0 -96.333 9.83301 -133 29.5s-65.667 47.167 -87 82.5c-20 -34 -48 -61.167 -84 -81.5s-77.333 -30.5 -124 -30.5c-39.333 0 -74.833 6.83301 -106.5 20.5s-58.667 32.667 -81 57s-39.5 53.333 -51.5 87s-18 70.5 -18 110.5
c0 38.667 5.5 74.667 16.5 108s27 62.333 48 87s46.333 44 76 58s63.167 21 100.5 21c34.667 0 67 -6.83301 97 -20.5s56.667 -36.5 80 -68.5v77h111v-66c19.333 23.333 42.333 42.166 69 56.499s58 21.5 94 21.5zM859.001 313.005
c-3.33301 44.667 -18.667 78.334 -46 101.001s-60 34 -98 34c-41.333 0 -75 -12.333 -101 -37s-40.667 -57.334 -44 -98.001h289z" />
    <glyph glyph-name="Oslashacute" unicode="&#x1fe;" horiz-adv-x="746" 
d="M324 730c15.333 18 31.167 38.668 47.5 62.001s29.166 44.666 38.499 63.999l98 -16c-5.33301 -12.667 -13.166 -25.5 -23.499 -38.5s-22 -25.667 -35 -38s-26.667 -23.833 -41 -34.5s-28.5 -20 -42.5 -28zM117.001 24.001l31.9971 45.001
c-34.667 31.333 -61.167 69.666 -79.5 114.999s-27.5 95 -27.5 149c0 48.667 7.66699 94 23 136s37.333 78.5 66 109.5s63.334 55.333 104.001 73s86.667 26.5 138 26.5c32.667 0 63.334 -3.83301 92.001 -11.5s55 -18.5 79 -32.5l32 45l53 -37l-33 -46
c34.667 -31.333 61.334 -69.5 80.001 -114.5s28 -94.5 28 -148.5c0 -48.667 -7.66699 -94 -23 -136s-37.333 -78.5 -66 -109.5s-63.5 -55.333 -104.5 -73s-86.833 -26.5 -137.5 -26.5c-66 0 -123.333 14.667 -172 44l-31 -45zM581.998 333.002c0 34 -4.66797 65 -14.001 93
s-22.666 52.333 -39.999 73l-262 -375c30 -18.667 65.667 -28 107 -28c32.667 0 62 6 88 18s48 28.5 66 49.5s31.667 46 41 75s14 60.5 14 94.5zM163.997 333.002c0 -34 4.49902 -65.167 13.499 -93.5s22.167 -52.833 39.5 -73.5l262 376
c-31.333 18.667 -66.666 28 -105.999 28c-33.333 0 -62.833 -6 -88.5 -18s-47.5 -28.5 -65.5 -49.5s-31.667 -46 -41 -75s-14 -60.5 -14 -94.5z" />
    <glyph glyph-name="oslashacute" unicode="&#x1ff;" horiz-adv-x="612" 
d="M261 604c15.333 18 31.167 38.668 47.5 62.001s29.166 44.666 38.499 63.999l98 -16c-5.33301 -12.667 -13.166 -25.5 -23.499 -38.5s-22 -25.667 -35 -38s-26.667 -23.833 -41 -34.5s-28.5 -20 -42.5 -28zM101.001 22.001l22.002 31
c-26.667 24.667 -47.167 54.667 -61.5 90s-21.5 75 -21.5 119c0 40 6.16699 76.833 18.5 110.5s30 62.667 53 87s51 43.333 84 57s69.833 20.5 110.5 20.5c25.333 0 49 -2.83301 71 -8.5s42.667 -13.5 62 -23.5l23 32l49 -34l-23 -32
c27.333 -24.667 48.166 -54.667 62.499 -90s21.5 -75 21.5 -119c0 -40 -6.16699 -76.833 -18.5 -110.5s-30 -62.5 -53 -86.5s-51 -42.833 -84 -56.5s-69.833 -20.5 -110.5 -20.5c-50.667 0 -95.334 10.667 -134.001 32l-22 -32zM157.003 262.001
c0 -22.667 2.50098 -43.6689 7.50098 -63.002s12.833 -36.666 23.5 -51.999l193 275c-10.667 6.66699 -22.334 11.834 -35.001 15.501s-26 5.5 -40 5.5c-24 0 -45.333 -4.66699 -64 -14s-34.167 -22 -46.5 -38s-21.833 -35 -28.5 -57s-10 -46 -10 -72zM455.004 261.999
c0 46.667 -10.668 85.333 -32.001 116l-193 -275c20.667 -14 46 -21 76 -21c24 0 45.167 4.66699 63.5 14s33.833 22 46.5 38s22.334 35 29.001 57s10 45.667 10 71z" />
    <glyph glyph-name="Scommaaccent" unicode="&#x218;" horiz-adv-x="616" 
d="M302 678c52 0 100.834 -9.99902 146.501 -29.999s83.834 -51.333 114.501 -94l-88 -59c-21.333 28 -47.166 49 -77.499 63s-63.5 21 -99.5 21c-16.667 0 -32.334 -1.5 -47.001 -4.5s-27.5 -8 -38.5 -15s-19.667 -15.833 -26 -26.5s-9.5 -23.667 -9.5 -39
c0 -16 3.83301 -29 11.5 -39s18.334 -18.5 32.001 -25.5s29.5 -12.667 47.5 -17l57 -13.5c32.667 -7.33301 64.167 -15.5 94.5 -24.5s57 -20.833 80 -35.5s41.333 -33.334 55 -56.001s20.5 -51 20.5 -85c0 -30.667 -6 -58.834 -18 -84.501s-29.333 -47.834 -52 -66.501
s-50.334 -33.167 -83.001 -43.5s-69.334 -15.5 -110.001 -15.5c-66.667 0 -124.334 13.167 -173.001 39.5s-85.667 62.5 -111 108.5l94 55c22.667 -37.333 51.5 -64 86.5 -80s71.833 -24 110.5 -24c42 0 75.667 8.5 101 25.5s38 41.167 38 72.5
c0 18 -4.16699 32.5 -12.5 43.5s-20 20.167 -35 27.5s-32.667 13.333 -53 18s-42.5 9.33398 -66.5 14.001c-30 6 -59 13.5 -87 22.5s-52.667 20.833 -74 35.5s-38.333 33.167 -51 55.5s-19 49.833 -19 82.5c0 30.667 6 58 18 82s28.667 44.333 50 61
s46.833 29.334 76.5 38.001s62.167 13 97.5 13zM202.001 -172.999c14 18.667 27.832 39.332 41.499 61.999s24.167 44 31.5 64l99 -12c-5.33301 -12.667 -12.666 -25.667 -21.999 -39s-19.833 -26.166 -31.5 -38.499s-24 -24 -37 -35s-25.833 -20.5 -38.5 -28.5z" />
    </font>
</defs>
</svg>
